<?xml version="1.0" encoding="UTF-8"?>
<svg width="311px" height="366px" viewBox="0 0 311 366" version="1.1" xmlns="http://www.w3.org/2000/svg" xmlns:xlink="http://www.w3.org/1999/xlink">
    <!-- Generator: Sketch 63.1 (92452) - https://sketch.com -->
    <title>ficha@2x</title>
    <desc>Created with Sketch.</desc>
    <defs>
        <rect id="path-1" x="0" y="0" width="255" height="310" rx="8"></rect>
        <filter x="-16.9%" y="-13.2%" width="133.7%" height="127.7%" filterUnits="objectBoundingBox" id="filter-3">
            <feOffset dx="0" dy="2" in="SourceAlpha" result="shadowOffsetOuter1"></feOffset>
            <feGaussianBlur stdDeviation="14" in="shadowOffsetOuter1" result="shadowBlurOuter1"></feGaussianBlur>
            <feColorMatrix values="0 0 0 0 0   0 0 0 0 0   0 0 0 0 0  0 0 0 0.06 0" type="matrix" in="shadowBlurOuter1"></feColorMatrix>
        </filter>
        <path d="M3.00025,7.99927241 C2.74425,7.99927241 2.48825,7.90127241 2.29325,7.70627241 C1.90225,7.31527241 1.90225,6.68327241 2.29325,6.29227241 L5.59825,2.98727241 L2.41825,-0.305727588 C2.03525,-0.703727588 2.04625,-1.33672759 2.44325,-1.71972759 C2.84125,-2.10272759 3.47425,-2.09172759 3.85725,-1.69572759 L7.71925,2.30427241 C8.09825,2.69727241 8.09325,3.32027241 7.70725,3.70627241 L3.70725,7.70627241 C3.51225,7.90127241 3.25625,7.99927241 3.00025,7.99927241" id="path-4"></path>
        <polygon id="path-6" points="0.69531609 0.64424 23.3491389 0.64424 23.3491389 31.6832 0.69531609 31.6832"></polygon>
        <polygon id="path-8" points="0.7824 0.16248 22.5468552 0.16248 22.5468552 20.484 0.7824 20.484"></polygon>
        <path d="M11.8544,0.2784 L11.9173,0.2822 L11.9808,0.2944 L12.0530809,0.319240604 C12.2153043,0.388729767 12.3307995,0.536188752 12.363808,0.704403841 L12.3728,0.7776 L12.3728,0.8312 L12.3692,0.8748 L12.3608,0.9184 L1.636,46.4672 L1.61325139,46.5390437 C1.53128395,46.7434067 1.32408401,46.8696003 1.10436241,46.8496603 L1.0216,46.8352 L0.948555281,46.8099797 C0.784649657,46.7393536 0.668278738,46.5890908 0.637459534,46.418287 L0.6296,46.344 L0.6296,46.3128 L0.6341,46.262 L0.644,46.2112 L11.3672,0.6632 C11.4216,0.432 11.6272,0.2784 11.8544,0.2784 Z" id="path-10"></path>
        <linearGradient x1="44.8064305%" y1="47.3112335%" x2="55.2098571%" y2="52.6968094%" id="linearGradient-12">
            <stop stop-color="#FFFFFE" offset="0%"></stop>
            <stop stop-color="#CD6B29" offset="100%"></stop>
        </linearGradient>
        <path d="M12.0136,0.4288 L12.0766,0.4326 L12.1408,0.4448 L12.2127609,0.469214726 C12.4178131,0.55588373 12.5476878,0.765695641 12.5331544,0.985939636 L12.5208,1.0688 L1.7952,46.6176 L1.77284929,46.689246 C1.69195038,46.8930854 1.48486917,47.0193252 1.26516077,47.0004236 L1.1824,46.9864 L1.11061998,46.96193 C0.906000568,46.8749458 0.775703808,46.6635839 0.790648875,46.4435101 L0.8032,46.3608 L11.5288,0.8128 C11.5816,0.5816 11.7864,0.4288 12.0136,0.4288 Z" id="path-13"></path>
        <linearGradient x1="57.8906887%" y1="-2.09917823%" x2="44.025551%" y2="89.4487069%" id="linearGradient-15">
            <stop stop-color="#FFFFFE" offset="0%"></stop>
            <stop stop-color="#CD6B29" offset="100%"></stop>
        </linearGradient>
        <polygon id="path-16" points="0.2424 0.753876699 11.9864 0.753876699 11.9864 47.3264 0.2424 47.3264"></polygon>
    </defs>
    <g id="Screens" stroke="none" stroke-width="1" fill="none" fill-rule="evenodd">
        <g id="Materias-" transform="translate(-137.000000, -399.000000)" fill="#D8D8D8">
            <g id="Ficha-de-repaso" transform="translate(165.000000, 425.000000)">
                <g id="Group" fill="none">
                    <mask id="mask-2" fill="white">
                        <use xlink:href="#path-1"></use>
                    </mask>
                    <g id="Mask">
                        <use fill="black" fill-opacity="1" filter="url(#filter-3)" xlink:href="#path-1"></use>
                        <use fill="#FFFFFF" fill-rule="evenodd" xlink:href="#path-1"></use>
                    </g>
                    <rect id="Rectangle" fill="#E4E9F2" fill-rule="nonzero" opacity="0.497465588" mask="url(#mask-2)" x="0" y="0" width="255" height="88"></rect>
                    <g id="atomo/-button/-primario/-228x48px/-active-copy-2" mask="url(#mask-2)">
                        <g transform="translate(27.000000, 232.000000)" id="Group">
                            <g>
                                <rect id="Rectangle" fill="#00B0ED" x="0" y="0" width="200" height="48" rx="24"></rect>
                                <g id="Group-2" transform="translate(30.225131, 14.000000)">
                                    <g id="Group-3">
                                        <text id="Ver-actividades" font-family="Montserrat-Medium, Montserrat" font-size="16" font-weight="400" line-spacing="20" fill="#FFFFFF">
                                            <tspan x="0.410429319" y="15">Ver actividades</tspan>
                                        </text>
                                        <g id="Arrow_down" transform="translate(140.596859, 11.000000) rotate(-90.000000) translate(-140.596859, -11.000000) translate(135.596859, 8.000000)">
                                            <mask id="mask-5" fill="white">
                                                <use xlink:href="#path-4"></use>
                                            </mask>
                                            <use id="🎨-Icon-Сolor" fill="#FFFFFF" fill-rule="nonzero" transform="translate(5.000080, 2.999636) rotate(-270.000000) translate(-5.000080, -2.999636) " xlink:href="#path-4"></use>
                                        </g>
                                    </g>
                                </g>
                            </g>
                        </g>
                    </g>
                    <text id="Fichas-de-repaso" font-family="Montserrat-Medium, Montserrat" font-size="20" font-weight="400" letter-spacing="0.416666667" fill="#333E53">
                        <tspan x="39.1566667" y="196">Fichas de repaso</tspan>
                    </text>
                </g>
                <g id="icono_01-" fill="none" transform="translate(74.000000, 24.000000)">
                    <g id="Group-2" transform="translate(-16.000000, -9.600000)">
                        <g id="Group-145" transform="translate(0.000000, 7.200000)">
                            <path d="M122.93128,54.11552 C122.93128,83.90032 98.78488,108.04592 69.00168,108.04592 C39.21528,108.04592 15.07048,83.90032 15.07048,54.11552 C15.07048,24.33072 39.21528,0.18512 69.00168,0.18512 C98.78488,0.18512 122.93128,24.33072 122.93128,54.11552" id="Fill-1" fill="#25A6D3"></path>
                            <path d="M121.09376,81.21864 C117.43456,78.54104 115.25136,77.23144 113.84736,78.29784 C112.75296,79.13064 108.13136,75.69704 103.37376,71.50904 C102.66256,72.51304 101.74176,73.41784 100.80336,74.27384 C100.36736,74.68104 99.87776,75.19064 99.33776,75.67864 C104.77136,79.69944 111.39856,82.36184 111.38736,82.58424 C111.37056,82.83544 110.32816,82.81304 110.00176,85.46024 C109.67696,88.11064 105.72336,94.04744 103.40336,96.23544 C101.09056,98.42104 101.07376,100.09784 102.32336,101.40104 C103.57776,102.70504 104.85136,103.40824 109.97056,100.64424 C115.09056,97.88664 119.76496,93.86984 122.40176,89.26744 C125.04816,84.66744 124.74816,83.90504 121.09376,81.21864" id="Fill-3" fill="#EBE8DA"></path>
                            <g id="Group-7" transform="translate(100.800000, 70.864800)">
                                <mask id="mask-7" fill="white">
                                    <use xlink:href="#path-6"></use>
                                </mask>
                                <g id="Clip-6"></g>
                                <path d="M20.29376,10.35384 C16.63456,7.67624 14.45136,6.36664 13.04736,7.43304 C11.95296,8.26584 7.33136,4.83224 2.57376,0.64424 C2.27776,1.05864 1.94816,1.44504 1.60176,1.82664 C2.90336,2.34104 4.10656,3.66024 5.00496,4.33384 C6.31456,5.31464 7.62416,6.29144 8.99376,7.18424 C10.09216,7.90344 11.27136,8.60184 12.16736,9.52664 C14.30976,11.73704 11.69136,13.67064 9.24496,14.29304 C9.23776,14.39064 9.21776,14.48904 9.20176,14.59544 C8.87696,17.24584 4.92336,23.18264 2.60336,25.37064 C0.29056,27.55624 0.27376,29.23304 1.52336,30.53624 C2.77776,31.84024 4.05136,32.54344 9.17056,29.77944 C14.29056,27.02184 18.96496,23.00504 21.60176,18.40264 C24.24816,13.80264 23.94816,13.04024 20.29376,10.35384" id="Fill-5" fill="#EBE8DA" mask="url(#mask-7)"></path>
                            </g>
                            <path d="M121.09376,81.21864 C117.43456,78.54104 115.25136,77.23144 113.84736,78.29784 C113.76416,78.35864 113.65456,78.39144 113.52656,78.40984 C113.61456,78.46344 113.70496,78.51144 113.80816,78.55704 C114.09456,78.70344 114.54096,78.89464 114.72416,79.16904 C115.02416,79.62024 114.65616,80.11544 114.46096,80.53064 C114.22016,81.03144 114.19696,82.10184 113.65456,82.40824 C113.33936,82.58744 112.52416,82.33624 112.18096,82.40984 C111.88096,82.47864 111.61056,82.56344 111.33536,82.66584 C111.13536,82.85864 110.28416,83.11144 110.00176,85.46024 C109.67696,88.11064 105.72336,94.04744 103.40336,96.23544 C101.09056,98.42104 101.07376,100.09784 102.32336,101.40104 C103.57776,102.70504 104.85136,103.40824 109.97056,100.64424 C115.09056,97.88664 119.76496,93.86984 122.40176,89.26744 C125.04816,84.66744 124.74816,83.90504 121.09376,81.21864" id="Fill-8" fill="#DC4348"></path>
                            <g id="Group-12" transform="translate(101.600000, 82.064800)">
                                <mask id="mask-9" fill="white">
                                    <use xlink:href="#path-8"></use>
                                </mask>
                                <g id="Clip-11"></g>
                                <path d="M20.79456,0.16248 C21.00336,2.61528 19.62496,5.34568 18.28016,7.31848 C16.01456,10.61928 12.81136,13.28728 9.35616,15.56728 C6.98096,17.13128 4.26096,18.90968 1.29856,19.35208 C1.12816,19.37608 0.95776,19.39048 0.78176,19.38888 C2.01856,20.66248 3.32416,21.30488 8.37056,18.57928 C13.49056,15.82168 18.16496,11.80568 20.80336,7.20248 C23.09056,3.22968 23.16816,2.12088 20.79456,0.16248" id="Fill-10" fill="#DC4348" mask="url(#mask-9)"></path>
                            </g>
                            <path d="M42.09224,62.03192 C42.10344,62.00072 43.50504,58.93512 43.53784,58.84392 C43.57144,58.52392 43.55784,58.19432 43.42024,57.95992 C43.20904,57.60232 43.07464,57.45032 42.67624,57.17112 L18.64424,38.73672 L18.30904,40.16152 L40.03784,57.48232 C40.49384,57.97912 40.46744,61.38792 42.09224,62.03192" id="Fill-13" fill="#B2B2AF"></path>
                            <path d="M40.88048,60.3624 C40.89088,60.3304 41.49168,59.052 41.52368,58.9624 C41.55648,58.6432 41.54368,58.312 41.40608,58.0792 C41.19488,57.7208 41.06128,57.5688 40.66288,57.2888 L16.63008,38.8552 L16.29488,40.2792 L38.02368,57.6008 C38.48048,58.0976 39.25328,59.7168 40.88048,60.3624" id="Fill-15" fill="#D8D7D1"></path>
                            <path d="M39.8172,59.65072 C39.8268,59.61952 39.8612,59.55392 39.894,59.46272 C39.9268,59.14272 39.914,58.81152 39.778,58.57872 C39.566,58.22112 39.4316,58.06912 39.0332,57.78992 L15.0004,39.35552 L14.6652,40.77952 L37.174,57.47872 C37.6316,57.97632 38.514,58.85312 39.8172,59.65072" id="Fill-17" fill="#FEFEFE"></path>
                            <path d="M43.7844,63.30848 C43.7892,63.27568 43.9084,59.87888 43.9212,59.78208 C44.034,59.48368 44.1916,59.19648 44.4148,59.05808 C44.7628,58.84128 44.9476,58.77408 45.4268,58.71968 L74.8916,54.07408 L74.5564,55.49888 L47.6244,60.27728 C47.0004,60.49568 45.5108,63.52768 43.7844,63.30848" id="Fill-19" fill="#B2B2AF"></path>
                            <path d="M45.6016,62.41944 C45.6064,62.38584 45.6392,60.96184 45.6512,60.86664 C45.7648,60.56664 45.9216,60.28024 46.1472,60.14104 C46.4936,59.92584 46.6816,59.85704 47.156,59.80264 L76.6232,55.15944 L76.2872,56.58264 L49.356,61.36024 C48.7312,61.57944 47.328,62.63624 45.6016,62.41944" id="Fill-21" fill="#D8D7D1"></path>
                            <path d="M46.85784,62.30536 C46.86184,62.27256 46.86104,62.19736 46.87384,62.10216 C46.98424,61.80216 47.14344,61.51576 47.36824,61.37576 C47.71464,61.16136 47.90184,61.09256 48.37784,61.03816 L77.84344,56.39256 L77.50824,57.81816 L50.16104,61.66616 C49.53784,61.88536 48.36504,62.23256 46.85784,62.30536" id="Fill-23" fill="#FEFEFE"></path>
                            <path d="M79.38128,57.5476 C78.94688,57.0924 78.28848,56.9092 77.66448,57.062 C68.25168,58.406 58.84048,59.7508 49.42848,61.0948 L37.90608,110.0332 C48.19968,108.606 58.49408,107.1788 68.78768,105.7524 L79.63808,59.6604 C80.01808,58.9596 79.90608,58.0972 79.38128,57.5476" id="Fill-25" fill="#281A04"></path>
                            <path d="M37.75632,57.70848 L14.73312,40.62928 C14.58272,40.52208 13.19392,40.19728 12.72992,40.43888 C12.02992,40.80368 11.41792,41.72048 11.38832,41.84368 C7.46752,57.48688 4.25872,73.13968 0.33792,88.78208 L25.10592,106.84128 C25.30512,107.27008 25.53552,107.67568 25.78752,108.06288 C27.29712,100.45968 35.97792,64.95968 37.75632,57.70848" id="Fill-27" fill="#281A04"></path>
                            <line x1="37.42656" y1="57.73192" x2="37.43776" y2="57.73992" id="Fill-29" fill="#405493"></line>
                            <path d="M49.59376,61.25072 C49.59776,61.24992 49.60176,61.24992 49.60656,61.24912" id="Fill-31" fill="#405493"></path>
                            <path d="M79.37504,57.546 C78.94064,57.0916 78.28224,56.9084 77.65824,57.0588 C68.24784,58.4036 58.83504,59.7492 49.42384,61.094 L49.05024,62.6748 L79.74784,58.1628 C79.66704,57.9356 79.54544,57.7244 79.37504,57.546" id="Fill-33" fill="#BC372B"></path>
                            <path d="M37.75,57.70848 L14.7284,40.62688 C14.578,40.51968 13.1884,40.19488 12.7236,40.43808 C12.6332,40.48528 12.5532,40.53728 12.478,40.59488 L37.3644,59.28688 C37.5148,58.67008 37.6444,58.13808 37.75,57.70848" id="Fill-35" fill="#BC372B"></path>
                            <path d="M49.59376,61.25072 C49.20896,61.30512 48.82416,61.36032 48.44096,61.41632 C47.39056,61.62432 45.46816,61.85712 43.18576,61.24912 C40.10896,60.42912 38.19216,58.56352 37.43856,57.73952 L25.54976,108.22592 C27.03136,110.41632 29.33456,111.87392 31.85936,112.10992 C35.03536,112.40512 37.28896,110.65552 37.81216,110.22432 C37.84736,110.21952 37.88496,110.21392 37.92176,110.20832 C39.88736,100.91632 47.88416,68.21872 49.59376,61.25072" id="Fill-37" fill="#D54D2B"></path>
                            <path d="M38.92976,73.56008 C41.93136,74.39288 44.57136,74.28488 46.43136,73.99608 C46.95936,71.82408 47.44256,69.84968 47.85136,68.17128 C46.10816,68.33528 43.89136,68.28328 41.43296,67.60248 C39.00336,66.92728 37.08816,65.84648 35.69376,64.84648 L34.14176,71.44248 C35.41536,72.24168 37.01296,73.02888 38.92976,73.56008" id="Fill-39" fill="#FAE71B"></path>
                            <path d="M31.44456,105.73504 C29.52696,105.20384 27.93096,104.41664 26.65656,103.61664 L26.13816,105.81824 C27.41416,106.61824 29.00776,107.40544 30.92696,107.93664 C33.87336,108.75344 36.47016,108.66464 38.32376,108.38784 C38.47816,107.70464 38.64376,106.97024 38.82376,106.18864 C36.97096,106.46304 34.38296,106.55024 31.44456,105.73504" id="Fill-41" fill="#FAE71B"></path>
                            <path d="M28.09064,97.5288 L27.32984,100.7608 C28.59464,101.5968 30.18424,102.4128 32.10184,102.9472 C35.02984,103.7648 37.62824,103.6224 39.49384,103.2928 C39.73464,102.2568 39.98824,101.176 40.25144,100.06 C38.38584,100.3904 35.79064,100.532 32.86184,99.7144 C30.94344,99.1792 29.35624,98.364 28.09064,97.5288" id="Fill-43" fill="#FAE71B"></path>
                            <polygon id="Fill-45" fill="#D54D2B" points="53.6532 67.06472 51.6652 75.51032 72.4612 72.83352 74.4708 64.29592"></polygon>
                            <path d="M48.51096,63.52488 C47.08936,63.82728 44.92136,63.99288 42.46456,63.14968 C39.66456,62.18888 37.76536,60.39448 36.66696,59.05848 C36.35896,58.68328 36.37176,58.12328 36.69816,57.80728 C37.02696,57.49288 37.54056,57.54168 37.85016,57.91768 C38.80136,59.07448 40.44376,60.62728 42.86776,61.45848 C45.50856,62.36568 47.76376,61.92408 48.87656,61.58168 C49.29976,61.44168 49.76456,61.72568 49.90936,62.19928 C50.05656,62.67128 49.82936,63.16008 49.40456,63.29208 C49.15656,63.36968 48.85496,63.45208 48.51096,63.52488" id="Fill-47" fill="#BC372B"></path>
                            <g id="Group-51" transform="translate(0.800000, 42.064800)">
                                <mask id="mask-11" fill="white">
                                    <use xlink:href="#path-10"></use>
                                </mask>
                                <g id="Clip-50"></g>
                                <polygon id="Fill-49" fill="url(#linearGradient-12)" mask="url(#mask-11)" points="2.2608 -4.0464 28.2016 6.8544 10.7416 51.1776 -15.2 40.2768"></polygon>
                            </g>
                            <g id="Group-54" transform="translate(66.400000, 58.864800)">
                                <mask id="mask-14" fill="white">
                                    <use xlink:href="#path-13"></use>
                                </mask>
                                <g id="Clip-53"></g>
                                <polygon id="Fill-52" fill="url(#linearGradient-15)" mask="url(#mask-14)" points="22.956 2.9784 11.9232 49.864 -9.6328 44.452 1.4 -2.4328"></polygon>
                            </g>
                            <path d="M28.5672,97.57728 L28.3144,97.50768 C28.1112,97.45328 27.9872,97.24208 28.0376,97.03968 L34.2472,72.10768 C34.2968,71.90528 34.5032,71.78448 34.7064,71.83968 L34.9592,71.90848 C35.1624,71.96288 35.2856,72.17408 35.2376,72.37648 L29.028,97.30848 C28.9784,97.51088 28.7704,97.63168 28.5672,97.57728" id="Fill-55" fill="#BC372B"></path>
                            <g id="Group-59" transform="translate(36.800000, 62.864800)">
                                <mask id="mask-17" fill="white">
                                    <use xlink:href="#path-16"></use>
                                </mask>
                                <g id="Clip-58"></g>
                                <path d="M0.636,47.31088 L0.636,47.31088 C0.3616,47.24048 0.1904,46.95968 0.256,46.68688 L10.9808,1.13888 C11.0448,0.86528 11.32,0.69968 11.5936,0.77008 C11.8672,0.84048 12.0376,1.12208 11.9736,1.39408 L1.2504,46.94208 C1.1848,47.21568 0.9088,47.38128 0.636,47.31088" id="Fill-57" fill="#BC372B" mask="url(#mask-17)"></path>
                            </g>
                            <path d="M139.17816,64.364 L101.62696,53.4688 C101.22056,53.3608 100.05496,53.112 98.75336,53.6632 C97.82136,54.0608 97.25016,54.6864 96.97656,55.0296 C86.24776,69.6568 75.74376,84.4648 64.78856,98.912 C63.75336,100.2776 61.55656,102.776 61.55656,102.776 L104.75656,119.6648 L139.17816,64.364 Z" id="Fill-60" fill="#5D4883"></path>
                            <polygon id="Fill-62" fill="#F9DFA3" points="137.3172 61.32488 137.3172 62.42328 137.3172 64.78168 102.394 116.84248 63.7044 101.39688 63.9468 98.40808"></polygon>
                            <path d="M137.43128,60.53272 L99.88008,49.63672 C99.47448,49.52952 98.30808,49.27912 97.00808,49.83192 C96.07528,50.22872 95.50328,50.85512 95.23128,51.19832 C84.50168,65.82472 73.99688,80.63352 63.04168,95.07992 C62.00648,96.44472 63.94728,98.40872 63.94728,98.40872 L102.39368,114.07192 L137.43128,60.53272 Z" id="Fill-64" fill="#745C98"></path>
                            <path d="M103.15864,111.27176 C104.30184,111.37016 105.37544,111.78936 106.25144,112.56456 C107.22984,113.42696 108.55784,115.51096 106.85864,116.41176 C106.60504,116.54696 106.82824,116.94216 107.08184,116.80696 C108.59784,116.00296 108.15464,114.15496 107.27624,113.00696 C106.26744,111.68696 104.76504,110.95176 103.15864,110.81496 C102.87464,110.78936 102.87624,111.24776 103.15864,111.27176" id="Fill-66" fill="#0F0F2A"></path>
                            <path d="M105.52424,106.87416 C106.66744,106.97256 107.74104,107.39096 108.61784,108.16616 C109.59544,109.03016 110.92424,111.11176 109.22344,112.01496 C108.97064,112.14936 109.19384,112.54456 109.44744,112.41016 C110.96424,111.60536 110.51864,109.75736 109.64104,108.60936 C108.63144,107.29016 107.12984,106.55416 105.52424,106.41736 C105.24104,106.39096 105.24104,106.85016 105.52424,106.87416" id="Fill-68" fill="#0F0F2A"></path>
                            <path d="M106.29376,106.20304 C107.43536,106.30064 108.50816,106.71984 109.38576,107.49504 C110.36416,108.35824 111.69216,110.44144 109.99216,111.34304 C109.73856,111.47824 109.96176,111.87344 110.21456,111.73824 C111.73216,110.93424 111.28816,109.08544 110.40976,107.93824 C109.40016,106.61744 107.89856,105.88384 106.29376,105.74464 C106.00896,105.71984 106.01056,106.17904 106.29376,106.20304" id="Fill-70" fill="#0F0F2A"></path>
                            <path d="M108.27424,102.2968 C109.41744,102.3944 110.49104,102.8136 111.36704,103.5888 C112.34544,104.452 113.67344,106.5352 111.97344,107.4376 C111.71904,107.5728 111.94384,107.9672 112.19664,107.832 C113.71424,107.0288 113.27024,105.1792 112.39104,104.032 C111.38144,102.712 109.88064,101.9776 108.27424,101.8392 C107.98944,101.8136 107.99104,102.2728 108.27424,102.2968" id="Fill-72" fill="#0F0F2A"></path>
                            <path d="M109.04224,101.62568 C110.18544,101.72328 111.25904,102.14248 112.13424,102.91768 C113.11504,103.78008 114.44144,105.86328 112.74144,106.76648 C112.48784,106.90088 112.71104,107.29608 112.96464,107.16168 C114.48144,106.35688 114.03744,104.50728 113.15904,103.36088 C112.15024,102.04008 110.64784,101.30568 109.04224,101.16808 C108.75904,101.14248 108.76064,101.60088 109.04224,101.62568" id="Fill-74" fill="#0F0F2A"></path>
                            <path d="M111.68208,97.32104 C112.82448,97.41944 113.89808,97.83784 114.77488,98.61304 C115.75328,99.47704 117.08128,101.55944 115.38128,102.46184 C115.12688,102.59624 115.35168,102.99144 115.60448,102.85704 C117.12128,102.05304 116.67648,100.20424 115.79968,99.05704 C114.78928,97.73704 113.28768,97.00104 111.68208,96.86344 C111.39808,96.83784 111.39968,97.29704 111.68208,97.32104" id="Fill-76" fill="#0F0F2A"></path>
                            <path d="M112.4516,96.65072 C113.5924,96.74912 114.666,97.16752 115.5436,97.94272 C116.5212,98.80592 117.85,100.88832 116.15,101.79072 C115.8948,101.92592 116.1204,102.32032 116.3732,102.18512 C117.8908,101.38192 117.4452,99.53232 116.5676,98.38512 C115.558,97.06512 114.0564,96.33072 112.4516,96.19232 C112.166,96.16752 112.1684,96.62592 112.4516,96.65072" id="Fill-78" fill="#0F0F2A"></path>
                            <path d="M114.81568,92.43896 C115.95808,92.53656 117.03248,92.95576 117.90848,93.73096 C118.88768,94.59336 120.21488,96.67736 118.51488,97.57976 C118.26128,97.71496 118.48448,98.10936 118.73808,97.97416 C120.25488,97.17016 119.81088,95.32136 118.93408,94.17416 C117.92208,92.85416 116.42128,92.11976 114.81568,91.98056 C114.53168,91.95576 114.53248,92.41496 114.81568,92.43896" id="Fill-80" fill="#0F0F2A"></path>
                            <path d="M115.5844,91.76784 C116.7268,91.86464 117.8004,92.28464 118.6764,93.05984 C119.6548,93.92224 120.9828,96.00544 119.2828,96.90864 C119.03,97.04304 119.2532,97.43824 119.5076,97.30384 C121.0236,96.49904 120.5796,94.64944 119.7012,93.50304 C118.6908,92.18224 117.1908,91.44784 115.5844,91.31024 C115.3004,91.28464 115.3012,91.74304 115.5844,91.76784" id="Fill-82" fill="#0F0F2A"></path>
                            <path d="M117.56488,87.56784 C118.70808,87.66624 119.78168,88.08464 120.65848,88.85984 C121.63608,89.72384 122.96408,91.80704 121.26488,92.70864 C121.01128,92.84384 121.23448,93.23904 121.48808,93.10384 C123.00488,92.29984 122.56088,90.45104 121.68248,89.30384 C120.67368,87.98304 119.17048,87.24864 117.56488,87.11024 C117.28168,87.08464 117.28248,87.54384 117.56488,87.56784" id="Fill-84" fill="#0F0F2A"></path>
                            <path d="M118.3344,86.8976 C119.4768,86.9944 120.5504,87.4144 121.4264,88.1896 C122.4048,89.052 123.7344,91.1352 122.032,92.0384 C121.7784,92.1728 122.0032,92.568 122.256,92.432 C123.7736,91.6288 123.328,89.7792 122.4504,88.632 C121.4408,87.312 119.9384,86.5776 118.3344,86.44 C118.0504,86.4144 118.0512,86.8728 118.3344,86.8976" id="Fill-86" fill="#0F0F2A"></path>
                            <path d="M120.31488,83.05696 C121.45808,83.15536 122.53168,83.57376 123.40768,84.34816 C124.38608,85.21216 125.71408,87.29456 124.01408,88.19696 C123.75968,88.33216 123.98448,88.72656 124.23728,88.59216 C125.75488,87.78816 125.31088,85.93936 124.43168,84.79136 C123.42128,83.47216 121.92048,82.73696 120.31488,82.59936 C120.03168,82.57376 120.03168,83.03296 120.31488,83.05696" id="Fill-88" fill="#0F0F2A"></path>
                            <path d="M121.08288,82.38504 C122.22528,82.48344 123.29888,82.90184 124.17648,83.67704 C125.15488,84.54104 126.48208,86.62264 124.78208,87.52584 C124.52848,87.66024 124.75328,88.05544 125.00608,87.92104 C126.52208,87.11624 126.07808,85.26824 125.19968,84.12104 C124.19088,82.79944 122.68928,82.06504 121.08288,81.92744 C120.79888,81.90184 120.79968,82.36024 121.08288,82.38504" id="Fill-90" fill="#0F0F2A"></path>
                            <path d="M123.06408,78.56552 C124.20648,78.66392 125.28088,79.08232 126.15768,79.85752 C127.13528,80.72152 128.46408,82.80392 126.76248,83.70632 C126.50888,83.84152 126.73288,84.23672 126.98728,84.10152 C128.50328,83.29752 128.05848,81.44872 127.18088,80.30072 C126.17128,78.98152 124.67048,78.24632 123.06408,78.10792 C122.78088,78.08312 122.78088,78.54152 123.06408,78.56552" id="Fill-92" fill="#0F0F2A"></path>
                            <path d="M123.83288,77.8944 C124.97448,77.9912 126.04808,78.4112 126.92648,79.1864 C127.90488,80.0488 129.23208,82.1328 127.53208,83.0352 C127.27688,83.1696 127.50328,83.5648 127.75608,83.4304 C129.27208,82.6256 128.82808,80.7768 127.94968,79.6304 C126.93928,78.3088 125.43848,77.5744 123.83288,77.4368 C123.54808,77.4112 123.54968,77.8704 123.83288,77.8944" id="Fill-94" fill="#0F0F2A"></path>
                            <path d="M126.19768,74.43504 C127.34088,74.53344 128.41448,74.95264 129.29128,75.72784 C130.26888,76.59024 131.59688,78.67424 129.89688,79.57584 C129.64408,79.71024 129.86728,80.10624 130.12008,79.97104 C131.63768,79.16704 131.19368,77.31824 130.31448,76.17024 C129.30488,74.85104 127.80328,74.11504 126.19768,73.97744 C125.91448,73.95264 125.91448,74.41184 126.19768,74.43504" id="Fill-96" fill="#0F0F2A"></path>
                            <path d="M126.9672,73.7632 C128.108,73.8616 129.1824,74.2816 130.0584,75.0568 C131.0376,75.9192 132.3648,78.0032 130.6656,78.904 C130.4112,79.0392 130.6352,79.4336 130.888,79.3 C132.4064,78.4952 131.9608,76.6464 131.0832,75.4992 C130.0736,74.1792 128.572,73.444 126.9672,73.3072 C126.6824,73.2816 126.6832,73.74 126.9672,73.7632" id="Fill-98" fill="#0F0F2A"></path>
                            <path d="M128.94768,69.85768 C130.08928,69.95608 131.16448,70.37528 132.04048,71.15048 C133.01808,72.01288 134.34768,74.09688 132.64768,74.99768 C132.39248,75.13368 132.61728,75.52728 132.87008,75.39288 C134.38768,74.58888 133.94208,72.74008 133.06448,71.59288 C132.05488,70.27288 130.55328,69.53768 128.94768,69.40088 C128.66448,69.37528 128.66448,69.83368 128.94768,69.85768" id="Fill-100" fill="#0F0F2A"></path>
                            <path d="M129.7172,69.18664 C130.858,69.28504 131.9316,69.70344 132.8084,70.47864 C133.7876,71.34264 135.1148,73.42424 133.4148,74.32664 C133.1612,74.46184 133.3852,74.85704 133.638,74.72184 C135.1548,73.91784 134.7108,72.06984 133.8324,70.92184 C132.822,69.60264 131.3212,68.86664 129.7172,68.72904 C129.4316,68.70504 129.434,69.16344 129.7172,69.18664" id="Fill-102" fill="#0F0F2A"></path>
                            <path d="M131.31408,65.38352 C132.45488,65.48032 133.53008,65.90032 134.40608,66.67472 C135.38448,67.53872 136.71328,69.62112 135.01248,70.52352 C134.75808,70.65872 134.98208,71.05392 135.23488,70.91872 C136.75168,70.11472 136.30768,68.26512 135.43088,67.11792 C134.42048,65.79792 132.91888,65.06352 131.31408,64.92512 C131.02848,64.90032 131.03088,65.35872 131.31408,65.38352" id="Fill-104" fill="#0F0F2A"></path>
                            <path d="M132.08128,64.7116 C133.22368,64.8092 134.29728,65.2284 135.17328,66.0036 C136.15328,66.866 137.48048,68.95 135.78048,69.8524 C135.52688,69.9868 135.75168,70.382 136.00288,70.2476 C137.52048,69.4428 137.07648,67.594 136.19808,66.4476 C135.18848,65.126 133.68768,64.3924 132.08128,64.254 C131.79728,64.2284 131.79808,64.6876 132.08128,64.7116" id="Fill-106" fill="#0F0F2A"></path>
                            <path d="M133.67976,60.88976 C134.82056,60.98816 135.89416,61.40656 136.77096,62.18096 C137.75016,63.04416 139.07816,65.12736 137.37816,66.02976 C137.12376,66.16496 137.34776,66.55936 137.60136,66.42416 C139.11736,65.62096 138.67336,63.77216 137.79576,62.62416 C136.78456,61.30496 135.28296,60.56976 133.67976,60.43216 C133.39496,60.40736 133.39576,60.86576 133.67976,60.88976" id="Fill-108" fill="#0F0F2A"></path>
                            <path d="M134.44688,60.21784 C135.58848,60.31624 136.66288,60.73464 137.54048,61.50984 C138.51728,62.37384 139.84528,64.45624 138.14688,65.35864 C137.89168,65.49304 138.11488,65.88824 138.36848,65.75384 C139.88528,64.94904 139.44128,63.10104 138.56368,61.95304 C137.55328,60.63384 136.05168,59.89784 134.44688,59.76024 C134.16208,59.73464 134.16368,60.19304 134.44688,60.21784" id="Fill-110" fill="#0F0F2A"></path>
                            <polygon id="Fill-112" fill="#5D4883" points="128.186 62.814 121.0828 73.81 91.3252 62.7724 98.7532 53.6636"></polygon>
                            <path d="M124.77344,63.50848 C124.77344,63.91488 125.09184,64.24448 125.48624,64.24448 C125.87984,64.24448 126.19744,63.91488 126.19744,63.50848 C126.19744,63.10208 125.87984,62.77248 125.48624,62.77248 C125.09184,62.77248 124.77344,63.10208 124.77344,63.50848" id="Fill-114" fill="#FFFFFE"></path>
                            <path d="M98.94224,55.62568 C98.94224,56.03208 99.26144,56.36248 99.65504,56.36248 C100.04784,56.36248 100.36704,56.03208 100.36704,55.62568 C100.36704,55.22008 100.04784,54.88888 99.65504,54.88888 C99.26144,54.88888 98.94224,55.22008 98.94224,55.62568" id="Fill-116" fill="#FFFFFE"></path>
                            <path d="M119.98752,71.74056 C119.98752,72.14776 120.30592,72.47736 120.69872,72.47736 C121.09392,72.47736 121.41232,72.14776 121.41232,71.74056 C121.41232,71.33496 121.09392,71.00536 120.69872,71.00536 C120.30592,71.00536 119.98752,71.33496 119.98752,71.74056" id="Fill-118" fill="#FFFFFE"></path>
                            <path d="M93.2,62.06008 C93.2,62.46728 93.5184,62.79688 93.9136,62.79688 C94.3064,62.79688 94.624,62.46728 94.624,62.06008 C94.624,61.65448 94.3064,61.32488 93.9136,61.32488 C93.5184,61.32488 93.2,61.65448 93.2,62.06008" id="Fill-120" fill="#FFFFFE"></path>
                        </g>
                        <g id="Group-5" transform="translate(38.400000, 0.000000)" fill-rule="nonzero">
                            <path d="M13.7198744,9.10803698 L8.01587435,19.804037 C7.67987435,20.452037 7.10387435,20.668037 6.75187435,20.284037 L0.263874351,13.244037 C-0.0879581169,12.6696308 -0.0879581169,11.9464432 0.263874351,11.372037 L5.95187435,0.668036981 C6.29587435,0.00403698123 6.86387435,-0.187963019 7.22387435,0.196036981 L13.7118744,7.20403698 C14.067433,7.77738715 14.067433,8.50268682 13.7118744,9.07603698" id="Path" fill="#F8678D"></path>
                            <polygon id="Path" fill="#F73362" points="11.1678744 4.47603698 4.20787435 17.532037 2.80787435 16.012037 9.76787435 2.95603698"></polygon>
                            <path d="M14.3518744,7.93203698 C13.0718744,6.54803698 11.5758744,6.25203698 11.0238744,7.28403698 L6.06387435,16.580037 C5.51987435,17.612037 6.11187435,19.596037 7.39187435,20.980037 L37.5358744,53.700037 C37.7995747,54.0005086 38.0976112,54.26901 38.4238744,54.500037 C38.6691157,54.6744903 38.9386617,54.8119588 39.2238744,54.908037 L50.2238744,58.556037 C50.2238744,58.556037 51.1838744,59.004037 51.4398744,58.556037 C51.6958744,58.108037 51.2078744,56.748037 51.2078744,56.748037 L45.7758744,42.876037 C45.4957213,42.0638659 45.0519028,41.3178151 44.4718744,40.684037 L14.3518744,7.93203698 Z" id="Path" fill="#F0F504"></path>
                            <path d="M40.9838744,41.196037 C39.3838744,40.852037 40.0718744,42.908037 40.0718744,42.908037 L41.2878744,46.108037 C41.2878744,46.108037 41.9838744,48.196037 40.3838744,47.804037 C38.7838744,47.412037 39.1758744,47.476037 37.8158744,47.100037 C36.4558744,46.724037 37.0158744,48.572037 37.0158744,48.572037 L38.2238744,54.404037 L38.3678744,54.500037 C38.6140373,54.672965 38.8833553,54.8103172 39.1678744,54.908037 L48.5118744,58.004037 C48.4325266,57.2810279 48.5957497,56.5521527 48.9758744,55.932037 C49.5598744,54.836037 50.1038744,54.692037 50.3758744,54.700037 L45.7438744,42.820037 C45.6081372,42.4162799 45.431205,42.0275653 45.2158744,41.660037 C43.7754491,41.5922342 42.3406599,41.4345944 40.9198744,41.188037" id="Path" fill="#F9EBAA"></path>
                            <g id="Group" opacity="0.42" style="mix-blend-mode: hard-light;" transform="translate(7.023874, 8.804037)" fill="#483E3F">
                                <g id="Path">
                                    <path d="M0.12,5.752 L30.264,38.464 L44.328,49.84 C44.382449,49.8039316 44.426564,49.7543023 44.456,49.696 L33.256,32.848 L3.12,0.136 L0.12,5.752 Z"></path>
                                </g>
                            </g>
                            <g id="Group" opacity="0.52" style="mix-blend-mode: hard-light;" transform="translate(5.423874, 14.404037)" fill="#483E3F">
                                <g id="Path">
                                    <path d="M1.72,0.168 L0.64,2.176 C0.096,3.208 0.688,5.192 1.968,6.576 L32.112,39.296 C32.3757003,39.5964717 32.6737369,39.8649731 33,40.096 C33.2452413,40.2704533 33.5147874,40.4079218 33.8,40.504 L44.8,44.152 C44.8,44.152 45.544,44.496 45.896,44.256 L31.856,32.88 L1.72,0.168 Z"></path>
                                </g>
                            </g>
                            <path d="M48.5678744,58.028037 L50.2318744,58.588037 C50.2318744,58.588037 51.1918744,59.028037 51.4558744,58.588037 C51.7198744,58.148037 51.2158744,56.788037 51.2158744,56.788037 L50.4158744,54.780037 C50.1438744,54.780037 49.6158744,54.908037 49.0158744,55.996037 C48.6402303,56.6177953 48.4799643,57.3460216 48.5598744,58.068037" id="Path" fill="#110E0F"></path>
                            <polygon id="Path" fill="#037E61" points="15.9998744 9.72403698 9.04787435 22.772037 3.88787435 17.172037 10.8398744 4.12403698"></polygon>
                            <polygon id="Path" fill="#88BD1B" points="14.3918744 7.98003698 7.43187435 21.028037 5.82387435 19.276037 12.7838744 6.22803698"></polygon>
                            <g id="Group" opacity="0.42" style="mix-blend-mode: hard-light;" transform="translate(3.823874, 7.204037)" fill="#483E3F">
                                <g id="Path">
                                    <polygon points="10.296 6.056 5.224 15.568 0.064 9.968 5.136 0.448"></polygon>
                                </g>
                            </g>
                        </g>
                    </g>
                </g>
            </g>
        </g>
    </g>
</svg>