<?xml version="1.0" encoding="UTF-8"?>
<svg width="311px" height="366px" viewBox="0 0 311 366" version="1.1" xmlns="http://www.w3.org/2000/svg" xmlns:xlink="http://www.w3.org/1999/xlink">
    <!-- Generator: Sketch 63.1 (92452) - https://sketch.com -->
    <title>videojuegos@2x</title>
    <desc>Created with Sketch.</desc>
    <defs>
        <rect id="path-1" x="0" y="0" width="255" height="310" rx="8"></rect>
        <filter x="-16.9%" y="-13.2%" width="133.7%" height="127.7%" filterUnits="objectBoundingBox" id="filter-3">
            <feOffset dx="0" dy="2" in="SourceAlpha" result="shadowOffsetOuter1"></feOffset>
            <feGaussianBlur stdDeviation="14" in="shadowOffsetOuter1" result="shadowBlurOuter1"></feGaussianBlur>
            <feColorMatrix values="0 0 0 0 0   0 0 0 0 0   0 0 0 0 0  0 0 0 0.06 0" type="matrix" in="shadowBlurOuter1"></feColorMatrix>
        </filter>
        <path d="M3.00025,7.99927241 C2.74425,7.99927241 2.48825,7.90127241 2.29325,7.70627241 C1.90225,7.31527241 1.90225,6.68327241 2.29325,6.29227241 L5.59825,2.98727241 L2.41825,-0.305727588 C2.03525,-0.703727588 2.04625,-1.33672759 2.44325,-1.71972759 C2.84125,-2.10272759 3.47425,-2.09172759 3.85725,-1.69572759 L7.71925,2.30427241 C8.09825,2.69727241 8.09325,3.32027241 7.70725,3.70627241 L3.70725,7.70627241 C3.51225,7.90127241 3.25625,7.99927241 3.00025,7.99927241" id="path-4"></path>
    </defs>
    <g id="Screens" stroke="none" stroke-width="1" fill="none" fill-rule="evenodd">
        <g id="Materias-" transform="translate(-137.000000, -1139.000000)">
            <g id="Ficha-de-repaso" transform="translate(165.000000, 1165.000000)">
                <g id="Group">
                    <mask id="mask-2" fill="white">
                        <use xlink:href="#path-1"></use>
                    </mask>
                    <g id="Mask">
                        <use fill="black" fill-opacity="1" filter="url(#filter-3)" xlink:href="#path-1"></use>
                        <use fill="#FFFFFF" fill-rule="evenodd" xlink:href="#path-1"></use>
                    </g>
                    <rect id="Rectangle" fill="#E4E9F2" fill-rule="nonzero" opacity="0.497465588" mask="url(#mask-2)" x="0" y="0" width="255" height="88"></rect>
                    <g id="atomo/-button/-primario/-228x48px/-active-copy-2" mask="url(#mask-2)">
                        <g transform="translate(27.000000, 232.000000)" id="Group">
                            <g>
                                <rect id="Rectangle" fill="#F1315B" x="0" y="0" width="200" height="48" rx="24"></rect>
                                <g id="Group-2" transform="translate(30.225131, 14.000000)">
                                    <g id="Group-3">
                                        <text id="Ver-actividades" font-family="Montserrat-Medium, Montserrat" font-size="16" font-weight="400" line-spacing="20" fill="#FFFFFF">
                                            <tspan x="0.410429319" y="15">Ver actividades</tspan>
                                        </text>
                                        <g id="Arrow_down" transform="translate(140.596859, 11.000000) rotate(-90.000000) translate(-140.596859, -11.000000) translate(135.596859, 8.000000)">
                                            <mask id="mask-5" fill="white">
                                                <use xlink:href="#path-4"></use>
                                            </mask>
                                            <use id="🎨-Icon-Сolor" fill="#FFFFFF" fill-rule="nonzero" transform="translate(5.000080, 2.999636) rotate(-270.000000) translate(-5.000080, -2.999636) " xlink:href="#path-4"></use>
                                        </g>
                                    </g>
                                </g>
                            </g>
                        </g>
                    </g>
                    <text id="Fichas-de-repaso" font-family="Montserrat-Medium, Montserrat" font-size="20" font-weight="400" letter-spacing="0.416666667" fill="#333E53">
                        <tspan x="62.1583333" y="196">Videojuegos</tspan>
                    </text>
                </g>
                <g id="icono_01-" transform="translate(74.000000, 24.000000)">
                    <g id="Recurso-1">
                        <path d="M108.64,53.6 C108.64,83.2 85.088,107.2 56.024,107.2 C26.96,107.2 3.408,83.2 3.408,53.6 C3.408,24 26.968,0 56,0 C85.032,0 108.64,24 108.64,53.6" id="Path" fill="#F81E4C" fill-rule="nonzero"></path>
                        <path d="M25.416,53.096 C25.1529224,51.7392749 25.7332377,50.3576997 26.8862291,49.5957786 C28.0392205,48.8338576 29.5377045,48.8417184 30.6826388,49.615694 C31.8275732,50.3896696 32.3933619,51.7772572 32.1160648,53.1311475 C31.8387677,54.4850379 30.7730229,55.5384629 29.416,55.8 C27.56593,56.1520906 25.7788103,54.9439976 25.416,53.096" id="Path" fill="#FD1C16" fill-rule="nonzero"></path>
                        <rect id="Rectangle" fill="#46293A" fill-rule="nonzero" x="63.888" y="24.272" width="51.488" height="38.528" rx="2.656"></rect>
                        <rect id="Rectangle" fill="#46293A" fill-rule="nonzero" x="61.264" y="62.8" width="56.736" height="5.312"></rect>
                        <rect id="Rectangle" fill="#79C6B3" fill-rule="nonzero" x="68.88" y="29.04" width="41.4" height="29.552"></rect>
                        <polygon id="Path" fill="#F8BAD5" fill-rule="nonzero" opacity="0.5" style="mix-blend-mode: multiply;" points="110.28 29.048 110.28 58.592 68.88 58.592"></polygon>
                        <path d="M90.968,26.72 C90.968,27.4225062 90.3985062,27.992 89.696,27.992 C88.9934938,27.992 88.424,27.4225062 88.424,26.72 C88.424,26.0174938 88.9934938,25.448 89.696,25.448 C90.3985062,25.448 90.968,26.0174938 90.968,26.72 Z" id="Path" fill="#46293A" fill-rule="nonzero"></path>
                        <g id="Group" opacity="0.6" transform="translate(69.600000, 29.600000)" fill-rule="nonzero">
                            <path d="M16.896,0.648 C7.952,0.648 0.696,7.136 0.696,15.128 C0.696,23.12 7.952,29.6 16.896,29.6 C25.84,29.6 33.088,23.12 33.088,15.12 C33.088,7.12 25.84,0.648 16.896,0.648 Z M28.416,11.448 C28.488,11.504 28.488,11.624 28.616,11.568 C28.616,10.976 28.752,10.768 29.36,11.088 C29.288,11.208 29.288,11.384 29.224,11.504 C29.56,11.68 29.76,11.952 29.624,12.248 C29.16,12.008 28.08,12.312 27.816,12.008 C27.552,11.704 27.88,10.664 28.416,11.448 L28.416,11.448 Z M10.816,26.944 C5.792,24.88 2.304,20.344 2.304,15.072 C2.304,14.744 2.304,14.424 2.344,14.104 C2.944,14.28 3.144,14.28 3.24,14.776 C3.376,15.496 2.704,15.576 3.776,16.088 C3.54609654,15.8029297 3.47129506,15.4229381 3.576,15.072 C4.248,15.368 4.184,16.448 4.648,16.928 C5.112,17.408 5.6,17.472 6.4,17.768 C6.80330372,17.9711774 7.18636284,18.2122635 7.544,18.488 C7.86491098,18.6535483 8.17730453,18.8351103 8.48,19.032 C9.152,19.744 8.216,20.288 8.616,21.128 C8.752,21.544 9.216,21.608 9.416,21.848 C9.616,22.088 9.48,22.504 9.616,22.648 C9.752,22.792 10.288,23.128 10.288,23.192 C10.552,23.664 10.288,23.792 10.352,24.264 C10.416,24.984 10.816,25.592 10.816,26.304 C10.8303204,26.5175868 10.8222767,26.7320856 10.792,26.944 L10.816,26.944 Z M27.2,14.528 C26.8,14.528 26.328,14.472 26.128,14.472 C25.928,14.472 25.248,14.776 24.784,14.288 C24.32,13.8 25.12,13.632 24.448,13.208 C24.248,13.088 23.648,13.272 23.376,13.272 C22.5391014,13.3651814 21.7259877,13.6091156 20.976,13.992 C20.8223951,14.2761918 20.7092993,14.5804734 20.64,14.896 C20.3693235,15.2992913 20.1235325,15.7187389 19.904,16.152 C19.432,17.168 18.896,17.408 19.768,18.368 C20.3874836,19.057083 21.2450435,19.485863 22.168,19.568 C22.904,19.632 22.704,19.384 23.376,19.744 C24.248,20.168 23.64,19.928 23.912,20.544 C24.808,22.488 23.624,24.384 24.336,26.272 C20.5358232,28.2432779 16.1109852,28.6342967 12.024,27.36 C12.168,26.944 12.36,26.56 12.44,26.24 C12.9750068,25.9508525 13.4522777,25.5657818 13.848,25.104 C14.0292329,24.8466907 14.2326787,24.605768 14.456,24.384 C14.656,24.2 15.256,23.784 15.392,23.664 C15.592,23.368 15.528,22.944 15.664,22.648 C15.8,22.352 16.264,22.048 16.264,21.744 C16.2,21.088 15.056,20.944 14.584,20.664 C13.376,19.952 12.376,19.064 10.832,18.808 C10.432,18.688 10.432,18.448 9.96,18.512 C9.624,18.512 9.224,18.872 9.16,18.872 C8.84616961,18.8884949 8.54018301,18.7704607 8.31873005,18.5474804 C8.09727709,18.3245002 7.98134864,18.0177096 8,17.704 C7.8,17.704 7.536,17.648 7.336,17.648 C7.472,16.992 7,16.448 6.464,17.168 C5.32,16.752 5.792,15.312 6.592,15.072 C7.6,14.712 8.136,15.552 8.808,15.728 C8.808,14.776 9.48,14.128 10.216,13.392 C11.16,12.432 11.76,12.496 11.488,11.176 C11.8195786,11.1049894 12.1570175,11.0648181 12.496,11.056 C12.096,10.096 13.232,10.752 13.432,10.392 C13.632,10.032 13.104,9.792 12.832,9.432 C12.56,9.072 12.632,8.896 12.168,8.632 C11.704,8.368 11.16,8.872 11.224,8.088 C10.8975402,8.13916654 10.5938531,8.28683092 10.352,8.512 C10.7064434,8.60663612 10.9855977,8.8797219 11.088,9.232 C10.288,9.232 10.76,10.032 10.08,10.184 C9.952,8.992 9.28,10.008 8.744,9.768 C8.49103869,9.36829386 8.32983773,8.91747761 8.272,8.448 C8.344,8.152 8.744,8.264 8.808,8.088 C8.872,7.912 8.808,7.488 8.88,7.368 C9.144,7.008 10.016,6.712 9.08,6.352 C8.72,7.632 7.2,5.648 7.84,4.8 C8.104,4.608 8.392,4.424 8.64,4.256 C8.96,4.712 9.2,5.056 8.816,5.528 C9.952,5.888 9.416,4.088 10.352,4.568 C10.2951359,4.19513752 10.1114885,3.85327084 9.832,3.6 C9.952,3.544 10.072,3.48 10.2,3.432 C10.2597673,3.77493164 10.4755892,4.07057812 10.784,4.232 C10.9909835,4.20048653 11.1927909,4.14128968 11.384,4.056 C11.2188769,3.75124054 11.0345034,3.45731178 10.832,3.176 C11.304,2.984 11.784,2.824 12.28,2.672 C12.2504486,2.88326012 12.3064936,3.0975734 12.4356823,3.26732142 C12.5648711,3.43706944 12.7565033,3.54819247 12.968,3.576 C13.84,3.696 14.568,3.696 14.112,4.656 C14.3107214,4.68798283 14.5132786,4.68798283 14.712,4.656 C14.448,5.672 13.912,7.472 15.512,7.712 C15.576,7.056 16.248,6.512 16.72,6.112 C17.384,5.568 18.528,5.512 18.864,4.968 C19.136,4.552 18.664,4.312 18.8,3.952 C18.936,3.592 19.8,3.152 19.672,2.816 C19.544,2.48 19,2.632 18.8,2.456 C18.6620168,2.36456507 18.5425824,2.24784503 18.448,2.112 C21.1970831,2.36775692 23.8285238,3.35075049 26.072,4.96 C24.936,5.48 22.928,7.624 23.96,8.328 C24.76,7.608 25.168,9.592 25.84,8.328 C25.64,8.208 25.504,7.912 25.304,7.792 C25.904,7.368 25.64,6.888 26.576,6.528 C26.576,7.008 25.84,7.728 26.64,7.848 C26.4793509,8.39649907 26.2069777,8.90583707 25.84,9.344 C25.3962738,9.43329117 24.9473977,9.49474445 24.496,9.528 C24.568,9.288 24.432,8.992 24.496,8.872 C24.432,8.808 24.368,8.808 24.232,8.808 C24.432,9.464 23.496,9.824 23.024,10.304 C22.288,11.024 22.488,11.104 22.416,12.048 C21.816,11.928 21.28,11.448 20.944,12.048 C20.744,12.408 21.208,13.24 21.68,13.184 C22.016,13.184 22.688,12.528 23.024,12.384 C23.36,12.24 24.232,12.144 24.368,11.848 C24.768,12.264 25.704,12.744 25.032,13.16 C26.312,13.28 24.968,11.848 24.768,11.488 C25.6537992,11.8064688 26.344055,12.5144234 26.64,13.408 C26.8308267,13.1886408 26.9078165,12.8925264 26.848,12.608 C27.0623381,12.5267811 27.2951751,12.507378 27.52,12.552 C27.248,13.352 28.192,13.392 28.792,13.448 C29.04,14.472 28.168,14.592 27.2,14.528 Z M28.8,22.664 C28.696,21.728 29.024,20.168 30.4,20.16 C29.9691017,21.0558598 29.4319021,21.8965771 28.8,22.664 L28.8,22.664 Z M29.376,17.704 C28.976,17.048 28.44,15.672 28.84,15.072 C30.072,16.168 29.56,17.992 31.184,17.848 C31.1172426,18.1429578 31.0344531,18.4340565 30.936,18.72 C30.252216,18.749855 29.6251675,18.3414695 29.376,17.704 L29.376,17.704 Z" id="Shape" fill="#BD7A4B" opacity="0.49" style="mix-blend-mode: multiply;"></path>
                            <g opacity="0.49" style="mix-blend-mode: multiply;" transform="translate(9.600000, 4.800000)" fill="#D08753" id="Path">
                                <path d="M13,4.872 C12.8,5.056 12.736,5.12 12.464,5.056 C12.544,4.456 11.528,3.736 12.064,3.32 C12.464,3.376 12.936,4.4 13,4.872 Z"></path>
                                <path d="M11.864,5.12 C11.256,5.176 11.256,4.872 11.592,4.456 C12,4.4 11.928,4.8 11.864,5.12 Z"></path>
                                <path d="M9.448,1.696 C9.70437029,1.50564124 10.0040065,1.3819382 10.32,1.336 C11.2,1.096 10.448,2.48 9.448,1.696 Z"></path>
                                <path d="M0.08,12.16 C0.319693622,11.9524817 0.650581008,11.8856971 0.952,11.984 C1.952,12.28 0.552,12.52 0.08,12.16 Z"></path>
                                <path d="M3.304,1.648 C2.968,2.136 1.96,1.648 1.36,1.896 C1.624,1.776 1.824,1.416 2.032,1.232 C1.69217825,1.11502065 1.39069446,0.907577672 1.16,0.632 C1.288,0.52 1.224,0.392 1.424,0.336 C2.16,-0.624 2.768,1.232 3.304,1.648 Z"></path>
                                <path d="M2.744,2.832 C2.30392059,2.79583525 1.88402213,2.63176897 1.536,2.36 C1.99977657,2.20644133 2.50718183,2.40469902 2.744,2.832 L2.744,2.832 Z"></path>
                                <path d="M0.192,2.896 C-0.144,2.72 0.528,1.64 0.528,1.04 C1.064,1.336 0.592,2.536 0.192,2.896 Z"></path>
                            </g>
                        </g>
                        <path d="M49.696,85.424 L66.232,90.224 C67.5718835,90.6825008 68.2876846,92.1391561 67.832,93.48 C67.4710244,94.8578456 66.071359,95.6912342 64.688,95.352 L48.152,90.552 C46.8152498,90.0899458 46.1010428,88.6365345 46.552,87.296 C46.9131429,85.9176994 48.3108977,85.0818918 49.696,85.416" id="Path" fill="#A39C97" fill-rule="nonzero"></path>
                        <path d="M11.856,74.472 L28.392,79.272 C29.7287502,79.7340542 30.4429572,81.1874655 29.992,82.528 C29.6308571,83.9063006 28.2331023,84.7421082 26.848,84.408 L10.32,79.608 C9.67519038,79.389597 9.14393197,78.9233498 8.84368276,78.3123426 C8.54343356,77.7013355 8.49892584,76.9958987 8.72,76.352 C9.07731139,74.9752551 10.4745919,74.1411642 11.856,74.48" id="Path" fill="#A39C97" fill-rule="nonzero"></path>
                        <path d="M13.032,78.648 L13.32,78.72 L13.6,78.808 L64,93.4 C67.6926079,94.442178 71.6494224,93.9519021 74.976,92.04 C80.4060495,89.5089938 84.4735426,84.7499685 86.128,78.992 C89.256,68.4 83.816,57.504 73.984,54.656 C69.0073942,53.2513122 63.6668584,54.0588059 59.328,56.872 L35.512,49.976 C33.3769474,45.2872603 29.3151101,41.7535786 24.376,40.288 C14.536,37.44 4,43.72 0.888,54.312 C-2.224,64.904 3.2,75.8 13.032,78.648" id="Path" fill="#D3D1CB" fill-rule="nonzero"></path>
                        <path d="M3.64,54.992 C6.264,46.112 15.088,40.84 23.344,43.2 C31.6,45.56 36.144,54.736 33.528,63.616 C30.912,72.496 22.08,77.8 13.824,75.408 C5.568,73.016 1.016,63.88 3.64,54.992" id="Path" fill="#A39C97" fill-rule="nonzero"></path>
                        <path d="M10.808,61.416 L25.464,57.976 C26.3805554,57.783066 27.3359976,57.9843325 28.0968352,58.5306139 C28.8576729,59.0768953 29.3538098,59.9178627 29.464,60.848 L29.72,62.448 C30.0419585,64.4445463 28.8230609,66.3673143 26.88,66.928 L12.24,70.4 C11.3234446,70.592934 10.3680024,70.3916675 9.60716478,69.8453861 C8.84632714,69.2991047 8.35019015,68.4581373 8.24,67.528 L7.984,65.928 C7.6656727,63.9365586 8.87963117,62.0196016 10.816,61.456" id="Path" fill="#D3D1CB" fill-rule="nonzero"></path>
                        <path d="M21.872,63.928 C21.5005652,61.7436897 22.8575859,59.6370106 25,59.072 C26.0058402,58.8476875 27.0596418,59.0573342 27.903041,59.6495405 C28.7464403,60.2417469 29.3014512,61.1617537 29.432,62.184 C29.798794,64.3698911 28.4392548,66.4750959 26.296,67.04 C25.2910736,67.2643433 24.2381335,67.0545244 23.3959619,66.4621107 C22.5537903,65.8696971 22.0004732,64.9496171 21.872,63.928" id="Path" fill="#50AD26" fill-rule="nonzero"></path>
                        <path d="M9.04,66.872 C8.67773741,64.688886 10.0362893,62.5886758 12.176,62.024 C13.1818402,61.7996875 14.2356418,62.0093342 15.079041,62.6015405 C15.9224403,63.1937469 16.4774512,64.1137537 16.608,65.136 C16.9708434,67.3210738 15.6128846,69.4238313 13.472,69.992 C12.4651889,70.2137124 11.4115503,70.0019752 10.568552,69.4085287 C9.72555366,68.8150822 9.17085408,67.8945958 9.04,66.872" id="Path" fill="#57BEC7" fill-rule="nonzero"></path>
                        <path d="M9.192,50.68 L24.208,47.2 C25.1410551,46.9946345 26.1174676,47.1903508 26.8992938,47.7394543 C27.6811199,48.2885579 28.196558,49.14062 28.32,50.088 L28.584,51.688 C28.9127183,53.7141029 27.6545043,55.6601867 25.672,56.192 L10.656,59.68 C9.72533092,59.8828624 8.752235,59.6869811 7.97254177,59.139828 C7.19284855,58.5926748 6.67772095,57.7441887 6.552,56.8 L6.288,55.2 C5.96306007,53.1790591 7.21622752,51.2388935 9.192,50.704" id="Path" fill="#D3D1CB" fill-rule="nonzero"></path>
                        <path d="M20.064,52.848 C19.7017374,50.664886 21.0602893,48.5646758 23.2,48 C24.2058402,47.7756875 25.2596418,47.9853342 26.103041,48.5775405 C26.9464403,49.1697469 27.5014512,50.0897537 27.632,51.112 C28.0170387,53.3089717 26.6535161,55.4342582 24.496,56 C23.4904094,56.2217388 22.4379205,56.0110471 21.5951767,55.419301 C20.7524329,54.827555 20.1968849,53.9091377 20.064,52.888" id="Path" fill="#FCD911" fill-rule="nonzero"></path>
                        <path d="M7.24,55.792 C6.87574698,53.600843 8.24824637,51.4951857 10.4,50.944 C11.4049264,50.7196567 12.4578665,50.9294756 13.3000381,51.5218893 C14.1422097,52.1143029 14.6955268,53.0343829 14.824,54.056 C15.1948669,56.2383542 13.8372439,58.3424962 11.696,58.904 C10.6901598,59.1283125 9.63635819,58.9186658 8.79295897,58.3264595 C7.94955975,57.7342531 7.39454883,56.8142463 7.264,55.792" id="Path" fill="#FD1C16" fill-rule="nonzero"></path>
                        <path d="M54.832,69.816 C57.232,61.688 65.304,56.872 72.856,59.056 C80.408,61.24 84.576,69.6 82.176,77.736 C79.776,85.872 71.696,90.68 64.152,88.496 C56.608,86.312 52.424,77.944 54.832,69.816" id="Path" fill="#BAB7B0" fill-rule="nonzero"></path>
                        <path d="M59.32,74.464 L64.728,76.064 L63.008,81.88 C62.8600618,82.3304995 63.1028374,82.8160509 63.552,82.968 L67.68,84.16 C68.1428557,84.2719892 68.6108212,83.9954641 68.736,83.536 L70.456,77.72 L75.856,79.32 C76.3175778,79.4361773 76.7861812,79.1571615 76.904,78.696 L78.224,74.248 C78.3673225,73.7978493 78.1261141,73.3154324 77.68,73.16 L72.272,71.56 L73.992,65.736 C74.0654133,65.5217419 74.0500667,65.2870196 73.9493805,65.0841445 C73.8486943,64.8812693 73.6710362,64.7271017 73.456,64.656 L69.32,63.456 C68.8584222,63.3398227 68.3898188,63.6188385 68.272,64.08 L66.552,69.904 L61.144,68.304 C60.6831091,68.1924456 60.2175558,68.4696454 60.096,68.928 L58.784,73.376 C58.7103483,73.5913419 58.7254841,73.827149 58.8260622,74.0313076 C58.9266403,74.2354662 59.1043798,74.391167 59.32,74.464" id="Path" fill="#372F30" fill-rule="nonzero"></path>
                        <path d="M33.912,73.424 L50.448,78.224 C51.2688488,78.4976453 51.9470202,79.0867617 52.3327749,79.861273 C52.7185296,80.6357843 52.780139,81.5319868 52.504,82.352 C52.2924179,83.2010489 51.7519055,83.9311193 51.0015864,84.3813107 C50.2512674,84.8315021 49.3527288,84.9648623 48.504,84.752 L32,79.928 C31.1791512,79.6543547 30.5009798,79.0652383 30.1152251,78.290727 C29.7294704,77.5162157 29.667861,76.6200132 29.944,75.8 C30.1555821,74.9509511 30.6960945,74.2208807 31.4464136,73.7706893 C32.1967326,73.3204979 33.0952712,73.1871377 33.944,73.4" id="Path" fill="#BAB7B0" fill-rule="nonzero"></path>
                        <path d="M47.92,61.32 L52.8,59.048 C53.1013017,58.9151282 53.4441471,58.9128196 53.7472108,59.0416217 C54.0502745,59.1704237 54.2865533,59.4188602 54.4,59.728 L54.608,60.264 C54.8530988,60.9506917 54.543102,61.711906 53.888,62.032 L49.04,64.304 C48.7386983,64.4368718 48.3958529,64.4391804 48.0927892,64.3103783 C47.7897255,64.1815763 47.5534467,63.9331398 47.44,63.624 L47.2,63.088 C46.9498041,62.4032966 47.2571098,61.6402117 47.912,61.32" id="Path" fill="#A39C97" fill-rule="nonzero"></path>
                        <path d="M38.824,58.68 L43.704,56.416 C44.0055539,56.2855587 44.347403,56.2844666 44.6497841,56.4129786 C44.9521652,56.5414906 45.1886284,56.7883654 45.304,57.096 L45.504,57.632 C45.755375,58.3146418 45.4518122,59.0769984 44.8,59.4 L39.912,61.672 C39.6096614,61.8045001 39.2659142,61.8056933 38.962663,61.6752953 C38.6594118,61.5448973 38.4238121,61.2945849 38.312,60.984 L38.104,60.456 C37.8580502,59.7670552 38.1677294,59.0031798 38.824,58.68" id="Path" fill="#A39C97" fill-rule="nonzero"></path>
                    </g>
                </g>
            </g>
        </g>
    </g>
</svg>