<?xml version="1.0" encoding="UTF-8"?>
<svg width="311px" height="366px" viewBox="0 0 311 366" version="1.1" xmlns="http://www.w3.org/2000/svg" xmlns:xlink="http://www.w3.org/1999/xlink">
    <!-- Generator: Sketch 63.1 (92452) - https://sketch.com -->
    <title>videos@2x</title>
    <desc>Created with Sketch.</desc>
    <defs>
        <rect id="path-1" x="0" y="0" width="255" height="310" rx="8"></rect>
        <filter x="-16.9%" y="-13.2%" width="133.7%" height="127.7%" filterUnits="objectBoundingBox" id="filter-3">
            <feOffset dx="0" dy="2" in="SourceAlpha" result="shadowOffsetOuter1"></feOffset>
            <feGaussianBlur stdDeviation="14" in="shadowOffsetOuter1" result="shadowBlurOuter1"></feGaussianBlur>
            <feColorMatrix values="0 0 0 0 0   0 0 0 0 0   0 0 0 0 0  0 0 0 0.06 0" type="matrix" in="shadowBlurOuter1"></feColorMatrix>
        </filter>
        <path d="M3.00025,7.99927241 C2.74425,7.99927241 2.48825,7.90127241 2.29325,7.70627241 C1.90225,7.31527241 1.90225,6.68327241 2.29325,6.29227241 L5.59825,2.98727241 L2.41825,-0.305727588 C2.03525,-0.703727588 2.04625,-1.33672759 2.44325,-1.71972759 C2.84125,-2.10272759 3.47425,-2.09172759 3.85725,-1.69572759 L7.71925,2.30427241 C8.09825,2.69727241 8.09325,3.32027241 7.70725,3.70627241 L3.70725,7.70627241 C3.51225,7.90127241 3.25625,7.99927241 3.00025,7.99927241" id="path-4"></path>
    </defs>
    <g id="Screens" stroke="none" stroke-width="1" fill="none" fill-rule="evenodd">
        <g id="Materias-" transform="translate(-137.000000, -769.000000)">
            <g id="Ficha-de-repaso" transform="translate(165.000000, 795.000000)">
                <g id="Group">
                    <mask id="mask-2" fill="white">
                        <use xlink:href="#path-1"></use>
                    </mask>
                    <g id="Mask">
                        <use fill="black" fill-opacity="1" filter="url(#filter-3)" xlink:href="#path-1"></use>
                        <use fill="#FFFFFF" fill-rule="evenodd" xlink:href="#path-1"></use>
                    </g>
                    <rect id="Rectangle" fill="#E4E9F2" fill-rule="nonzero" opacity="0.497465588" mask="url(#mask-2)" x="0" y="0" width="255" height="88"></rect>
                    <g id="atomo/-button/-primario/-228x48px/-active-copy-2" mask="url(#mask-2)">
                        <g transform="translate(27.000000, 232.000000)" id="Group">
                            <g>
                                <rect id="Rectangle" fill="#A546A0" x="0" y="0" width="200" height="48" rx="24"></rect>
                                <g id="Group-2" transform="translate(30.225131, 14.000000)">
                                    <g id="Group-3">
                                        <text id="Ver-actividades" font-family="Montserrat-Medium, Montserrat" font-size="16" font-weight="400" line-spacing="20" fill="#FFFFFF">
                                            <tspan x="0.410429319" y="15">Ver actividades</tspan>
                                        </text>
                                        <g id="Arrow_down" transform="translate(140.596859, 11.000000) rotate(-90.000000) translate(-140.596859, -11.000000) translate(135.596859, 8.000000)">
                                            <mask id="mask-5" fill="white">
                                                <use xlink:href="#path-4"></use>
                                            </mask>
                                            <use id="🎨-Icon-Сolor" fill="#FFFFFF" fill-rule="nonzero" transform="translate(5.000080, 2.999636) rotate(-270.000000) translate(-5.000080, -2.999636) " xlink:href="#path-4"></use>
                                        </g>
                                    </g>
                                </g>
                            </g>
                        </g>
                    </g>
                    <text id="Fichas-de-repaso" font-family="Montserrat-Medium, Montserrat" font-size="20" font-weight="400" letter-spacing="0.416666667" fill="#333E53">
                        <tspan x="92.18" y="196">Videos</tspan>
                    </text>
                </g>
                <g id="icono_01--copy" transform="translate(74.000000, 24.000000)">
                    <g id="Recurso-2">
                        <path d="M107.865001,53.5314706 C107.868212,75.1868636 94.8257898,94.711713 74.8197372,103.001099 C54.8136846,111.290485 31.7841267,106.71184 16.4703156,91.4003006 C1.15650455,76.0887609 -3.42555594,53.0598825 4.86086224,33.0526005 C13.1472804,13.0453185 32.670195,0 54.3255882,0 C83.8896722,0.00438311081 107.856232,23.9673876 107.865001,53.5314706" id="Path" fill="#8D2A91" fill-rule="nonzero"></path>
                        <path d="M71.2164706,26.5155882 L3.85941176,41.2941176 C3.0819371,41.4416144 2.3989278,41.9014074 1.96971497,42.5662371 C1.54050213,43.2310668 1.40262067,44.0427934 1.58823529,44.8120588 L12.7058824,87.7579412 C13.1767002,89.3793596 14.833691,90.3491352 16.4779412,89.9655882 L83.8667647,75.2029412 C84.6480573,75.0555918 85.3345229,74.5937788 85.7654469,73.9256214 C86.1963709,73.2574639 86.3339168,72.4416284 86.1458824,71.6691176 L75.0282353,28.7232353 C74.5570795,27.0828069 72.8738172,26.1079175 71.2164706,26.5155882 Z M79.3958824,73.3685294 L19.0588235,86.5588235 L7.83794118,43.2476471 L68.1432353,30.0335294 L79.3958824,73.3685294 Z" id="Shape" fill="#FFFFFF" fill-rule="nonzero"></path>
                        <path d="M11.8005882,71.5738235 L11.5464706,71.6294118 C11.1461624,71.713525 10.7474485,71.4797962 10.6252941,71.0894118 L7.88558824,60.5594118 C7.84089647,60.370632 7.87486584,60.1717949 7.97969593,60.0085594 C8.08452603,59.845324 8.25120943,59.7317161 8.44147059,59.6938235 L8.73529412,59.6382353 C9.1329311,59.5586573 9.52664716,59.7914633 9.64852941,60.1782353 L12.3882353,70.7161765 C12.4324355,70.9086783 12.3940679,71.110893 12.2824284,71.2738262 C12.170789,71.4367595 11.9960643,71.5455444 11.8005882,71.5738235 L11.8005882,71.5738235 Z" id="Path" fill="#CECDC4" fill-rule="nonzero"></path>
                        <path d="M79.1814706,50.3788235 C79.303557,50.8833487 79.212763,51.4158792 78.9303951,51.8514468 C78.6480272,52.2870144 78.1989433,52.5872742 77.6885294,52.6817647 C76.6170578,52.9283657 75.5386696,52.2987261 75.2267647,51.2444118 C75.1021877,50.7387582 75.1917733,50.2041086 75.4743725,49.7666812 C75.7569716,49.3292538 76.2075388,49.0278157 76.7197059,48.9335294 C77.7941652,48.6833644 78.8762909,49.3186769 79.1814706,50.3788235 L79.1814706,50.3788235 Z" id="Path" fill="#CECDC4" fill-rule="nonzero"></path>
                        <polygon id="Path" fill="#201C1E" fill-rule="nonzero" points="79.5864706 73.8052941 19.2176471 87.0352941 7.82205882 43.1682353 68.1908824 29.9382353"></polygon>
                        <path d="M51.1570588,56.2314706 C51.6204023,58.118491 51.2873326,60.1130173 50.2359939,61.7470981 C49.1846551,63.381179 47.5075782,64.5109947 45.5982353,64.8714706 C41.583254,65.7965209 37.5454457,63.4219549 36.4023529,59.4635294 C35.9390095,57.576509 36.2720791,55.5819827 37.3234179,53.9479019 C38.3747567,52.313821 40.0518335,51.1840053 41.9611765,50.8235294 C45.9761578,49.8984791 50.0139661,52.2730451 51.1570588,56.2314706 Z" id="Path" fill="#65615E" fill-rule="nonzero"></path>
                        <polygon id="Path" fill="#FFFFFF" fill-rule="nonzero" points="40.9526471 54.4447059 42.93 62.0523529 47.4723529 57.0414706"></polygon>
                        <polygon id="Path" fill="#FFFFFF" fill-rule="nonzero" points="23.2914706 82.7073529 23.9029412 85.0420588 21.7508824 84.2797059"></polygon>
                        <polygon id="Path" fill="#FFFFFF" fill-rule="nonzero" points="21.8779412 85.6455882 21.3855882 85.7488235 20.7026471 83.1202941 21.195 83.0091176"></polygon>
                        <polygon id="Path" fill="#FFFFFF" fill-rule="nonzero" points="30.2638235 81.1747059 30.8752941 83.5173529 32.4079412 81.945"></polygon>
                        <polygon id="Path" fill="#FFFFFF" fill-rule="nonzero" points="25.9041176 82.1355882 26.5076471 84.4702941 28.0482353 82.8979412"></polygon>
                        <polygon id="Path" fill="#FFFFFF" fill-rule="nonzero" points="32.9717647 83.2155882 33.4641176 83.1044118 32.7732353 80.4679412 32.2888235 80.5791176"></polygon>
                        <polygon id="Path" fill="#FFFFFF" fill-rule="nonzero" points="78.4032353 69.2391176 18.1852941 82.4294118 18.0344118 81.8497059 78.2523529 68.6514706"></polygon>
                        <polygon id="Path" fill="#FB3C36" fill-rule="nonzero" points="37.2361765 78.2602941 18.1852941 82.4294118 18.0344118 81.8497059 37.0852941 77.6726471"></polygon>
                        <path d="M73.5908824,73.8529412 L70.2158824,74.5914706 L69.6838235,72.5426471 L73.0588235,71.7961765 L73.5908824,73.8529412 Z M70.4144118,74.2341176 L73.1779412,73.6305882 L72.7967647,72.1614706 L70.0332353,72.7729412 L70.4144118,74.2341176 Z" id="Shape" fill="#FFFFFF" fill-rule="nonzero"></path>
                        <polygon id="Path" fill="#FFFFFF" fill-rule="nonzero" points="75.7429412 73.3685294 75.5444118 72.6141176 75.2347059 72.6776471 75.5126471 73.7338235 76.68 73.4797059 76.6085294 73.1858824"></polygon>
                        <polygon id="Path" fill="#FFFFFF" fill-rule="nonzero" points="77.895 72.9 77.085 73.0826471 77.1644118 73.3685294 78.2761765 73.1302941 78.0061765 72.0741176 77.6964706 72.1376471"></polygon>
                        <polygon id="Path" fill="#FFFFFF" fill-rule="nonzero" points="75.2108824 71.3276471 76.0764706 71.1370588 75.9970588 70.8432353 74.8297059 71.0973529 75.1155882 72.225 75.4252941 72.1535294"></polygon>
                        <polygon id="Path" fill="#FFFFFF" fill-rule="nonzero" points="77.3629412 70.8511765 77.5773529 71.685 77.8870588 71.6214706 77.5932353 70.4938235 76.4814706 70.74 76.5529412 71.0338235"></polygon>
                        <path d="M68.6594118,74.0435294 C68.6631447,73.990654 68.6631447,73.9375813 68.6594118,73.8847059 C68.6336639,73.7754136 68.5907805,73.6708852 68.5323529,73.575 C68.4975085,73.5956193 68.4601383,73.6116351 68.4211765,73.6226471 C68.2476491,73.6549192 68.0773022,73.552711 68.0241176,73.3844118 C68.0001802,73.291931 68.0240167,73.1936052 68.0876471,73.1223529 C68.0068915,73.0747138 67.9218058,73.0348299 67.8335294,73.0032353 C67.7888845,73.0802353 67.7139818,73.1349719 67.6270588,73.1541176 C67.4594611,73.1911673 67.2911095,73.0949664 67.2379412,72.9317647 C67.1264536,72.9392095 67.0167084,72.9632999 66.9123529,73.0032353 C66.9204222,73.0344875 66.9204222,73.0672772 66.9123529,73.0985294 C66.8877471,73.2714834 66.728097,73.3921079 66.555,73.3685294 C66.5010683,73.3619818 66.4494063,73.3429485 66.4041176,73.3129412 C66.3184006,73.408476 66.2462519,73.515363 66.1897059,73.6305882 C66.2254399,73.6724656 66.2524398,73.7210653 66.2691176,73.7735294 C66.3059909,73.9261568 66.2196577,74.0815565 66.0705882,74.1308824 C66.0592313,74.2364602 66.0592313,74.3429516 66.0705882,74.4485294 C66.0705882,74.4961765 66.0705882,74.5438235 66.1261765,74.5994118 C66.2940773,74.5636907 66.4608692,74.6644607 66.5073529,74.8297059 C66.531321,74.9135901 66.516773,75.0037875 66.4676471,75.0758824 C66.5687961,75.1618641 66.6809615,75.2339705 66.8011765,75.2902941 C66.8415346,75.2540574 66.8909134,75.229368 66.9441176,75.2188235 C67.1026815,75.1813901 67.265605,75.2611893 67.3332353,75.4094118 C67.44391,75.4243496 67.55609,75.4243496 67.6667647,75.4094118 L67.8176471,75.4094118 C67.801356,75.3282744 67.8182153,75.2439919 67.8644642,75.1753646 C67.910713,75.1067372 67.9825041,75.0594741 68.0638235,75.0441176 C68.1514536,75.0232493 68.2438232,75.0405686 68.3179412,75.0917647 C68.4357215,74.9759676 68.525373,74.8346987 68.58,74.6788235 C68.5015191,74.6418557 68.443386,74.572096 68.4211765,74.4882353 C68.3767081,74.3984873 68.3783883,74.2927748 68.4256862,74.2044853 C68.4729842,74.1161957 68.5600598,74.0562308 68.6594118,74.0435294 L68.6594118,74.0435294 Z M67.5,74.6470588 C67.2406794,74.7040383 66.9811965,74.5518083 66.9044118,74.2976471 C66.8737318,74.1752625 66.8946007,74.0456504 66.9621447,73.939081 C67.0296887,73.8325116 67.1379934,73.7583164 67.2617647,73.7338235 C67.5210853,73.6768441 67.7805682,73.8290741 67.8573529,74.0832353 C67.8880329,74.2056198 67.867164,74.335232 67.79962,74.4418014 C67.732076,74.5483708 67.6237713,74.6225659 67.5,74.6470588 Z" id="Shape" fill="#FFFFFF" fill-rule="nonzero"></path>
                        <path d="M81.7385294,76.4497059 C81.6981203,78.5011894 82.4745171,80.484663 83.8968429,81.9635839 C85.3191687,83.4425049 87.2708541,84.2956656 89.3223529,84.3352941 L97.5891176,84.3352941 C101.858105,84.2484469 105.249176,80.7187466 105.165,76.4497059 L105.165,76.4497059 C105.20541,74.4003283 104.429849,72.4188744 103.009013,70.9414427 C101.588176,69.4640109 99.6385104,68.6116869 97.5891176,68.5720588 L89.3223529,68.5720588 C85.0534014,68.6546056 81.6588243,72.1807003 81.7385294,76.4497059 L81.7385294,76.4497059 Z" id="Path" fill="#311C29" fill-rule="nonzero"></path>
                        <path d="M73.3764706,76.4497059 C73.3764706,84.3908824 79.5864706,90.8867647 87.2497059,90.8867647 C94.9129412,90.8867647 101.130882,84.4305882 101.130882,76.4497059 C101.130882,68.4688235 94.9129412,62.0205882 87.2497059,62.0205882 C79.5864706,62.0205882 73.3764706,68.4767647 73.3764706,76.4497059 Z" id="Path" fill="#5EB7AB" fill-rule="nonzero"></path>
                        <ellipse id="Oval" fill="#FFFFFF" fill-rule="nonzero" cx="87.2497059" cy="76.4497059" rx="12.285" ry="12.7773529"></ellipse>
                        <path d="M74.964575,76.4576471 C74.964575,83.5173529 80.46,89.2429412 87.2497059,89.2429412 C90.5329925,89.237045 93.6702513,87.8851247 95.9294118,85.5026471 L95.9294118,85.5026471 L78.5620588,67.4285294 C76.2391857,69.8589854 74.9496205,73.0957089 74.964575,76.4576471 L74.964575,76.4576471 Z" id="Path" fill="#BBD3CA" fill-rule="nonzero" style="mix-blend-mode: multiply;"></path>
                        <path d="M82.4611765,76.4497059 C82.5783115,79.0500394 84.7605923,81.0751262 87.3624169,80.9979001 C89.9642416,80.920674 92.0225712,78.7697196 91.9852722,76.1670163 C91.9479732,73.5643131 89.8288515,71.4732251 87.2258824,71.4705882 C84.5396762,71.5399385 82.4122975,73.7630492 82.4611765,76.4497059 L82.4611765,76.4497059 Z" id="Path" fill="#FF9212" fill-rule="nonzero"></path>
                        <path d="M86.5985294,75.1235294 C86.6375971,76.0386068 87.4041918,76.7527547 88.3197401,76.7269829 C89.2352884,76.7012112 89.960496,75.9450706 89.9480256,75.0292445 C89.9355552,74.1134184 89.1900282,73.3773042 88.2741176,73.3764706 C87.8198685,73.3847985 87.3876713,73.57383 87.0731916,73.9017235 C86.758712,74.229617 86.5878874,74.6693286 86.5985294,75.1235294 L86.5985294,75.1235294 Z" id="Path" fill="#FFFFFF" fill-rule="nonzero"></path>
                        <path d="M77.4344118,66.2532353 L78.5620588,67.4285294 C80.82121,65.040344 83.9622798,63.6851475 87.2497059,63.6802941 C94.0314706,63.6802941 99.5347059,69.4058824 99.5347059,76.4576471 C99.5488835,79.8232767 98.2563836,83.0630673 95.9294118,85.4947059 L95.9294118,85.4947059 L97.065,86.6620588 C99.6835496,83.9083328 101.137348,80.2496535 101.123047,76.4497059 C101.123047,68.5085294 94.9129412,62.0126471 87.2497059,62.0126471 C83.535506,62.0235068 79.9880551,63.5561434 77.4344118,66.2532353 Z" id="Path" fill="#A3DBC2" fill-rule="nonzero" style="mix-blend-mode: multiply;"></path>
                        <path d="M78.1808824,76.4576471 C78.1674075,78.9003415 79.104307,81.2525574 80.7935294,83.0170588 L82.6438235,81.0952941 C80.1861894,78.488856 80.1861894,74.418497 82.6438235,71.8120588 L80.7935294,69.8823529 C79.1026197,71.6521878 78.1657829,74.0099414 78.1808824,76.4576471 L78.1808824,76.4576471 Z M78.1808824,76.4576471 C78.1674075,78.9003415 79.104307,81.2525574 80.7935294,83.0170588 L82.6438235,81.0952941 C80.1861894,78.488856 80.1861894,74.418497 82.6438235,71.8120588 L80.7935294,69.8823529 C79.1026197,71.6521878 78.1657829,74.0099414 78.1808824,76.4576471 L78.1808824,76.4576471 Z M78.1808824,76.4576471 C78.1674075,78.9003415 79.104307,81.2525574 80.7935294,83.0170588 L82.6438235,81.0952941 C80.1861894,78.488856 80.1861894,74.418497 82.6438235,71.8120588 L80.7935294,69.8823529 C79.1026197,71.6521878 78.1657829,74.0099414 78.1808824,76.4576471 L78.1808824,76.4576471 Z M78.1808824,76.4576471 C78.1674075,78.9003415 79.104307,81.2525574 80.7935294,83.0170588 L82.6438235,81.0952941 C80.1861894,78.488856 80.1861894,74.418497 82.6438235,71.8120588 L80.7935294,69.8823529 C79.1026197,71.6521878 78.1657829,74.0099414 78.1808824,76.4576471 L78.1808824,76.4576471 Z M78.1808824,76.4576471 C78.1674075,78.9003415 79.104307,81.2525574 80.7935294,83.0170588 L82.6438235,81.0952941 C80.1861894,78.488856 80.1861894,74.418497 82.6438235,71.8120588 L80.7935294,69.8823529 C79.1026197,71.6521878 78.1657829,74.0099414 78.1808824,76.4576471 L78.1808824,76.4576471 Z M78.1808824,76.4576471 C78.1674075,78.9003415 79.104307,81.2525574 80.7935294,83.0170588 L82.6438235,81.0952941 C80.1861894,78.488856 80.1861894,74.418497 82.6438235,71.8120588 L80.7935294,69.8823529 C79.1026197,71.6521878 78.1657829,74.0099414 78.1808824,76.4576471 L78.1808824,76.4576471 Z M78.1808824,76.4576471 C78.1674075,78.9003415 79.104307,81.2525574 80.7935294,83.0170588 L82.6438235,81.0952941 C80.1861894,78.488856 80.1861894,74.418497 82.6438235,71.8120588 L80.7935294,69.8823529 C79.1026197,71.6521878 78.1657829,74.0099414 78.1808824,76.4576471 L78.1808824,76.4576471 Z M78.1808824,76.4576471 C78.1674075,78.9003415 79.104307,81.2525574 80.7935294,83.0170588 L82.6438235,81.0952941 C80.1861894,78.488856 80.1861894,74.418497 82.6438235,71.8120588 L80.7935294,69.8823529 C79.1026197,71.6521878 78.1657829,74.0099414 78.1808824,76.4576471 L78.1808824,76.4576471 Z M78.1808824,76.4576471 C78.1674075,78.9003415 79.104307,81.2525574 80.7935294,83.0170588 L82.6438235,81.0952941 C80.1861894,78.488856 80.1861894,74.418497 82.6438235,71.8120588 L80.7935294,69.8823529 C79.1026197,71.6521878 78.1657829,74.0099414 78.1808824,76.4576471 L78.1808824,76.4576471 Z M78.1808824,76.4576471 C78.1674075,78.9003415 79.104307,81.2525574 80.7935294,83.0170588 L82.6438235,81.0952941 C80.1861894,78.488856 80.1861894,74.418497 82.6438235,71.8120588 L80.7935294,69.8823529 C79.1026197,71.6521878 78.1657829,74.0099414 78.1808824,76.4576471 L78.1808824,76.4576471 Z M78.1808824,76.4576471 C78.1674075,78.9003415 79.104307,81.2525574 80.7935294,83.0170588 L82.6438235,81.0952941 C80.1861894,78.488856 80.1861894,74.418497 82.6438235,71.8120588 L80.7935294,69.8823529 C79.1026197,71.6521878 78.1657829,74.0099414 78.1808824,76.4576471 L78.1808824,76.4576471 Z M78.1808824,76.4576471 C78.1674075,78.9003415 79.104307,81.2525574 80.7935294,83.0170588 L82.6438235,81.0952941 C80.1861894,78.488856 80.1861894,74.418497 82.6438235,71.8120588 L80.7935294,69.8823529 C79.1026197,71.6521878 78.1657829,74.0099414 78.1808824,76.4576471 L78.1808824,76.4576471 Z M78.1808824,76.4576471 C78.1674075,78.9003415 79.104307,81.2525574 80.7935294,83.0170588 L82.6438235,81.0952941 C80.1861894,78.488856 80.1861894,74.418497 82.6438235,71.8120588 L80.7935294,69.8823529 C79.1026197,71.6521878 78.1657829,74.0099414 78.1808824,76.4576471 L78.1808824,76.4576471 Z M78.1808824,76.4576471 C78.1674075,78.9003415 79.104307,81.2525574 80.7935294,83.0170588 L82.6438235,81.0952941 C80.1861894,78.488856 80.1861894,74.418497 82.6438235,71.8120588 L80.7935294,69.8823529 C79.1026197,71.6521878 78.1657829,74.0099414 78.1808824,76.4576471 L78.1808824,76.4576471 Z M78.1808824,76.4576471 C78.1674075,78.9003415 79.104307,81.2525574 80.7935294,83.0170588 L82.6438235,81.0952941 C80.1861894,78.488856 80.1861894,74.418497 82.6438235,71.8120588 L80.7935294,69.8823529 C79.1026197,71.6521878 78.1657829,74.0099414 78.1808824,76.4576471 L78.1808824,76.4576471 Z M78.1808824,76.4576471 C78.1674075,78.9003415 79.104307,81.2525574 80.7935294,83.0170588 L82.6438235,81.0952941 C80.1861894,78.488856 80.1861894,74.418497 82.6438235,71.8120588 L80.7935294,69.8823529 C79.1026197,71.6521878 78.1657829,74.0099414 78.1808824,76.4576471 L78.1808824,76.4576471 Z M78.1808824,76.4576471 C78.1674075,78.9003415 79.104307,81.2525574 80.7935294,83.0170588 L82.6438235,81.0952941 C80.1861894,78.488856 80.1861894,74.418497 82.6438235,71.8120588 L80.7935294,69.8823529 C79.1026197,71.6521878 78.1657829,74.0099414 78.1808824,76.4576471 L78.1808824,76.4576471 Z M78.1808824,76.4576471 C78.1674075,78.9003415 79.104307,81.2525574 80.7935294,83.0170588 L82.6438235,81.0952941 C80.1861894,78.488856 80.1861894,74.418497 82.6438235,71.8120588 L80.7935294,69.8823529 C79.1026197,71.6521878 78.1657829,74.0099414 78.1808824,76.4576471 L78.1808824,76.4576471 Z M78.1808824,76.4576471 C78.1674075,78.9003415 79.104307,81.2525574 80.7935294,83.0170588 L82.6438235,81.0952941 C80.1861894,78.488856 80.1861894,74.418497 82.6438235,71.8120588 L80.7935294,69.8823529 C79.1026197,71.6521878 78.1657829,74.0099414 78.1808824,76.4576471 L78.1808824,76.4576471 Z M78.1808824,76.4576471 C78.1674075,78.9003415 79.104307,81.2525574 80.7935294,83.0170588 L82.6438235,81.0952941 C80.1861894,78.488856 80.1861894,74.418497 82.6438235,71.8120588 L80.7935294,69.8823529 C79.1026197,71.6521878 78.1657829,74.0099414 78.1808824,76.4576471 L78.1808824,76.4576471 Z M78.1808824,76.4576471 C78.1674075,78.9003415 79.104307,81.2525574 80.7935294,83.0170588 L82.6438235,81.0952941 C80.1861894,78.488856 80.1861894,74.418497 82.6438235,71.8120588 L80.7935294,69.8823529 C79.1026197,71.6521878 78.1657829,74.0099414 78.1808824,76.4576471 L78.1808824,76.4576471 Z M78.1808824,76.4576471 C78.1674075,78.9003415 79.104307,81.2525574 80.7935294,83.0170588 L82.6438235,81.0952941 C80.1861894,78.488856 80.1861894,74.418497 82.6438235,71.8120588 L80.7935294,69.8823529 C79.1026197,71.6521878 78.1657829,74.0099414 78.1808824,76.4576471 L78.1808824,76.4576471 Z M78.1808824,76.4576471 C78.1674075,78.9003415 79.104307,81.2525574 80.7935294,83.0170588 L82.6438235,81.0952941 C80.1861894,78.488856 80.1861894,74.418497 82.6438235,71.8120588 L80.7935294,69.8823529 C79.1026197,71.6521878 78.1657829,74.0099414 78.1808824,76.4576471 L78.1808824,76.4576471 Z" id="Shape" fill="#FFFFFF" fill-rule="nonzero"></path>
                        <path d="M68.4529412,76.4576471 C68.4333376,81.56491 70.3945956,86.4808644 73.9244118,90.1720588 L75.6397059,88.3852941 C69.3228222,81.7003238 69.3228222,71.246735 75.6397059,64.5617647 L73.9244118,62.7352941 C70.3933965,66.4289257 68.4321097,71.3477988 68.4529412,76.4576471 L68.4529412,76.4576471 Z" id="Path" fill="#FFFFFF" fill-rule="nonzero"></path>
                        <path d="M73.3129412,76.4576471 C73.306481,80.2201213 74.7547748,83.8394333 77.355,86.5588235 L79.0782353,84.78 C74.6532305,80.1017885 74.6532305,72.7817409 79.0782353,68.1035294 L77.355,66.3088235 C74.7490032,69.0437424 73.3007722,72.6799688 73.3129412,76.4576471 L73.3129412,76.4576471 Z" id="Path" fill="#FFFFFF" fill-rule="nonzero" opacity="0.67"></path>
                        <path d="M73.3129412,76.4576471 C73.306481,80.2201213 74.7547748,83.8394333 77.355,86.5588235 L79.0782353,84.78 C74.6532305,80.1017885 74.6532305,72.7817409 79.0782353,68.1035294 L77.355,66.3088235 C74.7490032,69.0437424 73.3007722,72.6799688 73.3129412,76.4576471 L73.3129412,76.4576471 Z" id="Path" fill="#FFFFFF" fill-rule="nonzero"></path>
                    </g>
                </g>
            </g>
        </g>
    </g>
</svg>