<?xml version="1.0" encoding="UTF-8"?>
<svg width="311px" height="366px" viewBox="0 0 311 366" version="1.1" xmlns="http://www.w3.org/2000/svg" xmlns:xlink="http://www.w3.org/1999/xlink">
    <!-- Generator: Sketch 63.1 (92452) - https://sketch.com -->
    <title>activacion@2x</title>
    <desc>Created with Sketch.</desc>
    <defs>
        <rect id="path-1" x="0" y="0" width="255" height="310" rx="8"></rect>
        <filter x="-16.9%" y="-13.2%" width="133.7%" height="127.7%" filterUnits="objectBoundingBox" id="filter-3">
            <feOffset dx="0" dy="2" in="SourceAlpha" result="shadowOffsetOuter1"></feOffset>
            <feGaussianBlur stdDeviation="14" in="shadowOffsetOuter1" result="shadowBlurOuter1"></feGaussianBlur>
            <feColorMatrix values="0 0 0 0 0   0 0 0 0 0   0 0 0 0 0  0 0 0 0.06 0" type="matrix" in="shadowBlurOuter1"></feColorMatrix>
        </filter>
        <path d="M3.00025,7.99927241 C2.74425,7.99927241 2.48825,7.90127241 2.29325,7.70627241 C1.90225,7.31527241 1.90225,6.68327241 2.29325,6.29227241 L5.59825,2.98727241 L2.41825,-0.305727588 C2.03525,-0.703727588 2.04625,-1.33672759 2.44325,-1.71972759 C2.84125,-2.10272759 3.47425,-2.09172759 3.85725,-1.69572759 L7.71925,2.30427241 C8.09825,2.69727241 8.09325,3.32027241 7.70725,3.70627241 L3.70725,7.70627241 C3.51225,7.90127241 3.25625,7.99927241 3.00025,7.99927241" id="path-4"></path>
    </defs>
    <g id="Screens" stroke="none" stroke-width="1" fill="none" fill-rule="evenodd">
        <g id="Materias-" transform="translate(-992.000000, -1139.000000)">
            <g id="Ficha-de-repaso" transform="translate(1020.000000, 1165.000000)">
                <g id="Group">
                    <mask id="mask-2" fill="white">
                        <use xlink:href="#path-1"></use>
                    </mask>
                    <g id="Mask">
                        <use fill="black" fill-opacity="1" filter="url(#filter-3)" xlink:href="#path-1"></use>
                        <use fill="#FFFFFF" fill-rule="evenodd" xlink:href="#path-1"></use>
                    </g>
                    <rect id="Rectangle" fill="#E4E9F2" fill-rule="nonzero" opacity="0.497465588" mask="url(#mask-2)" x="0" y="0" width="255" height="88"></rect>
                    <g id="atomo/-button/-primario/-228x48px/-active-copy-2" mask="url(#mask-2)">
                        <g transform="translate(27.000000, 232.000000)" id="Group">
                            <g>
                                <rect id="Rectangle" fill="#00A2AA" x="0" y="0" width="200" height="48" rx="24"></rect>
                                <g id="Group-2" transform="translate(30.225131, 14.000000)">
                                    <g id="Group-3">
                                        <text id="Ver-actividades" font-family="Montserrat-Medium, Montserrat" font-size="16" font-weight="400" line-spacing="20" fill="#FFFFFF">
                                            <tspan x="0.410429319" y="15">Ver actividades</tspan>
                                        </text>
                                        <g id="Arrow_down" transform="translate(140.596859, 11.000000) rotate(-90.000000) translate(-140.596859, -11.000000) translate(135.596859, 8.000000)">
                                            <mask id="mask-5" fill="white">
                                                <use xlink:href="#path-4"></use>
                                            </mask>
                                            <use id="🎨-Icon-Сolor" fill="#FFFFFF" fill-rule="nonzero" transform="translate(5.000080, 2.999636) rotate(-270.000000) translate(-5.000080, -2.999636) " xlink:href="#path-4"></use>
                                        </g>
                                    </g>
                                </g>
                            </g>
                        </g>
                    </g>
                    <text id="Fichas-de-repaso" font-family="Montserrat-Medium, Montserrat" font-size="20" font-weight="400" letter-spacing="0.416666667" fill="#333E53">
                        <tspan x="41.5883333" y="196">Activación física</tspan>
                    </text>
                </g>
                <g id="icono_01--copy-3" transform="translate(74.000000, 24.000000)">
                    <g id="Recurso-11" transform="translate(0.800000, 0.000000)">
                        <path d="M106.4,53.1913322 C106.403191,74.7091271 93.4436404,94.1099158 73.5647064,102.346631 C53.6857724,110.583346 30.8025444,106.033794 15.5860374,90.8195441 C0.369530317,75.6052938 -4.18341574,52.7227406 4.05035049,32.8425846 C12.2841167,12.9624287 31.6829826,0 53.2007774,0 C82.577011,0.00435526057 106.391287,23.815099 106.4,53.1913322" id="Path" fill="#3D9A8F" fill-rule="nonzero"></path>
                        <polyline id="Path" stroke="#FFFFFF" stroke-width="0.848" stroke-linecap="round" stroke-linejoin="round" points="79.2 116.8 82.4 119.2 79.2 121.6"></polyline>
                        <path d="M22.3976544,18.4 C22.441267,19.8546645 21.8751955,21.2655117 20.8257816,22.3176544 C19.7763676,23.369797 18.3309665,23.9756526 16.8121776,24 C15.2891343,23.9818372 13.8374503,23.3786908 12.7827714,22.3258605 C11.7280926,21.2730301 11.1587087,19.8586508 11.2023456,18.4 C11.158733,16.9453355 11.7248045,15.5344883 12.7742184,14.4823456 C13.8236324,13.430203 15.2690335,12.8243474 16.7878224,12.8 C18.3108657,12.8181628 19.7625497,13.4213092 20.8172286,14.4741395 C21.8719074,15.5269699 22.4412913,16.9413492 22.3976544,18.4 L22.3976544,18.4 Z" id="Path" fill="#63C4D1" fill-rule="nonzero"></path>
                        <path d="M15.1928224,54.016 C15.250975,55.120483 14.8728299,56.2030614 14.141662,57.0253303 C13.410494,57.8475992 12.3862668,58.3421237 11.2945353,58.4 C8.99436024,58.2596039 7.2,56.331379 7.2,54 C7.2,51.668621 8.99436024,49.7403961 11.2945353,49.6 C12.3913058,49.6598051 13.4192858,50.1594068 14.1509303,50.9882176 C14.8825749,51.8170284 15.2575385,52.9066885 15.1928224,54.016 L15.1928224,54.016 Z" id="Path" fill="#63C4D1" fill-rule="nonzero"></path>
                        <path d="M45.6,30.3999924 C45.6,31.0477738 45.2093907,31.631632 44.610639,31.8788516 C44.0118872,32.1260712 43.3231493,31.9878639 42.8661289,31.528785 C42.4091085,31.0697062 42.2739979,30.3803545 42.5239061,29.7827202 C42.7738144,29.1850859 43.3594225,28.7971114 44.0071978,28.8 C44.8880375,28.8039662 45.6,29.5191443 45.6,30.3999924 L45.6,30.3999924 Z" id="Path" fill="#63C4D1" fill-rule="nonzero"></path>
                        <path d="M65.6038431,30.4 L65.6038431,30.4 C66.2360197,32.7378014 68.0621986,34.5639803 70.4,35.1961569 L70.4,35.1961569 C68.0594352,35.8283035 66.2322409,37.658426 65.6038431,40 L65.6038431,40 C64.9740684,37.656477 63.143523,35.8259316 60.8,35.1961569 L60.8,35.1961569 C63.141574,34.5677591 64.9716965,32.7405648 65.6038431,30.4 L65.6038431,30.4 Z" id="Path" fill="#63C4D1" fill-rule="nonzero"></path>
                        <path d="M29.5922953,81.6 L29.5922953,81.6 C30.2259941,83.9378014 32.0565699,85.7639803 34.4,86.3961569 L34.4,86.3961569 C32.0537998,87.0283035 30.2222062,88.858426 29.5922953,91.2 L29.5922953,91.2 C28.9627773,88.8652717 27.1383167,87.0393409 24.8,86.4038431 L24.8,86.4038431 C27.1402689,85.7669643 28.9651508,83.9376851 29.5922953,81.6 L29.5922953,81.6 Z" id="Path" fill="#63C4D1" fill-rule="nonzero"></path>
                        <path d="M95.0120918,98.5140754 C93.0300189,99.9596108 90.8468398,101.099719 88.5338685,101.897157 C85.6441553,102.895594 82.5925248,103.326862 79.5428797,103.167799 C78.8566757,103.134519 78.1726158,103.065601 77.4934055,102.961319 C71.5891176,102.100527 66.1935973,99.1041096 62.3068795,94.5274389 C61.8592931,93.9953579 61.4274116,93.4394524 61.0112348,92.8756054 C57.3614315,87.7593806 55.6124895,81.5053429 56.0720803,75.2136939 C56.127047,74.4910167 56.2055709,73.7762811 56.3155044,73.0615455 C57.2623964,66.9060702 60.3200568,61.2835955 64.9531355,57.1785315 C65.4713934,56.7258656 66.0053561,56.2970242 66.5707283,55.8840658 C68.5481838,54.4309411 70.7325354,53.2902209 73.0489516,52.5009839 C76.0404802,51.4635503 79.2064937,51.0396842 82.3618884,51.2541673 C82.7388033,51.2541673 83.1471276,51.3097578 83.5004853,51.3574068 C84.175791,51.4368219 84.8510967,51.5400615 85.5264024,51.6830086 C91.5107816,52.9364004 96.8250667,56.3846279 100.445947,61.3637057 C100.854271,61.9275527 101.231186,62.5152242 101.615953,63.1108372 C102.768386,64.9825422 103.68132,66.9945775 104.332881,69.0987335 C105.525784,72.8486145 105.882452,76.8192002 105.377249,80.7250997 C105.28302,81.4398354 105.157382,82.154571 105.016039,82.8613651 C104.945368,83.1790254 104.874696,83.4966857 104.796172,83.8064044 C104.717648,84.1161232 104.646977,84.3623099 104.568453,84.6005551 C104.489929,84.8388004 104.434962,85.0611626 104.364291,85.2835247 C104.346433,85.3655005 104.320114,85.4453533 104.285767,85.52177 C104.222948,85.7203076 104.160128,85.9188453 104.081605,86.1094415 C104.003081,86.3000376 103.908852,86.6256394 103.814623,86.9035922 C103.720394,87.1815449 103.571199,87.5230297 103.437708,87.8327485 C103.437708,87.8327485 103.437708,87.8327485 103.437708,87.8327485 C103.296365,88.1583503 103.155022,88.4760106 103.005827,88.7857293 C103.011216,88.8011448 103.011216,88.8179629 103.005827,88.8333784 C102.888041,89.0954481 102.762403,89.3495763 102.628912,89.6275291 C102.161913,90.5395664 101.637335,91.4202482 101.058434,92.2641094 C100.909238,92.4864716 100.760043,92.7088338 100.602995,92.915313 L100.555881,92.994728 L100.123999,93.5665165 L99.9826559,93.7571127 C99.8413129,93.9397674 99.6999698,94.1144805 99.5507744,94.2812522 C99.4015789,94.4480238 99.1110404,94.8133331 98.8833211,95.0754029 C98.6556017,95.3374726 98.5849302,95.4089462 98.4357347,95.5677763 L98.3493584,95.6551329 C98.2315725,95.782197 98.0980819,95.9092611 97.9724436,96.0283837 C97.8862309,96.1314579 97.791675,96.2270869 97.6897575,96.314278 L97.2971379,96.6875288 C97.1872044,96.7907684 97.0851233,96.894008 96.9673374,96.9893061 C96.8495516,97.0846041 96.7710276,97.1719607 96.6689465,97.2593173 C96.1114267,97.6722757 95.5539069,98.101117 95.0120918,98.5140754 Z" id="Path" fill="#FFAB11" fill-rule="nonzero"></path>
                        <path d="M95.0088747,98.5514603 C93.0269652,99.985463 90.8439662,101.116475 88.5311856,101.907552 C85.6417107,102.898023 82.5903319,103.32585 79.5409383,103.168055 C78.8547909,103.135041 78.1707874,103.066674 77.491633,102.963224 C71.5878321,102.109299 66.1927567,99.1367872 62.3063594,94.5966297 C61.8588099,94.0687938 61.426964,93.5173234 61.0108215,92.9579748 C57.3613192,87.8825679 55.6125214,81.6784257 56.0720743,75.4369723 C56.1270365,74.7200608 56.205554,74.0110274 56.3154784,73.301994 C56.595702,71.4897502 57.066828,69.7124649 57.7209406,68 C58.3782525,69.8657824 59.1437969,71.69138 60.01365,73.4674351 C60.3983855,74.25525 60.7988244,75.0430649 61.2149669,75.7520982 C63.3606179,79.7325463 66.384648,83.1682517 70.0560311,85.7967377 C70.664058,86.217205 71.2930104,86.6063633 71.9404497,86.9627037 C73.9571747,88.0978226 76.1330382,88.9211632 78.3945836,89.4049298 C79.1012406,89.5703709 79.8000459,89.6885431 80.4988511,89.7830809 C82.8229597,90.0806176 85.1741308,90.0991306 87.5026071,89.838228 C87.8559356,89.838228 88.2014124,89.7673246 88.5468891,89.7121776 C89.3268291,89.6071356 90.0884483,89.4810852 90.8317467,89.3340264 C95.7503866,88.3129017 100.469,86.4899001 104.8,83.9374946 C104.729334,84.2132298 104.650817,84.4889651 104.572299,84.7253095 C104.493782,84.961654 104.43882,85.1822421 104.368154,85.4028303 C104.350298,85.484152 104.323981,85.5633677 104.289637,85.6391747 C104.226823,85.8361285 104.164009,86.0330822 104.085491,86.2221577 C104.006974,86.4112333 103.912753,86.7342374 103.818532,87.0099726 C103.724311,87.2857078 103.575128,87.6244682 103.441648,87.931716 C103.441648,87.931716 103.441648,87.931716 103.441648,87.931716 C103.300317,88.2547201 103.158985,88.569846 103.009802,88.8770938 C103.015191,88.8923863 103.015191,88.9090702 103.009802,88.9243627 C102.892026,89.1843416 102.766398,89.4364424 102.632919,89.7121776 C102.165958,90.6169385 101.641423,91.4905941 101.06257,92.3277229 C100.913387,92.5483111 100.764203,92.7688992 100.607168,92.9737311 L100.560058,93.0525126 L100.128212,93.6197393 L99.9868807,93.8088149 C99.8455493,93.9900123 99.7042179,94.1633316 99.5550347,94.3287727 C99.4058516,94.4942138 99.1153371,94.8566086 98.8876365,95.1165875 C98.6599359,95.3765664 98.5971219,95.4395916 98.440087,95.5971546 C98.4153594,95.6321742 98.3863422,95.6639358 98.3537179,95.6916924 C98.2359417,95.8177428 98.102462,95.9437931 97.9768341,96.0619654 C97.8906285,96.1642172 97.7960804,96.2590832 97.6941713,96.3455787 L97.3015841,96.7158517 C97.1916597,96.8182676 97.089587,96.9206836 96.9718108,97.0152213 C96.8540347,97.1097591 96.7755172,97.1964188 96.6734446,97.2830784 C96.108119,97.7163766 95.5506451,98.1417966 95.0088747,98.5514603 Z" id="Path" fill="#811118" fill-rule="nonzero" opacity="0.2"></path>
                        <path d="M95.0297952,98.5417124 C93.0468228,99.9787222 90.862653,101.112106 88.5486321,101.904841 C85.6576075,102.89739 82.6045923,103.326114 79.5535633,103.167988 C78.8670479,103.134905 78.1826775,103.066394 77.503159,102.962727 C71.5961918,102.107012 66.1982231,99.1282666 62.3097415,94.5785885 C61.861952,94.0496457 61.4298745,93.4970189 61.0135088,92.9364974 C57.3620493,87.8504474 55.6123136,81.6332951 56.072113,75.3787534 C56.1271047,74.6603386 56.2056642,73.9498183 56.3156476,73.2392981 C57.2629693,67.1201271 60.3220172,61.5308129 64.9571984,57.4499601 C65.4756914,56.9999639 66.0098964,56.5736518 66.5755252,56.163129 C68.5538781,54.7185747 70.7392209,53.5845822 73.0566883,52.8 C72.3157494,56.5005581 72.0752809,60.2846926 72.3417964,64.0499034 C72.4511076,65.5004574 72.6505137,66.9427294 72.938849,68.3682873 C73.7715663,72.4259568 75.3717167,76.2852428 77.6524221,79.7366107 C78.029508,80.3287109 78.4380176,80.8971271 78.8543833,81.4497539 C81.2884114,84.6679322 84.2034336,87.4881332 87.4959341,89.8102084 C88.2815296,90.3549406 88.9964215,90.8523047 89.7270254,91.3023009 C91.1190364,92.1682754 92.5561069,92.9588698 94.0320889,93.6707016 C95.4101394,94.3581187 96.8326627,94.9515597 98.2900166,95.4470021 L98.4,95.5417381 L98.4,95.5417381 L98.3135845,95.6285795 C98.1957452,95.7548942 98.0621939,95.8812089 97.9364986,95.9996289 C97.8502468,96.1020952 97.755648,96.1971602 97.6536842,96.283837 L97.2608865,96.6548865 C97.1509031,96.7575172 97.0487757,96.8601479 96.9309364,96.9548839 C96.813097,97.0496199 96.7345375,97.1364613 96.6324101,97.2233026 C96.1296289,97.7048775 95.5718561,98.1311896 95.0297952,98.5417124 Z" id="Path" fill="#811118" fill-rule="nonzero" opacity="0.2"></path>
                        <path d="M89.6475525,72.4241789 C89.0351304,72.0351087 88.4306618,71.630158 87.8421003,71.1616857 C86.5669977,70.216886 85.384575,69.153425 84.3107313,67.9856021 C83.3212082,66.8807162 82.4545173,65.6720439 81.7258328,64.3807471 C79.3069321,60.2830511 79.4396741,55.167178 82.0678348,51.2 C82.4496044,51.2 82.8631882,51.2555815 83.2210972,51.3032227 C83.9051011,51.3826248 84.589105,51.4858475 85.2731089,51.6287713 C91.3345692,52.8819583 96.7173044,56.3296222 100.384823,61.3078862 C100.798407,61.871641 101.180177,62.4592165 101.5699,63.0547322 C102.737176,64.9261313 103.661869,66.9378377 104.321822,69.0416499 C107.049884,77.894983 97.5613186,77.4582715 89.6475525,72.4241789 Z" id="Path" fill="#FFFFFF" fill-rule="nonzero" opacity="0.1"></path>
                        <path d="M105.23663,82.3092581 C105.386718,81.6107909 105.505208,80.9044758 105.6,80.1981606 C100.070457,80.0255058 92.17111,78.8483139 87.7553751,73.8727161 L101.84781,62.8149601 C101.476541,62.2263642 101.057875,61.6456162 100.670807,61.088412 L86.5151776,72.1932557 L86.5151776,72.1932557 C85.6697984,70.7984555 85.0563093,69.2773627 84.6983278,67.6885346 C83.4028348,62.1949724 84.5403408,55.7675046 85.6541487,51.5217658 C84.9748049,51.3805028 84.2954611,51.2784795 83.6161172,51.2 C83.1719967,52.8756077 82.8160437,54.5730644 82.5497054,56.285469 C82.1292362,58.8791738 81.9888846,61.5100852 82.13104,64.1334151 C82.2499087,67.4278185 83.1948066,70.6406078 84.8800127,73.4803188 L81.6333811,76.0230533 L66.6246218,55.6811772 C66.0558688,56.0892704 65.5187132,56.5130595 64.9973563,56.9603924 L80.0061156,77.3022685 L76.759484,79.8450031 L76.759484,79.8450031 C72.5649307,74.9400368 65.5977066,73.2841202 59.9654722,72.7818516 C58.6304826,72.6719804 57.3744864,72.6248927 56.2448798,72.6170448 C56.1342889,73.3233599 56.0552954,74.029675 56,74.7438381 C57.7291998,74.7535495 59.4565329,74.8583491 61.1740723,75.057756 C66.0953655,75.630656 71.7118012,77.2002452 75.1322185,81.0928265 L60.9607899,92.2290619 C61.3794553,92.7862661 61.8139194,93.3356223 62.2641822,93.8614347 L76.3645166,82.8036787 C77.4400168,84.6114768 78.1485091,86.6111423 78.4499443,88.6896383 C79.239879,93.3277744 78.4499443,98.3975475 77.5415194,102.195953 C78.2274057,102.299275 78.9181997,102.367381 79.6111483,102.4 C79.8797261,101.262048 80.1246058,100.045616 80.3220895,98.7114654 C80.8619445,95.5240612 80.9443909,92.2767304 80.5669693,89.0663397 C80.2687063,86.3967116 79.3900343,83.8233704 77.9917821,81.5244635 L77.9917821,81.5244635 L81.2463131,78.9738811 L95.1728619,97.8089516 C95.7337156,97.4008584 96.2787705,96.9770693 96.8001274,96.5297364 L82.8735786,77.6946658 L86.1202102,75.1440834 C90.9151139,80.7475169 99.3200191,82.1130595 105.23663,82.3092581 Z" id="Path" fill="#FFFFFF" fill-rule="nonzero"></path>
                        <path d="M20.0244439,12.0333509 C18.6465747,13.5524333 75.9786033,50.6164694 75.9390093,51.6003311 C75.8994154,52.5841927 76.7863197,55.29178 77.3089597,56.7164117 C77.8315998,58.1410433 78.5284531,61.0139194 79.470789,62.8163539 C79.9538351,63.7529902 81.3158667,64.9729787 81.7751564,66.4133521 C82.2344461,67.8537256 84.150793,71.135888 84.7684585,72.4109727 C85.386124,73.6860574 85.196073,75.0083675 86.431404,74.5046303 C87.666735,74.0008932 87.8726235,71.6711088 87.7934356,70.3881532 C87.6588162,68.2079158 86.3838913,65.9489694 85.7662258,64.2803401 C85.1485603,62.6117107 84.784296,61.8561049 86.8035871,62.3283585 C88.8228781,62.8006121 92.7268409,67.8852091 94.0096846,69.3413244 C95.2925283,70.7974396 98.5075564,74.7014027 99.3707044,75.7403606 C100.233852,76.7793185 101.611722,78.6053657 103.100454,76.9052528 C104.589186,75.2051398 101.643397,72.2929093 101.073244,71.3956275 C100.503091,70.4983457 98.9193334,68.5857186 98.2303988,67.6175988 C97.5414643,66.6494789 94.0730349,62.5408727 94.6431877,61.5648819 C95.2133404,60.5888911 98.2303988,63.4538963 99.3944608,64.3196945 C100.558523,65.1854928 103.116291,66.9092184 104.066546,67.4680518 C105.016801,68.0268852 106.545127,69.0422304 107.479544,69.7348691 C108.413961,70.4275077 109.783911,70.7108598 110.496602,69.223261 C111.011478,68.2588672 110.694346,67.0631094 109.768074,66.4763193 C109.277109,66.0827746 107.392437,64.7368519 106.553046,64.1150513 C105.713654,63.4932507 103.607256,61.7537833 102.419438,60.7384381 C101.23162,59.7230929 98.3966934,57.5900808 97.4781139,56.984022 C96.5595345,56.3779633 96.6466412,55.2288129 97.4781139,55.2524255 C99.9766988,55.6747694 102.450868,56.2291414 104.8901,56.913184 C105.927461,57.2673742 108.208072,58.1725269 110.029394,58.6132969 C111.850715,59.054067 112.603,58.3692992 112.753457,57.2909869 C112.942072,56.3942677 112.546586,55.4759996 111.763608,54.9926861 C111.090511,54.6542376 107.63792,53.670376 106.26005,53.0485754 C104.399567,52.2899005 102.495765,51.6407408 100.558523,51.1044648 C99.2598414,50.7581455 97.6760837,49.908089 97.6919212,49.2311922 C97.7077588,48.5542954 99.3390292,48.5149409 100.582279,48.3181686 C102.752387,48.0432761 104.935903,47.8856265 107.123198,47.845915 C109.00787,47.845915 109.578023,46.7597317 109.633454,45.9883842 C109.688886,45.2170367 109.079139,44.2961422 107.693351,44.0206609 C105.657376,43.8315993 103.608102,43.8315993 101.572128,44.0206609 C100.273446,44.1151116 96.5753721,44.0836281 96.5753721,44.0836281 C95.6769846,43.5315903 94.7143836,43.0902034 93.7087706,42.7691889 C92.1013159,42.253005 90.5366119,41.6135407 89.0287666,40.8565618 C87.2543457,40.2168631 85.4328933,39.7142567 83.5806402,39.3532212 C82.3940687,39.0023756 81.2770667,38.4512463 80.2785054,37.7239463 C79.6212459,37.2753054 31.6967381,4.8 31.6967381,4.8 C27.2395171,6.1616096 23.2164499,8.6547147 20.0244439,12.0333509 Z" id="Path" fill="#EBBD8B" fill-rule="nonzero"></path>
                        <path d="M76.8,108.780499 C76.8,108.780499 91.5259356,116.419055 106.411243,98.5177036 C121.29655,80.6163525 98.6896889,110.637653 76.8,108.780499 Z" id="Path" fill="#3D9A8F" fill-rule="nonzero"></path>
                        <path d="M88,114.387937 C88,114.387937 106.360036,115.387038 114.4,99.2 C114.4,99.2 103.07096,113.61444 88,114.387937 Z" id="Path" fill="#3D9A8F" fill-rule="nonzero"></path>
                    </g>
                </g>
            </g>
        </g>
    </g>
</svg>