<?xml version="1.0" encoding="UTF-8"?>
<svg width="311px" height="366px" viewBox="0 0 311 366" version="1.1" xmlns="http://www.w3.org/2000/svg" xmlns:xlink="http://www.w3.org/1999/xlink">
    <!-- Generator: Sketch 63.1 (92452) - https://sketch.com -->
    <title>ejercicios@2x</title>
    <desc>Created with Sketch.</desc>
    <defs>
        <rect id="path-1" x="0" y="0" width="255" height="310" rx="8"></rect>
        <filter x="-16.9%" y="-13.2%" width="133.7%" height="127.7%" filterUnits="objectBoundingBox" id="filter-3">
            <feOffset dx="0" dy="2" in="SourceAlpha" result="shadowOffsetOuter1"></feOffset>
            <feGaussianBlur stdDeviation="14" in="shadowOffsetOuter1" result="shadowBlurOuter1"></feGaussianBlur>
            <feColorMatrix values="0 0 0 0 0   0 0 0 0 0   0 0 0 0 0  0 0 0 0.06 0" type="matrix" in="shadowBlurOuter1"></feColorMatrix>
        </filter>
        <path d="M3.00025,7.99927241 C2.74425,7.99927241 2.48825,7.90127241 2.29325,7.70627241 C1.90225,7.31527241 1.90225,6.68327241 2.29325,6.29227241 L5.59825,2.98727241 L2.41825,-0.305727588 C2.03525,-0.703727588 2.04625,-1.33672759 2.44325,-1.71972759 C2.84125,-2.10272759 3.47425,-2.09172759 3.85725,-1.69572759 L7.71925,2.30427241 C8.09825,2.69727241 8.09325,3.32027241 7.70725,3.70627241 L3.70725,7.70627241 C3.51225,7.90127241 3.25625,7.99927241 3.00025,7.99927241" id="path-4"></path>
    </defs>
    <g id="Screens" stroke="none" stroke-width="1" fill="none" fill-rule="evenodd">
        <g id="Materias-" transform="translate(-422.000000, -399.000000)">
            <g id="Ficha-de-repaso" transform="translate(450.000000, 425.000000)">
                <g id="Group">
                    <mask id="mask-2" fill="white">
                        <use xlink:href="#path-1"></use>
                    </mask>
                    <g id="Mask">
                        <use fill="black" fill-opacity="1" filter="url(#filter-3)" xlink:href="#path-1"></use>
                        <use fill="#FFFFFF" fill-rule="evenodd" xlink:href="#path-1"></use>
                    </g>
                    <rect id="Rectangle" fill="#E4E9F2" fill-rule="nonzero" opacity="0.497465588" mask="url(#mask-2)" x="0" y="0" width="255" height="88"></rect>
                    <g id="atomo/-button/-primario/-228x48px/-active-copy-2" mask="url(#mask-2)">
                        <g transform="translate(27.000000, 232.000000)" id="Group">
                            <g>
                                <rect id="Rectangle" fill="#95C11F" x="0" y="0" width="200" height="48" rx="24"></rect>
                                <g id="Group-2" transform="translate(30.225131, 14.000000)">
                                    <g id="Group-3">
                                        <text id="Ver-actividades" font-family="Montserrat-Medium, Montserrat" font-size="16" font-weight="400" line-spacing="20" fill="#FFFFFF">
                                            <tspan x="0.410429319" y="15">Ver actividades</tspan>
                                        </text>
                                        <g id="Arrow_down" transform="translate(140.596859, 11.000000) rotate(-90.000000) translate(-140.596859, -11.000000) translate(135.596859, 8.000000)">
                                            <mask id="mask-5" fill="white">
                                                <use xlink:href="#path-4"></use>
                                            </mask>
                                            <use id="🎨-Icon-Сolor" fill="#FFFFFF" fill-rule="nonzero" transform="translate(5.000080, 2.999636) rotate(-270.000000) translate(-5.000080, -2.999636) " xlink:href="#path-4"></use>
                                        </g>
                                    </g>
                                </g>
                            </g>
                        </g>
                    </g>
                    <text id="Fichas-de-repaso" font-family="Montserrat-Medium, Montserrat" font-size="20" font-weight="400" letter-spacing="0.416666667" fill="#333E53">
                        <tspan x="22.8033333" y="196">Ejercicios de repaso</tspan>
                    </text>
                </g>
                <g id="icono_01--copy-4" transform="translate(74.000000, 24.000000)">
                    <g id="repaso" transform="translate(-11.200000, 0.000000)">
                        <path d="M121.6,53.991202 C121.603239,75.8333014 108.447941,95.5263378 88.2690921,103.886444 C68.0902431,112.24655 44.8622778,107.627116 29.4175811,92.1824189 C13.9728843,76.7377222 9.35345005,53.5097569 17.7135561,33.3309079 C26.0736622,13.152059 45.7666986,-0.00323886789 67.608798,0 C97.4254832,0.00442279848 121.595577,24.1745168 121.6,53.991202" id="Path" fill="#81C41D" fill-rule="nonzero"></path>
                        <path d="M129.438503,51.5308207 C129.334823,51.3699306 129.207216,51.2251295 129.103536,51.0722838 C129.319689,50.7549025 129.436383,50.3793675 129.438503,49.9943198 C129.425955,49.4288851 129.191158,48.8916549 128.785797,48.500887 C128.380436,48.1101191 127.83774,47.8978453 127.277168,47.9107925 C126.9514,47.9120581 126.629971,47.9862427 126.336071,48.1279942 C123.356479,46.0060522 119.848307,44.7661601 116.207307,44.5481884 C113.232481,40.6144244 109.428213,38.008004 105.241125,37.3644434 C104.893947,36.5373462 104.089882,36 103.199422,36 C102.308961,36 101.504896,36.5373462 101.157718,37.3644434 C96.9706305,38.008004 93.1823132,40.5822463 90.1915364,44.5481884 C84.2817615,45.0791259 79.4486663,47.4200775 76.9523646,51.4986427 C74.4560629,55.5772079 74.7192513,60.701559 77.1836513,65.8017766 C74.7192513,70.9019943 74.4480875,76.0183009 76.9523646,80.0968661 C79.4566417,84.1754313 84.2817615,86.5324719 90.1915364,87.0553649 C93.6448867,91.6166005 98.1669412,94.4 103.199422,94.4 C108.231902,94.4 112.769907,91.6166005 116.207307,87.0553649 C117.571631,86.9322496 118.92387,86.6981981 120.250837,86.3554927 C120.671441,86.9503908 121.352819,87.3015344 122.077205,87.2967001 C122.702286,87.3397672 123.311947,87.0886672 123.728486,86.6165904 C124.145026,86.1445136 124.321562,85.5045916 124.206638,84.8833479 C126.351112,83.8081174 128.165165,82.1646602 129.454454,80.1290441 C131.950756,76.0504789 131.679592,70.9341723 129.215192,65.8339547 C131.663641,60.7337371 131.934805,55.6174304 129.438503,51.5308207 Z M125.187612,49.4312043 C125.127492,49.6129046 125.095218,49.8027964 125.091908,49.9943198 C125.110594,50.5591308 125.351687,51.0931378 125.761823,51.478141 C126.17196,51.8631442 126.717312,52.0673899 127.277168,52.0456692 C127.396646,52.0543269 127.516585,52.0543269 127.636062,52.0456692 C127.723791,52.1663368 127.819496,52.2789599 127.89925,52.407672 C129.917027,55.70592 129.87715,59.7764407 128.178389,63.9434955 C126.356913,60.9296777 124.086613,58.2164416 121.447148,55.8989882 C120.62432,52.5368489 119.278389,49.3274998 117.459445,46.3903806 C120.247543,46.7342911 122.905111,47.7799721 125.187612,49.4312043 Z M122.061254,58.8674114 C124.127551,60.9204715 125.884813,63.2675269 127.277168,65.8339547 C125.889702,68.3993384 124.137856,70.746338 122.077205,72.800498 C122.86478,68.1901054 122.86478,63.4778039 122.077205,58.8674114 L122.061254,58.8674114 Z M120.896917,65.8339547 C120.902695,68.8837811 120.554729,71.9238233 119.860042,74.8920699 C117.459296,76.9634353 114.844213,78.7677797 112.060096,80.2738452 C109.250552,81.8107107 106.288715,83.0456158 103.223348,83.9582296 C100.157981,83.0456158 97.1961438,81.8107107 94.3865993,80.2738452 C91.6024823,78.7677797 88.9873994,76.9634353 86.5866535,74.8920699 C85.2043138,68.9310945 85.2043138,62.7287704 86.5866535,56.767795 C88.9876341,54.6990349 91.6027245,52.8973824 94.3865993,51.3940641 C97.1975233,49.8580337 100.158989,48.6205875 103.223348,47.7016353 C106.287707,48.6205875 109.249172,49.8580337 112.060096,51.3940641 C114.829729,52.8973159 117.43133,54.6961888 119.820165,56.7597505 C120.528866,59.7317465 120.890218,62.7772057 120.896917,65.8339547 L120.896917,65.8339547 Z M119.054526,53.8878614 C115.17728,50.9261693 110.874051,48.5795785 106.293879,46.9293626 C109.242983,46.2534842 112.269144,45.9828831 115.290135,46.1249119 C116.904998,48.5127802 118.160135,51.1288434 119.014649,53.8878614 L119.054526,53.8878614 Z M101.309251,39.0618345 C101.720868,39.7027468 102.42639,40.089654 103.183471,40.089654 C103.940551,40.089654 104.646073,39.7027468 105.057691,39.0618345 C108.545202,39.737142 111.682127,41.6384556 113.91039,44.4275208 C110.283329,44.4149109 106.672464,44.9158758 103.183471,45.9157547 C99.6944771,44.9158758 96.083613,44.4149109 92.4565514,44.4275208 C94.6861972,41.6400567 97.822492,39.7391253 101.309251,39.0618345 Z M91.1406096,46.1249119 C91.6909125,46.1249119 92.2491909,46.0686003 92.82342,46.0686003 C95.2824455,46.0775464 97.733728,46.3471779 100.136866,46.873051 C95.556694,48.5232669 91.2534644,50.8698578 87.3762186,53.8315498 C88.2494891,51.1003722 89.5179793,48.5143026 91.1406096,46.1570899 L91.1406096,46.1249119 Z M78.4836423,52.375494 C80.4934443,49.0852905 84.2578353,47.0822082 88.9314225,46.3903806 C87.1110895,49.3238851 85.7650326,52.5308192 84.9437201,55.8909437 C82.3042551,58.2083971 80.0339547,60.9216332 78.2124785,63.935451 C76.5057419,59.7442627 76.4658649,55.673742 78.4836423,52.375494 Z M84.3056878,72.800498 C82.2450364,70.746338 80.49319,68.3993384 79.1057239,65.8339547 C80.49319,63.268571 82.2450364,60.9215713 84.3056878,58.8674114 C83.5181126,63.4778039 83.5181126,68.1901054 84.3056878,72.800498 Z M78.4836423,79.2843708 C76.4658649,75.9941674 76.5057419,71.9236467 78.2045031,67.7565919 C80.0282337,70.7687711 82.2982598,73.4816795 84.9357447,75.8010992 C85.7570572,79.1612237 87.1031141,82.3681577 88.9234471,85.3016623 C84.2578353,84.5857011 80.5014197,82.5826188 78.4836423,79.2843708 Z M87.3522924,77.7720035 C89.2786335,79.2549475 91.3187861,80.5811042 93.453477,81.7379456 C95.602825,82.9072126 97.8370347,83.9102924 100.136866,84.7385468 C97.1871458,85.4104661 94.1615165,85.6810198 91.1406096,85.5429975 C89.5003089,83.1579492 88.2233748,80.5385678 87.3522924,77.7720035 Z M103.183471,92.7428315 C99.1957684,92.7428315 95.4393528,90.6753931 92.4565514,87.200166 L92.8872232,87.200166 C96.3696671,87.1758542 99.8329571,86.6779713 103.183471,85.7199767 C106.533246,86.6834115 109.99655,87.186708 113.479718,87.216255 L113.91039,87.216255 C110.927589,90.6753931 107.21105,92.7428315 103.183471,92.7428315 Z M115.226332,85.502775 C112.205425,85.6407972 109.179796,85.3702436 106.230075,84.6983242 C108.529907,83.8700698 110.764116,82.8669901 112.913465,81.697723 C115.048155,80.5408817 117.088308,79.2147249 119.014649,77.7317809 C118.140976,80.4998002 116.864253,83.1214593 115.226332,85.5108195 L115.226332,85.502775 Z M127.883299,79.2843708 C126.724738,81.1095379 125.084027,82.5722253 123.145909,83.5077372 C122.812448,83.3262825 122.44013,83.2296351 122.061254,83.2261794 C121.114251,83.2091706 120.268246,83.8205634 119.979673,84.7305023 C119.143773,84.9662285 118.294059,85.1489282 117.435519,85.2775288 C119.255852,82.3440242 120.601909,79.1370902 121.423221,75.7769657 C124.060706,73.457546 126.330732,70.7446376 128.154463,67.7324584 C129.8612,71.9236467 129.901077,75.9941674 127.883299,79.2843708 Z M110.472991,65.8339547 C110.472991,69.6309621 107.21105,72.7120084 103.183471,72.7120084 C99.1558914,72.7120084 95.8939508,69.6309621 95.8939508,65.8339547 C95.8939508,62.0369472 99.1558914,58.9478564 103.183471,58.9478564 C107.21105,58.9478564 110.472991,62.0289027 110.472991,65.8339547 Z" id="Shape" fill="#47AB3D" fill-rule="nonzero" opacity="0.8" style="mix-blend-mode: multiply;"></path>
                        <path d="M7.07256297,33.9176936 C5.17434711,33.4098217 3.24279278,33.0363347 1.29221195,32.8 C-0.111018087,32.8 -0.206692862,33.9017266 0.231816525,35.0114367 C0.670325913,36.1211468 21.1606737,81.6911136 23.0024131,83.2 C23.0024131,83.2 34.5471693,74.8332647 40.3594119,74.2983684 C46.1716546,73.7634722 52.8449701,76.445937 54.0807693,78.2023127 C55.3165685,79.9586884 62.1732608,79.0485665 64.0229731,76.6056075 C65.8726854,74.1626485 67.7702351,65.1332805 73.6542338,61.9239031 C79.5382325,58.7145256 89.1455745,58.538888 89.9348914,58.1796293 C90.7242083,57.8203707 90.6444794,55.5051481 88.6273362,54.8584825 C86.610193,54.2118169 7.07256297,33.9176936 7.07256297,33.9176936 Z" id="Path" fill="#1C4189" fill-rule="nonzero"></path>
                        <path d="M54.1228732,78.3197755 C55.3413124,80.0712427 62.2059832,79.1636642 64.0535512,76.7275325 C65.9011192,74.2914009 67.7964692,65.2872672 73.6736467,62.0868589 C79.5508242,58.8864506 89.1470288,58.7113039 89.9354306,58.3530492 C90.7238325,57.9947946 90.6441959,55.6860424 88.6293912,55.041184 C88.1674992,54.8899209 83.6600703,53.7196224 76.9944909,52 C59.2673944,55.8373054 29.5311059,64.3876499 26.8234631,69.3952539 C24.1556386,74.259556 23.4229823,80.2065833 23.2,83.2 C24.5378941,82.2446542 34.9702824,74.928298 40.3935316,74.4426639 C46.2149635,73.8853789 52.8885066,76.5683082 54.1228732,78.3197755 Z" id="Path" fill="#0B2753" fill-rule="nonzero"></path>
                        <path d="M7.1967572,28.8 L7.1967572,32.0414961 C7.1967572,32.0414961 5.28375331,30.9209789 5.1076609,32.0414961 C5.20536905,32.6545856 5.34986676,33.259297 5.53988772,33.8503309 C5.53988772,33.8503309 3.93904765,32.1855626 3.50682083,32.3696475 C3.07459401,32.5537325 3.94705185,34.4986301 3.94705185,34.4986301 L2.44226218,33.7542866 C2.44226218,33.7542866 2.17812357,33.8423272 2.9705394,35.6911805 C3.76295524,37.5400339 22.9250109,80.2717562 23.9815654,80.8 C23.9815654,80.8 34.6911855,72.2280437 43.1916463,72.7082654 C51.6921071,73.188487 54.6616654,76.7101124 55.4540812,77.4544559 C56.2464971,78.1987994 62.3456977,76.5420348 62.9700254,75.7096506 C63.594353,74.8772664 65.8995627,62.6636294 75.7127124,59.1900262 C85.525862,55.716423 88.7035296,57.0930583 89.319853,56.788918 C89.9361764,56.4847776 89.319853,55.4923195 89.319853,55.4923195 C89.4971463,55.0517925 89.5921008,54.5824758 89.6,54.1076805 C89.4959454,53.7395105 87.6469751,54.0116361 87.6469751,54.0116361 C87.6469751,54.0116361 88.7035296,53.3633369 88.6154834,52.8991227 C88.5274372,52.4349084 87.1186979,52.5309527 87.1186979,52.5309527 C87.1186979,52.5309527 88.3513447,51.8826535 87.7350213,51.7305833 L87.1186979,51.5464984 L49.7630948,49.4255195 L7.1967572,28.8 Z" id="Path" fill="#DFDFD7" fill-rule="nonzero"></path>
                        <path d="M40.662848,33.1856694 C40.662848,33.1856694 24.6404166,23.223326 7.2,28.8808549 C7.2,28.8808549 25.545684,69.7328284 27.6045664,73.6 C27.6045664,73.6 44.748568,60.4070565 58.2474665,71.6504999 C58.2474665,71.6504999 67.5725215,51.2642989 87.2,51.495056 C87.2,51.495056 72.2190266,29.0320406 69.0626077,19.4675544 C69.0626077,19.4675544 48.4096936,16.10964 40.662848,33.1856694 Z" id="Path" fill="#FFFFFF" fill-rule="nonzero"></path>
                        <path d="M40.8,32.8 C40.8,32.8 42.2393458,35.0401324 44.1344843,38.5353744 C44.6062699,39.4012412 45.13403,40.3465453 45.6457974,41.3553993 C46.1575647,42.3642532 46.733303,43.4207695 47.2450704,44.532892 C47.7568378,45.6450145 48.3485688,46.7968556 48.9243071,47.9645842 L50.6755111,51.5313198 L52.2747842,55.1218866 C52.818537,56.3055027 53.2983189,57.5050062 53.7781009,58.6330161 C54.2578828,59.7610261 54.7136756,60.8810923 55.1214902,61.9376086 C55.5293049,62.9941249 55.9211268,63.9950352 56.2649705,64.9244518 C56.9686506,66.7832851 57.4884144,68.3482002 57.8642435,69.452379 C58.2400727,70.5565577 58.4,71.2 58.4,71.2 L57.4244434,69.6112536 C56.824716,68.6182871 55.9771013,67.2281341 55.0255338,65.4407944 C54.5377556,64.5749276 54.0259882,63.6296235 53.5062244,62.6207695 C52.9864607,61.6119156 52.4267151,60.5474555 51.9069514,59.4432768 C51.3871876,58.3390981 50.7874602,57.1952007 50.2437074,56.0195283 L48.5804634,52.444849 L46.9811904,48.8542822 C46.4774194,47.6547787 45.9736483,46.4711626 45.4938664,45.3431527 C45.0140845,44.2151427 44.5822808,43.0871328 44.1584734,42.0385602 C43.7346661,40.9899876 43.3588369,39.9731899 43.0149932,39.051717 C41.5516583,35.3578817 40.8,32.8 40.8,32.8 Z" id="Path" fill="#B4B2A8" fill-rule="nonzero"></path>
                        <path d="M7.2,28.5053776 C7.2,28.5053776 8.80588294,28.2357699 11.7125311,27.9820215 C15.6979127,27.6187841 19.7056271,27.5578115 23.7004472,27.7996399 C26.379534,27.9380968 29.0430999,28.2881186 31.6656266,28.846352 C34.6412173,29.4146135 37.5044036,30.4535449 40.1446885,31.9230513 L40.4819239,32.105433 L40.522071,32.105433 L40.522071,32.0499255 L40.6264533,31.8516846 L40.7629534,31.6137955 C40.9396005,31.29661 41.1323065,30.9873541 41.3330418,30.6860279 C41.7104243,30.0675162 42.1359833,29.4965823 42.5856305,28.9177187 C43.4803034,27.7866504 44.4628664,26.7261551 45.5243963,25.7458638 C47.9861652,23.48419 50.8535309,21.6958676 53.97937,20.4726549 C55.5403551,19.8599557 57.1523017,19.382381 58.7970188,19.0453201 L61.2700785,18.6567679 C61.6787358,18.5882987 62.0921481,18.5511828 62.5066084,18.545753 L63.7913147,18.4426677 C65.4215589,18.3630721 67.0554246,18.3948664 68.6812283,18.5378233 L69.0425519,18.5378233 L69.3235814,18.5378233 L69.4600815,18.5378233 C69.508258,18.5378233 69.5564345,18.5378233 69.5724933,18.6012604 L69.973964,19.3942242 L70.5279936,20.425077 L71.6119646,22.4709235 C73.0733181,25.1590706 74.4784657,27.7679213 75.8193779,30.2340386 C77.1602902,32.7001558 78.493173,34.991821 79.6895558,37.1328232 C82.0261155,41.4465459 84.2101163,44.8880086 85.6875286,47.3461962 L88,51.2 L85.4867932,47.4730704 C83.8809103,45.0941792 81.55238,41.7161536 79.0632615,37.4737976 C77.8026433,35.364514 76.4135546,33.0966377 75.0485541,30.662239 L70.728729,22.9863499 L69.6126404,20.9484331 L69.0505813,19.9175802 L68.9140813,19.6638318 L68.9140813,19.6638318 L68.6491106,19.6638318 C67.0677783,19.5394303 65.4798559,19.5182385 63.8956971,19.6003947 L62.6993143,19.6638318 C62.2976983,19.6676669 61.8972628,19.7074783 61.5029315,19.7827764 L59.0941071,20.1554694 C57.5163153,20.4911596 55.9693816,20.9553078 54.4691643,21.5431559 C51.4631864,22.6928917 48.699673,24.3841721 46.3193084,26.5308979 C45.2825547,27.4642529 44.3164388,28.4713696 43.4287191,29.5441601 C43.0192189,30.0992347 42.6257776,30.6384501 42.2162775,31.2252432 C42.0155421,31.5107102 41.838895,31.8041068 41.6622478,32.0975034 L41.5337772,32.3195332 L41.3892477,32.5891409 C41.2366889,32.8904671 41.08413,33.1917933 40.9396005,33.5089788 L39.6067177,32.7160151 C37.065085,31.2760625 34.3132798,30.2328854 31.4488324,29.6234565 C28.8709703,29.0229201 26.2515444,28.6120946 23.6121236,28.3943627 C19.650224,28.0496525 15.6692416,27.9701745 11.6964722,28.1564736 C8.84603001,28.3309256 7.2,28.5053776 7.2,28.5053776 Z" id="Path" fill="#B4B2A8" fill-rule="nonzero"></path>
                        <path d="M7.2,32 C7.2,32 7.84357542,32.8462019 8.68826816,34.1906348 C8.89743017,34.5306972 9.13072626,34.8865765 9.36402235,35.2819979 C9.59731844,35.6774194 9.84670391,36.0728408 10.0880447,36.5157128 L10.8281564,37.8522373 L11.5682682,39.2520291 C11.7693855,39.7344433 11.9785475,40.2247659 12.1877095,40.6992716 C12.3968715,41.1737773 12.5738547,41.6561915 12.750838,42.1148803 C12.9278212,42.5735692 13.1048045,43.0243496 13.2496089,43.4514048 C13.3944134,43.8784599 13.5472626,44.2896982 13.667933,44.6613944 C13.9253631,45.4126951 14.1023464,46.0532778 14.2230168,46.4961498 L14.4,47.2 L14.0058101,46.5831426 C13.7564246,46.1877211 13.4105028,45.6183143 13.0324022,44.9223725 C12.8393296,44.5744017 12.6382123,44.2027055 12.4290503,43.7993757 C12.2198883,43.3960458 12.0026816,43.0085328 11.7935196,42.5261186 C11.5843575,42.0437045 11.3510615,41.6324662 11.1499441,41.1579605 C10.9488268,40.6834547 10.7235754,40.208949 10.5063687,39.7344433 C10.289162,39.2599376 10.0478212,38.7933403 9.81452514,38.3346514 L9.17094972,36.9585848 C8.96178771,36.5157128 8.78480447,36.0728408 8.59977654,35.6616025 C8.4147486,35.2503642 8.25385475,34.8707596 8.10905028,34.491155 C7.51374302,33.0201873 7.2,32 7.2,32 Z" id="Path" fill="#B4B2A8" fill-rule="nonzero"></path>
                        <path d="M5.6,33.6 C5.91099511,33.8213689 6.2007463,34.0746841 6.46507177,34.3562897 C6.57990431,34.4782719 6.71770335,34.6083863 6.84019139,34.7628971 C6.9723747,34.9198805 7.09510633,35.085563 7.2076555,35.2589581 L7.56746411,35.8119441 C7.68229665,36.0071156 7.79712919,36.2022872 7.90430622,36.3974587 L8.17990431,37.0317662 C8.27015779,37.2355269 8.34939341,37.4445918 8.41722488,37.6579416 C8.49450437,37.8498116 8.55597857,38.0484375 8.60095694,38.2515883 C8.64688995,38.4467598 8.67751196,38.6337992 8.70813397,38.8127065 C8.75430211,39.0952008 8.78497584,39.3803067 8.8,39.666582 L8.8,40 L8.58564593,39.7479034 C8.40947334,39.533782 8.24584789,39.3083682 8.09569378,39.0729352 C8.00382775,38.931978 7.91196172,38.7774672 7.82009569,38.6094028 C7.72822967,38.4467598 7.61339713,38.2841169 7.5138756,38.0970775 C7.40535942,37.9183958 7.30570217,37.7338157 7.215311,37.5440915 L6.92440191,36.9504447 C6.83253589,36.7552732 6.73301435,36.5601017 6.63349282,36.3730623 L6.37320574,35.7875476 C6.28133971,35.6005083 6.2354067,35.3972046 6.15119617,35.2264295 C6.06367766,35.0629833 5.98445749,34.8946781 5.9138756,34.7222363 C5.78166672,34.3574948 5.67671677,33.9822549 5.6,33.6 L5.6,33.6 Z" id="Path" fill="#B4B2A8" fill-rule="nonzero"></path>
                        <path d="M4,35.2 C4,35.2 4.9237002,36.564231 6.17150574,38.6711204 L7.17623228,40.3824635 C7.51654288,40.9959638 7.89736664,41.6336813 8.26198515,42.3036882 C8.62660365,42.9736952 9.00742741,43.6679193 9.39635381,44.3782881 L10.5388251,46.5336117 L11.624578,48.6970077 C11.9891965,49.4154489 12.3295071,50.1258177 12.6698177,50.8119694 C13.0101283,51.4981211 13.326131,52.1762004 13.6178258,52.8139179 C13.9095206,53.4516354 14.1850101,54.048991 14.4280891,54.6140571 C14.9304524,55.7361169 15.3193788,56.6805846 15.5867657,57.3425191 L16,58.4 L15.3760972,57.4555324 C14.9871708,56.8501044 14.4361918,55.9863605 13.812289,54.9288796 C13.4881837,54.4041754 13.1559757,53.8310369 12.8075625,53.2256089 C12.4591492,52.6201809 12.0864281,51.9663187 11.7218096,51.2963118 C11.3571911,50.6263048 10.9682647,49.9401531 10.5955436,49.2217119 L9.46117488,47.0663883 L8.38352465,44.89492 L7.35449021,42.7718859 C7.01417961,42.0857342 6.70627954,41.4076548 6.40648211,40.7780097 L5.59621877,38.9778706 C4.5833896,36.7337509 4,35.2 4,35.2 Z" id="Path" fill="#B4B2A8" fill-rule="nonzero"></path>
                        <path d="M14.4,51.2 C14.4,51.2 15.2942116,52.646164 16.4918164,54.8588739 C16.7872255,55.4120514 17.1145709,56.0126441 17.4499002,56.6527494 C17.7852295,57.2928548 18.144511,57.9566678 18.4958084,58.6599934 L19.5736527,60.8252881 L20.6674651,63.0775107 C21.0506986,63.820349 21.4658683,64.5631874 21.8171657,65.2902206 C22.1684631,66.0172539 22.5596806,66.7521897 22.902994,67.4555153 C23.2463074,68.158841 23.5896208,68.838459 23.893014,69.4943694 C24.1964072,70.1502799 24.4918164,70.7587751 24.7473054,71.3356602 C25.2742515,72.4736253 25.6894212,73.4456371 25.9688623,74.1252552 C26.2483034,74.8048732 26.4,75.2 26.4,75.2 L25.7612774,74.2358907 C25.3620758,73.6194929 24.7952096,72.734409 24.1644711,71.6517616 C23.8291417,71.1143892 23.4858283,70.521699 23.1265469,69.8973987 C22.7672655,69.2730985 22.3760479,68.617188 22.0007984,67.9217649 C21.6255489,67.2263418 21.2023952,66.5230161 20.8271457,65.7959829 C20.4518962,65.0689496 20.0287425,64.3261113 19.645509,63.583273 C19.2622754,62.8404346 18.9349301,62.0580836 18.5836327,61.3073428 C18.2323353,60.5566019 17.9209581,59.8137636 17.5936128,59.0946329 C17.2662675,58.3755021 16.9788423,57.6721765 16.6994012,57.0083635 C16.4199601,56.3445505 16.156487,55.7123477 15.900998,55.1275601 C14.9429142,52.7963122 14.4,51.2 14.4,51.2 Z" id="Path" fill="#B4B2A8" fill-rule="nonzero"></path>
                        <path d="M24,76.8 C24,76.8 23.3771626,76.0044199 22.5716263,74.6917127 C22.3723183,74.3655249 22.1480969,74.0154696 21.9321799,73.641547 C21.716263,73.2676243 21.4754325,72.8459669 21.2512111,72.4640884 C21.0269896,72.0822099 20.7861592,71.6207735 20.5453287,71.1832044 L19.8560554,69.8466298 C19.6401384,69.3931492 19.415917,68.9476243 19.2,68.5020994 C18.984083,68.0565746 18.7847751,67.6110497 18.5937716,67.1814365 C18.4027682,66.7518232 18.2200692,66.3301657 18.0539792,65.9323757 C17.8878893,65.5345856 17.7384083,65.1367956 17.6055363,64.7946961 C17.3314879,64.0945856 17.1321799,63.4899448 16.999308,63.0682873 C16.866436,62.6466298 16.8,62.4 16.8,62.4 L17.2235294,62.9648619 C17.4809689,63.3308287 17.8463668,63.8559116 18.2449827,64.5003315 C18.4525952,64.8185635 18.6685121,65.1765746 18.8844291,65.5504972 C19.100346,65.9244199 19.3411765,66.3460773 19.5653979,66.7279558 C19.7896194,67.1098343 20.0387543,67.5712707 20.2629758,68.0088398 C20.4871972,68.4464088 20.7197232,68.8998895 20.9439446,69.3533702 L21.6,70.6979006 C21.799308,71.1513812 22.0069204,71.5969061 22.1979239,72.0265193 C22.3889273,72.4561326 22.5633218,72.8777901 22.7294118,73.2755801 C22.8955017,73.6733702 23.0449827,74.0711602 23.1861592,74.4053039 C23.7259516,75.7896133 24,76.8 24,76.8 Z" id="Path" fill="#B4B2A8" fill-rule="nonzero"></path>
                        <path d="M26.4,74.4 L26.7541176,74.0147958 C27.0689317,73.673299 27.4102504,73.3539968 27.7752941,73.0594895 C28.0058824,72.8822956 28.2447059,72.6819894 28.5164706,72.4893874 C28.7882353,72.2967853 29.0847059,72.1041832 29.3976471,71.9115811 C29.7105882,71.718979 30.0317647,71.5186729 30.3776471,71.349183 L31.4317647,70.8638258 L32.5682353,70.416989 C32.9116512,70.2876452 33.2637825,70.1795551 33.6223529,70.0934175 C33.9626758,69.9899303 34.3091428,69.9050421 34.66,69.8391827 C34.9976471,69.77755 35.3188235,69.7313255 35.6152941,69.6928051 C36.0896462,69.6271907 36.5687456,69.5962806 37.0482353,69.6003561 L37.6,69.6003561 L37.0976471,69.8160705 C36.7847059,69.954744 36.3235294,70.0934175 35.7964706,70.3168359 C35.5247059,70.424693 35.2364706,70.5402543 34.9317647,70.6404074 C34.6270588,70.7405604 34.3141176,70.9023462 33.9764706,71.0179074 L32.9635294,71.4185198 L31.9258824,71.8499484 L30.9211765,72.3044894 C30.5752941,72.4354588 30.2541176,72.6049486 29.9329412,72.7590303 C29.6117647,72.9131119 29.2823529,73.0286732 29.0023529,73.1827548 C28.7223529,73.3368365 28.4341176,73.4601018 28.1788235,73.5833672 C27.6517647,73.8144897 27.24,74.0456122 26.9188235,74.1842857 L26.4,74.4 Z" id="Path" fill="#B4B2A8" fill-rule="nonzero"></path>
                        <path d="M25.6,78.4 L26.0742464,77.8097707 C26.4842871,77.2856311 26.9329728,76.7924182 27.416605,76.3341974 C27.7140137,76.0470588 28.0435748,75.735992 28.3972501,75.4249252 C28.7700386,75.0917384 29.161875,74.7801547 29.5708091,74.4917248 C29.9968271,74.1966102 30.3746166,73.8536391 30.8890534,73.5824526 L32.3117927,72.736989 L33.8068747,72.0191426 C34.2944143,71.8012481 34.7966724,71.6173524 35.3099947,71.4687936 C35.7774866,71.2894357 36.2552439,71.1376261 36.7407721,71.0141575 C37.2069804,70.8945165 37.6490746,70.7988036 38.0590164,70.7110668 C38.7131435,70.5735536 39.3768558,70.4855635 40.0444209,70.4478564 L40.8,70.4 L40.0926494,70.6791625 C39.6505553,70.8705882 38.9914331,71.0380857 38.2438921,71.3651047 C37.8741407,71.5246261 37.4400846,71.6841476 37.0301428,71.843669 C36.620201,72.0031904 36.1620307,72.2424726 35.7038604,72.4259222 C35.2456901,72.6093719 34.7634056,72.8327019 34.2971973,73.0799601 L32.8664199,73.7818544 L31.4758329,74.5794616 C31.0204113,74.8228714 30.5777466,75.0890836 30.1495505,75.3770688 C29.7315706,75.6562313 29.2814384,75.8636092 28.9116869,76.174676 C28.5419355,76.4857428 28.172184,76.6771685 27.8345849,76.9004985 C27.1433104,77.3391825 26.6288736,77.7858425 26.2269699,78.0490528 L25.6,78.4 Z" id="Path" fill="#B4B2A8" fill-rule="nonzero"></path>
                        <path d="M57.6,75.2 L57.2818966,74.8956298 C57.0724138,74.714653 56.8318966,74.4102828 56.5060345,74.0730077 C56.3431034,73.9084833 56.1646552,73.7357326 55.9939655,73.5465296 C55.8232759,73.3573265 55.5982759,73.1845758 55.412069,72.9789203 C55.2161538,72.7689256 55.0089088,72.5711637 54.7913793,72.3866324 L54.1318966,71.8107969 C53.9068966,71.6215938 53.6818966,71.4241645 53.4568966,71.2431877 C53.2318966,71.0622108 53.0146552,70.8730077 52.8051724,70.7002571 C52.5956897,70.5275064 52.3862069,70.3383033 52.1767241,70.1902314 L51.6103448,69.7706941 C51.2612069,69.4745501 50.9431034,69.2688946 50.7336207,69.0879177 L50.4,68.8 L50.8267241,68.8575835 C51.1966342,68.9124525 51.5604893,69.006143 51.912931,69.1372751 C52.137931,69.2195373 52.3706897,69.3100257 52.6189655,69.4251928 C52.8715209,69.5231354 53.1177399,69.6385507 53.3560345,69.7706941 C53.6286632,69.9122993 53.8883852,70.0802781 54.1318966,70.2724936 L54.9077586,70.8647815 L55.5827586,71.5475578 C55.8,71.7696658 55.9784483,72.0246787 56.1724138,72.2632391 C56.3522059,72.4902867 56.5180643,72.7293388 56.6689655,72.9789203 C56.8163793,73.2092545 56.9327586,73.4478149 57.0491379,73.6534704 C57.2326697,73.9998482 57.3858958,74.3633199 57.5068966,74.7393316 C57.5534483,75.0437018 57.6,75.2 57.6,75.2 Z" id="Path" fill="#B4B2A8" fill-rule="nonzero"></path>
                        <path d="M55.9469454,75.2 C55.7455462,75.1132254 55.5548806,75.0083619 55.377989,74.8870814 L55.1735202,74.7306222 C55.1201806,74.6680385 55.0135012,74.6289236 54.9512716,74.5663399 L54.729023,74.3942347 L54.5423341,74.1908377 L54.3378654,74.0030865 C54.2710004,73.9425943 54.2141401,73.8741241 54.1689565,73.7996895 C54.1067269,73.7292828 54.0711671,73.6432302 54.0178274,73.5806465 C53.9593195,73.5178054 53.9086524,73.4496151 53.8666983,73.3772494 C53.7869147,73.2529018 53.7213986,73.1218728 53.6711196,72.9861012 L53.6,72.813996 L53.7955788,72.813996 C53.9608469,72.7953347 54.1281476,72.7953347 54.2934157,72.813996 L54.6134537,72.8844027 C54.725064,72.9127145 54.8303128,72.9576998 54.9246018,73.0173931 C55.0309987,73.075545 55.1320601,73.1409361 55.2268599,73.2129672 L55.5113381,73.4398331 L55.7158069,73.7683976 C55.7691465,73.8700961 55.8224862,73.9717947 55.8847158,74.0656702 C55.9335204,74.1579766 55.9693448,74.2551779 55.9913952,74.3551199 C55.9913952,74.4568184 55.9913952,74.550694 55.9913952,74.6367466 C56.0114324,74.8253761 55.9964193,75.0156183 55.9469454,75.2 Z" id="Path" fill="#B4B2A8" fill-rule="nonzero"></path>
                        <path d="M46.4,70.4065597 C46.5403622,70.3978134 46.681109,70.3978134 46.8214712,70.4065597 C47.1890334,70.3951259 47.5567642,70.4225827 47.9188867,70.4884989 C48.1415507,70.4884989 48.3801193,70.570438 48.6345924,70.6359893 C48.9043118,70.7010413 49.16989,70.7831356 49.4298211,70.8818068 C49.7001988,70.9883277 49.9785288,71.0866547 50.2250497,71.2177573 L51.0202783,71.6438409 L51.815507,72.1600575 C52.0622547,72.3234792 52.2938515,72.5099977 52.5073559,72.7172437 C52.7210942,72.8942406 52.9205547,73.0888006 53.1037773,73.2990117 C53.2866799,73.4956657 53.4457256,73.6923196 53.5888668,73.8725858 C53.8230655,74.1647801 54.0282028,74.4804631 54.2011928,74.814886 L54.4,75.2 L54.0341948,74.9869582 C53.7956262,74.8476617 53.5013917,74.6264259 53.1276342,74.3888024 C52.9367793,74.2740876 52.7459245,74.142985 52.539165,73.9954945 C52.3324056,73.848004 52.1097416,73.7332892 51.8870775,73.5694109 C51.6644135,73.4055326 51.4417495,73.2662361 51.1952286,73.1187456 L50.4795229,72.6680803 L49.7399602,72.2419967 C49.5093439,72.0863123 49.2628231,71.9634036 49.0242545,71.8323009 C48.7856859,71.7011983 48.5709742,71.5537078 48.3483101,71.4553808 C48.1256461,71.3570539 47.9188867,71.2341451 47.7280318,71.1276242 C47.3383698,70.9063885 47.0043738,70.767092 46.7737575,70.6277954 L46.4,70.4065597 Z" id="Path" fill="#B4B2A8" fill-rule="nonzero"></path>
                        <path d="M58.4,73.6 C58.636495,72.9386416 58.9061969,72.2895966 59.2080808,71.6553314 C59.3373737,71.3648415 59.4666667,71.0582133 59.6282828,70.7354467 C59.789899,70.4126801 59.9434343,70.0657061 60.1373737,69.7268012 L60.7030303,68.6536023 L61.3171717,67.5723343 L62.0444444,66.5556196 C62.2787879,66.2247839 62.5292929,65.9020173 62.7717172,65.595389 C63.0141414,65.2887608 63.240404,64.9821326 63.4747475,64.707781 C63.7090909,64.4334294 63.9272727,64.1752161 64.1373737,63.9008646 C64.5494949,63.4247839 64.9454545,63.0939481 65.179798,62.795389 L65.6,62.4 L65.3737374,62.940634 C65.220202,63.2795389 64.9939394,63.7475504 64.7030303,64.3043228 C64.5575758,64.5786744 64.3878788,64.8772334 64.210101,65.1838617 C64.0323232,65.4904899 63.8464646,65.8132565 63.6363636,66.1440922 C63.4262626,66.474928 63.2242424,66.8138329 62.9979798,67.1446686 L62.3030303,68.1694524 L61.6646465,69.2103746 L61.010101,70.210951 C60.8,70.5337176 60.5737374,70.8403458 60.3717172,71.1308357 C60.169697,71.4213256 59.9676768,71.6876081 59.7737374,71.9377522 C59.3489086,72.5182895 58.8902016,73.0733334 58.4,73.6 L58.4,73.6 Z" id="Path" fill="#B4B2A8" fill-rule="nonzero"></path>
                        <path d="M60.8,74.4 C60.8102881,73.8688144 60.8550043,73.3390227 60.933829,72.8144144 C60.933829,72.5845045 61.0007435,72.3308108 61.060223,72.0216216 C61.1123417,71.7508177 61.1869863,71.4855043 61.2832714,71.2288288 L61.5657993,70.3726126 L61.9003717,69.5005405 L62.3390335,68.7077477 C62.4802974,68.4381982 62.6364312,68.1845045 62.7851301,67.914955 C62.9231084,67.6735787 63.0771599,67.4430763 63.2460967,67.2252252 C63.4171004,67.0190991 63.5806691,66.8288288 63.736803,66.6623423 C64.0416357,66.3214414 64.3167286,66.0518919 64.4802974,65.8695495 L64.8,65.6 L64.6587361,66.0122523 C64.5620818,66.2738739 64.4208178,66.6385586 64.2349442,67.0428829 C64.13829,67.2569369 64.0342007,67.470991 63.9152416,67.7009009 C63.7962825,67.9308108 63.7144981,68.1924324 63.5881041,68.4381982 C63.46171,68.683964 63.3650558,68.9614414 63.2312268,69.230991 L62.8371747,70.0237838 C62.7182156,70.2933333 62.6066914,70.5628829 62.4951673,70.8165766 L62.1234201,71.6093694 C62.0193309,71.870991 61.8557621,72.092973 61.7739777,72.3387387 C61.6921933,72.5845045 61.5732342,72.7985586 61.4840149,73.0046847 C61.2838891,73.4847344 61.0554261,73.950774 60.8,74.4 L60.8,74.4 Z" id="Path" fill="#B4B2A8" fill-rule="nonzero"></path>
                        <path d="M87.2,52.2542056 L86.5774648,52.3663551 C86.186385,52.4411215 85.6276995,52.471028 84.9812207,52.6056075 C84.6460094,52.6654206 84.2948357,52.7401869 83.9197183,52.7925234 C83.5446009,52.8448598 83.1215962,52.964486 82.7544601,53.0317757 C82.3370707,53.1061213 81.9241386,53.200956 81.5173709,53.3158879 L80.2483568,53.6373832 L79.0032864,54.011215 C78.5882629,54.1308411 78.2051643,54.2803738 77.8061033,54.4149533 C77.4070423,54.5495327 77.0079812,54.6542056 76.6887324,54.8037383 C76.3694836,54.953271 76.0023474,55.0728972 75.6910798,55.1850467 C75.0605634,55.4093458 74.5657277,55.6560748 74.1906103,55.7831776 L73.6,56 L74.0629108,55.5962617 C74.4687176,55.2408603 74.9037021,54.915873 75.3638498,54.6242991 C75.6431925,54.4448598 75.9624413,54.2504673 76.2976526,54.0635514 C76.6499248,53.8564351 77.0180649,53.6740062 77.399061,53.517757 C77.7936326,53.3252789 78.2015986,53.1579218 78.6201878,53.0168224 L79.9211268,52.5981308 L81.2619718,52.2990654 C81.7089202,52.1943925 82.1558685,52.1570093 82.5788732,52.0971963 C82.9917206,52.0437759 83.4073521,52.0113297 83.8239437,52 C84.2150235,52 84.6220657,52 84.9333333,52 C85.4901846,52.0122687 86.0451958,52.0647609 86.5934272,52.1570093 L87.2,52.2542056 Z" id="Path" fill="#B4B2A8" fill-rule="nonzero"></path>
                        <path d="M88,53.8720385 C87.4585812,54.0277756 86.9082927,54.155162 86.3516981,54.253604 C86.1005283,54.290293 85.8415094,54.3489954 85.5667925,54.3783466 C85.2920755,54.4076978 85.0016604,54.5177648 84.6955472,54.5691293 L83.7693585,54.7599121 L82.8117736,54.9286815 L81.8620377,55.1561532 C81.5559245,55.236869 81.2419623,55.2955714 80.9436981,55.3542738 C80.645434,55.4129761 80.3393208,55.4496651 80.0646038,55.5230431 C79.7898868,55.5964211 79.538717,55.6624613 79.2796981,55.7138259 C78.7930566,55.8238928 78.3770566,55.8972708 78.0787925,55.9412976 L77.6,56 L77.9846038,55.7358393 C78.2279245,55.5817455 78.5889811,55.3616116 79.0363774,55.126802 C79.264,55.0020594 79.5073208,54.8773169 79.7663396,54.7599121 C80.0420403,54.6259265 80.3312485,54.5177784 80.6297358,54.437049 C80.928,54.3416576 81.2419623,54.2389284 81.5716226,54.1508748 L82.5527547,53.8867141 L83.565283,53.7472959 L84.5464151,53.6519046 C84.8507731,53.613814 85.1577099,53.5966464 85.4647547,53.60054 C85.7630189,53.60054 86.0377358,53.637229 86.2967547,53.6519046 C86.8693248,53.6878309 87.4384798,53.7613907 88,53.8720385 Z" id="Path" fill="#B4B2A8" fill-rule="nonzero"></path>
                        <path d="M12,31.6339143 C12,31.6339143 28.0558882,29.8317702 37.740519,33.5728283 L40,38.4 C40,38.4 25.8842315,34.9003005 14.3952096,36.686354 L12,31.6339143 Z" id="Path" fill="#EFE76C" fill-rule="nonzero"></path>
                        <path d="M16,39.962629 C16.3195625,39.832469 16.6458666,39.7177179 16.977661,39.6188155 C17.3575595,39.4938962 17.7444903,39.3890956 18.1366623,39.3048988 C18.586071,39.2077341 19.0985545,39.05825 19.6583443,38.983508 C20.218134,38.9087659 20.8331143,38.7966528 21.4796321,38.7069623 C22.1261498,38.6172719 22.8199737,38.5724266 23.5295664,38.5201072 C24.239159,38.4677877 24.9802891,38.3930457 25.7293035,38.4005199 L28,38.4005199 C28.7884363,38.4005199 29.521682,38.4005199 30.2628121,38.4902104 C31.0039422,38.5799008 31.7450723,38.6172719 32.4467806,38.6845397 C33.1484888,38.7518076 33.8423127,38.804127 34.4888305,38.9012917 C35.1353482,38.9984564 35.7345598,39.1180437 36.2943495,39.2226826 C37.413929,39.4244861 38.3363995,39.6188155 38.9829172,39.7608254 L40,40 L38.9513798,40 C38.2890933,40 37.3745072,39.9476806 36.2155059,39.8729385 C35.6478318,39.8729385 35.0407359,39.7981964 34.4021025,39.745877 L32.4073587,39.6636607 C31.7056505,39.6636607 30.9802891,39.6113413 30.2470434,39.5590218 C29.5137976,39.5067024 28.7568988,39.4992282 28.0078844,39.4992282 L25.7766097,39.4469087 C25.043364,39.4020635 24.3180026,39.4469087 23.6162943,39.4469087 C22.9145861,39.4469087 22.2365309,39.4469087 21.5900131,39.4469087 L19.7844941,39.5365992 C19.21682,39.5365992 18.7122208,39.6262897 18.2549277,39.6561865 C17.7976347,39.6860833 17.3955322,39.7234544 17.0722733,39.7682996 C16.3784494,39.8953611 16,39.962629 16,39.962629 Z" id="Path" fill="#C7C4B5" fill-rule="nonzero"></path>
                        <path d="M41.3997686,62.8248563 C41.3997686,62.8248563 33.4723985,44.0705221 33.6015614,43.5109299 C33.7307242,42.9513376 39.6479974,43.2231396 42.0859462,43.7267726 L51.2,64 C51.2,64 47.7287483,62.7369204 41.3997686,62.8248563 Z" id="Path" fill="#72C9CC" fill-rule="nonzero"></path>
                        <path d="M18.4,43.2 L19.3343402,42.9632287 C19.9384394,42.8269058 20.792233,42.6116592 21.8312837,42.432287 C22.3548364,42.3461883 22.9186624,42.238565 23.5147069,42.1452915 C24.1107515,42.0520179 24.7470694,41.9874439 25.4075512,41.9013453 C26.0680331,41.8152466 26.7526789,41.7650224 27.4453794,41.7147982 C28.1380798,41.664574 28.8468896,41.6071749 29.5556994,41.6 L31.6740741,41.6 C32.3748292,41.6 33.059475,41.6502242 33.7199569,41.6789238 C34.3804387,41.7076233 35.0248112,41.7506726 35.6289105,41.8224215 L37.3364977,42.0161435 C38.383603,42.1524664 39.2454513,42.3390135 39.8495505,42.4538117 L40.8,42.6547085 L39.8253866,42.6547085 L37.2720604,42.6116592 C36.7485077,42.6116592 36.1766271,42.6116592 35.5805825,42.6116592 C34.9845379,42.6116592 34.3482201,42.6116592 33.6877382,42.6116592 L31.6740741,42.6116592 L29.5798634,42.6403587 C28.8791082,42.6403587 28.1864078,42.690583 27.501762,42.7192825 C26.8171161,42.7479821 26.140525,42.7192825 25.4880978,42.8053812 C24.8356706,42.8914798 24.1993528,42.8699552 23.5952535,42.9058296 C22.9911543,42.941704 22.4273283,42.9847534 21.9037756,43.0134529 L19.3585041,43.1641256 L18.4,43.2 Z" id="Path" fill="#C7C4B5" fill-rule="nonzero"></path>
                        <path d="M20,46.4 C20.5675011,46.0991911 21.1517862,45.8309272 21.75,45.5965194 C22.016129,45.4840321 22.3064516,45.3554752 22.6209677,45.2429879 C22.9354839,45.1305006 23.25,44.9858741 23.6048387,44.8974913 L24.6854839,44.6162731 L25.8145161,44.3671941 C26.1898297,44.2808027 26.5693662,44.2137569 26.9516129,44.1663239 C27.3306452,44.1663239 27.7096774,44.1020455 28.0725806,44.077941 C28.4354839,44.0538366 28.7903226,44.0297322 29.1209677,44.0216974 C29.4348137,43.9927675 29.7506702,43.9927675 30.0645161,44.0216974 C30.6532258,44.0618714 31.1290323,44.1341847 31.4677419,44.1823935 L32,44.286846 L31.4758065,44.4234377 C31.1370968,44.5037858 30.6693548,44.6162731 30.1048387,44.7046559 C29.8306452,44.7608996 29.5241935,44.785004 29.2016129,44.865352 C28.8790323,44.9457001 28.5483871,45.0099786 28.2016129,45.074257 C27.8548387,45.1385354 27.5,45.2028139 27.1290323,45.2510227 C26.7598483,45.3039657 26.3937427,45.3763807 26.0322581,45.4679625 L24.9274194,45.6768675 L23.8467742,45.8455984 L22.8629032,46.0545033 C22.5403226,46.1187818 22.233871,46.1589558 21.9516129,46.1991298 C21.305418,46.3028529 20.6538306,46.3699177 20,46.4 L20,46.4 Z" id="Path" fill="#C7C4B5" fill-rule="nonzero"></path>
                        <path d="M21.6,48.7970036 C22.1404336,48.4885663 22.6952648,48.2156822 23.2618847,47.9796346 C23.5218003,47.8786114 23.7895921,47.7592205 24.0888889,47.6490134 C24.3881857,47.5388063 24.6874824,47.4194153 25.0104079,47.3183922 L26.0106892,46.9969549 C26.3555717,46.8935847 26.7053501,46.8138542 27.0582278,46.758173 L28.121519,46.5928624 C28.4680731,46.5377588 28.8146273,46.5102071 29.1533052,46.4734714 C29.4919831,46.4367357 29.8149086,46.4091839 30.1220816,46.4 L30.9884669,46.4 C31.5319269,46.4 31.980872,46.4 32.2959212,46.4 L32.8,46.4551035 L32.3274262,46.6755177 C32.0281294,46.8040926 31.5949367,46.9785871 31.0829817,47.1438977 C30.8230661,47.2357369 30.5395218,47.3183922 30.2481013,47.4010475 C29.9566807,47.4837028 29.6337553,47.575542 29.3108298,47.6490134 C28.9879044,47.7224848 28.6492264,47.8051401 28.3026723,47.8694275 L27.2630098,48.0622899 C26.9137337,48.1003325 26.5666116,48.161659 26.2233474,48.2459683 L25.2151899,48.4480146 C24.8843882,48.5123021 24.5614627,48.5490378 24.262166,48.6041413 C23.9628692,48.6592448 23.6714487,48.6776127 23.4036568,48.7051644 C22.8046667,48.7795754 22.2022728,48.8102483 21.6,48.7970036 L21.6,48.7970036 Z" id="Path" fill="#C7C4B5" fill-rule="nonzero"></path>
                        <path d="M23.2,52.7999148 C23.7424664,52.4970026 24.2986857,52.2279439 24.8662456,51.9939057 L25.6522105,51.6678795 C25.9508772,51.5682604 26.2574035,51.4414725 26.5796491,51.3418534 L27.5778246,51.0248835 C27.9478192,50.9193554 28.3232017,50.8407128 28.7017544,50.7894201 L29.7313684,50.5901819 C30.0850526,50.5358442 30.4308772,50.5086754 30.7609825,50.4724503 C31.0910877,50.4362251 31.421193,50.4090563 31.7277193,50.4 L32.6001404,50.4 C33.1345965,50.4 33.5904561,50.4 33.9048421,50.4 L34.4,50.4543377 L33.9284211,50.6716885 C33.6297544,50.7984764 33.2053333,50.9705458 32.6865965,51.1335589 C32.4272281,51.2241217 32.1521404,51.3056282 31.8534737,51.3871348 C31.554807,51.4686413 31.2482807,51.5592041 30.9181754,51.6316544 C30.5880702,51.7041046 30.2658246,51.7856112 29.92,51.8490052 L28.8825263,52.0391871 C28.5313158,52.0760331 28.1822756,52.1365115 27.837193,52.2203127 L26.8311579,52.4195509 C26.5089123,52.4829449 26.1866667,52.51917 25.8801404,52.5735077 C25.573614,52.6278454 25.2906667,52.645958 25.0234386,52.6731268 C24.4185674,52.7598178 23.8095292,52.8021657 23.2,52.7999148 L23.2,52.7999148 Z" id="Path" fill="#C7C4B5" fill-rule="nonzero"></path>
                        <path d="M24.8,55.1964435 C25.3402361,54.8857613 25.8963025,54.6138995 26.4650771,54.3823844 C26.7164095,54.2726237 26.9913043,54.1537162 27.2897616,54.0531021 C27.5882188,53.9524881 27.886676,53.8152871 28.2086957,53.7146731 L29.2061711,53.3945375 C29.5500863,53.2915859 29.8988835,53.2121783 30.2507714,53.1567225 L31.3424965,52.9920813 C31.6880785,52.937201 32.0336606,52.9097608 32.3713885,52.8731738 C32.7091164,52.8365869 33.0232819,52.8182935 33.3374474,52.8 L34.2014025,52.8 C34.743338,52.8 35.1910238,52.8 35.5051893,52.8 L36,52.8548804 L35.5366059,53.0744019 C35.2381487,53.2024562 34.8061711,53.376244 34.2956522,53.5408852 C34.0364656,53.6323525 33.7537167,53.7146731 33.4631136,53.7969937 C33.1725105,53.8793142 32.8504909,53.9707815 32.5284712,54.0439554 C32.2064516,54.1171292 31.8687237,54.2085965 31.5231417,54.2634769 L30.4863955,54.4555583 C30.1380991,54.4934469 29.7919507,54.554525 29.4496494,54.6384929 L28.4443198,54.839721 C28.114446,54.9128948 27.7924264,54.940335 27.4939691,54.9952154 C27.1955119,55.0500958 26.8734923,55.1141229 26.630014,55.1141229 C26.0219032,55.1829864 25.4108603,55.2104733 24.8,55.1964435 Z" id="Path" fill="#C7C4B5" fill-rule="nonzero"></path>
                        <path d="M25.6,58.3968605 C26.1377982,58.077969 26.6924942,57.7993157 27.2607168,57.5625941 C27.5204498,57.4617487 27.7959241,57.3334001 28.0477864,57.2325547 C28.2996486,57.1317093 28.6459592,56.9941929 28.9686578,56.9025153 L29.9682361,56.5724758 C30.306676,56.4716304 30.6608573,56.4074561 31.0150387,56.3432818 L32.1248067,56.1965976 C32.4711174,56.141591 32.817428,56.1049199 33.1558679,56.0774167 C33.4943078,56.0499134 33.8170063,56.0132423 34.1239635,56.0040746 C34.4309206,55.9949068 34.7221363,56.0040746 34.98974,56.0040746 C35.532818,56.0040746 35.9814476,56.0040746 36.2962755,56.0040746 L36.8,56.0590811 L36.3277583,56.2699397 C36.0286718,56.3982883 35.5957836,56.5724758 35.0841883,56.7374955 C34.8244554,56.8291732 34.548981,56.9208508 34.2498946,56.9941929 C33.9508082,57.067535 33.6359803,57.1683804 33.3132818,57.2417225 C32.9905833,57.3150646 32.6521434,57.4067422 32.3137034,57.4617487 L31.2669009,57.6542718 C30.9205903,57.7092783 30.566409,57.7551171 30.2279691,57.8467948 L29.22052,58.0484855 C28.8899508,58.1126599 28.5672523,58.1493309 28.2681658,58.1951697 C27.9690794,58.2410085 27.6778637,58.2776796 27.41026,58.3051829 C26.8090822,58.3798456 26.2044726,58.410465 25.6,58.3968605 L25.6,58.3968605 Z" id="Path" fill="#C7C4B5" fill-rule="nonzero"></path>
                        <path d="M26.4,60.7977184 C26.9423405,60.4917354 27.4991295,60.2210227 28.0677488,59.9868533 C28.3285815,59.886634 28.5973183,59.7681931 28.858151,59.6588629 C29.1189838,59.5495328 29.4588567,59.4310918 29.7829217,59.3308726 L30.7867325,59.011993 C31.132832,58.9094453 31.4838446,58.8303493 31.8379675,58.7751111 L32.9050106,58.6111159 C33.2527876,58.5564508 33.6005646,58.5291183 33.9404375,58.4926749 C34.2803105,58.4562315 34.5964714,58.428899 34.9126323,58.4197881 L35.7820748,58.4197881 C36.2191312,58.393404 36.6570861,58.393404 37.0941426,58.4197881 L37.6,58.4744532 L37.1257586,58.6931135 C36.8254058,58.8206653 36.3906845,58.9937713 35.8769231,59.1577665 L35.0390967,59.4128702 C34.7387438,59.4948677 34.4225829,59.5859762 34.098518,59.6497521 C33.7744531,59.713528 33.4345801,59.8137473 33.0868031,59.8775232 L32.0434721,60.0688509 C31.6929635,60.1065909 31.3446166,60.1674293 31.0001411,60.2510678 L29.9884263,60.4515064 C29.6564573,60.5152823 29.3323924,60.5517257 29.0320395,60.6063907 C28.7316867,60.6610558 28.4392378,60.6792775 28.1705011,60.70661 C27.582497,60.7785523 26.9912264,60.8089785 26.4,60.7977184 Z" id="Path" fill="#C7C4B5" fill-rule="nonzero"></path>
                        <path d="M28,63.9992006 C28.5432839,63.688161 29.1024876,63.4159864 29.6744711,63.184205 C29.9272214,63.0743179 30.2036671,62.9552736 30.4643159,62.8545438 C30.7249647,62.753814 31.0724965,62.6164552 31.3963329,62.5157254 L32.3994358,62.1952215 C32.7390691,62.0853345 33.0944993,62.0303909 33.4499295,61.9571329 L34.5083216,61.8014596 C34.8637518,61.7373588 35.2112835,61.7098871 35.5430183,61.6824153 C35.8747532,61.6549435 36.206488,61.6183145 36.5145275,61.6 L37.3912553,61.6 C37.9283498,61.6 38.3864598,61.6 38.7023977,61.6 L39.2,61.6549435 L38.7260931,61.8747176 C38.425952,62.0029192 37.9994358,62.176907 37.4781382,62.3417376 C37.2253879,62.4333101 36.9410437,62.5157254 36.6409027,62.5981407 C36.3407616,62.680556 36.0327221,62.7721285 35.7009873,62.8453866 C35.3692525,62.9186446 35.0454161,63.0102171 34.6978843,63.0651607 L33.6552891,63.257463 C33.3017958,63.2941284 32.9508359,63.3583748 32.6047955,63.4497654 L31.5937941,63.6420677 C31.2699577,63.7153257 30.9461213,63.7519547 30.6380818,63.797741 C30.3300423,63.8435273 30.0456982,63.870999 29.7771509,63.9076281 C29.1866012,63.9748981 28.5933687,64.005466 28,63.9992006 Z" id="Path" fill="#C7C4B5" fill-rule="nonzero"></path>
                        <path d="M29.6,66.4 C30.0761601,66.1167798 30.5725081,65.8630478 31.0857143,65.6405063 C31.3098164,65.5417722 31.5505188,65.4202532 31.8244214,65.3139241 C32.098324,65.2075949 32.3722267,65.0860759 32.6544294,64.9797468 L33.5757382,64.6531646 L34.5634477,64.4101266 L35.5594573,64.1974684 C35.8762303,64.1162292 36.2019778,64.0678242 36.5305666,64.0531646 C36.8459697,64.0531646 37.1530726,64.0075949 37.4518755,64 L38.2818835,64 C38.7964884,64 39.2280926,64 39.5268955,64.0455696 L40,64.0911392 L39.5600958,64.2658228 C39.1775718,64.4111734 38.7869237,64.5379323 38.3897845,64.6455696 L37.609577,64.8506329 C37.3356744,64.9189873 37.0451716,64.9873418 36.779569,65.0405063 C36.5139665,65.0936709 36.1736632,65.2 35.8582602,65.2683544 L34.9120511,65.4962025 L33.9575419,65.6936709 L33.027933,65.921519 C32.7291301,65.9974684 32.4303272,66.043038 32.1481245,66.1037975 C31.8659218,66.164557 31.6003192,66.2101266 31.3181165,66.2481013 C30.750012,66.3355359 30.1758895,66.3862941 29.6,66.4 L29.6,66.4 Z" id="Path" fill="#C7C4B5" fill-rule="nonzero"></path>
                        <path d="M43.2,32.8 C43.384872,32.4684479 43.5926419,32.1496845 43.8218557,31.8459403 C44.4181499,31.0463911 45.0736687,30.2910057 45.7830928,29.5859138 C46.2467773,29.0969364 46.7364383,28.6322945 47.2500344,28.1939251 C47.7841924,27.7012549 48.3980756,27.2476856 49.0199313,26.7628356 C49.6417869,26.2779856 50.3274227,25.8322364 51.0449485,25.4099477 C51.7624742,24.987659 52.4879725,24.5575502 53.2613058,24.2056429 C53.6439863,24.0257792 54.0585567,23.8380954 54.4093471,23.6660518 L55.5892784,23.2124825 C56.3498304,22.9024405 57.1301236,22.6412178 57.9252234,22.4304664 C58.6570495,22.2204994 59.4029777,22.061099 60.1575258,21.9534365 C60.5162887,21.8908752 60.867079,21.8126736 61.2019244,21.7735728 L62.1905155,21.6953712 C62.8283162,21.6953712 63.4023368,21.585889 63.9205498,21.6015293 L65.2439863,21.6484502 L66.4,21.7188317 L65.2599313,21.8830551 L63.9524399,22.0472785 C63.4581443,22.1098397 62.9000687,22.2506026 62.2941581,22.3600849 L61.3454296,22.5477688 C61.0185567,22.6181502 60.6916838,22.7198123 60.348866,22.8058341 C59.6712027,22.993518 58.937732,23.1499212 58.2202062,23.4158067 C57.5026804,23.6816921 56.7373196,23.8928365 56.0038488,24.1978228 L54.8717526,24.643572 C54.5050172,24.8077953 54.1462543,25.0032994 53.7715464,25.1753429 C53.0301031,25.5037897 52.3205498,25.9104381 51.6189691,26.3014461 C50.9173883,26.6924542 50.2556701,27.0834622 49.6019244,27.5213912 C48.9481787,27.9593203 48.342268,28.3581485 47.7921649,28.8038977 C47.2420619,29.2496469 46.6999313,29.5859138 46.1976632,30.0238428 C45.2489347,30.8058589 44.4835739,31.4940331 43.9653608,31.9945234 C43.4471478,32.4950137 43.2,32.8 43.2,32.8 Z" id="Path" fill="#C7C4B5" fill-rule="nonzero"></path>
                        <path d="M44,35.1819629 C44,35.1819629 51.237283,24.5421751 67.4568383,23.2 L70.4,29.2601238 C61.5304829,30.6717608 53.3712126,35.0101924 47.1924459,41.6 L44,35.1819629 Z" id="Path" fill="#FC6032" fill-rule="nonzero"></path>
                        <path d="M48,43.2 L48.8016586,42.3263619 L49.6914997,41.3405135 C50.0738856,40.9061216 50.483561,40.4965257 50.9180373,40.1142142 L52.4492053,38.7516594 C53.0129431,38.2520383 53.6015769,37.7812227 54.2128542,37.3410144 C54.8621977,36.8761428 55.5035245,36.3551659 56.2250173,35.9303694 L58.3975121,34.6159048 L60.6662059,33.4777708 C61.3963023,33.1105275 62.1486579,32.7892993 62.9188666,32.5159674 C63.6644091,32.2434565 64.3698687,31.9228554 65.0753283,31.7144646 C65.7807878,31.5060739 66.4381479,31.3217282 67.055425,31.1614277 L67.9372495,30.9289919 L68.7389081,30.7847214 L70.0536282,30.5683156 L71.2,30.4 L70.1097443,30.8007514 L68.8591569,31.2335629 L68.0574983,31.4820288 L67.2558397,31.81866 C66.6786455,32.0510958 66.0453352,32.2995617 65.3799585,32.5480276 C64.7145819,32.7964934 64.0411887,33.1571697 63.3277125,33.4537257 C62.6142364,33.7502818 61.8767104,34.086913 61.1552177,34.4796493 L58.9586731,35.6097683 L56.8182446,36.8601127 C56.0967519,37.2448341 55.4474084,37.7177207 54.798065,38.1425172 C54.1487215,38.5673137 53.4833449,38.94402 52.9302004,39.4008766 L51.3268832,40.5951158 C50.8575103,40.9187023 50.4052978,41.2664904 49.9720802,41.6370695 L48.9379406,42.4385723 L48,43.2 Z" id="Path" fill="#C7C4B5" fill-rule="nonzero"></path>
                        <path d="M48.8,45.6 L49.6120406,44.7363463 L50.480924,43.7586251 C50.8693365,43.3308163 51.284304,42.9280618 51.7233462,42.5527689 L53.2581029,41.2002546 C53.7940497,40.711394 54.4274414,40.2795672 55.0689534,39.7988542 C55.7104655,39.3181413 56.360098,38.8700191 57.0746937,38.4056015 L59.2428421,37.0938256 L61.500315,35.9612985 C62.2280292,35.5888197 62.9794456,35.264925 63.7496675,34.991725 C64.4886244,34.7065563 65.1869793,34.3887969 65.8934547,34.1769574 C66.59993,33.9651178 67.2495625,33.7777212 67.8585929,33.6147677 L68.7355968,33.3703374 L69.5476374,33.2155315 L70.8550228,32.9792489 L72,32.8 L70.919986,33.2155315 L69.6775639,33.6636537 L68.9142457,33.9325271 L68.1022051,34.2747295 C67.5256563,34.5191598 66.900385,34.7717377 66.2345117,35.0243157 C65.5686384,35.2768937 64.9027651,35.6435391 64.1962898,35.9450032 C63.4898145,36.2464672 62.7508575,36.5886696 62.0362618,36.9797581 L59.8437522,38.1122852 L57.7080854,39.3588797 C56.9853693,39.7418205 56.3357368,40.2143857 55.6779839,40.6380649 C55.020231,41.0617441 54.3705985,41.4528326 53.8102905,41.8765118 L52.1862093,43.0497772 L48.8,45.6 Z" id="Path" fill="#C7C4B5" fill-rule="nonzero"></path>
                        <path d="M50.4,48.8 L51.1403399,47.9147664 L52.0174818,46.9099065 C52.384065,46.4701417 52.7792162,46.0545545 53.2004162,45.6657944 L54.7293791,44.2781308 C55.3006755,43.7700205 55.8997545,43.2934536 56.5238987,42.8505919 C57.166322,42.3430247 57.8351554,41.8691864 58.5276448,41.431028 L60.6923344,40.1071651 L62.9616372,38.974704 C63.7094179,38.6057314 64.4809383,38.2860345 65.2711759,38.0176947 C66.019563,37.7465421 66.7277142,37.435514 67.4439126,37.2201869 C68.160111,37.0048598 68.811932,36.8453583 69.4315643,36.6938318 L70.3167534,36.4705296 L71.1214707,36.3429283 L72.4492542,36.1435514 L73.6,36 L72.4653486,36.3828037 L71.2019424,36.7895327 L70.3972251,37.028785 L69.5925078,37.3557632 C69.0050642,37.5870405 68.3693375,37.8183178 67.7014221,38.0655452 C67.0335068,38.3127726 66.3575442,38.6557009 65.6332986,38.9507788 C64.9090531,39.2458567 64.1767603,39.5728349 63.4605619,39.9636137 L61.2475893,41.1120249 L59.1231356,42.3720872 C58.4299497,42.7700561 57.7584197,43.203971 57.1113424,43.6720249 C56.4756157,44.1266044 55.7996531,44.4695327 55.2604925,44.9400623 L53.6510579,46.1602492 C53.1852519,46.487641 52.7392101,46.8418102 52.3152272,47.2209346 C51.9209157,47.5479128 51.5829344,47.8350156 51.2932362,48.0662928 L50.4,48.8 Z" id="Path" fill="#C7C4B5" fill-rule="nonzero"></path>
                        <path d="M51.2,49.9851519 C51.2,49.9851519 54.5699115,45.6197975 58.020059,44 L64.8,57.104162 C64.8,57.104162 59.079174,62.2794151 57.9719174,65.6 L51.2,49.9851519 Z" id="Path" fill="#C7C4B5" fill-rule="nonzero"></path>
                        <path d="M60,43.2187959 L66.1779671,56 C66.1779671,56 69.4811929,53.0239843 72.8,51.9197259 L66.1779671,40 C64.0050808,40.8366293 61.9327252,41.9163518 60,43.2187959 L60,43.2187959 Z" id="Path" fill="#EBF65A" fill-rule="nonzero"></path>
                        <path d="M67.2,40 C67.4545042,39.7351922 67.7363202,39.4965662 68.0409987,39.2878889 C68.1755585,39.1978519 68.3185283,39.0832594 68.478318,38.9932224 C68.6410495,38.8838858 68.8094735,38.7828006 68.9829172,38.6903708 L69.5295664,38.4038895 L70.1182654,38.1337786 L70.7321945,37.9455194 C70.9298882,37.8794444 71.132263,37.8274675 71.3377135,37.790001 C71.5289897,37.7441917 71.7227127,37.7086688 71.9180026,37.6835937 C72.0929865,37.6507291 72.2699619,37.6288568 72.4478318,37.6181122 C72.7276156,37.5939626 73.0090467,37.5939626 73.2888305,37.6181122 L73.6,37.6181122 C73.6,37.6181122 73.5159001,37.699964 73.3561104,37.8309269 C73.1493988,37.9992958 72.9301373,38.1525064 72.7001314,38.289297 C72.5655716,38.379334 72.4141919,38.4611858 72.2544021,38.5512227 C72.0946124,38.6412597 71.9180026,38.7231115 71.7413929,38.8049633 C71.5647832,38.8868151 71.3713535,38.9686669 71.1779238,39.0341483 L70.5892247,39.246963 L70.0005256,39.4679629 L69.3529566,39.6480368 C69.1679369,39.7135183 68.9745072,39.746259 68.7978975,39.7953701 L68.2848883,39.8935922 C67.9278574,39.9644907 67.5643865,40.0001405 67.2,40 L67.2,40 Z" id="Path" fill="#C7C4B5" fill-rule="nonzero"></path>
                        <path d="M69.6,42.3975581 C69.7870085,42.1466401 69.9964976,41.9182854 70.2251163,41.7161468 C70.3296752,41.6168884 70.4389878,41.5242109 70.5525581,41.4385348 C70.6716279,41.3459975 70.7906977,41.2450477 70.9246512,41.1609229 L71.3413953,40.8917234 L71.7804651,40.6477613 L72.2344186,40.4374492 C72.3832558,40.3701493 72.5395349,40.3196744 72.6883721,40.2691995 C72.8293486,40.2153524 72.9736058,40.1731785 73.12,40.1430122 C73.252033,40.1043034 73.386321,40.0761917 73.5218605,40.0588874 C73.7287537,40.0227165 73.9376411,40.0030388 74.1469767,40 L74.4,40 L74.2362791,40.2187246 C74.0939099,40.3920689 73.9396299,40.5524065 73.7748837,40.6982362 C73.6761747,40.8019398 73.5690336,40.8948887 73.4548837,40.9758482 C73.3341135,41.0780499 73.2073065,41.1708033 73.0753488,41.2534602 C72.9415039,41.3503616 72.802304,41.4374691 72.6586047,41.5142472 L72.212093,41.7497968 L71.7581395,41.9516964 L71.304186,42.1199461 C71.1627907,42.170421 71.0065116,42.2040709 70.8725581,42.2377209 C70.7405252,42.2764297 70.6062371,42.3045414 70.4706977,42.3218457 C70.183791,42.3830291 69.8918091,42.4084187 69.6,42.3975581 L69.6,42.3975581 Z" id="Path" fill="#C7C4B5" fill-rule="nonzero"></path>
                        <path d="M70.4,44 C70.5728291,43.7126301 70.7737437,43.4531535 70.9981073,43.2275584 C71.0981891,43.1149038 71.2044385,43.0110337 71.3160883,42.9166977 C71.4341612,42.8002529 71.558071,42.6932764 71.6870662,42.5964171 L72.0958991,42.2855564 L72.5425868,42.0029558 L73.0119874,41.8333955 C73.1660479,41.7770933 73.3228315,41.7330442 73.481388,41.7015152 L73.9280757,41.616735 L74.3369085,41.616735 C74.5434601,41.5944217 74.7511772,41.5944217 74.9577287,41.616735 L75.2,41.616735 L75.0107256,41.8428155 C74.8561945,42.0146213 74.6917126,42.1720467 74.518612,42.3138165 C74.4201893,42.3985966 74.3066246,42.4833768 74.185489,42.568157 C74.0632161,42.6646299 73.9339439,42.7466288 73.7993691,42.8130775 C73.6640564,42.898018 73.525039,42.9734955 73.3829653,43.039158 L72.9362776,43.2275584 L72.5047319,43.4536389 L72.0731861,43.6326192 C71.9363955,43.6884539 71.7974154,43.7356147 71.6567823,43.7739195 C71.5294489,43.81348 71.4005743,43.844921 71.2706625,43.8681197 C70.9844082,43.945958 70.6929028,43.9901127 70.4,44 L70.4,44 Z" id="Path" fill="#C7C4B5" fill-rule="nonzero"></path>
                        <path d="M72,46.4 C72.1625167,46.1430874 72.3524012,45.9059238 72.5660743,45.6929794 C72.6591276,45.6046018 72.7599354,45.4921213 72.876252,45.3957094 C72.9925687,45.2992975 73.1088853,45.186817 73.2407108,45.0984394 L73.6516963,44.8011694 L74.0859451,44.519968 L74.5667205,44.3351785 C74.7218094,44.2709039 74.8846527,44.2307323 75.0397415,44.1825264 C75.1948304,44.1343204 75.3499192,44.1021831 75.4972536,44.0780801 C75.644588,44.0539772 75.784168,44.0298742 75.9159935,44.0138055 C76.127576,43.9953982 76.3402754,43.9953982 76.5518578,44.0138055 L76.8,44.0138055 L76.6294023,44.2146637 C76.4805885,44.3748079 76.319833,44.5225607 76.1486268,44.6565515 C76.0420608,44.7459656 75.930739,44.8291175 75.8151858,44.9056156 C75.6942699,44.9952916 75.5672865,45.0758426 75.4352181,45.1466453 C75.2997349,45.2295495 75.1599428,45.3046505 75.0164782,45.3716064 L74.574475,45.5724645 L74.1402262,45.7974256 L73.7059774,45.9902494 C73.5663974,46.054524 73.419063,46.0946957 73.2872375,46.1429016 C73.155412,46.1911076 73.015832,46.2232449 72.8917609,46.2553822 C72.6004174,46.3367996 72.3014207,46.3852882 72,46.4 L72,46.4 Z" id="Path" fill="#C7C4B5" fill-rule="nonzero"></path>
                        <path d="M72.8,48.8 C72.9655259,48.5615109 73.1588769,48.3419095 73.3763033,48.1454545 C73.4772626,48.0479648 73.5835749,47.9557124 73.6947867,47.8690909 C73.8097502,47.7695123 73.9313329,47.677197 74.0587678,47.5927273 L74.4606635,47.3163636 L74.9156398,47.0545455 L75.3781991,46.8581818 C75.52709,46.7897858 75.6818488,46.7338212 75.8407583,46.6909091 C75.9856972,46.6350428 76.1353807,46.5912448 76.2881517,46.56 C76.4238415,46.5178258 76.5635386,46.4885934 76.7052133,46.4727273 C76.9151912,46.4323379 77.1281841,46.4080189 77.3421801,46.4 L77.6,46.4 L77.4407583,46.5963636 C77.297924,46.7524881 77.1433213,46.8983353 76.9781991,47.0327273 C76.8760473,47.1250002 76.7670745,47.2100704 76.6521327,47.2872727 C76.5344534,47.3779212 76.4102945,47.4605479 76.2805687,47.5345455 C76.1440758,47.6145455 76.0075829,47.7018182 75.8635071,47.7745455 L75.4236967,47.9927273 L74.9763033,48.2109091 L74.5364929,48.3927273 C74.3924171,48.4581818 74.2407583,48.4945455 74.1042654,48.5454545 C73.9754163,48.58993 73.8437041,48.6263696 73.7099526,48.6545455 C73.4126249,48.7327711 73.1077086,48.7815115 72.8,48.8 Z" id="Path" fill="#C7C4B5" fill-rule="nonzero"></path>
                        <path d="M74.4,51.2 C74.5928039,50.9469093 74.8145727,50.7123248 75.061743,50.5000156 C75.1744682,50.396327 75.293192,50.2979497 75.4174298,50.2052853 C75.5518124,50.0948195 75.6956223,49.9938163 75.8475628,49.9031867 L76.3273264,49.6158247 C76.4927622,49.5347739 76.6664697,49.4316183 76.848449,49.3579357 L77.394387,49.1516245 C77.5750328,49.0829623 77.7600948,49.0239124 77.9485968,48.9747863 C78.1190815,48.9194451 78.2971377,48.8847498 78.4779911,48.8716307 C78.6388851,48.8416488 78.8019792,48.8219499 78.9660266,48.8126847 C79.213817,48.7957718 79.462697,48.7957718 79.7104874,48.8126847 L80,48.8126847 L79.7849335,48.9968911 C79.604465,49.1456172 79.4108293,49.2811409 79.2059084,49.4021453 C79.0779615,49.48419 78.9454441,49.5604258 78.8088626,49.6305612 L78.3539143,49.8663455 C78.2050222,49.9473963 78.0478582,50.0284471 77.8824225,50.1021297 L77.3695716,50.3158091 C77.1958641,50.3747552 77.0304284,50.4631743 76.8649926,50.5294886 L76.3521418,50.7210633 C76.1867061,50.7873776 76.0129985,50.8242189 75.8641064,50.8831649 L75.4091581,51.0157936 C75.0804681,51.1068749 74.7424151,51.1685813 74.4,51.2 L74.4,51.2 Z" id="Path" fill="#C7C4B5" fill-rule="nonzero"></path>
                    </g>
                </g>
            </g>
        </g>
    </g>
</svg>