<?xml version="1.0" encoding="UTF-8"?>
<svg width="311px" height="366px" viewBox="0 0 311 366" version="1.1" xmlns="http://www.w3.org/2000/svg" xmlns:xlink="http://www.w3.org/1999/xlink">
    <!-- Generator: Sketch 63.1 (92452) - https://sketch.com -->
    <title>lecturas@2x</title>
    <desc>Created with Sketch.</desc>
    <defs>
        <rect id="path-1" x="0" y="0" width="255" height="310" rx="8"></rect>
        <filter x="-16.9%" y="-13.2%" width="133.7%" height="127.7%" filterUnits="objectBoundingBox" id="filter-3">
            <feOffset dx="0" dy="2" in="SourceAlpha" result="shadowOffsetOuter1"></feOffset>
            <feGaussianBlur stdDeviation="14" in="shadowOffsetOuter1" result="shadowBlurOuter1"></feGaussianBlur>
            <feColorMatrix values="0 0 0 0 0   0 0 0 0 0   0 0 0 0 0  0 0 0 0.06 0" type="matrix" in="shadowBlurOuter1"></feColorMatrix>
        </filter>
        <path d="M3.00025,7.99927241 C2.74425,7.99927241 2.48825,7.90127241 2.29325,7.70627241 C1.90225,7.31527241 1.90225,6.68327241 2.29325,6.29227241 L5.59825,2.98727241 L2.41825,-0.305727588 C2.03525,-0.703727588 2.04625,-1.33672759 2.44325,-1.71972759 C2.84125,-2.10272759 3.47425,-2.09172759 3.85725,-1.69572759 L7.71925,2.30427241 C8.09825,2.69727241 8.09325,3.32027241 7.70725,3.70627241 L3.70725,7.70627241 C3.51225,7.90127241 3.25625,7.99927241 3.00025,7.99927241" id="path-4"></path>
        <linearGradient x1="40.8729925%" y1="-7.13451814%" x2="55.9404702%" y2="96.2971818%" id="linearGradient-6">
            <stop stop-color="#FFFFFF" offset="0%"></stop>
            <stop stop-color="#D31718" offset="100%"></stop>
        </linearGradient>
        <linearGradient x1="217.165765%" y1="-285.535009%" x2="217.311104%" y2="-175.348774%" id="linearGradient-7">
            <stop stop-color="#FFFFFF" offset="0%"></stop>
            <stop stop-color="#D31718" offset="100%"></stop>
        </linearGradient>
        <linearGradient x1="55.8179981%" y1="-9.31383711%" x2="45.5169487%" y2="94.8557613%" id="linearGradient-8">
            <stop stop-color="#FFFFFF" offset="0%"></stop>
            <stop stop-color="#53AE25" offset="100%"></stop>
        </linearGradient>
        <linearGradient x1="55.841777%" y1="-9.3402411%" x2="45.5394163%" y2="94.842264%" id="linearGradient-9">
            <stop stop-color="#FFFFFF" offset="0%"></stop>
            <stop stop-color="#088838" offset="100%"></stop>
        </linearGradient>
    </defs>
    <g id="Screens" stroke="none" stroke-width="1" fill="none" fill-rule="evenodd">
        <g id="Materias-" transform="translate(-707.000000, -769.000000)">
            <g id="Ficha-de-repaso" transform="translate(735.000000, 795.000000)">
                <g id="Group">
                    <mask id="mask-2" fill="white">
                        <use xlink:href="#path-1"></use>
                    </mask>
                    <g id="Mask">
                        <use fill="black" fill-opacity="1" filter="url(#filter-3)" xlink:href="#path-1"></use>
                        <use fill="#FFFFFF" fill-rule="evenodd" xlink:href="#path-1"></use>
                    </g>
                    <rect id="Rectangle" fill="#E4E9F2" fill-rule="nonzero" opacity="0.497465588" mask="url(#mask-2)" x="0" y="0" width="255" height="88"></rect>
                    <g id="atomo/-button/-primario/-228x48px/-active-copy-2" mask="url(#mask-2)">
                        <g transform="translate(27.000000, 232.000000)" id="Group">
                            <g>
                                <rect id="Rectangle" fill="#6E79E0" x="0" y="0" width="200" height="48" rx="24"></rect>
                                <g id="Group-2" transform="translate(30.225131, 14.000000)">
                                    <g id="Group-3">
                                        <text id="Ver-actividades" font-family="Montserrat-Medium, Montserrat" font-size="16" font-weight="400" line-spacing="20" fill="#FFFFFF">
                                            <tspan x="0.410429319" y="15">Ver actividades</tspan>
                                        </text>
                                        <g id="Arrow_down" transform="translate(140.596859, 11.000000) rotate(-90.000000) translate(-140.596859, -11.000000) translate(135.596859, 8.000000)">
                                            <mask id="mask-5" fill="white">
                                                <use xlink:href="#path-4"></use>
                                            </mask>
                                            <use id="🎨-Icon-Сolor" fill="#FFFFFF" fill-rule="nonzero" transform="translate(5.000080, 2.999636) rotate(-270.000000) translate(-5.000080, -2.999636) " xlink:href="#path-4"></use>
                                        </g>
                                    </g>
                                </g>
                            </g>
                        </g>
                    </g>
                    <text id="Fichas-de-repaso" font-family="Montserrat-Medium, Montserrat" font-size="20" font-weight="400" letter-spacing="0.416666667" fill="#333E53">
                        <tspan x="82.1433333" y="196">Lecturas</tspan>
                    </text>
                </g>
                <g id="icono_01-" transform="translate(74.000000, 24.000000)">
                    <g id="Recurso-4">
                        <path d="M108.664001,53.928 C108.667236,75.7438034 95.5282031,95.4132813 75.3739575,103.76407 C55.2197119,112.114859 32.0195647,107.502298 16.592318,92.0773399 C1.16507125,76.6523814 -3.45093043,53.4529186 4.89686862,33.2974346 C13.2446677,13.1419505 32.9121964,0 54.728,0 C84.5129064,0 108.659582,24.143094 108.664001,53.928" id="Path" fill="#5A59A7" fill-rule="nonzero"></path>
                        <polyline id="Path" stroke="#FFFFFF" stroke-width="0.848" stroke-linecap="round" stroke-linejoin="round" points="81.104 118.512 84.04 120.84 81.104 123.168"></polyline>
                        <path d="M65.8,71.432 C65.8,71.432 65.376,68.888 65.352,68.816 C65.252135,68.60217 65.0868293,68.4256571 64.88,68.312 C64.6053589,68.1811082 64.3042027,68.1154014 64,68.12 L39.2,66.52 L39.608,67.552 L62.312,69.44 C62.88,69.536 64.392,71.696 65.8,71.432 Z" id="Path" fill="#B7B1AA" fill-rule="nonzero"></path>
                        <path d="M64.208,70.88 C64.208,70.88 64.04,69.8 64.024,69.728 C63.9211254,69.5136042 63.7531256,69.3372044 63.544,69.224 C63.2749809,69.0933049 62.9790529,69.0275432 62.68,69.032 L37.88,67.432 L38.288,68.464 L60.992,70.352 C61.544,70.448 62.808,71.152 64.208,70.88 Z" id="Path" fill="#DDDBD4" fill-rule="nonzero"></path>
                        <path d="M63.2,70.872 C63.2029374,70.8213759 63.2029374,70.7706241 63.2,70.72 C63.097476,70.5079819 62.9328471,70.3321917 62.728,70.216 C62.4557896,70.0863069 62.1575086,70.0206304 61.856,70.024 L37.056,68.424 L37.464,69.456 L60.432,70.624 C61.3399553,70.8266909 62.2704744,70.9100611 63.2,70.872 L63.2,70.872 Z" id="Path" fill="#FDFEFF" fill-rule="nonzero"></path>
                        <path d="M67.528,71.528 C67.528,71.528 66.072,69.32 66.04,69.248 C65.9629711,69.036117 65.9629711,68.803883 66.04,68.592 C66.1611006,68.3340264 66.3489059,68.1130791 66.584,67.952 L84.728,52.752 L85.136,53.792 L68.8,68 C68.472,68.424 68.8,70.952 67.528,71.528 Z" id="Path" fill="#B7B1AA" fill-rule="nonzero"></path>
                        <path d="M68.376,70.216 C68.376,70.216 67.752,69.28 67.72,69.216 C67.6437255,69.001238 67.6437255,68.766762 67.72,68.552 C67.8399362,68.2954266 68.0281337,68.0767854 68.264,67.92 L86.408,52.72 L86.816,53.752 L70.48,68 C70.152,68.384 69.664,69.6 68.376,70.216 Z" id="Path" fill="#DDDBD4" fill-rule="nonzero"></path>
                        <path d="M69.192,69.6 C69.1624361,69.5564344 69.1357139,69.5110067 69.112,69.464 C69.0394455,69.2486126 69.0394455,69.0153874 69.112,68.8 C69.2319362,68.5434266 69.4201337,68.3247854 69.656,68.168 L87.8,52.968 L88.216,54.008 L71.2,67.848 C70.6146388,68.5217806 69.9389037,69.1113662 69.192,69.6 Z" id="Path" fill="#FDFEFF" fill-rule="nonzero"></path>
                        <path d="M89.384,53.104 C88.8814627,53.0097749 88.3641572,53.1613989 87.992,53.512 L70.4,67.792 L84.48,103.408 L103.768,87.88 L90.512,54.328 C90.4432288,53.7176356 89.9867295,53.2222852 89.384,53.104 L89.384,53.104 Z" id="Path" fill="#E92928" fill-rule="nonzero"></path>
                        <path d="M60.872,70.504 L37.392,69.312 C36.8485991,69.412596 36.3426459,69.6586606 35.928,70.024 C35.6938761,70.4657327 35.5937828,70.9661991 35.64,71.464 C40,82.952 44.8,94.152 49.144,105.6 L74.264,106.688 C74.5938749,106.86837 74.9330102,107.031262 75.28,107.176 C72.904,101.792 62.912,75.816 60.872,70.504 Z" id="Path" fill="#D31718" fill-rule="nonzero"></path>
                        <line x1="60.656" y1="70.656" x2="60.672" y2="70.656" id="Path" fill="#363595" fill-rule="nonzero"></line>
                        <path d="M89.384,53.112 C88.879815,53.0031116 88.3545557,53.1531857 87.984,53.512 L70.4,67.792 L70.856,68.944 L89.904,53.344 C89.7488578,53.2310499 89.5716872,53.1520045 89.384,53.112 L89.384,53.112 Z" id="Path" fill="#AC0704" fill-rule="nonzero"></path>
                        <path d="M60.872,70.504 L37.384,69.312 C36.8427805,69.4191576 36.3384605,69.6644279 35.92,70.024 C35.8830942,70.0881988 35.851006,70.1550493 35.824,70.224 L61.312,71.664 C61.144,71.2 60.992,70.824 60.872,70.504 Z" id="Path" fill="#AC0704" fill-rule="nonzero"></path>
                        <path d="M70.592,67.816 L69.88,68.4 C68.8161686,69.3527412 67.5577049,70.0625038 66.192,70.48 C64.3987699,71.0186568 62.4959021,71.079328 60.672,70.656 L75.2,107.408 C77.1623457,108.185339 79.3579742,108.121697 81.272,107.232 C82.7793509,106.479464 83.9291743,105.162916 84.472,103.568 L84.544,103.512 C81.752,96.84 72.552,72.92 70.592,67.816 Z" id="Path" fill="#C00F07" fill-rule="nonzero"></path>
                        <path d="M68.8,80 C70.7588257,79.4237994 72.5798157,78.4547823 74.152,77.152 C73.536,75.552 72.984,74.12 72.552,72.896 C71.1287194,73.9297223 69.537218,74.7092332 67.848,75.2 C66.1671762,75.6991432 64.4161769,75.9207203 62.664,75.856 L64.56,80.656 C65.9958323,80.6224824 67.4211717,80.4019582 68.8,80 L68.8,80 Z" id="Path" fill="#F6F407" fill-rule="nonzero"></path>
                        <path d="M78.12,103.392 C76.7417794,103.795626 75.3158641,104.013548 73.88,104.04 L74.52,105.64 C75.9560844,105.609342 77.3817956,105.38876 78.76,104.984 C80.6878943,104.413072 82.482797,103.463949 84.04,102.192 L83.392,100.592 C81.8396418,101.868569 80.0469285,102.820693 78.12,103.392 Z" id="Path" fill="#F6F407" fill-rule="nonzero"></path>
                        <path d="M72.128,99.608 L73.064,101.968 C74.5043077,101.968 75.9373047,101.763286 77.32,101.36 C79.2488914,100.794845 81.0333791,99.8207435 82.552,98.504 L81.6,96.152 C80.0802351,97.4670952 78.2961238,98.4409908 76.368,99.008 C74.991012,99.4114957 73.5628775,99.6135902 72.128,99.608 L72.128,99.608 Z" id="Path" fill="#F6F407" fill-rule="nonzero"></path>
                        <polygon id="Path" fill="#C00F07" fill-rule="nonzero" points="76 69.792 78.424 75.944 91.504 65.616 89.048 59.4"></polygon>
                        <path d="M60.872,71.2 C62.6325935,71.6325904 64.4742544,71.6105676 66.224,71.136 C67.9787712,70.6617926 69.5628519,69.6991377 70.792,68.36" id="Path" stroke="#AC0704" stroke-width="2.312" stroke-linecap="round" stroke-linejoin="round"></path>
                        <path d="M50.216,105.088 L50.216,105.088 C50.0019815,105.162231 49.7665774,105.061838 49.672,104.856 L36.568,71.704 C36.5270613,71.6067427 36.5288751,71.4967586 36.5729986,71.4009041 C36.6171221,71.3050496 36.6994939,71.2321478 36.8,71.2 L36.8,71.2 C37.0140185,71.1257691 37.2494226,71.226162 37.344,71.432 L50.448,104.584 C50.4889387,104.681257 50.4871249,104.791241 50.4430014,104.887096 C50.3988779,104.98295 50.3165061,105.055852 50.216,105.088 L50.216,105.088 Z" id="Path" fill="url(#linearGradient-6)" fill-rule="nonzero" opacity="0.64"></path>
                        <path d="M102.992,88.44 L102.992,88.44 C102.777981,88.5142309 102.542577,88.413838 102.448,88.208 L89.344,55.056 C89.3091993,54.9574048 89.3170242,54.8487713 89.3655959,54.7561815 C89.4141677,54.6635916 89.4990995,54.5954077 89.6,54.568 L89.6,54.568 C89.8140185,54.4937691 90.0494226,54.594162 90.144,54.8 L103.248,88 C103.294232,88.1915516 103.181373,88.3855279 102.992,88.44 L102.992,88.44 Z" id="Path" fill="url(#linearGradient-7)" fill-rule="nonzero" opacity="0.64"></path>
                        <path d="M72.632,99.456 L72.432,99.52 C72.2710831,99.572469 72.0962595,99.4970549 72.024,99.344 L64.824,81.136 C64.7990836,81.0617598 64.8054731,80.9805743 64.8416966,80.9111461 C64.8779201,80.8417178 64.9408538,80.7900336 65.016,80.768 L65.224,80.704 C65.3824852,80.6561039 65.5522391,80.7307956 65.624,80.88 L72.824,99.088 C72.8514091,99.16217 72.8461798,99.2444713 72.8096035,99.3145758 C72.7730273,99.3846802 72.7085146,99.4360511 72.632,99.456 L72.632,99.456 Z" id="Path" fill="#C00F07" fill-rule="nonzero" opacity="0.64"></path>
                        <path d="M84.464,104.288 L84.464,104.288 C84.252201,104.361451 84.0194094,104.26069 83.928,104.056 L70.824,70.896 C70.7865815,70.7974959 70.7931837,70.6876771 70.8421341,70.5943654 C70.8910844,70.5010538 70.9776864,70.433202 71.08,70.408 L71.08,70.408 C71.2937266,70.3396152 71.5246736,70.4430243 71.616,70.648 L84.72,103.8 C84.7574185,103.898504 84.7508163,104.008323 84.7018659,104.101635 C84.6529156,104.194946 84.5663136,104.262798 84.464,104.288 Z" id="Path" fill="#C00F07" fill-rule="nonzero" opacity="0.64"></path>
                        <path d="M42.12,42.144 C42.12,42.144 43.552,39.744 43.584,39.672 C43.6458073,39.4424076 43.6230952,39.1982526 43.52,38.984 C43.3724406,38.7205267 43.1533316,38.5041912 42.888,38.36 L22,23.808 L21.6,24.912 L40.48,38.584 C40.864,38.976 40.672,41.6 42.12,42.144 Z" id="Path" fill="#B7B1AA" fill-rule="nonzero"></path>
                        <path d="M41.104,40.84 C41.104,40.84 41.72,39.816 41.752,39.752 C41.814535,39.5224703 41.7917988,39.2780568 41.688,39.064 C41.5404406,38.8005267 41.3213316,38.5841912 41.056,38.44 L20.168,23.88 L19.8,24.992 L38.648,38.664 C39.04,39.056 39.656,40.32 41.104,40.84 Z" id="Path" fill="#DDDBD4" fill-rule="nonzero"></path>
                        <path d="M40.176,40.272 C40.176,40.272 40.216,40.2 40.248,40.128 C40.312298,39.8993577 40.2924275,39.6552345 40.192,39.44 C40.0376884,39.1789955 39.8168269,38.9636555 39.552,38.816 L18.672,24.264 L18.296,25.368 L37.88,38.56 C38.5617008,39.2350044 39.3345325,39.8112622 40.176,40.272 L40.176,40.272 Z" id="Path" fill="#FDFEFF" fill-rule="nonzero"></path>
                        <path d="M43.592,43.152 C43.592,43.152 43.872,40.48 43.888,40.408 C43.984773,40.1752818 44.1528203,39.9792267 44.368,39.848 C44.6553379,39.6897804 44.9761347,39.6020411 45.304,39.592 L72.248,36.192 L71.872,37.296 L47.2,40.8 C46.64,40.984 45.144,43.336 43.592,43.152 Z" id="Path" fill="#B7B1AA" fill-rule="nonzero"></path>
                        <path d="M45.28,42.472 C45.28,42.472 45.384,41.336 45.4,41.264 C45.5020578,41.0321294 45.6722653,40.8368093 45.888,40.704 C46.1749868,40.5449161 46.495997,40.4571184 46.824,40.448 L73.76,37.048 L73.392,38.16 L48.736,41.68 C48.16,41.848 46.832,42.656 45.28,42.472 Z" id="Path" fill="#DDDBD4" fill-rule="nonzero"></path>
                        <path d="M46.4,42.4 C46.4,42.4 46.4,42.312 46.4,42.24 C46.5015608,42.0057216 46.6716956,41.8076959 46.888,41.672 C47.1731839,41.5166463 47.4913363,41.4316228 47.816,41.424 L74.76,38.024 L74.4,39.128 L49.456,41.92 C48.4610039,42.2053143 47.4345539,42.3665368 46.4,42.4 Z" id="Path" fill="#FDFEFF" fill-rule="nonzero"></path>
                        <path d="M76.144,38.936 C75.7294564,38.5632478 75.1587916,38.4168469 74.616,38.544 L48.8,41.472 L36,79.544 L64.208,76.44 L76.28,40.584 C76.6536824,40.0780986 76.5955606,39.3737988 76.144,38.936 Z" id="Path" fill="#2C5818" fill-rule="nonzero"></path>
                        <path d="M38.4,38.744 L18.4,25.256 C17.8235991,25.0498625 17.2045921,24.9920886 16.6,25.088 C16.0865044,25.3373532 15.6436834,25.7114132 15.312,26.176 C10.984,38.344 7.312,50.52 2.984,62.688 L24.584,76.96 C24.7427694,77.2938604 24.9273287,77.6148332 25.136,77.92 C26.816,72 36.432,44.384 38.4,38.744 Z" id="Path" fill="#3C6919" fill-rule="nonzero"></path>
                        <line x1="38.096" y1="38.76" x2="38.112" y2="38.768" id="Path" fill="#363595" fill-rule="nonzero"></line>
                        <path d="M76.144,38.928 C75.7225517,38.5622574 75.1531721,38.416947 74.608,38.536 L48.8,41.472 L48.384,42.704 L76.44,39.416 C76.3783396,39.2335829 76.277282,39.0669744 76.144,38.928 L76.144,38.928 Z" id="Path" fill="#123F25" fill-rule="nonzero"></path>
                        <path d="M38.4,38.744 L18.4,25.248 C17.819172,25.0490911 17.1987328,24.994185 16.592,25.088 C16.5115255,25.1216103 16.4339337,25.161744 16.36,25.208 L37.968,40 C38.136,39.488 38.28,39.08 38.4,38.744 Z" id="Path" fill="#123F25" fill-rule="nonzero"></path>
                        <path d="M48.96,41.6 L47.904,41.72 C46.324651,41.9815302 44.708937,41.924409 43.152,41.552 C41.2472781,41.1114243 39.502401,40.1503571 38.112,38.776 L24.856,78.04 C26.1697425,79.8222468 28.1927189,80.9461226 30.4,81.12 C32.3367191,81.2680536 34.2676046,80.7670367 35.888,79.696 L35.984,79.696 C38.208,72.448 47.064,47.016 48.96,41.6 Z" id="Path" fill="#3C6919" fill-rule="nonzero"></path>
                        <path d="M38.688,51.112 C40.903094,51.6592852 43.1999003,51.79487 45.464,51.512 C46.048,49.816 46.584,48.312 47.064,46.976 C45.1196721,47.1212336 43.1646173,46.9565121 41.272,46.488 C39.4747218,46.0414391 37.7636461,45.300784 36.208,44.296 L34.472,49.424 C35.7948401,50.1740936 37.2130172,50.7419026 38.688,51.112 L38.688,51.112 Z" id="Path" fill="#F6F407" fill-rule="nonzero"></path>
                        <path d="M30.32,76.144 C28.8376692,75.773074 27.4116694,75.2053646 26.08,74.456 L25.504,76.168 C26.8305531,76.9221387 28.2545783,77.4901336 29.736,77.856 C31.9219568,78.397681 34.1884081,78.5359454 36.424,78.264 C36.6,77.736 36.784,77.16 36.984,76.552 C34.7562662,76.8199362 32.4984092,76.6817 30.32,76.144 Z" id="Path" fill="#F6F407" fill-rule="nonzero"></path>
                        <path d="M27.68,69.72 L26.832,72.232 C28.1437446,73.0178527 29.5644254,73.6055347 31.048,73.976 C33.2355708,74.5138996 35.5062932,74.6252628 37.736,74.304 L38.584,71.784 C36.3550334,72.1125426 34.0834166,72.0038528 31.896,71.464 C30.4124254,71.0935347 28.9917446,70.5058527 27.68,69.72 L27.68,69.72 Z" id="Path" fill="#F6F407" fill-rule="nonzero"></path>
                        <polygon id="Path" fill="#123F25" fill-rule="nonzero" points="52.352 46.16 50.136 52.728 69.12 50.8 71.36 44.16"></polygon>
                        <path d="M48.12,42.944 C46.2584303,43.2711928 44.3481268,43.1920516 42.52,42.712 C40.5592494,42.2084924 38.7743765,41.17631 37.36,39.728 C37.2333416,39.599441 37.1722421,39.4201285 37.1940514,39.2409802 C37.2158608,39.0618319 37.3181968,38.9024158 37.472,38.808 C37.7932809,38.5576388 38.2513771,38.5886378 38.536,38.88 C39.7613788,40.1295118 41.3050123,41.0202824 43,41.456 C44.8333216,41.9397489 46.7586555,41.9562518 48.6,41.504 C48.9771287,41.4076949 49.3688406,41.5967972 49.528,41.952 C49.5677868,42.1308102 49.5319361,42.3181136 49.4289303,42.4695926 C49.3259246,42.6210717 49.1649158,42.7232676 48.984,42.752 C48.728,42.824 48.44,42.888 48.12,42.944 Z" id="Path" fill="#123F25" fill-rule="nonzero"></path>
                        <path d="M4.288,62.792 L4.288,62.792 C4.18254897,62.7697658 4.09129451,62.7042426 4.03652025,62.6114307 C3.98174598,62.5186187 3.96849388,62.4070614 4,62.304 L16,26.872 C16.0924161,26.6449586 16.3389172,26.5217081 16.576,26.584 L16.576,26.584 C16.6846101,26.6027188 16.7803231,26.6662937 16.8396897,26.7591492 C16.8990564,26.8520047 16.9165918,26.965562 16.888,27.072 L4.864,62.512 C4.7660607,62.7333952 4.52260343,62.8517425 4.288,62.792 Z" id="Path" fill="url(#linearGradient-8)" fill-rule="nonzero" opacity="0.64"></path>
                        <path d="M63.08,76.504 L63.08,76.504 C62.9699243,76.4872675 62.8721572,76.4245154 62.811103,76.3314078 C62.7500489,76.2383003 62.7314685,76.1236224 62.76,76.016 L74.76,40.584 C74.8553337,40.3601089 75.1010433,40.2406667 75.336,40.304 L75.336,40.304 C75.4458522,40.320326 75.5432561,40.3834127 75.6030792,40.4769821 C75.6629023,40.5705516 75.679285,40.6854388 75.648,40.792 L63.648,76.224 C63.5586567,76.4493405 63.3131434,76.5703682 63.08,76.504 L63.08,76.504 Z" id="Path" fill="url(#linearGradient-9)" fill-rule="nonzero" opacity="0.64"></path>
                        <g id="Group" opacity="0.73" style="mix-blend-mode: multiply;" transform="translate(27.200000, 49.600000)" fill="#123F25" fill-rule="nonzero">
                            <path d="M0.912,20.16 L0.68,20.104 C0.598972613,20.0893346 0.528097996,20.0406872 0.485283555,19.9703491 C0.442469114,19.9000111 0.431810226,19.8147107 0.456,19.736 L7.312,0.344 C7.38175446,0.178696143 7.56258144,0.0899885667 7.736,0.136 L7.968,0.192 C8.04902739,0.206665425 8.119902,0.255312849 8.16271644,0.32565086 C8.20553089,0.39598887 8.21618977,0.481289347 8.192,0.56 L1.336,19.952 C1.26904833,20.1199255 1.08577639,20.2098325 0.912,20.16 L0.912,20.16 Z" id="Path"></path>
                        </g>
                        <g id="Group" opacity="0.73" style="mix-blend-mode: multiply;" transform="translate(34.400000, 43.200000)" fill="#123F25" fill-rule="nonzero">
                            <path d="M1.128,36.456 L1.128,36.456 C1.0233876,36.440349 0.929540218,36.3830851 0.867774093,36.2972151 C0.806007968,36.2113451 0.781566045,36.104158 0.8,36 L12.8,0.528 C12.8953337,0.304108873 13.1410433,0.184666737 13.376,0.248 L13.376,0.248 C13.4858522,0.264326006 13.5832561,0.327412665 13.6430792,0.42098213 C13.7029023,0.514551596 13.719285,0.629438751 13.688,0.736 L1.704,36.168 C1.61158389,36.3950414 1.36508275,36.5182919 1.128,36.456 L1.128,36.456 Z" id="Path"></path>
                        </g>
                    </g>
                </g>
            </g>
        </g>
    </g>
</svg>