<?xml version="1.0" encoding="UTF-8"?>
<svg width="311px" height="366px" viewBox="0 0 311 366" version="1.1" xmlns="http://www.w3.org/2000/svg" xmlns:xlink="http://www.w3.org/1999/xlink">
    <!-- Generator: Sketch 63.1 (92452) - https://sketch.com -->
    <title>libros@2x</title>
    <desc>Created with Sketch.</desc>
    <defs>
        <rect id="path-1" x="0" y="0" width="255" height="310" rx="8"></rect>
        <filter x="-16.9%" y="-13.2%" width="133.7%" height="127.7%" filterUnits="objectBoundingBox" id="filter-3">
            <feOffset dx="0" dy="2" in="SourceAlpha" result="shadowOffsetOuter1"></feOffset>
            <feGaussianBlur stdDeviation="14" in="shadowOffsetOuter1" result="shadowBlurOuter1"></feGaussianBlur>
            <feColorMatrix values="0 0 0 0 0   0 0 0 0 0   0 0 0 0 0  0 0 0 0.06 0" type="matrix" in="shadowBlurOuter1"></feColorMatrix>
        </filter>
        <path d="M3.00025,7.99927241 C2.74425,7.99927241 2.48825,7.90127241 2.29325,7.70627241 C1.90225,7.31527241 1.90225,6.68327241 2.29325,6.29227241 L5.59825,2.98727241 L2.41825,-0.305727588 C2.03525,-0.703727588 2.04625,-1.33672759 2.44325,-1.71972759 C2.84125,-2.10272759 3.47425,-2.09172759 3.85725,-1.69572759 L7.71925,2.30427241 C8.09825,2.69727241 8.09325,3.32027241 7.70725,3.70627241 L3.70725,7.70627241 C3.51225,7.90127241 3.25625,7.99927241 3.00025,7.99927241" id="path-4"></path>
    </defs>
    <g id="Screens" stroke="none" stroke-width="1" fill="none" fill-rule="evenodd">
        <g id="Materias-" transform="translate(-707.000000, -1139.000000)">
            <g id="libros" transform="translate(735.000000, 1165.000000)">
                <g id="Group">
                    <mask id="mask-2" fill="white">
                        <use xlink:href="#path-1"></use>
                    </mask>
                    <g id="Mask">
                        <use fill="black" fill-opacity="1" filter="url(#filter-3)" xlink:href="#path-1"></use>
                        <use fill="#FFFFFF" fill-rule="evenodd" xlink:href="#path-1"></use>
                    </g>
                    <rect id="Rectangle" fill="#E4E9F2" fill-rule="nonzero" opacity="0.497465588" mask="url(#mask-2)" x="0" y="0" width="255" height="88"></rect>
                    <g id="atomo/-button/-primario/-228x48px/-active-copy-2" mask="url(#mask-2)">
                        <g transform="translate(27.000000, 232.000000)" id="Group">
                            <g>
                                <rect id="Rectangle" fill="#006DD0" x="0" y="0" width="200" height="48" rx="24"></rect>
                                <g id="Group-2" transform="translate(30.225131, 14.000000)">
                                    <g id="Group-3">
                                        <text id="Ver-actividades" font-family="Montserrat-Medium, Montserrat" font-size="16" font-weight="400" line-spacing="20" fill="#FFFFFF">
                                            <tspan x="0.410429319" y="15">Ver actividades</tspan>
                                        </text>
                                        <g id="Arrow_down" transform="translate(140.596859, 11.000000) rotate(-90.000000) translate(-140.596859, -11.000000) translate(135.596859, 8.000000)">
                                            <mask id="mask-5" fill="white">
                                                <use xlink:href="#path-4"></use>
                                            </mask>
                                            <use id="🎨-Icon-Сolor" fill="#FFFFFF" fill-rule="nonzero" transform="translate(5.000080, 2.999636) rotate(-270.000000) translate(-5.000080, -2.999636) " xlink:href="#path-4"></use>
                                        </g>
                                    </g>
                                </g>
                            </g>
                        </g>
                    </g>
                    <text id="Fichas-de-repaso" font-family="Montserrat-Medium, Montserrat" font-size="20" font-weight="400" letter-spacing="0.416666667" fill="#333E53">
                        <tspan x="49.405" y="186">Libros de texto</tspan>
                        <tspan x="79.705" y="210">gratuitos</tspan>
                    </text>
                </g>
                <g id="icono_01-" transform="translate(74.000000, 24.000000)">
                    <g id="Recurso-12" transform="translate(1.600000, 0.000000)">
                        <path d="M104.040001,51.6331915 C104.043098,72.5206628 91.4631731,91.3531416 72.166555,99.3485777 C52.8699369,107.344014 30.65703,102.927732 15.8862619,88.1591552 C1.11549375,73.3905779 -3.30408233,51.1783263 4.68849124,31.8805225 C12.6810648,12.5827186 31.5116774,0 52.3991489,0 C80.9148612,0.00422768134 104.031542,23.1174802 104.040001,51.6331915" id="Path" fill="#006DD0" fill-rule="nonzero"></path>
                        <path d="M59.3923404,100.677447 C59.3853747,98.6686913 59.6141736,96.6660584 60.0740426,94.7106383 L16.56,94.7106383 C13.2832967,94.7317268 10.6417323,97.4007004 10.6543885,100.677447 L10.6543885,100.677447 C10.6463213,102.251823 11.2639377,103.764952 12.3714443,104.88395 C13.4789509,106.002948 14.9856232,106.63615 16.56,106.644255 L60.0740426,106.644255 C59.613685,104.68892 59.3848795,102.68623 59.3923404,100.677447 Z" id="Path" fill="#FFFFFF" fill-rule="nonzero"></path>
                        <path d="M16.56,100.677447 L59.3923404,100.677447 C59.3853747,98.6686913 59.6141736,96.6660584 60.0740426,94.7106383 L16.56,94.7106383 C13.2832967,94.7317268 10.6417323,97.4007004 10.6541867,100.677447 L10.6541867,100.677447 C10.6443285,101.72302 10.9084232,102.75299 11.4204255,103.664681 C12.4674524,101.81287 14.432696,100.670627 16.56,100.677447 L16.56,100.677447 Z" id="Path" fill="#010103" fill-rule="nonzero" opacity="0.1"></path>
                        <path d="M60.6331915,107.938723 L16.56,107.938723 C12.5412473,107.938723 9.28340456,104.68088 9.28340456,100.662128 C9.28340456,96.6433749 12.5412473,93.3855319 16.56,93.3855319 L60.6331915,93.3855319 C61.3481064,93.3855319 61.9276596,93.9650851 61.9276596,94.68 C61.9276596,95.3949149 61.3481064,95.974468 60.6331915,95.9744681 L16.56,95.9744681 C13.9795377,95.9744682 11.8876599,98.0663463 11.8876599,100.646809 C11.8876599,103.227271 13.9795377,105.319149 16.56,105.319149 L60.6331915,105.319149 C61.3481065,105.319149 61.9276596,105.898702 61.9276596,106.613617 C61.9276596,107.328532 61.3481065,107.908085 60.6331915,107.908085 L60.6331915,107.938723 Z" id="Path" fill="#FF8810" fill-rule="nonzero"></path>
                        <path d="M66.8451064,71.6170213 C66.8369206,69.6077553 67.0683414,67.6046801 67.5344681,65.6502128 L24.0204255,65.6502128 C22.4460488,65.6583176 20.9393764,66.29152 19.8318698,67.4105183 C18.7243632,68.5295165 18.1067468,70.0426447 18.1147694,71.6170213 L18.1147694,71.6170213 C18.1047068,73.1927208 18.7214207,74.7078189 19.8291477,75.8284766 C20.9368748,76.9491343 22.4447139,77.5833895 24.0204255,77.5914894 L67.5344681,77.5914894 C67.0677361,75.6345309 66.8363111,73.6288483 66.8451064,71.6170213 L66.8451064,71.6170213 Z" id="Path" fill="#FFFFFF" fill-rule="nonzero"></path>
                        <path d="M24.0204255,71.6170213 L66.8451064,71.6170213 C66.8369206,69.6077553 67.0683414,67.6046801 67.5344681,65.6502128 L24.0204255,65.6502128 C22.4460488,65.6583176 20.9393764,66.29152 19.8318698,67.4105183 C18.7243632,68.5295165 18.1067468,70.0426447 18.1147723,71.6170213 L18.1147723,71.6170213 C18.1082817,72.6621642 18.3721484,73.6912444 18.8808511,74.6042553 C19.929071,72.7536238 21.8935558,71.611822 24.0204255,71.6170213 Z" id="Path" fill="#010103" fill-rule="nonzero" opacity="0.1"></path>
                        <path d="M68.0859574,78.893617 L24.0204255,78.893617 C20.0016727,78.893617 16.7438298,75.6357741 16.7438298,71.6170213 C16.7438298,67.5982684 20.0016727,64.3404255 24.0204255,64.3404255 L68.0859574,64.3404255 C68.8008724,64.3404255 69.3804255,64.9199786 69.3804255,65.6348936 C69.3804255,66.3498086 68.8008724,66.9293617 68.0859574,66.9293617 L24.0204255,66.9293617 C21.5114258,67.0309273 19.5297193,69.0944773 19.5297193,71.6055319 C19.5297193,74.1165866 21.5114258,76.1801365 24.0204255,76.2817021 L68.0859574,76.2817021 C68.8008724,76.2817022 69.3804255,76.8612553 69.3804255,77.5761702 C69.3804255,78.2910852 68.8008724,78.8706382 68.0859574,78.8706383 L68.0859574,78.893617 Z" id="Path" fill="#FF8810" fill-rule="nonzero"></path>
                        <path d="M6.4493617,86.147234 C6.45632743,84.1384785 6.22752856,82.1358457 5.76765957,80.1804255 L49.2817021,80.1804255 C52.5584054,80.201514 55.1999698,82.8704877 55.1873153,86.147234 L55.1873153,86.147234 C55.2042079,89.4269648 52.561409,92.1006135 49.2817021,92.1217021 L5.76765957,92.1217021 C6.22798484,90.1637649 6.45678583,88.1585427 6.4493617,86.147234 Z" id="Path" fill="#FFFFFF" fill-rule="nonzero"></path>
                        <path d="M49.2817021,86.147234 L6.4493617,86.147234 C6.45632743,84.1384785 6.22752856,82.1358457 5.76765957,80.1804255 L49.2817021,80.1804255 C52.5584054,80.201514 55.1999698,82.8704877 55.1875154,86.147234 L55.1875154,86.147234 C55.1973737,87.1928077 54.933279,88.222777 54.4212766,89.1344681 C53.3742497,87.2826572 51.4090061,86.1404143 49.2817021,86.147234 L49.2817021,86.147234 Z" id="Path" fill="#010103" fill-rule="nonzero" opacity="0.1"></path>
                        <path d="M5.20851064,93.4468085 L49.2817021,93.4468085 C53.300455,93.4468085 56.5582979,90.1889656 56.5582979,86.1702128 C56.5582979,82.1514599 53.300455,78.893617 49.2817021,78.893617 L5.20851064,78.893617 C4.49359566,78.893617 3.91404255,79.4731701 3.91404255,80.1880851 C3.91404255,80.9030001 4.49359566,81.4825532 5.20851064,81.4825532 L49.2817021,81.4825532 C51.7907019,81.5841188 53.7724083,83.6476688 53.7724083,86.1587234 C53.7724083,88.669778 51.7907019,90.733328 49.2817021,90.8348936 L5.20851064,90.8348936 C4.49359566,90.8348936 3.91404255,91.4144467 3.91404255,92.1293617 C3.91404255,92.8442767 4.49359566,93.4238298 5.20851064,93.4238298 L5.20851064,93.4468085 Z" id="Path" fill="#7A268F" fill-rule="nonzero"></path>
                        <path d="M15.3191489,16.4144681 C13.5706527,15.7567573 11.7792432,15.2193344 9.95744681,14.8059574 C8.6093617,14.6757447 8.42553191,15.7251064 8.73191489,16.8204255 C9.03829787,17.9157447 24.3497872,63.3753191 25.9812766,64.9608511 C25.9812766,64.9608511 37.8,58.067234 43.4068085,58.067234 C49.013617,58.067234 55.1489362,61.2765957 56.16,63.0842553 C57.1710638,64.8919149 63.8195745,64.6161702 65.8187234,62.4485106 C67.8178723,60.2808511 70.4144681,51.8859574 76.3889362,49.3659574 C82.3634043,46.8459574 91.5165957,47.5889362 92.3131915,47.3131915 C93.1097872,47.0374468 93.24,44.8238298 91.3634043,44.0195745 C89.4868085,43.2153191 15.3191489,16.4144681 15.3191489,16.4144681 Z" id="Path" fill="#FC4E34" fill-rule="nonzero"></path>
                        <path d="M56.16,63.0842553 C57.1634043,64.8765957 63.8195745,64.6161702 65.8187234,62.4485106 C67.8178723,60.2808511 70.4144681,51.8859574 76.3889362,49.3659574 C82.3634043,46.8459574 91.5165957,47.5889362 92.3131915,47.3131915 C93.1097872,47.0374468 93.24,44.8238298 91.3634043,44.0195745 C90.9344681,43.8280851 86.7676596,42.2885106 80.5097872,40.0212766 C63.1838298,42.0434043 33.9242553,47.4893617 30.8451064,51.9931915 C27.8502128,56.3974468 26.6017021,61.9965957 26.1268085,64.8765957 C27.4978723,64.1106383 38.1676596,58.0519149 43.4068085,58.0748936 C49.0212766,58.1055319 55.1489362,61.2765957 56.16,63.0842553 Z" id="Path" fill="#FC4E34" fill-rule="nonzero"></path>
                        <path d="M15.8246809,11.4893617 L15.5182979,14.5531915 C15.5182979,14.5531915 13.8025532,13.3123404 13.5268085,14.3540426 C13.5657188,14.9650585 13.6527977,15.5720499 13.787234,16.1693617 C13.787234,16.1693617 12.4161702,14.4382979 11.9795745,14.5531915 C11.5429787,14.6680851 12.2017021,16.6212766 12.2017021,16.6212766 L10.8382979,15.7710638 C10.8382979,15.7710638 10.5778723,15.84 11.16,17.6706383 C11.7421277,19.5012766 26.0425532,61.9429787 26.9846809,62.5710638 C26.9846809,62.5710638 37.9761702,55.4017021 46.0110638,56.6502128 C54.0459574,57.8987234 56.5659574,61.5293617 57.2553191,62.3029787 C57.9446809,63.0765957 63.9038298,62.0808511 64.5702128,61.3455319 C65.2365957,60.6102128 68.5838298,49.212766 78.2578723,46.7923404 C87.9319149,44.3719149 90.827234,46.026383 91.44,45.7965957 C92.052766,45.5668085 91.5625532,44.5634043 91.5625532,44.5634043 C91.7711663,44.1590033 91.9060408,43.7206611 91.9608511,43.2689362 C91.8995745,42.9089362 90.107234,42.9931915 90.107234,42.9931915 C90.107234,42.9931915 91.1795745,42.48 91.1412766,42.0280851 C91.1029787,41.5761702 89.747234,41.5378723 89.747234,41.5378723 C89.747234,41.5378723 90.9804255,41.0323404 90.413617,40.7719149 L89.8391489,40.5344681 L54.4519149,35.0808511 L15.8246809,11.4893617 Z" id="Path" fill="#DFDFD7" fill-rule="nonzero"></path>
                        <path d="M47.267234,18.72 C47.267234,18.72 32.9361702,7.65957447 15.8246809,11.4893617 C15.8246809,11.4893617 29.466383,52.3302128 31.067234,56.2212766 C31.067234,56.2212766 48.6153191,45.1685106 60.4034043,57.1940426 C60.4034043,57.1940426 71.1804255,38.5353191 89.8391489,40.572766 C89.8391489,40.572766 77.6834043,17.6629787 75.5693617,8.20340426 C75.5693617,8.20340426 56.2365957,3.06382979 47.267234,18.72 Z" id="Path" fill="#FFFFFF" fill-rule="nonzero"></path>
                        <path d="M47.267234,18.72 C47.267234,18.72 48.4314894,21.0178723 49.9097872,24.5259574 C50.2774468,25.4068085 50.6757447,26.3565957 51.0893617,27.3753191 C51.5029787,28.3940426 51.9319149,29.4587234 52.3378723,30.5770213 C52.7438298,31.6953191 53.1880851,32.8748936 53.6246809,34.0238298 C54.0612766,35.172766 54.467234,36.4059574 54.8885106,37.6008511 C55.3097872,38.7957447 55.6544681,40.013617 56.0910638,41.2008511 C56.5276596,42.3880851 56.8570213,43.5676596 57.1940426,44.7089362 C57.5310638,45.8502128 57.8757447,46.9531915 58.1668085,48.0025532 C58.4578723,49.0519149 58.7412766,50.0553191 58.9787234,50.9821277 C59.4689362,52.8204255 59.8212766,54.3829787 60.0587234,55.4706383 C60.2961702,56.5582979 60.4034043,57.1940426 60.4034043,57.1940426 L59.6374468,55.6161702 C59.1548936,54.5974468 58.4885106,53.1497872 57.7455319,51.3880851 C57.3625532,50.5148936 56.9795745,49.5574468 56.5659574,48.5387234 C56.1523404,47.52 55.7310638,46.4553191 55.3174468,45.3370213 C54.9038298,44.2187234 54.4519149,43.0391489 54.0459574,41.8902128 C53.64,40.7412766 53.2034043,39.5080851 52.7821277,38.2978723 L51.5948936,34.6978723 C51.227234,33.5029787 50.8289362,32.3234043 50.507234,31.1897872 C50.1855319,30.0561702 49.8485106,28.9378723 49.5421277,27.8885106 C49.2357447,26.8391489 48.9753191,25.8357447 48.7302128,24.9165957 C47.7421277,21.24 47.267234,18.72 47.267234,18.72 Z" id="Path" fill="#B4B2A8" fill-rule="nonzero"></path>
                        <path d="M15.8246809,11.4893617 C15.8246809,11.4893617 17.4025532,11.3744681 20.16,11.3974468 C23.977289,11.4208247 27.7873287,11.733207 31.5574468,12.3319149 C34.101816,12.7146433 36.6118161,13.2986025 39.0638298,14.0782979 C41.834658,14.8935712 44.4568667,16.1477834 46.8306383,17.7931915 L47.1293617,18 L47.1676596,18 L47.1676596,17.946383 L47.2902128,17.7625532 L47.4434043,17.5480851 C47.6425532,17.2646809 47.8493617,16.9812766 48.0638298,16.7131915 C48.4851064,16.1540426 48.96,15.6485106 49.4195745,15.1276596 C50.3688849,14.1221655 51.3930997,13.19013 52.4834043,12.3395745 C55.0321661,10.3942462 57.9203926,8.9397436 61.0008511,8.05021277 C62.544582,7.60842072 64.1230063,7.29837308 65.7191489,7.12340426 L68.1012766,6.98553191 C68.4962699,6.95104432 68.8935173,6.95104432 69.2885106,6.98553191 L70.4680851,7.06212766 C72.0104903,7.13980393 73.5458944,7.32149342 75.0638298,7.60595745 L75.4085106,7.65957447 L75.6689362,7.69787234 L75.7991489,7.69787234 L75.8680851,7.69787234 C75.8708207,7.71820628 75.8708207,7.738815 75.8680851,7.75914894 L76.1821277,8.52510638 L76.6034043,9.56680851 C76.8868085,10.2638298 77.1625532,10.9531915 77.4459574,11.6348936 C78.5719149,14.3540426 79.667234,16.9965957 80.7089362,19.4859574 L83.7038298,26.4944681 C85.6953191,30.8604255 87.3191489,34.4680851 88.506383,36.9191489 C89.0885106,38.1676596 89.5710638,39.1404255 89.9080851,39.7991489 L90.413617,40.8102128 L89.8544681,39.8297872 C89.4791489,39.1940426 88.9506383,38.2519149 88.3225532,37.0340426 C87.0204255,34.6059574 85.2587234,31.0902128 83.2289362,26.8085106 C82.2178723,24.6714894 81.1531915,22.3429787 80.0502128,19.8689362 C78.947234,17.3948936 77.7753191,14.7753191 76.5957447,12.0561702 C76.3046809,11.3744681 76.013617,10.692766 75.7225532,9.99574468 L75.2859574,8.95404255 L75.1787234,8.69361702 L75.1787234,8.69361702 L75.1787234,8.69361702 L74.9565957,8.69361702 C73.4737785,8.41386166 71.9745211,8.22965255 70.4680851,8.14212766 L69.3191489,8.09617021 C68.9393397,8.06554711 68.5576816,8.06554711 68.1778723,8.09617021 L65.88,8.23404255 C64.3485426,8.4088309 62.8343488,8.71115723 61.3531915,9.13787234 C57.0992238,10.3587222 53.2403608,12.6750965 50.1625532,15.8553191 C49.7182979,16.3531915 49.2510638,16.8280851 48.8451064,17.387234 C48.6306383,17.6476596 48.4314894,17.9080851 48.24,18.1531915 L48.0944681,18.36 L47.9259574,18.5974468 C47.7497872,18.8578723 47.5812766,19.1489362 47.412766,19.4246809 L46.2255319,18.5897872 C43.9485707,16.964765 41.4313009,15.7061301 38.7651064,14.8595745 C36.3773824,14.0436317 33.932361,13.406134 31.4502128,12.9523404 C27.7178349,12.2589765 23.9436062,11.8137455 20.1523404,11.6195745 C17.4025532,11.4893617 15.8246809,11.4893617 15.8246809,11.4893617 Z" id="Path" fill="#B4B2A8" fill-rule="nonzero"></path>
                        <path d="M15.4876596,14.8059574 C15.9457079,15.5260776 16.3650267,16.2701129 16.7438298,17.0348936 C16.9123404,17.3795745 17.1038298,17.747234 17.2876596,18.1455319 C17.4714894,18.5438298 17.6706383,18.9651064 17.8468085,19.4093617 L18.3829787,20.772766 C18.5591489,21.24 18.7353191,21.7225532 18.9114894,22.1974468 C19.0876596,22.6723404 19.2408511,23.1625532 19.3940426,23.6451064 C19.547234,24.1276596 19.692766,24.5948936 19.8229787,25.0544681 C19.9531915,25.5140426 20.0757447,25.9582979 20.1753191,26.387234 C20.2748936,26.8161702 20.3744681,27.2221277 20.4510638,27.5974468 C20.6119149,28.3634043 20.7038298,28.9761702 20.772766,29.4280851 L20.8570213,30.1251064 C20.8570213,30.1251064 20.7421277,29.8953191 20.5506383,29.4893617 C20.3591489,29.0834043 20.106383,28.493617 19.8229787,27.7889362 L19.3634043,26.6476596 C19.2025532,26.2417021 19.0340426,25.812766 18.8731915,25.3608511 C18.7123404,24.9089362 18.5361702,24.4646809 18.3676596,23.9897872 C18.1991489,23.5148936 18.0382979,23.0476596 17.8621277,22.5651064 L17.3719149,21.1404255 C17.2187234,20.6655319 17.0655319,20.1982979 16.9123404,19.7540426 C16.7591489,19.3097872 16.6289362,18.8578723 16.4910638,18.4442553 C16.3531915,18.0306383 16.2459574,17.6323404 16.1310638,17.2723404 C15.7174468,15.8093617 15.4876596,14.8059574 15.4876596,14.8059574 Z" id="Path" fill="#B4B2A8" fill-rule="nonzero"></path>
                        <path d="M13.5880851,16.4144681 C13.8705839,16.6410784 14.1274322,16.8979268 14.3540426,17.1804255 C14.4730207,17.3134167 14.5830493,17.454151 14.6834043,17.6017021 C14.7906383,17.7548936 14.9131915,17.9157447 15.012766,18.0919149 L15.3191489,18.6510638 L15.5948936,19.2408511 L15.8246809,19.853617 C15.8939553,20.0520965 15.9527597,20.2540767 16.0008511,20.4587234 C16.0523985,20.6499143 16.0907862,20.8444123 16.1157447,21.0408511 C16.1485678,21.2181705 16.1715815,21.397166 16.1846809,21.5770213 C16.2034781,21.8473332 16.2034781,22.1186243 16.1846809,22.3889362 L16.146383,22.7029787 L15.9625532,22.4425532 C15.8097302,22.2247337 15.6715533,21.9969977 15.5489362,21.7608511 C15.4595059,21.6145344 15.3776947,21.4636951 15.3038298,21.3089362 C15.2195745,21.1404255 15.1276596,20.9719149 15.0510638,20.7957447 C14.9744681,20.6195745 14.8748936,20.4280851 14.7982979,20.2365957 C14.7217021,20.0451064 14.6451064,19.853617 14.5608511,19.6621277 L14.3310638,19.08 L14.1242553,18.5131915 C14.0553191,18.3293617 14.0093617,18.1378723 13.9480851,17.9693617 C13.8868085,17.8008511 13.8408511,17.6246809 13.7948936,17.4714894 C13.7019589,17.1242714 13.6328618,16.7711082 13.5880851,16.4144681 L13.5880851,16.4144681 Z" id="Path" fill="#B4B2A8" fill-rule="nonzero"></path>
                        <path d="M12.6919149,17.7012766 C12.6919149,17.7012766 13.4578723,19.0723404 14.4153191,21.186383 C14.6604255,21.707234 14.9285106,22.2817021 15.1812766,22.8868085 C15.4340426,23.4919149 15.7480851,24.1353191 16.0314894,24.8017021 C16.3148936,25.4680851 16.6059574,26.1651064 16.9046809,26.8621277 C17.2034043,27.5591489 17.4868085,28.2868085 17.7778723,29.0068085 L18.6204255,31.1514894 C18.9038298,31.8638298 19.1642553,32.5685106 19.386383,33.2502128 C19.6085106,33.9319149 19.8765957,34.5906383 20.0987234,35.2187234 C20.3208511,35.8468085 20.52,36.4442553 20.7038298,36.9957447 C21.0714894,38.0987234 21.347234,39.0331915 21.5387234,39.6842553 L21.8297872,40.7182979 L21.3319149,39.7685106 C21.0178723,39.1634043 20.5659574,38.2978723 20.0910638,37.2408511 C19.8382979,36.7123404 19.5778723,36.1455319 19.3251064,35.532766 C19.0723404,34.92 18.7582979,34.2842553 18.4825532,33.6178723 C18.2068085,32.9514894 17.9157447,32.2621277 17.6170213,31.5574468 L16.7514894,29.412766 C16.4680851,28.692766 16.1846809,27.972766 15.9089362,27.2604255 C15.6331915,26.5480851 15.3804255,25.8434043 15.1429787,25.1617021 C14.9055319,24.48 14.6680851,23.8212766 14.4382979,23.1931915 C14.2085106,22.5651064 14.0170213,21.9676596 13.8331915,21.4161702 C13.0978723,19.2102128 12.6919149,17.7012766 12.6919149,17.7012766 Z" id="Path" fill="#B4B2A8" fill-rule="nonzero"></path>
                        <path d="M20.6119149,33.4493617 C20.6119149,33.4493617 21.293617,34.9353191 22.212766,37.187234 C22.4348936,37.7540426 22.6876596,38.3668085 22.9787234,39.0102128 C23.2697872,39.653617 23.507234,40.3429787 23.7829787,41.0476596 C24.0587234,41.7523404 24.3497872,42.4876596 24.6408511,43.2306383 L25.506383,45.4825532 C25.7897872,46.2485106 26.0808511,47.0144681 26.3565957,47.7421277 C26.6323404,48.4697872 26.9080851,49.2280851 27.1761702,49.9404255 C27.4442553,50.652766 27.6817021,51.3421277 27.9421277,52.0008511 C28.2025532,52.6595745 28.3940426,53.28 28.6008511,53.8544681 C28.9991489,55.0034043 29.3131915,55.9685106 29.5353191,56.6502128 C29.7574468,57.3319149 29.8646809,57.7148936 29.8646809,57.7148936 L29.3285106,56.7344681 C28.9914894,56.106383 28.5165957,55.2025532 27.9957447,54.0995745 C27.72,53.5557447 27.4442553,52.9582979 27.1608511,52.3225532 C26.8774468,51.6868085 26.5710638,51.012766 26.2723404,50.3080851 C25.973617,49.6034043 25.6595745,48.8834043 25.3685106,48.1404255 C25.0774468,47.3974468 24.786383,46.6085106 24.4876596,45.8425532 C24.1889362,45.0765957 23.9285106,44.3106383 23.6604255,43.5446809 C23.3923404,42.7787234 23.147234,42.012766 22.8944681,41.3234043 C22.6417021,40.6340426 22.4425532,39.8987234 22.2280851,39.2323404 C22.013617,38.5659574 21.8374468,37.9302128 21.6689362,37.3404255 C20.9489362,35.0502128 20.6119149,33.4493617 20.6119149,33.4493617 Z" id="Path" fill="#B4B2A8" fill-rule="nonzero"></path>
                        <path d="M27.4825532,59.2468085 C27.4825532,59.2468085 26.9846809,58.4042553 26.3719149,57.0944681 C26.2187234,56.7651064 26.0425532,56.412766 25.8817021,56.0297872 C25.7208511,55.6468085 25.5293617,55.2638298 25.3685106,54.8425532 L24.84,53.5557447 L24.3344681,52.2076596 L23.8519149,50.8595745 C23.6910638,50.4153191 23.5531915,49.9710638 23.4229787,49.5421277 C23.292766,49.1131915 23.1548936,48.6919149 23.04,48.293617 C22.9251064,47.8953191 22.8255319,47.5276596 22.733617,47.1676596 C22.5497872,46.4706383 22.427234,45.8731915 22.3429787,45.4595745 C22.2587234,45.0459574 22.2204255,44.8008511 22.2204255,44.8008511 L22.5574468,45.3829787 C22.7565957,45.7506383 23.0476596,46.2868085 23.3234043,46.9148936 C23.4842553,47.2365957 23.6451064,47.5965957 23.813617,47.9719149 C23.9821277,48.347234 24.1582979,48.7378723 24.3268085,49.1668085 C24.4953191,49.5957447 24.6791489,50.0170213 24.84,50.4612766 C25.0008511,50.9055319 25.1770213,51.3497872 25.3455319,51.8017021 L25.8204255,53.1574468 C25.9659574,53.6017021 26.1038298,54.0459574 26.2417021,54.4748936 C26.3795745,54.9038298 26.5021277,55.3251064 26.6170213,55.7234043 C26.7319149,56.1217021 26.8314894,56.4893617 26.9234043,56.8493617 C27.3293617,58.2817021 27.4825532,59.2468085 27.4825532,59.2468085 Z" id="Path" fill="#B4B2A8" fill-rule="nonzero"></path>
                        <path d="M30.293617,57.4468085 C30.7210738,57.0017947 31.1904841,56.5990766 31.6953191,56.2442553 C31.9251064,56.0834043 32.1702128,55.907234 32.4612766,55.746383 C32.7523404,55.5855319 33.0204255,55.4017021 33.3268085,55.2485106 C33.6331915,55.0953191 33.9625532,54.9268085 34.2919149,54.7812766 C34.6212766,54.6357447 34.973617,54.5131915 35.3182979,54.3753191 C35.6629787,54.2374468 36.0229787,54.1531915 36.3753191,54.053617 C36.7276596,53.9540426 37.08,53.8851064 37.4246809,53.8161702 C37.7693617,53.747234 38.0910638,53.7012766 38.412766,53.6706383 C38.7344681,53.64 39.0255319,53.6093617 39.3012766,53.6093617 C39.7475578,53.5786622 40.1954209,53.5786622 40.6417021,53.6093617 L41.1548936,53.6782979 L40.6646809,53.8391489 L39.4085106,54.2221277 L38.5812766,54.467234 L37.6621277,54.7429787 L36.6817021,55.0570213 C36.3523404,55.1565957 36.0153191,55.2714894 35.6859574,55.386383 C35.3565957,55.5012766 35.0119149,55.6161702 34.6902128,55.7387234 C34.3685106,55.8612766 34.0391489,55.9761702 33.7251064,56.0910638 C33.4110638,56.2059574 33.1123404,56.3131915 32.8289362,56.4357447 L32.0629787,56.7497872 C30.9982979,57.2017021 30.293617,57.4468085 30.293617,57.4468085 Z" id="Path" fill="#B4B2A8" fill-rule="nonzero"></path>
                        <path d="M28.5778723,60.4417021 L29.0680851,59.9131915 C29.5139754,59.4560015 29.9871846,59.0262764 30.4851064,58.626383 C30.7914894,58.373617 31.1285106,58.1055319 31.5038298,57.8604255 C31.8791489,57.6153191 32.2697872,57.3319149 32.6987234,57.0944681 C33.1276596,56.8570213 33.5719149,56.5812766 34.0391489,56.3285106 C34.506383,56.0757447 34.9889362,55.8842553 35.4714894,55.6621277 C35.9540426,55.44 36.4595745,55.2714894 36.9574468,55.1106383 C37.4553191,54.9497872 37.9531915,54.8119149 38.4280851,54.6817021 C38.9029787,54.5514894 39.3855319,54.4442553 39.8297872,54.3829787 C40.2740426,54.3217021 40.7029787,54.2451064 41.1012766,54.2144681 C41.7347794,54.1488742 42.371788,54.1232915 43.0085106,54.1378723 L43.7744681,54.1378723 L43.0468085,54.3829787 L41.2238298,54.8731915 L40.0289362,55.2255319 L38.7114894,55.6468085 L37.3174468,56.1446809 C36.8425532,56.3055319 36.3753191,56.5046809 35.9004255,56.6961702 C35.4255319,56.8876596 34.9582979,57.0868085 34.506383,57.3089362 C34.0544681,57.5310638 33.5948936,57.7302128 33.1659574,57.9370213 C32.7370213,58.1438298 32.3157447,58.3506383 31.932766,58.5651064 C31.5497872,58.7795745 31.1668085,58.9710638 30.8374468,59.1625532 L28.5778723,60.4417021 Z" id="Path" fill="#B4B2A8" fill-rule="nonzero"></path>
                        <path d="M59.9974468,60.3574468 C59.9974468,60.3574468 59.5838298,59.8978723 59.0170213,59.2238298 L58.5651064,58.6953191 C58.4119149,58.4961702 58.212766,58.32 58.0519149,58.1055319 C57.8910638,57.8910638 57.6842553,57.6995745 57.4851064,57.5004255 C57.2859574,57.3012766 57.1021277,57.0868085 56.9029787,56.8876596 C56.7038298,56.6885106 56.5046809,56.4740426 56.2978723,56.2902128 L55.7080851,55.7157447 L55.1489362,55.1948936 L54.6280851,54.72 L53.8621277,54.0076596 L53.5634043,53.7165957 L53.9770213,53.8008511 C54.3341203,53.893422 54.6826295,54.0164252 55.0187234,54.1685106 C55.2468419,54.2685912 55.4693033,54.3811004 55.6851064,54.5055319 C55.9258651,54.6371709 56.1586133,54.7829582 56.3821277,54.9421277 C56.6277803,55.105664 56.8607785,55.2874538 57.0791489,55.4859574 C57.3165957,55.6851064 57.5310638,55.8995745 57.7531915,56.1140426 C57.9753191,56.3285106 58.1668085,56.5659574 58.3506383,56.8034043 C58.5344681,57.0408511 58.7029787,57.2859574 58.8714894,57.5157447 C59.0244174,57.7482074 59.1650364,57.9885382 59.292766,58.2357447 C59.4153191,58.4578723 59.5148936,58.6876596 59.6068085,58.9021277 C59.7948103,59.3698471 59.9259621,59.8584517 59.9974468,60.3574468 Z" id="Path" fill="#B4B2A8" fill-rule="nonzero"></path>
                        <path d="M58.2970213,60.3651064 C58.1402637,60.2590296 57.9917549,60.1412468 57.852766,60.012766 C57.7928243,59.9604982 57.7365231,59.9041969 57.6842553,59.8442553 C57.6306383,59.7829787 57.5540426,59.7293617 57.5080851,59.6680851 C57.4560324,59.6007465 57.3997485,59.5367876 57.3395745,59.4765957 C57.2928701,59.4045346 57.2417065,59.3354638 57.186383,59.2697872 C57.1422854,59.1978489 57.0936775,59.1287746 57.0408511,59.0629787 C56.9901725,58.9934476 56.9465526,58.9190371 56.9106383,58.8408511 C56.8633759,58.7745385 56.8247664,58.7024673 56.7957447,58.626383 C56.7574468,58.5574468 56.7268085,58.4808511 56.6961702,58.4119149 C56.6428917,58.2896208 56.5968547,58.1642978 56.5582979,58.0365957 L56.5123404,57.8680851 L56.6885106,57.8680851 C56.8335828,57.8590249 56.9790687,57.8772106 57.1174468,57.9217021 C57.2084662,57.9426125 57.2961207,57.9761275 57.3778723,58.0212766 C57.5679305,58.1110728 57.739418,58.235791 57.8834043,58.3889362 L58.0902128,58.6417021 L58.2587234,58.932766 C58.3046809,59.0323404 58.3353191,59.1319149 58.373617,59.2314894 C58.3988911,59.3295924 58.4168132,59.4294438 58.427234,59.5302128 C58.4386094,59.6217757 58.4386094,59.7143945 58.427234,59.8059574 C58.4252122,59.9996165 58.3807649,60.1904785 58.2970213,60.3651064 Z" id="Path" fill="#B4B2A8" fill-rule="nonzero"></path>
                        <path d="M49.6187234,55.2868085 C50.1085958,55.2944785 50.5953283,55.3665871 51.066383,55.5012766 C51.2955141,55.5547718 51.5207201,55.6238691 51.7404255,55.7080851 C52.001845,55.7912483 52.2576851,55.8910259 52.506383,56.0068085 C52.7514894,56.1293617 53.0119149,56.2519149 53.2723404,56.3974468 C53.532766,56.5429787 53.7702128,56.7114894 54.0382979,56.8723404 C54.306383,57.0331915 54.4978723,57.2246809 54.72,57.4161702 C54.936942,57.5964055 55.1416496,57.7908777 55.332766,57.9982979 C55.516867,58.1858665 55.6883081,58.3854547 55.8459574,58.5957447 C55.9971401,58.7799777 56.135345,58.9744883 56.2595745,59.1778723 C56.429521,59.475193 56.570591,59.7881119 56.6808511,60.1123404 L56.826383,60.4876596 L56.5046809,60.2502128 L55.692766,59.6144681 L55.1489362,59.1931915 C54.9651064,59.0476596 54.7582979,58.9021277 54.5591489,58.733617 L53.9387234,58.2587234 C53.7242553,58.0825532 53.5021277,57.9293617 53.2876596,57.7685106 C53.0731915,57.6076596 52.8510638,57.4468085 52.6212766,57.3012766 C52.3914894,57.1557447 52.1846809,56.9948936 51.9702128,56.8493617 C51.7557447,56.7038298 51.5565957,56.5582979 51.3497872,56.4357447 L50.7906383,56.0757447 C50.1089362,55.6238298 49.6187234,55.2868085 49.6187234,55.2868085 Z" id="Path" fill="#B4B2A8" fill-rule="nonzero"></path>
                        <path d="M60.8323404,58.8408511 C61.0850083,58.2242658 61.3740265,57.6232103 61.6978723,57.0408511 C61.8434043,56.7804255 61.9965957,56.4970213 62.1804255,56.213617 C62.3642553,55.9302128 62.5404255,55.6085106 62.7548936,55.3021277 L63.3982979,54.3829787 L64.1106383,53.4331915 L64.8765957,52.5217021 C65.1217021,52.2153191 65.3821277,51.9395745 65.6425532,51.6638298 C65.9029787,51.3880851 66.1404255,51.1276596 66.4085106,50.8978723 C66.6765957,50.6680851 66.8834043,50.4382979 67.1131915,50.2391489 C67.4491116,49.9023278 67.8019056,49.582768 68.1702128,49.2817021 L68.6144681,48.9523404 L68.3387234,49.4348936 C68.1548936,49.733617 67.8868085,50.1548936 67.572766,50.6374468 C67.4119149,50.8902128 67.2280851,51.1506383 67.0289362,51.4034043 C66.8297872,51.6561702 66.6229787,51.9702128 66.4008511,52.2612766 C66.1787234,52.5523404 65.9565957,52.866383 65.7191489,53.1651064 L64.9991489,54.0842553 L64.2331915,54.9957447 L63.467234,55.8689362 C63.2374468,56.1523404 62.9923404,56.412766 62.7778723,56.6731915 C62.5634043,56.933617 62.3412766,57.1710638 62.1497872,57.3931915 C61.4221277,58.2893617 60.8323404,58.8408511 60.8323404,58.8408511 Z" id="Path" fill="#B4B2A8" fill-rule="nonzero"></path>
                        <path d="M62.4714894,60.4034043 C62.5046258,59.88508 62.5919096,59.3716459 62.7319149,58.8714894 C62.7931915,58.6493617 62.8544681,58.4119149 62.946383,58.1668085 C63.0382979,57.9217021 63.1225532,57.6612766 63.2374468,57.4008511 C63.3523404,57.1404255 63.4748936,56.8723404 63.612766,56.6348936 C63.7506383,56.3974468 63.9038298,56.106383 64.0570213,55.8689362 C64.2102128,55.6314894 64.386383,55.3557447 64.5548936,55.1029787 C64.7234043,54.8502128 64.9148936,54.6280851 65.0910638,54.413617 C65.2656682,54.198917 65.4523532,53.9943308 65.6502128,53.8008511 C65.817367,53.6204773 65.9964969,53.4515834 66.186383,53.2953191 C66.4592449,53.0479972 66.7512168,52.8226154 67.0595745,52.6212766 L67.427234,52.3991489 L67.2280851,52.7744681 C67.0978723,53.0119149 66.9140426,53.3412766 66.6842553,53.7165957 L66.3165957,54.3293617 C66.186383,54.5438298 66.0485106,54.773617 65.9029787,54.9957447 L65.4587234,55.7080851 C65.2978723,55.9455319 65.1523404,56.1982979 64.9991489,56.4740426 C64.8459574,56.7497872 64.6851064,56.9642553 64.547234,57.24 C64.4093617,57.5157447 64.2408511,57.7225532 64.1029787,57.9523404 C63.9651064,58.1821277 63.8119149,58.4042553 63.6817021,58.626383 L63.306383,59.2314894 C62.8085106,59.9055319 62.4714894,60.4034043 62.4714894,60.4034043 Z" id="Path" fill="#B4B2A8" fill-rule="nonzero"></path>
                        <path d="M90.2451064,41.652766 L88.0774468,41.7982979 L87.0510638,41.8902128 C86.6834043,41.8902128 86.2851064,41.9821277 85.9097872,42.0204255 C85.5344681,42.0587234 85.1438298,42.12 84.6995745,42.1965957 C84.2553191,42.2731915 83.8723404,42.3344681 83.4587234,42.4110638 C83.0451064,42.4876596 82.6314894,42.5719149 82.2331915,42.6791489 L81.0459574,42.9625532 L79.9353191,43.2689362 L78.947234,43.5676596 L77.453617,44.0348936 L76.8714894,44.2110638 L77.346383,43.8280851 C77.7708137,43.5063108 78.2188911,43.2169808 78.6868085,42.9625532 C78.9702128,42.7940426 79.2919149,42.6331915 79.6365957,42.4723404 C79.9812766,42.3114894 80.3565957,42.1659574 80.747234,42.012766 C81.1378723,41.8595745 81.5131915,41.7293617 81.9651064,41.6297872 C82.4170213,41.5302128 82.8153191,41.4153191 83.2519149,41.3234043 C83.6885106,41.2314894 84.1251064,41.1778723 84.5617021,41.1319149 C84.9982979,41.0859574 85.427234,41.0706383 85.8408511,41.0476596 C86.2544681,41.0246809 86.652766,41.0476596 87.0357447,41.0476596 C87.4187234,41.0476596 87.8017021,41.1012766 88.1004255,41.147234 C88.8302542,41.2445348 89.5486533,41.4138717 90.2451064,41.652766 L90.2451064,41.652766 Z" id="Path" fill="#B4B2A8" fill-rule="nonzero"></path>
                        <path d="M90.7429787,43.4144681 C90.7429787,43.4144681 90.0765957,43.5217021 89.1038298,43.6212766 L88.3378723,43.7131915 L87.4723404,43.8051064 C87.173617,43.8051064 86.867234,43.866383 86.5531915,43.9123404 C86.2391489,43.9582979 85.9251064,43.9812766 85.6110638,44.0195745 L84.6612766,44.1421277 L83.7421277,44.2646809 L82.8842553,44.3795745 L82.1182979,44.4791489 C81.6357447,44.5404255 81.2221277,44.5787234 80.9310638,44.6093617 L80.4714894,44.6093617 L80.8621277,44.3642553 C81.2096818,44.1522306 81.5733535,43.9678337 81.9497872,43.812766 C82.199198,43.7008573 82.4549561,43.6036692 82.7157447,43.5217021 C82.9838298,43.4221277 83.2748936,43.3378723 83.5812766,43.253617 C83.8876596,43.1693617 84.1940426,43.092766 84.5234043,43.0391489 L85.5038298,42.8859574 C85.8408511,42.8859574 86.1702128,42.8246809 86.4995745,42.8093617 L87.4646809,42.8093617 C87.7787234,42.8093617 88.0851064,42.8093617 88.3685106,42.8706383 C88.6254308,42.8938267 88.8810576,42.9296145 89.1344681,42.9778723 C89.6838698,43.0693376 90.2227293,43.2155995 90.7429787,43.4144681 L90.7429787,43.4144681 Z" id="Path" fill="#B4B2A8" fill-rule="nonzero"></path>
                        <path d="M20.1446809,15.2731915 C20.1446809,15.2731915 35.6476596,15.0587234 44.5480851,19.5089362 L46.2485106,24.3038298 C46.2485106,24.3038298 33.12,19.6621277 21.9753191,20.2748936 L20.1446809,15.2731915 Z" id="Path" fill="#EFE76C" fill-rule="nonzero"></path>
                        <path d="M23.3617021,23.4382979 C23.6860847,23.3335918 24.0159362,23.2466542 24.3497872,23.1778723 C25.2234607,22.9869126 26.1087913,22.8538572 27,22.7795745 C27.5514894,22.7259574 28.1565957,22.6876596 28.7923404,22.6723404 C29.4280851,22.6570213 30.0944681,22.6723404 30.7914894,22.6723404 C31.4885106,22.6723404 32.2008511,22.7106383 32.9285106,22.7719149 C33.6561702,22.8331915 34.3914894,22.8944681 35.1191489,22.986383 C35.8468085,23.0782979 36.5897872,23.1778723 37.3021277,23.3004255 C38.0144681,23.4229787 38.7268085,23.5378723 39.4008511,23.6910638 C40.0748936,23.8442553 40.733617,23.9744681 41.346383,24.1353191 C41.9591489,24.2961702 42.533617,24.4493617 43.0697872,24.6025532 C44.1344681,24.8859574 45,25.2153191 45.612766,25.4221277 L46.5625532,25.7744681 L45.5591489,25.6442553 L42.893617,25.2306383 L41.147234,24.947234 L39.1940426,24.6561702 C38.52,24.5412766 37.8153191,24.4646809 37.1106383,24.3574468 C36.4059574,24.2502128 35.6782979,24.1582979 34.9582979,24.0740426 C34.2382979,23.9897872 33.5106383,23.9055319 32.7982979,23.8289362 C32.0859574,23.7523404 31.3889362,23.6910638 30.707234,23.6221277 C30.0255319,23.5531915 29.3744681,23.5148936 28.746383,23.4842553 C28.1182979,23.453617 27.5361702,23.4153191 26.9923404,23.4076596 C25.7824181,23.3547412 24.5705591,23.3649679 23.3617021,23.4382979 L23.3617021,23.4382979 Z" id="Path" fill="#C7C4B5" fill-rule="nonzero"></path>
                        <path d="M25.3455319,26.2646809 C26.4442658,26.0413716 27.5538409,25.875191 28.6697872,25.7668085 C29.1753191,25.7055319 29.7191489,25.6595745 30.293617,25.6212766 C30.8680851,25.5829787 31.4808511,25.5293617 32.1089362,25.5293617 C32.7370213,25.5293617 33.3957447,25.5293617 34.0621277,25.5293617 C34.7285106,25.5293617 35.3948936,25.5293617 36.0689362,25.6059574 C36.7429787,25.6825532 37.4170213,25.7131915 38.0757447,25.7821277 C38.7344681,25.8510638 39.3855319,25.9353191 40.0059574,26.0425532 C40.626383,26.1497872 41.2314894,26.2417021 41.7982979,26.3719149 C42.3651064,26.5021277 42.9012766,26.6093617 43.3914894,26.7395745 C44.3719149,26.9846809 45.1761702,27.2297872 45.7276596,27.4289362 L46.6008511,27.7429787 L45.6817021,27.6510638 L43.2689362,27.3829787 L41.6680851,27.1914894 L39.8834043,27.0153191 L37.9761702,26.8085106 C37.3251064,26.7548936 36.6587234,26.7012766 36,26.6706383 C35.3412766,26.64 34.6748936,26.586383 34.0238298,26.5557447 C33.372766,26.5251064 32.7293617,26.4868085 32.1089362,26.4714894 L30.3089362,26.4025532 L28.692766,26.3565957 C26.693617,26.3412766 25.3455319,26.2646809 25.3455319,26.2646809 Z" id="Path" fill="#C7C4B5" fill-rule="nonzero"></path>
                        <path d="M26.8085106,29.8034043 C27.3691693,29.5451444 27.9476843,29.3275613 28.5395745,29.1523404 C28.8,29.0680851 29.0910638,28.9838298 29.3974468,28.907234 C29.7038298,28.8306383 30.0255319,28.7387234 30.3625532,28.6851064 L31.4042553,28.493617 L32.4765957,28.3404255 L33.5719149,28.2714894 C33.9395745,28.2714894 34.3378723,28.2714894 34.6442553,28.2714894 C34.9506383,28.2714894 35.3259574,28.2714894 35.64,28.332766 C35.9540426,28.3940426 36.252766,28.4017021 36.5285106,28.4476596 C37.0723404,28.5395745 37.5242553,28.6544681 37.8382979,28.7387234 L38.3285106,28.8995745 L37.8229787,28.9685106 C37.5012766,28.9685106 37.0570213,29.0604255 36.5055319,29.106383 L35.6323404,29.1829787 L34.667234,29.267234 L33.6408511,29.3591489 L32.5761702,29.4510638 L31.5114894,29.5429787 L30.4774468,29.627234 L29.5046809,29.6961702 C29.1906383,29.6961702 28.8995745,29.7344681 28.6238298,29.7497872 C27.5744681,29.826383 26.8085106,29.8034043 26.8085106,29.8034043 Z" id="Path" fill="#C7C4B5" fill-rule="nonzero"></path>
                        <path d="M27.7276596,32.1702128 C28.2758936,31.9589853 28.8359961,31.7799571 29.4051064,31.6340426 C29.6578723,31.5651064 29.933617,31.4885106 30.2246809,31.427234 C30.5157447,31.3659574 30.8221277,31.2893617 31.1438298,31.2434043 L32.1702128,31.0748936 L33.2042553,30.96 L34.2459574,30.8987234 C34.5906383,30.8987234 34.9276596,30.8987234 35.2570213,30.8987234 C35.586383,30.8987234 35.9004255,30.8987234 36.1991489,30.8987234 C36.4978723,30.8987234 36.7812766,30.9370213 37.0417021,30.9676596 C37.5625532,31.0212766 37.9991489,31.0978723 38.3055319,31.1514894 L38.7804255,31.2587234 L38.2978723,31.4042553 C37.9991489,31.4731915 37.5702128,31.5651064 37.0493617,31.6493617 C36.7965957,31.6953191 36.5131915,31.733617 36.2221277,31.7719149 C35.9310638,31.8102128 35.6170213,31.8561702 35.2953191,31.8791489 C34.973617,31.9021277 34.6442553,31.9557447 34.307234,31.9787234 L33.2885106,32.0706383 L32.2544681,32.1702128 L31.2587234,32.2238298 C30.9370213,32.2238298 30.6229787,32.2238298 30.3242553,32.2238298 C30.0255319,32.2238298 29.7497872,32.2238298 29.4817021,32.2238298 C28.896475,32.2418054 28.3106962,32.2238995 27.7276596,32.1702128 Z" id="Path" fill="#C7C4B5" fill-rule="nonzero"></path>
                        <path d="M28.9761702,35.6629787 C29.5220201,35.4523728 30.0795375,35.2733535 30.6459574,35.1268085 C30.906383,35.0578723 31.1744681,34.9812766 31.4731915,34.92 C31.7719149,34.8587234 32.0706383,34.7821277 32.3923404,34.7361702 L33.3880851,34.5753191 L34.4680851,34.4680851 L35.5097872,34.4068085 C35.8544681,34.4068085 36.1914894,34.4068085 36.5208511,34.4068085 C36.8502128,34.4068085 37.1565957,34.4068085 37.4629787,34.4068085 C37.7693617,34.4068085 38.0451064,34.4451064 38.3055319,34.4757447 C38.826383,34.5293617 39.2629787,34.6059574 39.5617021,34.6595745 L40.0442553,34.7668085 L39.5693617,34.8893617 C39.2706383,34.9582979 38.8034043,35.0502128 38.3208511,35.1344681 C38.0680851,35.1804255 37.7846809,35.2187234 37.493617,35.2570213 C37.2025532,35.2953191 36.8885106,35.3412766 36.5668085,35.3642553 C36.2451064,35.387234 35.9157447,35.4408511 35.5787234,35.4638298 L34.56,35.5480851 L33.533617,35.6246809 L32.5455319,35.6782979 C32.2238298,35.6782979 31.9097872,35.6782979 31.6110638,35.6782979 C31.3123404,35.6782979 31.0289362,35.6782979 30.7685106,35.6782979 C30.1713294,35.7105948 29.5727121,35.7054785 28.9761702,35.6629787 L28.9761702,35.6629787 Z" id="Path" fill="#C7C4B5" fill-rule="nonzero"></path>
                        <path d="M29.9565957,38.5659574 C30.5043323,38.351204 31.0644932,38.1695993 31.6340426,38.0221277 C31.8868085,37.9608511 32.1625532,37.8842553 32.453617,37.8229787 C32.7446809,37.7617021 33.0510638,37.6851064 33.3804255,37.6314894 L34.3761702,37.4706383 L35.4102128,37.3557447 L36.4519149,37.3021277 C36.7965957,37.3021277 37.133617,37.3021277 37.4629787,37.3021277 C37.7923404,37.3021277 38.106383,37.3021277 38.4051064,37.3021277 C38.7038298,37.3021277 38.987234,37.3404255 39.2476596,37.3787234 C39.6719823,37.4168305 40.0938935,37.4781994 40.5114894,37.5625532 L40.986383,37.6697872 L40.5114894,37.7923404 C40.212766,37.8612766 39.7455319,37.9531915 39.2706383,38.0297872 C39.0102128,38.0757447 38.7344681,38.1217021 38.4357447,38.1523404 C38.1370213,38.1829787 37.8306383,38.2365957 37.5089362,38.267234 C37.187234,38.2978723 36.8578723,38.3438298 36.5208511,38.3668085 L35.5021277,38.4510638 L34.4834043,38.5276596 L33.4876596,38.5812766 C33.1659574,38.5812766 32.8519149,38.5812766 32.5531915,38.5812766 C32.2544681,38.5812766 31.9787234,38.5812766 31.7182979,38.5812766 C31.1312434,38.609322 30.5430738,38.6042075 29.9565957,38.5659574 Z" id="Path" fill="#C7C4B5" fill-rule="nonzero"></path>
                        <path d="M30.4621277,41.5608511 C31.0194344,41.3436878 31.5899386,41.1620475 32.1702128,41.0170213 C32.4229787,40.9557447 32.6987234,40.8791489 32.9974468,40.8178723 C33.2961702,40.7565957 33.5948936,40.6723404 33.9165957,40.626383 L34.9123404,40.4655319 L35.9540426,40.3506383 L36.9957447,40.2893617 C37.3404255,40.2893617 37.6774468,40.2893617 38.0068085,40.2893617 C38.3361702,40.2893617 38.6425532,40.2893617 38.9489362,40.2893617 C39.2553191,40.2893617 39.5310638,40.2893617 39.7914894,40.3582979 C40.3123404,40.4119149 40.7489362,40.4885106 41.0553191,40.5421277 L41.5302128,40.6493617 L41.0553191,40.7719149 C40.7565957,40.8408511 40.3276596,40.9404255 39.8068085,41.0170213 C39.5540426,41.0629787 39.2706383,41.1012766 38.9795745,41.1395745 C38.6885106,41.1778723 38.3744681,41.2238298 38.052766,41.2544681 C37.7310638,41.2851064 37.4017021,41.3234043 37.0646809,41.346383 L36,41.4612766 L34.973617,41.5302128 L33.9855319,41.5914894 C33.6638298,41.5914894 33.3497872,41.5914894 33.0510638,41.5914894 C32.7523404,41.5914894 32.4689362,41.5914894 32.2085106,41.5914894 C31.6262689,41.6140226 31.0432207,41.6037937 30.4621277,41.5608511 Z" id="Path" fill="#C7C4B5" fill-rule="nonzero"></path>
                        <path d="M31.4042553,44.1497872 C31.9530132,43.9400508 32.5130299,43.76105 33.0817021,43.613617 C33.3344681,43.5446809 33.6102128,43.4680851 33.9012766,43.4068085 C34.1923404,43.3455319 34.506383,43.2689362 34.8280851,43.2153191 L35.8238298,43.0544681 L36.8578723,42.947234 L37.8765957,42.893617 C38.2212766,42.893617 38.5582979,42.893617 38.8876596,42.893617 C39.2170213,42.893617 39.5310638,42.893617 39.8297872,42.9319149 C40.1285106,42.9702128 40.4119149,42.9319149 40.6723404,43.0008511 C41.0966631,43.0389581 41.5185743,43.100327 41.9361702,43.1846809 L42.4110638,43.2919149 L41.9361702,43.4144681 C41.6374468,43.4834043 41.1702128,43.5753191 40.6953191,43.6519149 C40.4348936,43.6978723 40.1591489,43.7438298 39.8604255,43.7744681 C39.5617021,43.8051064 39.2553191,43.8587234 38.933617,43.8893617 C38.6119149,43.92 38.2825532,43.9659574 37.9455319,43.9889362 L36.9268085,44.0731915 L35.9080851,44.1497872 L34.9123404,44.2034043 C34.5906383,44.2034043 34.2765957,44.2034043 33.9855319,44.2034043 C33.6944681,44.2034043 33.4034043,44.2034043 33.1429787,44.2034043 C32.5628533,44.2205871 31.9822197,44.2026821 31.4042553,44.1497872 L31.4042553,44.1497872 Z" id="Path" fill="#C7C4B5" fill-rule="nonzero"></path>
                        <path d="M32.0706383,47.2595745 C32.6164882,47.0489686 33.1740056,46.8699492 33.7404255,46.7234043 C34.0008511,46.6544681 34.2689362,46.5778723 34.5676596,46.5165957 C34.866383,46.4553191 35.1651064,46.3787234 35.4868085,46.3251064 L36.4902128,46.1719149 L37.5319149,46.0570213 L38.573617,45.9957447 C38.9182979,45.9957447 39.2553191,45.9957447 39.5846809,45.9957447 C39.9140426,45.9957447 40.2280851,45.9957447 40.5268085,45.9957447 C40.8255319,45.9957447 41.1089362,46.0340426 41.3693617,46.0646809 C41.8902128,46.1182979 42.3268085,46.187234 42.6331915,46.2485106 L43.1080851,46.3557447 L42.6331915,46.4782979 C42.3344681,46.547234 41.9055319,46.6391489 41.3846809,46.7234043 L40.5574468,46.8459574 C40.2587234,46.8842553 39.9523404,46.9302128 39.6306383,46.9531915 C39.3089362,46.9761702 38.9795745,47.0297872 38.6425532,47.052766 L37.6238298,47.1370213 L36.5974468,47.213617 L35.6093617,47.267234 C35.2876596,47.267234 34.973617,47.267234 34.6748936,47.267234 C34.3761702,47.267234 34.092766,47.267234 33.8323404,47.267234 C33.245505,47.3008118 32.6571596,47.2982538 32.0706383,47.2595745 L32.0706383,47.2595745 Z" id="Path" fill="#C7C4B5" fill-rule="nonzero"></path>
                        <path d="M33.6561702,49.787234 C33.6561702,49.787234 34.2306383,49.5038298 35.0961702,49.1591489 L35.8008511,48.8834043 C36.053617,48.7991489 36.3140426,48.6919149 36.5668085,48.6229787 L37.4476596,48.3778723 L38.412766,48.2553191 L39.347234,48.132766 C39.653617,48.132766 39.96,48.0868085 40.2587234,48.0868085 C40.5419188,48.0714219 40.8257408,48.0714219 41.1089362,48.0868085 C41.3770213,48.0868085 41.6297872,48.0868085 41.8748936,48.1404255 C42.2565246,48.1716947 42.6353887,48.2305723 43.0085106,48.3165957 L43.4374468,48.4161702 L43.0161702,48.5387234 C42.7480851,48.6153191 42.3651064,48.707234 41.9055319,48.7914894 L41.1395745,48.9293617 L40.3429787,49.0212766 C40.0595745,49.067234 39.7761702,49.1208511 39.4774468,49.1591489 C39.1787234,49.1974468 38.88,49.2434043 38.5812766,49.2970213 C38.2825532,49.3506383 37.9838298,49.3812766 37.6851064,49.4348936 L36.8195745,49.5651064 L36,49.7029787 C35.7395745,49.7029787 35.4791489,49.7642553 35.2340426,49.787234 C34.7091959,49.835576 34.1810169,49.835576 33.6561702,49.787234 L33.6561702,49.787234 Z" id="Path" fill="#C7C4B5" fill-rule="nonzero"></path>
                        <path d="M49.8561702,18.972766 C50.0658189,18.6663538 50.2961417,18.3746117 50.5455319,18.0995745 C51.1905663,17.376132 51.8895966,16.7027072 52.6365957,16.0851064 C53.1265398,15.6513791 53.6378134,15.2423603 54.1685106,14.8595745 C54.72,14.4382979 55.3480851,14.0476596 55.9914894,13.6340426 C56.6348936,13.2204255 57.3319149,12.8680851 58.0595745,12.5004255 C58.787234,12.132766 59.5225532,11.8110638 60.2961702,11.5353191 C60.6791489,11.3974468 61.0621277,11.2442553 61.4451064,11.1217021 L62.6170213,10.7234043 C63.3712257,10.5034141 64.138757,10.3319988 64.9148936,10.2102128 C65.6410456,10.0759763 66.3755229,9.99152419 67.1131915,9.95744681 C67.4578723,9.95744681 67.7948936,9.88851064 68.1242553,9.88085106 L69.0740426,9.88085106 C69.6868085,9.88085106 70.2459574,9.88085106 70.7361702,9.94978723 L72,10.1259574 L73.0953191,10.3021277 L72,10.386383 L70.7438298,10.386383 C70.2612766,10.386383 69.7174468,10.4859574 69.12,10.5319149 L68.2008511,10.6161702 L67.2204255,10.7770213 C66.5540426,10.8995745 65.8417021,10.9838298 65.1293617,11.1753191 C64.4170213,11.3668085 63.666383,11.5046809 62.9310638,11.7497872 L61.812766,12.0868085 C61.4451064,12.2093617 61.0468085,12.3625532 60.7097872,12.5004255 C59.9727208,12.7627601 59.2492608,13.0618584 58.5421277,13.3965957 C57.8297872,13.6953191 57.1557447,14.0706383 56.4970213,14.4 C55.8382979,14.7293617 55.2102128,15.0817021 54.6434043,15.4646809 C54.0765957,15.8476596 53.5251064,16.1617021 53.0348936,16.4987234 C52.0468085,17.172766 51.2502128,17.7778723 50.7370213,18.2144681 C50.4297483,18.4509236 50.1356888,18.7040705 49.8561702,18.972766 L49.8561702,18.972766 Z" id="Path" fill="#C7C4B5" fill-rule="nonzero"></path>
                        <path d="M50.5531915,21.4468085 C50.5531915,21.4468085 58.3506383,12.1787234 73.8459574,12.4161702 L76.0902128,18.3370213 C67.5482905,18.8508145 59.4157782,22.1738345 52.9582979,27.7889362 L50.5531915,21.4468085 Z" id="Path" fill="#FC6032" fill-rule="nonzero"></path>
                        <path d="M53.6170213,29.412766 L54.3829787,28.6468085 C55.0919386,27.9747528 55.8359571,27.3406752 56.6119149,26.747234 C57.0868085,26.3719149 57.6153191,25.9812766 58.1974468,25.5906383 C58.7795745,25.2 59.3923404,24.8246809 60.0357447,24.4034043 C60.6791489,23.9821277 61.3761702,23.6374468 62.0885106,23.2621277 C62.8008511,22.8868085 63.5744681,22.5574468 64.3404255,22.212766 C65.106383,21.8680851 65.8723404,21.5923404 66.5923404,21.3319149 C67.3123404,21.0714894 68.1242553,20.8340426 68.8289362,20.6119149 C69.533617,20.3897872 70.2765957,20.2212766 70.9582979,20.0910638 C71.64,19.9608511 72.2834043,19.8153191 72.8885106,19.7387234 C73.493617,19.6621277 74.0374468,19.5778723 74.5353191,19.5395745 C75.0331915,19.5012766 75.4468085,19.4553191 75.8068085,19.4476596 L76.9174468,19.4476596 L75.8297872,19.6774468 C75.4851064,19.746383 75.0638298,19.853617 74.5965957,19.9761702 C74.1293617,20.0987234 73.5931915,20.2212766 73.0187234,20.3821277 C72.4442553,20.5429787 71.8161702,20.7191489 71.1651064,20.9106383 C70.5140426,21.1021277 69.8246809,21.3395745 69.12,21.5693617 C68.4153191,21.7991489 67.6876596,22.067234 66.96,22.3353191 C66.2323404,22.6034043 65.5046809,22.9174468 64.7693617,23.2161702 C64.0340426,23.5148936 63.3140426,23.8519149 62.6170213,24.2042553 C61.92,24.5565957 61.2,24.9012766 60.5106383,25.2765957 C59.8212766,25.6519149 59.2161702,25.9582979 58.6340426,26.3106383 C58.0519149,26.6629787 57.4774468,26.9693617 56.9719149,27.2910638 C55.9455319,27.9114894 55.1029787,28.4553191 54.5208511,28.8229787 L53.6170213,29.412766 Z" id="Path" fill="#C7C4B5" fill-rule="nonzero"></path>
                        <path d="M54.4825532,31.8561702 L55.2485106,31.0902128 C55.9528837,30.435799 56.6918152,29.8195965 57.4621277,29.2442553 C57.9370213,28.8842553 58.4578723,28.4782979 58.9940426,28.1259574 C59.5302128,27.773617 60.173617,27.36 60.8093617,26.9693617 C61.4451064,26.5787234 62.1344681,26.2034043 62.8391489,25.8587234 C63.5438298,25.5140426 64.2638298,25.1693617 64.9914894,24.84 C65.7191489,24.5106383 66.4697872,24.227234 67.212766,23.9668085 C67.9557447,23.706383 68.6910638,23.4765957 69.4034043,23.2544681 C70.1157447,23.0323404 70.8280851,22.8638298 71.4944681,22.7259574 C72.1608511,22.5880851 72.8042553,22.4502128 73.3940426,22.3659574 C74.3422748,22.207518 75.2986863,22.1026708 76.2587234,22.0519149 L77.3540426,22.0059574 L76.2970213,22.2740426 C75.6229787,22.4425532 74.6655319,22.6876596 73.5319149,23.04 C72.9651064,23.1931915 72.36,23.3846809 71.7165957,23.5761702 C71.0731915,23.7676596 70.3991489,24.012766 69.7097872,24.2348936 C69.0204255,24.4570213 68.3080851,24.7404255 67.5880851,25.0008511 C66.8680851,25.2612766 66.1480851,25.5753191 65.4280851,25.8740426 C64.7080851,26.172766 63.9957447,26.4944681 63.306383,26.8391489 C62.6170213,27.1838298 61.9353191,27.5055319 61.2842553,27.827234 C60.6331915,28.1489362 59.9974468,28.4859574 59.4229787,28.8306383 C58.8485106,29.1753191 58.2740426,29.4740426 57.7761702,29.7804255 C56.7574468,30.3778723 55.9225532,30.8987234 55.3404255,31.2740426 L54.4825532,31.8561702 Z" id="Path" fill="#C7C4B5" fill-rule="nonzero"></path>
                        <path d="M55.6314894,34.5140426 L56.3974468,33.7480851 C56.6425532,33.4953191 56.9565957,33.1965957 57.3242553,32.8748936 C57.6919149,32.5531915 58.0902128,32.1702128 58.5804255,31.8025532 C59.0706383,31.4348936 59.5685106,31.0365957 60.1123404,30.6153191 C60.6561702,30.1940426 61.2919149,29.8493617 61.9353191,29.3974468 C62.5787234,28.9455319 63.2604255,28.6314894 63.972766,28.2408511 C64.6851064,27.8502128 65.412766,27.5285106 66.1480851,27.1838298 C66.8834043,26.8391489 67.68,26.5557447 68.4459574,26.2953191 C69.2119149,26.0348936 69.9778723,25.7974468 70.6825532,25.5829787 C71.387234,25.3685106 72.1225532,25.2 72.8119149,25.0697872 C73.5012766,24.9395745 74.1370213,24.8093617 74.7421277,24.7404255 C75.347234,24.6714894 75.8987234,24.5948936 76.3889362,24.5565957 C76.8791489,24.5182979 77.3080851,24.4953191 77.6604255,24.4876596 L78.7710638,24.4876596 L77.6910638,24.7251064 C77.346383,24.786383 76.9251064,24.8859574 76.4578723,25.0008511 C75.9906383,25.1157447 75.4468085,25.2382979 74.8723404,25.3914894 C74.2978723,25.5446809 73.6697872,25.7131915 73.0187234,25.9046809 C72.3676596,26.0961702 71.6782979,26.3259574 70.973617,26.5404255 C70.2689362,26.7548936 69.5489362,27.0382979 68.8212766,27.306383 C68.093617,27.5744681 67.4042553,27.8655319 66.6382979,28.1719149 C65.8723404,28.4782979 65.1906383,28.8076596 64.493617,29.1676596 C63.7965957,29.5276596 63.1148936,29.8646809 62.4561702,30.2093617 C61.7974468,30.5540426 61.1693617,30.8987234 60.5948936,31.266383 C60.0204255,31.6340426 59.453617,31.9480851 58.9557447,32.2774468 C58.4578723,32.6068085 57.9906383,32.8978723 57.5846809,33.173617 C57.1787234,33.4493617 56.8187234,33.6791489 56.5429787,33.8859574 L55.6314894,34.5140426 Z" id="Path" fill="#C7C4B5" fill-rule="nonzero"></path>
                        <path d="M72.3523404,28.187234 C72.6003359,27.9545898 72.8725252,27.7491639 73.1642553,27.5744681 C73.2944681,27.4978723 73.4323404,27.4059574 73.5855319,27.3293617 C73.7387234,27.252766 73.8995745,27.1685106 74.0680851,27.0995745 L74.6042553,26.8851064 L75.1634043,26.7089362 L75.7302128,26.5634043 C75.9217021,26.5174468 76.1131915,26.4944681 76.2970213,26.4638298 C76.4720926,26.437774 76.6485909,26.4224264 76.8255319,26.4178723 C76.9887464,26.406734 77.1525302,26.406734 77.3157447,26.4178723 C77.5721938,26.4201092 77.828159,26.4405864 78.0817021,26.4791489 L78.3651064,26.5404255 L78.1276596,26.7089362 C77.9744681,26.8008511 77.7523404,26.9310638 77.4842553,27.0612766 C77.3540426,27.1302128 77.2085106,27.1914894 77.0553191,27.2604255 C76.9021277,27.3293617 76.733617,27.3906383 76.5651064,27.4519149 C76.392108,27.5197571 76.2156998,27.5785599 76.0365957,27.6280851 L75.492766,27.7889362 L74.933617,27.9268085 L74.3897872,28.0417021 C74.213617,28.0417021 74.0374468,28.0953191 73.8689362,28.1259574 C73.7004255,28.1565957 73.547234,28.1259574 73.3940426,28.1795745 C73.0477504,28.2135446 72.6990946,28.2161082 72.3523404,28.187234 L72.3523404,28.187234 Z" id="Path" fill="#C7C4B5" fill-rule="nonzero"></path>
                        <path d="M73.7770213,30.0485106 C73.9870635,29.8336965 74.2209143,29.6435321 74.4740426,29.4817021 C74.5889362,29.412766 74.7038298,29.3361702 74.8340426,29.267234 C74.9642553,29.1982979 75.1021277,29.1140426 75.2476596,29.052766 L75.6919149,28.853617 L76.1668085,28.6774468 L76.6493617,28.5319149 C76.8050039,28.485287 76.9636789,28.4494572 77.1242553,28.4246809 C77.2753779,28.3879951 77.4289779,28.3623951 77.5838298,28.3480851 C77.7216122,28.3410436 77.8596644,28.3410436 77.9974468,28.3480851 C78.214007,28.3280786 78.4319504,28.3280786 78.6485106,28.3480851 L78.893617,28.3404255 L78.7097872,28.5242553 C78.5500114,28.668666 78.378339,28.799342 78.1965957,28.9148936 C78.0816113,28.9967726 77.9613501,29.0709763 77.8365957,29.1370213 C77.7061077,29.2150561 77.5704774,29.2841508 77.4306383,29.3438298 C77.28355,29.4179932 77.1327085,29.4844658 76.9787234,29.5429787 L76.5038298,29.7114894 L76.0212766,29.8493617 L75.5387234,29.9489362 C75.3855319,29.9489362 75.2246809,29.9948936 75.0791489,30.0178723 C74.9420432,30.0378796 74.8039802,30.0506632 74.6655319,30.0561702 C74.3698332,30.0829098 74.072215,30.0803442 73.7770213,30.0485106 Z" id="Path" fill="#C7C4B5" fill-rule="nonzero"></path>
                        <path d="M74.6885106,32.292766 C74.8758803,32.0662913 75.0922005,31.8654226 75.3319149,31.6953191 C75.4425788,31.6125611 75.5576407,31.5358532 75.6765957,31.4655319 C75.8068085,31.3965957 75.9370213,31.3046809 76.0825532,31.2434043 L76.5268085,31.0519149 L77.0017021,30.8910638 L77.4842553,30.7685106 C77.6433003,30.7342974 77.8045456,30.7112623 77.9668085,30.6995745 C78.1170809,30.6847257 78.268451,30.6847257 78.4187234,30.6995745 C78.5563383,30.6876591 78.6947255,30.6876591 78.8323404,30.6995745 C79.0446816,30.7148884 79.2550319,30.7508018 79.4604255,30.8068085 L79.6978723,30.8834043 L79.4987234,31.0289362 C79.3252626,31.1466033 79.143511,31.2515584 78.9548936,31.3429787 C78.8385539,31.406658 78.7183154,31.4629399 78.5948936,31.5114894 L78.1889362,31.68 C78.0466142,31.7376563 77.9007918,31.7862638 77.7523404,31.8255319 L77.3004255,31.9634043 L76.8408511,32.0782979 L76.3889362,32.1702128 C76.2434043,32.1702128 76.0902128,32.2161702 75.9523404,32.2391489 C75.8204923,32.2615827 75.6875351,32.2769239 75.5540426,32.2851064 C75.2664154,32.3148835 74.9766198,32.3174481 74.6885106,32.292766 Z" id="Path" fill="#C7C4B5" fill-rule="nonzero"></path>
                        <path d="M75.6689362,34.7208657 C75.840764,34.4801286 76.0443043,34.2637059 76.2740426,34.0774468 C76.379333,33.9850978 76.4892629,33.8981765 76.6034043,33.8170213 C76.7259574,33.7404255 76.8485106,33.6408511 76.9940426,33.5642553 L77.4229787,33.3344681 L77.8902128,33.1429787 L78.372766,32.9821277 C78.5284082,32.9354998 78.6870831,32.89967 78.8476596,32.8748936 C78.9993059,32.8441992 79.1528432,32.8237276 79.307234,32.813617 C79.4474305,32.8022739 79.5883142,32.8022739 79.7285106,32.813617 C79.9418697,32.8142338 80.1547063,32.8347481 80.3642553,32.8748936 L80.6093617,32.9361702 L80.4178723,33.0970213 C80.2505608,33.2235299 80.076703,33.3411395 79.8970213,33.4493617 C79.7821277,33.5182979 79.667234,33.587234 79.5446809,33.6485106 C79.4157115,33.7199539 79.2827241,33.7838901 79.146383,33.84 C79.0090196,33.9136283 78.8654972,33.9751378 78.7174468,34.0238298 L78.2731915,34.2 L77.813617,34.3531915 L77.3617021,34.4680851 C77.2161702,34.5140426 77.0629787,34.5370213 76.9251064,34.5753191 L76.5344681,34.6442553 C76.2488702,34.69593 75.9591704,34.7215671 75.6689362,34.7208657 L75.6689362,34.7208657 Z" id="Path" fill="#C7C4B5" fill-rule="nonzero"></path>
                        <path d="M76.7029787,36.972766 C76.8905024,36.7329474 77.1065644,36.5168854 77.346383,36.3293617 C77.4459574,36.2451064 77.5608511,36.1531915 77.6834043,36.0689362 C77.8108506,35.9742518 77.9438548,35.8872875 78.0817021,35.8085106 L78.5182979,35.5710638 L78.9855319,35.3565957 L79.4757447,35.1804255 C79.6307905,35.1239283 79.7894427,35.0778679 79.9506383,35.0425532 C80.1033093,34.9979566 80.2596851,34.9671941 80.4178723,34.9506383 C80.556787,34.9224229 80.6975953,34.9045018 80.8391489,34.8970213 C81.0584481,34.8814727 81.2785731,34.8814727 81.4978723,34.8970213 L81.7582979,34.8970213 L81.5744681,35.0808511 C81.4116118,35.2238675 81.2402335,35.3568775 81.0612766,35.4791489 L80.7089362,35.7089362 C80.5787234,35.7855319 80.4485106,35.8621277 80.3029787,35.9310638 C80.1574468,36 80.0195745,36.0842553 79.866383,36.1531915 L79.4068085,36.3446809 L78.9319149,36.5208511 L78.4646809,36.666383 C78.3114894,36.7123404 78.1582979,36.7353191 78.012766,36.773617 C77.867234,36.8119149 77.7293617,36.8348936 77.6068085,36.8578723 C77.3099858,36.9254751 77.0072751,36.9639553 76.7029787,36.972766 L76.7029787,36.972766 Z" id="Path" fill="#C7C4B5" fill-rule="nonzero"></path>
                        <path d="M77.9744681,39.1480851 C78.1756587,38.9007904 78.4043674,38.6772212 78.6561702,38.4817021 C78.7672613,38.3819432 78.8849771,38.2898178 79.0085106,38.2059574 C79.146383,38.1217021 79.2765957,38.0144681 79.4297872,37.9302128 L79.9046809,37.6774468 L80.4102128,37.4553191 L80.9387234,37.2868085 C81.1112236,37.2314926 81.2879933,37.1905026 81.467234,37.1642553 C81.6308654,37.1268113 81.7974571,37.1037447 81.9651064,37.0953191 L82.4170213,37.0953191 C82.6477787,37.0970697 82.87813,37.1149859 83.106383,37.1489362 L83.3744681,37.2102128 L83.16,37.3710638 C82.9761003,37.5067391 82.7814083,37.6271407 82.5778723,37.7310638 C82.4528084,37.8093149 82.322256,37.8784309 82.187234,37.9378723 C82.0493617,38.0068085 81.9038298,38.0757447 81.7506383,38.1370213 C81.5989715,38.2125913 81.4429524,38.2790913 81.2834043,38.3361702 L80.8008511,38.52 L80.3106383,38.6961702 L79.8204255,38.8417021 C79.667234,38.9029787 79.4987234,38.9259574 79.3531915,38.9719149 L78.893617,39.0638298 C78.5908378,39.1226884 78.2829022,39.1509159 77.9744681,39.1480851 L77.9744681,39.1480851 Z" id="Path" fill="#C7C4B5" fill-rule="nonzero"></path>
                        <text id="1" fill="#FFFFFF" font-family="Helvetica" font-size="25.688" font-weight="normal">
                            <tspan x="79.0468085" y="74.6187234">1</tspan>
                        </text>
                        <text id="2" fill="#FFFFFF" font-family="Helvetica" font-size="11.896" font-weight="normal">
                            <tspan x="5.76765957" y="57.7310638">2</tspan>
                        </text>
                        <text id="3" fill="#FFFFFF" font-family="Helvetica" font-size="10.4" font-weight="normal">
                            <tspan x="67.5344681" y="90.3642553">3</tspan>
                        </text>
                        <path d="M80.172766,85.6493617 C80.172766,86.3254231 79.7650945,86.9347671 79.1401969,87.1927632 C78.5152993,87.4507593 77.7964971,87.3064899 77.3195497,86.8273446 C76.8426023,86.3481993 76.7016392,85.6287414 76.9625057,85.0050366 C77.2233722,84.3813317 77.834584,83.9764733 78.5106383,83.9795568 C79.4298437,83.9837911 80.172766,84.7301467 80.172766,85.6493617 Z" id="Path" fill="#63C4D1" fill-rule="nonzero"></path>
                        <circle id="Oval" fill="#63C4D1" fill-rule="nonzero" cx="96.3191489" cy="56.3974468" r="3.45446809"></circle>
                        <path d="M16.9200176,52.3838298 C16.9230973,53.0605797 16.5174064,53.672274 15.8927587,53.9326878 C15.268111,54.1931016 14.5480519,54.0507292 14.0695124,53.5721898 C13.5909729,53.0936503 13.4486005,52.3735911 13.7090143,51.7489434 C13.9694281,51.1242958 14.5811224,50.7186048 15.2578723,50.7216845 C16.1758401,50.7216845 16.9200176,51.465862 16.9200176,52.3838298 Z" id="Path" fill="#63C4D1" fill-rule="nonzero"></path>
                    </g>
                </g>
            </g>
        </g>
    </g>
</svg>