<?xml version="1.0" encoding="UTF-8"?>
<svg width="311px" height="366px" viewBox="0 0 311 366" version="1.1" xmlns="http://www.w3.org/2000/svg" xmlns:xlink="http://www.w3.org/1999/xlink">
    <!-- Generator: Sketch 63.1 (92452) - https://sketch.com -->
    <title>ludicas@2x</title>
    <desc>Created with Sketch.</desc>
    <defs>
        <rect id="path-1" x="0" y="0" width="255" height="310" rx="8"></rect>
        <filter x="-16.9%" y="-13.2%" width="133.7%" height="127.7%" filterUnits="objectBoundingBox" id="filter-3">
            <feOffset dx="0" dy="2" in="SourceAlpha" result="shadowOffsetOuter1"></feOffset>
            <feGaussianBlur stdDeviation="14" in="shadowOffsetOuter1" result="shadowBlurOuter1"></feGaussianBlur>
            <feColorMatrix values="0 0 0 0 0   0 0 0 0 0   0 0 0 0 0  0 0 0 0.06 0" type="matrix" in="shadowBlurOuter1"></feColorMatrix>
        </filter>
        <path d="M3.00025,7.99927241 C2.74425,7.99927241 2.48825,7.90127241 2.29325,7.70627241 C1.90225,7.31527241 1.90225,6.68327241 2.29325,6.29227241 L5.59825,2.98727241 L2.41825,-0.305727588 C2.03525,-0.703727588 2.04625,-1.33672759 2.44325,-1.71972759 C2.84125,-2.10272759 3.47425,-2.09172759 3.85725,-1.69572759 L7.71925,2.30427241 C8.09825,2.69727241 8.09325,3.32027241 7.70725,3.70627241 L3.70725,7.70627241 C3.51225,7.90127241 3.25625,7.99927241 3.00025,7.99927241" id="path-4"></path>
    </defs>
    <g id="Screens" stroke="none" stroke-width="1" fill="none" fill-rule="evenodd">
        <g id="Materias-" transform="translate(-992.000000, -399.000000)">
            <g id="Ficha-de-repaso" transform="translate(1020.000000, 425.000000)">
                <g id="Group">
                    <mask id="mask-2" fill="white">
                        <use xlink:href="#path-1"></use>
                    </mask>
                    <g id="Mask">
                        <use fill="black" fill-opacity="1" filter="url(#filter-3)" xlink:href="#path-1"></use>
                        <use fill="#FFFFFF" fill-rule="evenodd" xlink:href="#path-1"></use>
                    </g>
                    <rect id="Rectangle" fill="#E4E9F2" fill-rule="nonzero" opacity="0.497465588" mask="url(#mask-2)" x="0" y="0" width="255" height="88"></rect>
                    <g id="atomo/-button/-primario/-228x48px/-active-copy-2" mask="url(#mask-2)">
                        <g transform="translate(27.000000, 232.000000)" id="Group">
                            <g>
                                <rect id="Rectangle" fill="#692D86" x="0" y="0" width="200" height="48" rx="24"></rect>
                                <g id="Group-2" transform="translate(30.225131, 14.000000)">
                                    <g id="Group-3">
                                        <text id="Ver-actividades" font-family="Montserrat-Medium, Montserrat" font-size="16" font-weight="400" line-spacing="20" fill="#FFFFFF">
                                            <tspan x="0.410429319" y="15">Ver actividades</tspan>
                                        </text>
                                        <g id="Arrow_down" transform="translate(140.596859, 11.000000) rotate(-90.000000) translate(-140.596859, -11.000000) translate(135.596859, 8.000000)">
                                            <mask id="mask-5" fill="white">
                                                <use xlink:href="#path-4"></use>
                                            </mask>
                                            <use id="🎨-Icon-Сolor" fill="#FFFFFF" fill-rule="nonzero" transform="translate(5.000080, 2.999636) rotate(-270.000000) translate(-5.000080, -2.999636) " xlink:href="#path-4"></use>
                                        </g>
                                    </g>
                                </g>
                            </g>
                        </g>
                    </g>
                    <text id="Fichas-de-repaso" font-family="Montserrat-Medium, Montserrat" font-size="20" font-weight="400" letter-spacing="0.416666667" fill="#333E53">
                        <tspan x="25.8416667" y="196">Actividades lúdicas</tspan>
                    </text>
                </g>
                <g id="icono_01-" transform="translate(74.000000, 24.000000)">
                    <g id="Recurso-3" transform="translate(0.800000, -7.200000)">
                        <path d="M104.8,62.3600735 C104.815706,83.718925 92.0590143,102.983455 72.4800128,111.168111 C52.9010112,119.352768 30.3567965,114.84516 15.3626625,99.747771 C0.368528531,84.6503816 -4.12165441,61.9374222 3.98646888,42.2028942 C12.0945922,22.4683663 31.2037074,9.6 52.4007535,9.6 C81.3370153,9.6 104.795694,33.2342477 104.8,62.3913991" id="Path" fill="#4E0E80" fill-rule="nonzero"></path>
                        <path d="M19.2,88.9396676 L22.3820582,89.6 L27.1625114,55.868668 C27.3560232,54.8707569 26.7826582,53.8855476 25.8513856,53.6157693 L25.8513856,53.6157693 C25.4074184,53.5523161 24.9580733,53.6820065 24.606604,53.9750393 C24.2551347,54.268072 24.0317638,54.6992495 23.9878191,55.1694926 L19.2,88.9396676 Z" id="Path" fill="#FF8810" fill-rule="nonzero"></path>
                        <path d="M13.6043108,88 L16.8,86.9491706 L8.87135879,54.1957442 C8.79365453,53.7292782 8.52640515,53.3180251 8.13553266,53.0634281 C7.74466016,52.8088312 7.26655506,52.7345936 6.8191508,52.8590274 L6.8191508,52.8590274 C5.89425478,53.2421632 5.40115956,54.2750596 5.67566959,55.2543003 L13.6043108,88 Z" id="Path" fill="#3161AA" fill-rule="nonzero"></path>
                        <path d="M16.600213,95.2 L20,94.9142879 L17.7905274,60.9994859 C17.7969155,60.5190436 17.6069117,60.0565319 17.2638791,59.7175066 C16.9208465,59.3784813 16.4540584,59.1918736 15.9700465,59.2 L15.9700465,59.2 C14.9773956,59.3662961 14.2919335,60.2779813 14.4140799,61.2697541 L16.600213,95.2 Z" id="Path" fill="#FC4E34" fill-rule="nonzero"></path>
                        <polygon id="Path" fill="#FEA424" fill-rule="nonzero" points="9.93622795 108.8 24.463772 108.8 28.8 72 5.6 72"></polygon>
                        <path d="M9.93622795,108.792254 L5.6,72 L28.8,72 L28.2333786,76.8255946 C24.2985075,77.7860661 20.5367707,79.2809935 17.6800543,82.3483056 C14.3668928,85.8958535 12.8008141,91.1319722 12.4860244,96.2906336 C12.336682,100.478939 12.629431,104.67119 13.3595658,108.8 L9.93622795,108.792254 Z" id="Path" fill="#010103" fill-rule="nonzero" opacity="0.1"></path>
                        <path d="M4.58602997,73.6 L29.81397,73.6 C30.6281098,73.5410608 31.2432626,72.8382037 31.193623,72.0236453 L31.193623,72.0236453 C31.2306728,71.6244261 31.1051936,71.2271299 30.845551,70.9215694 C30.5859084,70.6160089 30.2140255,70.4279841 29.81397,70.4 L4.58602997,70.4 C3.77189019,70.4589392 3.15673744,71.1617963 3.206377,71.9763547 L3.206377,71.9763547 C3.16932716,72.3755739 3.29480645,72.7728701 3.55444901,73.0784306 C3.81409158,73.3839911 4.18597452,73.5720159 4.58602997,73.6 Z" id="Path" fill="#7A268F" fill-rule="nonzero"></path>
                        <path d="M66.375816,81.515469 L66.375816,81.515469 L66.375816,81.515469 L66.3297238,81.6706499 C66.3488199,81.8577552 66.491172,82.0079245 66.6754155,82.0353249 L74.2345424,82.0353249 C74.3342084,82.0262843 74.434476,82.0262843 74.534142,82.0353249 L74.534142,82.0353249 C74.7845667,82.0435513 75.028387,82.1185014 75.2408896,82.2525782 L75.2946639,82.050843 L75.2946639,74.811655 C75.5594092,74.5135365 75.9832339,74.4197979 76.3471033,74.5788837 C77.0951715,74.9105486 77.9038974,75.0797307 78.7208535,75.0754625 C82.7616063,75.0754625 85.7499197,71.102832 82.8307446,67.3784909 C82.6781604,67.1821475 82.4905668,67.0163577 82.2776378,66.8896711 C80.5153068,65.7355269 78.3040366,65.5295867 76.3624674,66.338779 C76.0432991,66.4930787 75.6650758,66.4509669 75.3868483,66.2301523 L75.3868483,59.0607957 C75.3868483,58.6322755 75.0429117,58.2848913 74.6186444,58.2848913 L74.342091,58.238337 L66.6677335,58.238337 C66.1146267,58.1529876 65.7612528,57.6253726 66.0378063,57.175348 C66.4206884,56.5357478 66.6275454,55.8044908 66.6370053,55.057129 C66.6370053,52.4656083 64.2248449,50.4017026 61.2595777,50.4017026 C58.2866284,50.3318712 55.88215,52.4190541 55.88215,55.0105747 C55.8841112,55.7603969 56.0886306,56.4954623 56.4736671,57.1365528 C56.5848173,57.3612936 56.5736301,57.6279913 56.4440576,57.8424311 C56.3144852,58.0568708 56.0847682,58.1888643 55.8360578,58.1917828 L48.2001105,58.1917828 L47.9235571,58.238337 C47.7093953,58.2209756 47.4978217,58.2949918 47.3401729,58.4424261 C47.1825241,58.5898605 47.0932081,58.7972384 47.0938968,59.0142414 L47.0938968,66.1991162 C46.8246496,66.4694475 46.4179997,66.5435635 46.0721856,66.3853332 C44.130719,65.5759715 41.9205697,65.7728543 40.1493331,66.9129482 C39.9375305,67.0442811 39.7481552,67.2093528 39.5885442,67.401768 C36.6540051,71.1183501 39.5885442,75.1064987 43.6600252,75.160812 C44.4784742,75.1629979 45.2887768,74.9966728 46.0414574,74.6719922 C46.404376,74.5134371 46.8271765,74.6107768 47.0862148,74.9125226 L47.0862148,82.1439515 C47.0864892,82.2329936 47.1075441,82.320716 47.1476711,82.4 C47.3583941,82.2692823 47.5995278,82.19702 47.8467367,82.1905058 L47.8467367,82.1905058 C47.9464432,82.1824318 48.0466297,82.1824318 48.1463362,82.1905058 L55.7285092,82.1905058 C55.9141069,82.1657788 56.0578082,82.0141864 56.074201,81.8258307 L56.0281088,81.6706499 L56.0281088,81.6163366 C55.6306525,80.9478099 55.415932,80.184739 55.4058636,79.405009 L55.4058636,79.405009 L55.4058636,79.405009 L55.4058636,79.405009 L55.4058636,79.405009 C55.4162946,78.9256025 55.5045296,78.4511724 55.6670529,78.0006221 C56.5545705,75.7643692 58.7376855,74.3326731 61.121301,74.4237028 L61.3748083,74.4237028 C63.7590619,74.3303335 65.9433951,75.7628286 66.8290563,78.0006221 C66.9959617,78.4526395 67.0843233,78.9303754 67.0902457,79.4127681 L67.0902457,79.4127681 C67.0345905,80.1639553 66.7885647,80.8880552 66.375816,81.515469 Z" id="Path" fill="#FFC81E" fill-rule="nonzero"></path>
                        <path d="M69.671705,91.2456973 C70.8353225,90.4326931 72.2200869,89.999348 73.6376451,90.0046051 L73.6376451,90.0046051 C73.9705502,90.0131552 74.3024777,90.0446493 74.6310858,90.0988653 C74.9361581,90.0988653 75.2412304,90.0517352 75.5463027,90.0438802 L76,90.0438802 L76,83.4221031 C75.9877558,83.2087659 75.8138295,83.0409628 75.6010593,83.0372073 L75.4993685,83.0372073 L75.4367896,83.0372073 L75.295987,83.0372073 L67.113791,83.0372073 C66.5493353,82.9998925 66.0821528,82.5825265 65.9795478,82.0239105 L65.9795478,81.9217953 C65.9834557,81.7584015 66.029257,81.5987805 66.112528,81.4583495 L66.112528,81.4583495 L66.112528,81.4583495 L66.112528,81.4583495 C66.4783502,80.8719355 66.6734441,80.1944201 66.6757384,79.5024509 L66.6757384,79.5024509 C66.6673512,79.0861268 66.5879788,78.6743247 66.4410674,78.2849237 C65.6052742,76.332191 63.6506886,75.1050852 61.5364433,75.205758 L61.2704828,75.205758 C60.2457608,75.2032766 59.2387981,75.4743665 58.3527399,75.9912595 C57.4464173,76.5001054 56.7461974,77.3116373 56.373681,78.2849237 C56.2920117,78.5096759 56.2292137,78.7408963 56.1859442,78.9761649 C56.1522628,79.1469791 56.1339369,79.3204873 56.1311876,79.4945959 L56.1311876,79.4945959 C56.1362426,80.1872679 56.33403,80.8647282 56.7022204,81.4504944 L56.7022204,81.4504944 L56.7022204,81.4504944 L56.7022204,81.4504944 C56.7858058,81.5936539 56.8315801,81.7558846 56.8352007,81.9217953 L56.8352007,82.0082005 C56.738416,82.5713757 56.2689917,82.9939954 55.7009574,83.0293523 L47.3857812,83.0293523 L47.3153799,83.0293523 L47.2449786,83.0293523 C47.0231588,83.0242746 46.835235,83.1923964 46.8147484,83.414248 L46.8147484,90.8293816 L46.7052353,90.9393518 C46.4224254,91.2019034 46.0499766,91.3453182 45.6648605,91.3399575 C45.4532184,91.3412197 45.2433457,91.3012041 45.0468935,91.2221323 C44.3150964,90.9190883 43.5308731,90.7642586 42.7392952,90.7665415 C41.5090295,90.7788315 40.3034511,91.1146607 39.2426971,91.7405633 C39.0646453,91.8430041 38.9058055,91.9759231 38.7733551,92.133314 C38.0497897,92.9369519 37.6339597,93.9725141 37.6,95.0553793 C37.6,97.4118836 39.9075983,99.3520722 42.7236504,99.3599272 L42.7236504,99.3599272 C43.5135993,99.3635632 44.2960378,99.2058879 45.0234264,98.8964813 C45.2144861,98.8176638 45.4191974,98.7776185 45.6257486,98.7786561 C46.0426033,98.7752406 46.4421191,98.9459569 46.7287024,99.249957 L46.8147484,99.3520722 L46.8147484,106.798626 C46.8354674,107.030055 47.0377559,107.201667 47.2684457,107.183521 L55.8104706,107.183521 L55.9434508,107.183521 L56.0294968,107.183521 C56.1386448,107.184637 56.2444085,107.145509 56.3267468,107.073551 C56.4061274,107.007792 56.4520423,106.909816 56.4519047,106.806481 L56.373681,106.578685 C55.7662989,105.81255 55.432952,104.863664 55.4271746,103.884415 C55.4637722,102.703628 55.8996713,101.570547 56.6631086,100.671715 L56.6631086,100.671715 L56.6631086,100.671715 C57.0466022,100.298858 57.4780529,99.9792028 57.9459768,99.7212578 L57.9459768,99.7212578 C59.010158,99.2149791 60.1711883,98.9469617 61.3487065,98.9357564 L61.3487065,98.9357564 C62.5263427,98.9459575 63.6875854,99.214024 64.7514361,99.7212578 L64.7514361,99.7212578 C65.2549701,99.9673811 65.7190152,100.287744 66.1281727,100.671715 L66.1281727,100.671715 L66.1281727,100.671715 C66.894927,101.574712 67.3310425,102.713899 67.3641067,103.900125 C67.3575586,104.877921 67.027332,105.825758 66.4254227,106.594395 L66.3393767,106.822191 C66.3432195,106.924595 66.3884059,107.021016 66.4645345,107.089261 C66.548886,107.163051 66.6577785,107.202304 66.7696068,107.199232 L66.87912,107.199232 L66.9808108,107.199232 L75.5150132,107.199232 C75.7427636,107.212906 75.9401693,107.042499 75.9608882,106.814336 L75.9608882,100.090444 C75.7629062,100.102592 75.5643702,100.102592 75.3663883,100.090444 L75.3663883,100.090444 C75.0775585,100.081613 74.78986,100.050097 74.5059279,99.9961833 C74.2051459,100.036925 73.9020373,100.057916 73.5985333,100.059023 C72.258802,100.065537 70.9386397,99.7361435 69.7577511,99.1007117 L69.6091261,99.0300166 C69.3413426,98.877377 69.1029151,98.6778582 68.9051131,98.4408905 C68.4599064,97.9102346 68.1080723,97.3072295 67.8647382,96.6578022 C67.8017696,96.4751335 67.7495307,96.2889113 67.7082909,96.1000962 C67.626182,95.7710888 67.581569,95.4337778 67.5753107,95.0946544 C67.600622,93.5433768 68.3846131,92.1039779 69.671705,91.2456973 Z" id="Path" fill="#FA6311" fill-rule="nonzero"></path>
                        <path d="M64.744352,62.9734361 L65.180938,62.832091 L76.1735505,56.9191547 C76.600271,56.7828077 77.0658498,56.8572957 77.4296206,57.1201136 C77.7933915,57.3829315 78.0126848,57.8032512 78.021245,58.2540805 C78.0396832,59.6860006 78.3865495,61.0942402 79.0347483,62.3687932 C80.0775907,64.4871941 81.932206,66.0863016 84.1710562,66.7974792 C86.4099065,67.5086567 88.8397822,67.2705308 90.9005328,66.1379956 C92.994355,65.0377001 94.5640718,63.1393554 95.2597345,60.8661738 C95.9553971,58.5929923 95.7191703,56.1339592 94.6037179,54.0372853 C93.9522631,52.7732375 93.0148938,51.6811534 91.867259,50.8491683 C91.510145,50.5743303 91.3006403,50.1475263 91.3006403,49.69485 C91.3006403,49.2421738 91.510145,48.8153698 91.867259,48.5405318 L102.88326,42.6747105 L103.241884,42.3841678 C103.897992,41.986166 104.127947,41.1392122 103.764228,40.4603041 L97.39475,28.1083136 C97.5158615,27.4721662 98.0615736,27.0075771 98.7045081,26.9932579 C101.745018,26.9932579 104.840101,25.3128218 106.750165,21.4965044 C106.94727,21.100341 107.073925,20.6724517 107.124381,20.2322511 C108.052127,11.5944955 100.248152,7.02433756 94.4166096,10.1260771 C93.2201778,10.7646669 92.195529,11.6862378 91.430673,12.8116338 C91.0399724,13.360819 90.3035012,13.5294081 89.7155136,13.204259 L83.2758697,0.789448545 C83.1088668,0.447572837 82.8119039,0.188086694 82.4523058,0.0698185613 C82.0927077,-0.0484495709 81.7009345,-0.0154816437 81.3658058,0.161248141 L69.7884799,6.37257964 L69.6247601,6.49821972 L69.5545945,6.53748225 C69.0979714,6.79194948 68.8145704,7.27611031 68.8145704,7.80173556 C68.8145704,8.32736081 69.0979714,8.81152164 69.5545945,9.06598887 C72.3768113,10.76213 74.364837,14.1230021 73.975028,18.6538975 C73.8054154,19.4750273 73.5219765,20.2680461 73.1330407,21.0096491 C72.262811,22.51793 71.0086344,23.764903 69.5000212,24.6218014 C67.9596915,25.393629 66.2420548,25.7352996 64.526059,25.611217 C63.7210715,25.5132165 62.9337534,25.3017481 62.1872053,24.9830166 C58.2891157,22.7293477 56.7298799,19.1486054 56.9793576,15.8191432 C57.0408689,15.3048793 56.8213006,14.7973466 56.4054643,14.4925871 C55.989628,14.1878276 55.4426236,14.1335519 54.9757396,14.3507248 L54.905574,14.3507248 L54.7106695,14.4213973 L43.1333436,20.6170238 C42.4416815,21.0034226 42.1850139,21.8768077 42.5564263,22.5801501 L48.9259047,35.0263706 C48.8595816,35.7020565 48.3055446,36.2231177 47.6317389,36.2435089 C46.2722649,36.2449524 44.9338597,36.5819712 43.7336494,37.225072 C37.9176998,40.366074 37.1536742,49.4906849 44.6535985,53.6289551 C45.035583,53.8406449 45.4532526,53.9790989 45.8853948,54.0372853 C50.0407583,54.5948132 53.1514337,52.9457871 54.8821855,50.409428 C55.2450922,49.8721482 55.937897,49.6737188 56.5271793,49.9382777 L62.8576767,62.3138257 C63.2034808,63.0142908 64.042043,63.3074649 64.744352,62.9734361 Z" id="Path" fill="#F4267F" fill-rule="nonzero"></path>
                    </g>
                </g>
            </g>
        </g>
    </g>
</svg>