<?xml version="1.0" encoding="UTF-8"?>
<svg width="311px" height="366px" viewBox="0 0 311 366" version="1.1" xmlns="http://www.w3.org/2000/svg" xmlns:xlink="http://www.w3.org/1999/xlink">
    <!-- Generator: Sketch 63.1 (92452) - https://sketch.com -->
    <title>maestro@2x</title>
    <desc>Created with Sketch.</desc>
    <defs>
        <rect id="path-1" x="0" y="0" width="255" height="310" rx="8"></rect>
        <filter x="-16.9%" y="-13.2%" width="133.7%" height="127.7%" filterUnits="objectBoundingBox" id="filter-3">
            <feOffset dx="0" dy="2" in="SourceAlpha" result="shadowOffsetOuter1"></feOffset>
            <feGaussianBlur stdDeviation="14" in="shadowOffsetOuter1" result="shadowBlurOuter1"></feGaussianBlur>
            <feColorMatrix values="0 0 0 0 0   0 0 0 0 0   0 0 0 0 0  0 0 0 0.06 0" type="matrix" in="shadowBlurOuter1"></feColorMatrix>
        </filter>
        <path d="M3.00025,7.99927241 C2.74425,7.99927241 2.48825,7.90127241 2.29325,7.70627241 C1.90225,7.31527241 1.90225,6.68327241 2.29325,6.29227241 L5.59825,2.98727241 L2.41825,-0.305727588 C2.03525,-0.703727588 2.04625,-1.33672759 2.44325,-1.71972759 C2.84125,-2.10272759 3.47425,-2.09172759 3.85725,-1.69572759 L7.71925,2.30427241 C8.09825,2.69727241 8.09325,3.32027241 7.70725,3.70627241 L3.70725,7.70627241 C3.51225,7.90127241 3.25625,7.99927241 3.00025,7.99927241" id="path-4"></path>
    </defs>
    <g id="Screens" stroke="none" stroke-width="1" fill="none" fill-rule="evenodd">
        <g id="Materias-" transform="translate(-422.000000, -1139.000000)">
            <g id="maestro" transform="translate(450.000000, 1165.000000)">
                <g id="Group">
                    <mask id="mask-2" fill="white">
                        <use xlink:href="#path-1"></use>
                    </mask>
                    <g id="Mask">
                        <use fill="black" fill-opacity="1" filter="url(#filter-3)" xlink:href="#path-1"></use>
                        <use fill="#FFFFFF" fill-rule="evenodd" xlink:href="#path-1"></use>
                    </g>
                    <rect id="Rectangle" fill="#E4E9F2" fill-rule="nonzero" opacity="0.497465588" mask="url(#mask-2)" x="0" y="0" width="255" height="88"></rect>
                    <g id="atomo/-button/-primario/-228x48px/-active-copy-2" mask="url(#mask-2)">
                        <g transform="translate(27.000000, 232.000000)" id="Group">
                            <g>
                                <rect id="Rectangle" fill="#00A2AA" x="0" y="0" width="200" height="48" rx="24"></rect>
                                <g id="Group-2" transform="translate(30.225131, 14.000000)">
                                    <g id="Group-3">
                                        <text id="Ver-actividades" font-family="Montserrat-Medium, Montserrat" font-size="16" font-weight="400" line-spacing="20" fill="#FFFFFF">
                                            <tspan x="0.410429319" y="15">Ver actividades</tspan>
                                        </text>
                                        <g id="Arrow_down" transform="translate(140.596859, 11.000000) rotate(-90.000000) translate(-140.596859, -11.000000) translate(135.596859, 8.000000)">
                                            <mask id="mask-5" fill="white">
                                                <use xlink:href="#path-4"></use>
                                            </mask>
                                            <use id="🎨-Icon-Сolor" fill="#FFFFFF" fill-rule="nonzero" transform="translate(5.000080, 2.999636) rotate(-270.000000) translate(-5.000080, -2.999636) " xlink:href="#path-4"></use>
                                        </g>
                                    </g>
                                </g>
                            </g>
                        </g>
                    </g>
                    <text id="Fichas-de-repaso" font-family="Montserrat-Medium, Montserrat" font-size="20" font-weight="400" letter-spacing="0.416666667" fill="#333E53">
                        <tspan x="64.1666667" y="186">Tu maestr@</tspan>
                        <tspan x="82.945" y="210"> en línea</tspan>
                    </text>
                </g>
                <g id="icono_01-" transform="translate(74.000000, 24.000000)">
                    <g id="Recurso-7" transform="translate(-16.800000, 0.000000)">
                        <path d="M123.528,53.928 C123.528,83.711612 99.383612,107.856 69.6,107.856 C39.816388,107.856 15.672,83.711612 15.672,53.928 C15.672,24.144388 39.816388,0 69.6,0 C99.3817822,0.00441702376 123.523583,24.1462178 123.528,53.928" id="Path" fill="#3D9A8F" fill-rule="nonzero"></path>
                        <path d="M78.896,88.4 L76.496,88.4 L76.496,83.52 C76.5492759,82.5229535 76.1775783,81.550023 75.4730807,80.8424757 C74.7685831,80.1349283 73.7972674,79.7590315 72.8,79.808 L24,79.808 C21.896,79.808 17.936,78.544 17.936,73.744 C17.936,68.944 21.864,67.68 24,67.68 L92.4,67.68 C93.3887191,67.7236001 94.3502886,67.3499074 95.050098,66.650098 C95.7499074,65.9502886 96.1236001,64.9887191 96.08,64 L96.08,59.2 L98.48,59.136 L98.48,64 C98.48,68.8 94.48,70.072 92.408,70.072 L24,70.072 C22.6341698,70.0085416 21.3440368,70.7010757 20.6421421,71.8744738 C19.9402475,73.0478718 19.9402475,74.5121282 20.6421421,75.6855262 C21.3440368,76.8589243 22.6341698,77.5514584 24,77.488 L72.8,77.488 C77.6,77.488 78.872,81.488 78.872,83.552 L78.896,88.4 Z" id="Path" fill="#FFFFFF" fill-rule="nonzero"></path>
                        <rect id="Rectangle" fill="#FFFFFF" fill-rule="nonzero" x="39.728" y="31.176" width="27.688" height="33.352" rx="1.792"></rect>
                        <rect id="Rectangle" fill="#FF8810" fill-rule="nonzero" x="42.752" y="34.752" width="21.632" height="26.192"></rect>
                        <rect id="Rectangle" fill="#79C6B3" fill-rule="nonzero" x="52.152" y="36.152" width="4.808" height="1.456"></rect>
                        <rect id="Rectangle" fill="#79C6B3" fill-rule="nonzero" x="57.768" y="36.152" width="3.416" height="1.456"></rect>
                        <rect id="Rectangle" fill="#79C6B3" fill-rule="nonzero" opacity="0.63" x="52.152" y="38.608" width="8.016" height="1"></rect>
                        <rect id="Rectangle" fill="#79C6B3" fill-rule="nonzero" opacity="0.63" x="52.152" y="39.952" width="6.192" height="1"></rect>
                        <rect id="Rectangle" fill="#79C6B3" fill-rule="nonzero" opacity="0.63" x="52.152" y="41.296" width="6.84" height="1"></rect>
                        <path d="M50.4,42.208 C50.1727142,41.9816762 49.8647497,41.8550366 49.544,41.856 L48.552,41.856 C48.8559369,41.5882931 49.0330809,41.2049651 49.04,40.8 L49.04,40.44 C49.2182539,40.3930143 49.3428594,40.2323389 49.344,40.048 C49.3480376,39.8636026 49.220404,39.7023811 49.04,39.664 L49.04,39.2 L49.112,39.2 L49.112,39.152 C49.0865167,38.702506 48.7142152,38.3512782 48.264,38.3519989 L45.912,38.3519989 C45.9126746,38.5807297 46.0048624,38.7996757 46.168,38.96 L46.168,39.68 C45.9861538,39.7179093 45.8558815,39.8782444 45.856,40.064 C45.8608336,40.2496638 45.9881547,40.4096312 46.168,40.456 L46.168,40.8 C46.1661822,41.1804841 46.3158623,41.5460489 46.584,41.816 L46.648,41.872 L45.648,41.872 C45.3279302,41.8744568 45.0212086,42.0005853 44.792,42.224 C44.5637008,42.4532427 44.4368991,42.7644832 44.4399444,43.088 L44.4399444,43.088 L44.4399444,44.48 L50.768,44.48 L50.768,43.064 C50.7656372,42.7407471 50.6329561,42.4321194 50.4,42.208 Z" id="Path" fill="#FFFFFF" fill-rule="nonzero"></path>
                        <rect id="Rectangle" fill="#79C6B3" fill-rule="nonzero" x="52.152" y="42.936" width="3.096" height="2.216"></rect>
                        <rect id="Rectangle" fill="#79C6B3" fill-rule="nonzero" x="55.888" y="42.936" width="3.104" height="2.216"></rect>
                        <rect id="Rectangle" fill="#79C6B3" fill-rule="nonzero" x="59.624" y="42.936" width="3.104" height="2.216"></rect>
                        <rect id="Rectangle" fill="#79C6B3" fill-rule="nonzero" x="44.44" y="45.864" width="6.328" height="1.496"></rect>
                        <rect id="Rectangle" fill="#79C6B3" fill-rule="nonzero" opacity="0.63" x="44.44" y="48.328" width="3.608" height="1"></rect>
                        <rect id="Rectangle" fill="#79C6B3" fill-rule="nonzero" opacity="0.63" x="44.44" y="49.744" width="4.768" height="1"></rect>
                        <rect id="Rectangle" fill="#79C6B3" fill-rule="nonzero" opacity="0.63" x="44.44" y="51.16" width="3.608" height="1"></rect>
                        <rect id="Rectangle" fill="#79C6B3" fill-rule="nonzero" opacity="0.63" x="44.44" y="52.584" width="4.992" height="1"></rect>
                        <path d="M44.44,54.288 L44.44,58.176 L50.768,58.176 L50.768,54.288 L44.44,54.288 Z M46.968,57.136 L46.968,55.328 L48.528,56.232 L46.968,57.136 Z" id="Shape" fill="#79C6B3" fill-rule="nonzero"></path>
                        <rect id="Rectangle" fill="#79C6B3" fill-rule="nonzero" x="44.44" y="58.696" width="6.328" height="1"></rect>
                        <rect id="Rectangle" fill="#79C6B3" fill-rule="nonzero" x="52.152" y="45.864" width="10.576" height="1"></rect>
                        <rect id="Rectangle" fill="#79C6B3" fill-rule="nonzero" x="52.152" y="47.72" width="7.128" height="1"></rect>
                        <rect id="Rectangle" fill="#79C6B3" fill-rule="nonzero" opacity="0.63" x="52.152" y="49.072" width="10.576" height="2.832"></rect>
                        <rect id="Rectangle" fill="#79C6B3" fill-rule="nonzero" opacity="0.63" x="52.152" y="52.584" width="10.576" height="1.16"></rect>
                        <rect id="Rectangle" fill="#79C6B3" fill-rule="nonzero" x="52.152" y="54.664" width="5.56" height="1"></rect>
                        <rect id="Rectangle" fill="#79C6B3" fill-rule="nonzero" opacity="0.63" x="52.152" y="56.008" width="10.576" height="1.16"></rect>
                        <rect id="Rectangle" fill="#79C6B3" fill-rule="nonzero" opacity="0.63" x="52.152" y="58.024" width="10.576" height="1.344"></rect>
                        <path d="M54.616,62.728 C54.615801,63.1547461 54.3568622,63.5387529 53.9613089,63.6989084 C53.5657556,63.8590639 53.1125945,63.7633791 52.8155535,63.4569825 C52.5185125,63.1505859 52.4369218,62.6946763 52.6092626,62.304278 C52.7816035,61.9138796 53.1734529,61.6669696 53.6,61.68 C54.1681063,61.6930956 54.6205221,62.1597608 54.616,62.728 L54.616,62.728 Z" id="Path" fill="#6F4158" fill-rule="nonzero"></path>
                        <rect id="Rectangle" fill="#7F7580" fill-rule="nonzero" x="21.496" y="84.144" width="79.024" height="25.632"></rect>
                        <rect id="Rectangle" fill="#FFFFFF" fill-rule="nonzero" x="23.84" y="86.168" width="3.768" height="3.952"></rect>
                        <rect id="Rectangle" fill="#FFFFFF" fill-rule="nonzero" x="29.344" y="86.168" width="3.768" height="3.952"></rect>
                        <rect id="Rectangle" fill="#FFFFFF" fill-rule="nonzero" x="34.856" y="86.168" width="3.768" height="3.952"></rect>
                        <rect id="Rectangle" fill="#FFFFFF" fill-rule="nonzero" x="40.36" y="86.168" width="3.768" height="3.952"></rect>
                        <rect id="Rectangle" fill="#FFFFFF" fill-rule="nonzero" x="45.872" y="86.168" width="3.768" height="3.952"></rect>
                        <rect id="Rectangle" fill="#FFFFFF" fill-rule="nonzero" x="51.376" y="86.168" width="3.768" height="3.952"></rect>
                        <rect id="Rectangle" fill="#FFFFFF" fill-rule="nonzero" x="56.888" y="86.168" width="3.768" height="3.952"></rect>
                        <rect id="Rectangle" fill="#FFFFFF" fill-rule="nonzero" x="62.392" y="86.168" width="3.768" height="3.952"></rect>
                        <rect id="Rectangle" fill="#FFFFFF" fill-rule="nonzero" x="67.904" y="86.168" width="3.768" height="3.952"></rect>
                        <rect id="Rectangle" fill="#FFFFFF" fill-rule="nonzero" x="73.416" y="86.168" width="3.768" height="3.952"></rect>
                        <rect id="Rectangle" fill="#FFFFFF" fill-rule="nonzero" x="78.92" y="86.168" width="3.768" height="3.952"></rect>
                        <rect id="Rectangle" fill="#FFFFFF" fill-rule="nonzero" x="84.432" y="86.168" width="3.768" height="3.952"></rect>
                        <rect id="Rectangle" fill="#FFFFFF" fill-rule="nonzero" x="89.936" y="86.168" width="3.768" height="3.952"></rect>
                        <rect id="Rectangle" fill="#FFFFFF" fill-rule="nonzero" x="95.44" y="86.168" width="3.768" height="3.952"></rect>
                        <rect id="Rectangle" fill="#FFFFFF" fill-rule="nonzero" x="23.84" y="93.008" width="3.768" height="3.952"></rect>
                        <rect id="Rectangle" fill="#FFFFFF" fill-rule="nonzero" x="29.344" y="93.008" width="3.768" height="3.952"></rect>
                        <rect id="Rectangle" fill="#FFFFFF" fill-rule="nonzero" x="34.856" y="93.008" width="3.768" height="3.952"></rect>
                        <rect id="Rectangle" fill="#FFFFFF" fill-rule="nonzero" x="40.36" y="93.008" width="3.768" height="3.952"></rect>
                        <rect id="Rectangle" fill="#FFFFFF" fill-rule="nonzero" x="45.872" y="93.008" width="3.768" height="3.952"></rect>
                        <rect id="Rectangle" fill="#FFFFFF" fill-rule="nonzero" x="51.376" y="93.008" width="3.768" height="3.952"></rect>
                        <rect id="Rectangle" fill="#FFFFFF" fill-rule="nonzero" x="56.888" y="93.008" width="3.768" height="3.952"></rect>
                        <rect id="Rectangle" fill="#FFFFFF" fill-rule="nonzero" x="62.392" y="93.008" width="3.768" height="3.952"></rect>
                        <rect id="Rectangle" fill="#FFFFFF" fill-rule="nonzero" x="67.904" y="93.008" width="3.768" height="3.952"></rect>
                        <rect id="Rectangle" fill="#FFFFFF" fill-rule="nonzero" x="67.904" y="93.008" width="3.768" height="5.424"></rect>
                        <rect id="Rectangle" fill="#FFFFFF" fill-rule="nonzero" x="84.432" y="93.008" width="3.768" height="3.952"></rect>
                        <rect id="Rectangle" fill="#FFFFFF" fill-rule="nonzero" x="73.416" y="93.008" width="3.768" height="3.952"></rect>
                        <rect id="Rectangle" fill="#FFFFFF" fill-rule="nonzero" x="78.92" y="93.008" width="3.768" height="3.952"></rect>
                        <rect id="Rectangle" fill="#FFFFFF" fill-rule="nonzero" x="89.936" y="93.008" width="3.768" height="3.952"></rect>
                        <rect id="Rectangle" fill="#FFFFFF" fill-rule="nonzero" x="95.44" y="93.008" width="3.768" height="3.952"></rect>
                        <rect id="Rectangle" fill="#FFFFFF" fill-rule="nonzero" x="23.84" y="98.432" width="3.768" height="3.952"></rect>
                        <rect id="Rectangle" fill="#FFFFFF" fill-rule="nonzero" x="29.344" y="98.432" width="3.768" height="3.952"></rect>
                        <rect id="Rectangle" fill="#FFFFFF" fill-rule="nonzero" x="34.856" y="98.432" width="3.768" height="3.952"></rect>
                        <rect id="Rectangle" fill="#FFFFFF" fill-rule="nonzero" x="40.36" y="98.432" width="3.768" height="3.952"></rect>
                        <rect id="Rectangle" fill="#FFFFFF" fill-rule="nonzero" x="45.872" y="98.432" width="3.768" height="3.952"></rect>
                        <rect id="Rectangle" fill="#FFFFFF" fill-rule="nonzero" x="51.376" y="98.432" width="3.768" height="3.952"></rect>
                        <rect id="Rectangle" fill="#FFFFFF" fill-rule="nonzero" x="56.888" y="98.432" width="3.768" height="3.952"></rect>
                        <rect id="Rectangle" fill="#FFFFFF" fill-rule="nonzero" x="62.392" y="98.432" width="3.768" height="3.952"></rect>
                        <rect id="Rectangle" fill="#FFFFFF" fill-rule="nonzero" x="62.392" y="98.432" width="9.28" height="3.952"></rect>
                        <rect id="Rectangle" fill="#FFFFFF" fill-rule="nonzero" x="78.92" y="98.432" width="3.768" height="3.952"></rect>
                        <rect id="Rectangle" fill="#FFFFFF" fill-rule="nonzero" x="89.936" y="98.432" width="3.768" height="3.952"></rect>
                        <rect id="Rectangle" fill="#FFFFFF" fill-rule="nonzero" x="95.44" y="98.432" width="3.768" height="3.952"></rect>
                        <rect id="Rectangle" fill="#FFFFFF" fill-rule="nonzero" x="23.84" y="103.856" width="8.184" height="3.952"></rect>
                        <rect id="Rectangle" fill="#FFFFFF" fill-rule="nonzero" x="34.856" y="103.856" width="25.8" height="3.952"></rect>
                        <rect id="Rectangle" fill="#FFFFFF" fill-rule="nonzero" x="62.392" y="103.856" width="3.768" height="3.952"></rect>
                        <rect id="Rectangle" fill="#FFFFFF" fill-rule="nonzero" x="67.904" y="103.856" width="3.768" height="3.952"></rect>
                        <rect id="Rectangle" fill="#FFFFFF" fill-rule="nonzero" x="73.416" y="103.856" width="3.768" height="3.952"></rect>
                        <rect id="Rectangle" fill="#FFFFFF" fill-rule="nonzero" x="78.92" y="103.856" width="3.768" height="3.952"></rect>
                        <rect id="Rectangle" fill="#FFFFFF" fill-rule="nonzero" x="84.432" y="103.856" width="3.768" height="3.952"></rect>
                        <rect id="Rectangle" fill="#FFFFFF" fill-rule="nonzero" x="89.936" y="103.856" width="3.768" height="3.952"></rect>
                        <rect id="Rectangle" fill="#FFFFFF" fill-rule="nonzero" x="95.44" y="103.856" width="3.768" height="3.952"></rect>
                        <rect id="Rectangle" fill="#46293A" fill-rule="nonzero" x="71.216" y="18.656" width="51.488" height="38.528" rx="2.656"></rect>
                        <rect id="Rectangle" fill="#FFFFFF" fill-rule="nonzero" x="68.592" y="57.184" width="56.736" height="5.312"></rect>
                        <rect id="Rectangle" fill="#DDD691" fill-rule="nonzero" x="76.208" y="23.424" width="41.4" height="29.552"></rect>
                        <polygon id="Path" fill="#EFE76C" fill-rule="nonzero" points="117.608 23.424 117.608 52.976 76.208 52.976"></polygon>
                        <path d="M98.296,21.104 C98.296,21.8065062 97.7265062,22.376 97.024,22.376 C96.3214938,22.376 95.752,21.8065062 95.752,21.104 C95.752,20.4014938 96.3214938,19.832 97.024,19.832 C97.7265062,19.832 98.296,20.4014938 98.296,21.104 L98.296,21.104 Z" id="Path" fill="#46293A" fill-rule="nonzero"></path>
                        <path d="M70.16,48.248 L70.16,51.448 L71.2,51.448 L71.2,53.848 L65.928,53.848 L65.928,26.584 C65.9324089,25.1158386 67.123832,23.928 68.592,23.928 L71.2,23.928 L71.2,48.248 L70.16,48.248 Z" id="Path" fill="#98A6A1" fill-rule="nonzero" style="mix-blend-mode: multiply;"></path>
                        <path d="M98.44,62.552 L98.44,64 C98.4561048,64.9139132 98.2817376,65.8211676 97.928,66.664 L95.112,66.664 C95.7878399,65.9472438 96.1380557,64.983427 96.08,64 L96.08,62.552 L98.44,62.552 Z" id="Path" fill="#98A6A1" fill-rule="nonzero" opacity="0.63" style="mix-blend-mode: multiply;"></path>
                        <path d="M19.256,78.072 L19.256,78.072 L19.256,78.12 C19.256,78.12 15.736,79.104 15.416,82.248 L15.416,82.248 L31.304,101.976 L31.304,101.976 C32.8457155,100.836363 34.2712813,99.5474588 35.56,98.128 L35.56,98.128 L36.144,97.28 L36.144,97.28 L36.648,96.56 C36.816,96.32 36.968,96.088 37.112,95.864 C37.4130475,95.4150519 37.6804449,94.9444324 37.912,94.456 C34.768,90.168 22.44,74.4 22.44,74.4 L22.44,74.4 C21.536,74.056 17.952,73.176 15.032,72.48 C13.048,72 11.184,71.576 11.136,71.5599019 C11.088,71.544 11.32,73.488 11.44,75.864 C11.664,78.92 11.96,82.624 12.152,83.728 C12.152,83.8 12.152,83.864 12.152,83.912 C12.64,84.584 24.688,99.48 28.152,103.632 C29.2544042,103.230292 30.3024738,102.69282 31.272,102.032 L15.376,82.248 L15.376,82.248 C15.4595161,81.3564675 15.8268496,80.5152456 16.424,79.848 C17.1908586,79.0514458 18.1453383,78.4600535 19.2,78.128 L19.256,78.072 Z M13.944,82.416 L13.848,82.416 L13.944,82.416 Z M14.192,82.336 L14.096,82.336 L14.192,82.336 Z M14.424,82.28 L14.336,82.28 L14.424,82.28 Z M13.576,82.616 L13.688,82.568 L13.576,82.616 Z M13.304,82.76 L13.416,82.696 L13.304,82.76 Z M13.016,82.944 L13.128,82.864 L13.016,82.944 Z M12.944,75.152 C12.554243,75.4255158 12.1254051,75.6385862 11.672,75.784 C12.1230298,75.6119917 12.5504364,75.3835039 12.944,75.104 L12.944,75.152 Z" id="Shape" fill="#8A76B7" fill-rule="nonzero"></path>
                        <path d="M19.2,78.128 C19.2,78.128 15.68,79.104 15.36,82.256 C15.36,82.256 13.76,81.872 12.096,83.68 C11.904,82.576 11.608,78.88 11.384,75.816 C13.0406004,75.304826 14.3670337,74.0552017 14.976,72.432 C17.896,73.128 21.48,74.032 22.384,74.352 C20.8802625,75.1589353 19.7413723,76.5095789 19.2,78.128 L19.2,78.128 Z" id="Path" fill="#FCBA96" fill-rule="nonzero"></path>
                        <polygon id="Path" fill="#F28F63" fill-rule="nonzero" points="14.032 73.688 19.376 78.168 22.416 74.352 15.008 72.432"></polygon>
                        <path d="M37.88,94.456 L37.88,94.456 C34.304,89.6 22.44,74.4 22.44,74.4 C22.44,74.4 34.768,90.168 37.88,94.456 Z" id="Path" fill="#35228C" fill-rule="nonzero"></path>
                        <path d="M19.792,76.912 C19.7893737,76.9305743 19.7893737,76.9494257 19.792,76.968 L36.144,97.288 L35.56,98.136 L19.264,78.08 C19.3979028,77.6729744 19.5749072,77.2814191 19.792,76.912 L19.792,76.912 Z" id="Path" fill="#35228C" fill-rule="nonzero"></path>
                        <path d="M37.072,95.864 C36.928,96.088 36.776,96.32 36.608,96.56 C36.7381673,96.3125699 36.8936673,96.0793199 37.072,95.864 L37.072,95.864 Z" id="Path" fill="#35228C" fill-rule="nonzero"></path>
                        <path d="M19.784,76.904 C20.3485839,75.7865615 21.2689228,74.8887385 22.4,74.352 C21.3114625,74.9480139 20.4067876,75.830556 19.784,76.904 L19.784,76.904 Z" id="Path" fill="#210F80" fill-rule="nonzero"></path>
                        <path d="M19.784,76.904 C20.4067876,75.830556 21.3114625,74.9480139 22.4,74.352 L22.4,74.352 C22.4,74.352 34.264,89.552 37.84,94.44 C37.6084449,94.9284324 37.3410475,95.3990519 37.04,95.848 C36.8616673,96.0633199 36.7061673,96.2965699 36.576,96.544 L36.072,97.264 L19.752,76.968 L19.784,76.904 Z" id="Path" fill="#210F80" fill-rule="nonzero"></path>
                        <path d="M15.4,82.256 C15.72,79.112 19.24,78.128 19.24,78.128 L19.24,78.08 L35.504,98.136 C34.2100915,99.5502483 32.7850527,100.838676 31.248,101.984 L31.248,101.984 L15.384,82.256 L15.4,82.256 Z" id="Path" fill="#442F92" fill-rule="nonzero"></path>
                        <path d="M12.16,83.864 C12.16,83.816 12.16,83.752 12.16,83.68 C12.9227621,82.6738406 14.1506959,82.1324609 15.408,82.248 L31.296,101.976 C30.3152504,102.617724 29.2694459,103.154034 28.176,103.576 C24.696,99.432 12.648,84.536 12.16,83.864 Z" id="Path" fill="#483D99" fill-rule="nonzero"></path>
                        <path d="M14.888,82.992 C14.888,82.992 29.784,101.328 29.7680129,101.456 C29.752,101.584 28.168,103.056 28.032,102.896 C27.896,102.736 12.8,84 12.704,83.816 C12.608,83.632 13.872,82.696 14.888,82.992 Z" id="Path" fill="#5D53A4" fill-rule="nonzero"></path>
                        <path d="M22.4,74.352 C21.8026569,74.8040295 21.2767645,75.3434063 20.84,75.952 C20.6351619,76.2389177 20.448143,76.5381479 20.28,76.848 C20.1026048,77.1939899 19.9502151,77.5522395 19.824,77.92 L19.616,78.52 C19.472,78.568 19.328,78.608 19.192,78.664 C19.117464,78.6899587 19.0452151,78.7220693 18.976,78.76 C18.8415208,78.8159033 18.710607,78.8800243 18.584,78.952 C18.2079936,79.1358338 17.8537816,79.3612415 17.528,79.624 C17.1994092,79.8648544 16.9059288,80.1502573 16.656,80.472 C16.4140386,80.7768121 16.2148629,81.1132575 16.064,81.472 L15.96,81.752 C15.96,81.872 15.888,82.08 15.856,82.224 L15.544,82.472 L15.208,82.64 C15.12,82.64 15.024,82.64 14.944,82.64 L14.544,82.64 L14.064,82.696 C13.5479861,82.7997312 13.058211,83.0065252 12.624,83.304 C12.4930451,83.3866305 12.3674599,83.4774793 12.248,83.576 L12.112,83.68 L12.2,83.536 C12.2772789,83.3958922 12.3655561,83.2621389 12.464,83.136 C12.8223437,82.6501786 13.3063684,82.2712564 13.864,82.04 C14.0484017,81.9643742 14.2382811,81.902864 14.432,81.856 L14.744,81.8 L14.888,81.8 L14.928,81.8 L14.976,81.8 C14.976,81.8 14.976,81.752 14.976,81.728 C14.9698493,81.674844 14.9698493,81.621156 14.976,81.568 L15.072,81.2 C15.2109053,80.716727 15.4388092,80.2636324 15.744,79.864 C16.0410418,79.4400804 16.3965647,79.0603172 16.8,78.736 C17.1986315,78.4269004 17.6274764,78.1588723 18.08,77.936 C18.24,77.864 18.392,77.8 18.552,77.744 L18.776,77.672 L18.776,77.672 C18.776,77.672 18.776,77.72 18.848,77.536 C19.033105,77.1305937 19.2582213,76.74468 19.52,76.384 C19.7575824,76.065487 20.0255039,75.7707733 20.32,75.504 C20.74436,75.1091677 21.2274464,74.782612 21.752,74.536 C21.9626599,74.4572171 22.179373,74.3956813 22.4,74.352 Z" id="Path" fill="#E36F41" fill-rule="nonzero"></path>
                        <path d="M11.416,75.816 C11.296,73.416 11.168,71.48 11.112,71.512 C11.056,71.544 13.024,71.952 15.008,72.432 C15.88,72.64 13.48,75.264 11.416,75.816 Z" id="Path" fill="#5E459D" fill-rule="nonzero"></path>
                        <path d="M11.44,72 L11.808,75.272 C11.808,75.272 13.256,74.712 13.328,74.2 C13.416,73.472 11.568,72 11.44,72 Z" id="Path" fill="#8A76B7" fill-rule="nonzero"></path>
                        <path d="M10.768,95.528 L10.768,95.528 C10.768,95.528 10.768,95.528 10.768,95.576 C10.768,95.624 7.256,97.64 7.848,100.376 L7.848,100.376 L30.936,111.008 L30.936,111.008 C32.2348782,109.551491 33.3946012,107.976625 34.4,106.304 L34.4,106.304 C34.536,105.968 34.656,105.672 34.776,105.392 L34.776,105.392 C34.888,105.112 35,104.856 35.096,104.592 C35.192,104.328 35.304,104.08 35.4,103.848 C35.5858962,103.377413 35.735663,102.893345 35.848,102.4 C31.2,100 13.144,91.304 13.144,91.304 L13.104,91.304 C12.024,91.304 7.896,91.896 4.52,92.36 C2.232,92.672 0.096,92.984 0.04,92.992 C0.633681069,94.1123551 1.16775869,95.2632924 1.64,96.44 C2.8,98.888 4.224,101.84 4.76,102.688 C4.79542624,102.730815 4.82752016,102.776282 4.856,102.824 C5.6,103.2 23.04,111.2 28,113.432 C29.0496688,112.739601 30.020737,111.934848 30.896,111.032 L7.824,100.368 L7.824,100.368 C7.66031924,99.567349 7.80915994,98.7344136 8.24,98.04 C8.8788405,97.0479177 9.73170119,96.2114582 10.736,95.592 C10.7399101,95.5679089 10.7510732,95.5455828 10.768,95.528 Z M6.328,101.008 L6.224,101.08 L6.328,101.008 Z M6.568,100.856 L6.472,100.912 L6.568,100.856 Z M6.8,100.728 L6.712,100.776 L6.8,100.728 Z M5.976,101.296 L6.08,101.224 L5.976,101.296 Z M5.72,101.52 L5.824,101.432 L5.72,101.52 Z M5.464,101.776 C5.49663176,101.739356 5.53135646,101.704632 5.568,101.672 C5.53216073,101.69426 5.49745116,101.71829 5.464,101.744 L5.464,101.776 Z M3.064,95.376 C2.71365844,95.751653 2.31560339,96.0797794 1.88,96.352 C2.30642582,96.0523412 2.70054412,95.7091634 3.056,95.328 L3.064,95.376 Z" id="Shape" fill="#FC4735" fill-rule="nonzero"></path>
                        <path d="M10.76,95.584 C10.76,95.584 7.248,97.648 7.848,100.384 C6.52450325,100.692146 5.39363782,101.546836 4.736,102.736 C4.2,101.888 2.776,98.936 1.616,96.488 C3.15248748,95.6465833 4.21076643,94.1389792 4.48,92.408 C7.856,91.944 11.984,91.392 13.064,91.352 C11.7740061,92.4086478 10.9473531,93.9270487 10.76,95.584 Z" id="Path" fill="#FCBA96" fill-rule="nonzero"></path>
                        <polygon id="Path" fill="#F28F63" fill-rule="nonzero" points="3.808 93.768 10.928 95.568 13.072 91.328 4.48 92.384"></polygon>
                        <path d="M35.808,102.4 L35.808,102.4 C30.48,99.656 13.104,91.304 13.104,91.304 C13.104,91.304 31.2,100 35.808,102.4 Z" id="Path" fill="#950A01" fill-rule="nonzero"></path>
                        <path d="M10.992,94.4 C10.9946263,94.4185743 10.9946263,94.4374257 10.992,94.456 L34.76,105.408 C34.64,105.688 34.52,105.984 34.384,106.32 L10.776,95.536 C10.8019586,95.1500126 10.8744847,94.7685788 10.992,94.4 L10.992,94.4 Z" id="Path" fill="#950A01" fill-rule="nonzero"></path>
                        <path d="M35.36,103.872 C35.264,104.104 35.168,104.352 35.056,104.616 C35.1285956,104.357207 35.2305936,104.10758 35.36,103.872 L35.36,103.872 Z" id="Path" fill="#950A01" fill-rule="nonzero"></path>
                        <path d="M10.984,94.4 C11.3270264,93.1846545 12.0573363,92.1144696 13.064,91.352 C12.112569,92.1655062 11.3946857,93.2174813 10.984,94.4 L10.984,94.4 Z" id="Path" fill="#790001" fill-rule="nonzero"></path>
                        <path d="M10.984,94.4 C11.3946857,93.2174813 12.112569,92.1655062 13.064,91.352 L13.104,91.352 C13.104,91.352 30.48,99.68 35.808,102.4 C35.695663,102.893345 35.5458962,103.377413 35.36,103.848 C35.2305936,104.08358 35.1285956,104.333207 35.056,104.592 C34.96,104.832 34.848,105.088 34.736,105.392 L10.968,94.44 C10.968,94.44 10.976,94.4 10.984,94.4 Z" id="Path" fill="#790001" fill-rule="nonzero"></path>
                        <path d="M7.848,100.36 C7.256,97.648 10.768,95.56 10.768,95.56 C10.768,95.56 10.768,95.56 10.768,95.512 L34.4,106.304 C33.395329,107.970574 32.2412473,109.542374 30.952,111 L30.952,111 L7.832,100.368 L7.848,100.36 Z" id="Path" fill="#B31301" fill-rule="nonzero"></path>
                        <path d="M4.8,102.848 C4.77152016,102.800282 4.73942624,102.754815 4.704,102.712 C5.34853517,101.523103 6.4735801,100.669118 7.792,100.368 L30.872,110.992 C29.9865432,111.883762 29.0166678,112.687526 27.976,113.392 C23.04,111.2 5.6,103.2 4.8,102.848 Z" id="Path" fill="#FE1E10" fill-rule="nonzero"></path>
                        <path d="M7.52,101.152 C7.52,101.152 29.12,110.984 29.12,111.096 C29.12,111.208 27.864,112.96 27.664,112.912 C27.464,112.864 5.552,102.704 5.4,102.616 C5.248,102.528 6.336,101.272 7.52,101.152 Z" id="Path" fill="#FC271E" fill-rule="nonzero"></path>
                        <path d="M13.072,91.328 C12.5763023,91.9151133 12.161913,92.5662965 11.84,93.264 C11.6970277,93.5886106 11.5767391,93.9227455 11.48,94.264 C11.3740165,94.6452591 11.3096411,95.0368764 11.288,95.432 L11.24,95.888 L10.816,96.168 L10.616,96.328 C10.48,96.432 10.344,96.544 10.216,96.664 C9.88354127,96.9469464 9.57821711,97.2603054 9.304,97.6 C9.02808817,97.9046738 8.79647852,98.246702 8.616,98.616 C8.44043949,98.9518962 8.33176216,99.3186821 8.296,99.696 L8.296,99.856 C8.28928415,99.9572221 8.28928415,100.058778 8.296,100.16 C8.296,100.376 8.296,100.592 8.344,100.776 L7.824,100.864 C7.69413667,100.884509 7.56583491,100.913912 7.44,100.952 C7.10535998,101.045079 6.77892947,101.165484 6.464,101.312 C5.98075355,101.553435 5.54026773,101.872315 5.16,102.256 C5.016,102.392 4.912,102.52 4.84,102.6 L4.728,102.736 L4.784,102.576 C4.83484516,102.419975 4.89632251,102.267619 4.968,102.12 C5.23492132,101.579571 5.62052634,101.106453 6.096,100.736 C6.41291115,100.47783 6.76600985,100.267588 7.144,100.112 C7.18451257,100.100516 7.22250555,100.08152 7.256,100.056 L7.256,100.056 L7.256,99.968 C7.25189897,99.9468638 7.25189897,99.9251362 7.256,99.904 L7.256,99.68 C7.25178674,99.1544619 7.36666049,98.6347949 7.592,98.16 C7.79851155,97.6961027 8.06768771,97.2627291 8.392,96.872 C8.72181827,96.4977413 9.08314371,96.1524748 9.472,95.84 L9.952,95.504 L10.2,95.344 C10.2,95.344 10.2,95.344 10.24,95.344 C10.3144428,94.9021008 10.4462216,94.4718026 10.632,94.064 C10.7974285,93.6985052 10.9983954,93.3501625 11.232,93.024 C11.5819537,92.55215 11.9967046,92.1320127 12.464,91.776 C12.6527471,91.6086436 12.8562426,91.4586996 13.072,91.328 L13.072,91.328 Z" id="Path" fill="#E36F41" fill-rule="nonzero"></path>
                        <path d="M1.6,96.464 C1.12775869,95.2872924 0.593681069,94.1363551 0,93.016 C0.056,93.016 2.192,92.696 4.48,92.384 C5.488,92.24 3.68,95.272 1.6,96.464 Z" id="Path" fill="#D32A10" fill-rule="nonzero"></path>
                        <path d="M0.496,93.296 L1.872,95.872 C1.872,95.872 3.28,94.888 3.2,94.44 C3.072,93.808 0.632,93.24 0.496,93.296 Z" id="Path" fill="#FC4735" fill-rule="nonzero"></path>
                        <path d="M34.936,99.072 C32.8338159,95.1124546 33.1241562,90.3094832 35.688,86.632 C35.688,86.632 34.272,84.6 32.952,85.176 C32.952,85.176 28.712,93.976 33.896,99.776 L34.936,99.072 Z" id="Path" fill="#0D110B" fill-rule="nonzero"></path>
                        <path d="M33.8,99.072 C33.8,99.072 35.688,92.264 44.448,91.392 C53.208,90.52 57.44,99.928 54.616,108.568 C51.792,117.208 47.76,122.968 44.64,123.112 C42.8292749,123.194551 41.0407713,122.686358 39.544,121.664 C38.8788205,123.536605 37.3251841,124.955273 35.4,125.448 C32.104,126.32 24.568,122.488 20.336,115.28 C16.104,108.072 16.568,90.744 33.8,99.072 Z" id="Path" fill="#AD0700" fill-rule="nonzero"></path>
                        <path d="M34.984,100.288 C36.504,97.888 41.784,92.728 47.784,94.528 C53.784,96.328 54.504,103.6 51.56,110.568 C48.616,117.536 42.6,121.36 39.224,118.968 C39.224,118.968 34.208,123.768 30.384,120.568 C26.56,117.368 19.032,106.6 23.424,100.64 C26.336,96.752 34.984,100.288 34.984,100.288 Z" id="Path" fill="#F00700" fill-rule="nonzero"></path>
                        <path d="M43.936,95.688 C46.1084291,95.3498385 48.3120301,96.0665943 49.8698251,97.6180697 C51.4276202,99.1695451 52.1533277,101.370214 51.824,103.544 C50.904,108.768 40.464,107.64 38.648,104.056 C36.832,100.472 38.816,96.488 43.936,95.688 Z" id="Path" fill="#FD1A18" fill-rule="nonzero"></path>
                        <path d="M29.376,102.544 C29.8562409,101.24621 31.2298754,100.511316 32.576,100.832 C33.7501627,101.178413 34.5796734,102.22571 34.648,103.448 C34.7399068,104.528619 34.1714769,105.558108 33.208,106.056 C32.2212307,106.60119 30.9961801,106.452895 30.168,105.688 C29.7861996,105.323003 29.5287407,104.847264 29.432,104.328 C29.432,104.272 29.392,104.232 29.376,104.176 C29.1961774,103.64686 29.1961774,103.07314 29.376,102.544 Z" id="Path" fill="#FD1A18" fill-rule="nonzero"></path>
                        <text id="@" fill="#FFFFFF" font-family="Montserrat-Regular, Montserrat" font-size="19.12" font-weight="normal">
                            <tspan x="88.192" y="43.824">@</tspan>
                        </text>
                    </g>
                </g>
            </g>
        </g>
    </g>
</svg>