<?xml version="1.0" encoding="UTF-8"?>
<svg width="311px" height="366px" viewBox="0 0 311 366" version="1.1" xmlns="http://www.w3.org/2000/svg" xmlns:xlink="http://www.w3.org/1999/xlink">
    <!-- Generator: Sketch 63.1 (92452) - https://sketch.com -->
    <title>reforzamiento@2x</title>
    <desc>Created with Sketch.</desc>
    <defs>
        <rect id="path-1" x="0" y="0" width="255" height="310" rx="8"></rect>
        <filter x="-16.9%" y="-13.2%" width="133.7%" height="127.7%" filterUnits="objectBoundingBox" id="filter-3">
            <feOffset dx="0" dy="2" in="SourceAlpha" result="shadowOffsetOuter1"></feOffset>
            <feGaussianBlur stdDeviation="14" in="shadowOffsetOuter1" result="shadowBlurOuter1"></feGaussianBlur>
            <feColorMatrix values="0 0 0 0 0   0 0 0 0 0   0 0 0 0 0  0 0 0 0.06 0" type="matrix" in="shadowBlurOuter1"></feColorMatrix>
        </filter>
        <path d="M3.00025,7.99927241 C2.74425,7.99927241 2.48825,7.90127241 2.29325,7.70627241 C1.90225,7.31527241 1.90225,6.68327241 2.29325,6.29227241 L5.59825,2.98727241 L2.41825,-0.305727588 C2.03525,-0.703727588 2.04625,-1.33672759 2.44325,-1.71972759 C2.84125,-2.10272759 3.47425,-2.09172759 3.85725,-1.69572759 L7.71925,2.30427241 C8.09825,2.69727241 8.09325,3.32027241 7.70725,3.70627241 L3.70725,7.70627241 C3.51225,7.90127241 3.25625,7.99927241 3.00025,7.99927241" id="path-4"></path>
    </defs>
    <g id="Screens" stroke="none" stroke-width="1" fill="none" fill-rule="evenodd">
        <g id="Materias-" transform="translate(-992.000000, -769.000000)">
            <g id="reforzamiento" transform="translate(1020.000000, 795.000000)">
                <g id="Group">
                    <mask id="mask-2" fill="white">
                        <use xlink:href="#path-1"></use>
                    </mask>
                    <g id="Mask">
                        <use fill="black" fill-opacity="1" filter="url(#filter-3)" xlink:href="#path-1"></use>
                        <use fill="#FFFFFF" fill-rule="evenodd" xlink:href="#path-1"></use>
                    </g>
                    <rect id="Rectangle" fill="#E4E9F2" fill-rule="nonzero" opacity="0.497465588" mask="url(#mask-2)" x="0" y="0" width="255" height="88"></rect>
                    <g id="atomo/-button/-primario/-228x48px/-active-copy-2" mask="url(#mask-2)">
                        <g transform="translate(27.000000, 232.000000)" id="Group">
                            <g>
                                <rect id="Rectangle" fill="#FF881D" x="0" y="0" width="200" height="48" rx="24"></rect>
                                <g id="Group-2" transform="translate(30.225131, 14.000000)">
                                    <g id="Group-3">
                                        <text id="Ver-actividades" font-family="Montserrat-Medium, Montserrat" font-size="16" font-weight="400" line-spacing="20" fill="#FFFFFF">
                                            <tspan x="0.410429319" y="15">Ver actividades</tspan>
                                        </text>
                                        <g id="Arrow_down" transform="translate(140.596859, 11.000000) rotate(-90.000000) translate(-140.596859, -11.000000) translate(135.596859, 8.000000)">
                                            <mask id="mask-5" fill="white">
                                                <use xlink:href="#path-4"></use>
                                            </mask>
                                            <use id="🎨-Icon-Сolor" fill="#FFFFFF" fill-rule="nonzero" transform="translate(5.000080, 2.999636) rotate(-270.000000) translate(-5.000080, -2.999636) " xlink:href="#path-4"></use>
                                        </g>
                                    </g>
                                </g>
                            </g>
                        </g>
                    </g>
                    <text id="Fichas-de-repaso" font-family="Montserrat-Medium, Montserrat" font-size="20" font-weight="400" letter-spacing="0.416666667" fill="#333E53">
                        <tspan x="49.7116667" y="186">Reforzamiento </tspan>
                        <tspan x="35.4766667" y="210">del conocimiento</tspan>
                    </text>
                </g>
                <g id="icono_01-" transform="translate(74.000000, 24.000000)">
                    <g id="Recurso-8">
                        <path d="M108.664001,53.928 C108.667236,75.7438034 95.5282031,95.4132813 75.3739575,103.76407 C55.2197119,112.114859 32.0195647,107.502298 16.592318,92.0773399 C1.16507125,76.6523814 -3.45093043,53.4529186 4.89686862,33.2974346 C13.2446677,13.1419505 32.9121964,0 54.728,0 C84.5129064,0 108.659582,24.143094 108.664001,53.928" id="Path" fill="#FE7114" fill-rule="nonzero"></path>
                        <g id="Group" opacity="0.2" transform="translate(63.200000, 108.000000)" fill="#070606" fill-rule="nonzero">
                            <g id="Path">
                                <path d="M36.8,1.896 C36.944,3.544 28.904,5.584 18.848,6.456 C8.792,7.328 0.528,6.696 0.384,5.048 C0.24,3.4 8.28,1.36 18.336,0.488 C28.392,-0.384 36.664,0.248 36.8,1.896"></path>
                            </g>
                        </g>
                        <path d="M98.544,31.104 C97.632,30.48 96.704,29.904 95.752,29.376 C94.8572987,28.8745255 93.7254746,29.1932988 93.2240001,30.0880001 C92.7225256,30.9827013 93.0412988,32.1145254 93.936,32.616 C94.792,33.096 95.632,33.616 96.464,34.216 C111.872,44.744 116.552,66.68 106.064,82.16 C95.576,97.64 73.888,100.744 58.48,90.216 C57.68,89.648 56.88,89.056 56.08,88.432 C55.2801122,87.8346014 54.1509596,87.9769822 53.5244104,88.7542477 C52.8978612,89.5315132 52.9984186,90.6651561 53.752,91.32 C54.584,92.008 55.456,92.664 56.368,93.288 C73.472,104.976 97.464,101.392 109.104,84.216 C120.744,67.04 115.624,42.792 98.52,31.104" id="Path" fill="#B9B5AF" fill-rule="nonzero"></path>
                        <path d="M94.552,37.6 L93.304,36.8 L96.976,31.384 C97.1162606,31.1318586 97.3872029,30.9808859 97.6754199,30.9942736 C97.963637,31.0076614 98.2194174,31.1831004 98.3357004,31.4471583 C98.4519835,31.7112162 98.4087129,32.0183483 98.224,32.24 L94.552,37.6 Z" id="Path" fill="#B9B5AF" fill-rule="nonzero"></path>
                        <path d="M58.816,90.448 L57.6,89.6 L61.272,84.184 C61.3827711,84.0166858 61.5558166,83.9005813 61.7526371,83.8615177 C61.9494576,83.8224541 62.1537273,83.8636716 62.32,83.976 C62.6483976,84.2241364 62.7349178,84.680963 62.52,85.032 L58.816,90.448 Z" id="Path" fill="#B9B5AF" fill-rule="nonzero"></path>
                        <path d="M47.576,65.6 C46.1196695,48.6909769 58.6301046,33.7959625 75.5365469,32.3099711 C92.4429892,30.8239797 107.359927,43.3082657 108.875575,60.2120751 C110.391223,77.1158845 97.9331245,92.0547007 81.032,93.6 C64.0641039,95.0980039 49.0906494,82.5664183 47.576,65.6" id="Path" fill="#90C1B9" fill-rule="nonzero"></path>
                        <path d="M91.832,35.064 C100.711541,46.3911729 100.570256,62.3555907 91.4916297,73.5238334 C82.4130033,84.6920761 66.8139521,88.0909289 53.912,81.712 C61.7325651,91.6647866 74.8438847,95.8230521 86.9710802,92.1967139 C99.0982756,88.5703757 107.774577,77.8970603 108.847639,65.2848544 C109.920701,52.6726484 103.172253,40.6869769 91.832,35.064" id="Path" fill="#7CA39B" fill-rule="nonzero"></path>
                        <path d="M82.784,32.24 C83.336,32.328 83.896,32.424 84.44,32.536" id="Path" fill="#94A0CC" fill-rule="nonzero"></path>
                        <path d="M86.336,32.992 C85.4630135,32.9597153 84.5899526,33.0540274 83.744,33.272 C84.0092409,33.0603826 84.2435189,32.8126403 84.44,32.536 C83.896,32.424 83.336,32.328 82.784,32.24 L82.664,32.296 C81.952,32.624 81.864,32.656 82.008,33.096 C81.714664,33.0055688 81.4285273,32.8932534 81.152,32.76 L77.6,33.112 C80.08,35.4 75.704,35.64 74.112,35.792 C73.824,35.792 73.704,35.24 73.856,35.072 C74.3474213,34.9858635 74.845106,34.9403762 75.344,34.936 C76.84,34.792 76.648,34.712 76.504,33.216 C75.168,34.416 75.12,33.344 73.488,33.496 C72.2304383,33.5250938 71.0015934,33.8777668 69.92,34.52 L71.336,35.52 C70.776,35.448 68.936,34.904 68.44,35.16 C68.224,35.28 68.224,35.896 67.936,35.92 C66.8,36.024 63.752,36.944 63.632,35.624 L63.568,35.624 C60.8825026,37.0885621 58.4291312,38.9434187 56.288,41.128 C57.3773827,40.8680523 58.4890908,40.7126811 59.608,40.664 C60.1362047,41.4617077 60.5811997,42.3114874 60.936,43.2 C61.088,44.264 60.4,44.744 59.96,45.8 C59.1787114,47.837208 58.9335516,50.0408913 59.248,52.2 C59.248,52.272 60.576,53.264 60.616,53.704 C60.784,55.536 60.976,55.544 62.352,56.776 L62.152,54.536 C63.08,56.432 64.048,57.104 64.896,58.968 C65.864,61.072 68.736,59.12 69.896,60.464 C70.408,61.056 71.224,60.688 71.68,61.264 L72.928,62.864 C73.68,63.816 74.456,63.392 75.632,63.28 C76.808,63.168 80.944,67.896 80.976,68.224 C81.096,69.592 77.256,71.928 77.288,72.472 C77.4,74.072 79.432,74.128 80.616,75.024 C81.568,75.752 81.152,78.08 81.216,79.088 C81.368,81.488 83.016,83 83.616,85.184 C83.832,85.984 83.616,86.92 83.856,87.696 C84.096,88.472 84.864,88.936 84.936,89.832 C85.048,91.224 88.936,91.128 89.736,91.056 C89.736,91.056 86.752,89.84 86.776,90.016 C86.648,88.696 87.336,88.728 87.264,87.92 C87.176,86.968 86.24,86.264 86.656,84.856 C87.072,83.448 87.04,83.392 88.624,83.256 C88.5266845,82.5881098 88.3632141,81.9315481 88.136,81.296 C89.344,78.952 92.424,76.496 93.24,75.856 C94.352,74.936 93.488,72.808 93.888,71.6 C94.248,70.536 95.488,69.464 95.488,68.2 C95.488,67.232 94.576,67.072 93.888,67.16 C93.2,67.248 93.016,66.088 92.496,66.136 C90.9917399,66.3516486 89.4581891,66.0707785 88.128,65.336 C87.904,65.2 87.496,63.336 87.088,62.936 C86.512,62.32 84.976,63.64 84.256,62.792 C83.984,62.472 83.288,61.192 82.896,61.192 C82.368,61.24 79.384,60.944 78.824,61.56 C78.912,61.464 77.784,61.232 77.632,61.248 C77.696,61.248 74.048,63.584 73.952,62.552 C73.832,61.208 74.328,59.416 72.744,59.56 C70.2,59.8 72.304,58.936 72.192,57.76 C72.056,56.264 69.792,58.408 68.472,58.56 C68.472,58.56 66.776,56.232 67.496,56.16 C68.016,56.112 68,55.056 68.296,54.56 C69.192,53.288 70.904,53.008 72.128,53.12 C73.1563085,53.6898091 74.0191077,54.5167733 74.632,55.52 C74.632,55.416 75.304,54.888 75.432,54.72 C75.728,54.152 75.512,53.92 75.552,53.392 C75.672,51.552 75.72,51.184 77.056,49.952 C78.2030647,49.0421793 79.2442635,48.0063475 80.16,46.864 C80.6601885,46.0879562 81.3444936,45.4476225 82.152,45 C82.064,45.056 83.08,45.512 83.28,45.488 C84.08,45.416 84.248,44.688 84.648,44.016 L83.2,44.144 C84.72,42.744 81.712,42.368 84.976,42.064 C86.576,41.92 86.728,41.928 87.608,40.696 C86.008,40.84 86.424,40.792 86.28,39.2 C86.28,38.928 85.72,38 85.336,38.448 C84.296,39.696 84.208,38.344 83.64,37.648 C82.896,36.728 82.288,37.8 82.04,38.448 C81.768,39.248 79.104,40.616 79.2,41.576 C79.248,42.136 78.336,42.2 78.296,41.576 C78.232,40.64 74.912,40.04 74.832,39.672 C74.752,39.304 76.264,37.736 77.72,37.6 C78.392,37.544 77.992,36.8 78.2,36.8 C79.584,36.672 81.176,36.088 81.832,34.896 C81.64,34.896 79.864,35.088 79.864,35.064 C79.8,34.432 79.496,34.064 80.224,34 C81.936,33.84 82.56,35.136 84.44,34.96 L82.56,36.616 C83.504,36.528 85.056,37.968 85.76,37.416 C87.016,36.4 86.04,35.656 87.136,35.368 C87.2994985,35.5127374 87.498111,35.6120437 87.712,35.656 C88.072,35.752 89.312,35.856 89.584,36.16 C89.856,36.464 90.736,38.736 90.272,38.976 C89.528,39.368 87.48,42.056 89.272,42.512 C90.664,42.864 90.952,42.232 92.08,41.368 C93.208,40.504 93.456,40.792 94.744,41.12 C95.3421273,41.0529597 95.9458727,41.0529597 96.544,41.12 C97.632,41.4 97.496,40.736 97.608,40.76 C98.2229847,40.9175675 98.8728462,40.8669289 99.456,40.616 C95.7754147,37.1016454 91.2815802,34.5537649 86.376,33.2" id="Path" fill="#FFFFFF" fill-rule="nonzero"></path>
                        <path d="M75.584,55.584 L75.024,56.272 C76.952,56.088 78.224,56.608 79.896,56.448 C78.584,54.744 77.736,55.384 75.584,55.584" id="Path" fill="#FFFFFF" fill-rule="nonzero"></path>
                        <path d="M82.096,56.56 C80.544,56.656 80.496,56.904 79.64,58.056 L82.096,57.832 C82.8,57.768 82.592,56.536 82.096,56.56" id="Path" fill="#FFFFFF" fill-rule="nonzero"></path>
                        <path d="M84.448,57.984 C84.248,55.8 82.232,58.184 84.448,57.984" id="Path" fill="#FFFFFF" fill-rule="nonzero"></path>
                        <path d="M52.04,68.488 C50.86679,56.2885052 57.6122073,44.7016802 68.800216,39.6984259 C79.9882248,34.6951716 93.1214087,37.3923274 101.432,46.4 C95.2624625,37.694791 84.7611548,33.1463269 74.1910227,34.6010308 C63.6208906,36.0557348 54.7386697,43.2718377 51.1500468,53.3200038 C47.561424,63.36817 49.8628214,74.5784135 57.12,82.4 C54.2397705,78.2953666 52.4880091,73.5062993 52.04,68.512" id="Path" fill="#AADED3" fill-rule="nonzero"></path>
                        <path d="M83.912,34.8 L84.312,34.888 L84.424,34.792 C84.2535385,34.8038353 84.0824615,34.8038353 83.912,34.792" id="Path" fill="#96D499" fill-rule="nonzero"></path>
                        <path d="M82.544,36.448 C83.488,36.36 85.04,37.8 85.744,37.248 C86.68,36.488 86.376,35.888 86.616,35.504 C85.864,35.272 85.104,35.064 84.336,34.896 L82.568,36.496" id="Path" fill="#E4E7E1" fill-rule="nonzero"></path>
                        <path d="M83.912,34.8 C83.6,34.736 83.296,34.672 82.984,34.624 C83.2842845,34.7230785 83.5962908,34.7822521 83.912,34.8" id="Path" fill="#96D499" fill-rule="nonzero"></path>
                        <path d="M96.416,40.896 C94.4510569,39.2419018 92.2712707,37.8613705 89.936,36.792 C90.248,37.592 90.544,38.632 90.232,38.8 L90.136,38.856 C91.6725124,39.4120327 93.1580491,40.0999299 94.576,40.912 L94.704,40.912 C95.271858,40.8418083 95.8451012,40.825736 96.416,40.864" id="Path" fill="#E4E7E1" fill-rule="nonzero"></path>
                        <path d="M78.04,37.288 C78.2,37.048 78.04,36.64 78.184,36.632 C79.568,36.504 81.16,35.92 81.816,34.728 C81.624,34.728 79.848,34.92 79.848,34.896 C79.848,34.632 79.752,34.416 79.736,34.248 C79.272,34.248 78.808,34.2 78.344,34.2 C78.536,35.488 75.416,35.664 74.12,35.8 C73.832,35.8 73.712,35.248 73.864,35.08 C74.3554213,34.9938635 74.853106,34.9483762 75.352,34.944 C76.384,34.84 76.608,34.776 76.608,34.248 C76.224,34.248 75.808,34.296 75.456,34.328 C73.8868174,34.4626385 72.3318995,34.7302664 70.808,35.128 C70.992,35.248 71.168,35.376 71.344,35.504 C71.128,35.504 70.704,35.376 70.248,35.28 C66.3997814,36.3831078 62.8301574,38.2919977 59.776,40.88 C60.213,41.6271259 60.6004993,42.4021245 60.936,43.2 C61.088,44.264 60.4,44.744 59.96,45.8 C59.96,45.872 59.904,45.952 59.88,46.024 C64.6205798,41.0337301 71.0104858,37.9325791 77.864,37.296 L78.04,37.296" id="Path" fill="#E4E7E1" fill-rule="nonzero"></path>
                        <path d="M83.848,87.664 C84.112,88.464 84.856,88.904 84.928,89.8 C85.04,91.192 88.928,91.096 89.728,91.024 C89.728,91.024 86.744,89.808 86.768,89.984 C86.64,88.664 87.328,88.696 87.256,87.888 C87.168,86.936 86.232,86.232 86.648,84.824 C87.064,83.416 87.032,83.36 88.616,83.224 C88.5186845,82.5561098 88.3552141,81.8995481 88.128,81.264 C89.336,78.92 92.416,76.464 93.232,75.824 C94.344,74.904 93.48,72.776 93.88,71.568 C94.24,70.496 95.48,69.432 95.48,68.16 C95.4776975,67.9254037 95.399067,67.6979369 95.256,67.512 C92.3851765,73.4382254 87.6995951,78.2947521 81.88,81.376 C82.5737944,82.5846837 83.1626198,83.8506585 83.64,85.16 C83.856,85.96 83.64,86.896 83.88,87.672" id="Path" fill="#E4E7E1" fill-rule="nonzero"></path>
                        <rect id="Rectangle" fill="#B9B5AF" fill-rule="nonzero" transform="translate(82.112336, 105.334840) rotate(-5.280000) translate(-82.112336, -105.334840) " x="79.9403361" y="99.41484" width="4.344" height="11.84"></rect>
                        <path d="M82,105.856 C82,105.856 77.2,106.016 68.312,110.864 L68.496,112.856 L82.52,111.56 L96.544,110.264 L96.36,108.272 C86.76,105.128 81.96,105.872 81.96,105.872" id="Path" fill="#B9B5AF" fill-rule="nonzero"></path>
                        <g id="Group" opacity="0.1" transform="translate(52.800000, 29.600000)" fill="#181314" fill-rule="nonzero">
                            <g id="Path">
                                <path d="M3.784,61.704 C20.088,72.848 43.608,69.704 54.704,53.32 C65.8,36.936 60.272,13.6 44,2.4 C43.1306667,1.80266667 42.2426667,1.25066667 41.336,0.744 C41.0828466,0.604541691 40.866281,0.407165524 40.704,0.168 C40.6542929,0.223152816 40.6088298,0.281987397 40.568,0.344 C40.2759096,0.768873882 40.1745967,1.29645414 40.2885344,1.79929886 C40.402472,2.30214358 40.7212991,2.73452596 41.168,2.992 C42.024,3.472 42.864,3.992 43.696,4.592 C59.104,15.12 63.784,37.056 53.296,52.536 C42.808,68.016 21.088,71.144 5.68,60.616 C4.88,60.048 4.08,59.456 3.28,58.832 C2.87836477,58.5091831 2.35976889,58.3695725 1.85035049,58.4471258 C1.34093209,58.524679 0.887375743,58.8122889 0.6,59.24 C0.6,59.304 0.528,59.376 0.488,59.448 C0.781986605,59.5042373 1.05709818,59.6335397 1.288,59.824 C2.088,60.48 2.888,61.112 3.8,61.704"></path>
                            </g>
                        </g>
                        <g id="Group" opacity="0.1" transform="translate(68.000000, 105.600000)" fill="#181314" fill-rule="nonzero">
                            <g id="Path">
                                <path d="M20.544,0.68 C20.544,0.728 17.584,5.352 0.496,7.256 L14.52,5.96 L28.544,4.664 L28.36,2.672 C25.8075495,1.81550328 23.195037,1.14967359 20.544,0.68"></path>
                            </g>
                        </g>
                        <path d="M28.16,53.776 L28.16,53.96 C22.6243799,54.7821647 18.3646849,59.2763081 17.84,64.848 L17.672,64.848 C17.1508128,59.2792514 12.8866585,54.79032 7.352,53.984 L7.352,53.76 C12.8838369,52.9482354 17.1452306,48.4622102 17.672,42.896 L17.84,42.896 C18.3681593,48.4646003 22.6270487,52.9545922 28.16,53.776 L28.16,53.776 Z" id="Path" fill="#FFFFFF" fill-rule="nonzero"></path>
                        <path d="M36.4,81.496 L36.4,81.6 C32.4881256,82.0339438 29.3775512,85.0817784 28.864,88.984 L28.744,88.984 C28.2414385,85.0762995 25.1251282,82.0228448 21.208,81.6 L21.208,81.448 C25.1212201,81.0231416 28.2352744,77.9752031 28.744,74.072 L28.864,74.072 C29.3633001,77.9884678 32.4764954,81.0553949 36.4,81.496 Z" id="Path" fill="#FFFFFF" fill-rule="nonzero"></path>
                    </g>
                </g>
            </g>
        </g>
    </g>
</svg>