<?xml version="1.0" encoding="UTF-8"?>
<svg width="311px" height="366px" viewBox="0 0 311 366" version="1.1" xmlns="http://www.w3.org/2000/svg" xmlns:xlink="http://www.w3.org/1999/xlink">
    <!-- Generator: Sketch 63.1 (92452) - https://sketch.com -->
    <title>retos@2x</title>
    <desc>Created with Sketch.</desc>
    <defs>
        <rect id="path-1" x="0" y="0" width="255" height="310" rx="8"></rect>
        <filter x="-16.9%" y="-13.2%" width="133.7%" height="127.7%" filterUnits="objectBoundingBox" id="filter-3">
            <feOffset dx="0" dy="2" in="SourceAlpha" result="shadowOffsetOuter1"></feOffset>
            <feGaussianBlur stdDeviation="14" in="shadowOffsetOuter1" result="shadowBlurOuter1"></feGaussianBlur>
            <feColorMatrix values="0 0 0 0 0   0 0 0 0 0   0 0 0 0 0  0 0 0 0.06 0" type="matrix" in="shadowBlurOuter1"></feColorMatrix>
        </filter>
        <path d="M3.00025,7.99927241 C2.74425,7.99927241 2.48825,7.90127241 2.29325,7.70627241 C1.90225,7.31527241 1.90225,6.68327241 2.29325,6.29227241 L5.59825,2.98727241 L2.41825,-0.305727588 C2.03525,-0.703727588 2.04625,-1.33672759 2.44325,-1.71972759 C2.84125,-2.10272759 3.47425,-2.09172759 3.85725,-1.69572759 L7.71925,2.30427241 C8.09825,2.69727241 8.09325,3.32027241 7.70725,3.70627241 L3.70725,7.70627241 C3.51225,7.90127241 3.25625,7.99927241 3.00025,7.99927241" id="path-4"></path>
    </defs>
    <g id="Screens" stroke="none" stroke-width="1" fill="none" fill-rule="evenodd">
        <g id="Materias-" transform="translate(-422.000000, -769.000000)">
            <g id="Ficha-de-repaso" transform="translate(450.000000, 795.000000)">
                <g id="Group">
                    <mask id="mask-2" fill="white">
                        <use xlink:href="#path-1"></use>
                    </mask>
                    <g id="Mask">
                        <use fill="black" fill-opacity="1" filter="url(#filter-3)" xlink:href="#path-1"></use>
                        <use fill="#FFFFFF" fill-rule="evenodd" xlink:href="#path-1"></use>
                    </g>
                    <rect id="Rectangle" fill="#E4E9F2" fill-rule="nonzero" opacity="0.497465588" mask="url(#mask-2)" x="0" y="0" width="255" height="88"></rect>
                    <g id="atomo/-button/-primario/-228x48px/-active-copy-2" mask="url(#mask-2)">
                        <g transform="translate(27.000000, 232.000000)" id="Group">
                            <g>
                                <rect id="Rectangle" fill="#BC0F6A" x="0" y="0" width="200" height="48" rx="24"></rect>
                                <g id="Group-2" transform="translate(30.225131, 14.000000)">
                                    <g id="Group-3">
                                        <text id="Ver-actividades" font-family="Montserrat-Medium, Montserrat" font-size="16" font-weight="400" line-spacing="20" fill="#FFFFFF">
                                            <tspan x="0.410429319" y="15">Ver actividades</tspan>
                                        </text>
                                        <g id="Arrow_down" transform="translate(140.596859, 11.000000) rotate(-90.000000) translate(-140.596859, -11.000000) translate(135.596859, 8.000000)">
                                            <mask id="mask-5" fill="white">
                                                <use xlink:href="#path-4"></use>
                                            </mask>
                                            <use id="🎨-Icon-Сolor" fill="#FFFFFF" fill-rule="nonzero" transform="translate(5.000080, 2.999636) rotate(-270.000000) translate(-5.000080, -2.999636) " xlink:href="#path-4"></use>
                                        </g>
                                    </g>
                                </g>
                            </g>
                        </g>
                    </g>
                    <text id="Fichas-de-repaso" font-family="Montserrat-Medium, Montserrat" font-size="20" font-weight="400" letter-spacing="0.416666667" fill="#333E53">
                        <tspan x="97.7483333" y="196">Retos</tspan>
                    </text>
                </g>
                <g id="icono_01-" transform="translate(74.000000, 24.000000)">
                    <g id="Recurso-10" transform="translate(0.800000, 0.800000)">
                        <path d="M107.2,59.1833174 C107.206429,80.863623 94.1514778,100.412722 74.1233334,108.713873 C54.0951891,117.015023 31.0386034,112.433227 15.7060381,97.1052096 C0.373472776,81.7771922 -4.2151636,58.7219661 4.08004411,38.6913591 C12.3752518,18.6607521 31.920476,5.6 53.6007819,5.6 C83.1966031,5.6 107.191218,29.5874965 107.2,59.1833174" id="Path" fill="#B6065F" fill-rule="nonzero"></path>
                        <polyline id="Path" stroke="#FFFFFF" stroke-width="0.848" stroke-linecap="round" stroke-linejoin="round" points="79.2 123.2 82.4 125.6 79.2 128"></polyline>
                        <path d="M61.0332145,82.4 L50.4,83.1162791 C50.4,83.205814 54.1759088,88.2034884 50.9667855,93.6 L61.6,92.8837209 C57.8161083,87.9348837 61.0172488,82.505814 61.0332145,82.4" id="Path" fill="#190D00" fill-rule="nonzero"></path>
                        <path d="M50.4,83.0886381 C50.4,83.0886381 50.6634355,83.448608 50.9907341,84.0355154 C53.0527147,84.0945899 54.9586045,85.1263792 56.1077691,86.8057186 C57.4967926,88.9968397 56.9060584,91.7357412 56.6186743,92.8 L61.6,92.4791573 C57.8161083,87.7212942 61.0172488,82.5017306 61.0332145,82.4 L50.4,83.0886381" id="Path" fill="#190D00" fill-rule="nonzero"></path>
                        <path d="M74.5409061,59.4397761 C77.1049346,56.246148 80.2511976,53.562177 83.8148127,51.5285186 C84.7996386,50.9239799 85.3720433,49.8308724 85.3056914,48.6814229 L84.3598651,31.4792228 C84.2957413,30.3706897 82.7567698,30.9927443 81.8269745,30.9289438 C80.6406839,31.0086944 81.4262007,32.7951074 81.4021542,35.8256294 C81.5635022,38.0095066 79.9246463,39.9142372 77.7310659,40.0922854 L73.5389715,40.3714125 L73.3466001,36.7746613 L77.530679,36.5035093 C78.2841338,36.455659 77.7470968,35.4348516 77.699004,31.9019009 C77.5369833,29.5664921 79.2829969,27.5314757 81.6265876,27.3242176 L83.4380853,27.2045917 C84.5531263,27.1526172 85.6432364,27.5435654 86.4685243,28.2914035 C87.2938121,29.0392417 87.7866496,30.0826882 87.838582,31.1921207 L88.7844083,48.4022959 C89.2092286,56.1859525 80.8651173,55.9546758 74.4847978,66.5455528 C73.7220682,67.6147949 72.8921464,68.6349796 72,69.6 C73.6278734,66.4638739 74.4979019,62.9931162 74.5409061,59.4637013" id="Path" fill="#190D00" fill-rule="nonzero"></path>
                        <path d="M33.9895599,62.247672 C31.0817547,59.4010848 27.6500229,57.1384533 23.8819357,55.5834479 C22.8320154,55.108418 22.1368795,54.08953 22.0807361,52.9433591 L21.1318899,35.6867788 C21.0675614,34.5747414 22.6677342,34.9907554 23.5924572,34.8067492 C24.7825354,34.7267465 24.1955374,36.61481 24.5573855,39.6069106 C24.5927228,40.6548166 25.0493671,41.6447531 25.8248926,42.3546765 C26.600418,43.0645999 27.6299106,43.4350871 28.6824541,43.3830376 L32.8879334,43.1110285 L32.6869066,39.5109074 L28.4894684,39.7829165 C27.7336079,39.8309181 28.1517435,38.7508818 27.8140186,35.2227632 C27.7663034,34.0996901 27.2681108,33.0425103 26.4308904,32.2877231 C25.59367,31.5329358 24.4872935,31.1435334 23.3592662,31.2066281 L21.5500255,31.3266321 C19.2022931,31.5345468 17.4519394,33.5710033 17.6099016,35.9107863 L18.5587477,53.1753669 C18.9929655,60.9836295 27.283308,59.6555849 34.7936668,69.3679115 C35.6736451,70.3020285 36.6108807,71.1810712 37.6,72 C35.6317305,69.0795237 34.383727,65.7382498 33.9573956,62.247672" id="Path" fill="#190D00" fill-rule="nonzero"></path>
                        <polygon id="Path" fill="#F8F70C" fill-rule="nonzero" points="63.6561171 24 41.380444 25.4446602 36 31.2 69.6 29.0252427"></polygon>
                        <path d="M71.6595361,28.8038301 L32.7697535,31.4314024 C30.8820972,31.6018693 29.476291,33.2778271 29.608625,35.2 L75.2,32.1385167 C75.1734433,31.2161171 74.7834301,30.3432649 74.1176279,29.7161601 C73.4518256,29.0890553 72.5660969,28.7603137 71.6595361,28.8038301" id="Path" fill="#FFAE00" fill-rule="nonzero"></path>
                        <path d="M29.6,34.9212058 L29.6474041,35.7853322 C29.6637291,36.2878449 29.8880307,36.7629217 30.2698813,37.1037553 C30.6517318,37.4445889 31.1590866,37.6225767 31.6778816,37.5977033 L73.3777263,34.9212058 C74.462711,34.831858 75.2722628,33.9154206 75.1948851,32.8641263 L75.147481,32 L29.6,34.9212058" id="Path" fill="#190D00" fill-rule="nonzero"></path>
                        <path d="M74.5446827,59.3050505 C74.5053574,62.8894781 73.6339301,66.4149865 72,69.6 C72.8908139,68.6482309 73.7219176,67.641571 74.488491,66.5858586 C74.7132579,66.2141414 74.9299975,65.8585859 75.1547644,65.5111111 C75.841738,62.9537077 76.1128257,60.3012017 75.9575035,57.6565657 L75.9575035,57.6 C75.4598052,58.1494949 74.9861892,58.7232323 74.528628,59.3292929" id="Path" fill="#190D00" fill-rule="nonzero"></path>
                        <polygon id="Path" fill="#190D00" fill-rule="nonzero" points="73.7855072 40 75.2 39.8963283 75.0067633 36 73.6 36.112311"></polygon>
                        <path d="M33.7073171,61.5034091 C33.1659318,60.9756259 32.5960901,60.4738414 32,60 L32,60.0556818 C32.1442731,62.6499567 32.7411135,65.2050076 33.7670732,67.6204545 C34.0402439,67.9306818 34.3219512,68.2488636 34.6207317,68.5829545 C35.5549371,69.5117328 36.549928,70.3857516 37.6,71.2 C35.5104395,68.296215 34.1855302,64.9740374 33.7329268,61.5034091" id="Path" fill="#FF3A00" fill-rule="nonzero"></path>
                        <polygon id="Path" fill="#FF3A00" fill-rule="nonzero" points="32.6076923 39.2 31.2 39.3038961 31.3923077 43.2 32.8 43.0961039"></polygon>
                        <path d="M32,37.1592612 L33.219667,59.8830607 C33.6065326,69.4415777 40.089244,77.6138168 49.1776327,80 L60.6582402,79.1978892 C69.4195451,75.6156263 74.9413721,66.7118805 74.3578547,57.1077573 L73.1303189,34.4 L32,37.1592612" id="Path" fill="#FFAE00" fill-rule="nonzero"></path>
                        <path d="M45.817969,79.2 L45.817969,79.2 C51.4711323,73.5461365 54.880352,64.608102 54.3449549,54.7873968 C54.054433,48.3094961 51.8981625,42.0580823 48.1406475,36.8 L32,37.8814704 L33.2203904,60.4094524 C33.5805672,68.5692806 38.4499855,75.8325048 45.817969,79.2" id="Path" fill="#FFAE00" fill-rule="nonzero"></path>
                        <polyline id="Path" fill="#190D00" fill-rule="nonzero" points="49.6 80.077193 49.7541582 83.2 61.6 82.322807 61.4377282 79.2 49.6 80.077193"></polyline>
                        <polygon id="Path" fill="#190D00" fill-rule="nonzero" points="49.6409277 80.8 61.6 80.0488263 61.5427012 79.2 49.6 79.9511737"></polygon>
                        <path d="M61.9854629,92.8 L50.6009861,93.5804878 C49.5275102,93.6756904 48.7284499,94.6133087 48.805081,95.6878049 L48.805081,96 L64,95.0009756 L64,94.6809756 C63.9818187,94.1674043 63.7584278,93.6825529 63.3798101,93.3349046 C63.0011924,92.9872562 62.498952,92.8058301 61.9854629,92.8312195" id="Path" fill="#190D00" fill-rule="nonzero"></path>
                        <polyline id="Path" fill="#FFA705" fill-rule="nonzero" points="46.4 95.7300903 47.5625378 117.6 67.2 116.26991 66.0374622 94.4 46.4 95.7300903"></polyline>
                        <path d="M47.5152766,115.931702 C48.1104441,116.002534 48.7111826,116.018316 49.3094172,115.978837 C56.1142207,115.538907 61.2461094,108.350765 60.7692882,99.9135359 C60.6882761,98.3130201 60.3976858,96.7290731 59.9045448,95.2 L46.4,96.0720041 L47.5152766,115.931702 Z" id="Path" fill="#FFA705" fill-rule="nonzero"></path>
                        <path d="M69.683321,116.008371 L45.3605787,117.426873 C44.550104,117.494438 43.9480308,118.123785 44.0035501,118.845375 L44.0035501,119.2 L71.2,117.604185 L71.2,117.24956 C71.1875779,116.904589 71.0201849,116.578406 70.7352046,116.343857 C70.4502243,116.109308 70.0713954,115.98593 69.683321,116.001278" id="Path" fill="#FBE407" fill-rule="nonzero"></path>
                        <polyline id="Path" fill="#7C1502" fill-rule="nonzero" points="40.8 119.811057 41.498161 132.8 74.4 130.588943 73.701839 117.6 40.8401242 119.811057"></polyline>
                        <path d="M40.8,119.848474 L41.4732021,132 C42.0662612,132 42.6673345,132 43.2684079,131.937363 C53.4786404,131.279678 61.7013238,125.47795 63.2,118.4 L40.8,119.848474" id="Path" fill="#7C1502" fill-rule="nonzero"></path>
                        <polyline id="Path" fill="#FFAE00" fill-rule="nonzero" points="75.374359 130.4 40.3783476 132.860606 38.4 135.321212 38.4 136 77.6 133.250909 77.6 132.572121 75.3823362 130.4"></polyline>
                        <path d="M54.0512309,20.0037843 L49.5931431,20.3252238 C48.1693445,20.4643026 47.1084195,21.8291222 47.2062567,23.3958169 L47.283253,24.8 L56.8,24.1063674 L56.7307033,22.7021843 C56.7088705,21.9525202 56.4133505,21.2440485 55.9107418,20.7364307 C55.408133,20.2288129 54.7407269,19.9647619 54.0589305,20.0037843" id="Path" fill="#190D00" fill-rule="nonzero"></path>
                        <path d="M52.8,22.0096515 C52.8,21.3061662 51.008508,20.8428954 48.6014372,20.8 C47.6861882,21.3610478 47.1443228,22.4392874 47.204547,23.5796247 L47.204547,24 C50.3613611,23.7254692 52.8236761,22.8589812 52.7763239,22.0096515" id="Path" fill="#190D00" fill-rule="nonzero"></path>
                        <polyline id="Path" fill="#190D00" fill-rule="nonzero" points="49.6 18.6788991 49.727787 20.8 54.4 20.5211009 54.272213 18.4 49.6 18.6788991"></polyline>
                        <path d="M49.6567568,19.0330961 C51.2391525,19.336428 52.8682011,19.225099 54.4,18.7089434 L54.3432432,17.6 L49.6,17.9241527 L49.6567568,19.0330961 Z" id="Path" fill="#190D00" fill-rule="nonzero"></path>
                        <path d="M59.977391,8.62407982 C60.3245381,13.6169264 56.6335962,17.9660083 51.6897295,18.3895326 C49.3267204,18.5050492 47.0163521,17.660641 45.2750944,16.0450707 C43.5338368,14.4295005 42.5068915,12.1774889 42.4238265,9.7924606 C42.0673799,4.79932439 45.7517044,0.442793056 50.6958362,0.0112188603 C53.0641038,-0.108646509 55.3808774,0.735941677 57.1260393,2.35537261 C58.8712013,3.97480354 59.8985306,6.23339091 59.977391,8.62407982" id="Path" fill="#190D00" fill-rule="nonzero"></path>
                        <path d="M59.9977809,9.02225322 C60.0462535,9.95421653 59.2868491,10.7985594 59.0687223,11.6588332 C58.8505955,12.519107 59.0687223,13.6661388 58.6082324,14.4308266 C58.1477425,15.1955145 56.9924783,15.4344794 56.3461767,16.0239263 C55.6998751,16.6133732 55.2313064,17.6568535 54.399193,17.9993699 C53.5670797,18.3418863 52.573391,17.8559909 51.6604899,17.9197149 C50.7475889,17.9834389 49.794294,18.5728858 48.9541019,18.3498518 C48.1139097,18.1268179 47.5403171,17.1231651 46.805149,16.6452352 C46.0699809,16.1673053 44.938953,16.0637538 44.3815179,15.3627899 C43.8240827,14.6618261 43.9452643,13.5307253 43.6221135,12.678417 C43.2989626,11.8261086 42.4506918,11.0853173 42.4022191,10.1772505 C42.3537465,9.26918367 43.1131509,8.39297885 43.3312777,7.54067053 C43.5494045,6.6883622 43.3312777,5.53336494 43.7836889,4.76867709 C44.2361,4.00398925 45.3994429,3.7650243 46.0538233,3.17557742 C46.7082037,2.58613054 47.1686936,1.58247774 48.0088857,1.20013382 C48.8490778,0.817789901 49.826609,1.3355473 50.7395101,1.27978881 C51.6524111,1.22403032 52.605706,0.62661794 53.4458981,0.849651895 C54.2860903,1.07268585 54.8596829,2.07633864 55.6029298,2.55426855 C56.3461767,3.03219845 57.461047,3.13574993 58.0265609,3.83671378 C58.5920748,4.53767764 58.4547357,5.66877841 58.7859653,6.52108673 C59.1171949,7.37339506 59.9493082,8.11418641 59.9977809,9.02225322" id="Path" fill="#190D00" fill-rule="nonzero"></path>
                        <path d="M53.7664854,17.3026061 C53.4558495,17.3057492 53.1457256,17.2769916 52.841127,17.2167979 C52.43589,17.1314653 52.0212835,17.0973879 51.6073159,17.1153883 C51.1927925,17.1557317 50.7842094,17.2420863 50.3893228,17.3728128 C50.0940944,17.4730054 49.7893718,17.5435693 49.4797825,17.5834328 C49.3728523,17.6055224 49.2624418,17.6055224 49.1555116,17.5834328 C48.7502642,17.4152992 48.3960484,17.1465567 48.1273356,16.8033587 C47.8534094,16.5119018 47.5484732,16.2503709 47.2177954,16.0232846 C46.8712891,15.8150445 46.5026222,15.6450071 46.118438,15.5162365 C45.6972092,15.4079266 45.310769,15.1958792 44.9953534,14.8999779 C44.7755585,14.5205829 44.6482939,14.095945 44.6236283,13.6596601 C44.5738243,13.2482941 44.4810596,12.8431045 44.3468117,12.4505453 C44.1945054,12.0779784 43.9980507,11.724489 43.7615423,11.3974453 C43.4778332,11.0452149 43.2851268,10.6302788 43.2,10.1883305 C43.2363065,9.73915394 43.382886,9.30543734 43.6270885,8.92461049 C43.8242949,8.57108861 43.9808115,8.19692953 44.0937222,7.80910455 C44.2017932,7.37995382 44.2627796,6.94058845 44.2756303,6.4985801 C44.2428683,6.05710841 44.3132173,5.61410733 44.4812654,5.20365713 C44.7618927,4.86264683 45.1230939,4.59478594 45.5331686,4.42358305 C45.9000376,4.2432193 46.247211,4.02626664 46.5692536,3.77612156 C46.8641703,3.49967895 47.1292231,3.19381383 47.3601582,2.86343489 C47.6011241,2.50153435 47.9265915,2.20192452 48.3092437,1.98975192 C48.4125033,1.94834393 48.5221645,1.92460159 48.6335146,1.91954525 C48.9441505,1.91640212 49.2542744,1.9451598 49.558873,2.0053534 C49.9657011,2.07832669 50.3797391,2.10450414 50.7926841,2.08336081 C51.2072075,2.04301746 51.6157906,1.95666287 52.0106772,1.82593636 C52.3083556,1.7248645 52.6157926,1.65428582 52.9281265,1.61531636 C53.0352253,1.59489455 53.1452987,1.59489455 53.2523974,1.61531636 C53.6563943,1.78556321 54.0101105,2.05392668 54.2805734,2.39539044 C54.5498789,2.68857109 54.852401,2.95030739 55.1822046,3.17546452 C55.5287109,3.38370461 55.8973778,3.55374202 56.281562,3.68251267 C56.717425,3.8284464 57.1072232,4.08385711 57.4125556,4.42358305 C57.625979,4.80513463 57.7502785,5.22889526 57.7763717,5.66390083 C57.826995,6.07512732 57.919741,6.48023526 58.0531883,6.87301566 C58.2084283,7.24420499 58.4047049,7.59737367 58.6384577,7.92611566 C58.9170927,8.26964761 59.1094991,8.67324656 59.2,9.10402752 C59.163706,9.55564057 59.0171752,9.99188966 58.7729115,10.3755483 C58.5819353,10.7156941 58.425626,11.0736792 58.3062778,11.4442498 C58.2185632,11.8547002 58.1735123,12.2729027 58.171824,12.6923683 C58.1946568,13.1304422 58.1162267,13.567904 57.9424617,13.9716898 C57.6649672,14.3126061 57.3063318,14.580579 56.8984676,14.7517639 C56.5280312,14.9302034 56.1780372,15.1472618 55.8544736,15.3992253 C55.5576266,15.6738561 55.2923888,15.9799346 55.063569,16.311912 C54.8330288,16.6890506 54.5126763,17.0050162 54.1303015,17.2323994 C54.0270419,17.2738074 53.9173807,17.2975498 53.8060306,17.3026061" id="Path" fill="#FFAE00" fill-rule="nonzero"></path>
                        <path d="M57.5837238,9.19656982 C57.8345939,12.6651904 55.1563101,15.6882156 51.5625109,15.9928167 C49.8406675,16.0726858 48.1574807,15.4838879 46.8896403,14.3581934 C45.6217998,13.2324989 44.8751619,11.6638957 44.8168206,10.0034302 C44.5615182,6.53340214 47.2420976,3.5077859 50.8380335,3.20718331 C52.5598769,3.12731422 54.2430637,3.71611208 55.5109041,4.84180658 C56.7787446,5.96750108 57.5253825,7.53610428 57.5837238,9.19656982" id="Path" fill="#190D00" fill-rule="nonzero"></path>
                        <path d="M51.9525519,15.9920406 C50.339099,16.0761816 48.7602323,15.4904593 47.5690994,14.3658831 C46.3779665,13.2413069 45.6739577,11.6717135 45.6145398,10.0081763 C45.3855533,6.54034372 47.8877967,3.51955998 51.2474481,3.20795942 C52.860901,3.12381841 54.4397677,3.70954071 55.6309006,4.83411691 C56.8220335,5.95869311 57.5260423,7.52828653 57.5854602,9.19182372 C57.8144467,12.6596563 55.3122033,15.68044 51.9525519,15.9920406" id="Path" fill="#190D00" fill-rule="nonzero"></path>
                        <path d="M56.7849039,9.24567965 C57.0112389,12.2815168 54.6662118,14.93022 51.5189037,15.1936157 C50.0119872,15.2640568 48.5387035,14.7492681 47.4289946,13.7645365 C46.3192856,12.7798049 45.6658757,11.407412 45.6150961,9.95470514 C45.3887611,6.91886797 47.7337882,4.27016482 50.8810963,4.00676912 C52.388593,3.93415153 53.8631477,4.44819809 54.9733647,5.43338049 C56.0835817,6.41856289 56.7363281,7.79223712 56.7849039,9.24567965" id="Path" fill="#FBE407" fill-rule="nonzero"></path>
                        <path d="M53.6,14.7992565 L46.9017951,6.4 C46.7047228,6.72859144 46.5367227,7.07633355 46.4,7.43866171 L52.6192186,15.2 C52.9561244,15.0965969 53.2842361,14.9625318 53.6,14.7992565" id="Path" fill="#FFA705" fill-rule="nonzero"></path>
                        <path d="M51.2,15.2 L46.4,9.6 C46.4,9.72601969 46.4,9.85203938 46.4,9.97805907 C46.4,10.1040788 46.4,10.3009845 46.4470588,10.4663854 L50.3686275,15.0503516 C50.6262908,15.11845 50.8883621,15.1684537 51.1529412,15.2" id="Path" fill="#FFA705" fill-rule="nonzero"></path>
                        <path d="M56,12.3713235 L49.2177215,4 C49.0738689,4.09225222 48.9344531,4.19213268 48.8,4.29926471 L55.6810127,12.8 C55.7949367,12.6625 55.9012658,12.5169118 56,12.3713235" id="Path" fill="#FFA705" fill-rule="nonzero"></path>
                        <path d="M56.8,10.3631414 L51.2716846,4 C50.9769789,4.02326444 50.6851378,4.07374756 50.4,4.15078534 L56.562963,11.2 C56.6632872,10.9273469 56.7425262,10.6475941 56.8,10.3631414" id="Path" fill="#FFA705" fill-rule="nonzero"></path>
                        <path d="M35.2116931,41.6 C35.7066535,62.4146295 37.5700338,65.7843901 37.562755,65.7525999 C37.6543083,65.9769822 37.571749,66.2404806 37.3735054,66.3566136 C37.2746913,66.4092021 37.1602233,66.4142062 37.0578749,66.3704118 C36.9555265,66.3266173 36.8746513,66.2380267 36.834872,66.1261347 C35.1607413,61.5880845 35.1680201,46.5274801 35.2116931,41.6" id="Path" fill="#FFAE00" fill-rule="nonzero"></path>
                        <polygon id="Path" fill="#006885" fill-rule="nonzero" points="70.9217793 95.2 68.5019064 90.1027945 64 93.3773151 70.6782207 66.4 77.6 68.2226849"></polygon>
                        <polygon id="Path" fill="#006885" fill-rule="nonzero" points="84.8 98.5824561 80.7235142 94.5162907 77.2919897 99.2 75.2 71.0175439 82.7080103 70.4"></polygon>
                        <g id="Group" opacity="0.57" style="mix-blend-mode: multiply;" transform="translate(66.400000, 65.600000)" fill="#006885" fill-rule="nonzero">
                            <g id="Path">
                                <path d="M11.408,2.448 L4.36,0.6 L0.496,16.152 C1.296,17.128 2.096,18.784 3.696,19.496 C4.78494747,19.8823681 5.96119343,19.9517222 7.088,19.696 L11.408,2.448 Z"></path>
                            </g>
                        </g>
                        <g id="Group" opacity="0.57" style="mix-blend-mode: multiply;" transform="translate(75.200000, 69.600000)" fill="#006885" fill-rule="nonzero">
                            <g id="Path">
                                <path d="M7.328,0.136 L0.064,0.752 L1.152,15.84 C2.28,16.184 3.6,16.712 5,16.376 C6.16310248,16.00662 7.20137869,15.3227421 8,14.4 L8.336,14.072 L7.328,0.136 Z"></path>
                            </g>
                        </g>
                        <path d="M91.1754138,70.8985562 C91.040145,72.5017121 89.5840168,73.7521736 88.9951999,75.154935 C88.406383,76.5576964 88.5496087,78.5776727 87.5708996,79.7479765 C86.5921904,80.9182803 84.698428,81.0545485 83.4173534,81.8641422 C82.1362788,82.6737359 81.1655266,84.3650654 79.6934844,84.7257754 C78.2214422,85.0864855 76.6937011,84.0203869 75.158003,83.9241975 C73.6223049,83.8280081 71.8956391,84.5494283 70.5588657,83.9241975 C69.2220922,83.2989667 68.4900496,81.4713691 67.3760717,80.4533651 C66.2620938,79.4353611 64.4240302,78.9864775 63.6522027,77.6478424 C62.8803751,76.3092072 63.3737082,74.4415307 63.0395148,72.8784537 C62.7053215,71.3153768 61.4481178,69.9126154 61.6152145,68.3014438 C61.7823112,66.6902721 63.2066115,65.4558421 63.8033854,64.045065 C64.4001593,62.6342878 64.2489766,60.630343 65.2276857,59.4520235 C66.2063949,58.2737039 68.0922003,58.1534672 69.3812319,57.3358578 C70.6702634,56.5182483 71.6251016,54.8349346 73.1051009,54.4742246 C74.5851001,54.1135145 76.1048842,55.1796131 77.6326253,55.2758025 C79.1603664,55.3719919 80.8949892,54.6505717 82.2397196,55.2758025 C83.5844501,55.9010333 84.3005787,57.7286309 85.4225136,58.7466349 C86.5444485,59.7646389 88.382512,60.2135225 89.1543396,61.5521576 C89.9261671,62.8907928 89.4328341,64.7584693 89.7670274,66.3616252 C90.1012208,67.964781 91.3584244,69.3274635 91.1833708,70.9306194" id="Path" fill="#F7F80E" fill-rule="nonzero"></path>
                        <path d="M77.7315293,83.6320196 C76.4082241,83.0865595 74.953413,82.9583165 73.5570947,83.2640392 C72.8571007,83.4367054 72.12647,83.4367054 71.4264759,83.2640392 C70.4164048,82.8240626 69.7377633,81.0721559 68.5619773,79.9922135 C67.3861914,78.912271 65.6264581,78.3922987 65.0740755,77.4563485 C64.5216928,76.5203984 64.9399254,74.6484981 64.5927134,73.0245845 C64.4170506,72.3417071 64.1710727,71.6794374 63.8588336,71.0486898 C62.9118919,68.960801 62.9434567,68.6488176 64.2297191,66.7209203 C64.6474028,66.1543031 65.0020286,65.5426218 65.2871373,64.8970174 C65.9105406,63.3610992 65.8237376,61.4652002 66.5260527,60.6172454 C67.2283678,59.7692905 69.0354482,59.5932999 70.3848401,58.7293459 C71.734232,57.8653919 72.7048472,56.2734767 73.7701566,56.0094908 C74.4878913,55.9632415 75.206422,56.0864671 75.8692107,56.3694716 C77.1930839,56.9118316 78.6461855,57.0427085 80.0436453,56.7454516 C80.7431827,56.5689669 81.4747267,56.5689669 82.1742641,56.7454516 C83.176444,57.1934277 83.8629768,58.9453344 85.0387627,60.0172773 C86.2145486,61.0892202 87.9663907,61.6171921 88.5187734,62.5531423 C89.071156,63.4890924 88.6608146,65.3609927 89.0080266,66.9929058 C89.1779456,67.6750566 89.424168,68.3353007 89.7419064,68.960801 C90.6888481,71.0566894 90.6572834,71.3606732 89.3631297,73.2965701 C88.4839019,74.4328161 87.9370682,75.7965047 87.7848936,77.2323604 C87.3824434,79.4722411 87.2088374,79.6882296 85.141348,80.43219 C84.4721996,80.6393594 83.8287839,80.9238816 83.2237911,81.2801449 C81.8822904,82.1360993 80.9116752,83.7360141 79.8463658,84 C79.1348373,83.9670479 78.4299383,83.8461601 77.7473117,83.6400192" id="Path" fill="#FBE407" fill-rule="nonzero"></path>
                        <path d="M87.970942,70.6007366 C87.3991206,77.2088487 81.752384,82.1175062 75.3670447,81.556291 C68.9817054,80.9950757 64.2482947,75.2327387 64.8518839,68.5930087 C65.4554732,61.9532788 71.0863259,57.1236657 77.4398974,57.6374544 C83.7934688,58.151243 88.5586474,63.9610067 87.9471161,70.6007366" id="Path" fill="#F7F80E" fill-rule="nonzero"></path>
                        <g id="Group" opacity="0.48" style="mix-blend-mode: screen;" transform="translate(64.800000, 56.800000)" fill="#F7F80E" fill-rule="nonzero">
                            <g id="Path">
                                <path d="M12.72,0.512 C6.32,0.008 0.72,4.96 0.12,11.608 C-0.247889326,15.6012243 1.35203136,19.5234179 4.408,22.12 C10.968,20.976 16.064,16.336 16.584,10.376 C16.8406338,6.67488123 15.4222516,3.05404201 12.72,0.512"></path>
                            </g>
                        </g>
                    </g>
                </g>
            </g>
        </g>
    </g>
</svg>