<?xml version="1.0" encoding="UTF-8"?>
<svg width="304px" height="48px" viewBox="0 0 304 48" version="1.1" xmlns="http://www.w3.org/2000/svg" xmlns:xlink="http://www.w3.org/1999/xlink">
    <!-- Generator: Sketch 63.1 (92452) - https://sketch.com -->
    <title>logo_aprende@2x</title>
    <desc>Created with Sketch.</desc>
    <defs>
        <polygon id="path-1" points="0.578556 2.277396 25.532496 17.467164 26.864838 15.421428 1.640034 0.534006"></polygon>
        <polygon id="path-3" points="0.578556 2.277396 25.532496 17.467164 26.864838 15.421428 1.640034 0.534006"></polygon>
        <polyline id="path-5" points="0.578556 2.277396 25.532496 17.467164 26.864838 15.421428 1.640034 0.534006"></polyline>
        <polygon id="path-7" points="0.173448 15.45291 1.536678 17.467164 26.490618 2.277396 25.42914 0.534006"></polygon>
        <polygon id="path-9" points="0.173448 15.45291 1.536678 17.467164 26.490618 2.277396 25.42914 0.534006"></polygon>
        <polyline id="path-11" points="0.173448 15.45291 1.536678 17.467164 26.490618 2.277396 25.42914 0.534006"></polyline>
        <polygon id="path-13" points="0.188892 0.479358 5.97564 0.479358 5.97564 2.097414 0.188892 2.097414"></polygon>
        <polygon id="path-15" points="0.188892 0.07128 5.97564 0.07128 5.97564 1.689336 0.188892 1.689336"></polygon>
        <polygon id="path-17" points="0.188892 0.393822 5.97564 0.393822 5.97564 2.011878 0.188892 2.011878"></polygon>
        <polygon id="path-19" points="0.188892 0.579744 5.97564 0.579744 5.97564 2.1978 0.188892 2.1978"></polygon>
        <polygon id="path-21" points="0.303534 0.479358 6.090282 0.479358 6.090282 2.097414 0.303534 2.097414"></polygon>
        <polygon id="path-23" points="0.303534 0.07128 6.090282 0.07128 6.090282 1.689336 0.303534 1.689336"></polygon>
        <polygon id="path-25" points="0.303534 0.393822 6.090282 0.393822 6.090282 2.011878 0.303534 2.011878"></polygon>
        <polygon id="path-27" points="0.303534 0.579744 6.090282 0.579744 6.090282 2.1978 0.303534 2.1978"></polygon>
    </defs>
    <g id="Screens" stroke="none" stroke-width="1" fill="none" fill-rule="evenodd">
        <g id="Nivel-educativo-_Select-Copy-3" transform="translate(-970.000000, -21.000000)">
            <g id="logo_aprende" transform="translate(970.000000, 21.000000)">
                <g id="Group-384" transform="translate(69.498000, 19.008000)" fill="#FFFFFE">
                    <path d="M13.496868,12.7234206 L10.563696,5.6417526 L7.630524,12.7234206 L13.496868,12.7234206 Z M14.844654,15.9737886 L6.256602,15.9737886 L4.61835,19.9375506 L0.23166,19.9375506 L8.475786,1.4397966 L12.704472,1.4397966 L20.974734,19.9375506 L16.482906,19.9375506 L14.844654,15.9737886 Z" id="Fill-358"></path>
                    <path d="M32.9054022,15.6963312 C33.5831562,14.9829372 33.9229242,14.0271912 33.9229242,12.8290932 C33.9229242,11.6315892 33.5831562,10.6752492 32.9054022,9.9624492 C32.2270542,9.2490552 31.3592202,8.8920612 30.3024942,8.8920612 C29.2457682,8.8920612 28.3779342,9.2490552 27.6995862,9.9624492 C27.0212382,10.6752492 26.6820642,11.6315892 26.6820642,12.8290932 C26.6820642,14.0271912 27.0212382,14.9829372 27.6995862,15.6963312 C28.3779342,16.4097252 29.2457682,16.7667192 30.3024942,16.7667192 C31.3592202,16.7667192 32.2270542,16.4097252 32.9054022,15.6963312 M34.6232502,6.4210212 C35.7061122,7.0292772 36.5561262,7.8834492 37.1732922,8.9841312 C37.7892702,10.0854072 38.0975562,11.3672592 38.0975562,12.8290932 C38.0975562,14.2915212 37.7892702,15.5733732 37.1732922,16.6740552 C36.5561262,17.7753312 35.7061122,18.6295032 34.6232502,19.2371652 C33.5397942,19.8448272 32.3369442,20.1489552 31.0158882,20.1489552 C29.2012182,20.1489552 27.7744302,19.5763392 26.7355242,18.4311072 L26.7355242,25.0637112 L22.6131642,25.0637112 L22.6131642,5.7212892 L26.5501962,5.7212892 L26.5501962,7.3595412 C27.5718762,6.1263972 29.0604402,5.5098252 31.0158882,5.5098252 C32.3369442,5.5098252 33.5397942,5.8133592 34.6232502,6.4210212" id="Fill-360"></path>
                    <path d="M46.7779752,6.03801 C47.6143272,5.685768 48.5789832,5.50935 49.6713492,5.50935 L49.6713492,9.314514 C49.2127812,9.279468 48.9050892,9.261648 48.7464912,9.261648 C47.5662132,9.261648 46.6413552,9.591912 45.9719172,10.25244 C45.3018852,10.913562 44.9680572,11.904354 44.9680572,13.22541 L44.9680572,19.937016 L40.8456972,19.937016 L40.8456972,5.720814 L44.7827292,5.720814 L44.7827292,7.59726 C45.2757492,6.910002 45.9410292,6.390846 46.7779752,6.03801" id="Fill-362"></path>
                    <path d="M56.1985776,9.4204836 C55.5641856,9.9491436 55.1763036,10.6714476 55.0355256,11.5868016 L62.0381916,11.5868016 C61.8974136,10.6886736 61.5101256,9.9711216 60.8757336,9.4335516 C60.2413416,8.8965756 59.4655776,8.6280876 58.5502236,8.6280876 C57.6158616,8.6280876 56.8323756,8.8918236 56.1985776,9.4204836 M65.8433556,13.9919076 L55.0889856,13.9919076 C55.2826296,14.8728096 55.7400096,15.5689776 56.4629076,16.0792236 C57.1852116,16.5906576 58.0833396,16.8454836 59.1578856,16.8454836 C59.8980096,16.8454836 60.5537856,16.7355936 61.1264016,16.5152196 C61.6990176,16.2954396 62.2318356,15.9473556 62.7254496,15.4721556 L64.9184976,17.8499376 C63.5796216,19.3824576 61.6241736,20.1487176 59.0521536,20.1487176 C57.4489476,20.1487176 56.0310696,19.8362736 54.7979256,19.2107916 C53.5647816,18.5853096 52.6131936,17.7180696 51.9443496,16.6078836 C51.2743176,15.4982916 50.9398956,14.2390116 50.9398956,12.8294496 C50.9398956,11.4377076 51.2701596,10.1825856 51.9312816,9.0634896 C52.5918096,7.9449876 53.4988476,7.0729956 54.6523956,6.4481076 C55.8065376,5.8226256 57.0967056,5.5095876 58.5240876,5.5095876 C59.9152356,5.5095876 61.1751096,5.8089636 62.3025216,6.4083096 C63.4299336,7.0070616 64.3149936,7.8659856 64.9582956,8.9844876 C65.6010036,10.1035836 65.9229516,11.4020676 65.9229516,12.8823156 C65.9229516,12.9351816 65.8962216,13.3046496 65.8433556,13.9919076" id="Fill-364"></path>
                    <path d="M81.5794848,7.0949142 C82.6629408,8.1522342 83.2046688,9.7203942 83.2046688,11.7982062 L83.2046688,19.9371942 L79.0823088,19.9371942 L79.0823088,12.4325982 C79.0823088,11.3057802 78.8352048,10.4640822 78.3421848,9.9092862 C77.8491648,9.3544902 77.1357708,9.0770922 76.2020028,9.0770922 C75.1625028,9.0770922 74.3344668,9.3984462 73.7184888,10.0411542 C73.1013228,10.6844562 72.7930368,11.6402022 72.7930368,12.9083922 L72.7930368,19.9371942 L68.6712708,19.9371942 L68.6712708,5.7209922 L72.6083028,5.7209922 L72.6083028,7.3859742 C73.1541888,6.7866282 73.8325368,6.3244962 74.6433468,5.9983902 C75.4529688,5.6722842 76.3427808,5.5095282 77.3115948,5.5095282 C79.0733988,5.5095282 80.4960288,6.0381882 81.5794848,7.0949142" id="Fill-366"></path>
                    <path d="M96.4957752,15.6963312 C97.1824392,14.9829372 97.5263652,14.0271912 97.5263652,12.8290932 C97.5263652,11.6315892 97.1824392,10.6752492 96.4957752,9.9624492 C95.8091112,9.2490552 94.9454352,8.8920612 93.9059352,8.8920612 C92.8492092,8.8920612 91.9772172,9.2490552 91.2899592,9.9624492 C90.6032952,10.6752492 90.2599632,11.6315892 90.2599632,12.8290932 C90.2599632,14.0271912 90.6032952,14.9829372 91.2899592,15.6963312 C91.9772172,16.4097252 92.8492092,16.7667192 93.9059352,16.7667192 C94.9454352,16.7667192 95.8091112,16.4097252 96.4957752,15.6963312 L96.4957752,15.6963312 Z M101.569129,0.3301452 L101.569129,19.9374912 L97.6320972,19.9374912 L97.6320972,18.2992392 C96.6098232,19.5323832 95.1301692,20.1489552 93.1925412,20.1489552 C91.8536652,20.1489552 90.6424992,19.8495792 89.5596372,19.2502332 C88.4761812,18.6514812 87.6255732,17.7967152 87.0090012,16.6871232 C86.3924292,15.5775312 86.0847372,14.2915212 86.0847372,12.8290932 C86.0847372,11.3672592 86.3924292,10.0806552 87.0090012,8.9710632 C87.6255732,7.8614712 88.4761812,7.0072992 89.5596372,6.4079532 C90.6424992,5.8092012 91.8536652,5.5098252 93.1925412,5.5098252 C95.0066172,5.5098252 96.4250892,6.0818472 97.4467692,7.2270792 L97.4467692,0.3301452 L101.569129,0.3301452 Z" id="Fill-368"></path>
                    <path d="M109.575774,9.4204836 C108.941382,9.9491436 108.5535,10.6714476 108.412722,11.5868016 L115.415388,11.5868016 C115.27461,10.6886736 114.887322,9.9711216 114.25293,9.4335516 C113.618538,8.8965756 112.842774,8.6280876 111.92742,8.6280876 C110.993058,8.6280876 110.209572,8.8918236 109.575774,9.4204836 M119.220552,13.9919076 L108.466182,13.9919076 C108.659826,14.8728096 109.117206,15.5689776 109.840104,16.0792236 C110.562408,16.5906576 111.460536,16.8454836 112.535082,16.8454836 C113.275206,16.8454836 113.930982,16.7355936 114.503598,16.5152196 C115.076214,16.2954396 115.609032,15.9473556 116.102646,15.4721556 L118.295694,17.8499376 C116.956818,19.3824576 115.00137,20.1487176 112.42935,20.1487176 C110.826144,20.1487176 109.408266,19.8362736 108.175122,19.2107916 C106.941978,18.5853096 105.99039,17.7180696 105.321546,16.6078836 C104.651514,15.4982916 104.317092,14.2390116 104.317092,12.8294496 C104.317092,11.4377076 104.647356,10.1825856 105.308478,9.0634896 C105.969006,7.9449876 106.876044,7.0729956 108.029592,6.4481076 C109.183734,5.8226256 110.473902,5.5095876 111.901284,5.5095876 C113.292432,5.5095876 114.552306,5.8089636 115.679718,6.4083096 C116.80713,7.0070616 117.69219,7.8659856 118.335492,8.9844876 C118.9782,10.1035836 119.300148,11.4020676 119.300148,12.8823156 C119.300148,12.9351816 119.273418,13.3046496 119.220552,13.9919076" id="Fill-370"></path>
                    <path d="M133.727517,9.4204836 C133.093125,9.9491436 132.705837,10.6714476 132.565059,11.5868016 L139.567131,11.5868016 C139.426353,10.6886736 139.039065,9.9711216 138.404673,9.4335516 C137.770281,8.8965756 136.995111,8.6280876 136.079757,8.6280876 C135.145395,8.6280876 134.361909,8.8918236 133.727517,9.4204836 M143.372295,13.9919076 L132.617925,13.9919076 C132.811569,14.8728096 133.268949,15.5689776 133.991847,16.0792236 C134.714151,16.5906576 135.612279,16.8454836 136.686825,16.8454836 C137.426949,16.8454836 138.082725,16.7355936 138.655341,16.5152196 C139.227957,16.2954396 139.760775,15.9473556 140.254389,15.4721556 L142.448031,17.8499376 C141.108561,19.3824576 139.153113,20.1487176 136.581093,20.1487176 C134.977887,20.1487176 133.560009,19.8362736 132.326865,19.2107916 C131.093721,18.5853096 130.142727,17.7180696 129.473289,16.6078836 C128.803257,15.4982916 128.468835,14.2390116 128.468835,12.8294496 C128.468835,11.4377076 128.799099,10.1825856 129.460221,9.0634896 C130.120749,7.9449876 131.027787,7.0729956 132.181335,6.4481076 C133.335477,5.8226256 134.625645,5.5095876 136.053027,5.5095876 C137.444175,5.5095876 138.704049,5.8089636 139.831461,6.4083096 C140.958873,7.0070616 141.843933,7.8659856 142.487235,8.9844876 C143.129943,10.1035836 143.451891,11.4020676 143.451891,12.8823156 C143.451891,12.9351816 143.425161,13.3046496 143.372295,13.9919076" id="Fill-372"></path>
                    <path d="M159.107949,7.0949142 C160.191405,8.1522342 160.733133,9.7203942 160.733133,11.7982062 L160.733133,19.9371942 L156.610773,19.9371942 L156.610773,12.4325982 C156.610773,11.3057802 156.363669,10.4640822 155.870649,9.9092862 C155.377629,9.3544902 154.664235,9.0770922 153.730467,9.0770922 C152.690967,9.0770922 151.863525,9.3984462 151.246953,10.0411542 C150.630381,10.6844562 150.321501,11.6402022 150.321501,12.9083922 L150.321501,19.9371942 L146.199735,19.9371942 L146.199735,5.7209922 L150.136767,5.7209922 L150.136767,7.3859742 C150.682653,6.7866282 151.361001,6.3244962 152.171811,5.9983902 C152.981433,5.6722842 153.871245,5.5095282 154.840653,5.5095282 C156.601863,5.5095282 158.024493,6.0381882 159.107949,7.0949142" id="Fill-374"></path>
                    <path d="M175.966798,19.0257012 C174.442594,18.2065752 173.24509,17.0702532 172.372504,15.6167352 C171.501106,14.1638112 171.06511,12.5214012 171.06511,10.6889112 C171.06511,8.8570152 171.501106,7.2140112 172.372504,5.7604932 C173.24509,4.3075692 174.442594,3.1712472 175.966798,2.3515272 C177.490408,1.5329952 179.203504,1.1231352 181.10668,1.1231352 C182.709292,1.1231352 184.158652,1.4046912 185.452978,1.9689912 C186.747898,2.5326972 187.835512,3.3429132 188.716414,4.3996392 L185.96857,6.9366132 C184.717012,5.4920052 183.167266,4.7697012 181.31755,4.7697012 C180.172318,4.7697012 179.151232,5.0203692 178.25251,5.5228932 C177.354382,6.0248232 176.653462,6.7251492 176.151532,7.6232772 C175.649602,8.5219992 175.39834,9.5442732 175.39834,10.6889112 C175.39834,11.8341432 175.649602,12.8558232 176.151532,13.7539512 C176.653462,14.6526732 177.354382,15.3524052 178.25251,15.8549292 C179.151232,16.3568592 180.172318,16.6081212 181.31755,16.6081212 C183.167266,16.6081212 184.717012,15.8769072 185.96857,14.4144792 L188.716414,16.9514532 C187.835512,18.0259992 186.743146,18.8451252 185.43991,19.4088312 C184.13608,19.9725372 182.682562,20.2540932 181.07995,20.2540932 C179.194594,20.2540932 177.490408,19.8448272 175.966798,19.0257012" id="Fill-376"></path>
                    <path d="M198.493535,16.8852222 C199.038827,16.5597102 199.426709,16.0797582 199.655993,15.4453662 L199.655993,13.9918482 L196.828553,13.9918482 C195.137435,13.9918482 194.292173,14.5466442 194.292173,15.6568302 C194.292173,16.1848962 194.498291,16.6036662 194.912903,16.9119522 C195.326327,17.2202382 195.894785,17.3740842 196.617089,17.3740842 C197.321573,17.3740842 197.947055,17.2113282 198.493535,16.8852222 M202.007639,7.0818462 C203.187323,8.1302562 203.778353,9.7108902 203.778353,11.8249362 L203.778353,19.9371942 L199.920323,19.9371942 L199.920323,18.1670742 C199.144559,19.4881302 197.700545,20.1486582 195.586499,20.1486582 C194.494133,20.1486582 193.547297,19.9639242 192.745991,19.5938622 C191.944091,19.2243942 191.332271,18.7135542 190.909343,18.0613422 C190.487009,17.4097242 190.274951,16.6701942 190.274951,15.8415642 C190.274951,14.5205082 190.772723,13.4810082 191.768267,12.7236582 C192.763217,11.9663082 194.300489,11.5873362 196.379489,11.5873362 L199.655993,11.5873362 C199.655993,10.6886142 199.382753,9.9977922 198.836867,9.5124942 C198.290387,9.0283842 197.471261,8.7860322 196.379489,8.7860322 C195.621545,8.7860322 194.877263,8.9054262 194.146643,9.1430262 C193.414835,9.3806262 192.794105,9.7025742 192.283265,10.1070882 L190.803611,7.2273762 C191.578781,6.6814902 192.508391,6.2585622 193.591253,5.9585922 C194.674709,5.6598102 195.789053,5.5095282 196.934285,5.5095282 C199.136243,5.5095282 200.827361,6.0340302 202.007639,7.0818462" id="Fill-378"></path>
                    <path d="M208.824858,19.712781 C207.697446,19.422315 206.798724,19.057005 206.12988,18.616257 L207.503802,15.656355 C208.138194,16.062057 208.904454,16.392321 209.802582,16.647147 C210.70071,16.903161 211.582206,17.030277 212.445288,17.030277 C214.189272,17.030277 215.061264,16.599033 215.061264,15.735951 C215.061264,15.330843 214.82307,15.040377 214.34787,14.863959 C213.872076,14.688135 213.140862,14.537853 212.154822,14.414895 C210.99177,14.239071 210.031272,14.035923 209.273922,13.807233 C208.516572,13.577949 207.860202,13.172841 207.305406,12.591315 C206.75061,12.009789 206.473212,11.182347 206.473212,10.107207 C206.473212,9.209079 206.73279,8.412525 207.25254,7.715763 C207.77229,7.020189 208.52964,6.478461 209.525184,6.091173 C210.520134,5.703885 211.696254,5.509647 213.05295,5.509647 C214.057404,5.509647 215.056512,5.619537 216.052056,5.839911 C217.047006,6.060285 217.870884,6.363819 218.523096,6.751701 L217.14858,9.684873 C215.897616,8.980389 214.532604,8.627553 213.05295,8.627553 C212.172048,8.627553 211.51152,8.751105 211.070772,8.997615 C210.630618,9.244125 210.410244,9.561321 210.410244,9.949203 C210.410244,10.389357 210.648438,10.697643 211.123638,10.874061 C211.599432,11.050479 212.356782,11.217393 213.396282,11.375991 C214.559334,11.570229 215.510328,11.776941 216.250452,11.996721 C216.990576,12.217095 217.633284,12.618045 218.179764,13.198977 C218.725056,13.780503 218.998296,14.590719 218.998296,15.630219 C218.998296,16.511121 218.733966,17.295201 218.205306,17.981865 C217.67724,18.669123 216.906228,19.201941 215.893458,19.580913 C214.880094,19.959291 213.677838,20.148777 212.28669,20.148777 C211.106412,20.148777 209.95227,20.003247 208.824858,19.712781" id="Fill-380"></path>
                    <path d="M228.828283,16.8852222 C229.373575,16.5597102 229.762051,16.0797582 229.990741,15.4453662 L229.990741,13.9918482 L227.163301,13.9918482 C225.472183,13.9918482 224.626921,14.5466442 224.626921,15.6568302 C224.626921,16.1848962 224.833039,16.6036662 225.247651,16.9119522 C225.661075,17.2202382 226.229533,17.3740842 226.952431,17.3740842 C227.656321,17.3740842 228.281803,17.2113282 228.828283,16.8852222 M232.342387,7.0818462 C233.522665,8.1302562 234.113101,9.7108902 234.113101,11.8249362 L234.113101,19.9371942 L230.255071,19.9371942 L230.255071,18.1670742 C229.479307,19.4881302 228.035293,20.1486582 225.921247,20.1486582 C224.828881,20.1486582 223.882045,19.9639242 223.080739,19.5938622 C222.278839,19.2243942 221.667019,18.7135542 221.244091,18.0613422 C220.821757,17.4097242 220.609699,16.6701942 220.609699,15.8415642 C220.609699,14.5205082 221.107471,13.4810082 222.103015,12.7236582 C223.098559,11.9663082 224.635237,11.5873362 226.714237,11.5873362 L229.990741,11.5873362 C229.990741,10.6886142 229.717501,9.9977922 229.171615,9.5124942 C228.625729,9.0283842 227.806603,8.7860322 226.714237,8.7860322 C225.956887,8.7860322 225.212011,8.9054262 224.481391,9.1430262 C223.750177,9.3806262 223.128853,9.7025742 222.618013,10.1070882 L221.138359,7.2273762 C221.913529,6.6814902 222.843139,6.2585622 223.926595,5.9585922 C225.009457,5.6598102 226.123801,5.5095282 227.269033,5.5095282 C229.470991,5.5095282 231.162109,6.0340302 232.342387,7.0818462" id="Fill-382"></path>
                </g>
                <g id="Group-394" transform="translate(29.700000, 2.376000)">
                    <g id="Group-387">
                        <mask id="mask-2" fill="white">
                            <use xlink:href="#path-1"></use>
                        </mask>
                        <g id="Clip-386"></g>
                        <polygon id="Fill-385" fill="#FFFFFE" mask="url(#mask-2)" points="27.0555714 16.6415634 3.6270234 2.3808114 3.6846414 2.2863654 27.1125954 16.5477114"></polygon>
                    </g>
                    <g id="Group-390">
                        <mask id="mask-4" fill="white">
                            <use xlink:href="#path-3"></use>
                        </mask>
                        <g id="Clip-389"></g>
                        <polygon id="Fill-388" fill="#FFFFFE" mask="url(#mask-4)" points="26.9204364 17.2315242 3.4918884 2.9707722 3.5495064 2.8763262 26.9774604 17.1376722"></polygon>
                    </g>
                    <g id="Group-393">
                        <mask id="mask-6" fill="white">
                            <use xlink:href="#path-5"></use>
                        </mask>
                        <g id="Clip-392"></g>
                        <line x1="28.315683" y1="33.8718996" x2="4.887135" y2="19.6111476" id="Stroke-391" stroke="#FFFFFE" stroke-width="0.55" mask="url(#mask-6)"></line>
                    </g>
                </g>
                <polygon id="Stroke-395" stroke="#FFFFFE" stroke-width="0.55" points="30.2786154 4.653693 31.3400934 2.909709 56.5643034 17.797725 55.2325554 19.842867"></polygon>
                <g id="Group-406" transform="translate(4.158000, 2.376000)">
                    <g id="Group-399">
                        <mask id="mask-8" fill="white">
                            <use xlink:href="#path-7"></use>
                        </mask>
                        <g id="Clip-398"></g>
                        <polygon id="Fill-397" fill="#FFFFFE" mask="url(#mask-8)" points="0.0137214 16.6415634 -0.0433026 16.5477114 23.3846514 2.2863654 23.4422694 2.3808114"></polygon>
                    </g>
                    <g id="Group-402">
                        <mask id="mask-10" fill="white">
                            <use xlink:href="#path-9"></use>
                        </mask>
                        <g id="Clip-401"></g>
                        <polygon id="Fill-400" fill="#FFFFFE" mask="url(#mask-10)" points="0.1487376 17.2315242 0.0917136 17.1376722 23.5196676 2.8763262 23.5772856 2.9707722"></polygon>
                    </g>
                    <g id="Group-405">
                        <mask id="mask-12" fill="white">
                            <use xlink:href="#path-11"></use>
                        </mask>
                        <g id="Clip-404"></g>
                        <line x1="-1.246509" y1="33.8718996" x2="22.182039" y2="19.6111476" id="Stroke-403" stroke="#FFFFFE" stroke-width="0.55" mask="url(#mask-12)"></line>
                    </g>
                </g>
                <g id="Group-433">
                    <polygon id="Stroke-407" stroke="#FFFFFE" stroke-width="0.55" points="30.648618 4.653693 29.58714 2.909709 4.331448 17.828613 5.694678 19.842867"></polygon>
                    <path d="M27.9829836,4.5492678 C28.5621336,5.1129738 29.0509956,5.8923018 30.4635276,5.8150818 C31.8760596,5.7384558 32.3655156,5.1129738 32.9440716,4.5492678 L59.0123556,19.4853978 L60.4724076,16.9537698 L32.1593976,0.4857138 C31.1109876,-0.1237302 29.8160676,-0.1237302 28.7676576,0.4857138 L0.4546476,16.9537698 L1.9146996,19.4853978 L27.9829836,4.5492678 Z" id="Fill-409" fill="#FFFFFE"></path>
                    <path d="M40.345371,38.9638458 C36.462987,38.9638458 33.304689,35.8055478 33.304689,31.9231638 C33.304689,31.6338858 33.322509,31.3416378 33.357555,31.0571118 L33.794739,31.1105718 C33.762069,31.3778718 33.744843,31.6511118 33.744843,31.9231638 C33.744843,35.5626018 36.705933,38.5230978 40.345371,38.5230978 C43.984809,38.5230978 46.945305,35.5626018 46.945305,31.9231638 C46.945305,31.6950678 46.934019,31.4687538 46.911447,31.2465978 L47.349819,31.2026418 C47.373579,31.4396478 47.386053,31.6796238 47.386053,31.9231638 C47.386053,35.8055478 44.227755,38.9638458 40.345371,38.9638458" id="Fill-411" fill="#FFFFFE"></path>
                    <path d="M47.7129312,29.6799822 L48.2974272,27.4649562 C48.3277212,27.3479382 48.2243652,27.2404242 48.1097232,27.2701242 L47.5044372,27.4275342 C47.4070212,27.4530762 47.3119812,27.3776382 47.3119812,27.2742822 L47.3119812,24.2335962 C47.3119812,24.1248942 47.2080312,24.0488622 47.1082392,24.0833142 L46.0384452,24.4521882 C45.9695412,24.4759482 45.8941032,24.4474362 45.8566812,24.3838782 L44.7744132,22.5371322 C44.7393672,22.4765442 44.6686812,22.4474382 44.6021532,22.4658522 L43.4325672,22.7872062 C43.3761372,22.8026502 43.3167372,22.7842362 43.2775332,22.7402802 L41.9677632,21.2558742 C41.9190552,21.2006322 41.8394592,21.1875642 41.7764952,21.2243922 L40.0835952,22.2074622 C40.0277592,22.2395382 39.9582612,22.2335982 39.9089592,22.1926122 L39.1718052,21.5736642 C39.1058712,21.5184222 39.0090492,21.5279262 38.9549952,21.5950482 L38.1726972,22.5573282 C38.1121092,22.6315782 38.0010312,22.6333602 37.9380672,22.5608922 L37.0304352,21.5154522 C36.9567792,21.4305102 36.8231292,21.4501122 36.7756092,21.5522802 L35.8590672,23.5219842 C35.8281792,23.5885122 35.7568992,23.6241522 35.6868072,23.6087082 L34.7007672,23.3901162 C34.6110732,23.3699202 34.5237552,23.4346662 34.5142512,23.5285182 L34.3312992,25.3194282 C34.3206072,25.4221902 34.2184392,25.4875302 34.1239932,25.4512962 L33.4973232,25.2142902 C33.3814932,25.1703342 33.2638812,25.2772542 33.2935812,25.4002122 L33.6986892,27.0883602 C33.7153212,27.1560762 33.6856212,27.2273562 33.6262212,27.2629962 L32.7524472,27.7821522 C32.6829492,27.8237322 32.6556252,27.9122382 32.6900772,27.9864882 L33.3143712,29.3354622 C33.3547632,29.4221862 33.3102132,29.5261362 33.2205192,29.5546482 L32.7809592,29.6936442 C32.6977992,29.7197802 32.6526552,29.8118502 32.6805732,29.8961982 L33.3007092,31.7643282 C33.3054612,31.7797722 33.3090252,31.7964042 33.3096192,31.8130362 C33.3108072,31.8813462 33.3274392,32.0844942 33.4699992,32.0785542 C33.4854432,32.0773662 33.6624552,32.2110162 33.7776912,32.2935822 C33.8329332,32.3339742 33.9071832,32.3315982 33.9612372,32.2894242 L34.6223592,31.7631402 C34.6680972,31.7263122 34.6900752,31.6669122 34.6793832,31.6087002 L34.2148752,29.0812302 C34.1917092,28.9582722 34.3116972,28.8578862 34.4251512,28.9054062 L34.8658992,29.0889522 C34.9538112,29.1257802 35.0530092,29.0735082 35.0743932,28.9784682 L35.3618892,27.7286922 C35.3826792,27.6384042 35.4741552,27.5855382 35.5608792,27.6146442 L36.7019532,28.0007442 C36.8005572,28.0346022 36.9027252,27.9603522 36.9051012,27.8546202 L36.9270792,26.8626402 C36.9300492,26.7343362 37.0726092,26.6624622 37.1729952,26.7384942 L37.7295732,27.1554822 C37.7961012,27.2053782 37.8887652,27.1929042 37.9410372,27.1275642 L39.0470652,25.7304762 C39.1124052,25.6473162 39.2371452,25.6532562 39.2953572,25.7417622 L39.9927132,26.8038342 C40.0550832,26.8988742 40.1917032,26.8970922 40.2516972,26.8008642 L40.8730212,25.8017562 C40.9377672,25.6978062 41.0892372,25.7061222 41.1421032,25.8172002 L41.7075912,26.9986662 C41.7598632,27.1085562 41.9077692,27.1186542 41.9742972,27.0176742 L42.5991852,26.0690562 C42.6663072,25.9674822 42.8159952,25.9787682 42.8670792,26.0898462 L43.6683852,27.8231382 C43.7052132,27.9015462 43.7966892,27.9354042 43.8739092,27.8985762 L45.3731652,27.2148822 C45.4759272,27.1661742 45.5935392,27.2422062 45.5935392,27.3586302 L45.7099632,28.4783202 C45.7099632,28.5941502 45.8281692,28.6707762 45.9309312,28.6208802 L46.3116852,28.4355522 C46.4186052,28.3838742 46.5403752,28.4688162 46.5326532,28.5893982 L46.4827572,29.3313042 C46.4768172,29.4227802 46.5475032,29.5005942 46.6371972,29.5005942 C46.7375832,29.5005942 46.8112392,29.5968222 46.7868852,29.6972082 L46.2718872,31.8231342 C46.2611952,31.8659022 46.2689172,31.9104522 46.2914892,31.9472802 L46.6128432,32.4581202 C46.6722432,32.5525662 46.8058932,32.5555362 46.8688572,32.4640602 L48.4524612,30.1866642 C48.5207712,30.0880602 48.4607772,29.9514402 48.3437592,29.9371842 L47.8447992,29.8783782 C47.7503532,29.8676862 47.6879832,29.7732402 47.7129312,29.6799822" id="Fill-413" fill="#FFFFFE"></path>
                    <path d="M40.5848718,36.8138034 C38.8961298,36.8138034 37.4764698,35.7291594 37.4170698,35.6828274 C37.3446018,35.6269914 37.3315338,35.5236354 37.3873698,35.4517614 C37.4432058,35.3786994 37.5465618,35.3662254 37.6190298,35.4214674 C37.6326918,35.4321594 39.0113658,36.4835394 40.5848718,36.4835394 C42.1613478,36.4835394 43.5198258,35.4333474 43.5334878,35.4226554 C43.6053618,35.3656314 43.7093118,35.3792934 43.7657418,35.4505734 C43.8215778,35.5224474 43.8091038,35.6263974 43.7372298,35.6822334 C43.6784238,35.7285654 42.2742078,36.8138034 40.5848718,36.8138034" id="Fill-415" fill="#FFFFFE"></path>
                    <path d="M38.7838044,32.3167482 C38.7838044,32.7539322 38.5277904,33.1085502 38.2123764,33.1085502 C37.8969624,33.1085502 37.6415424,32.7539322 37.6415424,32.3167482 C37.6415424,31.8795642 37.8969624,31.5249462 38.2123764,31.5249462 C38.5277904,31.5249462 38.7838044,31.8795642 38.7838044,32.3167482" id="Fill-417" fill="#FFFFFE"></path>
                    <path d="M43.511985,32.3167482 C43.511985,32.7539322 43.255971,33.1085502 42.940557,33.1085502 C42.625143,33.1085502 42.369723,32.7539322 42.369723,32.3167482 C42.369723,31.8795642 42.625143,31.5249462 42.940557,31.5249462 C43.255971,31.5249462 43.511985,31.8795642 43.511985,32.3167482" id="Fill-419" fill="#FFFFFE"></path>
                    <path d="M29.1313044,28.956312 C29.1313044,28.815534 29.1146724,28.677726 29.1039804,28.53873 L29.1140784,28.528632 C29.1140784,28.528632 29.1093264,28.52685 29.1033864,28.52388 C28.8147024,24.87672 24.9531084,22.024332 21.1562604,22.024332 C17.0790444,22.024332 13.6956204,24.99255 13.0475664,28.885626 L13.4776224,29.253312 L14.8895604,28.555362 C14.8895604,28.555362 17.7342264,27.151146 19.5221664,27.139266 C19.5221664,27.139266 23.3908884,30.904038 27.8280684,29.867508 L28.7814384,28.875528 C29.0041884,28.926612 29.1313044,28.956312 29.1313044,28.956312" id="Fill-421" fill="#FFFFFE"></path>
                    <path d="M20.8780902,38.4510456 C17.3461662,38.4510456 14.4723942,35.5778676 14.4723942,32.0453496 C14.4723942,28.5140196 17.3461662,25.6402476 20.8780902,25.6402476 C24.4100142,25.6402476 27.2831922,28.5140196 27.2831922,32.0453496 C27.2831922,35.5778676 24.4100142,38.4510456 20.8780902,38.4510456 M29.6942382,36.5989536 C30.6042462,30.4647156 29.1263742,28.8858636 29.1263742,28.8858636 L26.2288422,27.8083476 C24.9760962,26.2300896 23.0455962,25.2125676 20.8780902,25.2125676 C18.6143562,25.2125676 16.6102002,26.3233476 15.3657702,28.0239696 L13.0479822,28.8858636 C13.0479822,28.8858636 11.5701102,30.4647156 12.4801182,36.5989536 C12.4801182,36.5989536 13.0669902,38.1534516 11.0384802,38.4783696 C11.0384802,38.4783696 13.5089262,42.0655356 16.2686502,37.1068236 C16.2728082,37.0996956 16.2763722,37.0925676 16.2805302,37.0854396 C17.4958542,38.1950316 19.1067822,38.8787256 20.8780902,38.8787256 C22.7872062,38.8787256 24.5139642,38.0892996 25.7548302,36.8228916 C25.8047262,36.9173376 25.8528402,37.0123776 25.9051122,37.1068236 C28.6654302,42.0655356 31.1358762,38.4783696 31.1358762,38.4783696 C29.1073662,38.1534516 29.6942382,36.5989536 29.6942382,36.5989536" id="Fill-423" fill="#FFFFFE"></path>
                    <path d="M19.362618,32.4278262 C19.362618,32.8519422 19.114326,33.1958682 18.808416,33.1958682 C18.501912,33.1958682 18.254214,32.8519422 18.254214,32.4278262 C18.254214,32.0037102 18.501912,31.6597842 18.808416,31.6597842 C19.114326,31.6597842 19.362618,32.0037102 19.362618,32.4278262" id="Fill-425" fill="#FFFFFE"></path>
                    <path d="M23.951268,32.4278262 C23.951268,32.8519422 23.702976,33.1958682 23.397066,33.1958682 C23.090562,33.1958682 22.842864,32.8519422 22.842864,32.4278262 C22.842864,32.0037102 23.090562,31.6597842 23.397066,31.6597842 C23.702976,31.6597842 23.951268,32.0037102 23.951268,32.4278262" id="Fill-427" fill="#FFFFFE"></path>
                    <path d="M21.1106412,36.792063 C19.4717952,36.792063 18.0937152,35.739495 18.0360972,35.694945 C17.9660052,35.640891 17.9535312,35.539911 18.0069912,35.469819 C18.0616392,35.399727 18.1620252,35.387253 18.2321172,35.441307 C18.2457792,35.451405 19.5834672,36.471303 21.1106412,36.471303 C22.6407852,36.471303 23.9588712,35.451999 23.9719392,35.441901 C24.0414372,35.387253 24.1424172,35.399133 24.1970652,35.469225 C24.2517132,35.538723 24.2398332,35.639703 24.1697412,35.694351 C24.1127172,35.738901 22.7500812,36.792063 21.1106412,36.792063" id="Fill-429" fill="#FFFFFE"></path>
                    <polygon id="Fill-431" fill="#FFFFFE" points="4.346892 47.498022 10.13364 47.498022 10.13364 21.067992 4.346892 21.067992"></polygon>
                </g>
                <g id="Group-446" transform="translate(4.158000, 21.978000)">
                    <g id="Group-436" transform="translate(0.000000, 19.602000)">
                        <mask id="mask-14" fill="white">
                            <use xlink:href="#path-13"></use>
                        </mask>
                        <g id="Clip-435"></g>
                        <polygon id="Fill-434" fill="#B3337F" mask="url(#mask-14)" points="-0.606474 2.097414 6.98841 2.097414 6.98841 0.479358 -0.606474 0.479358"></polygon>
                    </g>
                    <g id="Group-439" transform="translate(0.000000, 22.572000)">
                        <mask id="mask-16" fill="white">
                            <use xlink:href="#path-15"></use>
                        </mask>
                        <g id="Clip-438"></g>
                        <polygon id="Fill-437" fill="#B3337F" mask="url(#mask-16)" points="-0.859518 1.689336 6.735366 1.689336 6.735366 0.07128 -0.859518 0.07128"></polygon>
                    </g>
                    <g id="Group-442">
                        <mask id="mask-18" fill="white">
                            <use xlink:href="#path-17"></use>
                        </mask>
                        <g id="Clip-441"></g>
                        <polygon id="Fill-440" fill="#B3337F" mask="url(#mask-18)" points="-0.606474 2.011878 6.98841 2.011878 6.98841 0.393822 -0.606474 0.393822"></polygon>
                    </g>
                    <g id="Group-445" transform="translate(0.000000, 2.376000)">
                        <mask id="mask-20" fill="white">
                            <use xlink:href="#path-19"></use>
                        </mask>
                        <g id="Clip-444"></g>
                        <polygon id="Fill-443" fill="#B3337F" mask="url(#mask-20)" points="-0.859518 2.1978 6.735366 2.1978 6.735366 0.579744 -0.859518 0.579744"></polygon>
                    </g>
                </g>
                <polygon id="Fill-447" fill="#FFFFFE" points="50.793534 47.498022 56.580282 47.498022 56.580282 21.067992 50.793534 21.067992"></polygon>
                <g id="Group-461" transform="translate(50.490000, 21.978000)">
                    <g id="Group-451" transform="translate(0.000000, 19.602000)">
                        <mask id="mask-22" fill="white">
                            <use xlink:href="#path-21"></use>
                        </mask>
                        <g id="Clip-450"></g>
                        <polygon id="Fill-449" fill="#B3337F" mask="url(#mask-22)" points="-0.492426 2.097414 7.102458 2.097414 7.102458 0.479358 -0.492426 0.479358"></polygon>
                    </g>
                    <g id="Group-454" transform="translate(0.000000, 22.572000)">
                        <mask id="mask-24" fill="white">
                            <use xlink:href="#path-23"></use>
                        </mask>
                        <g id="Clip-453"></g>
                        <polygon id="Fill-452" fill="#B3337F" mask="url(#mask-24)" points="-0.74547 1.689336 6.849414 1.689336 6.849414 0.07128 -0.74547 0.07128"></polygon>
                    </g>
                    <g id="Group-457">
                        <mask id="mask-26" fill="white">
                            <use xlink:href="#path-25"></use>
                        </mask>
                        <g id="Clip-456"></g>
                        <polygon id="Fill-455" fill="#B3337F" mask="url(#mask-26)" points="-0.492426 2.011878 7.102458 2.011878 7.102458 0.393822 -0.492426 0.393822"></polygon>
                    </g>
                    <g id="Group-460" transform="translate(0.000000, 2.376000)">
                        <mask id="mask-28" fill="white">
                            <use xlink:href="#path-27"></use>
                        </mask>
                        <g id="Clip-459"></g>
                        <polygon id="Fill-458" fill="#B3337F" mask="url(#mask-28)" points="-0.74547 2.1978 6.849414 2.1978 6.849414 0.579744 -0.74547 0.579744"></polygon>
                    </g>
                </g>
            </g>
        </g>
    </g>
</svg>