<?xml version="1.0" encoding="UTF-8"?>
<svg width="406px" height="356px" viewBox="0 0 406 356" version="1.1" xmlns="http://www.w3.org/2000/svg" xmlns:xlink="http://www.w3.org/1999/xlink">
    <!-- Generator: Sketch 63.1 (92452) - https://sketch.com -->
    <title>Alumnos@2x</title>
    <desc>Created with Sketch.</desc>
    <defs>
        <rect id="path-1" x="0" y="0" width="350" height="300" rx="8"></rect>
        <filter x="-12.3%" y="-13.7%" width="124.6%" height="128.7%" filterUnits="objectBoundingBox" id="filter-3">
            <feOffset dx="0" dy="2" in="SourceAlpha" result="shadowOffsetOuter1"></feOffset>
            <feGaussianBlur stdDeviation="14" in="shadowOffsetOuter1" result="shadowBlurOuter1"></feGaussianBlur>
            <feColorMatrix values="0 0 0 0 0   0 0 0 0 0   0 0 0 0 0  0 0 0 0.06 0" type="matrix" in="shadowBlurOuter1"></feColorMatrix>
        </filter>
        <path d="M178.203556,89.1004792 C178.203556,125.14025 156.49255,157.630901 123.195296,171.420678 C89.8980415,185.210455 51.5726207,177.583383 26.0917859,152.096285 C0.610951182,126.609188 -7.00670208,88.2818935 6.79125764,54.9880293 C20.5892174,21.694165 53.0852033,-0.00885335923 89.1249732,-1.36902648e-12 C112.752985,0.00290594851 135.412103,9.39188169 152.117577,26.1014624 C168.823052,42.8110431 178.206459,65.472467 178.203556,89.1004792" id="path-4"></path>
    </defs>
    <g id="Screens" stroke="none" stroke-width="1" fill="none" fill-rule="evenodd">
        <g id="Inicio-" transform="translate(-137.000000, -336.000000)">
            <g id="Alumnos" transform="translate(165.000000, 362.000000)">
                <g id="Card-Copy">
                    <g id="Card">
                        <g id="Group-2">
                            <mask id="mask-2" fill="white">
                                <use xlink:href="#path-1"></use>
                            </mask>
                            <g id="Mask">
                                <use fill="black" fill-opacity="1" filter="url(#filter-3)" xlink:href="#path-1"></use>
                                <use fill="#FFFFFF" fill-rule="evenodd" xlink:href="#path-1"></use>
                            </g>
                            <text id="Alumnos" font-family="Montserrat-Medium, Montserrat" font-size="24" font-weight="400" letter-spacing="0.5" fill="#333E53">
                                <tspan x="118.47" y="264">Alumnos</tspan>
                            </text>
                        </g>
                    </g>
                </g>
                <g id="madre_Mesa-de-trabajo-1-Copy" transform="translate(85.000000, 30.000000)">
                    <g id="Group" transform="translate(0.643292, 0.667786)">
                        <mask id="mask-5" fill="white">
                            <use xlink:href="#path-4"></use>
                        </mask>
                        <use id="Mask" fill="#E4E9F2" fill-rule="nonzero" xlink:href="#path-4"></use>
                        <g id="icono-alumnos_Mesa-de-trabajo-1" mask="url(#mask-5)">
                            <g transform="translate(10.548418, 34.399572)" id="Group">
                                <g transform="translate(72.373057, 41.782383)">
                                    <path d="M76.7636509,23.1295337 C74.9827342,30.5089077 69.4045755,46.2692881 66.436381,46.821208 C64.3893503,47.1891547 60.0598804,42.6102633 56.9586289,39.0023423 C57.8138703,38.5164736 58.6194607,37.9482196 59.36389,37.3056995 C59.8299478,36.7466746 60.2412371,36.1442998 60.5921084,35.5068493 C62.7721961,37.8473987 65.1876923,40.2492725 65.6482742,39.8813259 C66.9071981,38.8592519 71.5334874,22.7513663 71.5334874,22.7513663 L76.7636509,23.1295337 Z" id="Path" fill="#F2C6A5" fill-rule="nonzero"></path>
                                    <path d="M78.3500996,22.3527575 C77.7257553,23.1806374 74.368625,23.4361559 74.368625,23.4361559 L71.0422001,23.4361559 C70.0960187,23.3683797 69.2108212,22.9446677 68.5652929,22.2505501 C67.3063691,20.9627369 65.9348585,15.5764071 65.9348585,15.5764071 C65.9348585,15.5764071 61.298334,9.19866563 60.7558709,8.63652495 C60.499681,8.15395212 60.3961803,7.60510218 60.4590514,7.06253105 C60.7763412,6.29597558 62.3320845,4.59933281 63.0587804,5.01838314 C64.6554643,5.89736674 67.1528418,9.8630137 68.1763571,12.3977571 L68.3196493,12.3262119 C67.7362455,10.8953084 65.1876923,4.64021577 64.8601674,4.03719214 C64.7401076,3.50463766 64.7865493,2.94812167 64.9932244,2.44275676 C65.5152172,1.78862943 67.4701315,0.572361417 68.0637704,1.14472283 C69.3738701,2.43253602 71.1343165,8.22769537 71.4413711,11.028178 L71.6256038,10.9668536 C71.3901953,9.33153524 70.5202073,3.55681738 70.36668,2.92313152 C70.3754891,2.4016076 70.5512383,1.89659264 70.8682025,1.48200724 C71.502782,0.99141174 73.6112236,0.316842927 74.0308649,1.00163248 C74.9008529,2.43253602 75.1874372,7.43047768 74.9213232,10.2002981 L75.4433161,10.2002981 C75.4433161,8.59564199 75.5149621,4.86507204 75.4433161,4.35403506 C75.5145527,3.90005804 75.7298112,3.48089509 76.0574253,3.15820853 C76.6715345,2.81070339 78.5855082,2.5040812 78.8516222,3.15820853 C79.4657314,4.58911207 78.9130331,8.50365533 78.2579833,10.7011143 L78.2579833,10.7011143 C78.2579833,10.7011143 80.1207812,20.093974 78.3398645,22.4243026" id="Path" fill="#F2C6A5" fill-rule="nonzero"></path>
                                    <path d="M68.5755281,22.332316 C66.5089226,21.6489828 64.3452647,21.3038373 62.168322,21.310242 C61.7589159,21.310242 61.2573934,20.4312584 61.1448067,20.0428703 C61.0670096,19.1789443 61.1362217,18.3081005 61.3495098,17.4672439 C61.4634021,16.8581537 62.049324,16.4558996 62.6596094,16.5678189 C64.164177,16.8539996 67.5520128,17.3343743 69.7218653,19.1741075" id="Path" fill="#F2C6A5" fill-rule="nonzero"></path>
                                    <path d="M67.5520128,12.9701185 C67.5520128,12.9701185 70.2643284,10.7113351 76.1290713,10.1389737" id="Path" stroke="#CEA676" stroke-width="0.5" stroke-linecap="round" stroke-linejoin="round"></path>
                                    <path d="M15.2708489,57.2361417 L14.5748585,57.8085031 L6.60167397,47.2811413 C6.01723087,46.5181746 6.15893637,45.4272094 6.91896373,44.8383846 L12.7018254,40.3310384 C11.8250981,39.8980745 11.0371137,39.3053186 10.3784456,38.5832919 C9.99489149,38.0729812 9.65263811,37.5329824 9.35493025,36.9684151 L0.992809884,44.1229328 C0.316420531,44.7025109 0.184209388,45.6970989 0.685755281,46.4328199 L10.6138541,61.068919 L10.4398565,61.2120094 C9.83324604,61.7066859 9.64681049,62.5529268 9.98950976,63.2561573 C11.3507852,66.0566399 14.9023834,72.9045355 17.5942288,73.7528568 C18.5563332,74.0492583 20.6647748,72.567251 22.2512236,71.1772305 C22.2827223,71.1406432 22.3169363,71.1064774 22.3535751,71.0750231 C22.9183679,70.5884136 23.4265024,70.0398526 23.8683778,69.4397047 C23.9809645,69.2557314 24.1140215,69.0308752 24.2470785,68.7753567 L24.2470785,68.7753567 C24.6564847,68.0088012 25.1068314,66.9765065 25.4343563,66.2201718 C25.6937277,65.6121112 25.5558703,64.9075993 25.0863611,64.4417631 L24.410841,63.7671943 C23.9355467,63.2893135 23.2119861,63.1586845 22.5992188,63.4401306 L21.7804065,63.8080772 L18.3311598,60.3023635" id="Path" fill="#F2C6A5" fill-rule="nonzero"></path>
                                    <path d="M18.3311598,60.3023635 C19.3546752,62.0194478 22.9983898,64.8914756 22.9983898,64.8914756" id="Path" stroke="#CEA676" stroke-width="0.5" stroke-linecap="round" stroke-linejoin="round"></path>
                                </g>
                                <g transform="translate(88.041451, 107.440415)" stroke-linecap="round" stroke-linejoin="round">
                                    <path d="M8.76435233,2.52373057 C8.3433663,2.81707352 7.81438471,2.89283911 7.33181347,2.72891192 C6.56580311,2.53398964 5.53119171,1.84663212 4.34735751,5.54648555e-12" id="Path" stroke="#CEA676" stroke-width="0.5"></path>
                                    <path d="M6.96373057,4.83202073 C6.96373057,4.83202073 5.18300518,6.36062176 2.49699482,2.31854922" id="Path" stroke="#CEA676" stroke-width="0.5"></path>
                                    <path d="M4.97409326,6.28880829 C4.97409326,6.28880829 3.19336788,7.81740933 0.507357513,3.76507772" id="Path" stroke="#CEA676" stroke-width="0.5"></path>
                                </g>
                                <g transform="translate(60.435233, 0.000000)">
                                    <path d="M67.3333961,167.327299 C64.7898257,167.888457 59.1939708,168.837326 55.6634951,167.439531 L55.6634951,167.439531 L51.4920396,116.190444 C49.9862459,116.302676 48.5211493,116.333284 47.137447,116.302676 L47.137447,116.445516 L42.9558172,167.796632 L42.9558172,167.796632 C39.3948187,169.194427 33.7989637,168.235356 31.2859162,167.674197 L36.7800283,109.303497 L60.7099388,107.86489 L61.8901554,107.599615 L67.3333961,167.327299 Z" id="Path" fill="#455A64" fill-rule="nonzero"></path>
                                    <path d="M51.4513424,116.159835 C52.818205,116.152587 54.1811488,116.012493 55.5210551,115.741517" id="Path" fill="#455A64" fill-rule="nonzero"></path>
                                    <path d="M32.3365803,104.831767 C32.7537259,103.403363 33.9312294,99.804612 33.1376354,98.927164 C32.1710787,97.8558612 28.6772519,97.9219502 26.9171012,99.2891367 L32.3365803,104.831767 Z" id="Path" fill="#F2C6A5" fill-rule="nonzero"></path>
                                    <polygon id="Path" stroke="#000000" stroke-width="0.5" stroke-linecap="round" stroke-linejoin="round" points="56.6504004 60.9520295 56.457089 60.7785804 56.6707489 60.9724352"></polygon>
                                    <path d="M70.7316062,73.4607653 L56.6707489,60.9724352 L56.6707489,60.9724352 L56.457089,60.7785804 C56.2555816,60.6351676 56.0120844,60.5633494 55.7652379,60.5745228 L53.1199246,60.7785804 C51.8888366,67.2472089 44.2276024,68.5021637 41.4907207,61.6662314 L39.4558643,61.8192746 C39.2997993,61.8285727 39.1473593,61.8702642 39.0081959,61.9417092 L23.2787565,74.4810537 L22.6276024,75.0014008 C23.5705488,77.6770215 25.5572963,79.8534885 28.1318888,81.0313053 L37.4413566,72.1445933 L37.5837965,72.0017529 L37.5837965,72.0935789 L35.182666,106.997645 C47.5037211,111.497117 58.0849741,107.222109 62.2462553,105.436604 L58.2681112,71.4201885 L58.2681112,71.4201885 L58.5428168,71.7364779 L66.0107395,80.1946688 C68.3342603,78.6740977 70.2128455,76.5613503 71.4539802,74.0729384 L70.7316062,73.4607653 Z" id="Path" fill="#0275D8" fill-rule="nonzero"></path>
                                    <path d="M62.4700895,107.303732 C58.4614225,109.038222 47.6461611,113.578506 35.0504004,108.915788 L35.182666,106.97724 C47.5037211,111.476711 58.0849741,107.201703 62.2462553,105.416198 L62.4700895,107.303732 Z" id="Path" fill="#95C11F" fill-rule="nonzero"></path>
                                    <path d="M51.8888366,60.8704064 C50.6373999,64.95156 45.9979275,66.9921368 43.0168629,61.5539996 L45.5299105,61.3601448 L45.5299105,56.2587028 C46.869522,56.3200874 48.2116175,56.2996439 49.5487518,56.1974855 L49.630146,61.084667 L51.8888366,60.8704064 Z" id="Path" fill="#F2C6A5" fill-rule="nonzero"></path>
                                    <path d="M53.1199246,60.7785804 C51.8888366,67.2472089 44.2377767,68.5021637 41.4907207,61.6662314 L43.0066886,61.5539996 C45.8961846,66.7778763 50.4033914,64.8291254 51.6141309,60.8908122 L53.1199246,60.7785804 Z" id="Path" fill="#95C11F" fill-rule="nonzero"></path>
                                    <path d="M73.2548281,75.7258056 C72.7352146,76.9308814 72.0503135,78.0572769 71.2199717,79.0723516 C70.1298922,80.2004391 68.8210652,81.0928046 67.3740933,81.6944928 L66.0209138,80.1742631 C68.3444346,78.6536919 70.2230198,76.5409446 71.4641545,74.0525326 L73.2548281,75.7258056 Z" id="Path" fill="#95C11F" fill-rule="nonzero"></path>
                                    <path d="M28.1318888,81.0108996 L26.3412153,82.7147812 C25.8217929,82.5360279 25.3181205,82.3141986 24.8354216,82.0515937 C23.9639084,81.6193862 23.1806104,81.0276659 22.5258596,80.3069006 C22.1445866,79.7974813 21.8043688,79.2584259 21.5084315,78.6948449 C20.9590203,77.7255709 20.4910033,76.746094 20.4910033,76.746094 L22.6988224,74.9809951 C23.6417688,77.6566158 25.6285163,79.8330827 28.2031088,81.0108996" id="Path" fill="#95C11F" fill-rule="nonzero"></path>
                                    <line x1="37.5024023" y1="71.9507385" x2="37.5024023" y2="66.5636157" id="Path" stroke="#034F87" stroke-width="0.5" stroke-linecap="round" stroke-linejoin="round"></line>
                                    <line x1="58.298634" y1="72.6241288" x2="58.298634" y2="67.2370061" id="Path" stroke="#034F87" stroke-width="0.5" stroke-linecap="round" stroke-linejoin="round"></line>
                                    <path d="M55.2768805,80.0212198 C55.2809871,82.6105013 53.7282369,84.9469296 51.3435439,85.9397118 C48.9588509,86.932494 46.2125457,86.3858248 44.3867775,84.5549239 C42.5610093,82.7240231 42.0158726,79.9699973 43.0058717,77.5786003 C43.9958708,75.1872034 46.3257492,73.630088 48.907772,73.6342062 C52.425329,73.6342062 55.2768805,76.4937741 55.2768805,80.0212198" id="Path" fill="#95C11F" fill-rule="nonzero"></path>
                                    <path d="M46.557513,78.0010488 C46.557513,78.5622074 46.2522845,79.0213372 45.8860104,79.0213372 C45.5197362,79.0213372 45.2145078,78.5724103 45.2145078,78.0010488 C45.2145078,77.4296872 45.5197362,76.9807603 45.8860104,76.9807603 C46.2522845,76.9807603 46.557513,77.4398901 46.557513,78.0010488" id="Path" fill="#0275D8" fill-rule="nonzero"></path>
                                    <path d="M52.590862,78.0010488 C52.590862,78.5622074 52.2958078,79.0213372 51.9193594,79.0213372 C51.542911,79.0213372 51.2478568,78.5724103 51.2478568,78.0010488 C51.2478568,77.4296872 51.5530853,76.9807603 51.9193594,76.9807603 C52.2856335,76.9807603 52.590862,77.4398901 52.590862,78.0010488" id="Path" fill="#0275D8" fill-rule="nonzero"></path>
                                    <path d="M46.8627414,81.8577389 C46.8627414,81.8577389 49.6810174,84.7961695 51.6751766,81.3169861" id="Path" fill="#95C11F" fill-rule="nonzero"></path>
                                    <path d="M46.8627414,81.8577389 C46.8627414,81.8577389 49.6810174,84.7961695 51.6751766,81.3169861" id="Path" stroke="#0275D8" stroke-width="0.5"></path>
                                    <path d="M70.5891663,22.1300556 L70.833349,32.2003021 C69.6660623,32.0513468 68.4818557,32.106581 67.3333961,32.3635483 L67.3333961,32.3635483 L67.1400848,32.3635483 L67.038342,32.3635483 C66.712765,28.2823947 66.2243994,25.1092977 66.2243994,25.1092977 C65.2069713,18.7529009 57.7899199,22.1402584 57.7899199,22.1402584 C55.337918,25.5990361 46.5982101,21.4668681 40.1070184,20.0996816 C33.6158267,18.7324952 30.4516251,21.4260566 29.1187942,24.0584006 C27.7859633,26.6907447 27.1348092,32.7920694 27.0839378,37.3221499 L22.3732454,35.1081241 C21.8950542,34.944878 12.3617522,20.8853037 22.3732454,18.6814807 C22.3732454,18.6814807 42.5081488,-5.39732568 62.5413095,1.2141432 C62.5413095,1.2141432 70.4975977,3.43837193 58.227414,11.0395206 C58.9396138,10.7844485 75.5847386,4.72393533 77.1617522,10.3661302 C77.1617522,10.3661302 79.10504,15.8756876 70.650212,22.0586354" id="Path" fill="#684642" fill-rule="nonzero"></path>
                                    <path d="M27.3688177,35.7100943 C27.3688177,35.7100943 27.6435233,33.8939809 26.6871408,33.9858069 C26.5548752,33.9858069 22.6174282,33.3124165 20.5825718,35.1285299 C19.432878,36.1488183 18.6291098,38.1281778 18.9343382,41.6889843 C19.3921809,47.08631 22.1087141,48.8310032 24.4487989,49.2697272 C25.9647937,49.4118876 27.4925504,49.3639039 28.9967028,49.1268868" id="Path" fill="#F2C6A5" fill-rule="nonzero"></path>
                                    <path d="M22.2308055,36.1896298 C22.2308055,36.1896298 24.7947244,36.9140346 24.8761187,40.8115363 C25.0520196,41.7920424 25.33522,42.7501032 25.7205841,43.6683438" id="Path" stroke="#000000" stroke-width="0.5" stroke-linecap="round" stroke-linejoin="round"></path>
                                    <path d="M66.5601507,46.6883975 C66.3633041,47.5634026 66.0192389,48.3983813 65.5427226,49.1574955 C62.9279322,52.9733741 56.5181347,55.7791672 49.4470089,56.2995143 C48.1508981,56.4068578 46.8490869,56.427309 45.5502591,56.3607316 C40.0906161,56.2872328 34.8079762,54.4078252 30.522845,51.0144204 C28.355723,49.1779012 27.4095148,44.0662563 27.2467263,41.3828978 C27.1958549,40.4544354 26.982195,38.7199451 27.0127179,37.4343817 C27.1042864,32.9349098 27.7147433,26.935614 29.0475742,24.1706324 C30.3804051,21.4056508 33.5242581,18.8753355 40.0357984,20.2119134 C46.5473387,21.5484912 56.202732,25.5786304 57.6780028,22.089244 C57.6780028,22.089244 65.1357513,18.834524 66.1531795,25.1501092 C66.1531795,25.1501092 66.641545,28.3130033 66.967122,32.4043598 L66.967122,32.4043598 C67.0688648,33.6899232 67.1502591,35.0775155 67.2011305,36.4855135 C67.4305512,39.9022005 67.1978221,43.3343075 66.5092793,46.6883975" id="Path" fill="#F2C6A5" fill-rule="nonzero"></path>
                                    <path d="M39.8526613,33.6083001 C39.6930312,34.3106307 39.0207188,34.7710014 38.3102981,34.6644443 C37.5998775,34.5578871 37.0913134,33.9203949 37.1435926,33.2019625 C37.1958719,32.4835302 37.7913357,31.9268287 38.5096561,31.9248243 C39.339505,32.026103 39.9362917,32.7741835 39.8526613,33.6083001" id="Path" fill="#000000" fill-rule="nonzero"></path>
                                    <path d="M57.9934056,33.6083001 C57.8337754,34.3106307 57.161463,34.7710014 56.4510424,34.6644443 C55.7406218,34.5578871 55.2320576,33.9203949 55.2843369,33.2019625 C55.3366161,32.4835302 55.9320799,31.9268287 56.6504004,31.9248243 C57.4802493,32.026103 58.077036,32.7741835 57.9934056,33.6083001" id="Path" fill="#000000" fill-rule="nonzero"></path>
                                    <path d="M48.836552,36.3426731 C48.836552,36.3426731 53.638813,35.2713702 52.6926048,40.8013334" id="Path" stroke="#000000" stroke-width="0.5" stroke-linecap="round" stroke-linejoin="round"></path>
                                    <path d="M39.6796985,46.2394706 C39.6987803,47.4562949 40.2583833,48.6010944 41.2058408,49.3615532 C45.6621762,47.5454398 50.9222798,49.8512916 53.0588789,50.9736088 C56.2434291,49.4533791 57.6373057,46.647586 56.3044748,44.5968063 C55.9231009,43.9761356 55.2404975,43.6066492 54.5138012,43.6275323 C54.5138012,44.1988938 54.615544,45.0049217 54.6562412,45.5966889 C54.684298,46.0458238 54.4156097,46.4603524 53.9949129,46.6169773 C51.9600565,47.4332081 45.7435704,49.371756 39.6796985,46.1986591" id="Path" fill="#FF74BE" fill-rule="nonzero"></path>
                                    <path d="M39.6796985,46.2394706 C39.6987803,47.4562949 40.2583833,48.6010944 41.2058408,49.3615532 C45.6621762,47.5454398 50.9222798,49.8512916 53.0588789,50.9736088 C56.2434291,49.4533791 57.6373057,46.647586 56.3044748,44.5968063 C55.9231009,43.9761356 55.2404975,43.6066492 54.5138012,43.6275323 C54.5138012,44.1988938 54.615544,45.0049217 54.6562412,45.5966889 C54.684298,46.0458238 54.4156097,46.4603524 53.9949129,46.6169773 C51.9600565,47.4740196 45.7842675,49.4125676 39.6796985,46.2394706 Z" id="Path" stroke="#000000" stroke-width="0.5" stroke-linecap="round" stroke-linejoin="round"></path>
                                    <path d="M39.6796985,46.2394706 C45.7842675,49.4125676 51.8888366,47.4740196 53.9949129,46.6577889 C54.4156097,46.501164 54.684298,46.0866353 54.6562412,45.6375005 C54.6562412,45.0457332 54.5544984,44.2397053 54.5138012,43.6683438 C53.0588789,43.5867208 51.074894,44.3519371 48.6737635,44.4335601 C46.2726331,44.5151832 41.2567122,42.6072439 40.056147,44.9437044 C39.8360869,45.3421583 39.7074781,45.7848404 39.6796985,46.2394706 Z" id="Path" stroke="#000000" stroke-width="0.5" stroke-linecap="round" stroke-linejoin="round"></path>
                                    <path d="M39.6796985,46.2394706 C45.7842675,49.4125676 51.8888366,47.4740196 53.9949129,46.6577889 C54.4156097,46.501164 54.684298,46.0866353 54.6562412,45.6375005 C54.6562412,45.0457332 54.5544984,44.2397053 54.5138012,43.6683438 C53.0588789,43.5867208 51.074894,44.3519371 48.6737635,44.4335601 C46.2726331,44.5151832 41.2567122,42.6072439 40.056147,44.9437044 C39.830195,45.3544187 39.7013969,45.8117157 39.6796985,46.2802822" id="Path" fill="#FFFFFF" fill-rule="nonzero"></path>
                                    <path d="M39.6796985,46.2394706 C45.7842675,49.4125676 51.8888366,47.4740196 53.9949129,46.6577889 C54.4156097,46.501164 54.684298,46.0866353 54.6562412,45.6375005 C54.6562412,45.0457332 54.5544984,44.2397053 54.5138012,43.6683438 C53.0588789,43.5867208 51.074894,44.3519371 48.6737635,44.4335601 C46.2726331,44.5151832 41.2567122,42.6072439 40.056147,44.9437044 C39.8360869,45.3421583 39.7074781,45.7848404 39.6796985,46.2394706 Z" id="Path" stroke="#000000" stroke-width="0.5" stroke-linecap="round" stroke-linejoin="round"></path>
                                    <path d="M41.2363636,49.3615532 C43.3738202,51.1979256 46.1261527,52.1531942 48.9382949,52.0347088 C50.3737111,51.959719 51.7820928,51.6135569 53.0894018,51.0144204 C50.9528026,49.8921031 45.692699,47.5862513 41.2363636,49.4023647" id="Path" fill="#F9487B" fill-rule="nonzero"></path>
                                    <path d="M41.2363636,49.3615532 C43.3738202,51.1979256 46.1261527,52.1531942 48.9382949,52.0347088 C50.3737111,51.959719 51.7820928,51.6135569 53.0894018,51.0144204 C50.9528026,49.8512916 45.692699,47.5454398 41.2363636,49.3615532 Z" id="Path" stroke="#000000" stroke-width="0.5" stroke-linecap="round" stroke-linejoin="round"></path>
                                    <path d="M74.3434762,39.3729296 C73.9059821,44.5457919 71.2911917,46.1986591 69.0528497,46.647586 C68.2008132,46.7421853 67.3409673,46.7421853 66.4889308,46.647586 C67.1774736,43.293496 67.4102026,39.8613889 67.1807819,36.4447019 C67.1299105,35.026501 67.038342,33.6389088 66.9365992,32.3635483 L67.0179934,32.3635483 L67.0179934,32.3635483 L67.221479,32.3635483 L67.221479,32.3635483 C68.3734699,32.1072349 69.5609036,32.0520107 70.7316062,32.2003021 C71.4807117,32.2875103 72.18803,32.5925123 72.7664626,33.0777502 C73.8754593,34.0980386 74.6385304,35.9549635 74.3536505,39.3729296" id="Path" fill="#F2C6A5" fill-rule="nonzero"></path>
                                    <path d="M71.2199717,34.3020963 C71.2199717,34.3020963 68.7679699,34.9958924 68.6865756,38.7403508 C68.5157532,39.6789057 68.2428075,40.5958443 67.8726331,41.4747238" id="Path" stroke="#000000" stroke-width="0.5" stroke-linecap="round" stroke-linejoin="round"></path>
                                    <path d="M38.0619878,24.3236756 C36.3628827,24.3236756 32.0896844,25.4868044 32.7103156,27.282512 C33.1376354,28.5272639 35.4675459,27.4457582 37.1259538,27.4763668 C39.3948187,27.4763668 41.9383891,28.1803658 42.406406,26.8131793 C43.0168629,25.0378775 40.9820066,24.3542843 38.0619878,24.3236756" id="Path" fill="#684642" fill-rule="nonzero"></path>
                                    <path d="M38.0619878,24.3236756 C36.3628827,24.3236756 32.0896844,25.4868044 32.7103156,27.282512 C33.1376354,28.5272639 35.4675459,27.4457582 37.1259538,27.4763668 C39.3948187,27.4763668 41.9383891,28.1803658 42.406406,26.8131793 C43.0168629,25.0378775 40.9820066,24.3542843 38.0619878,24.3236756 Z" id="Path" stroke="#000000" stroke-width="0.5"></path>
                                    <path d="M57.9934056,24.3236756 C56.2943005,24.3236756 52.0109279,25.4868044 52.6315591,27.282512 C53.0690532,28.5272639 55.3887894,27.4457582 57.0573716,27.4763668 C59.3160622,27.4763668 61.8596326,28.1803658 62.3276496,26.8131793 C62.9482807,25.0378775 60.9134244,24.3542843 57.9934056,24.3236756" id="Path" fill="#684642" fill-rule="nonzero"></path>
                                    <path d="M57.9934056,24.3236756 C56.2943005,24.3236756 52.0109279,25.4868044 52.6315591,27.282512 C53.0690532,28.5272639 55.3887894,27.4457582 57.0573716,27.4763668 C59.3160622,27.4763668 61.8596326,28.1803658 62.3276496,26.8131793 C62.9788036,25.0378775 60.9439472,24.3542843 57.9934056,24.3236756 Z" id="Path" stroke="#000000" stroke-width="0.5"></path>
                                    <path d="M23.9604333,30.7514926 C23.9604333,30.7514926 23.767122,37.8322942 26.9313236,40.2707834 C26.9313236,40.2707834 27.6231748,40.5462613 27.6231748,38.3832499 C27.6231748,38.3832499 27.5519548,32.1186791 27.9385775,27.5885985" id="Path" fill="#684642" fill-rule="nonzero"></path>
                                    <path d="M68.2389072,26.4152669 C68.4932642,35.5978625 67.221479,36.9140346 67.221479,36.5365279 L66.7839849,30.2515513" id="Path" fill="#684642" fill-rule="nonzero"></path>
                                    <path d="M5.51446067,127.32179 C4.2223269,126.597386 1.59736222,124.628229 1.54649081,123.454897 C1.48544512,122.016291 7.51879416,117.894325 7.51879416,117.894325" id="Path" fill="#F3D19F" fill-rule="nonzero"></path>
                                    <path d="M6.17578898,119.271715 C6.04306354,113.456046 5.47852468,107.658371 4.48685822,101.926812 C3.11333019,94.1420114 0.925859633,85.2552993 0.254357042,80.8782621 C0.193311352,80.4497409 1.46509656,76.7052825 3.01158738,79.6029016 C3.94762129,81.3577976 6.8879887,91.6116961 8.86179934,100.926929 C10.0630088,106.618738 10.8013745,112.398958 11.0696185,118.210615 C11.0696185,118.210615 12.8297692,119.230903 13.1044748,119.965511 C14.121903,122.903942 16.3907678,130.250018 15.0782854,132.739522 C14.6204428,133.627173 12.0260009,134.0761 9.99114461,134.178128 L9.84870466,134.178128 C9.11159534,134.225708 8.3715345,134.194928 7.64088554,134.086303 C7.42722562,134.086303 7.17286858,133.963868 6.89816298,133.872042 L6.89816298,133.872042 C6.07404616,133.61697 5.02609515,133.208854 4.2731983,132.851754 C3.66097376,132.606428 3.25846021,132.01307 3.25577014,131.35193 L3.25577014,130.403061 C3.25233089,130.181668 3.29748591,129.962224 3.3880358,129.76028 C3.56193373,129.357632 3.89292804,129.044147 4.30372115,128.893035 L5.13801225,128.576745 L5.46358926,128.24005 L5.46358926,127.464631 C5.46358926,127.464631 5.79934056,124.403766 5.1074894,123.740578" id="Path" fill="#F3D19F" fill-rule="nonzero"></path>
                                </g>
                                <g transform="translate(67.150259, 128.331606)" stroke-linecap="round" stroke-linejoin="round">
                                    <path d="M1.53139896,0.298445596 C1.93150259,2.42735751 1.65450777,3.63108808 1.23388601,4.27772021 C0.9928413,4.73028208 0.549915442,5.04965674 0.0335751295,5.14321244" id="Path" stroke="#CEA676" stroke-width="0.5"></path>
                                    <path d="M2.96766839,5.51129534 C2.96766839,5.51129534 5.34777202,5.30238342 4.4757513,0.626735751" id="Path" stroke="#CEA676" stroke-width="0.5"></path>
                                    <path d="M5.40932642,5.51129534 C5.40932642,5.51129534 7.78943005,5.30238342 6.90715026,0.626735751" id="Path" stroke="#CEA676" stroke-width="0.5"></path>
                                </g>
                                <g transform="translate(0.000000, 10.445596)">
                                    <path d="M65.6837819,120.02921 C65.6837819,120.02921 66.4308863,115.013522 65.3153469,113.348436" id="Path" stroke="#CEA676" stroke-width="0.5" stroke-linecap="round" stroke-linejoin="round"></path>
                                    <path d="M52.1949654,127.394407 L53.75058,151.604554 C55.7236331,152.189865 57.8531293,151.907451 59.6046036,150.828195 L57.5577422,126.444388 C55.8841673,127.165245 54.0663519,127.490374 52.2461369,127.394407" id="Path" fill="#F2C6A5" fill-rule="nonzero"></path>
                                    <path d="M59.4817919,75.6541559 L57.7931313,67.7986271 L60.085616,93.1835282 C47.415544,97.8416831 37.5701408,94.8077532 33.476418,93.0711604 L36.976551,67.1652815 L32.2585355,72.7325938 L26.8650557,66.7362409 L38.5935715,56.6640025 L38.7880233,56.4903432 C38.9913975,56.348157 39.235843,56.2763952 39.4839562,56.2860382 L42.1551103,56.4903432 C43.3832271,62.9668129 51.0896602,64.2232889 53.8426888,57.3790701 L59.7683525,58.2677971 C60.2698336,58.3495191 61.3342015,58.6866224 61.5695905,59.1360935 L66.686744,74.4589714 L59.4817919,75.6541559 Z" id="Path" fill="#A546A0" fill-rule="nonzero"></path>
                                    <path d="M5.61863451,48.0729756 C5.61863451,48.0729756 2.9577147,46.9595132 2.14920446,47.317047 C1.12577376,47.7665181 0.245623367,50.5757123 0.777807327,51.5563765 C1.59486669,52.3773459 2.79064672,52.6971871 3.90950525,52.3940272 C4.37004906,52.1080001 4.35981476,50.2692548 4.35981476,50.2692548" id="Path" fill="#F3D19F" fill-rule="nonzero"></path>
                                    <path d="M5.61863451,48.0729756 C5.61863451,48.0729756 2.9577147,46.9595132 2.14920446,47.317047 C1.12577376,47.7665181 0.245623367,50.5757123 0.777807327,51.5563765 C1.59486669,52.3773459 2.79064672,52.6971871 3.90950525,52.3940272 C4.37004906,52.1080001 4.35981476,50.2692548 4.35981476,50.2692548" id="Path" fill="#F2C6A5" fill-rule="nonzero"></path>
                                    <path d="M28.4513733,73.1718496 C28.6315039,73.3763 28.6315039,73.6824669 28.4513733,73.8869173 C25.7392819,77.2477352 19.3530744,84.7763758 16.804732,84.3064742 C13.8981888,83.7752811 8.50470907,68.6975693 6.57042505,61.1280676 C6.52151426,60.908555 6.3345224,60.7467971 6.10988124,60.7296728 L4.88176441,60.5866592 C4.1276256,60.4958049 3.53020398,59.9078943 3.42849282,59.156524 C3.23404099,57.6242362 4.03231693,54.5187996 4.81012426,52.5983322 L4.8715301,52.4859645 L9.50767114,45.9686337 L10.5311018,46.9186522 L10.5311018,47.2557555 C10.4082902,47.8278096 9.92727773,48.4611552 9.92727773,49.0638551 L10.5311018,47.2557555 C11.2986749,43.5782648 14.972791,40.9427298 17.0094181,40.0540029 C17.6234765,39.7884063 18.9846394,40.8916535 19.7419781,41.5760754 C19.869763,41.6921399 19.934509,41.8620239 19.9163171,42.0335159 C19.8981253,42.2050079 19.799172,42.3575914 19.6498693,42.4443718 C16.1087991,44.722373 13.1613187,49.3294516 12.8747581,49.7891379 C14.2256866,47.6337198 13.8981888,48.5428772 14.4303728,47.8278096 C16.1788088,45.7701017 18.3971399,44.1620033 20.8984548,43.1390089 C20.9721049,43.1185353 21.0499594,43.1185353 21.1236095,43.1390089 C22.5871154,43.2003004 23.3649227,45.5089474 23.6310147,46.4896116 C23.690494,46.741067 23.567146,47.0000402 23.3342198,47.1127419 C20.4174423,48.5224467 17.9407401,49.911721 15.6994268,53.3236151 C14.5634188,55.0499927 12.3835114,59.0237257 11.8922647,59.9533136 C11.837037,60.0803913 11.837037,60.2246308 11.8922647,60.3517085 C13.0078041,64.1722127 16.7740291,76.5326675 17.8281627,77.3805334 C18.4524554,77.891296 22.873676,73.0696971 25.1866294,70.4750231 C25.2893382,70.363618 25.4340883,70.3002271 25.5857673,70.3002271 C25.7374464,70.3002271 25.8821965,70.363618 25.9849053,70.4750231 L28.4513733,73.1718496 Z" id="Path" fill="#F2C6A5" fill-rule="nonzero"></path>
                                    <path d="M10.4799303,47.1229572 C10.1447159,46.3503392 9.43142076,45.807037 8.59633079,45.6882583 C7.76124083,45.5694795 6.92429533,45.8922837 6.38620753,46.5406878 C6.38620753,46.5406878 2.78373149,49.911721 3.19310376,51.2805647 C3.47653921,51.7963596 3.94427062,52.1866258 4.50309505,52.3735967 C5.13214331,52.7003572 5.84806649,52.8218375 6.54995644,52.7209153 C7.5222156,52.4042424 8.59681783,49.2272991 8.59681783,49.2272991" id="Path" fill="#F2C6A5" fill-rule="nonzero"></path>
                                    <path d="M10.4799303,47.1229572 C10.1447159,46.3503392 9.43142076,45.807037 8.59633079,45.6882583 C7.76124083,45.5694795 6.92429533,45.8922837 6.38620753,46.5406878 C6.38620753,46.5406878 2.78373149,49.911721 3.19310376,51.2805647 C3.47653921,51.7963596 3.94427062,52.1866258 4.50309505,52.3735967 C5.13214331,52.7003572 5.84806649,52.8218375 6.54995644,52.7209153 C7.5222156,52.4042424 8.59681783,49.2272991 8.59681783,49.2272991" id="Path" stroke="#CEA676" stroke-width="0.5"></path>
                                    <path d="M65.3460498,34.0780805 C64.9272667,37.1225093 64.0832634,40.0933712 62.8386446,42.9040581 C61.5598085,45.9785146 59.2422598,48.508614 56.2886882,50.0547345 C54.2814291,50.9869791 52.095903,51.4748449 49.882012,51.4848698 C49.4419368,51.4848698 49.0120959,51.4848698 48.6027236,51.4848698 C47.6714017,51.4848698 46.8014856,51.4848698 45.9725068,51.3418562 C44.8391662,51.2366163 43.7164256,51.0384526 42.6156541,50.7493716 C40.3522933,50.2004166 38.249246,49.1298595 36.4750699,47.6235045 L36.1271035,47.2864012 C35.9188713,47.0923607 35.7207478,46.8877869 35.5335137,46.6734861 L35.4516392,46.5815488 C35.3492962,46.4691811 35.2469531,46.346598 35.1548443,46.224015 L34.8887523,45.8766965 L34.7250034,45.6417457 L34.5612545,45.3965796 C34.4793801,45.2739966 34.3975056,45.1616288 34.3258655,45.0390458 C33.9768976,44.4582434 33.6757037,43.8501445 33.4252465,43.220731 C33.4252465,43.0981479 33.3229034,42.9755649 33.2819662,42.8529819 C33.2410289,42.7303989 33.1693888,42.5363091 33.1182172,42.372865 C33.0670457,42.209421 33.0158742,42.0664075 32.974937,41.9131787 L32.8521253,41.4637076 L32.7497822,40.993806 C32.7449215,40.9019328 32.7449215,40.8098675 32.7497822,40.7179942 C32.7459244,40.649947 32.7459244,40.5817364 32.7497822,40.5136892 C32.7497822,40.4421824 32.7497822,40.3604604 32.7497822,40.2889536 C32.7497822,40.2174469 32.7497822,40.0540029 32.6986107,39.9314198 C32.6474391,39.8088368 32.6986107,39.6862538 32.6986107,39.5636708 L32.6986107,39.2367827 C32.6731944,38.7672235 32.6731944,38.2966371 32.6986107,37.8270779 C32.7497822,35.9168258 33.7220414,32.6581604 33.7220414,31.2075947 C33.7220414,30.8398456 32.9988411,27.4568213 31.5524405,21.0585219 L30.8155241,19.2966109 C31.2719096,19.2880069 34.3951068,19.1371369 34.7250034,18.9799381 C35.9812764,18.387857 36.3221581,15.7136155 37.4268605,14.8727332 C37.4268605,14.8727332 39.2997386,21.3396613 40.5380898,22.1058052 C41.0202793,22.3851249 42.6371705,16.0352257 42.9431519,15.969671 C44.9739872,15.4561339 47.5825275,13.8459541 48.867919,12.1947169 C48.867919,12.1947169 48.3059287,22.6676441 51.2534091,23.0660389 C52.3056712,23.0408884 49.3145402,15.2597449 50.2930866,14.8727332 C53.2234435,13.7595574 62.0595163,13.7401404 62.8386446,10.7087343 C62.8386446,10.7087343 63.053565,28.9193782 65.0901921,33.3017213 C65.1881229,33.5301753 65.3009418,33.7519806 65.4279243,33.9657127 C65.4925227,34.0860807 65.6186211,34.1608122 65.7554221,34.1598025 L65.8372965,34.1598025 L65.8987024,34.1598025" id="Path" fill="#F2C6A5" fill-rule="nonzero"></path>
                                    <path d="M36.4750699,47.603074 C38.2466757,49.1132712 40.3506866,50.1843188 42.6156541,50.7289411 C40.249238,51.0844107 37.8347958,50.948786 35.5232794,50.3305463 C34.2426671,49.9491829 33.064077,49.2859331 32.0743179,48.3896484 C31.0982582,47.4899871 30.4139615,46.3195994 30.109331,45.0288305 C29.7461929,43.5388726 29.6457612,41.9971782 29.8125361,40.4728282 C30.7525494,40.8025672 31.7432492,40.9650714 32.7395479,40.952945 L32.8316567,41.3819856 L32.9544683,41.8416719 C32.9544683,41.9846855 33.0465771,42.1379142 33.0977486,42.291143 C33.1489202,42.4443718 33.2000917,42.6180311 33.2614975,42.7712599 C33.3229034,42.9244886 33.3536063,43.0164259 33.4047778,43.1390089 C33.6531799,43.7693332 33.9544562,44.3775984 34.3053969,44.9573238 C34.3872713,45.0799068 34.4589115,45.2024898 34.5407859,45.3148576 L34.7045348,45.5600236 L34.8682837,45.7949744 L35.1343757,46.142293 C35.2264845,46.264876 35.3288275,46.3874591 35.4311706,46.4998268 L35.5130451,46.5917641 C35.6976549,46.8084552 35.8959204,47.0131756 36.1066349,47.2046792 C36.2192123,47.3272622 36.3420239,47.4294148 36.4546013,47.5417825" id="Path" fill="#3F4E66" fill-rule="nonzero"></path>
                                    <path d="M69.6649273,47.0923114 C68.3037645,49.1353618 66.8607272,50.5450666 65.6837819,50.9026004 C64.996507,51.0978501 64.2891977,51.2143731 63.5755147,51.249919 C61.0861791,51.4296183 58.5895067,51.0201143 56.2886882,50.0547345 C60.1674905,48.1546976 63.8313724,43.8336461 65.3562841,34.1189415 L65.2948783,34.1189415 L65.2130038,34.1189415 C65.0762029,34.1199512 64.9501045,34.0452197 64.885506,33.9248517 C62.8386446,30.4312355 59.6967124,15.8029947 59.6967124,15.8029947 C59.039369,18.1991026 57.5103383,20.2643681 55.4085378,21.5950426 C54.8928727,21.9147396 54.3480196,22.1849487 53.781283,22.4020475 C52.8027366,22.7890593 51.763253,23.0000274 50.7109909,23.0251779 C47.7737448,22.6369983 47.6406988,18.9390771 47.6406988,18.9390771 C46.3553073,20.5903143 44.5543806,21.7659274 42.5235453,22.2794645 C42.2175105,22.3446774 41.9051274,22.3755149 41.5922234,22.3714017 C41.0406343,22.452288 40.477861,22.3442639 39.9956715,22.0649442 C38.7573204,21.2579393 39.2895043,19.2557499 39.2895043,19.2557499 C38.181939,20.1092796 36.9883198,20.8453437 35.7279655,21.4520291 C35.3980689,21.6092278 35.0557699,21.7390592 34.7045348,21.8402086 C34.2725083,21.9872949 33.8202262,22.0665554 33.3638406,22.0751594 L33.1693888,22.0751594 L33.1693888,22.422478 C33.1693888,22.6165678 33.1693888,22.8208728 33.1693888,23.0456084 L33.1693888,23.3827117 C33.1693888,23.7504608 33.1693888,24.1386403 33.1693888,24.5676809 L33.1693888,25.2929638 C33.1693888,25.4564078 33.1693888,25.6198519 33.1693888,25.7935111 C33.1693888,25.9671704 33.1693888,25.9569552 33.1693888,26.0386772 C33.1640532,26.123721 33.1640532,26.2090147 33.1693888,26.2940585 C33.0465771,26.2940585 30.2833142,24.93543 28.0522353,26.3655653 C27.3665368,25.058013 24.4804622,18.9492923 26.7729469,13.4637021 C30.6517493,4.26997531 42.8408088,0.0817220155 49.1042047,0.796789651 C55.6950984,1.56293355 67.0449447,7.44691866 70.7804668,12.5443294 C74.5057545,17.3659283 75.4166078,24.6085419 74.1373195,35.4060632 C73.5353312,39.5848734 72.0074677,43.5771421 69.6649273,47.0923114 Z" id="Path" fill="#3F4E66" fill-rule="nonzero"></path>
                                    <path d="M35.5130451,50.3305463 C35.0226522,50.8658973 34.3857162,51.2459267 33.6811041,51.4235783 C33.4943705,51.4494521 33.3049509,51.4494521 33.1182172,51.4235783 C31.2745418,51.0869597 29.7477534,49.8001586 29.1063689,48.0423299 C29.0714696,47.884461 29.0509176,47.7237701 29.0449631,47.562213 C29.0035551,46.597862 29.3757859,45.6615867 30.0683938,44.9879695 C30.3793553,46.2762066 31.0626437,47.4448697 32.0333807,48.3487874 C33.0231398,49.2450721 34.2017299,49.9083219 35.4823422,50.2896853" id="Path" fill="#FF74BE" fill-rule="nonzero"></path>
                                    <path d="M33.1182172,51.4644393 C33.0465771,53.844593 32.5450961,63.0996112 28.6560594,62.7012164 C27.8270806,62.6194944 27.4688798,61.6796912 27.1106791,61.0463456 C26.9673988,60.82161 26.9264616,60.5049372 26.7627126,60.453861 C26.5989637,60.4027847 26.1895915,60.5662287 25.8723279,60.6683813 C24.8709853,61.1759099 23.6799774,61.1412849 22.7099271,60.576444 C21.840011,60.0146051 22.0242285,58.9522189 22.1265716,58.2780123 C22.1777431,57.98177 22.3619607,57.5629447 22.2800862,57.4812227 C22.1982117,57.3995006 21.7683709,57.4812227 21.5636847,57.4812227 C20.9291577,57.4812227 20.1513504,57.9204785 19.3940116,56.3473297 C17.6132422,52.6902695 26.6808382,48.614384 29.0449631,47.6235045 C29.0509176,47.7850616 29.0714696,47.9457525 29.1063689,48.1036214 C29.7477534,49.8614501 31.2745418,51.1482512 33.1182172,51.4848698" id="Path" fill="#3F4E66" fill-rule="nonzero"></path>
                                    <path d="M21.307827,57.4812227 C22.0782089,57.3531227 22.8329014,57.1442566 23.5593746,56.8580923 C23.9178969,56.7292582 24.2611102,56.5613968 24.5828053,56.3575449 C24.8898345,56.1430247 25.1149892,55.8672129 24.941006,55.6322621 C24.7670228,55.3973113 24.4599936,55.509679 24.1529644,55.6322621 C23.8176748,55.7991791 23.5076019,56.0123872 23.2318767,56.2656077 C22.6543446,56.777837 22.2652336,57.4683019 22.1265716,58.2269361 C22.1164012,57.4102981 22.4332256,56.6233891 23.006722,56.0408721 C23.3006126,55.7334059 23.647209,55.4808616 24.0301527,55.2951587 C24.2020484,55.2312788 24.3805468,55.1867373 24.5623367,55.1623605 C24.6903101,55.1330667 24.8232668,55.1330667 24.9512403,55.1623605 C25.0263159,55.1994361 25.0953283,55.2476549 25.1559265,55.305374 L25.2480352,55.4586028 C25.3858639,55.688139 25.3858639,55.9747799 25.2480352,56.2043162 C25.1251485,56.3896492 24.960392,56.5436022 24.7670228,56.6537873 C24.4206518,56.8722471 24.0450933,57.0407618 23.6514833,57.1543346 C22.8891984,57.3882355 22.0950141,57.5019715 21.2975927,57.4914379" id="Path" fill="#000000" fill-rule="nonzero"></path>
                                    <path d="M25.974671,60.5662287 C26.3526538,60.4452524 26.7012141,60.246943 26.9981017,59.9839594 C27.2956545,59.7448126 27.5697983,59.47802 27.8168463,59.1871697 C28.0625917,58.9057148 28.2754687,58.5972751 28.4513733,58.2677971 C28.6048879,57.940909 28.6355908,57.5935904 28.4513733,57.4097159 C28.3374977,57.4096813 28.2264994,57.4454205 28.1341098,57.5118684 C27.9849784,57.6122394 27.8446102,57.7250083 27.7145032,57.8489717 C27.4620134,58.1213764 27.2484815,58.4273274 27.0799762,58.7581292 C26.6963282,59.4255776 26.6963282,60.2460989 27.0799762,60.9135473 C26.8127943,60.609994 26.6449582,60.2321749 26.5989637,59.8307306 C26.5656295,59.4224876 26.6323684,59.0122817 26.7934156,58.6355461 C26.9449024,58.2566756 27.1671817,57.9100107 27.4484112,57.6140209 C27.5892744,57.4565035 27.7511207,57.3190185 27.9294236,57.2054109 C28.1416675,57.0176344 28.449846,56.9848232 28.6969967,57.1236888 C28.8813866,57.2986925 28.9819573,57.5440744 28.9733229,57.7978955 C28.9571345,58.0195765 28.8943673,58.235372 28.7891054,58.4312411 C28.2010723,59.4937309 27.2023079,60.2691013 26.0258425,60.576444" id="Path" fill="#000000" fill-rule="nonzero"></path>
                                    <path d="M70.2585171,49.4622499 C70.2344706,49.6251423 70.1968135,49.7857413 70.1459397,49.9423667 C69.341172,51.6272204 67.7007734,52.7589715 65.8372965,52.915005 C65.646756,52.9060079 65.4578852,52.8751593 65.2744096,52.8230678 C64.5910681,52.5800808 63.9959512,52.1390203 63.5652804,51.5563765 C63.5652804,51.454224 63.5652804,51.3520715 63.5652804,51.249919 C64.2789634,51.2143731 64.9862727,51.0978501 65.6735476,50.9026004 C66.8504929,50.5450666 68.2935302,49.1149313 69.654693,47.0923114 C70.154947,47.7746457 70.367986,48.6252149 70.2482828,49.4622499" id="Path" fill="#FF74BE" fill-rule="nonzero"></path>
                                    <path d="M65.8372965,52.915005 C65.6735476,55.2951587 65.2948783,64.5603923 69.2043835,64.519666 C69.9924251,64.519666 70.6064836,63.6205891 71.0056215,63.0587502 C71.1796048,62.7931537 71.1386675,62.4560504 71.322885,62.4151893 C71.5071026,62.3743283 71.9778807,62.6705706 72.3463157,62.8442299 C73.2460868,63.3881178 74.3621831,63.4343747 75.3040304,62.9668129 C76.255821,62.4662656 76.1330093,61.3323726 76.0920721,60.658166 C76.0920721,60.4027847 76.0306662,59.9737441 76.0920721,59.9022374 C76.3172268,59.7183628 76.6140217,59.9635289 76.8596451,60.0043899 C77.4634692,60.1065424 78.1594021,60.453861 78.9986153,59.0645867 C81.1171168,55.5914011 72.489596,50.6676496 70.2278142,49.4622499 C70.2048962,49.6220156 70.1672096,49.7793207 70.1152368,49.9321515 C69.3115833,51.6195708 67.671576,52.7549402 65.8065936,52.915005" id="Path" fill="#3F4E66" fill-rule="nonzero"></path>
                                    <path d="M77.0131597,60.0248204 C76.216562,59.9651713 75.4351827,59.7753667 74.7002063,59.4629815 C74.3324336,59.3153499 73.9877799,59.1158229 73.6767756,58.8704969 C73.4918695,58.7414229 73.3409039,58.5697125 73.2367004,58.3699496 C73.0983906,58.1442177 73.0983906,57.8601833 73.2367004,57.6344514 L73.3492778,57.4812227 C73.4106837,57.4812227 73.4925581,57.3688549 73.5641983,57.3688549 C73.6885453,57.3381351 73.8185206,57.3381351 73.9428676,57.3688549 C74.1539137,57.4293764 74.3541917,57.5224357 74.5364574,57.6446667 C74.8859729,57.8658966 75.1913443,58.1499175 75.4370764,58.4823173 C75.9509765,59.1164929 76.1903913,59.9289877 76.1023064,60.739888 C76.0393022,59.9775421 75.7222212,59.2582453 75.2016874,58.6968376 C74.9514638,58.4180488 74.6618579,58.1771599 74.3420056,57.98177 C74.0452107,57.7978955 73.6153698,57.6344514 73.5641983,57.8694022 C73.5130267,58.104353 73.5641983,58.3903801 73.8507589,58.6253309 C74.148839,58.8601032 74.4713718,59.0621671 74.8127837,59.2280307 C75.5084591,59.5791091 76.2390867,59.8564361 76.9926911,60.0554661" id="Path" fill="#000000" fill-rule="nonzero"></path>
                                    <path d="M72.0699895,62.6603554 C71.3084919,62.4123633 70.6431987,61.9339585 70.1664084,61.2915116 C69.8964223,60.9888965 69.6785499,60.6437112 69.521647,60.2699864 C69.4413835,60.0651385 69.4031026,59.8463016 69.4090697,59.6264256 C69.4167308,59.3739193 69.5367993,59.1379745 69.7365675,58.9828647 C69.9986422,58.8623825 70.3086511,58.9242688 70.5041405,59.1360935 C70.667761,59.2651307 70.8124494,59.4164268 70.9339814,59.5855646 C71.1870062,59.9087024 71.3778564,60.2758379 71.4968683,60.6683813 C71.6212188,61.0612095 71.6492966,61.4780896 71.5787427,61.8839962 C71.4887809,62.2742058 71.2859265,62.6294281 70.9953872,62.9055214 C71.4398682,62.2778878 71.5214713,61.463376 71.2103077,60.7603185 C71.0773228,60.4134625 70.8908563,60.089477 70.6576551,59.8000848 C70.5500103,59.6568257 70.4225122,59.5295649 70.2789857,59.4221205 C70.1459397,59.2995375 69.9514879,59.2688917 69.9719565,59.2893223 C69.7365675,59.442551 69.7365675,59.8000848 69.8593792,60.1371882 C69.9977905,60.4825277 70.1800896,60.8086818 70.4017974,61.1076371 C70.6194001,61.4227972 70.8661011,61.7169192 71.1386675,61.9861488 C71.4010011,62.2705778 71.7176437,62.4998031 72.0699895,62.6603554" id="Path" fill="#000000" fill-rule="nonzero"></path>
                                    <path d="M56.4012655,41.8008109 C56.3665861,42.9958109 55.8093316,44.1157108 54.8763538,44.8653865 C50.3937274,43.0470717 45.0923564,45.3557186 42.9431519,46.4793963 C39.7398138,44.9573238 38.3377138,42.1583448 39.678408,40.1050791 C40.0596959,39.4747838 40.7420026,39.0878313 41.479646,39.0835539 C41.479646,39.6658233 41.3773029,40.4728282 41.3363657,41.0550975 C41.3096041,41.5074536 41.5846023,41.9233417 42.01183,42.0766227 C44.0586914,42.9040581 50.3118529,44.844956 56.4012655,41.6680127" id="Path" fill="#FF74BE" fill-rule="nonzero"></path>
                                    <path d="M56.4012655,41.8008109 C56.3665861,42.9958109 55.8093316,44.1157108 54.8763538,44.8653865 C50.3937274,43.0470717 45.0923564,45.3557186 42.9431519,46.4793963 C39.7398138,44.9573238 38.3377138,42.1583448 39.678408,40.1050791 C40.0596959,39.4747838 40.7420026,39.0878313 41.479646,39.0835539 C41.479646,39.6658233 41.3773029,40.4728282 41.3363657,41.0550975 C41.3096041,41.5074536 41.5846023,41.9233417 42.01183,42.0766227 C44.07916,43.0368564 50.3118529,44.9471085 56.4012655,41.8008109 Z" id="Path" stroke="#000000" stroke-width="0.5" stroke-linecap="round" stroke-linejoin="round"></path>
                                    <path d="M56.4012655,41.8008109 C50.2606814,44.9777543 44.1200972,43.0368564 42.01183,42.209421 C41.5846023,42.05614 41.3096041,41.6402519 41.3363657,41.1878958 C41.3363657,40.6056265 41.4489431,39.7986216 41.479646,39.2163522 C42.9431519,39.1448454 44.9490761,39.9007741 47.3643725,39.9927113 C49.7796689,40.0846486 54.8251823,38.153966 56.0328305,40.5034739 C56.2472334,40.9046226 56.3728749,41.3470325 56.4012655,41.8008109 Z" id="Path" stroke="#000000" stroke-width="0.5" stroke-linecap="round" stroke-linejoin="round"></path>
                                    <path d="M56.4012655,41.8008109 C50.2606814,44.9777543 44.1200972,43.0368564 42.01183,42.209421 C41.5846023,42.05614 41.3096041,41.6402519 41.3363657,41.1878958 C41.3363657,40.6056265 41.4489431,39.7986216 41.479646,39.2163522 C42.9431519,39.1448454 44.9490761,39.9007741 47.3643725,39.9927113 C49.7796689,40.0846486 54.8251823,38.153966 56.0328305,40.5034739 C56.2529452,40.9169874 56.3787584,41.3739552 56.4012655,41.8416719" id="Path" fill="#FFFFFF" fill-rule="nonzero"></path>
                                    <path d="M56.4012655,41.8008109 C50.2606814,44.9777543 44.1200972,43.0368564 42.01183,42.209421 C41.5846023,42.05614 41.3096041,41.6402519 41.3363657,41.1878958 C41.3363657,40.6056265 41.4489431,39.7986216 41.479646,39.2163522 C42.9431519,39.1448454 44.9490761,39.9007741 47.3643725,39.9927113 C49.7796689,40.0846486 54.8251823,38.153966 56.0328305,40.5034739 C56.2472334,40.9046226 56.3728749,41.3470325 56.4012655,41.8008109 Z" id="Path" stroke="#000000" stroke-width="0.5" stroke-linecap="round" stroke-linejoin="round"></path>
                                    <path d="M54.8763538,44.9471085 C52.7242156,46.7831396 49.9580191,47.7423934 47.1289834,47.6337198 C45.68306,47.550247 44.2645406,47.2040665 42.9431519,46.6121946 C45.0923564,45.4783016 50.3937274,43.1696547 54.8763538,44.9879695" id="Path" fill="#F9487B" fill-rule="nonzero"></path>
                                    <path d="M54.8763538,44.9471085 C52.7242156,46.7831396 49.9580191,47.7423934 47.1289834,47.6337198 C45.68306,47.550247 44.2645406,47.2040665 42.9431519,46.6121946 C45.0923564,45.4067949 50.3937274,43.0981479 54.8763538,44.9471085 Z" id="Path" stroke="#000000" stroke-width="0.5" stroke-linecap="round" stroke-linejoin="round"></path>
                                    <path d="M38.644743,31.1156574 C37.6827181,31.0032896 35.3288275,31.5753437 35.7893714,32.882896 C36.1066349,33.7818382 37.3654546,33.1484925 38.3070109,33.2812908 C39.5965335,33.4447348 41.080508,34.05765 41.2647256,33.128062 C41.5001146,31.9124471 40.312935,31.3097472 38.644743,31.0850116" id="Path" fill="#F0B094" fill-rule="nonzero"></path>
                                    <path d="M56.3705626,32.3823486 C55.4085378,32.2699809 53.0546472,32.842035 53.515191,34.139372 C53.8324545,35.0485294 55.0912742,34.4151838 56.0328305,34.5479821 C57.3223532,34.7114261 58.8063277,35.3243412 58.9905452,34.3947533 C59.2259342,33.1791383 58.0387546,32.5764384 56.3705626,32.3517029" id="Path" fill="#F0B094" fill-rule="nonzero"></path>
                                    <path d="M42.5235453,28.0919428 C42.5235453,29.113468 41.9708928,29.9306882 41.2954285,29.9306882 C40.6199642,29.9306882 40.0570774,29.113468 40.0570774,28.0919428 C40.0570774,27.0704176 40.6097299,26.2634127 41.2954285,26.2634127 C41.9811271,26.2634127 42.5235453,27.0806329 42.5235453,28.0919428" id="Path" fill="#000000" fill-rule="nonzero"></path>
                                    <path d="M56.1044706,28.0919428 C56.1044706,29.113468 55.5518181,29.9306882 54.8763538,29.9306882 C54.2008895,29.9306882 53.6380027,29.113468 53.6380027,28.0919428 C53.6380027,27.0704176 54.1906552,26.2634127 54.8763538,26.2634127 C55.5620524,26.2634127 56.1044706,27.0806329 56.1044706,28.0919428" id="Path" fill="#000000" fill-rule="nonzero"></path>
                                    <path d="M38.8903664,23.4337879 C38.8903664,23.4337879 41.1214453,19.3476872 43.3218213,23.4337879" id="Path" stroke="#000000" stroke-width="0.5" stroke-linecap="round" stroke-linejoin="round"></path>
                                    <path d="M53.0137099,23.4337879 C53.0137099,23.4337879 55.2345545,19.3476872 57.4451648,23.4337879" id="Path" stroke="#000000" stroke-width="0.5" stroke-linecap="round" stroke-linejoin="round"></path>
                                    <path d="M33.4047778,28.6639969 C33.4047778,28.4903377 33.4047778,28.3268936 33.4047778,28.1430191 C33.4047778,27.9591446 33.4047778,27.9284988 33.4047778,27.8263463 L33.4047778,27.2849379 C33.4047778,27.1930007 33.4047778,27.1010634 33.4047778,27.0091261 L33.4047778,26.437072 C33.4098567,26.3758853 33.4098567,26.3143842 33.4047778,26.2531975 L33.4047778,26.2531975 C33.2819662,26.2531975 30.5187033,24.894569 28.2876244,26.3247042 C27.0185703,27.1623549 25.9439681,28.9193782 25.6983447,32.3721334 C25.3299097,37.6125576 27.673566,39.6760385 29.8637076,40.4728282 C30.8037209,40.8025672 31.7944207,40.9650714 32.7907194,40.952945 C32.7858587,40.8610718 32.7858587,40.7690065 32.7907194,40.6771332 C32.7868616,40.609086 32.7868616,40.5408754 32.7907194,40.4728282 C32.7907194,40.3911062 32.7907194,40.3195994 32.7907194,40.2480926 C32.7907194,40.1765859 32.7907194,40.0131418 32.7395479,39.8905588 C32.6883764,39.7679758 32.7395479,39.6453928 32.7395479,39.5228098 L32.7395479,39.1959217 C32.7139916,38.7263663 32.7139916,38.2557723 32.7395479,37.7862169 C32.7907194,35.8759648 33.7629786,32.6172994 33.7629786,31.1667337 C33.7629786,30.6151101 33.7629786,29.7161679 33.7629786,28.6639969" id="Path" fill="#F2C6A5" fill-rule="nonzero"></path>
                                    <path d="M29.5976157,27.7957005 C29.5976157,27.7957005 31.9515063,28.8785172 31.4397909,32.6275147 C31.4611502,33.5958742 31.5916054,34.5587601 31.8286946,35.4980005" id="Path" stroke="#000000" stroke-width="0.5" stroke-linecap="round" stroke-linejoin="round"></path>
                                    <path d="M31.5523683,37.990522 C31.5523395,38.2889266 31.3716793,38.5577395 31.0950713,38.6709561 C30.8184633,38.7841727 30.5007356,38.7193515 30.2908215,38.5068772 C30.0809074,38.2944029 30.0204152,37.9763913 30.1377003,37.7019087 C30.2549854,37.4274261 30.5268001,37.2508793 30.8257325,37.2550238 C31.0202347,37.2550046 31.2066254,37.3328187 31.3431941,37.4710531 C31.4797628,37.6092874 31.5551078,37.7964012 31.5523683,37.990522" id="Path" fill="#B3337F" fill-rule="nonzero"></path>
                                    <path d="M71.220542,29.2666968 C70.1297019,28.2142841 68.6394058,27.6787764 67.1268192,27.7957005 C66.8688565,29.9002954 66.331978,31.961368 65.5302673,33.9248517 C65.4996965,34.0187752 65.4282239,34.0938695 65.3358155,34.1291567 C64.9156447,37.155665 64.0751794,40.1090073 62.8386446,42.9040581 C62.8386446,42.9755649 62.9102847,43.0164259 62.9000504,43.0266412 C63.900767,43.2896134 64.9398213,43.37604 65.9703425,43.2820225 C68.3958733,43.0266412 71.3126507,41.5249991 72.2746756,36.1313461 C72.9092026,32.5560079 72.2746756,30.5027423 71.1898391,29.3279883" id="Path" fill="#F2C6A5" fill-rule="nonzero"></path>
                                    <path d="M69.4500069,30.410805 C69.4500069,30.410805 66.7788528,30.9113524 66.3797148,34.8646549 C66.1067363,35.8387293 65.7292955,36.7805743 65.253941,37.6738491" id="Path" stroke="#000000" stroke-width="0.5" stroke-linecap="round" stroke-linejoin="round"></path>
                                    <path d="M66.3490119,40.6464875 C66.2434319,41.0604014 65.8227113,41.3114509 65.4074556,41.2083263 C64.9995329,41.1012312 64.7546156,40.6856599 64.8590189,40.2777484 C64.9634222,39.8698369 65.3780238,39.6224388 65.7874253,39.7237563 C66.1968268,39.8250737 66.4476164,40.2371409 66.3490119,40.6464875" id="Path" fill="#B3337F" fill-rule="nonzero"></path>
                                    <path d="M52.3280114,57.2667024 C49.4317025,62.4969114 44.8979045,60.5457982 43.6697877,56.602711 L45.8701637,56.7763703 L45.9622725,51.3214257 C46.7912513,51.413363 47.6611674,51.454224 48.5924893,51.4644393 L49.8717777,51.4644393 L49.8717777,57.0828278 L52.3280114,57.2667024 Z" id="Path" fill="#EABF8F" fill-rule="nonzero"></path>
                                    <path d="M50.3937274,72.1298939 L54.41581,71.4352568 C54.672808,71.4006403 54.9255731,71.523077 55.0573501,71.746012 C55.1891271,71.9689469 55.1742671,72.2489884 55.0196341,72.456782 L51.6320785,76.5428828 C51.50766,76.6938216 51.4587091,76.8930192 51.4990325,77.0842911 L52.5224632,81.8445985 C52.5857853,82.1099273 52.4718107,82.3859197 52.2395649,82.529644 C52.0073191,82.6733683 51.708972,82.6525393 51.4990325,82.4779442 L47.9681966,79.6789651 C47.765175,79.5221857 47.4891157,79.4982252 47.2620294,79.6176736 L42.9840891,81.9263205 C42.750582,82.048998 42.465751,82.0172717 42.2650819,81.8462329 C42.0644129,81.6751942 41.9884141,81.3993698 42.0732358,81.1499614 L43.6186162,76.7982641 C43.6905483,76.6027155 43.6598256,76.3842235 43.5367417,76.2159947 L40.6506672,72.2014007 C40.4980251,71.9951021 40.4826679,71.7180349 40.6115788,71.4961885 C40.7404897,71.2743422 40.9890594,71.1500675 41.244257,71.1798755 L44.979779,71.6395618 C45.2700646,71.6782653 45.5491785,71.5136415 45.6552432,71.241167 L47.1903893,67.4002323 C47.2948734,67.1523242 47.5427883,66.995412 47.8119996,67.0067981 C48.0812109,67.0181841 48.3149386,67.1954668 48.3980375,67.4513086 L49.6977945,71.6702076 C49.7987453,71.9760988 50.105063,72.165576 50.4244303,72.1196787" id="Path" fill="#95C11F" fill-rule="nonzero"></path>
                                    <path d="M11.6978128,60.1371882 C11.6978128,60.1371882 15.7915356,59.4221205 15.7915356,57.2156261 C15.7915356,55.0091317 12.0764822,52.0569239 10.3059471,52.465534 C9.48720253,52.6494085 8.03393095,54.2225573 8.17721124,55.0499927 C8.32049154,55.8774281 11.5340639,57.0317516 11.5340639,57.0317516" id="Path" fill="#F3D19F" fill-rule="nonzero"></path>
                                    <path d="M11.6978128,60.1371882 C11.6978128,60.1371882 15.7915356,59.4221205 15.7915356,57.2156261 C15.7915356,55.0091317 12.0764822,52.0569239 10.3059471,52.465534 C9.48720253,52.6494085 8.03393095,54.2225573 8.17721124,55.0499927 C8.32049154,55.8774281 11.5340639,57.0317516 11.5340639,57.0317516" id="Path" fill="#F2C6A5" fill-rule="nonzero"></path>
                                    <path d="M60.3107708,95.5432514 C60.353208,96.0842028 60.0124516,96.5816312 59.4920262,96.7384359 L58.7039846,96.9631714 C54.9775483,97.9516749 51.1382876,98.4530086 47.2824981,98.4545982 L47.2824981,98.4545982 C46.8731258,98.4545982 46.4637535,98.4545982 46.0543812,98.4545982 C42.2138788,98.2491729 38.4144688,97.5627772 34.7454721,96.4115478 L34.0597735,96.1868123 C33.5407461,96.0109681 33.2190718,95.4929664 33.2922005,94.9507668 L33.5378238,93.1120214 C37.6315466,94.8486143 47.4667156,97.8825441 60.1470219,93.2243892 L60.3107708,95.5432514 Z" id="Path" fill="#95C11F" fill-rule="nonzero"></path>
                                    <path d="M63.1252052,122.092691 C58.490924,124.747134 52.788853,124.727656 48.1728828,122.041615 L47.7942134,106.984334 C47.0061718,106.984334 46.2385987,106.984334 45.4914943,106.923042 L44.6113439,121.765803 C39.9966305,124.452901 34.2956907,124.47627 29.6590215,121.827095 L34.6943005,96.3706868 C38.3468167,97.5177214 42.1287737,98.2040697 45.9520381,98.4137372 C46.3614104,98.4137372 46.781017,98.4137372 47.1903893,98.4137372 L47.1903893,98.4137372 C51.0461788,98.4121476 54.8854396,97.9108139 58.6118758,96.9223104 L59.3794489,100.783676 C59.1705695,100.859717 58.981635,100.981946 58.8267963,101.141209 L58.151332,101.805201 C57.6877544,102.278087 57.550909,102.981127 57.8033656,103.59287 C58.1308634,104.338583 58.5811729,105.370324 58.9905452,106.146683 L58.9905452,106.146683 C59.1061241,106.37921 59.2360068,106.604375 59.3794489,106.82089 C59.8174768,107.417591 60.3222153,107.962517 60.883892,108.445115 L60.883892,108.445115 L63.1252052,122.092691 Z" id="Path" fill="#455A64" fill-rule="nonzero"></path>
                                    <path d="M63.6471548,124.687365 C59.3565248,128.459451 53.0255507,128.777105 48.3775689,125.453509 L48.1728828,122.041615 C52.788853,124.727656 58.490924,124.747134 63.1252052,122.092691 L63.6471548,124.687365 Z" id="Path" fill="#455A64" fill-rule="nonzero"></path>
                                    <path d="M60.986235,108.485976 C60.4245583,108.003378 59.9198199,107.458452 59.4817919,106.861751 C59.3383499,106.645236 59.2084672,106.420071 59.0928883,106.187544 L59.0928883,106.187544 C58.683516,105.411185 58.2229722,104.379444 57.8954743,103.633731 C57.6430178,103.021988 57.7798632,102.318948 58.2434408,101.846062 L58.918905,101.18207 C59.0737437,101.022807 59.2626783,100.900578 59.4715576,100.824537 L60.5768628,106.402064 L60.986235,108.485976 Z" id="Path" fill="#455A64" fill-rule="nonzero"></path>
                                    <path d="M47.7942134,106.984334 C49.7966287,107.043488 51.7991033,106.868641 53.7608143,106.463356" id="Path" stroke="#25383F" stroke-width="0.5" stroke-linecap="round" stroke-linejoin="round"></path>
                                    <path d="M47.7942134,106.984334 C45.0207162,106.861751 40.4971526,106.524647 40.4971526,106.463356" id="Path" stroke="#25383F" stroke-width="0.5" stroke-linecap="round" stroke-linejoin="round"></path>
                                    <path d="M44.6113439,121.765803 L44.4066578,125.187913 C42.5043636,126.538079 40.2668049,127.340263 37.9385758,127.506775 C36.1150603,127.602479 34.2939802,127.277392 32.6167362,126.556756 C31.3514124,126.038586 30.1794774,125.317411 29.1473062,124.421769 L29.6590215,121.827095 C34.2956907,124.47627 39.9966305,124.452901 44.6113439,121.765803" id="Path" fill="#455A64" fill-rule="nonzero"></path>
                                    <line x1="57.7624284" y1="67.7986271" x2="57.4758678" y2="64.9383566" id="Path" stroke="#822E82" stroke-width="0.5" stroke-linecap="round" stroke-linejoin="round"></line>
                                    <line x1="36.976551" y1="67.1652815" x2="37.4268605" y2="63.7125263" id="Path" stroke="#822E82" stroke-width="0.5" stroke-linecap="round" stroke-linejoin="round"></line>
                                    <path d="M48.6436609,31.4425455 C48.6436609,31.4425455 43.8028337,30.4210203 44.7648585,35.9066106" id="Path" stroke="#000000" stroke-width="0.5" stroke-linecap="round" stroke-linejoin="round"></path>
                                    <path d="M30.0888624,24.7311249 C30.1502682,27.7139785 33.4559494,31.1667337 33.4559494,31.1667337 L33.2614975,25.7526501" id="Path" fill="#3F4E66" fill-rule="nonzero"></path>
                                    <path d="M53.8529231,57.3790701 C51.0998945,64.2232889 43.3934614,62.9668129 42.1653446,56.4903432 L43.6697877,56.602711 C44.8979045,60.5457982 49.4317025,62.4969114 52.3280114,57.2667024 L53.8529231,57.3790701 Z" id="Path" fill="#95C11F" fill-rule="nonzero"></path>
                                    <path d="M32.6269705,74.1422986 L31.4397909,75.296622 C31.3080307,75.4393035 31.1224843,75.5204701 30.9280756,75.5204701 C30.7336668,75.5204701 30.5481204,75.4393035 30.4163602,75.296622 L28.7788711,73.549814 L25.442487,70.0459825 L24.1427301,68.6771388 C23.9968708,68.5472798 23.9134632,68.3614637 23.9134632,68.1663762 C23.9134632,67.9712887 23.9968708,67.7854726 24.1427301,67.6556136 L25.5345958,66.3276308 C25.666356,66.1849494 25.8519024,66.1037827 26.0463112,66.1037827 C26.2407199,66.1037827 26.4262663,66.1849494 26.5580265,66.3276308 L26.87529,66.6851647 L32.2687698,72.6815175 L32.6679077,73.1309886 C32.9305972,73.3973694 32.9305972,73.8248415 32.6679077,74.0912223" id="Path" fill="#95C11F" fill-rule="nonzero"></path>
                                    <path d="M68.2423587,73.958424 L68.5391536,75.4702813 C68.5719904,75.6370789 68.536274,75.8100504 68.4400368,75.950295 C68.3437997,76.0905396 68.1951211,76.1862837 68.0274382,76.2159947 L65.8168279,76.6246048 L61.4058416,77.4316097 L59.6762438,77.7482825 C59.3248073,77.8048507 58.9910366,77.5752478 58.918905,77.2273047 L58.5811729,75.4804966 C58.5516036,75.3110296 58.5912356,75.1368003 58.6912234,74.996694 C58.7912113,74.8565878 58.9432321,74.7622672 59.1133569,74.7347832 L59.5534321,74.6632764 L66.952836,73.549814 L67.5054886,73.4680919 C67.8477096,73.41738 68.1704282,73.6410728 68.2423587,73.9788545" id="Path" fill="#95C11F" fill-rule="nonzero"></path>
                                    <path d="M107.767252,106.23862 C110.342056,106.351098 112.921578,106.193602 115.463451,105.768719" id="Path" stroke="#25383F" stroke-width="0.5" stroke-linecap="round" stroke-linejoin="round"></path>
                                    <path d="M9.83516897,49.0945008 C9.83516897,49.0945008 10.1831354,48.1342671 10.4492274,47.0514504" id="Path" stroke="#CEA676" stroke-width="0.5" stroke-linecap="round" stroke-linejoin="round"></path>
                                    <path d="M12.7007749,49.9730125 C13.0713314,49.3384858 13.4959163,48.7369712 13.969829,48.1751281" id="Path" fill="#F2C6A5" fill-rule="nonzero"></path>
                                </g>
                            </g>
                        </g>
                    </g>
                </g>
            </g>
        </g>
    </g>
</svg>