<svg id="Capa_3" data-name="Capa 3" xmlns="http://www.w3.org/2000/svg" xmlns:xlink="http://www.w3.org/1999/xlink" viewBox="0 0 197.97 196"><defs><style>.cls-1,.cls-10,.cls-19,.cls-23,.cls-25,.cls-27,.cls-28,.cls-30,.cls-31,.cls-5,.cls-7,.cls-9{fill:none;}.cls-2{clip-path:url(#clip-path);}.cls-3{fill:#0065c1;}.cls-4{fill:#f3d19f;}.cls-23,.cls-5{stroke:#f3d19f;}.cls-10,.cls-14,.cls-19,.cls-25,.cls-27,.cls-28,.cls-30,.cls-31,.cls-5,.cls-7,.cls-9{stroke-linecap:round;stroke-linejoin:round;}.cls-25,.cls-5,.cls-9{stroke-width:0.3px;}.cls-6{fill:#0275d8;}.cls-10,.cls-7{stroke:#034f87;}.cls-8{fill:#eabf8f;}.cls-9{stroke:#cea676;}.cls-10,.cls-14,.cls-30{stroke-width:0.5px;}.cls-11{fill:#822e82;}.cls-12{fill:#a546a0;}.cls-13{fill:#fff;}.cls-14{fill:#95c11f;stroke:#95c121;}.cls-15{fill:#84a51c;}.cls-16{fill:#aa7949;}.cls-17{fill:#5b3818;}.cls-18{fill:#c0c99f;}.cls-19{stroke:#5b3818;stroke-width:0.25px;}.cls-20{fill:#706135;}.cls-21{fill:#8c7c49;}.cls-22{fill:#56322a;}.cls-23{stroke-miterlimit:10;}.cls-24{fill:#ff74be;}.cls-25,.cls-28,.cls-31{stroke:#000;}.cls-26{fill:#7a4941;}.cls-27{stroke:#7a4941;}.cls-28{stroke-width:0.35px;}.cls-29{fill:#c69471;}.cls-30{stroke:#c69471;}.cls-31{stroke-width:0.38px;}</style><clipPath id="clip-path"><path class="cls-1" d="M180.47,98A81.39,81.39,0,1,1,99.08,16.57,81.39,81.39,0,0,1,180.47,98"/></clipPath></defs><title>icono maestro</title><g class="cls-2"><path class="cls-3" d="M73.36,114.64c0,.47-.34.84-.27,1.3.21,1.49,3.47.29-.67,4.86l-.37.41A89.19,89.19,0,0,1,64.2,132c-.88,1-1.78,2-2.72,3a10.84,10.84,0,0,1-2.86,2.32,3.72,3.72,0,0,1-2.88.33A6.22,6.22,0,0,1,53,135.2a60.4,60.4,0,0,1-7.13-13.45c-1.64-4.06-3-8.22-4.26-12.42q-1-3.22-1.8-6.5a16.25,16.25,0,0,0,8.54,0,24.07,24.07,0,0,0,4.26-1.69,9.5,9.5,0,0,0,4.33-3.58c.13.81.25,1.62.35,2.44q.21,1.64.39,3.27a24.54,24.54,0,0,0,2.15-4c1-2.39,2.06-4.78,3.12-7.17.83-1.88,1.83-3.68,2.8-5.51a37.39,37.39,0,0,0,2.66-6,22,22,0,0,0,.54-4.65,5.18,5.18,0,0,1,.65-2.15,3,3,0,0,1,1.93-1.3,5.25,5.25,0,0,1,2.66.31c.35.11,1.23.52,2.12.95-.51,3-1.26,7.68-2,13.22h0c.09,0,.39.12.37.25l-.16.87c-.52,3.69-.64,6.77-.92,10.49-.21,2.77-.57,5.32-.71,8.1a4.4,4.4,0,0,1-.16.46,1.42,1.42,0,0,0-.11.35,1,1,0,0,0,.07.36c.78,2,7.6,1.46.69,6.83"/><path class="cls-4" d="M31.66,82.32a.89.89,0,0,0,.76.7,7.43,7.43,0,0,0,1.7.17A2,2,0,0,0,35.19,83a1.28,1.28,0,0,0,.53-.64,4.61,4.61,0,0,0,.17-2.3A5.68,5.68,0,0,0,35.3,78c-.11-.21.21-.4.33-.19a6.09,6.09,0,0,1,.6,2,5.69,5.69,0,0,1,0,2.36,3.62,3.62,0,0,1-.13.35h0a.19.19,0,0,1,0,.13A9,9,0,0,0,36,87.63a10.88,10.88,0,0,0,2.15,4.69,9.29,9.29,0,0,0,2,1.85h0a20.48,20.48,0,0,0,7-.82,18.15,18.15,0,0,0,6.46-3.29q.18-.14.36-.3h0a11.34,11.34,0,0,0,1.39-1.7h0c.12-.17.23-.35.34-.52,0,0,0,0,0,0l.23-.4h0A.75.75,0,0,0,56,87a5,5,0,0,0,.66-2.34c0-1.08-.24-2.15-.28-3.23a6.13,6.13,0,0,1,.58-2.8,3.28,3.28,0,0,1,1.62-1.79c.37-.16.76-.28,1.11-.46s.58-.31.58-.67a3.33,3.33,0,0,0-1-2A2.9,2.9,0,0,0,56.68,73a5.87,5.87,0,0,0-4.21,3.77h0a2.29,2.29,0,0,0-.09.28.17.17,0,0,1-.23.12.16.16,0,0,1-.13-.22,1.72,1.72,0,0,1,.07-.21h0a43.13,43.13,0,0,0-.81-4.49,41,41,0,0,0-2.69-7.84A17.06,17.06,0,0,0,46.53,61,2.57,2.57,0,0,0,44,59.76a4.76,4.76,0,0,0-1.59.76A1.37,1.37,0,0,0,41.66,62a4.71,4.71,0,0,0,.89,1.59c.35.49.71,1,1,1.49s.45.82.64,1.23.46,1,.65,1.54h0c.7,1.82,1.21,3.71,1.86,5.54.08.23-.28.33-.36.1a70.08,70.08,0,0,0-2.53-7.08c-.35-.45-.72-.89-1.08-1.32a28.59,28.59,0,0,0-3.19-3.32,1.9,1.9,0,0,0-1.18-.6c-1,0-1.57,1-2.09,1.68A2.61,2.61,0,0,0,35.58,64c0,.42.32.79.57,1.08.83,1,1.69,1.87,2.48,2.86a21.46,21.46,0,0,1,1.6,2.3h0c.18.29.35.59.53.89h0l.15.26a15.32,15.32,0,0,1,1.69,3.87c.06.24-.31.34-.36.1a15.12,15.12,0,0,0-1.65-3.78c-.21-.36-.42-.72-.64-1.08A16.8,16.8,0,0,0,38,69.34a15.47,15.47,0,0,0-2.33-1c-.64-.22-1.72-.68-2.24,0a3.5,3.5,0,0,0-.49,1c-.17.42-.61,1.87-.67,2.17s-.13.6.11.79a6,6,0,0,0,1.66.6A13.46,13.46,0,0,1,36.49,74a5,5,0,0,1,1.74,2l.24.49c.25.54.47,1.1.68,1.63.1.22-.27.32-.36.1-.27-.66-.53-1.33-.86-2h0A10.61,10.61,0,0,0,36,75.76c-1.26-.22-2.91-.31-4,.58a3.2,3.2,0,0,0-.87,2.34,12.5,12.5,0,0,0,.46,3.64"/><path class="cls-5" d="M31.66,82.32c.11.41,1.89.86,2.46.87a3.16,3.16,0,0,0,1.6-.8,4.61,4.61,0,0,0,.17-2.3A5.68,5.68,0,0,0,35.3,78c-.11-.21.21-.4.33-.19a6.09,6.09,0,0,1,.6,2,5.69,5.69,0,0,1,0,2.36,3.62,3.62,0,0,1-.13.35h0a.19.19,0,0,1,0,.13A9,9,0,0,0,36,87.63a10.88,10.88,0,0,0,2.15,4.69,9.29,9.29,0,0,0,2,1.85h0a20.48,20.48,0,0,0,7-.82,18.15,18.15,0,0,0,6.46-3.29q.18-.14.36-.3h0a11.34,11.34,0,0,0,1.39-1.7h0c.12-.17.23-.35.34-.52,0,0,0,0,0,0l.23-.4h0A.75.75,0,0,0,56,87a5,5,0,0,0,.66-2.34c0-1.08-.24-2.15-.28-3.23a6.13,6.13,0,0,1,.58-2.8,3.28,3.28,0,0,1,1.62-1.79c.37-.16.76-.28,1.11-.46s.58-.31.58-.67a3.33,3.33,0,0,0-1-2A2.9,2.9,0,0,0,56.68,73a5.87,5.87,0,0,0-4.21,3.77h0a2.29,2.29,0,0,0-.09.28.17.17,0,0,1-.23.12.16.16,0,0,1-.13-.22,1.72,1.72,0,0,1,.07-.21h0a43.13,43.13,0,0,0-.81-4.49,41,41,0,0,0-2.69-7.84A17.06,17.06,0,0,0,46.53,61,2.57,2.57,0,0,0,44,59.76a4.76,4.76,0,0,0-1.59.76A1.37,1.37,0,0,0,41.66,62a4.71,4.71,0,0,0,.89,1.59c.35.49.71,1,1,1.49s.45.82.64,1.23.46,1,.65,1.54h0c.7,1.82,1.21,3.71,1.86,5.54.08.23-.28.33-.36.1a70.08,70.08,0,0,0-2.53-7.08c-.35-.45-.72-.89-1.08-1.32a28.59,28.59,0,0,0-3.19-3.32,1.9,1.9,0,0,0-1.18-.6c-1,0-1.57,1-2.09,1.68A2.61,2.61,0,0,0,35.58,64c0,.42.32.79.57,1.08.83,1,1.69,1.87,2.48,2.86a21.46,21.46,0,0,1,1.6,2.3h0c.18.29.35.59.53.89h0l.15.26a15.32,15.32,0,0,1,1.69,3.87c.06.24-.31.34-.36.1a15.12,15.12,0,0,0-1.65-3.78c-.21-.36-.42-.72-.64-1.08A16.8,16.8,0,0,0,38,69.34a15.47,15.47,0,0,0-2.33-1c-.64-.22-1.72-.68-2.24,0a3.5,3.5,0,0,0-.49,1c-.17.42-.61,1.87-.67,2.17s-.13.6.11.79a6,6,0,0,0,1.66.6A13.46,13.46,0,0,1,36.49,74a5,5,0,0,1,1.74,2l.24.49c.25.54.47,1.1.68,1.63.1.22-.27.32-.36.1-.27-.66-.53-1.33-.86-2h0A10.61,10.61,0,0,0,36,75.76C34.76,75.54,31.37,81.13,31.66,82.32Z"/><path class="cls-3" d="M40.39,99.82a2.33,2.33,0,0,0,1.32.89,1,1,0,0,0,.93-.27,2.54,2.54,0,0,0,.61-2.2,2,2,0,0,0-.47-1,1.36,1.36,0,0,0-1.07-.4,2.21,2.21,0,0,0-.37,0,.09.09,0,0,1-.07,0l-.29.22a2.09,2.09,0,0,0-.59,2.77"/><path class="cls-3" d="M145.79,132.35a1.54,1.54,0,0,0,.47,1,.74.74,0,0,0,.32.2.63.63,0,0,0,.33,0,1.26,1.26,0,0,0,.64-.44,2.22,2.22,0,0,0,.41-.81,1.66,1.66,0,0,0,0-1,1.2,1.2,0,0,0-.76-.7.15.15,0,0,1-.1-.09,1.27,1.27,0,0,0-.32.13,1.91,1.91,0,0,0-1,1.69"/><path class="cls-6" d="M148.35,131.37a.17.17,0,0,0,0-.17,1.28,1.28,0,0,0-.83-1,1.45,1.45,0,0,0-1.15.26,2.25,2.25,0,0,0-.95,2.25c.17.74.87,1.53,1.69,1.21a2.24,2.24,0,0,0,1.23-1.72,2.15,2.15,0,0,0,0-.8m-.39.95a2.07,2.07,0,0,1-.41.81,1.22,1.22,0,0,1-.64.45.63.63,0,0,1-.33,0,.69.69,0,0,1-.32-.2,1.54,1.54,0,0,1-.47-1,1.92,1.92,0,0,1,1-1.69,1.66,1.66,0,0,1,.32-.13.17.17,0,0,0,.11.09,1.2,1.2,0,0,1,.76.7,1.63,1.63,0,0,1,0,1"/><path class="cls-6" d="M43.54,97.83a2.9,2.9,0,0,0-.16-.41.17.17,0,0,0,0-.17,2.44,2.44,0,0,0-.19-.44,1.25,1.25,0,0,0-1.29-.63A2.52,2.52,0,0,0,40.5,97a3,3,0,0,0-.8,1.62,2.06,2.06,0,0,0,.66,1.73,2.39,2.39,0,0,0,1.55.76,1.45,1.45,0,0,0,1.13-.53,3.06,3.06,0,0,0,.5-2.74m-.9,2.61a1,1,0,0,1-.93.27,2.33,2.33,0,0,1-1.32-.89A2.11,2.11,0,0,1,41,97.05l.29-.22a.08.08,0,0,0,.07,0,2.46,2.46,0,0,1,.37,0,1.36,1.36,0,0,1,1.07.4,2,2,0,0,1,.47,1,2.54,2.54,0,0,1-.61,2.2"/><path class="cls-4" d="M126.72,145.36a31.12,31.12,0,0,0,5.19,6.14,2.38,2.38,0,0,0,2.21.89A4.56,4.56,0,0,0,136,151c1.28-1.36,2.62-2.68,3.84-4.1.57-.67,1.46-1.78.86-2.67a11.46,11.46,0,0,0-1-1.13c-.09-.1-.17-.2-.26-.29l-.52.35a18.25,18.25,0,0,1-1.83,1l-.22.1a.14.14,0,0,1-.09.15,6.6,6.6,0,0,0-2.8,2.27c-.14.2-.46,0-.32-.19a6.91,6.91,0,0,1,2.47-2.18.13.13,0,0,1,.09-.16,17.62,17.62,0,0,0,3-1.66l.32-.22a17.89,17.89,0,0,0,4.2-4.26l.57-.87a11.28,11.28,0,0,1-1.14-.93,19.9,19.9,0,0,1-1.86-2,27.86,27.86,0,0,1-3.37-4.9c-.37-.72-.71-1.45-1-2.19,0-.07-.09-.25-.12-.32s-.35-.9-.39-1c0,.19-.21.37-.22.55-.08,1.07,0,3.09-.24,4.15-.12.65-.27,1.3-.44,1.94-.06.2-.11.4-.17.59h0a23.58,23.58,0,0,1-4.27,8,30,30,0,0,1-4.29,4.29"/><path class="cls-3" d="M37.67,93.49l.08.41c.56.13,1.74.28,2.31.34-.39-.31-1.42-1.11-1.76-1.47v0c-.56-.11-.7,0-.73,0s0,.45.1.65"/><path class="cls-6" d="M144.68,120.32c-.32-.71-.45-1.53-.73-2.27l-.7.44a31.61,31.61,0,0,0-2.59,1.88c-.81.69-1.57,1.44-2.35,2.15a8.71,8.71,0,0,1-1,.87,7.9,7.9,0,0,0-.9.61l0,0c-.49.46-.17,1.25,0,1.79h0c.22.63.52,1.22.79,1.82a25.49,25.49,0,0,0,2.91,5c.59.78,1.21,1.54,1.86,2.27a13.9,13.9,0,0,0,2.1,2l.25.19a3.21,3.21,0,0,0,.3.21,1.34,1.34,0,0,0,.52.2,1.15,1.15,0,0,0,.87-.35c.49-.42.84-1,1.36-1.35.86-.63,1.7-1.24,2.51-1.94s1.65-1.47,2.47-2.2l1.82-1.67a21.72,21.72,0,0,1-9.45-9.72m3.7,11.85a2.24,2.24,0,0,1-1.23,1.72c-.82.32-1.52-.47-1.69-1.21a2.25,2.25,0,0,1,.95-2.25,1.45,1.45,0,0,1,1.15-.26,1.28,1.28,0,0,1,.83,1,.17.17,0,0,1,0,.17,2.15,2.15,0,0,1,0,.8"/><path class="cls-6" d="M56.31,93.81a53.67,53.67,0,0,1-.61-5.93l-.07.11a5.73,5.73,0,0,1-1.22,1.54l-.11.1h0l-.12.13-.07,0a15.92,15.92,0,0,1-2.79,1.89A20.85,20.85,0,0,1,43,94.18a19.55,19.55,0,0,1-2.54.06l-.54,0a16.55,16.55,0,0,1-2.21-.31c.56,2.85,1.3,6.11,2,8.93a14.72,14.72,0,0,0,7.54.26,22.27,22.27,0,0,0,4.41-1.5,16.62,16.62,0,0,0,3.41-2,5.12,5.12,0,0,0,1.74-1.94c-.17-1-.4-2.83-.56-3.85M43,100.57a1.45,1.45,0,0,1-1.13.53,2.39,2.39,0,0,1-1.55-.76,2.06,2.06,0,0,1-.66-1.73A3,3,0,0,1,40.5,97a2.52,2.52,0,0,1,1.44-.81,1.25,1.25,0,0,1,1.29.63,2.44,2.44,0,0,1,.19.44.17.17,0,0,1,0,.17,2.9,2.9,0,0,1,.16.41,3.06,3.06,0,0,1-.5,2.74"/><path class="cls-3" d="M171.74,111.57a5.91,5.91,0,0,1-1.12,2.44,39.77,39.77,0,0,1-3.84,4.56c-1.45,1.52-3,3-4.57,4.35-2.68,2.39-5.4,4.73-8.08,7.12-.48-.26-.94-.54-1.4-.83a23.42,23.42,0,0,1-6.08-5.58,19,19,0,0,1-2.09-3.63c-.28-.61-.57-1.24-.82-1.89.24-.16.47-.34.69-.52a1.49,1.49,0,0,0,.6-.69,1,1,0,0,0-.08-.57,1.41,1.41,0,0,1,0-1,1.52,1.52,0,0,1,1.86-.73.19.19,0,0,0,.24-.18c0-.57-.32-1.48.29-1.83l.11-.06a1.31,1.31,0,0,1,.27-.06,2.31,2.31,0,0,1,1.1.25,9.73,9.73,0,0,1,2.46,1.6c.18.16.45-.11.27-.27a9.18,9.18,0,0,0-3-1.81,2.08,2.08,0,0,0-1.13-.1c-.64-.85-1.32-1.65-2-2.45-1.18-1.39-2.31-2.81-3.43-4.25-.92-1.17-1.82-2.37-2.79-3.5-.8-.93-1.61-1.84-2.4-2.77l-.13-.15-.18-.21c-.67-.77-1.85-1.92-2.23-2.33-7.78-7-8.57-14.92-3.66-22.43.11,0,.31-.31.42-.35,1.17-.47,2.17-1.21,3.3-1.77a3.91,3.91,0,0,1,1.82-.52,2.56,2.56,0,0,1,1.37.54,9.47,9.47,0,0,1,2.25,2.67c.27.42.51.84.76,1.27a.2.2,0,0,0,0,.07,7.44,7.44,0,0,0,.87,1.49l.07.09h0l0,0A28.23,28.23,0,0,0,144.31,81c1.37,1.45,2.79,2.85,4.18,4.29,3.08,3.19,6.22,6.32,9.27,9.54,1.52,1.6,3,3.22,4.53,4.81s3,3.12,4.48,4.7c.74.8,1.48,1.61,2.2,2.43a28.71,28.71,0,0,1,1.88,2.25,3.73,3.73,0,0,1,.89,2.6"/><path class="cls-7" d="M147.43,112.32s1.67-.43,3.94,1.78"/><path class="cls-8" d="M99.49,83.29a33.92,33.92,0,0,1,2.59,10.49c0,.27,0,.55,0,.82q.42-1.2.9-2.37c.67-1.64,1.38-3.29,2.19-4.87a19.11,19.11,0,0,1,1.34-2.58,19.36,19.36,0,0,1-5.41-.92"/><path class="cls-6" d="M135.5,107.91c0-1,.14-1.93.26-2.89.23-1.87,1-4.51,1.29-6.37-.55-.64-1.21-1-1.71-1.66-.18-.23-.4-.11-.56-.38,0,0-.12-.09-.12-.12-7.78-7-8.61-15-3.7-22.51-1.62.61-3.8,1.13-5.39,1.6,0,0-1.66-5.32-2.62-5.57-5.07-1.41-20-.87-20.6.56-.29.6-8.3-1.62-12.29-.16-1.28.47-2.29,6.23-2.31,6.23-1.37-.49-4.21-.26-5.61-.63-1-.25-2.09-.54-3.11-.88A24.69,24.69,0,0,1,76.56,74c-.21-.09-.41-.2-.62-.28a.35.35,0,0,0,0,.06c1,.45,2,.94,2.33,1.12-.51,3-3.58,6.52-4.31,12.09h0v0a.16.16,0,0,1,.07.17c-.2,1.09-.29,2.21-.4,3.29-.22,2.1-.41,4.19-.57,6.29-.28,3.45-.51,6.91-.67,10.38,0,.25,0,.47,0,.71q-.14,2.9-.21,5.79c-.06,2.33-.08,4.68,0,7v.18c0,.17,0,.34,0,.51s0,.44,0,.66c0,1.78.22,4.21.44,6,1.2,1.36,2.41,3.73,3.73,5a22,22,0,0,0,5.94,3.54,34.74,34.74,0,0,0,7.67,2.62c.12,0,1.43.36,1.56.38,2.19.46,3,.94,5.28,1.06,3.07.17,5.52,2.92,8.56,2.56.13,0,2.6-2.87,2.72-2.89a43,43,0,0,0,4.67-.67c.76-.16,1.68-.79,2.44-1,0,0,1-.5,1.06-.5.1.52,6.54,3.72,6.84-2.45.11,0,4.8-1.24,6-2.33s6.6-4.47,6.94-5c0-.43-.09-8.75-.25-10.93A84.35,84.35,0,0,1,135.5,107.91Zm-9.85,2.5-.06.49-.41.2-.87.38a17,17,0,0,1-3.3,1.09,12.08,12.08,0,0,1-6.45-.25,10.18,10.18,0,0,1-1.08-.44c-.13-.06-.26-.14-.38-.21s0-.29,0-.44a97.59,97.59,0,0,1-.06-11.6c0-.12,0-.25,0-.37l.37.06c1.13.22,2.28.41,3.43.54h0c0-1.22.08-2.45.15-3.66a.58.58,0,0,1,0-.53.72.72,0,0,1,.47-.31,1,1,0,0,1,.3,0,1,1,0,0,1,.8.25.55.55,0,0,1,.18.52.11.11,0,0,0,0,.06c-.1,1.26-.17,2.54-.2,3.82h.13c.37,0,.74,0,1.11,0a15.14,15.14,0,0,1,.64-4.58,6.23,6.23,0,0,1-.22-.9,9.58,9.58,0,0,1-.14-2.13.43.43,0,0,1-.11-.53,1.43,1.43,0,0,1,1-.58,3.64,3.64,0,0,1,.87,0,4.49,4.49,0,0,1,1.62.24,2.67,2.67,0,0,1,1,.55l.09.14a.19.19,0,0,1,.12.23l-.6,2.27-.15.55a1.6,1.6,0,0,1-.16.48.29.29,0,0,1-.09.1,18.68,18.68,0,0,1,.16,3.81,16.89,16.89,0,0,0,1.81-.52L126,99c0,.13,0,.26,0,.4A57.24,57.24,0,0,1,125.65,110.41Z"/><path class="cls-6" d="M125.65,110.41l-.06.49-.41.2-.87.38a17,17,0,0,1-3.3,1.09,12.08,12.08,0,0,1-6.45-.25,10.18,10.18,0,0,1-1.08-.44c-.13-.06-.26-.14-.38-.21s0-.29,0-.44a97.59,97.59,0,0,1-.06-11.6c0-.12,0-.25,0-.37l.37.06c1.13.22,2.28.41,3.43.54h0c0-1.22.08-2.45.15-3.66a.58.58,0,0,1,0-.53.72.72,0,0,1,.47-.31,1,1,0,0,1,.3,0,1,1,0,0,1,.8.25.55.55,0,0,1,.18.52.11.11,0,0,0,0,.06c-.1,1.26-.17,2.54-.2,3.82h.13c.37,0,.74,0,1.11,0a15.14,15.14,0,0,1,.64-4.58,6.23,6.23,0,0,1-.22-.9,9.58,9.58,0,0,1-.14-2.13.43.43,0,0,1-.11-.53,1.43,1.43,0,0,1,1-.58,3.64,3.64,0,0,1,.87,0,4.49,4.49,0,0,1,1.62.24,2.67,2.67,0,0,1,1,.55l.09.14a.19.19,0,0,1,.12.23l-.6,2.27-.15.55a1.6,1.6,0,0,1-.16.48.29.29,0,0,1-.09.1,18.68,18.68,0,0,1,.16,3.81,16.89,16.89,0,0,0,1.81-.52L126,99c0,.13,0,.26,0,.4A57.24,57.24,0,0,1,125.65,110.41Z"/><path class="cls-6" d="M72.23,107.43c-.14,2.48-.23,4.94-.24,7.33C72,112.32,72.11,109.87,72.23,107.43Z"/><path class="cls-6" d="M78.44,74.88c-.51,3-3.58,6.53-4.31,12.1h0c.73-5.53,1.48-10.23,2-13.22l2.33,1.12"/><path class="cls-9" d="M38.06,76.07c.09.16.17.32.25.49.25.53.46,1.09.68,1.62"/><path class="cls-9" d="M40.07,70.32h0c.18.3.36.59.53.89h0l.15.27a15.68,15.68,0,0,1,1.69,3.87"/><path class="cls-9" d="M44,66.32c.24.5.45,1,.65,1.54h0c.7,1.82,1.21,3.72,1.86,5.55"/><path class="cls-9" d="M35.46,77.9a5.74,5.74,0,0,1,.61,2A5.86,5.86,0,0,1,36,82.26a1.66,1.66,0,0,1-.13.35h0a.15.15,0,0,1,0,.13"/><path class="cls-10" d="M63.5,119.83s-.84-5.57-4.08-5.49"/><path class="cls-10" d="M60.2,117.86c-1.62-4.46-2.68-15.16-2.68-15.16"/><path class="cls-3" d="M125.88,103a56.66,56.66,0,0,1-.51,7.58h0c-.57.28-1.15.55-1.74.78-3.19,1.26-7,1.6-10,0a97.84,97.84,0,0,1-.08-11.74c1.14.21,2.29.4,3.45.53,0,.73,0,1.45,0,2.17,0,.31,0,.71.32.88a.44.44,0,0,0,.63-.19,1.61,1.61,0,0,0,0-.58c0-.28,0-.56,0-.85l0-1.33h0l.81.06q.56,0,1.11,0h.38a17.81,17.81,0,0,0,3.26-.3l.38-.08a13.56,13.56,0,0,0,1.86-.53c.07,1.18.11,2.36.11,3.54"/><path class="cls-11" d="M124.13,93.1s-.18.09-.21.1a1.89,1.89,0,0,1-.41.1,8,8,0,0,1-1.89,0,3.5,3.5,0,0,1-.92-.19,1.19,1.19,0,0,1-.29-.11c0-.08,0-.16,0-.24a.19.19,0,0,0,0-.08l.12-.07a1.74,1.74,0,0,1,.38-.14.21.21,0,0,0,.14,0,4.53,4.53,0,0,1,.73-.08l.41,0h.08A4.07,4.07,0,0,1,124,93s.16.07.15.12"/><path class="cls-12" d="M124.2,93.05l-.54,2.08c-.06.2-.1.42-.17.62s-.29.27-.47.34a2.77,2.77,0,0,1-1.07.18,1.57,1.57,0,0,1-1-.28.72.72,0,0,1-.12-.21.14.14,0,0,0,0-.14,1.33,1.33,0,0,0,0-.19c0-.2-.1-.41-.14-.62a9.73,9.73,0,0,1-.15-1.86,4.6,4.6,0,0,0,1.19.26,11.92,11.92,0,0,0,1.34,0,3.27,3.27,0,0,0,1.16-.18l.08,0"/><path class="cls-13" d="M123.56,99.69a18.16,18.16,0,0,1-3.29.32,16,16,0,0,1,.51-4.13,1.19,1.19,0,0,0,.42.26,3,3,0,0,0,1.88,0,3.59,3.59,0,0,0,.35-.12,18,18,0,0,1,.13,3.67"/><path class="cls-14" d="M118.46,96.45c-.09,1.16-.15,2.33-.18,3.49l-.38,0h0a.19.19,0,0,0-.18,0s0,0,0,0v0l-.09.71c0,.64,0,1.27,0,1.92,0,.06,0,.24,0,.3s-.17,0-.21-.1a1.75,1.75,0,0,1,0-.56c0-.41,0-.82,0-1.23,0-.2,0-.4,0-.6v-.92h0c0-1,.07-2,.13-3h0a1.46,1.46,0,0,0,.51.07,1.91,1.91,0,0,0,.47-.07"/><rect class="cls-1" x="-1001.34" y="-475.09" width="1440" height="1479"/><ellipse class="cls-15" cx="117.95" cy="96.33" rx="0.76" ry="0.3"/><path class="cls-16" d="M62.86,217.42a16.07,16.07,0,0,0,2,1.82l.29.22A13,13,0,0,0,70,221.7a16.57,16.57,0,0,0,7.7-.26l.38-.1.12,0c.36-.1.71-.2,1.06-.32,1-3.82,2-8.2,2.86-12,1.15-4.86,2.26-10,3.35-14.86s2.11-9.73,3.21-14.58c1.07-4.7,2.35-9.34,3.74-13.95.69-2.29,1.38-4.57,2.13-6.84.37-1.11.75-2.22,1.13-3.33,0,0,.73-2.38.79-2.38h0l1.25.1h.16c1.49.07,3.75.24,5.25.26h1.17c.61,0,1.22,0,1.83-.08,1-.06,1.9-.14,2.84-.26l.38-.05c0,.13,0,.25,0,.38q-.61,11.56-1.22,23.12-.81,15.81-1.64,31.6c-.23,4.47-.48,9.38-.73,13.85a19.12,19.12,0,0,0,2.15,1.13l.35.16a19.26,19.26,0,0,0,2.21.77,14.71,14.71,0,0,0,8.49-.22c.38-.13.74-.27,1.11-.42l.34-.15c.44-.2.86-.41,1.28-.65-.3-9.89-.79-20.22-1-30.12-.26-10.86.12-21.74-.1-32.61q-.09-4.81-.37-9.63l0-.41.36-.19a37.87,37.87,0,0,0,5.21-3.4q.55-.42,1.11-.87l.29-.24a32,32,0,0,0,3.36-3.23,27.54,27.54,0,0,0,5.06-9.28c-1.21.82-3,1-4.27,1.67a64.46,64.46,0,0,1-15.52,5.84c-2.6.67-12.6,1-15,1a65,65,0,0,1-14-3c-6.45-2.17-12.24-5.34-12.89-6.06a70.87,70.87,0,0,0,3.56,8.54,27.21,27.21,0,0,0,2.64,4.36,22.75,22.75,0,0,0,3,3.51,13.29,13.29,0,0,0,2,1.44h0l.18.11.17.1-.12.35c0,.13-.09.27-.11.33-1.07,3.1-3,8.6-4,11.74-.75,2.41-1.45,4.84-2.06,7.3s-1.28,5-2,7.48c-1.46,4.9-3.13,9.73-4.57,14.63-.74,2.55-1.48,5.09-2.34,7.59-.78,2.29-1.56,4.81-2.4,7.07-.66,1.76-1.38,3.49-2.14,5.2A58.75,58.75,0,0,1,63,217.25"/><path class="cls-17" d="M106.49,139.08c.2,1.31.73,2.6.9,3.91,1.84-.23,4-.6,5.85-1a68.77,68.77,0,0,0,15.46-5.37c1.61-.79,3.21-1.65,4.77-2.56a21.44,21.44,0,0,0,2-1.28q.18-.61.33-1.26a24,24,0,0,0,.27-3.6,6.39,6.39,0,0,1-1.22,1.11c-1.21.83-2.51,1.5-3.79,2.21a62.73,62.73,0,0,1-7.18,3.39l-.35.14q-3,1.17-6,2.06l-.36.11-.67.19-.37.1-.83.22a64.37,64.37,0,0,1-8.17,1.57"/><path class="cls-17" d="M72.89,127.93c.12.81.27,1.61.47,2.41s.36,1.36.57,2c1,1.09,2,2.16,3.06,3.16a24.44,24.44,0,0,0,6.12,4.21A39.25,39.25,0,0,0,91,142.43a27.1,27.1,0,0,1-.11-4,40.66,40.66,0,0,1-6.52-1.82,26.38,26.38,0,0,1-6.57-3.79,41,41,0,0,1-4.91-4.86"/><path class="cls-18" d="M91,142.43a44.09,44.09,0,0,0,7,.91,53.19,53.19,0,0,0,9.44-.35c-.16-1.31-.45-2.61-.64-3.93a53.35,53.35,0,0,1-7,.39,44.91,44.91,0,0,1-8.88-.92,23.06,23.06,0,0,0,.16,3.9"/><line class="cls-19" x1="87.08" y1="152.62" x2="68.26" y2="216.58"/><line class="cls-19" x1="117.45" y1="221.86" x2="117.14" y2="152.62"/><path class="cls-18" d="M112.56,128.24a.48.48,0,0,0-.19.33c0,.1.41.33.53.43.75,1.88,3.54,6.09,4.07,7.9a7,7,0,0,1-1.35.51c-.53-.08-.62-1.09-.9-1.53-.12-.21-.26-.41-.37-.62a2.22,2.22,0,0,1-.18-.92c0-.4-.46-.78-.72-1.05a3.23,3.23,0,0,1-.54-.57c-.14-.24-.07-.44-.06-.7a2,2,0,0,0-.55-1.25,2,2,0,0,1-.4-.72c-.06-.28.09-.48.12-.75.08-.49-.4-.84-.48-1.3-.12-.74.84-.72,1.31-.68a.19.19,0,0,0,.18-.24c0-.07-.2-.44-.17-.51s.41-.2.52-.24a8.58,8.58,0,0,0,1-.43.43.43,0,0,0,.22-.22c0-.11,0-.18,0-.28s.21-.2.28-.21a2.31,2.31,0,0,1,.37,0,3.91,3.91,0,0,1,.54.14c.17,0,.12-.58.46-.49.07,0,.16.12.23.15l.45.17c.11,0,.39.27.5.32,0,0-.3,0-.35.06a13.11,13.11,0,0,0-2.33,1.11,14.64,14.64,0,0,0-2.18,1.56"/><path class="cls-20" d="M118.9,126.11c-1.82,1-3.64,2-5.38,3.09-.19-.1-.76-.43-.94-.55l-.17-.11,0-.06s0,.07,0,.05l.11-.21.41-.35a16.49,16.49,0,0,1,1.81-1.29,14.93,14.93,0,0,1,2-1,3,3,0,0,1,.5-.18,1.15,1.15,0,0,1,.71.18l.56.26"/><path class="cls-21" d="M123.47,134.78q-3,1.17-6,2.06c-1.18-2.37-2.43-4.71-3.73-7,0,0-.3-.74-.31-.75,1.75-1.09,3.67-2,5.5-3,0,0,3.1,5.91,4.57,8.67"/><polygon class="cls-20" points="113.52 129.2 117.35 136.5 117.53 136.83 116.39 137.16 112.33 128.53 112.45 128.35 113.52 129.2"/><path class="cls-3" d="M126.28,78a.54.54,0,0,1,0,.21,29.74,29.74,0,0,1-2,3.53A46.86,46.86,0,0,1,121,86c-.42.49-.83,1-1.24,1.48-.56.68-1.12,1.35-1.7,2a26.69,26.69,0,0,1-4.85,4.6.5.5,0,0,1-.46.05.48.48,0,0,1-.31-.34,19.46,19.46,0,0,0-.85-2.52A12.56,12.56,0,0,0,109.85,88a2.11,2.11,0,0,0-.85-.71,1.14,1.14,0,0,0-1,.17,7.68,7.68,0,0,0-2.6,3.2c-.64,1.2-1.18,2.5-1.7,3.75-.29.71-.59,1.42-.9,2.12a3.05,3.05,0,0,1-1,.78s0,0,0,0a.54.54,0,0,1-.49.36h0c-.5,0-.56,0-1.45-5.72l-.07-.42a14.63,14.63,0,0,0-.61-2.49,6.69,6.69,0,0,0-1.59-2.82,1.79,1.79,0,0,0-2.36.25,8.26,8.26,0,0,0-2.11,3,18.35,18.35,0,0,0-.72,2,.5.5,0,0,1-.91.11c-.41-.68-.84-1.42-1.26-2.21a33.69,33.69,0,0,1-3.8-12.18l-.11-1.16,0-.43a18.9,18.9,0,0,1,.31-2.3,8,8,0,0,1,.59-2,3.18,3.18,0,0,1,3-1.53.52.52,0,0,1,.38.15.54.54,0,0,1,.15.38,12.5,12.5,0,0,0,1.39,6.81,13.93,13.93,0,0,0,7,5.86h0a.51.51,0,0,1,.27.27l.27.67a38.34,38.34,0,0,1,2,6.65,29.27,29.27,0,0,1,.2,3.37c.31-.86.65-1.71,1-2.57l.06-.16c.59-1.36,1.19-2.77,1.89-4.11a16.1,16.1,0,0,1,1.41-2.25.63.63,0,0,1,.4-.18c.47,0,.94,0,1.4,0a17.09,17.09,0,0,0,5.49-1.2,14.5,14.5,0,0,0,8-7.54,12.23,12.23,0,0,0,.9-5.9.5.5,0,0,1,.64-.52l.22.06.49.15a3.5,3.5,0,0,1,1.93,1.41,5.39,5.39,0,0,1,.55,2.77c0,.39,0,.79,0,1.19a.36.36,0,0,1,0,.14.41.41,0,0,1,0,.16v.36C126.27,76.53,126.28,77.26,126.28,78Z"/><path class="cls-4" d="M108.85,83.35,108,84.72c-.46,0-.93,0-1.4,0a.63.63,0,0,0-.4.18,16.1,16.1,0,0,0-1.41,2.25c-.7,1.34-1.3,2.75-1.89,4.11l-.06.16c-.37.86-.71,1.71-1,2.57a29.27,29.27,0,0,0-.2-3.37,38.34,38.34,0,0,0-2-6.65l-.27-.67a.51.51,0,0,0-.27-.27h0l0-.23Z"/><path class="cls-22" d="M83.15,37.08a.15.15,0,0,0,0,.07,1.27,1.27,0,0,0,0,.34,5.34,5.34,0,0,0,1.2,2.07,20.42,20.42,0,0,0,3.27,3.17c.92.72,1.88,1.38,2.86,2a6.41,6.41,0,0,1,.07,1.63l0,.37c0,.16,0,.33,0,.49l0,.65q0,.9,0,1.8a25.18,25.18,0,0,0,.28,3c.78.86,2,8.77,1.65,9.88h0v0h0a.15.15,0,0,1,0,.07A49,49,0,0,0,90.64,70c0,.14,0,.28,0,.42s0,.3,0,.46q0,.49,0,1l0,.5h0a12.3,12.3,0,0,0,.74,3.5,13.29,13.29,0,0,0,7.37,7.22l.5.21.18.08a21.22,21.22,0,0,0,7.27,1.47h.48a18.36,18.36,0,0,0,5-.69,15.13,15.13,0,0,0,9-6.76,12.46,12.46,0,0,0,1.62-5.1c0-.25,0-.51,0-.76s0-.46,0-.69a2.26,2.26,0,0,0,0-.26c0-.24,0-.47,0-.71s0-.27,0-.4a11.16,11.16,0,0,0-1.07-3.42c-.09-.18-.19-.36-.29-.54a.14.14,0,0,1-.1-.1s0-.08,0-.12l0-.15a.2.2,0,0,1-.08-.2.11.11,0,0,1,0,0s0,0,0,0-.06-.2-.08-.3a10.21,10.21,0,0,1-.33-1.9c0-.22,0-.43,0-.64s0-.49,0-.73a11.57,11.57,0,0,1,.48-2.86h0a.19.19,0,0,1,0-.08.43.43,0,0,0,0-.05c.09-.21.18-.43.28-.64h0s0,0,0,0a.05.05,0,0,1,0,0v0a12.12,12.12,0,0,1,2.83-3.83,3.14,3.14,0,0,1,2.22-.71s0-.37,0-.38a.36.36,0,0,1,0-.11v0a19.78,19.78,0,0,0,.44-3.67c0-.43,0-.87,0-1.3a20,20,0,0,0-.26-2.43,10,10,0,0,0-.88-3.12,2.27,2.27,0,0,0-1-1A2.32,2.32,0,0,0,123,41a7.15,7.15,0,0,0-2.62,2.12.18.18,0,0,1-.3-.07.15.15,0,0,1-.06-.15v0a7.31,7.31,0,0,0,.25-1.46c0-.06,0-.14,0-.21s0-.15,0-.23,0-.42,0-.63,0-.25,0-.38a8.16,8.16,0,0,0-2.31-5c-2.1-2.14-5.14-3.2-8-4a36.9,36.9,0,0,0-9.57-1.45,27,27,0,0,0-4.84.25,10.36,10.36,0,0,0-2.25.59c-.59.23-1.43.6-1.6,1.29a1.62,1.62,0,0,0,0,.2v0c0,.72.9,1.26,1.41,1.63.23.16.46.33.7.48,0,0,.07.14.12.14a.22.22,0,0,1,.21.2c.39.25.75.36,1.15.58a20,20,0,0,0,4.56,2c.08,0,.34.06.35.12s0,.13-.18.09a21.91,21.91,0,0,1-4.55-1.84c-.58-.32-1.07-.49-1.62-.85a37.65,37.65,0,0,0-5-.12,16.19,16.19,0,0,0-2.5.36,6.44,6.44,0,0,0-2.28.86,2.12,2.12,0,0,0-1,1.54s0,.09,0,.13m36.31,24a10.25,10.25,0,0,1-1,2.6h0a8.1,8.1,0,0,1-2,2.27,8.44,8.44,0,0,1-4.21,1.82,8.66,8.66,0,0,1-5.39-1.11c-3.18,2.24-8.07,2.44-11.07-.22a4.54,4.54,0,0,1-1.5-2.36,1.84,1.84,0,0,1-.07-.42s0-.09,0-.14a2.43,2.43,0,0,1,0-.27,1.29,1.29,0,0,1,.92-1.34A1.94,1.94,0,0,1,96,62a.08.08,0,0,1,0,0,20.51,20.51,0,0,1-1.73-6.71q-.07-.71-.12-1.41c0-.15,0-.31,0-.46s0-.42,0-.63q0-.81,0-1.62l0-.84a3.77,3.77,0,0,1,.37-1.82c.43-.58,1.25-.64,1.8-1.06a1.13,1.13,0,0,0,.42-.94h0a.81.81,0,0,0,0-.16,3.14,3.14,0,0,0-.3-1,2.31,2.31,0,0,1-.23-.81.34.34,0,0,1,0-.1v0a1.19,1.19,0,0,1,.28-.71A6.63,6.63,0,0,1,98.9,41.8a14.28,14.28,0,0,1,3.2-.92,24,24,0,0,1,7.08-.37,16.35,16.35,0,0,1,6.63,2.12A5,5,0,0,1,118,45a2.91,2.91,0,0,1,.2.86.57.57,0,0,1,0,.13s0,.08,0,.12a4.38,4.38,0,0,1,0,.51c0,.15,0,.3-.07.46v.16a.83.83,0,0,0,0,.27.94.94,0,0,0,.61.62,3.38,3.38,0,0,1,1.18.67,2.67,2.67,0,0,1,.62,1.16,4.87,4.87,0,0,1,.17,1.07c0,.13,0,.26,0,.38s0,.38,0,.58,0,.4,0,.59v0c0,.21,0,.41,0,.61a39.88,39.88,0,0,1-1.23,7.84m-10.4,7.11h0a.16.16,0,0,1-.12.2,7.27,7.27,0,0,1-4.21,0,.17.17,0,0,1-.13-.19h0a.18.18,0,0,1,.23-.16,6.9,6.9,0,0,0,4,0,.17.17,0,0,1,.23.15"/><path class="cls-4" d="M120.38,51.53a33.55,33.55,0,0,1-.23,3.75,40.62,40.62,0,0,1-1.75,7.44,1,1,0,0,0-.23-.14,3,3,0,0,0-1.23,0l-1.34.13a20.59,20.59,0,0,1-3,.09,8.41,8.41,0,0,1-3.92-1.14,14.68,14.68,0,0,0-1.46-6.94.06.06,0,0,1,0,0,.21.21,0,1,0-.41.07A50.64,50.64,0,0,0,105.69,60c0,.38-.09.75-.12,1.13l-.2.11a11.06,11.06,0,0,1-3.65,1.25,10.86,10.86,0,0,1-3.46,0,11.27,11.27,0,0,1-1.62-.4l-.17-.06h0a14.79,14.79,0,0,1-.78-1.83,24.78,24.78,0,0,1-1.2-6.62c0-.65,0-1.31,0-2a14.2,14.2,0,0,1,.14-2.35,1.44,1.44,0,0,1,.24-.73,2.48,2.48,0,0,1,.88-.5c.7-.3,1.22-.63,1.34-1.42a3.59,3.59,0,0,0-.44-1.89.89.89,0,0,1,0-.81,3.79,3.79,0,0,1,1.08-1,13.16,13.16,0,0,1,6.15-2,21.57,21.57,0,0,1,6.85.15,16.86,16.86,0,0,1,3.33,1,8.66,8.66,0,0,1,2.9,1.85,3.6,3.6,0,0,1,.86,1.55,5.2,5.2,0,0,1,0,1.67,1.22,1.22,0,0,0,.52,1.12,13.53,13.53,0,0,1,1.26.64,3.3,3.3,0,0,1,.84,2.6"/><path class="cls-23" d="M120.38,51.53a33.55,33.55,0,0,1-.23,3.75,40.62,40.62,0,0,1-1.75,7.44,1,1,0,0,0-.23-.14,3,3,0,0,0-1.23,0l-1.34.13a20.59,20.59,0,0,1-3,.09,8.41,8.41,0,0,1-3.92-1.14,14.68,14.68,0,0,0-1.46-6.94.06.06,0,0,1,0,0,.21.21,0,1,0-.41.07A50.64,50.64,0,0,0,105.69,60c0,.38-.09.75-.12,1.13l-.2.11a11.06,11.06,0,0,1-3.65,1.25,10.86,10.86,0,0,1-3.46,0,11.27,11.27,0,0,1-1.62-.4l-.17-.06h0a14.79,14.79,0,0,1-.78-1.83,24.78,24.78,0,0,1-1.2-6.62c0-.65,0-1.31,0-2a14.2,14.2,0,0,1,.14-2.35,1.44,1.44,0,0,1,.24-.73,2.48,2.48,0,0,1,.88-.5c.7-.3,1.22-.63,1.34-1.42a3.59,3.59,0,0,0-.44-1.89.89.89,0,0,1,0-.81,3.79,3.79,0,0,1,1.08-1,13.16,13.16,0,0,1,6.15-2,21.57,21.57,0,0,1,6.85.15,16.86,16.86,0,0,1,3.33,1,8.66,8.66,0,0,1,2.9,1.85,3.6,3.6,0,0,1,.86,1.55,5.2,5.2,0,0,1,0,1.67,1.22,1.22,0,0,0,.52,1.12,13.53,13.53,0,0,1,1.26.64A3.3,3.3,0,0,1,120.38,51.53Z"/><path d="M121.77,62.73c.65-.38,1.38-.85,1.48-1.67a1.77,1.77,0,0,0-.25-1,1.38,1.38,0,0,1,.23-1.35A5.8,5.8,0,0,1,126.82,56c.24,0,.14-.42-.1-.36a6.22,6.22,0,0,0-3.57,2.49,2.13,2.13,0,0,0-.5,2.08,1.18,1.18,0,0,1,0,1.31,3,3,0,0,1-1.1.87.19.19,0,0,0,.19.33"/><path d="M98,49.75a1.21,1.21,0,0,0,1.27.57c.62-.07,1.17-.44,1.79-.55a3.46,3.46,0,0,1,1.2,0c.31,0,.6.16.91.21a.91.91,0,0,0,1.06-.75c.21-1.1-1-2-2-2h0a4.55,4.55,0,0,0-2.73.16c-.84.34-2,1.36-1.51,2.39m.31-.72a2.48,2.48,0,0,1,2.08-1.53,4.53,4.53,0,0,1,2.64.36.2.2,0,0,0,.15,0,1.84,1.84,0,0,1,.45.43c.27.4.44,1.34-.31,1.31a4.75,4.75,0,0,1-.81-.19,3.71,3.71,0,0,0-.67-.07,3.85,3.85,0,0,0-1.43.21,3.89,3.89,0,0,1-1.36.41.71.71,0,0,1-.74-.93"/><path class="cls-22" d="M99.05,50a3.89,3.89,0,0,0,1.36-.41,3.85,3.85,0,0,1,1.43-.21,3.71,3.71,0,0,1,.67.07,4.75,4.75,0,0,0,.81.19c.75,0,.58-.91.31-1.31a1.84,1.84,0,0,0-.45-.43.2.2,0,0,1-.15,0,4.53,4.53,0,0,0-2.64-.36A2.48,2.48,0,0,0,98.31,49a.71.71,0,0,0,.74.93"/><path d="M109.8,49.52a1.21,1.21,0,0,0,1.27.57c.63-.07,1.18-.44,1.8-.56a3.66,3.66,0,0,1,1.19,0c.31,0,.61.16.91.21A.92.92,0,0,0,116,49c.21-1.1-1-2-2-2h0a4.51,4.51,0,0,0-2.72.17c-.84.34-2,1.35-1.52,2.39m.31-.72a2.46,2.46,0,0,1,2.09-1.53,4.57,4.57,0,0,1,2.63.35.18.18,0,0,0,.16,0,1.63,1.63,0,0,1,.44.43c.28.4.44,1.34-.31,1.31a4.43,4.43,0,0,1-.8-.19,3.81,3.81,0,0,0-.67-.07,3.9,3.9,0,0,0-1.44.21,3.84,3.84,0,0,1-1.35.41.72.72,0,0,1-.75-.93"/><path class="cls-22" d="M110.86,49.73a4.06,4.06,0,0,0,1.35-.41,4.13,4.13,0,0,1,1.44-.22,5.1,5.1,0,0,1,.67.08,4.43,4.43,0,0,0,.8.19c.75,0,.59-.91.31-1.31a1.63,1.63,0,0,0-.44-.43.18.18,0,0,1-.16,0,4.57,4.57,0,0,0-2.63-.35,2.46,2.46,0,0,0-2.09,1.53.72.72,0,0,0,.75.93"/><path class="cls-22" d="M94.63,63.6a4,4,0,0,0,1.23,2.33,7.85,7.85,0,0,0,5.08,2,9.24,9.24,0,0,0,6-1.82c.15-.11.29.06.26.2a8.14,8.14,0,0,0,8.67-.4,8.3,8.3,0,0,0,1.62-1.51,5.23,5.23,0,0,0,.61-.87c.12-.23.22-.53-.09-.65a1.14,1.14,0,0,0-.52,0,5.43,5.43,0,0,1-3.67,3.24,9.16,9.16,0,0,1-5.59-.42,2.84,2.84,0,0,0-1.53-.32,3.74,3.74,0,0,0-1.3.63,8.42,8.42,0,0,1-2.6,1,6.91,6.91,0,0,1-5-.82A5.75,5.75,0,0,1,96,64.57c-.38-.55-.77-1.44-.29-2a1.35,1.35,0,0,0,.15-.26,1.11,1.11,0,0,0-.88.09,1.28,1.28,0,0,0-.37,1.24"/><path d="M100.14,53.8c0,.76.42,1.38.93,1.38s.92-.62.92-1.38-.41-1.38-.92-1.38-.93.61-.93,1.38"/><path d="M112.12,53.34c0,.76.42,1.38.93,1.38s.92-.62.92-1.38-.41-1.38-.92-1.38-.93.62-.93,1.38"/><path class="cls-24" d="M103.06,72.14a9.76,9.76,0,0,0,3.54.65,9.33,9.33,0,0,0,6.3-2.68,3.42,3.42,0,0,0,1.1-2.7c-4.89,3-10.19,1.74-12,1.18a.9.9,0,0,1-.62-.86c0-.49,0-1.17,0-1.65A1.71,1.71,0,0,0,100,67c-1,1.79.32,4.06,3.08,5.14"/><path class="cls-25" d="M103.06,72.14a9.76,9.76,0,0,0,3.54.65,9.33,9.33,0,0,0,6.3-2.68,3.42,3.42,0,0,0,1.1-2.7c-4.89,3-10.19,1.74-12,1.18a.9.9,0,0,1-.62-.86c0-.49,0-1.17,0-1.65A1.71,1.71,0,0,0,100,67C99,68.79,100.3,71.06,103.06,72.14Z"/><path class="cls-25" d="M101.41,67.73a.9.9,0,0,0,.62.86c1.78.56,7.08,1.82,12-1.18a2.64,2.64,0,0,0-.38-1.09c-1.15-1.89-5.23,0-7.26.07s-3.73-.46-4.94-.31C101.42,66.56,101.41,67.24,101.41,67.73Z"/><path class="cls-13" d="M101.41,67.73a.9.9,0,0,0,.62.86c1.78.56,7.08,1.82,12-1.18a2.64,2.64,0,0,0-.38-1.09c-1.15-1.89-5.23,0-7.26.07s-3.73-.46-4.94-.31c0,.48,0,1.16,0,1.65"/><path class="cls-25" d="M101.41,67.73a.9.9,0,0,0,.62.86c1.78.56,7.08,1.82,12-1.18a2.64,2.64,0,0,0-.38-1.09c-1.15-1.89-5.23,0-7.26.07s-3.73-.46-4.94-.31C101.42,66.56,101.41,67.24,101.41,67.73Z"/><path class="cls-26" d="M94.63,63.6a4,4,0,0,0,1.23,2.33,7.85,7.85,0,0,0,5.08,2,9.24,9.24,0,0,0,6-1.82c.15-.11.29.06.26.2a8.14,8.14,0,0,0,8.67-.4,8.3,8.3,0,0,0,1.62-1.51,5.23,5.23,0,0,0,.61-.87c.12-.23.22-.53-.09-.65a1.51,1.51,0,0,0-.56,0,27.91,27.91,0,0,1-5.4.22,8.59,8.59,0,0,1-3.43-1.06,7.84,7.84,0,0,1-.31,1.42,2.23,2.23,0,0,1-.9,1.32A1.16,1.16,0,0,1,106,64.5a2.89,2.89,0,0,1-.46-2c0-.31,0-.63,0-.94l-.39.22a11.16,11.16,0,0,1-2.76,1,11.5,11.5,0,0,1-5.85-.32c-.46-.16-1.07-.41-1.53-.11a1.28,1.28,0,0,0-.37,1.24"/><path class="cls-27" d="M94.63,63.6a4,4,0,0,0,1.23,2.33,7.85,7.85,0,0,0,5.08,2,9.24,9.24,0,0,0,6-1.82c.15-.11.29.06.26.2a8.14,8.14,0,0,0,8.67-.4,8.3,8.3,0,0,0,1.62-1.51,5.23,5.23,0,0,0,.61-.87c.12-.23.22-.53-.09-.65a1.51,1.51,0,0,0-.56,0,27.91,27.91,0,0,1-5.4.22,8.59,8.59,0,0,1-3.43-1.06,7.84,7.84,0,0,1-.31,1.42,2.23,2.23,0,0,1-.9,1.32A1.16,1.16,0,0,1,106,64.5a2.89,2.89,0,0,1-.46-2c0-.31,0-.63,0-.94l-.39.22a11.16,11.16,0,0,1-2.76,1,11.5,11.5,0,0,1-5.85-.32c-.46-.16-1.07-.41-1.53-.11A1.28,1.28,0,0,0,94.63,63.6Z"/><path class="cls-28" d="M99.51,55.54a2.65,2.65,0,0,1,3.38.11"/><path class="cls-28" d="M111.27,55.21a2.64,2.64,0,0,1,3.37.1"/><path class="cls-29" d="M105.88,63.22c0,.59.4,1.56,1.18,1.32.54-.16.78-.83.91-1.31a8.32,8.32,0,0,0,.27-1.39c0-.14,0-.28,0-.43a11.19,11.19,0,0,0-.12-2.24A17.19,17.19,0,0,0,107,55.32c-.3,1.19-.58,2.38-.79,3.59-.12.67-.23,1.37-.3,2.07,0,.15,0,.29,0,.44a12,12,0,0,0,0,1.8"/><path class="cls-30" d="M105.88,63.22c0,.59.4,1.56,1.18,1.32.54-.16.78-.83.91-1.31a8.32,8.32,0,0,0,.27-1.39c0-.14,0-.28,0-.43a11.19,11.19,0,0,0-.12-2.24A17.19,17.19,0,0,0,107,55.32c-.3,1.19-.58,2.38-.79,3.59-.12.67-.23,1.37-.3,2.07,0,.15,0,.29,0,.44A12,12,0,0,0,105.88,63.22Z"/><path class="cls-4" d="M121.05,64.82a5.34,5.34,0,0,0,4.63-.52,6.59,6.59,0,0,0,2.75-3.71,9,9,0,0,0-.18-5.37,3.32,3.32,0,0,0-1.47-2,2.25,2.25,0,0,0-2.43.56,11.28,11.28,0,0,0-3,4,11,11,0,0,0-.25,7m.12-2.42a2.94,2.94,0,0,0,1.1-.87,1.2,1.2,0,0,0,0-1.31,2.11,2.11,0,0,1,.5-2.08,6.19,6.19,0,0,1,3.57-2.49c.23-.06.33.31.1.36a5.81,5.81,0,0,0-3.6,2.71,1.43,1.43,0,0,0-.23,1.36,1.69,1.69,0,0,1,.25,1c-.1.82-.83,1.29-1.48,1.67a.19.19,0,0,1-.19-.33"/><path d="M121.36,62.73c.65-.38,1.39-.85,1.48-1.67a1.62,1.62,0,0,0-.25-1,1.39,1.39,0,0,1,.24-1.35A5.77,5.77,0,0,1,126.42,56c.23,0,.13-.42-.1-.36a6.19,6.19,0,0,0-3.57,2.49,2.11,2.11,0,0,0-.5,2.08,1.2,1.2,0,0,1,0,1.31,2.94,2.94,0,0,1-1.1.87.19.19,0,0,0,.19.33"/><path class="cls-4" d="M92.54,55.4a11.49,11.49,0,0,0-3.05-4,2.27,2.27,0,0,0-2.44-.56,3.3,3.3,0,0,0-1.46,2,8.92,8.92,0,0,0-.19,5.36,6.65,6.65,0,0,0,2.76,3.71,4.79,4.79,0,0,0,4.37.54,11.08,11.08,0,0,0,0-7.06m-.07,5c-.65-.38-1.38-.85-1.48-1.67a1.7,1.7,0,0,1,.26-1A1.39,1.39,0,0,0,91,56.35a5.75,5.75,0,0,0-3.59-2.71.19.19,0,0,1,.1-.36,6.13,6.13,0,0,1,3.57,2.49,2.13,2.13,0,0,1,.5,2.08,1.18,1.18,0,0,0,0,1.3,3.1,3.1,0,0,0,1.1.87.19.19,0,0,1-.19.33"/><path d="M92.47,60.35c-.65-.38-1.38-.85-1.48-1.67a1.7,1.7,0,0,1,.26-1A1.39,1.39,0,0,0,91,56.35a5.75,5.75,0,0,0-3.59-2.71.19.19,0,0,1,.1-.36,6.13,6.13,0,0,1,3.57,2.49,2.13,2.13,0,0,1,.5,2.08,1.18,1.18,0,0,0,0,1.3,3.1,3.1,0,0,0,1.1.87.19.19,0,0,1-.19.33"/><path class="cls-31" d="M94.05,34.2s3.35,2.34,6.15,2.73"/><path class="cls-31" d="M90.68,45A4.92,4.92,0,0,0,93,46.27"/><path class="cls-22" d="M122.18,39.92a6.6,6.6,0,0,0,4.74-4.68,7,7,0,0,0,.22-2,5.64,5.64,0,0,0-.11-.92,2.24,2.24,0,0,0-.09-.45c0-.08-.14-.23-.24-.24s-.19.19-.23.25c-.39.62-.7,1.31-1,2l-1.05,2q-1.11,2-2.2,4.1"/><path class="cls-22" d="M121.92,25.26c0,1.43,0,2.87,0,4.3s0,2.88,0,4.31a8.89,8.89,0,0,0,1.15-6.09,8.56,8.56,0,0,0-.42-1.58,7.83,7.83,0,0,0-.34-.79,2,2,0,0,0-.21-.38c0-.07-.14-.2-.27-.1s0,.29,0,.33"/></g><path class="cls-9" d="M52.33,76.8a9.26,9.26,0,0,0-1.8,5"/><path class="cls-9" d="M133.9,146.51a12,12,0,0,1,5.39-3.77"/></svg>