<?xml version="1.0" encoding="UTF-8"?>
<svg width="406px" height="356px" viewBox="0 0 406 356" version="1.1" xmlns="http://www.w3.org/2000/svg" xmlns:xlink="http://www.w3.org/1999/xlink">
    <!-- Generator: Sketch 63.1 (92452) - https://sketch.com -->
    <title>Padres@2x</title>
    <desc>Created with Sketch.</desc>
    <defs>
        <rect id="path-1" x="0" y="0" width="350" height="300" rx="8"></rect>
        <filter x="-12.3%" y="-13.7%" width="124.6%" height="128.7%" filterUnits="objectBoundingBox" id="filter-3">
            <feOffset dx="0" dy="2" in="SourceAlpha" result="shadowOffsetOuter1"></feOffset>
            <feGaussianBlur stdDeviation="14" in="shadowOffsetOuter1" result="shadowBlurOuter1"></feGaussianBlur>
            <feColorMatrix values="0 0 0 0 0   0 0 0 0 0   0 0 0 0 0  0 0 0 0.06 0" type="matrix" in="shadowBlurOuter1"></feColorMatrix>
        </filter>
        <path d="M179.131699,89.5645442 C179.131699,125.792022 157.307615,158.451896 123.836938,172.313494 C90.3662604,186.175093 51.8412281,178.508296 26.2276807,152.888453 C0.614133219,127.26861 -7.04319532,88.7416951 6.82662878,55.2744252 C20.6964529,21.8071554 53.3616888,-0.00889947048 89.5891658,0 C113.340241,0.00292108366 136.117374,9.44079774 152.909856,26.2374075 C169.702339,43.0340173 179.134617,65.8134694 179.131699,89.5645442" id="path-4"></path>
    </defs>
    <g id="Screens" stroke="none" stroke-width="1" fill="none" fill-rule="evenodd">
        <g id="Inicio-" transform="translate(-517.000000, -336.000000)">
            <g id="Padres" transform="translate(545.000000, 362.000000)">
                <g id="Rectangle-Copy">
                    <g id="Card-Copy" fill="#E4E9F2" fill-rule="nonzero">
                        <g id="Card" fill="none" fill-rule="evenodd">
                            <g id="Group-2">
                                <mask id="mask-2" fill="white">
                                    <use xlink:href="#path-1"></use>
                                </mask>
                                <g id="Mask">
                                    <use fill="black" fill-opacity="1" filter="url(#filter-3)" xlink:href="#path-1"></use>
                                    <use fill="#FFFFFF" fill-rule="evenodd" xlink:href="#path-1"></use>
                                </g>
                                <text id="Alumnos" font-family="Montserrat-Medium, Montserrat" font-size="24" font-weight="400" letter-spacing="0.5" fill="#333E53">
                                    <tspan x="65.558" y="264">Padres de familia</tspan>
                                </text>
                            </g>
                        </g>
                    </g>
                    <g id="madre_Mesa-de-trabajo-1" transform="translate(85.000000, 30.000000)">
                        <g id="Group" transform="translate(0.646642, 0.671264)">
                            <mask id="mask-5" fill="white">
                                <use xlink:href="#path-4"></use>
                            </mask>
                            <use id="Mask" fill="#E4E9F2" fill-rule="nonzero" xlink:href="#path-4"></use>
                            <g mask="url(#mask-5)">
                                <g transform="translate(45.750000, 18.828736)">
                                    <path d="M33.4512314,13.3957729 C32.2194994,15.3859475 30.2335463,16.7917386 27.9471201,17.2919526 C25.660694,17.7921667 23.2691542,17.3440639 21.318917,16.0500262 C19.27481,14.8646922 17.792205,12.9082786 17.2037908,10.6197946 C16.6153767,8.33131064 16.9704288,5.90239934 18.1892751,3.87809607 C20.8138166,-0.340978166 25.9440524,-1.073869 30.1532227,1.59028821 C34.362393,4.25444541 36.0757729,9.19650655 33.4512314,13.3957729 Z" id="Path" stroke="none" fill="#563634" fill-rule="nonzero"></path>
                                    <path d="M20.6454498,105.878672 L19.5758253,109.394568 C19.1697642,110.721694 17.5950393,111.672472 16.4362795,110.959389 C10.3156507,107.245415 3.25414847,100.312664 0.550375546,96.2421485 C-0.0291003207,95.4729031 -0.150158341,94.451476 0.233449782,93.5680873 C0.233449782,93.5680873 5.83907424,78.9994061 12.3261485,69.0360524 C13.8810655,72.3934847 17.0305153,77.6128559 21.4476681,76.9591965 C17.6643668,82.3271266 11.9795109,92.5182707 11.9795109,92.5182707 C11.471004,93.2590846 11.4175376,94.2214792 11.8408559,95.0140611 C13.6433712,98.3219738 17.6940786,101.679406 19.764,103.293747 C20.565735,103.902104 20.9020097,104.946533 20.6058341,105.908384" id="Path" stroke="none" fill="#F2C6A5" fill-rule="nonzero"></path>
                                    <path d="M65.4211179,115.970777 C65.4211179,116.267895 65.4211179,116.594725 65.4211179,116.96117 L65.4211179,116.96117 C65.4211179,129.172716 64.7278428,185.030882 56.8740262,206.185677 C54.1323472,207.526494 50.9039115,207.418879 48.257607,205.898463 L43.860262,134.32276 C42.2261135,134.32276 40.6216769,134.32276 39.0865677,134.213817 L34.6793188,205.908367 C32.0330142,207.428783 28.8045785,207.536398 26.0628996,206.195581 C17.9713886,184.406934 17.5257118,125.736052 17.5059039,115.970777 L17.5059039,114.584227 L25.2705852,117.159249 L58.1318253,117.000786 L65.4310218,114.584227 L65.4310218,115.970777" id="Path" stroke="none" fill="#0275D8" fill-rule="nonzero"></path>
                                    <path d="M88.2397729,63.13331 L88.08131,63.7968734 L87.7247686,65.3220786 L87.1305328,67.9070044 L86.4273537,70.9871266 L81.7229869,91.4585502 C80.2076856,98.86669 76.0678428,99.2529432 74.0771528,97.4009083 C69.5312489,93.1026026 62.8262882,83.5354061 57.7059563,71.5417467 C61.3902183,71.8982882 67.3325764,71.4030917 68.9667249,67.253345 C70.5580513,72.1043479 72.7718921,76.7284454 75.5528384,81.0099039 C75.5528384,81.0099039 78.1278603,74.6911965 79.8214323,69.0756681 C80.148262,68.0159476 80.4453799,66.9859389 80.6830742,66.0252576 C80.9016494,65.1697104 81.0768423,64.3036624 81.2079825,63.4304279 C81.2079825,63.2323493 81.2277904,63.0441747 81.2674061,62.8659039 C81.297473,62.6558989 81.3140136,62.4441789 81.3169258,62.2320524 L84.1395459,62.5984978 L84.1395459,62.5984978 L88.2397729,63.13331 Z" id="Path" stroke="none" fill="#F2C6A5" fill-rule="nonzero"></path>
                                    <path d="M23.2105677,76.3550568 C22.6550497,76.6338156 22.0607725,76.8274565 21.4476681,76.9294847 C17.0305153,77.6128559 13.8810655,72.3934847 12.3261485,69.0063406 C12.1676856,68.669607 12.0290306,68.3427773 11.9002795,68.0159476 C11.4878858,67.0283161 11.8323759,65.8869334 12.7223057,65.2923668 L20.3780437,60.1819389 L22.3588297,71.3337642 L22.9827773,74.8793712 L23.2105677,76.3550568 Z" id="Path" stroke="none" fill="#8E388E" fill-rule="nonzero"></path>
                                    <path d="M61.8358952,60.2512664 L69.5015371,65.3517904 C70.3911845,65.946814 70.732147,67.0902855 70.3136594,68.0753712 C68.8181659,71.640786 64.8268821,79.2271965 59.0033712,76.3550568 L61.8358952,60.2512664 Z" id="Path" stroke="none" fill="#8E388E" fill-rule="nonzero"></path>
                                    <path d="M66.1837205,32.1934323 L60.6177118,30.4800524 C60.3800175,28.4992664 59.7263581,23.8345153 59.7263581,23.8345153 C58.9204685,24.6732675 57.9582058,25.3461785 56.8938341,25.8153013 C55.7305008,26.3559207 54.3978168,26.4023681 53.1996681,25.9440524 C51.8428297,25.3993362 52.2786026,22.6856594 52.2786026,22.6856594 C52.2786026,22.6856594 46.2273013,27.2018515 43.0778515,25.7261659 C40.8692751,24.7357729 42.2063057,21.180262 42.2558253,21.0515109 C42.0973624,21.2099738 36.9770306,26.2510742 33.0550742,26.280786 C32.1884233,29.2081493 31.4972212,32.1846179 30.9851528,35.1943231 C30.9527103,35.3457727 30.8439641,35.4695183 30.6979389,35.5211528 C30.6979389,35.6994236 30.6979389,35.8975022 30.6979389,36.1054847 C30.6979389,36.1054847 21.2099738,33.7681572 23.0322969,30.4206288 C24.7456769,27.271179 21.0515109,19.5263057 22.2300786,16.1094498 C26.4095371,3.64040175 45.7915284,2.15481223 50.3671441,1.97654148 C50.9947643,1.95145886 51.6021932,2.20093861 52.0310044,2.65991266 C54.3936602,5.17096788 56.163607,8.17953898 57.2107598,11.4645066 C58.4552277,10.3493556 60.0393547,9.68639498 61.7071441,9.58275983 C62.6518252,9.52867595 63.5614826,9.94823222 64.133607,10.7019039 C67.0552664,14.5545328 67.0750742,28.5884017 66.1837205,32.1934323 Z" id="Path" stroke="none" fill="#684642" fill-rule="nonzero"></path>
                                    <path d="M30.7276507,35.214131 C30.7276507,35.3032664 30.7276507,35.3924017 30.7276507,35.501345" id="Path" stroke="none" fill="#F3D19F" fill-rule="nonzero"></path>
                                    <path d="M30.7276507,35.214131 C30.7276507,35.3032664 30.7276507,35.3924017 30.7276507,35.501345" id="Path" stroke="#000000" stroke-width="0.5" fill="none" stroke-linecap="round" stroke-linejoin="round"></path>
                                    <path d="M30.8960175,42.1072664 L29.4995633,42.018131 C27.3306026,41.7111092 24.8051004,40.4335022 24.2801921,36.3332751 C23.9335546,33.6394061 24.6268297,32.1340087 25.6667424,31.3119825 C26.5120309,30.7064218 27.5288682,30.3871419 28.5685939,30.400821 L32.0349694,30.0442795" id="Path" stroke="none" fill="#F2C6A5" fill-rule="nonzero"></path>
                                    <path d="M27.0235808,32.5301659 C27.0235808,32.5301659 29.2717729,33.1045939 29.4203319,36.491738 C29.5920481,37.3394169 29.8543574,38.1661892 30.2027424,38.9578166" id="Path" stroke="#000000" stroke-width="0.5" fill="none" stroke-linecap="round" stroke-linejoin="round"></path>
                                    <path d="M29.9056245,40.601869 C29.9083375,40.7524054 29.8497326,40.897576 29.74327,41.0040386 C29.6368074,41.1105012 29.4916368,41.169106 29.3411004,41.166393 C29.1234106,41.195418 28.9086454,41.095559 28.7905438,40.9104014 C28.6724421,40.7252438 28.6724421,40.4883981 28.7905438,40.3032405 C28.9086454,40.1180829 29.1234106,40.0182239 29.3411004,40.0472489 C29.4899033,40.0445913 29.6335308,40.101849 29.7396942,40.2061498 C29.8458576,40.3104507 29.9056482,40.4530424 29.9056245,40.601869" id="Path" stroke="none" fill="#F3D19F" fill-rule="nonzero"></path>
                                    <path d="M60.6969432,35.788559 L60.6969432,35.788559 C60.6969432,35.6003843 60.6969432,35.4221135 60.6969432,35.2636507 C60.6969432,34.6694148 60.6969432,33.8870044 60.6969432,33.0352664 C60.6969432,30.7078428 59.7857817,23.8345153 59.7857817,23.8345153 C58.9753215,24.6723872 58.0100134,25.3450758 56.9433537,25.8153013 C55.7802904,26.3570475 54.4471456,26.403511 53.2491878,25.9440524 C51.8923493,25.3993362 52.3281223,22.6757555 52.3281223,22.6757555 C52.3281223,22.6757555 46.2867249,27.2018515 43.1273712,25.7261659 C40.9187948,24.7357729 42.2657293,21.180262 42.305345,21.0515109 C42.1468821,21.2099738 37.0364541,26.2510742 33.1045939,26.280786 C32.237943,29.2081493 31.5467408,32.1846179 31.0346725,35.1943231 C31.0022299,35.3457727 30.8934837,35.4695183 30.7474585,35.5211528 C30.6074416,37.7244873 30.6737564,39.9360875 30.9455371,42.1270742 C31.0444433,43.0058162 31.2336166,43.8720308 31.5100611,44.712 C32.5895895,47.683179 35.1448035,49.2876157 37.6703057,50.3374323 C39.6594247,51.0658922 41.7452736,51.4964114 43.860262,51.6150393 L45.0685415,51.7041747 C45.9400873,51.7437904 46.7720175,51.7437904 47.5643319,51.7041747 C48.6437871,51.6810601 49.7198748,51.5751068 50.7831092,51.3872489 C52.908623,51.0674913 54.9394368,50.290308 56.7353712,49.109345 L57.0919127,48.8419389 L57.0919127,48.8419389 C57.301567,48.6872344 57.503208,48.5219549 57.6960524,48.3467424 L57.7752838,48.2774148 L58.0823057,47.9802969 C58.181345,47.8911616 58.2605764,47.7921223 58.3497118,47.7029869 C58.4388472,47.6138515 58.468559,47.5742358 58.5279825,47.5148122 L58.6963493,47.3167336 C58.7815522,47.2226228 58.8609313,47.123399 58.9340437,47.0196157 C59.3132962,46.5554488 59.6450845,46.0544484 59.9244367,45.5241223 C59.9880933,45.4260975 60.0443708,45.3234738 60.0928035,45.2171004 C60.1522271,45.0883493 60.2215546,44.9496943 60.2710742,44.8209432 C60.3205939,44.6921921 60.3899214,44.563441 60.439441,44.43469 L60.588,44.0583406 L60.7068472,43.6918952 L60.7068472,43.6918952 C60.7068472,43.6126638 60.7068472,43.5334323 60.7761747,43.4542009 L60.8256943,43.2858341 C60.8212082,43.2231894 60.8212082,43.1603041 60.8256943,43.0976594 C60.8256943,42.9986201 60.8256943,42.8995808 60.8950218,42.7906376 C60.9643493,42.6816943 60.8950218,42.582655 60.9544454,42.4836157 C61.013869,42.3845764 60.9544454,42.3845764 60.9544454,42.3251528 C60.9504739,42.2856367 60.9504739,42.2458219 60.9544454,42.2063057 C61.013869,41.8002445 61.0534847,41.4040873 61.0831965,41.0079301 C61.0243838,39.2728318 60.8590066,37.5429868 60.588,35.8281747 M38.5022358,30.8762096 C38.5022358,30.0046638 38.9776245,29.3113886 39.5520524,29.3113886 C40.1264803,29.3113886 40.6117729,30.0046638 40.6117729,30.8762096 C40.6117729,31.7477555 40.1363843,32.4509345 39.5520524,32.4509345 C38.9677205,32.4509345 38.5022358,31.7477555 38.5022358,30.8762096 M50.9910917,48.2972227 C49.8349645,48.7432317 48.6054051,48.968315 47.3662533,48.960786 C44.939375,48.9007362 42.6252154,47.9241183 40.889083,46.2273013 C40.1262483,45.5208747 39.7162938,44.5123138 39.7699389,43.4740087 C39.8163418,43.0728717 39.9516838,42.6871471 40.1660961,42.3449607 C41.3347598,40.4235983 45.5142183,42.3449607 47.5841397,42.4241921 C49.6540611,42.5034236 51.3971528,41.9587074 52.6351441,42.1072664 C53.2696356,42.1471632 53.8334981,42.5255944 54.1108297,43.0976594 C55.1012227,44.9298865 53.7740961,47.2375022 50.9613799,48.3467424" id="Shape" stroke="none" fill="#F2C6A5" fill-rule="nonzero"></path>
                                    <path d="M60.9643493,35.6994236 C60.9643493,35.6003843 60.9643493,35.5112489 60.9643493,35.4122096" id="Path" stroke="none" fill="#F3D19F" fill-rule="nonzero"></path>
                                    <path d="M60.9643493,35.6994236 C60.9643493,35.6003843 60.9643493,35.5112489 60.9643493,35.4122096" id="Path" stroke="#000000" stroke-width="0.5" fill="none" stroke-linecap="round" stroke-linejoin="round"></path>
                                    <path d="M66.0054498,31.5199651 C65.5450219,31.1599676 65.0106427,30.9063066 64.4406288,30.7771703 C64.0287919,30.6751628 63.6069961,30.6187019 63.1828297,30.6088035 C62.5806138,32.2731301 61.8315668,33.8805982 60.9445415,35.4122096 L60.7167511,35.788559 C60.9877577,37.5033711 61.1531349,39.233216 61.2119476,40.9683144 C61.2119476,41.3644716 61.1426201,41.7606288 61.0831965,42.16669 C61.0784254,42.206162 61.0784254,42.2460651 61.0831965,42.2855371 L62.1924367,42.2261135 C63.9946878,42.0366101 65.5986069,40.9992129 66.5105502,39.4332052 C66.9941606,38.5361553 67.3001713,37.554231 67.4118079,36.5412576 C67.7584454,33.8374847 67.0651703,32.3320873 66.0252576,31.5199651" id="Path" stroke="none" fill="#F2C6A5" fill-rule="nonzero"></path>
                                    <line x1="63.1828297" y1="30.6088035" x2="63.1035983" y2="30.6088035" id="Path" stroke="none" fill="#F3D19F" fill-rule="nonzero"></line>
                                    <line x1="63.1828297" y1="30.6088035" x2="63.1035983" y2="30.6088035" id="Path" stroke="#000000" stroke-width="0.5" fill="none" stroke-linecap="round" stroke-linejoin="round"></line>
                                    <path d="M64.6585153,32.7282445 C64.6585153,32.7282445 62.4103231,33.3125764 62.2617642,36.6898166 C62.0900128,37.5387034 61.8242706,38.3658259 61.4694498,39.1558952" id="Path" stroke="#000000" stroke-width="0.5" fill="none" stroke-linecap="round" stroke-linejoin="round"></path>
                                    <path d="M46.554131,34.5802795 C46.554131,34.5802795 50.6840699,33.6691179 49.8719476,38.4031965" id="Path" stroke="#000000" stroke-width="0.5" fill="none" stroke-linecap="round" stroke-linejoin="round"></path>
                                    <path d="M28.7072489,30.4800524 C30.4206288,32.2924716 30.3810131,42.16669 30.4998603,42.9292926 C30.7375152,44.6377007 31.2668157,46.2926026 32.0646812,47.8218341 C32.1704837,48.0269901 32.4130051,48.1205948 32.6292052,48.0397205 C32.6292052,48.0397205 32.8272838,48.0397205 33.1343057,46.4550917 L34.2732576,26.3104978 L34.1742183,25.2408734 L30.2126463,26.3104978" id="Path" stroke="none" fill="#684642" fill-rule="nonzero"></path>
                                    <path d="M63.0837904,26.3005939 C63.9355284,32.8272838 61.9448384,46.4451878 61.9448384,46.4451878 C61.6279127,48.0001048 61.4298341,48.0298166 61.4298341,48.0298166 C61.2136339,48.1106909 60.9711126,48.0170861 60.86531,47.8119301 C60.282315,46.1667442 59.9193289,44.4517179 59.7857817,42.7114061 C59.6669345,41.9488035 60.3998253,32.7282445 60.2908821,26.9443493" id="Path" stroke="none" fill="#684642" fill-rule="nonzero"></path>
                                    <line x1="42.2657293" y1="21.0614148" x2="42.2558253" y2="21.0614148" id="Path" stroke="#000000" stroke-width="0.5" fill="none" stroke-linecap="round" stroke-linejoin="round"></line>
                                    <path d="M39.6808035,32.3717031 C39.1063755,32.3717031 38.6309869,31.668524 38.6309869,30.7969782 C38.6309869,29.9254323 39.1063755,29.2321572 39.6808035,29.2321572 C40.2552314,29.2321572 40.740524,29.9254323 40.740524,30.7969782 C40.740524,31.668524 40.2651354,32.3717031 39.6808035,32.3717031 Z" id="Path" stroke="#000000" stroke-width="0.5" fill="none" stroke-linecap="round" stroke-linejoin="round"></path>
                                    <path d="M35.4023057,88.0119825 C35.4023057,88.0119825 44.1771878,89.4183406 48.5547249,88.0119825" id="Path" stroke="#822E82" stroke-width="0.5" fill="none" stroke-linecap="round" stroke-linejoin="round"></path>
                                    <path d="M40.740524,30.7969782 C40.740524,31.668524 40.2651354,32.3717031 39.6808035,32.3717031 C39.0964716,32.3717031 38.6309869,31.668524 38.6309869,30.7969782 C38.6309869,29.9254323 39.1063755,29.2321572 39.6808035,29.2321572 C40.2552314,29.2321572 40.740524,29.9254323 40.740524,30.7969782" id="Path" stroke="none" fill="#000000" fill-rule="nonzero"></path>
                                    <path d="M39.6808035,29.2321572 C39.0995692,29.3989717 38.4793481,29.3676122 37.9179039,29.1430218" id="Path" stroke="#000000" stroke-width="0.5" fill="none" stroke-linecap="round" stroke-linejoin="round"></path>
                                    <path d="M53.0907249,30.6880349 C53.0907249,31.5595808 53.5562096,32.2627598 54.1405415,32.2627598 C54.7248734,32.2627598 55.200262,31.5595808 55.200262,30.6880349 C55.200262,29.8164891 54.7248734,29.123214 54.1405415,29.123214 C53.5562096,29.123214 53.0907249,29.8164891 53.0907249,30.6880349" id="Path" stroke="#000000" stroke-width="0.5" fill="#000000" fill-rule="nonzero"></path>
                                    <path d="M54.1405415,29.123214 C54.7220323,29.2877796 55.3415148,29.2564574 55.903441,29.0340786" id="Path" stroke="#000000" stroke-width="0.5" fill="none" stroke-linecap="round" stroke-linejoin="round"></path>
                                    <path d="M57.606917,86.5561048 C62.9055197,77.6425677 62.3211878,60.4988646 62.3211878,60.4988646 C61.1921397,59.9343406 60.0630917,59.4193362 58.9439476,58.9637555 C58.1615371,58.6468297 57.3890306,58.3596157 56.616524,58.1021135 C55.4676681,57.7059563 54.3287162,57.3593188 53.1996681,57.1117205 C50.5355109,60.8157904 43.9692052,64.4307249 43.9692052,64.4307249 C41.5823581,64.9952489 35.8677904,59.0528908 33.4512314,56.2995983 C32.242952,56.4877729 31.0940961,56.7155633 30.0244716,56.9631616 L29.4995633,57.0919127 C26.3508235,57.8155379 23.2917352,58.8850563 20.3780437,60.2809782 C17.7634061,63.5888908 23.5373974,86.6353362 23.5373974,86.6353362 C19.2886114,94.5584803 17.4464803,111.395162 16.8720524,117.981275 C23.2600873,121.833904 44.2068996,132.094376 66.1242969,117.248384 C65.2131354,105.710306 57.606917,86.5561048 57.606917,86.5561048 Z" id="Path" stroke="none" fill="#A546A0" fill-rule="nonzero"></path>
                                    <path d="M19.3282271,12.0983581 C18.5821068,13.0449143 17.5329705,13.7058702 16.357048,13.9702009 C15.366655,14.2475109 17.4761921,17.7931179 20.1106376,14.9605939" id="Path" stroke="none" fill="#563634" fill-rule="nonzero"></path>
                                    <path d="M19.3282271,14.237607 C19.4920438,15.4460255 19.0901882,16.6625519 18.2387948,17.5356157 C17.6247511,18.2982183 21.5268996,19.7937118 21.8042096,15.9707948" id="Path" stroke="none" fill="#563634" fill-rule="nonzero"></path>
                                    <rect id="Rectangle" stroke="none" fill="#A546A0" fill-rule="nonzero" x="52.0508122" y="69.66" width="1" height="9.63652402"></rect>
                                    <path d="M30.0937991,40.2453275 C30.0937991,40.6610315 29.7568044,40.9980262 29.3411004,40.9980262 C28.9253964,40.9980262 28.5884017,40.6610315 28.5884017,40.2453275 C28.5884017,39.8296235 28.9253964,39.4926288 29.3411004,39.4926288 C29.7568044,39.4926288 30.0937991,39.8296235 30.0937991,40.2453275" id="Path" stroke="none" fill="#8C6FD5" fill-rule="nonzero"></path>
                                    <path d="M64.7284323,40.2453275 C64.7284323,40.6610315 64.3914376,40.9980262 63.9757336,40.9980262 C63.5600296,40.9980262 63.2230349,40.6610315 63.2230349,40.2453275 C63.2230349,39.8296235 63.5600296,39.4926288 63.9757336,39.4926288 C64.3914376,39.4926288 64.7284323,39.8296235 64.7284323,40.2453275" id="Path-Copy" stroke="none" fill="#8C6FD5" fill-rule="nonzero"></path>
                                    <path d="M43.860262,134.32276 C45.5991339,134.475533 47.3510161,134.372089 49.0598253,134.015738" id="Path" stroke="#034F87" stroke-width="0.5" fill="none" stroke-linecap="round" stroke-linejoin="round"></path>
                                    <path d="M37.5811703,26.6076157 C37.5811703,26.6076157 40.2057118,23.9236507 41.5427424,26.8255022" id="Path" stroke="#000000" stroke-width="0.5" fill="none" stroke-linecap="round" stroke-linejoin="round"></path>
                                    <path d="M52.4964891,27.9545502 C52.4964891,27.9545502 55.1111266,25.2606812 56.4580611,28.1724367" id="Path" stroke="#000000" stroke-width="0.5" fill="none" stroke-linecap="round" stroke-linejoin="round"></path>
                                    <path d="M50.9910917,48.2972227 C49.2182882,47.2176943 44.850655,44.9298865 40.9187948,46.2273013 C40.1536293,45.5224885 39.7432098,44.5127839 39.7996507,43.4740087 C44.7516157,46.5343231 50.2185852,45.2468122 52.0409083,44.6723843 C52.4178337,44.5486837 52.6732109,44.1975401 52.6747598,43.8008384 C52.6747598,43.295738 52.6747598,42.6024629 52.6747598,42.1072664 C53.3078776,42.1511926 53.8699053,42.5283925 54.1504454,43.0976594 C55.1408384,44.9298865 53.8137118,47.2375022 51.0009956,48.3467424" id="Path" stroke="none" fill="#FF74BE" fill-rule="nonzero"></path>
                                    <path d="M50.9910917,48.2972227 C49.2182882,47.2176943 44.850655,44.9298865 40.9187948,46.2273013 C40.1536293,45.5224885 39.7432098,44.5127839 39.7996507,43.4740087 C44.7516157,46.5343231 50.2185852,45.2468122 52.0409083,44.6723843 C52.4178337,44.5486837 52.6732109,44.1975401 52.6747598,43.8008384 C52.6747598,43.295738 52.6747598,42.6024629 52.6747598,42.1072664 C53.3078776,42.1511926 53.8699053,42.5283925 54.1504454,43.0976594 C55.1606463,44.850655 53.7641921,47.1879825 50.9910917,48.2972227 Z" id="Path" stroke="#000000" stroke-width="0.5" fill="none" stroke-linecap="round" stroke-linejoin="round"></path>
                                    <path d="M52.6747598,43.7909345 C52.6576883,44.1847002 52.4087605,44.5308654 52.0409083,44.6723843 C50.2185852,45.2468122 44.8011354,46.5343231 39.7996507,43.4740087 C39.8460536,43.0728717 39.9813956,42.6871471 40.1958079,42.3449607 C41.3644716,40.4235983 45.5439301,42.3449607 47.6138515,42.4241921 C49.6837729,42.5034236 51.4268646,41.9587074 52.6648559,42.1072664 C52.6648559,42.6024629 52.6648559,43.295738 52.6747598,43.7909345 Z" id="Path" stroke="#000000" stroke-width="0.5" fill="none" stroke-linecap="round" stroke-linejoin="round"></path>
                                    <path d="M52.6747598,43.7909345 C52.6576883,44.1847002 52.4087605,44.5308654 52.0409083,44.6723843 C50.2185852,45.2468122 44.8011354,46.5343231 39.7996507,43.4740087 C39.8460536,43.0728717 39.9813956,42.6871471 40.1958079,42.3449607 C41.3644716,40.4235983 45.5439301,42.3449607 47.6138515,42.4241921 C49.6837729,42.5034236 51.4268646,41.9587074 52.6648559,42.1072664 C52.6648559,42.6024629 52.6648559,43.295738 52.6648559,43.7909345" id="Path" stroke="none" fill="#FFFFFF" fill-rule="nonzero"></path>
                                    <path d="M52.6747598,43.7909345 C52.6576883,44.1847002 52.4087605,44.5308654 52.0409083,44.6723843 C50.2185852,45.2468122 44.8011354,46.5343231 39.7996507,43.4740087 C39.8460536,43.0728717 39.9813956,42.6871471 40.1958079,42.3449607 C41.3644716,40.4235983 45.5439301,42.3449607 47.6138515,42.4241921 C49.6837729,42.5034236 51.4268646,41.9587074 52.6648559,42.1072664 C52.6648559,42.6024629 52.6648559,43.295738 52.6747598,43.7909345 Z" id="Path" stroke="#000000" stroke-width="0.5" fill="none" stroke-linecap="round" stroke-linejoin="round"></path>
                                    <path d="M50.9910917,48.2972227 C49.8349645,48.7432317 48.6054051,48.968315 47.3662533,48.960786 C44.9385296,48.9046712 42.622986,47.9274693 40.889083,46.2273013 C44.850655,44.9298865 49.1885764,47.2176943 50.9613799,48.2972227" id="Path" stroke="none" fill="#F9487B" fill-rule="nonzero"></path>
                                    <path d="M50.9910917,48.2972227 C49.8349645,48.7432317 48.6054051,48.968315 47.3662533,48.960786 C44.9385296,48.9046712 42.622986,47.9274693 40.889083,46.2273013 C44.850655,44.9298865 49.2182882,47.2176943 50.9910917,48.2972227 Z" id="Path" stroke="#000000" stroke-width="0.5" fill="none" stroke-linecap="round" stroke-linejoin="round"></path>
                                    <path d="M51.5060961,56.6561397 C49.1895711,59.019701 46.626311,61.128082 43.860262,62.9451354 C40.3938865,61.865607 37.4028996,57.9931703 35.9371179,55.903441 C36.6997205,55.8044017 37.4722271,55.7350742 38.2744454,55.6855546 C38.3271882,55.4769444 38.3668809,55.2652503 38.3932926,55.0517031 C38.5718051,53.60308 38.6413279,52.1431008 38.6012751,50.6840699 C40.2860535,51.1759328 42.0197077,51.4814811 43.7711266,51.5952314 L44.9794061,51.6843668 C45.8608559,51.6843668 46.692786,51.7437904 47.4851004,51.6843668 C47.831738,51.6843668 48.1783755,51.6843668 48.4754934,51.6348472 C48.4754934,52.8035109 48.4754934,54.071214 48.5547249,55.0219913 C48.5547249,55.4577642 48.6042445,55.8341135 48.6240524,56.1015197 C49.6243493,56.2698865 50.5652227,56.4481572 51.5060961,56.6561397 Z" id="Path" stroke="none" fill="#F2C6A5" fill-rule="nonzero"></path>
                                    <circle id="Oval" stroke="none" fill="#F2C6A5" fill-rule="nonzero" cx="84.8130131" cy="60.5186725" r="4.62513537"></circle>
                                    <path d="M79.0588297,59.0925066 C78.8409432,58.1021135 80.712786,56.4580611 80.6929782,55.1309345 C80.6492062,54.3291644 80.5298293,53.5333182 80.3364367,52.7539913 C80.3364367,52.7539913 86.2787948,49.3470393 90.6266201,53.5760175 C90.6266201,53.5760175 90.2502707,57.0919127 90.1413275,57.9337467 C89.9409107,59.3512469 89.6093577,60.7470853 89.1509345,62.1033013 L80.8811528,62.8758079 C80.1232147,61.6928948 79.5113193,60.4225466 79.0588297,59.0925066 L79.0588297,59.0925066 Z" id="Path" stroke="none" fill="#F2C6A5" fill-rule="nonzero"></path>
                                    <path d="M78.870655,44.9199825 C77.6425677,45.3755633 78.5240175,47.6435633 79.3757555,50.0403144 C80.0294148,51.8527336 80.3661485,52.7837031 80.3661485,52.7837031 L83.3373275,52.506393 C83.3373275,52.506393 82.8520349,50.5949345 82.2280873,48.9409782 C81.3367336,46.5937467 80.1086463,44.4644017 78.870655,44.9199825 Z" id="Path" stroke="none" fill="#F2C6A5" fill-rule="nonzero"></path>
                                    <path d="M75.2854323,54.5664105 C74.4237904,55.5568035 76.2758253,57.1315284 78.1575721,58.8350044 C79.05811,59.6584047 79.8803549,60.5635372 80.6137467,61.5387773 L82.4261659,58.8746201 C81.7364316,58.0275771 80.9742518,57.2422005 80.148262,56.5273886 C78.2467074,54.8833362 76.1569782,53.5859214 75.2854323,54.5664105 Z" id="Path" stroke="none" fill="#F2C6A5" fill-rule="nonzero"></path>
                                    <path d="M83.7334847,42.9491004 C82.4261659,43.0778515 82.7926114,46.0985502 83.0204017,48.6339563 C83.1358282,49.8460967 83.1358282,51.0664622 83.0204017,52.2786026 L86.1698515,51.5754236 C86.2368338,50.485942 86.2136457,49.3927878 86.100524,48.3071266 C85.7835983,45.841048 85.0408035,42.869869 83.7334847,42.9491004 Z" id="Path" stroke="none" fill="#F2C6A5" fill-rule="nonzero"></path>
                                    <path d="M88.2100611,45.0388297 C87.0215895,44.8704629 86.8829345,47.0196157 86.5065852,49.2777118 C86.3719537,50.2340687 86.070244,51.1593117 85.6152314,52.0111965 L88.6656419,52.367738 C88.9421029,51.4849139 89.1441882,50.5804994 89.2697817,49.6639651 C89.5867074,47.3959651 89.4183406,45.2171004 88.2100611,45.0388297 Z" id="Path" stroke="none" fill="#F2C6A5" fill-rule="nonzero"></path>
                                    <path d="M91.0921048,48.0397205 C90.220559,47.8020262 89.9135371,49.3767511 89.4183406,51.0703231 C89.2286434,51.7790513 88.9169649,52.4493276 88.4972751,53.0511092 L90.3691179,53.8731354 C90.846795,53.1884354 91.2143856,52.4332037 91.4585502,51.6348472 C91.914131,49.9412751 91.9735546,48.2873188 91.0921048,48.0397205 Z" id="Path" stroke="none" fill="#F2C6A5" fill-rule="nonzero"></path>
                                    <path d="M80.1383581,56.5769083 C81.6437555,58.0724017 83.8622358,57.1414323 84.3772402,60.3503057" id="Path" stroke="#E2B486" stroke-width="0.5" fill="none" stroke-linecap="round" stroke-linejoin="round"></path>
                                    <path d="M66.1837205,120.625624 C59.2623805,124.981352 51.3738067,127.563253 43.2165066,128.142707 C30.4800524,129.014253 16.6640699,120.625624 16.6640699,120.625624 C16.6640699,120.625624 16.7234934,119.635231 16.8720524,117.941659 C23.2600873,121.794288 44.2068996,132.05476 66.1242969,117.208769 C66.2365205,118.344237 66.2563937,119.486941 66.1837205,120.625624 L66.1837205,120.625624 Z" id="Path" stroke="none" fill="#8E388E" fill-rule="nonzero"></path>
                                    <path d="M53.1996681,57.0721048 C50.5355109,60.7761747 43.9692052,64.3911092 43.9692052,64.3911092 C41.5823581,64.9556332 35.8677904,59.0132751 33.4512314,56.2599825 L34.362393,56.1213275 L34.362393,56.1213275 C34.8873013,56.0420961 35.4320175,55.9727686 35.9767336,55.9232489 C37.4227074,58.0624978 40.4136943,61.865607 43.8998777,62.9649432 C46.6590166,61.1467399 49.2155908,59.0383963 51.5259039,56.6759476 L52.2488908,56.8344105 L52.2488908,56.9829694 C52.2529427,56.940148 52.2529427,56.8970397 52.2488908,56.8542183 L53.1996681,57.0721048 Z" id="Path" stroke="none" fill="#8E388E" fill-rule="nonzero"></path>
                                    <path d="M87.1305328,67.9070044 L86.4273537,70.9871266 L85.9519651,70.9871266 C83.769714,70.9468969 81.6450681,70.2799368 79.8313362,69.0657642 C80.1581659,68.0060437 80.4552838,66.9760349 80.6929782,66.0153537 C82.4702528,67.536245 84.8130096,68.2246551 87.1305328,67.9070044 L87.1305328,67.9070044 Z" id="Path" stroke="none" fill="#8E388E" fill-rule="nonzero"></path>
                                </g>
                            </g>
                        </g>
                    </g>
                </g>
            </g>
        </g>
    </g>
</svg>