<?xml version="1.0" encoding="UTF-8"?>
<svg width="406px" height="356px" viewBox="0 0 406 356" version="1.1" xmlns="http://www.w3.org/2000/svg" xmlns:xlink="http://www.w3.org/1999/xlink">
    <!-- Generator: Sketch 63.1 (92452) - https://sketch.com -->
    <title>Profesores@2x</title>
    <desc>Created with Sketch.</desc>
    <defs>
        <rect id="path-1" x="0" y="0" width="350" height="300" rx="8"></rect>
        <filter x="-12.3%" y="-13.7%" width="124.6%" height="128.7%" filterUnits="objectBoundingBox" id="filter-3">
            <feOffset dx="0" dy="2" in="SourceAlpha" result="shadowOffsetOuter1"></feOffset>
            <feGaussianBlur stdDeviation="14" in="shadowOffsetOuter1" result="shadowBlurOuter1"></feGaussianBlur>
            <feColorMatrix values="0 0 0 0 0   0 0 0 0 0   0 0 0 0 0  0 0 0 0.06 0" type="matrix" in="shadowBlurOuter1"></feColorMatrix>
        </filter>
        <path d="M179.131699,89.5645442 C179.131699,125.792022 157.307615,158.451896 123.836938,172.313494 C90.3662604,186.175093 51.8412281,178.508296 26.2276807,152.888453 C0.614133219,127.26861 -7.04319532,88.7416951 6.82662878,55.2744252 C20.6964529,21.8071554 53.3616888,-0.00889947048 89.5891658,-1.37615683e-12 C113.340241,0.00292108366 136.117374,9.44079774 152.909856,26.2374075 C169.702339,43.0340173 179.134617,65.8134694 179.131699,89.5645442" id="path-4"></path>
    </defs>
    <g id="Screens" stroke="none" stroke-width="1" fill="none" fill-rule="evenodd">
        <g id="Inicio-" transform="translate(-897.000000, -336.000000)">
            <g id="Profesores" transform="translate(925.000000, 362.000000)">
                <g id="Rectangle-Copy-2">
                    <g id="Card-Copy">
                        <g id="Card">
                            <g id="Group-2">
                                <mask id="mask-2" fill="white">
                                    <use xlink:href="#path-1"></use>
                                </mask>
                                <g id="Mask">
                                    <use fill="black" fill-opacity="1" filter="url(#filter-3)" xlink:href="#path-1"></use>
                                    <use fill="#FFFFFF" fill-rule="evenodd" xlink:href="#path-1"></use>
                                </g>
                                <text id="Alumnos" font-family="Montserrat-Medium, Montserrat" font-size="24" font-weight="400" letter-spacing="0.5" fill="#333E53">
                                    <tspan x="108.42" y="264">Profesores</tspan>
                                </text>
                            </g>
                        </g>
                    </g>
                    <g id="madre_Mesa-de-trabajo-1-Copy-2" transform="translate(85.000000, 29.000000)">
                        <g id="Group" transform="translate(0.646642, 0.671264)">
                            <mask id="mask-5" fill="white">
                                <use xlink:href="#path-4"></use>
                            </mask>
                            <use id="Mask" fill="#E4E9F2" fill-rule="nonzero" xlink:href="#path-4"></use>
                            <g id="icono-maestro_Mesa-de-trabajo-1" mask="url(#mask-5)">
                                <g transform="translate(12.000000, 15.000000)" id="Group">
                                    <g>
                                        <path d="M46.9382688,99.5129712 C46.9382688,100.033769 46.5615216,100.443758 46.6390872,100.953475 C46.871784,102.604514 50.4841248,101.274818 45.8966736,106.338744 L45.486684,106.793057 C42.8898142,110.990055 39.9822034,114.986631 36.788256,118.74924 C35.8131456,119.85732 34.8158736,120.9654 33.7742784,122.07348 C32.8722657,123.104876 31.800432,123.974336 30.6051696,124.644226 C29.6346208,125.192622 28.4833385,125.32454 27.4138992,125.009892 C26.1514785,124.431477 25.0932155,123.485219 24.37776,122.295096 C21.1262127,117.680287 18.4715972,112.672632 16.4771496,107.39142 C14.6598984,102.892615 13.1529096,98.2830024 11.7567288,93.6290664 C11.0180088,91.250388 10.3531608,88.849548 9.7621848,86.4265464 C12.8601043,87.2702325 16.1272685,87.2702325 19.225188,86.4265464 C20.8546417,85.9538861 22.4352782,85.3268261 23.9456088,84.5538912 C25.9083089,83.7455626 27.580794,82.3627689 28.7435952,80.5869648 C28.8876456,81.4845096 29.0206152,82.3820544 29.1314232,83.29068 C29.2865544,84.5021808 29.4306048,85.709988 29.5635744,86.9141016 C30.4929876,85.5134728 31.2905256,84.0296813 31.9459464,82.4817816 C33.0540264,79.8334704 34.2285912,77.1851592 35.403156,74.536848 C36.3228624,72.4536576 37.4309424,70.4591136 38.50578,68.4313272 C39.6812595,66.3058489 40.6675558,64.0811203 41.4532728,61.7828472 C41.8354105,60.0914919 42.0360002,58.364192 42.051636,56.6302752 C42.1145875,55.793031 42.3604507,54.9797912 42.771888,54.2479032 C43.2619092,53.4995595 44.0328424,52.9802781 44.9104824,52.8073992 C45.9061549,52.6651784 46.9216916,52.7835304 47.8579752,53.150904 C48.2458032,53.2727928 49.2209136,53.7271056 50.2071048,54.20358 C49.641984,57.52782 48.810924,62.7136344 47.9909448,68.8523976 L47.9909448,68.8523976 C48.090672,68.8523976 48.423096,68.9853672 48.4009344,69.1294176 L48.2236416,70.0934472 C47.64744,74.1822624 47.5144704,77.5951488 47.204208,81.7172064 C46.9715112,84.786588 46.5726024,87.612192 46.4174712,90.6926544 C46.3678295,90.8657029 46.3086412,91.0358691 46.2401784,91.2023712 C46.1829493,91.3258326 46.1419778,91.4561964 46.1182896,91.5901992 C46.1193324,91.7268135 46.1456298,91.862057 46.1958552,91.989108 C47.0601576,94.205268 54.6172632,93.6069048 46.9604304,99.5572944" id="Path" fill="#0065C1" fill-rule="nonzero"></path>
                                        <path d="M0.7313328,63.6998256 C0.817863661,64.1115383 1.15604904,64.4230249 1.5734736,64.4754816 C2.19205354,64.6104962 2.82414322,64.6737051 3.4572096,64.6638552 C3.86428143,64.7044539 4.27464705,64.6315852 4.6428552,64.45332 C4.91203493,64.2888188 5.11869054,64.0392724 5.2301376,63.7441488 C5.50784623,62.9243022 5.57266579,62.0473317 5.4185112,61.1955648 C5.34738677,60.4000958 5.12551689,59.6254314 4.764744,58.91292 C4.6428552,58.6802232 4.9974408,58.469688 5.1304104,58.7023848 C5.47795957,59.3973201 5.70288091,60.147058 5.7952584,60.9185448 C5.97801716,61.7806551 5.97801716,62.6715033 5.7952584,63.5336136 C5.7539447,63.6652814 5.70586397,63.7947295 5.651208,63.9214416 L5.651208,63.9214416 C5.6681458,63.9679647 5.6681458,64.0189689 5.651208,64.065492 C5.09586444,65.8578504 5.05745737,67.7705229 5.5404,69.5837304 C5.90636732,71.4819844 6.72346332,73.2643938 7.922772,74.7806256 C8.55673734,75.5691373 9.30348549,76.2598794 10.138932,76.8305736 L10.138932,76.8305736 C12.7575323,76.9781993 15.3819045,76.6707729 17.895492,75.921948 C20.5024369,75.200492 22.9370595,73.9605681 25.0536888,72.2763648 C25.1866584,72.172944 25.319628,72.062136 25.4525976,71.9439408 L25.4525976,71.9439408 C26.0257381,71.3673339 26.5415663,70.7364649 26.9928288,70.0602048 L26.9928288,70.0602048 C27.1257984,69.8718312 27.2476872,69.6723768 27.369576,69.4840032 C27.369576,69.4840032 27.369576,69.4840032 27.369576,69.4840032 L27.6244344,69.0407712 L27.6244344,69.0407712 C27.6556296,68.9919077 27.6816263,68.9399142 27.702,68.88564 C28.1554027,68.0946746 28.4066066,67.2040428 28.4333328,66.2927328 C28.4333328,65.0960064 28.1673936,63.9103608 28.1230704,62.7136344 C28.0897193,61.6432232 28.3099389,60.5800937 28.7657568,59.6110104 C29.09019,58.7456809 29.7320755,58.0364371 30.5608464,57.6275472 C30.970836,57.4502544 31.4029872,57.3172848 31.7908152,57.1178304 C32.1786432,56.918376 32.4335016,56.7743256 32.4335016,56.3754168 C32.3306182,55.5310601 31.9391769,54.7481776 31.3254216,54.1592568 C30.5551614,53.4431726 29.4832402,53.1493254 28.4554944,53.37252 C26.2884044,53.8755864 24.5287475,55.4513363 23.7904776,57.5499816 L23.7904776,57.5499816 C23.7506214,57.6511587 23.7173103,57.7547931 23.6907504,57.860244 C23.678561,57.9142572 23.6432247,57.9601719 23.5941331,57.9857849 C23.5450415,58.0113979 23.4871672,58.0141148 23.435892,57.9932136 C23.3805873,57.9869827 23.3314181,57.9551439 23.3031051,57.9072295 C23.274792,57.859315 23.2706212,57.8008862 23.2918416,57.749436 C23.3126736,57.6702854 23.3385824,57.5925589 23.3694072,57.5167392 L23.3694072,57.5167392 C23.1582143,55.8436389 22.8586136,54.1828894 22.4718624,52.54146 C21.7742953,49.5524226 20.775615,46.6417705 19.4911272,43.8541128 C18.8804257,42.5097704 18.1143217,41.241608 17.2084824,40.07556 C16.6306963,39.1004774 15.5296864,38.560852 14.40504,38.7015408 C13.7704595,38.8701447 13.1729385,39.1557522 12.6431928,39.5436816 C12.0290112,39.8413585 11.6889959,40.512322 11.8121328,41.18364 C12.0230464,41.8295173 12.3580445,42.4279971 12.798324,42.9454872 C13.186152,43.4884464 13.5850608,44.0535672 13.906404,44.5965264 C14.2277472,45.1394856 14.40504,45.505152 14.6155752,45.9594648 C14.8261104,46.4137776 15.125292,47.0675448 15.3358272,47.665908 L15.3358272,47.665908 C16.1114832,49.6826136 16.676604,51.7768848 17.396856,53.8046712 C17.4855024,54.0595296 17.0865936,54.1703376 16.9979472,53.9154792 C16.2045182,51.2521308 15.268691,48.6332942 14.1945048,46.0702728 C13.8066768,45.5716368 13.3966872,45.0840816 12.9977784,44.6076072 C11.9203374,43.2882975 10.7382468,42.058034 9.4630032,40.9287816 C9.12094975,40.5575894 8.65692064,40.3216423 8.1554688,40.2639336 C7.0473888,40.2639336 6.4157832,41.3720136 5.8395816,42.125508 C5.47808071,42.4764255 5.21452141,42.915691 5.0750064,43.3998 C5.0750064,43.8651936 5.429592,44.2751832 5.706612,44.5965264 C6.6263184,45.7046064 7.5792672,46.668636 8.4546504,47.7656352 C9.10051121,48.5756366 9.69274909,49.4269785 10.2275784,50.3142192 L10.2275784,50.3142192 C10.4270328,50.6355624 10.6154064,50.9679864 10.8148608,51.3004104 L10.8148608,51.3004104 L10.9810728,51.5885112 C11.8002511,52.9246366 12.4304551,54.3677665 12.853728,55.8767808 C12.9202128,56.14272 12.5102232,56.253528 12.4548192,55.9875888 C12.0395548,54.51445 11.424389,53.105161 10.6264872,51.7990464 C10.3937904,51.4001376 10.1610936,51.0012288 9.917316,50.60232 C9.22685294,50.1256592 8.50495499,49.6962225 7.75656,49.3169472 C6.92772096,48.8775639 6.06421259,48.5069594 5.1747336,48.2088672 C4.4655624,47.9650896 3.268836,47.4553728 2.6926344,48.2088672 C2.45367149,48.5468834 2.27036543,48.9209774 2.1496752,49.3169472 C1.9613016,49.7823408 1.4737464,51.3890568 1.4072616,51.7214808 C1.3407768,52.0539048 1.2632112,52.3863288 1.5291504,52.596864 C2.10615891,52.9079491 2.72600221,53.1319888 3.3685632,53.261712 C4.31186683,53.5764879 5.22132459,53.9848158 6.0833592,54.4806 C6.91373808,55.0323873 7.57983737,55.7980186 8.0114184,56.69676 L8.2773576,57.2397192 C8.5543776,57.8380824 8.7981552,58.4586072 9.030852,59.0458896 C9.14166,59.2896672 8.7316704,59.4004752 8.6319432,59.1566976 C8.3327616,58.4253648 8.0446608,57.6829512 7.6789944,56.9405376 L7.6789944,56.9405376 C6.98361542,56.7042061 6.26762093,56.5335545 5.5404,56.4308208 C4.1442192,56.1870432 2.3158872,56.087316 1.10808,57.0735072 C0.448939959,57.771645 0.10109069,58.7072395 0.1440504,59.6664144 C0.114645311,61.0286372 0.286400591,62.3877442 0.6537672,63.6998256" id="Path" fill="#F2C6A5" fill-rule="nonzero"></path>
                                        <path d="M0.7313328,63.6998256 C0.8532216,64.1541384 2.825604,64.6527744 3.4572096,64.6638552 C4.12123241,64.5453005 4.73688015,64.2374766 5.2301376,63.7773912 C5.50784623,62.9575446 5.57266579,62.0805741 5.4185112,61.2288072 C5.35156597,60.4219819 5.12958705,59.6356498 4.764744,58.91292 C4.6428552,58.6802232 4.9974408,58.469688 5.1304104,58.7023848 C5.47795957,59.3973201 5.70288091,60.147058 5.7952584,60.9185448 C5.97801716,61.7806551 5.97801716,62.6715033 5.7952584,63.5336136 C5.7539447,63.6652814 5.70586397,63.7947295 5.651208,63.9214416 L5.651208,63.9214416 C5.6681458,63.9679647 5.6681458,64.0189689 5.651208,64.065492 C5.09586444,65.8578504 5.05745737,67.7705229 5.5404,69.5837304 C5.90636732,71.4819844 6.72346332,73.2643938 7.922772,74.7806256 C8.55673734,75.5691373 9.30348549,76.2598794 10.138932,76.8305736 L10.138932,76.8305736 C12.7575323,76.9781993 15.3819045,76.6707729 17.895492,75.921948 C20.5024369,75.200492 22.9370595,73.9605681 25.0536888,72.2763648 C25.1866584,72.172944 25.319628,72.062136 25.4525976,71.9439408 L25.4525976,71.9439408 C26.0257381,71.3673339 26.5415663,70.7364649 26.9928288,70.0602048 L26.9928288,70.0602048 C27.1257984,69.8718312 27.2476872,69.6723768 27.369576,69.4840032 C27.369576,69.4840032 27.369576,69.4840032 27.369576,69.4840032 L27.6244344,69.0407712 L27.6244344,69.0407712 C27.6556296,68.9919077 27.6816263,68.9399142 27.702,68.88564 C28.1554027,68.0946746 28.4066066,67.2040428 28.4333328,66.2927328 C28.4333328,65.0960064 28.1673936,63.9103608 28.1230704,62.7136344 C28.0897193,61.6432232 28.3099389,60.5800937 28.7657568,59.6110104 C29.09019,58.7456809 29.7320755,58.0364371 30.5608464,57.6275472 C30.970836,57.4502544 31.4029872,57.3172848 31.7908152,57.1178304 C32.1786432,56.918376 32.4335016,56.7743256 32.4335016,56.3754168 C32.3306182,55.5310601 31.9391769,54.7481776 31.3254216,54.1592568 C30.5551614,53.4431726 29.4832402,53.1493254 28.4554944,53.37252 C26.2884044,53.8755864 24.5287475,55.4513363 23.7904776,57.5499816 L23.7904776,57.5499816 C23.7506214,57.6511587 23.7173103,57.7547931 23.6907504,57.860244 C23.678561,57.9142572 23.6432247,57.9601719 23.5941331,57.9857849 C23.5450415,58.0113979 23.4871672,58.0141148 23.435892,57.9932136 C23.3805873,57.9869827 23.3314181,57.9551439 23.3031051,57.9072295 C23.274792,57.859315 23.2706212,57.8008862 23.2918416,57.749436 C23.3126736,57.6702854 23.3385824,57.5925589 23.3694072,57.5167392 L23.3694072,57.5167392 C23.1582143,55.8436389 22.8586136,54.1828894 22.4718624,52.54146 C21.7742953,49.5524226 20.775615,46.6417705 19.4911272,43.8541128 C18.8804257,42.5097704 18.1143217,41.241608 17.2084824,40.07556 C16.6306963,39.1004774 15.5296864,38.560852 14.40504,38.7015408 C13.7704595,38.8701447 13.1729385,39.1557522 12.6431928,39.5436816 C12.0290112,39.8413585 11.6889959,40.512322 11.8121328,41.18364 C12.0230464,41.8295173 12.3580445,42.4279971 12.798324,42.9454872 C13.186152,43.4884464 13.5850608,44.0535672 13.906404,44.5965264 C14.2277472,45.1394856 14.40504,45.505152 14.6155752,45.9594648 C14.8261104,46.4137776 15.125292,47.0675448 15.3358272,47.665908 L15.3358272,47.665908 C16.1114832,49.6826136 16.676604,51.7768848 17.396856,53.8046712 C17.4855024,54.0595296 17.0865936,54.1703376 16.9979472,53.9154792 C16.2045182,51.2521308 15.268691,48.6332942 14.1945048,46.0702728 C13.8066768,45.5716368 13.3966872,45.0840816 12.9977784,44.6076072 C11.9203374,43.2882975 10.7382468,42.058034 9.4630032,40.9287816 C9.12094975,40.5575894 8.65692064,40.3216423 8.1554688,40.2639336 C7.0473888,40.2639336 6.4157832,41.3720136 5.8395816,42.125508 C5.47808071,42.4764255 5.21452141,42.915691 5.0750064,43.3998 C5.0750064,43.8651936 5.429592,44.2751832 5.706612,44.5965264 C6.6263184,45.7046064 7.5792672,46.668636 8.4546504,47.7656352 C9.10051121,48.5756366 9.69274909,49.4269785 10.2275784,50.3142192 L10.2275784,50.3142192 C10.4270328,50.6355624 10.6154064,50.9679864 10.8148608,51.3004104 L10.8148608,51.3004104 L10.9810728,51.5885112 C11.8002511,52.9246366 12.4304551,54.3677665 12.853728,55.8767808 C12.9202128,56.14272 12.5102232,56.253528 12.4548192,55.9875888 C12.0395548,54.51445 11.424389,53.105161 10.6264872,51.7990464 C10.3937904,51.4001376 10.1610936,51.0012288 9.917316,50.60232 C9.22685294,50.1256592 8.50495499,49.6962225 7.75656,49.3169472 C6.92772096,48.8775639 6.06421259,48.5069594 5.1747336,48.2088672 C4.4655624,47.9650896 3.268836,47.4553728 2.6926344,48.2088672 C2.45367149,48.5468834 2.27036543,48.9209774 2.1496752,49.3169472 C1.9613016,49.7823408 1.4737464,51.3890568 1.4072616,51.7214808 C1.3407768,52.0539048 1.2632112,52.3863288 1.5291504,52.596864 C2.10615891,52.9079491 2.72600221,53.1319888 3.3685632,53.261712 C4.31186683,53.5764879 5.22132459,53.9848158 6.0833592,54.4806 C6.91373808,55.0323873 7.57983737,55.7980186 8.0114184,56.69676 L8.2773576,57.2397192 C8.5543776,57.8380824 8.7981552,58.4586072 9.030852,59.0458896 C9.14166,59.2896672 8.7316704,59.4004752 8.6319432,59.1566976 C8.3327616,58.4253648 8.0446608,57.6829512 7.6789944,56.9405376 L7.6789944,56.9405376 C6.98361542,56.7042061 6.26762093,56.5335545 5.5404,56.4308208 C4.1663808,56.1870432 0.4099896,62.3812104 0.7313328,63.6998256 Z" id="Path"></path>
                                        <path d="M10.4048712,83.0912256 C10.7615156,83.5814913 11.2793152,83.9306138 11.8675368,84.0774168 C12.2396412,84.1617581 12.6289634,84.048729 12.8980512,83.7782352 C13.4964287,83.1183879 13.7471272,82.2142293 13.57398,81.3404592 C13.5078801,80.9295219 13.3273921,80.5455049 13.0531824,80.2323792 C12.74218,79.9177722 12.3086509,79.7557053 11.8675368,79.7891472 C11.7311139,79.777687 11.5939701,79.777687 11.4575472,79.7891472 C11.4327513,79.7996139 11.4047775,79.7996139 11.3799816,79.7891472 L11.0586384,80.0329248 C10.0750585,80.7299521 9.79070559,82.0649651 10.4048712,83.1023064" id="Path" fill="#0065C1" fill-rule="nonzero"></path>
                                        <path d="M127.196503,119.137068 C127.227056,119.558134 127.412609,119.952927 127.717301,120.245148 C127.814358,120.348422 127.936525,120.424776 128.071886,120.466764 C128.19161,120.499254 128.317829,120.499254 128.437553,120.466764 C128.719384,120.382972 128.967568,120.212346 129.146724,119.979209 C129.358372,119.714517 129.513043,119.408947 129.601037,119.081664 C129.714935,118.721085 129.714935,118.334163 129.601037,117.973584 C129.451708,117.60123 129.142247,117.3162 128.758896,117.197928 C128.708288,117.184043 128.667209,117.147072 128.648088,117.098201 C128.523884,117.129846 128.404586,117.178311 128.293502,117.242251 C127.606971,117.614265 127.181049,118.334073 127.185422,119.114906" id="Path" fill="#0065C1" fill-rule="nonzero"></path>
                                        <path d="M130.033188,118.05115 C130.066838,117.992867 130.066838,117.921059 130.033188,117.862776 C129.950865,117.353681 129.598701,116.929387 129.113482,116.754696 C128.667085,116.665908 128.203975,116.770611 127.83919,117.042797 C127.028532,117.594527 126.616574,118.570217 126.786514,119.535977 C126.974887,120.355956 127.750543,121.231339 128.659169,120.876754 C129.403622,120.509358 129.91511,119.794106 130.022107,118.970856 C130.077566,118.67797 130.077566,118.377278 130.022107,118.084392 M129.589956,119.137068 C129.506799,119.466181 129.35163,119.772735 129.135643,120.034613 C128.960402,120.27417 128.711192,120.449396 128.426472,120.533249 C128.306748,120.565739 128.180529,120.565739 128.060806,120.533249 C127.924314,120.49376 127.801526,120.417018 127.70622,120.311633 C127.401528,120.019412 127.215976,119.624619 127.185416,119.203553 C127.183485,118.423381 127.608723,117.704729 128.293502,117.330898 C128.406367,117.270681 128.525205,117.222403 128.648088,117.186847 C128.672206,117.236294 128.716734,117.272726 128.769977,117.286574 C129.153328,117.404847 129.462789,117.689876 129.612118,118.06223 C129.728217,118.422467 129.728217,118.810074 129.612118,119.17031" id="Shape" fill="#0275D8" fill-rule="nonzero"></path>
                                        <path d="M13.8953232,80.8861464 C13.8478188,80.7304365 13.7885506,80.5785617 13.7180304,80.4318336 C13.7516801,80.3735506 13.7516801,80.301743 13.7180304,80.24346 C13.6640218,80.0744264 13.5935033,79.9111204 13.5074952,79.7559048 C13.2254718,79.2455145 12.6539907,78.9664191 12.078072,79.0578144 C11.4749406,79.1813908 10.9295572,79.5008297 10.52676,79.96644 C10.0538279,80.4594927 9.74429867,81.0862895 9.640296,81.7615296 C9.56697869,82.4802502 9.83822801,83.1912522 10.3716288,83.678508 C10.8192218,84.1634001 11.4317191,84.4637213 12.0891528,84.5206813 C12.5737369,84.5237292 13.0338265,84.307935 13.3412832,83.9333664 C14.0025419,83.0688944 14.2086286,81.9395393 13.8953232,80.8972272 M12.8980512,83.789316 C12.6289634,84.0598098 12.2396412,84.1728389 11.8675368,84.0884976 C11.2793152,83.9416946 10.7615156,83.5925721 10.4048712,83.1023064 C9.79948937,82.0552208 10.0926306,80.7192655 11.0808,80.021844 L11.4021432,79.7780664 C11.4266264,79.7899783 11.4552256,79.7899783 11.4797088,79.7780664 C11.6161782,79.7677743 11.753229,79.7677743 11.8896984,79.7780664 C12.3308125,79.7446245 12.7643416,79.9066914 13.075344,80.2212984 C13.3495537,80.5344241 13.5300417,80.9184411 13.5961416,81.3293784 C13.7692888,82.2031485 13.5185903,83.1073071 12.9202128,83.7671544" id="Shape" fill="#0275D8" fill-rule="nonzero"></path>
                                        <path d="M106.065418,133.553189 C107.680156,136.06018 109.613262,138.34713 111.816353,140.3568 C112.397513,141.099844 113.331294,141.475891 114.26521,141.342991 C115.081663,141.01935 115.799661,140.48849 116.3484,139.80276 C117.766742,138.295771 119.25157,136.833106 120.603427,135.259632 C121.235033,134.517218 122.221224,133.28725 121.556376,132.301058 C121.214925,131.859792 120.844763,131.441508 120.448296,131.048928 C120.348569,130.93812 120.259922,130.827312 120.160195,130.727585 L119.583994,131.115413 C118.929738,131.523121 118.252704,131.893085 117.556207,132.223493 L117.31243,132.334301 C117.322152,132.40621 117.280727,132.475251 117.212702,132.500513 C115.965136,133.034833 114.89086,133.905764 114.110078,135.015854 C113.954947,135.23747 113.600362,135.015854 113.755493,134.805319 C114.459716,133.79123 115.398721,132.962473 116.49245,132.389705 C116.471157,132.313223 116.515759,132.233931 116.592178,132.212412 C117.757419,131.708798 118.870769,131.092745 119.916418,130.372999 L120.271003,130.129222 C122.076263,128.828113 123.649566,127.232333 124.924939,125.408801 L125.556545,124.444771 C125.113498,124.129121 124.69153,123.784884 124.293334,123.414257 C123.556381,122.723609 122.86775,121.983146 122.232305,121.198097 C120.797406,119.526649 119.545533,117.706417 118.498075,115.768505 C118.088086,114.970687 117.711338,114.161789 117.389995,113.34181 C117.389995,113.264244 117.290268,113.06479 117.257026,112.987224 C117.223783,112.909658 116.869198,111.989952 116.824874,111.879144 C116.824874,112.089679 116.592178,112.289134 116.581097,112.488588 C116.49245,113.674234 116.581097,115.912555 116.315158,117.08712 C116.182188,117.807372 116.015976,118.527624 115.827602,119.236795 C115.761118,119.458411 115.705714,119.680027 115.639229,119.890562 L115.639229,119.890562 C114.650451,123.123736 113.043575,126.134277 110.907727,128.755202 C109.48788,130.496322 107.895183,132.089018 106.154064,133.508866" id="Path" fill="#F2C6A5" fill-rule="nonzero"></path>
                                        <path d="M7.3908936,76.0770792 L7.47954,76.531392 C8.1000648,76.6754424 9.4075992,76.8416544 10.0392048,76.9081392 C9.6070536,76.5646344 8.4657312,75.6781704 8.088984,75.2792616 L8.088984,75.2792616 C7.4684592,75.1573728 7.313328,75.2792616 7.2800856,75.2792616 C7.2468432,75.2792616 7.2800856,75.7778976 7.3908936,75.9995136" id="Path" fill="#0065C1" fill-rule="nonzero"></path>
                                        <path d="M125.966534,105.806866 C125.611949,105.020129 125.467898,104.111503 125.157636,103.291524 L124.38198,103.779079 C123.390776,104.424571 122.432906,105.119859 121.512053,105.86227 C120.614508,106.626845 119.772367,107.457905 118.908065,108.244642 C118.563727,108.593664 118.193295,108.91594 117.799985,109.208671 C117.452433,109.410811 117.11922,109.636656 116.802713,109.8846 L116.802713,109.8846 C116.259754,110.394317 116.614339,111.2697 116.802713,111.868063 L116.802713,111.868063 C117.04649,112.566154 117.378914,113.219921 117.678096,113.884769 C118.539199,115.847951 119.621002,117.70672 120.902609,119.425169 C121.556376,120.289471 122.243386,121.131612 122.963638,121.94051 C123.6599,122.758345 124.4398,123.501106 125.290606,124.15667 L125.567626,124.367206 C125.673915,124.451034 125.784904,124.528726 125.90005,124.599902 C126.074469,124.713328 126.270779,124.788831 126.476251,124.821518 C126.838102,124.835084 127.188636,124.694065 127.440281,124.43369 C127.98324,123.968297 128.371068,123.32561 128.94727,122.937782 C129.900218,122.239692 130.831006,121.563763 131.72855,120.788107 C132.626095,120.012451 133.556882,119.15923 134.465508,118.350331 L136.482214,116.499838 C131.932052,114.11879 128.262812,110.344715 126.010858,105.7293 M130.110754,118.860048 C130.003756,119.683298 129.492268,120.39855 128.747815,120.765946 C127.83919,121.120531 127.063534,120.245148 126.87516,119.425169 C126.70522,118.459409 127.117178,117.483719 127.927836,116.931989 C128.292621,116.659803 128.755731,116.5551 129.202128,116.643888 C129.687347,116.818579 130.039512,117.242873 130.121834,117.751968 C130.155484,117.810251 130.155484,117.882059 130.121834,117.940342 C130.177293,118.233227 130.177293,118.53392 130.121834,118.826806" id="Shape" fill="#0275D8" fill-rule="nonzero"></path>
                                        <path d="M28.0455048,76.4316648 C27.6986333,74.2555741 27.4729757,72.0618863 27.369576,69.8607504 L27.2920104,69.9826392 C26.9429959,70.6250412 26.4856555,71.2023399 25.9401528,71.6890824 L25.818264,71.7998904 L25.818264,71.7998904 L25.6852944,71.9439408 L25.6077288,71.9439408 C24.6542095,72.7494404 23.6178907,73.4514628 22.5161856,74.038212 C19.6743127,75.6102917 16.5329206,76.5655468 13.29696,76.8416544 C12.3612196,76.9248194 11.4210604,76.9470279 10.4824368,76.9081392 L9.8840736,76.9081392 C9.06098913,76.8488655 8.24284405,76.7341031 7.4352168,76.5646344 C8.0557416,79.7226624 8.8757208,83.3350032 9.6513768,86.4597888 C12.3640331,87.2800058 15.2435876,87.3793008 18.0063,86.7478896 C19.6888015,86.366194 21.3266361,85.8091074 22.8929328,85.0857696 C24.2361338,84.5000085 25.5046225,83.7560269 26.6714856,82.8696096 C27.488825,82.3313409 28.1530261,81.5907949 28.5995448,80.7199344 C28.4111712,79.6118544 28.1563128,77.584068 27.97902,76.4538264 M13.29696,83.9222856 C12.9895033,84.2968542 12.5294137,84.5126484 12.0448296,84.5096005 C11.3873959,84.4526405 10.7748986,84.1523193 10.3273056,83.6674272 C9.79390481,83.1801714 9.52265549,82.4691694 9.5959728,81.7504488 C9.71448017,81.0739006 10.0396437,80.4506705 10.52676,79.96644 C10.9426632,79.4964482 11.504767,79.1802648 12.1223952,79.0688952 C12.6983139,78.9774999 13.269795,79.2565953 13.5518184,79.7669856 C13.6378265,79.9222012 13.708345,80.0855072 13.7623536,80.2545408 C13.7960033,80.3128238 13.7960033,80.3846314 13.7623536,80.4429144 C13.8328738,80.5896425 13.892142,80.7415173 13.9396464,80.8972272 C14.2529518,81.9395393 14.0468651,83.0688944 13.3856064,83.9333664" id="Shape" fill="#0275D8" fill-rule="nonzero"></path>
                                        <path d="M155.951179,96.1111656 C155.75039,97.0956774 155.325751,98.0207838 154.71013,98.8148808 C153.420198,100.603244 151.997861,102.29227 150.455102,103.867726 C148.848386,105.552007 147.130862,107.191966 145.391177,108.687874 C142.421522,111.336185 139.407545,113.929092 136.43789,116.577403 C135.906012,116.289302 135.396295,115.97904 134.886578,115.657697 C132.29259,114.011691 130.011476,111.918168 128.149452,109.47461 C127.231606,108.223283 126.454925,106.874311 125.833565,105.45228 C125.523302,104.776351 125.201959,104.078261 124.924939,103.358009 C125.190878,103.180716 125.445737,102.981262 125.689514,102.781807 C125.985787,102.602929 126.218357,102.335473 126.354362,102.017232 C126.387352,101.802559 126.356526,101.582924 126.265716,101.385626 C126.130338,101.028671 126.130338,100.634502 126.265716,100.277546 C126.654095,99.5308011 127.534126,99.1854125 128.326745,99.468648 C128.389435,99.4857588 128.456515,99.4729606 128.508502,99.4339704 C128.560489,99.3949801 128.591557,99.3341676 128.592684,99.2691936 C128.592684,98.637588 128.238098,97.6292352 128.914027,97.2414072 L129.035916,97.1749224 C129.133018,97.1422655 129.233304,97.1199797 129.335098,97.1084376 C129.758043,97.0986303 130.176826,97.1938081 130.553986,97.3854576 C131.547017,97.8352271 132.466093,98.4330001 133.279862,99.1583856 C133.479317,99.3356784 133.778498,99.0364968 133.579044,98.859204 C132.610005,97.9834412 131.481372,97.3024993 130.254804,96.8535792 C129.855756,96.7013411 129.422255,96.6629782 129.002674,96.7427712 C128.293502,95.8009032 127.540008,94.9144392 126.786514,94.0279752 C125.478979,92.487744 124.226849,90.9142704 122.985799,89.3186352 C121.966366,88.0221816 120.969094,86.6924856 119.894256,85.4403552 C119.007792,84.4098408 118.110247,83.401488 117.234864,82.3709736 L117.090814,82.2047616 L116.891359,81.9720648 C116.148946,81.1188432 114.841411,79.8445512 114.420341,79.3902384 C105.799478,71.6336784 104.924095,62.8576848 110.364768,54.536004 C110.486657,54.536004 110.708273,54.1924992 110.830162,54.148176 C112.126615,53.6273784 113.234695,52.8073992 114.486826,52.1868744 C115.101724,51.8325359 115.79425,51.6346711 116.503531,51.6106728 C117.057237,51.657142 117.585103,51.865206 118.021601,52.209036 C119.028855,53.0321712 119.874282,54.0354114 120.514781,55.1676096 C120.813962,55.6330032 121.079902,56.0983968 121.356922,56.5748712 C121.352362,56.6005254 121.352362,56.6267826 121.356922,56.6524368 C121.613146,57.2383079 121.936665,57.7923792 122.320951,58.303476 L122.398517,58.4032032 L122.398517,58.4032032 L122.398517,58.4032032 C123.347903,59.7628778 124.403907,61.0449041 125.556545,62.23716 C127.074614,63.843876 128.648088,65.395188 130.188319,66.9908232 C133.601206,70.5255984 137.080577,73.9938888 140.460221,77.5619064 C142.144502,79.3348344 143.784461,81.129924 145.479823,82.8917712 C147.175186,84.6536184 148.804063,86.3489808 150.444022,88.0997472 C151.264001,88.9862112 152.08398,89.883756 152.881798,90.7923816 C153.618205,91.5874179 154.313509,92.4195628 154.964988,93.2855616 C155.648399,94.0853888 156.001089,95.1157211 155.951179,96.1665696" id="Path" fill="#0065C1" fill-rule="nonzero"></path>
                                        <path d="M129.013754,96.9422256 C129.013754,96.9422256 130.864248,96.4657512 133.37959,98.914608" id="Path" stroke="#034F87" stroke-width="1.10808" stroke-linecap="round" stroke-linejoin="round"></path>
                                        <path d="M75.8923992,64.7746632 C77.4639735,68.4710157 78.4329061,72.3953799 78.7623264,76.3984224 C78.7623264,76.697604 78.7623264,77.0078664 78.7623264,77.307048 C79.0725888,76.420584 79.4050128,75.5452008 79.7595984,74.6808984 C80.502012,72.8636472 81.2887488,71.0353152 82.1862936,69.2845488 C82.6079261,68.2952797 83.1043045,67.339566 83.6711208,66.4257024 C81.634615,66.3722557 79.6161044,66.028997 77.676408,65.4062688" id="Path" fill="#EABF8F" fill-rule="nonzero"></path>
                                        <path d="M115.79436,92.0555928 C115.79436,90.9475128 115.949491,89.9169984 116.082461,88.8532416 C116.337319,86.781132 117.190541,83.8558008 117.511884,81.794772 C116.90244,81.0856008 116.171107,80.686692 115.617067,79.9553592 C115.417613,79.7005008 115.173835,79.8334704 114.996542,79.5342888 C114.996542,79.5342888 114.863573,79.4345616 114.863573,79.4013192 C106.24271,71.6447592 105.323004,62.7801192 110.763677,54.4584384 C108.968587,55.1343672 106.552973,55.7105688 104.791126,56.2313664 C104.791126,56.2313664 102.951713,50.3363808 101.887956,50.0593608 C96.2699904,48.496968 79.726356,49.0953312 79.061508,50.6798856 C78.7401648,51.3447336 69.864444,48.884796 65.4432048,50.5025928 C64.0248624,51.0233904 62.9057016,57.4059312 62.88354,57.4059312 C61.3654704,56.862972 58.2185232,57.1178304 56.6672112,56.7078408 C55.5591312,56.4308208 54.351324,56.1094776 53.2210824,55.7327304 C52.2864786,55.3658911 51.3727771,54.9478819 50.4841248,54.4806 C50.251428,54.3808728 50.029812,54.258984 49.7971152,54.1703376 C49.7952121,54.1924583 49.7952121,54.2147017 49.7971152,54.2368224 C50.9051952,54.7354584 52.0132752,55.2784176 52.3789416,55.477872 C51.8138208,58.802112 48.4120152,62.7025536 47.6031168,68.8745592 L47.6031168,68.8745592 L47.6031168,68.8745592 C47.6660672,68.9147458 47.6970838,68.990072 47.6806824,69.0629328 C47.4590664,70.27074 47.3593392,71.5117896 47.2374504,72.708516 C46.9936728,75.035484 46.7831376,77.3513712 46.6058448,79.6783392 C46.2955824,83.5012152 46.040724,87.335172 45.8634312,91.1802096 C45.8634312,91.4572296 45.8634312,91.7010072 45.8634312,91.9669464 C45.7600104,94.1092344 45.6824448,96.2478288 45.6307344,98.3827296 C45.5642496,100.964556 45.542088,103.568544 45.6307344,106.13929 L45.6307344,106.338744 C45.6307344,106.527118 45.6307344,106.715491 45.6307344,106.903865 C45.6307344,107.092238 45.6307344,107.39142 45.6307344,107.635198 C45.6307344,109.60758 45.874512,112.300214 46.1182896,114.283678 C47.4479856,115.790666 48.7887624,118.416816 50.251428,119.824078 C52.2249384,121.470393 54.4463703,122.794276 56.8334232,123.746681 C59.5434345,125.042702 62.395834,126.017055 65.3323968,126.64985 C65.4653664,126.64985 66.9169512,127.048759 67.0610016,127.070921 C69.4876968,127.580638 70.3852416,128.112516 72.911664,128.245486 C76.3134696,128.433859 79.0282656,131.481079 82.3968288,131.08217 C82.5408792,131.08217 85.2778368,127.901981 85.4108064,127.879819 C87.148004,127.727232 88.8755146,127.479387 90.58554,127.137406 C91.4276808,126.960113 92.4471144,126.262022 93.2892552,126.029326 C93.2892552,126.029326 94.3973352,125.475286 94.46382,125.475286 C94.574628,126.051487 101.710663,129.597343 102.043087,122.76049 C102.164976,122.76049 107.361871,121.38647 108.691567,120.178663 C110.021263,118.970856 116.004895,115.225546 116.381642,114.638263 C116.381642,114.161789 116.281915,104.942563 116.104622,102.526949 C115.80552,99.045042 115.701937,95.5491003 115.79436,92.0555928 L115.79436,92.0555928 Z M104.879772,94.8257928 L104.813287,95.368752 L104.358974,95.590368 L103.394945,96.0114384 C102.220518,96.5379011 100.995229,96.9426178 99.7382808,97.2192456 C97.3748837,97.7768977 94.9043075,97.6811389 92.5911648,96.9422256 C92.1832673,96.8027084 91.783703,96.639923 91.3944384,96.4546704 C91.250388,96.3881856 91.1063376,96.2995392 90.973368,96.2219736 C90.8403984,96.144408 90.973368,95.9006304 90.973368,95.7344184 C90.696355,91.454951 90.6741542,87.1627944 90.9068832,82.8806904 C90.9068832,82.7477208 90.9068832,82.6036704 90.9068832,82.4707008 L91.3168728,82.5371856 C92.5690032,82.7809632 93.8432952,82.9914984 95.1175872,83.1355488 L95.1175872,83.1355488 C95.1175872,81.7836912 95.2062336,80.4207528 95.2837992,79.079976 C95.1891271,78.8956613 95.1891271,78.6770083 95.2837992,78.4926936 C95.4035773,78.312249 95.5915688,78.1882546 95.8045968,78.1491888 C95.9147744,78.132473 96.0268432,78.132473 96.1370208,78.1491888 C96.4588175,78.1072676 96.7828171,78.2085174 97.0234848,78.4262088 C97.1881782,78.5688209 97.2642207,78.7884993 97.2229392,79.0024104 C97.2167784,79.0241438 97.2167784,79.0471618 97.2229392,79.0688952 C97.1121312,80.465076 97.0345656,81.8834184 97.0013232,83.3017608 L97.1453736,83.3017608 C97.5553632,83.3017608 97.9653528,83.3017608 98.3753424,83.3017608 C98.3504543,81.5837576 98.5896342,79.8721264 99.0845136,78.2267544 C98.9786144,77.9008418 98.89713,77.5674963 98.840736,77.2294824 C98.7012638,76.4509811 98.6492305,75.6593313 98.6856048,74.869272 C98.5114009,74.7268497 98.4605775,74.4819736 98.563716,74.2819896 C98.8261629,73.9213573 99.2284458,73.6880332 99.671796,73.6393032 C99.9919836,73.6007628 100.315638,73.6007628 100.635826,73.6393032 C101.245432,73.6171539 101.853915,73.7072994 102.430915,73.9052424 C102.839883,74.0261534 103.217877,74.23405 103.538995,74.5146864 L103.638722,74.6698176 C103.74317,74.7065848 103.801286,74.8179743 103.771692,74.924676 L103.106844,77.4400176 L102.940632,78.0494616 C102.910118,78.2350355 102.850273,78.4145726 102.763339,78.58134 C102.739242,78.6255828 102.705081,78.6635402 102.663612,78.692148 C102.866571,80.0896771 102.925978,81.5043079 102.840905,82.9139328 C103.519642,82.7593149 104.189224,82.5669487 104.84653,82.3377312 L105.2676,82.1826 C105.2676,82.3266504 105.2676,82.4707008 105.2676,82.625832 C105.530839,86.6954969 105.400961,90.7810643 104.879772,94.8257928 L104.879772,94.8257928 Z" id="Shape" fill="#0275D8" fill-rule="nonzero"></path>
                                        <path d="M104.879772,94.8257928 L104.813287,95.368752 L104.358974,95.590368 L103.394945,96.0114384 C102.220518,96.5379011 100.995229,96.9426178 99.7382808,97.2192456 C97.3748837,97.7768977 94.9043075,97.6811389 92.5911648,96.9422256 C92.1832673,96.8027084 91.783703,96.639923 91.3944384,96.4546704 C91.250388,96.3881856 91.1063376,96.2995392 90.973368,96.2219736 C90.8403984,96.144408 90.973368,95.9006304 90.973368,95.7344184 C90.696355,91.454951 90.6741542,87.1627944 90.9068832,82.8806904 C90.9068832,82.7477208 90.9068832,82.6036704 90.9068832,82.4707008 L91.3168728,82.5371856 C92.5690032,82.7809632 93.8432952,82.9914984 95.1175872,83.1355488 L95.1175872,83.1355488 C95.1175872,81.7836912 95.2062336,80.4207528 95.2837992,79.079976 C95.1891271,78.8956613 95.1891271,78.6770083 95.2837992,78.4926936 C95.4035773,78.312249 95.5915688,78.1882546 95.8045968,78.1491888 C95.9147744,78.132473 96.0268432,78.132473 96.1370208,78.1491888 C96.4588175,78.1072676 96.7828171,78.2085174 97.0234848,78.4262088 C97.1881782,78.5688209 97.2642207,78.7884993 97.2229392,79.0024104 C97.2167784,79.0241438 97.2167784,79.0471618 97.2229392,79.0688952 C97.1121312,80.465076 97.0345656,81.8834184 97.0013232,83.3017608 L97.1453736,83.3017608 C97.5553632,83.3017608 97.9653528,83.3017608 98.3753424,83.3017608 C98.3504543,81.5837576 98.5896342,79.8721264 99.0845136,78.2267544 C98.9786144,77.9008418 98.89713,77.5674963 98.840736,77.2294824 C98.7012638,76.4509811 98.6492305,75.6593313 98.6856048,74.869272 C98.5114009,74.7268497 98.4605775,74.4819736 98.563716,74.2819896 C98.8261629,73.9213573 99.2284458,73.6880332 99.671796,73.6393032 C99.9919836,73.6007628 100.315638,73.6007628 100.635826,73.6393032 C101.245432,73.6171539 101.853915,73.7072994 102.430915,73.9052424 C102.839883,74.0261534 103.217877,74.23405 103.538995,74.5146864 L103.638722,74.6698176 C103.74317,74.7065848 103.801286,74.8179743 103.771692,74.924676 L103.106844,77.4400176 L102.940632,78.0494616 C102.910118,78.2350355 102.850273,78.4145726 102.763339,78.58134 C102.739242,78.6255828 102.705081,78.6635402 102.663612,78.692148 C102.866571,80.0896771 102.925978,81.5043079 102.840905,82.9139328 C103.519642,82.7593149 104.189224,82.5669487 104.84653,82.3377312 L105.2676,82.1826 C105.2676,82.3266504 105.2676,82.4707008 105.2676,82.625832 C105.530839,86.6954969 105.400961,90.7810643 104.879772,94.8257928 L104.879772,94.8257928 Z" id="Path" fill="#0275D8" fill-rule="nonzero"></path>
                                        <path d="M45.6861384,91.5237144 C45.5310072,94.2717528 45.43128,96.9976296 45.4201992,99.6459408 C45.43128,96.9422256 45.5531688,94.2274296 45.6861384,91.5237144 Z" id="Path" fill="#0275D8" fill-rule="nonzero"></path>
                                        <path d="M52.5673152,55.4557104 C52.0021944,58.7799504 48.6003888,62.6914728 47.7914904,68.8634784 L47.7914904,68.8634784 C48.6003888,62.735796 49.4314488,57.52782 50.0076504,54.2146608 L52.5894768,55.4557104" id="Path" fill="#0275D8" fill-rule="nonzero"></path>
                                        <path d="M7.8230448,56.7743256 C7.922772,56.9516184 8.0114184,57.1289112 8.1000648,57.3172848 C8.3770848,57.9045672 8.6097816,58.525092 8.8535592,59.1123744" id="Path" stroke="#CEA676" stroke-width="0.5" stroke-linecap="round" stroke-linejoin="round"></path>
                                        <path d="M10.0502856,50.4028656 L10.0502856,50.4028656 C10.24974,50.7352896 10.4491944,51.0566328 10.637568,51.3890568 L10.637568,51.3890568 L10.80378,51.6882384 C11.6185083,53.0266809 12.2484381,54.4691829 12.6764352,55.976508" id="Path" stroke="#CEA676" stroke-width="0.5" stroke-linecap="round" stroke-linejoin="round"></path>
                                        <path d="M14.40504,45.9705456 C14.6709792,46.5245856 14.903676,47.0786256 15.125292,47.6769888 L15.125292,47.6769888 C15.900948,49.6936944 16.4660688,51.7990464 17.1863208,53.8268328" id="Path" stroke="#CEA676" stroke-width="0.5" stroke-linecap="round" stroke-linejoin="round"></path>
                                        <path d="M4.9420368,58.802112 C5.3011307,59.4932177 5.5302409,60.2443987 5.6179656,61.018272 C5.76980209,61.8861959 5.74341132,62.775942 5.5404,63.6333408 C5.50712046,63.7676225 5.45879809,63.8977212 5.3963496,64.0211688 L5.3963496,64.0211688 C5.41823779,64.0666912 5.41823779,64.1196968 5.3963496,64.1652192" id="Path" stroke="#CEA676" stroke-width="0.5" stroke-linecap="round" stroke-linejoin="round"></path>
                                        <path d="M36.0126,105.263906 C36.0126,105.263906 35.0818128,99.0919008 31.4916336,99.1805472" id="Path" stroke="#034F87" stroke-width="0.55404" stroke-linecap="round" stroke-linejoin="round"></path>
                                        <path d="M32.355936,103.080989 C30.5608464,98.138952 29.3862816,86.282496 29.3862816,86.282496" id="Path" stroke="#034F87" stroke-width="0.55404" stroke-linecap="round" stroke-linejoin="round"></path>
                                        <path d="M105.13463,86.61492 C105.13438,89.4241589 104.945582,92.2302137 104.56951,95.0141664 L104.56951,95.0141664 C103.937904,95.3244288 103.295218,95.6236104 102.64145,95.8784688 C99.1066752,97.2746496 94.8848904,97.6513968 91.5606504,95.8784688 C91.2707282,91.5478662 91.2411261,87.2037611 91.472004,82.8696096 C92.7352152,83.1023064 94.0095072,83.3128416 95.29488,83.456892 C95.29488,84.2657904 95.29488,85.063608 95.29488,85.8614256 C95.29488,86.2049304 95.29488,86.6481624 95.6494656,86.836536 C95.768139,86.9095841 95.9123981,86.9283602 96.0458161,86.888123 C96.1792342,86.8478858 96.289058,86.7524816 96.347556,86.6260008 C96.386462,86.4135384 96.386462,86.1957768 96.347556,85.9833144 C96.347556,85.673052 96.347556,85.3627896 96.347556,85.0414464 L96.347556,83.5677 L96.347556,83.5677 L97.2451008,83.6341848 C97.658784,83.6341848 98.0687736,83.6341848 98.4750696,83.6341848 L98.89614,83.6341848 C100.107906,83.6345146 101.317127,83.5232366 102.508481,83.3017608 L102.929551,83.2131144 C103.629663,83.066659 104.318424,82.8703992 104.99058,82.625832 C105.068146,83.9333664 105.112469,85.2409008 105.112469,86.5484352" id="Path" fill="#0065C1" fill-rule="nonzero"></path>
                                        <path d="M103.19549,75.644928 C103.19549,75.644928 102.996036,75.7446552 102.962794,75.755736 C102.815968,75.8095165 102.66358,75.8466841 102.508481,75.866544 C101.812843,75.9492956 101.109848,75.9492956 100.41421,75.866544 C100.066481,75.842495 99.7235824,75.7716789 99.394776,75.6560088 C99.2828028,75.6295721 99.174771,75.5885945 99.0734328,75.53412 C99.0734328,75.4454736 99.0734328,75.3568272 99.0734328,75.2681808 C99.0797241,75.2389669 99.0797241,75.2087483 99.0734328,75.1795344 L99.2064024,75.1019688 C99.3402427,75.0340456 99.4815564,74.9819827 99.6274728,74.9468376 C99.677661,74.9645818 99.7324158,74.9645818 99.782604,74.9468376 C100.049393,74.895446 100.319915,74.8657998 100.591502,74.8581912 L101.045815,74.8581912 L101.134462,74.8581912 C101.816565,74.9346884 102.472209,75.1658693 103.05144,75.53412 C103.05144,75.53412 103.228733,75.6116856 103.217652,75.6670896" id="Path" fill="#822E82" fill-rule="nonzero"></path>
                                        <path d="M103.273056,75.589524 L102.674693,77.8943304 C102.608208,78.1159464 102.563885,78.359724 102.486319,78.58134 C102.408754,78.802956 102.164976,78.8805216 101.965522,78.9580872 C101.58732,79.1020835 101.184375,79.1698685 100.779876,79.1575416 C100.386015,79.1828059 99.9952695,79.073397 99.671796,78.8472792 C99.6146685,78.7777665 99.5697111,78.699091 99.5388264,78.6145824 C99.5665379,78.5665846 99.5665379,78.507449 99.5388264,78.4594512 C99.5438456,78.3893625 99.5438456,78.3190047 99.5388264,78.248916 C99.5388264,78.0273 99.4280184,77.7946032 99.3836952,77.5619064 C99.262389,76.8818084 99.2067291,76.1916256 99.2174832,75.5008776 C99.6423073,75.6549384 100.085732,75.7518212 100.536098,75.7889784 C101.030649,75.8168202 101.526375,75.8168202 102.020926,75.7889784 C102.457907,75.8005725 102.89338,75.7329991 103.306298,75.589524 L103.394945,75.589524" id="Path" fill="#A546A0" fill-rule="nonzero"></path>
                                        <path d="M102.563885,82.9471752 C101.361997,83.1759509 100.141749,83.2946376 98.9183016,83.3017608 C98.9066514,81.7582073 99.0966315,80.2197417 99.4834224,78.7253904 C99.6166951,78.8529185 99.7752414,78.9510662 99.948816,79.0134912 C100.625277,79.2366886 101.355545,79.2366886 102.032006,79.0134912 C102.163482,78.9758637 102.29293,78.9314816 102.419834,78.8805216 C102.606365,80.227617 102.654633,81.5902579 102.563885,82.9471752" id="Path" fill="#FFFFFF" fill-rule="nonzero"></path>
                                        <path d="M96.9126768,79.356996 C96.8129496,80.6423688 96.7464648,81.9388224 96.7132224,83.2241952 L96.292152,83.2241952 L96.292152,83.2241952 C96.2298848,83.1907046 96.1549648,83.1907046 96.0926976,83.2241952 C96.0926976,83.2241952 96.0926976,83.2241952 96.0926976,83.2241952 L96.0926976,83.2241952 L95.9929704,84.010932 C95.9929704,84.7201032 95.9929704,85.4181936 95.9929704,86.1384456 C95.9929704,86.2049304 95.9929704,86.4043848 95.9929704,86.4708696 C95.9929704,86.5373544 95.8045968,86.4708696 95.7602736,86.3600616 C95.7269644,86.154561 95.7269644,85.9450374 95.7602736,85.7395368 C95.7602736,85.285224 95.7602736,84.8309112 95.7602736,84.3765984 C95.7602736,84.1549824 95.7602736,83.9333664 95.7602736,83.7117504 L95.7602736,82.6923168 L95.7602736,82.6923168 C95.7602736,81.5842368 95.8378392,80.4761568 95.904324,79.3680768 L95.904324,79.3680768 C96.0866166,79.4271994 96.2779639,79.4534627 96.4694448,79.4456424 C96.645596,79.4415668 96.8205488,79.41551 96.9902424,79.3680768" id="Path" stroke="#95C121" stroke-width="0.55404" fill="#95C11F" fill-rule="nonzero" stroke-linecap="round" stroke-linejoin="round"></path>
                                        <ellipse id="Oval" fill="#84A51C" fill-rule="nonzero" cx="96.347556" cy="79.2240264" rx="1" ry="1"></ellipse>
                                        <path d="M35.3034288,213.401434 C35.9841769,214.134739 36.7255209,214.809362 37.5195888,215.418139 L37.840932,215.661917 C39.4411757,216.852414 41.2712072,217.697624 43.21512,218.144016 C46.0423247,218.71969 48.9654033,218.620989 51.747336,217.855915 L52.1684064,217.745107 L52.301376,217.745107 C52.7002848,217.634299 53.0881128,217.523491 53.4759408,217.390522 C54.5840208,213.157656 55.6921008,208.304266 56.6450496,204.093562 C57.9193416,198.708293 59.1493104,193.012762 60.3571176,187.627493 C61.5649248,182.242224 62.6951664,176.845874 63.9140544,171.471686 C65.0997,166.26371 66.5180424,161.122219 68.0582736,156.01397 C68.8228488,153.476467 69.587424,150.950045 70.418484,148.434703 C70.8284736,147.204734 71.249544,145.974766 71.6706144,144.744797 C71.6706144,144.744797 72.4795128,142.107566 72.5459976,142.107566 L72.5459976,142.107566 L73.9310976,142.218374 L74.1083904,142.218374 C75.7594296,142.29594 78.2636904,142.484314 79.9258104,142.506475 L81.222264,142.506475 C81.8981928,142.506475 82.5741216,142.506475 83.2500504,142.417829 C84.3581304,142.351344 85.3554024,142.262698 86.3969976,142.129728 L86.818068,142.074324 C86.818068,142.218374 86.818068,142.351344 86.818068,142.495394 C86.3674488,151.034998 85.9168296,159.574601 85.4662104,168.114204 C84.8678472,179.793367 84.2620968,191.465143 83.6489592,203.129532 C83.3941008,208.08265 83.1170808,213.523322 82.8400608,218.47644 C83.6068452,218.943886 84.4025743,219.362106 85.2224328,219.72857 L85.6102608,219.905863 C86.4084965,220.239647 87.2262914,220.52458 88.0591176,220.759085 C91.1507481,221.604531 94.4230219,221.519737 97.4667168,220.515307 C97.8877872,220.371257 98.286696,220.216126 98.6966856,220.049914 L99.0734328,219.883702 C99.560988,219.662086 100.026382,219.429389 100.491775,219.16345 C100.159351,208.204538 99.616392,196.758072 99.3836952,185.78808 C99.0955944,173.754331 99.5166648,161.698421 99.2728872,149.653591 C99.2064024,146.100348 99.0697392,142.543411 98.8628976,138.982781 L98.8628976,138.528468 L99.2618064,138.317933 C101.286243,137.222569 103.217122,135.962494 105.034903,134.550461 C105.441199,134.240198 105.851189,133.918855 106.264872,133.586431 L106.586215,133.320492 C107.912612,132.219544 109.156961,131.023339 110.309364,129.741394 C112.824733,126.707902 114.728757,123.215939 115.916249,119.458411 C114.575472,120.367037 112.592009,120.566491 111.184747,121.308905 C105.754799,124.197387 99.9745148,126.372443 93.9873456,127.780092 C91.1063376,128.522506 80.0255376,128.888172 77.3661456,128.888172 C72.0884698,128.354734 66.8858753,127.239892 61.8530256,125.563932 C54.7059096,123.159398 48.2901264,119.646785 47.5698744,118.848967 C48.6772682,122.08586 49.9949972,125.246929 51.5146392,128.31197 C52.3364384,130.010363 53.3158446,131.627867 54.4399704,133.143199 C55.4132773,134.549037 56.5270926,135.852201 57.7642104,137.03256 C58.4519143,137.631931 59.1938233,138.166106 59.9803704,138.628195 L59.9803704,138.628195 L60.1798248,138.750084 L60.3681984,138.860892 L60.2352288,139.24872 C60.2352288,139.39277 60.1355016,139.547902 60.11334,139.614386 C58.9276944,143.049434 56.7891,149.143874 55.68102,152.623246 C54.84996,155.293718 54.074304,157.986353 53.3983752,160.71223 C52.7224464,163.438106 51.9800328,166.25263 51.1822152,169.000668 C49.5644184,174.43026 47.7139248,179.782286 46.1182896,185.211878 C45.2983104,188.037482 44.4783312,190.852006 43.5253824,193.622206 C42.66108,196.159709 41.7967776,198.95207 40.8659904,201.456331 C40.1346576,203.406552 39.33684,205.32353 38.4946992,207.218347 C37.5865275,209.26752 36.5731314,211.268422 35.45856,213.21306" id="Path" fill="#AA7949" fill-rule="nonzero"></path>
                                        <path d="M83.6489592,126.594446 C83.8705752,128.046031 84.4578576,129.475454 84.6462312,130.927039 C86.6850984,130.672181 89.0785512,130.262191 91.1284992,129.818959 C97.0553039,128.524467 102.806324,126.526861 108.259416,123.86857 C110.043425,122.993186 111.816353,122.040238 113.544958,121.031885 C114.309311,120.600406 115.049166,120.126899 115.761118,119.613542 C115.894087,119.162923 116.015976,118.69753 116.126784,118.217362 C116.326519,116.897063 116.426529,115.563595 116.425968,114.228274 C116.030374,114.694943 115.575971,115.108376 115.074108,115.458242 C113.733331,116.377949 112.292827,117.120362 110.874485,117.907099 C108.304465,119.325981 105.647138,120.580624 102.91847,121.66349 L102.530642,121.818622 C100.314482,122.682924 98.0983224,123.443806 95.8821624,124.101266 L95.4832536,124.223155 L94.74084,124.43369 L94.3308504,124.544498 L93.411144,124.788276 C90.4341433,125.562778 87.4101579,126.143886 84.3581304,126.527962" id="Path" fill="#5B3818" fill-rule="nonzero"></path>
                                        <path d="M46.4174712,114.239354 C46.5504408,115.136899 46.7166528,116.023363 46.9382688,116.909827 C47.1598848,117.796291 47.3371776,118.416816 47.5698744,119.125987 C48.6779544,120.333794 49.7860344,121.51944 50.9605992,122.62752 C52.970186,124.518971 55.2570773,126.092143 57.7420488,127.292537 C60.5409042,128.605048 63.4717179,129.615418 66.4848,130.306514 C66.3349995,128.834097 66.2942589,127.352619 66.3629112,125.874194 C63.9028147,125.403942 61.4862149,124.72937 59.1382296,123.857489 C56.5219069,122.815606 54.0698729,121.401115 51.858144,119.657866 C49.8963099,118.019038 48.076293,116.217554 46.4174712,114.272597" id="Path" fill="#5B3818" fill-rule="nonzero"></path>
                                        <path d="M66.4848,130.306514 C69.0392147,130.849398 71.6330456,131.186596 74.24136,131.314867 C77.73272,131.496082 81.23328,131.366294 84.7016352,130.927039 C84.5243424,129.475454 84.2029992,128.03495 83.992464,126.572285 C81.4192159,126.886248 78.8281026,127.03061 76.235904,127.004436 C72.9302692,126.99228 69.6340706,126.650782 66.3961536,125.985002 C66.3330115,127.427928 66.3923215,128.87361 66.5734464,130.306514" id="Path" fill="#C0C99F" fill-rule="nonzero"></path>
                                        <line x1="62.1411264" y1="141.59785" x2="41.2870608" y2="212.470646" id="Path" stroke="#5B3818" stroke-width="0.5" stroke-linecap="round" stroke-linejoin="round"></line>
                                        <line x1="95.793516" y1="218.321309" x2="95.4500112" y2="141.59785" id="Path" stroke="#5B3818" stroke-width="0.5" stroke-linecap="round" stroke-linejoin="round"></line>
                                        <path d="M90.3750048,114.582859 C90.2574123,114.670508 90.1812308,114.802823 90.1644696,114.948526 C90.1644696,115.059334 90.6187824,115.314192 90.751752,115.425 C91.582812,117.50819 94.6743552,122.173207 95.2616376,124.178832 C94.7838027,124.418239 94.2825034,124.607619 93.7657296,124.743953 C93.1784472,124.655306 93.07872,123.536146 92.7684576,123.04859 C92.635488,122.815894 92.4803568,122.594278 92.358468,122.361581 C92.2201769,122.039841 92.1521762,121.692282 92.1590136,121.342147 C92.1590136,120.898915 91.6492968,120.477845 91.361196,120.178663 C91.1367992,119.993244 90.9358605,119.781142 90.7628328,119.547058 C90.6077016,119.281118 90.6852672,119.059502 90.696348,118.771402 C90.6620048,118.252497 90.4462723,117.762195 90.086904,117.386302 C89.8854069,117.153995 89.7344625,116.882295 89.643672,116.588484 C89.5771872,116.278222 89.7433992,116.056606 89.7766416,115.757424 C89.865288,115.214465 89.3334096,114.826637 89.2447632,114.31692 C89.1117936,113.496941 90.1755504,113.519102 90.696348,113.563426 C90.761322,113.562299 90.8221345,113.53123 90.8611248,113.479243 C90.900115,113.427256 90.9129132,113.360177 90.8958024,113.297486 C90.8958024,113.219921 90.6741864,112.809931 90.7074288,112.732366 C90.7406712,112.6548 91.1617416,112.51075 91.2836304,112.466426 C91.6627032,112.331215 92.0328078,112.17207 92.3917104,111.989952 C92.5005492,111.941969 92.5875054,111.855013 92.635488,111.746174 C92.635488,111.624286 92.635488,111.54672 92.635488,111.435912 C92.635488,111.325104 92.8681848,111.214296 92.9457504,111.203215 C93.0821938,111.192253 93.2192966,111.192253 93.35574,111.203215 C93.5586336,111.240613 93.7585968,111.292455 93.9541032,111.358346 C94.1424768,111.358346 94.0870728,110.71566 94.46382,110.815387 C94.5413856,110.815387 94.6411128,110.948357 94.7186784,110.981599 L95.2173144,111.169973 C95.3392032,111.169973 95.6494656,111.469154 95.7713544,111.524558 C95.7713544,111.524558 95.4389304,111.524558 95.3835264,111.591043 C94.484558,111.915117 93.6197597,112.327103 92.8017,112.821012 C91.9453256,113.322127 91.136732,113.900754 90.3860856,114.549617" id="Path" fill="#C0C99F" fill-rule="nonzero"></path>
                                        <path d="M97.400232,112.222649 C95.3835264,113.330729 93.3668208,114.438809 91.4387616,115.646616 C91.2282264,115.535808 90.5966208,115.170142 90.3971664,115.037172 L90.2087928,114.915283 L90.2087928,114.848798 C90.2087928,114.848798 90.2087928,114.926364 90.2087928,114.904202 L90.3306816,114.671506 L90.7849944,114.283678 C91.4206271,113.762638 92.0906904,113.28508 92.7906192,112.854254 C93.5006022,112.430017 94.2413993,112.059618 95.0067792,111.746174 C95.1851955,111.663431 95.3706027,111.596685 95.5608192,111.54672 C95.8377943,111.52568 96.1140584,111.595719 96.347556,111.746174 L96.9680808,112.034275" id="Path" fill="#706135" fill-rule="nonzero"></path>
                                        <path d="M102.464158,121.829702 C100.247998,122.694005 98.0318376,123.454886 95.8156776,124.112347 C94.5081432,121.486198 93.1230432,118.89329 91.6825392,116.355787 C91.6825392,116.355787 91.3501152,115.535808 91.3390344,115.524727 C93.2781744,114.31692 95.405688,113.308567 97.4334744,112.200487 C97.4334744,112.200487 100.868522,118.74924 102.4974,121.807541" id="Path" fill="#8C7C49" fill-rule="nonzero"></path>
                                        <polygon id="Path" fill="#706135" fill-rule="nonzero" points="91.4387616 115.646616 95.682708 123.7356 95.8821624 124.101266 94.6189512 124.466933 90.1201464 114.904202 90.253116 114.704748"></polygon>
                                        <path d="M105.577862,58.91292 C105.59309,58.9897382 105.59309,59.0687986 105.577862,59.1456168 C104.929044,60.4983852 104.188601,61.8052663 103.361702,63.0571392 C102.24154,64.6988735 101.028042,66.2749405 99.7272,67.77756 C99.2618064,68.3205192 98.8074936,68.88564 98.3531808,69.4175184 C97.732656,70.1710128 97.1121312,70.9134264 96.4694448,71.6336784 C94.8987318,73.5512343 93.0931789,75.2637175 91.0952568,76.7308464 C90.9446319,76.8315498 90.7542837,76.8522398 90.58554,76.7862504 C90.414388,76.7273041 90.2849658,76.5853572 90.2420352,76.4095032 C89.9921238,75.4583266 89.6774331,74.5253613 89.3001672,73.6171416 C88.8400913,72.3206828 88.1903407,71.0995999 87.372108,69.99372 C87.1338057,69.6522865 86.8086482,69.3806843 86.43024,69.2069832 C86.0517515,69.09294 85.6417007,69.1626486 85.32216,69.3953568 C84.0565722,70.2926106 83.0603319,71.5187526 82.441152,72.9412128 C81.7319808,74.2709088 81.1336176,75.7114128 80.557416,77.0965128 C80.2360728,77.8832496 79.9036488,78.6699864 79.560144,79.4456424 C79.2554236,79.8082012 78.8779035,80.1026669 78.452064,80.3099448 C78.452064,80.3099448 78.452064,80.3099448 78.452064,80.3099448 C78.3702468,80.5418554 78.1548685,80.7000925 77.9091048,80.7088536 L77.9091048,80.7088536 C77.3550648,80.7088536 77.28858,80.7088536 76.3023888,74.370636 L76.2248232,73.9052424 C76.0806835,72.9675292 75.8545057,72.0442791 75.5488944,71.1461232 C75.2262883,69.9759967 74.6212931,68.9029863 73.7870472,68.0213376 C72.9706146,67.4395195 71.8483923,67.558399 71.1719784,68.2983576 C70.1533563,69.2172209 69.3543106,70.3533047 68.8339296,71.6225976 C68.5253914,72.345281 68.2590054,73.0852421 68.036112,73.8387576 C67.9729012,74.0498501 67.790606,74.2034176 67.571845,74.2298612 C67.3530839,74.2563048 67.1394478,74.1505972 67.0277592,73.9606464 C66.5734464,73.207152 66.096972,72.3871728 65.6315784,71.5117896 C63.3811571,67.3222572 61.9519638,62.7413166 61.4208744,58.0153752 L61.2989856,56.7300024 L61.2989856,56.253528 C61.3611716,55.3977654 61.4758894,54.5466332 61.6424904,53.704944 C61.7627931,52.9408652 61.982582,52.1958178 62.2962576,51.488784 C62.9896077,50.3351605 64.2795678,49.6772809 65.6204976,49.7934216 C65.7776521,49.7890616 65.929764,49.8491057 66.041568,49.9596336 C66.1499759,50.0728081 66.2096556,50.2239966 66.20778,50.380704 C65.9974986,52.9910733 66.5315565,55.6075729 67.7480112,57.9267288 C69.5307596,60.9009967 72.2630781,63.1883376 75.5045712,64.4200776 L75.5045712,64.4200776 C75.6392773,64.4773008 75.7465296,64.5845531 75.8037528,64.7192592 L76.1029344,65.4616728 C77.0630322,67.8458227 77.8047939,70.3121805 78.3190944,72.8304048 C78.4647475,74.0698477 78.5387425,75.3166642 78.5407104,76.5646344 C78.8842152,75.6116856 79.2609624,74.6698176 79.6487904,73.7168688 L79.7152752,73.539576 C80.3690424,72.0325872 81.0338904,70.4701944 81.8095464,68.9853672 C82.2608073,68.1127052 82.7833817,67.27881 83.3719392,66.4921872 C83.4910212,66.3747554 83.6483051,66.3039776 83.8151712,66.2927328 C84.3359688,66.2927328 84.8567664,66.2927328 85.3664832,66.2927328 C87.4537498,66.1882146 89.50932,65.7389096 91.4498424,64.9630368 C95.3868247,63.4495695 98.5707916,60.4486807 100.314482,56.6081136 C101.181696,54.5446845 101.524322,52.2985831 101.311754,50.0704416 C101.296967,49.8883972 101.372849,49.7107603 101.514602,49.5955863 C101.656355,49.4804123 101.845763,49.4425001 102.020926,49.49424 L102.264703,49.5607248 L102.807662,49.7269368 C103.68178,49.980646 104.438817,50.5337144 104.946257,51.2893296 C105.41859,52.2401077 105.628959,53.2996026 105.555701,54.3587112 C105.555701,54.7908624 105.555701,55.2340944 105.555701,55.6773264 C105.565852,55.7285386 105.565852,55.7812454 105.555701,55.8324576 C105.567344,55.8909817 105.567344,55.9512263 105.555701,56.0097504 L105.555701,56.4086592 C105.566782,57.2840424 105.577862,58.0929408 105.577862,58.91292 Z" id="Path" fill="#0065C1" fill-rule="nonzero"></path>
                                        <path d="M86.264028,64.841148 L85.32216,66.3592176 C84.8124432,66.3592176 84.2916456,66.3592176 83.770848,66.3592176 C83.6039819,66.3704624 83.446698,66.4412402 83.327616,66.558672 C82.7390585,67.3452948 82.2164841,68.17919 81.7652232,69.051852 C80.9895672,70.5366792 80.3247192,72.099072 79.670952,73.6060608 L79.6044672,73.7833536 C79.1944776,74.7363024 78.8177304,75.6781704 78.4963872,76.6311192 C78.4944193,75.383149 78.4204243,74.1363325 78.2747712,72.8968896 C77.7604707,70.3786653 77.018709,67.9123075 76.0586112,65.5281576 L75.7594296,64.785744 C75.7022064,64.6510379 75.5949541,64.5437856 75.460248,64.4865624 L75.460248,64.4865624 L75.460248,64.231704 L86.264028,64.841148 Z" id="Path" fill="#F2C6A5" fill-rule="nonzero"></path>
                                        <path d="M57.786372,13.5702864 C57.7802547,13.5957798 57.7802547,13.6223586 57.786372,13.647852 C57.7694858,13.7728668 57.7694858,13.8995844 57.786372,14.0245992 C58.050403,14.8799091 58.5050463,15.6641689 59.116068,16.3183248 C60.1891172,17.6206443 61.4044815,18.7988415 62.7394896,19.8309384 C63.7589232,20.628756 64.82268,21.3600888 65.9085984,22.0470984 C66.0112799,22.6433938 66.0373462,23.2503658 65.986164,23.8532688 L65.986164,24.2632584 C65.986164,24.4405512 65.986164,24.6289248 65.986164,24.8062176 L65.986164,25.5264696 C65.986164,26.1913176 65.986164,26.8561656 65.986164,27.5210136 C66.0231362,28.6342934 66.1267425,29.7443602 66.2964264,30.8452536 C67.1607288,31.7982024 68.5125864,40.5631152 68.1247584,41.793084 C68.1308757,41.8185774 68.1308757,41.8451562 68.1247584,41.8706496 C67.2342838,44.539583 66.5526084,47.2736943 66.0858912,50.04828 C66.0858912,50.2034112 66.0858912,50.3585424 66.0858912,50.5136736 C66.0858912,50.6688048 66.0858912,50.8460976 66.0858912,51.0233904 C66.0858912,51.3853632 66.0858912,51.7547232 66.0858912,52.1314704 L66.0858912,52.6855104 C66.1687572,54.0113225 66.4450046,55.3178983 66.9058704,56.5637904 C68.4396123,60.2215072 71.3839428,63.1059124 75.07242,64.564128 L75.62646,64.7968248 L75.8259144,64.8854712 C78.3947106,65.8971528 81.1216049,66.4485331 83.881656,66.5146123 L84.4135344,66.5146123 C86.2867264,66.5157701 88.1511401,66.258481 89.9539344,65.7497736 C94.1178073,64.628374 97.6894644,61.9456627 99.9266544,58.2591528 C100.927227,56.5276507 101.539713,54.5994544 101.721744,52.6079448 C101.721744,52.3309248 101.721744,52.042824 101.721744,51.765804 C101.721744,51.488784 101.721744,51.2560872 101.721744,51.0012288 C101.727273,50.9052748 101.727273,50.809082 101.721744,50.713128 C101.721744,50.4471888 101.721744,50.1923304 101.721744,49.9263912 C101.721744,49.660452 101.721744,49.6272096 101.721744,49.4831592 C101.533242,48.1643288 101.132866,46.8846239 100.536098,45.6935256 C100.436371,45.4940712 100.325563,45.2946168 100.214755,45.0951624 C100.160507,45.0809676 100.118142,45.0386024 100.103947,44.9843544 C100.103947,44.9843544 100.103947,44.895708 100.103947,44.8513848 L100.103947,44.6851728 C100.033743,44.6348822 99.9991466,44.5483908 100.015301,44.4635568 C100.015301,44.4635568 99.948816,44.2419408 99.9266544,44.1311328 C99.7386144,43.4424574 99.6161796,42.7375299 99.560988,42.0257808 C99.560988,41.7820032 99.560988,41.5493064 99.560988,41.3166096 C99.560988,41.0839128 99.560988,40.7736504 99.560988,40.5077112 C99.6046666,39.4332154 99.7833627,38.3684842 100.092866,37.3386024 C100.086575,37.3093885 100.086575,37.2791699 100.092866,37.249956 C100.093941,37.2315036 100.093941,37.2130044 100.092866,37.194552 C100.192594,36.9618552 100.292321,36.7180776 100.403129,36.4853808 C101.15748,34.8772766 102.223339,33.4347884 103.538995,32.2414344 C104.227672,31.6733015 105.108386,31.3916316 105.998933,31.4546976 C105.998933,31.4546976 105.998933,31.044708 105.998933,31.0336272 C105.992689,30.9932375 105.992689,30.9521281 105.998933,30.9117384 C106.288028,29.5743769 106.451259,28.2128827 106.486488,26.8450848 C106.486488,26.3686104 106.486488,25.8810552 106.486488,25.4045808 C106.445433,24.5020023 106.349219,23.6027792 106.198387,22.7119464 C106.063546,21.5141786 105.734182,20.3464352 105.223277,19.2547368 C104.981331,18.7768086 104.593125,18.3886026 104.115197,18.1466568 C103.461835,17.7501016 102.665903,17.6648231 101.94336,17.91396 C100.802275,18.4544811 99.806901,19.2598979 99.0401904,20.2630896 C98.991434,20.313061 98.920098,20.3339016 98.852108,20.3180372 C98.7841179,20.3021729 98.729372,20.2519132 98.7077664,20.185524 C98.6551133,20.147806 98.6291659,20.0829375 98.6412816,20.019312 C98.7881609,19.4908172 98.8809773,18.9487695 98.9183016,18.4015152 C98.9183016,18.3350304 98.9183016,18.246384 98.9183016,18.1688184 C98.9183016,18.0912528 98.9183016,18.0026064 98.9183016,17.91396 C98.9183016,17.8253136 98.9183016,17.4485664 98.9183016,17.2158696 C98.9183016,16.9831728 98.9183016,16.9388496 98.9183016,16.7947992 C98.7329773,14.7071575 97.8281838,12.7487301 96.3586368,11.2543992 C94.0316688,8.883108 90.6631056,7.7085432 87.4939968,6.8220792 C84.0451022,5.82321661 80.4796608,5.28299821 76.8896712,5.2153632 C75.0972791,5.14674739 73.3023477,5.23946079 71.526564,5.4923832 C70.6735971,5.61602232 69.837267,5.83532665 69.033384,6.1461504 C68.3796168,6.4010088 67.4488296,6.8109984 67.260456,7.5755736 C67.2558916,7.6493751 67.2558916,7.7233881 67.260456,7.7971896 C67.260456,8.5950072 68.257728,9.1933704 68.8228488,9.60336 C69.0777072,9.7806528 69.3325656,9.9690264 69.5985048,10.1352384 C69.5985048,10.1352384 69.6760704,10.2903696 69.7314744,10.2903696 C69.8536419,10.2954306 69.9531603,10.3902101 69.9641712,10.5119856 C70.3963224,10.7890056 68.8815777,8.8068538 69.3248097,9.0506314 C70.9101982,9.99695011 65.9501338,10.4112978 64.102428,10.489824 C63.1700489,10.5504514 62.243831,10.6838268 61.332228,10.8887328 C60.4371164,11.0427092 59.579628,11.3661478 58.8058056,11.8416816 C58.1964948,12.2127331 57.7888123,12.8405641 57.6977256,13.5481248 C57.6977256,13.5481248 57.6977256,13.647852 57.6977256,13.6921752 M97.9321104,40.2860952 C97.6955763,41.2923816 97.3227743,42.2616668 96.8240304,43.1671032 L96.8240304,43.1671032 C96.2498371,44.1372911 95.4980056,44.9906198 94.6078704,45.6824448 C93.2688356,46.7724115 91.6542054,47.4704226 89.9428536,47.6991504 C87.8712259,47.949447 85.7744671,47.5176469 83.9703024,46.4691816 C80.446608,48.9512808 75.0280968,49.1728968 71.7038568,46.225404 C70.8884769,45.5503023 70.3068379,44.6351903 70.0417368,43.6103352 C69.9979588,43.4587284 69.9719294,43.3025517 69.9641712,43.1449416 C69.9641712,43.1449416 69.9641712,43.0452144 69.9641712,42.9898104 C69.9586265,42.8901603 69.9586265,42.7902789 69.9641712,42.6906288 C69.9102196,42.0169212 70.3354957,41.3974974 70.9836048,41.2058016 C71.3237338,41.1131193 71.6814367,41.1055086 72.0252,41.18364 C70.9691295,38.8318978 70.3208869,36.3176157 70.1082216,33.7484232 C70.0565112,33.223932 70.012188,32.7031344 69.975252,32.1860304 C69.975252,32.0198184 69.975252,31.8425256 69.975252,31.6763136 C69.975252,31.5101016 69.975252,31.21092 69.975252,30.9782232 C69.975252,30.37986 69.975252,29.7814968 69.975252,29.1831336 L69.975252,28.2523464 C69.9416033,27.5564401 70.082543,26.8631688 70.3852416,26.2356408 C70.861716,25.5929544 71.7703416,25.5264696 72.3797856,25.061076 C72.6932626,24.8088213 72.8664157,24.4212883 72.8451792,24.0194808 L72.8451792,24.0194808 C72.8510303,23.960528 72.8510303,23.9011408 72.8451792,23.842188 C72.7969828,23.4568654 72.684622,23.0823295 72.5127552,22.734108 C72.3735318,22.4530669 72.2871441,22.1488321 72.2578968,21.8365632 C72.2524353,21.7998291 72.2524353,21.7624893 72.2578968,21.7257552 L72.2578968,21.7257552 C72.2721349,21.4365579 72.3811658,21.1600869 72.5681592,20.9390184 C73.2776109,20.0259282 74.1925769,19.293196 75.238632,18.800424 C76.3767884,18.3235078 77.5668278,17.9813715 78.784488,17.7809904 C81.3648401,17.2567019 84.0087491,17.1185315 86.6296944,17.3710008 C89.2187789,17.6176475 91.7244103,18.4188449 93.9762648,19.7201304 C95.0531746,20.3032567 95.906535,21.2267564 96.40296,22.34628 C96.524873,22.6508082 96.599605,22.972156 96.624576,23.2992288 C96.6300695,23.3470885 96.6300695,23.3954195 96.624576,23.4432792 C96.624576,23.4432792 96.624576,23.5319256 96.624576,23.5762488 C96.6355523,23.7644625 96.6355523,23.9531559 96.624576,24.1413696 C96.624576,24.3075816 96.624576,24.4737936 96.5470104,24.6510864 L96.5470104,24.8283792 C96.530681,24.927438 96.530681,25.028502 96.5470104,25.1275608 C96.6464515,25.4532988 96.8988611,25.7098462 97.2229392,25.8145704 C97.7044889,25.9711099 98.1492959,26.2236699 98.5304736,26.556984 C98.8630784,26.92145 99.0992473,27.3633144 99.2174832,27.8423568 C99.3241772,28.2293356 99.3873593,28.6270111 99.4058568,29.0280024 C99.4058568,29.1720528 99.4058568,29.3161032 99.4058568,29.4490728 C99.4058568,29.5820424 99.4058568,29.8701432 99.4058568,30.0917592 C99.4058568,30.3133752 99.4058568,30.5349912 99.4058568,30.7455264 L99.4058568,30.7455264 C99.4058568,30.9782232 99.4058568,31.1998392 99.4058568,31.4214552 C99.241513,34.3553504 98.7849402,37.2655378 98.0429184,40.1088024 M86.5188864,47.9872512 L86.5188864,47.9872512 C86.5322361,48.0343406 86.525525,48.0848539 86.5003429,48.126824 C86.4751609,48.1687941 86.4337485,48.1984867 86.3859168,48.2088672 C84.8649452,48.6689674 83.2418716,48.6689674 81.7209,48.2088672 C81.6254405,48.1868261 81.562812,48.0952921 81.5768496,47.998332 L81.5768496,47.998332 C81.5811324,47.938183 81.6123974,47.8832005 81.661899,47.8487646 C81.7114006,47.8143287 81.7738241,47.8041366 81.831708,47.8210392 C83.2767395,48.2586764 84.8189965,48.2586764 86.264028,47.8210392 C86.3202676,47.7997289 86.3833023,47.8065537 86.4336776,47.8394072 C86.484053,47.8722607 86.515713,47.9271933 86.5188864,47.9872512" id="Shape" fill="#56322A" fill-rule="nonzero"></path>
                                        <path d="M99.9884491,28.7526032 C99.9806959,30.2334614 99.8899679,31.7127218 99.7166918,33.1834279 C99.3052746,36.1721548 98.6129714,39.1154325 97.6489736,41.9741841 C97.5662594,41.9070459 97.4748452,41.8514024 97.3772164,41.8087667 C96.897979,41.7083912 96.4031433,41.7083912 95.9239059,41.8087667 L94.3406245,41.9623686 C93.1632315,42.0839986 91.9785316,42.1195396 90.7959648,42.0687084 C89.1648723,42.0069409 87.5741107,41.5443215 86.164276,40.7217377 C86.2680526,37.8885043 85.6757467,35.0730231 84.4392082,32.5217581 C84.4363183,32.4248699 84.3772732,32.3385354 84.2880286,32.300706 C84.1987839,32.2628767 84.0956815,32.2804795 84.0240438,32.3457766 C83.9524061,32.4110737 83.925351,32.5121082 83.9547714,32.6044668 C83.4059214,34.6317827 82.9641967,36.6865913 82.6314318,38.7603593 C82.6314318,39.2093495 82.525092,39.6465242 82.4896454,40.0955145 L82.2533347,40.2254853 C80.9134121,40.966668 79.4536503,41.4665864 77.9406653,41.7024269 C76.5866974,41.9209041 75.2064591,41.9209041 73.8524911,41.7024269 C73.2036501,41.5924022 72.5638581,41.4344289 71.9383748,41.2298056 L71.7375108,41.1589124 C71.3821288,40.459665 71.0742287,39.7372839 70.8158992,38.9966699 C69.9898837,36.4659577 69.5128669,33.8344151 69.3980353,31.1747874 C69.3980353,30.4067778 69.3980353,29.6269526 69.3980353,28.8116809 C69.3762254,27.8831477 69.4315546,26.9544068 69.5634528,26.0350307 C69.5781021,25.7271408 69.6761165,25.4290138 69.8470255,25.1724968 C70.149318,24.906189 70.5032771,24.7050758 70.8867924,24.5817202 C71.7138797,24.2272542 72.3282874,23.8373417 72.4700738,22.9039146 C72.5050631,22.1259255 72.3251971,21.3533192 71.9501903,20.6707789 C71.796607,20.3702442 71.796607,20.0142556 71.9501903,19.7137208 C72.2942505,19.2402649 72.7277836,18.8388454 73.2262679,18.5321676 C75.4141893,17.152313 77.911784,16.3400871 80.4928204,16.169061 C83.1829117,15.7965381 85.9152545,15.8563704 88.5864602,16.346294 C89.9351986,16.6034985 91.253732,16.9994545 92.5210325,17.5278473 C93.7978743,18.020019 94.9630238,18.763304 95.9475369,19.7137208 C96.4335977,20.229956 96.782898,20.8595087 96.9636727,21.5451284 C97.069979,22.1985642 97.069979,22.8648864 96.9636727,23.5183223 C96.9136349,24.0381654 97.1486795,24.5444154 97.5780804,24.8416619 C98.0871672,25.0676198 98.5840972,25.3200287 99.0668375,25.597856 C99.8259744,26.4303808 100.187885,27.5505808 100.059342,28.6698945" id="Path" fill="#F2C6A5" fill-rule="nonzero"></path>
                                        <path d="M100.580422,41.9925384 C101.300674,41.571468 102.109572,41.0506704 102.22038,40.1420448 C102.240017,39.7533815 102.143587,39.3676621 101.94336,39.0339648 C101.757456,38.5253763 101.854394,37.9563953 102.198218,37.5380568 C103.066299,36.0427385 104.500271,34.9602691 106.176226,34.53516 C106.442165,34.53516 106.331357,34.0697664 106.065418,34.1362512 C104.457541,34.5495205 103.052859,35.5292567 102.109572,36.8953704 C101.524504,37.508458 101.313038,38.3881559 101.555532,39.2001768 C101.848779,39.6396074 101.848779,40.212331 101.555532,40.6517616 C101.23111,41.0648944 100.8134,41.3952644 100.336644,41.6157912 C100.235668,41.6739289 100.200941,41.802916 100.259078,41.903892 C100.317216,42.004868 100.446203,42.0395953 100.547179,41.9814576" id="Path" fill="#000000" fill-rule="nonzero"></path>
                                        <path d="M75.404844,27.88668 C75.9307996,27.8290176 76.4416443,27.675013 76.9118328,27.4323672 C77.4205912,27.2554646 77.9582486,27.1765079 78.4963872,27.1996704 C78.7456985,27.2029582 78.9941939,27.2289204 79.2388008,27.277236 C79.5312486,27.3735313 79.831582,27.4439799 80.1363456,27.4877712 C80.9674056,27.4877712 80.779032,26.4794184 80.4798504,26.0361864 C80.341902,25.8501979 80.1732781,25.6890683 79.9812144,25.559712 C79.9279085,25.5812753 79.8683083,25.5812753 79.8150024,25.559712 C78.9019288,25.1364972 77.8827226,24.9975145 76.8896712,25.1608032 C75.882488,25.2355679 74.9974781,25.8567768 74.5848648,26.7786 C74.5014385,27.0306883 74.550803,27.3078509 74.7161355,27.5156336 C74.8814679,27.7234162 75.1404578,27.8337802 75.404844,27.8091144" id="Path" fill="#56322A" fill-rule="nonzero"></path>
                                        <path d="M88.4912688,27.5874984 C89.012598,27.5245256 89.5188769,27.3707668 89.9871768,27.1331856 C90.5004102,26.9580269 91.040691,26.875484 91.582812,26.889408 C91.8319687,26.9025355 92.0799826,26.9321491 92.3252256,26.9780544 C92.6135476,27.0755631 92.9103136,27.1460451 93.2116896,27.1885896 C94.0427496,27.1885896 93.8654568,26.1802368 93.5551944,25.7370048 C93.4243943,25.5486715 93.2589292,25.386967 93.0676392,25.2605304 C93.0117896,25.2882396 92.946196,25.2882396 92.8903464,25.2605304 C91.9786563,24.8459085 90.9644908,24.7109435 89.976096,24.8727024 C88.9450344,24.9527591 88.0480703,25.6093883 87.6602088,26.5680648 C87.5817665,26.8217635 87.6346929,27.0978628 87.8013919,27.3045695 C87.9680909,27.5112762 88.2267104,27.6214939 88.4912688,27.5985792" id="Path" fill="#56322A" fill-rule="nonzero"></path>
                                        <path d="M70.5071304,42.956568 C70.6568397,43.9463991 71.1372254,44.8563981 71.8700688,45.5383944 C73.4208242,46.9268189 75.4180461,47.7131268 77.4991152,47.7545544 C79.882589,47.8777539 82.2342202,47.1644258 84.1475952,45.7378488 C84.3138072,45.61596 84.4689384,45.8043336 84.435696,45.9594648 C87.4563025,47.6736717 91.1928124,47.5012837 94.0427496,45.5162328 C94.7131678,45.0411894 95.3169039,44.4784478 95.8378392,43.843032 C96.0952918,43.5454687 96.3217699,43.222459 96.513768,42.8790024 C96.6467376,42.624144 96.7575456,42.29172 96.4140408,42.1587504 C96.2245384,42.1143606 96.0273416,42.1143606 95.8378392,42.1587504 C95.1292627,43.9333187 93.6199106,45.2658258 91.7711856,45.7489296 C89.7085626,46.2449212 87.542371,46.0821662 85.5770184,45.283536 C85.0561895,45.0090878 84.468819,44.8862391 83.881656,44.9289504 C83.3606832,45.0658199 82.8713893,45.3029393 82.441152,45.6270408 C81.5490005,46.1537998 80.5753424,46.5282837 79.560144,46.7351208 C77.6649138,47.1446827 75.6848783,46.8199569 74.019744,45.8264952 C73.2350034,45.3765067 72.5550784,44.7645743 72.0252,44.0314056 C71.6041296,43.4219616 71.1719784,42.4357704 71.7038568,41.8152456 C71.7697981,41.7256891 71.8255466,41.6290584 71.8700688,41.5271448 C71.5452544,41.4238411 71.1921366,41.4599554 70.8949584,41.626872 C70.5197991,41.9769887 70.3630109,42.5024411 70.4849688,43.0008912" id="Path" fill="#56322A" fill-rule="nonzero"></path>
                                        <path d="M76.6126512,32.097384 C76.6126512,32.9395248 77.0780448,33.6265344 77.6431656,33.6265344 C78.2082864,33.6265344 78.6625992,32.9395248 78.6625992,32.097384 C78.6625992,31.2552432 78.2082864,30.5682336 77.6431656,30.5682336 C77.0780448,30.5682336 76.6126512,31.2441624 76.6126512,32.097384" id="Path" fill="#000000" fill-rule="nonzero"></path>
                                        <path d="M89.8874496,31.5876672 C89.8874496,32.429808 90.3528432,33.1168176 90.917964,33.1168176 C91.4830848,33.1168176 91.9373976,32.429808 91.9373976,31.5876672 C91.9373976,30.7455264 91.4830848,30.0585168 90.917964,30.0585168 C90.3528432,30.0585168 89.8874496,30.7455264 89.8874496,31.5876672" id="Path" fill="#000000" fill-rule="nonzero"></path>
                                        <path d="M79.8482448,52.4195712 C81.0998224,52.9007526 82.4299694,53.1449886 83.770848,53.1398232 C86.3900537,53.0703116 88.8851661,52.0088987 90.751752,50.1701688 C91.584065,49.4046963 92.0310584,48.3075307 91.97064,47.1783528 C86.5521288,50.5025928 80.6793048,49.106412 78.67368,48.4858872 C78.2620302,48.3511373 77.9844277,47.9660758 77.9866704,47.5329384 C77.9866704,46.9899792 77.9866704,46.2364848 77.9866704,45.7046064 C77.3352453,45.757939 76.7572982,46.143237 76.45752,46.72404 C75.34944,48.7075032 76.8121056,51.2228448 79.8704064,52.4195712" id="Path" fill="#FF74BE" fill-rule="nonzero"></path>
                                        <path d="M79.8482448,52.4195712 C81.0998224,52.9007526 82.4299694,53.1449886 83.770848,53.1398232 C86.3900537,53.0703116 88.8851661,52.0088987 90.751752,50.1701688 C91.584065,49.4046963 92.0310584,48.3075307 91.97064,47.1783528 C86.5521288,50.5025928 80.6793048,49.106412 78.67368,48.4858872 C78.2620302,48.3511373 77.9844277,47.9660758 77.9866704,47.5329384 C77.9866704,46.9899792 77.9866704,46.2364848 77.9866704,45.7046064 C77.3352453,45.757939 76.7572982,46.143237 76.45752,46.72404 C75.34944,48.7075032 76.789944,51.2228448 79.8482448,52.4195712 Z" id="Path" stroke="#000000" stroke-width="0.5" stroke-linecap="round" stroke-linejoin="round"></path>
                                        <path d="M78.0198993,47.5329384 C78.0176701,47.9660758 78.2952726,48.3511373 78.7069224,48.4858872 C80.6793048,49.106412 86.5521288,50.5025928 92.0038824,47.1783528 C91.9543407,46.7496185 91.8105469,46.3371575 91.582812,45.9705456 C90.30852,43.8762744 85.7875536,45.9705456 83.5381512,46.0481112 C81.2887488,46.1256768 79.4050128,45.5383944 78.064236,45.7046064 C78.0309936,46.2364848 78.0198993,46.9899792 78.0198993,47.5329384 Z" id="Path" stroke="#000000" stroke-width="0.5" stroke-linecap="round" stroke-linejoin="round"></path>
                                        <path d="M78.0198993,47.5329384 C78.0176701,47.9660758 78.2952726,48.3511373 78.7069224,48.4858872 C80.6793048,49.106412 86.5521288,50.5025928 92.0038824,47.1783528 C91.9543407,46.7496185 91.8105469,46.3371575 91.582812,45.9705456 C90.30852,43.8762744 85.7875536,45.9705456 83.5381512,46.0481112 C81.2887488,46.1256768 79.4050128,45.5383944 78.064236,45.7046064 C78.064236,46.2364848 78.064236,46.9899792 78.064236,47.5329384" id="Path" fill="#FFFFFF" fill-rule="nonzero"></path>
                                        <path d="M78.0198993,47.5329384 C78.0176701,47.9660758 78.2952726,48.3511373 78.7069224,48.4858872 C80.6793048,49.106412 86.5521288,50.5025928 92.0038824,47.1783528 C91.9543407,46.7496185 91.8105469,46.3371575 91.582812,45.9705456 C90.30852,43.8762744 85.7875536,45.9705456 83.5381512,46.0481112 C81.2887488,46.1256768 79.4050128,45.5383944 78.064236,45.7046064 C78.0309936,46.2364848 78.0198993,46.9899792 78.0198993,47.5329384 Z" id="Path" stroke="#000000" stroke-width="0.5" stroke-linecap="round" stroke-linejoin="round"></path>
                                        <path d="M69.9258553,43.0572755 C70.0822343,44.0912049 70.5840219,45.0417456 71.3495144,45.7541257 C72.969358,47.2044064 75.0555588,48.0257453 77.2293423,48.0690186 C79.719003,48.1977067 82.1754025,47.4525989 84.1740208,45.9624661 C84.3476378,45.8351469 84.5096803,46.0319128 84.4749569,46.1939553 C87.6301355,47.9845324 91.5331118,47.8044643 94.5100175,45.7309768 C95.2103037,45.2347696 95.840937,44.6469571 96.3850807,43.9832327 C96.6540031,43.6724126 96.8905711,43.3350123 97.091123,42.9762543 C97.2300166,42.7100416 97.3457612,42.3628077 96.9869528,42.2239141 C96.772786,42.1835002 96.5529496,42.1835002 96.3387828,42.2239141 C94.2685221,42.5107832 92.1753075,42.5960624 90.0885721,42.4785523 C88.693582,42.3537754 87.3406929,41.9356814 86.1185308,41.2516591 C86.0500789,41.8094455 85.92996,42.3596673 85.7597225,42.895233 C85.6130944,43.5156837 85.2420274,44.0599153 84.7180207,44.4230623 C84.1645758,44.7057513 83.4894581,44.5716854 83.0860212,44.0989773 C82.6313251,43.4184659 82.4418973,42.5948666 82.5535958,41.7840844 C82.5535958,41.4252761 82.5535958,41.0548932 82.5535958,40.6960848 L82.1021917,40.950723 C81.0929509,41.4755179 80.0188097,41.8646995 78.9076396,42.1081694 C76.6564935,42.5713471 74.3237714,42.4437452 72.136578,41.7377866 C71.6041526,41.5525952 70.8981103,41.2632336 70.3656849,41.6104675 C69.9738118,41.9761824 69.8100385,42.5250444 69.9374298,43.0457011" id="Path" fill="#7A4941" fill-rule="nonzero"></path>
                                        <path d="M69.9258553,43.0572755 C70.0822343,44.0912049 70.5840219,45.0417456 71.3495144,45.7541257 C72.969358,47.2044064 75.0555588,48.0257453 77.2293423,48.0690186 C79.719003,48.1977067 82.1754025,47.4525989 84.1740208,45.9624661 C84.3476378,45.8351469 84.5096803,46.0319128 84.4749569,46.1939553 C87.6301355,47.9845324 91.5331118,47.8044643 94.5100175,45.7309768 C95.2103037,45.2347696 95.840937,44.6469571 96.3850807,43.9832327 C96.6540031,43.6724126 96.8905711,43.3350123 97.091123,42.9762543 C97.2300166,42.7100416 97.3457612,42.3628077 96.9869528,42.2239141 C96.772786,42.1835002 96.5529496,42.1835002 96.3387828,42.2239141 C94.2685221,42.5107832 92.1753075,42.5960624 90.0885721,42.4785523 C88.693582,42.3537754 87.3406929,41.9356814 86.1185308,41.2516591 C86.0500789,41.8094455 85.92996,42.3596673 85.7597225,42.895233 C85.6130944,43.5156837 85.2420274,44.0599153 84.7180207,44.4230623 C84.1645758,44.7057513 83.4894581,44.5716854 83.0860212,44.0989773 C82.6313251,43.4184659 82.4418973,42.5948666 82.5535958,41.7840844 C82.5535958,41.4252761 82.5535958,41.0548932 82.5535958,40.6960848 L82.1021917,40.950723 C81.0929509,41.4755179 80.0188097,41.8646995 78.9076396,42.1081694 C76.6564935,42.5713471 74.3237714,42.4437452 72.136578,41.7377866 C71.6041526,41.5525952 70.8981103,41.2632336 70.3656849,41.6104675 C69.9654591,41.9759738 69.7967738,42.5308598 69.9258553,43.0572755 Z" id="Path" stroke="#7A4941" stroke-width="1.10808" stroke-linecap="round" stroke-linejoin="round"></path>
                                        <path d="M75.9145608,34.0254432 C77.0300456,33.1606734 78.602974,33.2118634 79.6598712,34.147332" id="Path" stroke="#000000" stroke-width="0.5" stroke-linecap="round" stroke-linejoin="round"></path>
                                        <path d="M88.9455816,33.6597768 C90.0549085,32.7935977 91.6237962,32.8401522 92.6798112,33.7705848" id="Path" stroke="#000000" stroke-width="0.5" stroke-linecap="round" stroke-linejoin="round"></path>
                                        <path d="M82.2067015,42.2343128 C82.2067015,43.0189886 82.983944,44.3090488 84.499567,43.9898586 C85.5488444,43.7770652 86.0151899,42.8859927 86.2677937,42.2476124 C86.5191062,41.6427217 86.6946213,41.0242682 86.7924324,40.3989694 C86.7924324,40.2127751 86.7924324,40.0265809 86.7924324,39.827087 C86.8606946,38.8312121 86.782578,37.8331625 86.5592597,36.8479789 C86.1281374,35.0889366 85.2907993,33.2304992 84.2760361,31.5876672 C83.6931042,33.1703184 83.2559789,34.8929392 82.8479266,36.5021896 C82.6147538,37.3932621 82.4010121,38.3242334 82.2649947,39.2552047 C82.2649947,39.4546985 82.2649947,39.6408928 82.2649947,39.8403866 C82.1774316,40.6372367 82.1774316,41.4374627 82.2649947,42.2343128" id="Path" fill="#C69471" fill-rule="nonzero"></path>
                                        <path d="M84.2805648,43.9981632 C84.878928,43.8208704 85.1448672,43.0784568 85.2889176,42.5465784 C85.4322316,42.0426025 85.5323212,41.5273265 85.5880992,41.0063472 C85.5880992,40.851216 85.5880992,40.6960848 85.5880992,40.5298728 C85.6270266,39.7001411 85.5824796,38.8685976 85.4551296,38.0477736 C85.2092769,36.5821949 84.792761,35.1504215 84.21408,33.7816656 C83.881656,35.1002808 83.5713936,36.418896 83.3386968,37.7596728 C83.2057272,38.5020864 83.0838384,39.2777424 83.0062728,40.0533984 C83.0062728,40.2196104 83.0062728,40.3747416 83.0062728,40.5409536 C82.9452668,41.2040314 82.9341547,41.8707551 82.9730304,42.5354976 C82.9730304,43.1892648 83.4162624,44.2641024 84.2805648,43.9981632 Z" id="Path" stroke="#C69471" stroke-width="0.55404" stroke-linecap="round" stroke-linejoin="round"></path>
                                        <path d="M99.782604,44.3084256 C101.490777,44.9118629 103.381255,44.6995414 104.913014,43.732224 C106.391363,42.7743058 107.473603,41.3142659 107.960234,39.6212472 C108.501177,37.6637437 108.431591,35.5877437 107.76078,33.6708576 C107.524771,32.749323 106.940969,31.9550347 106.131902,31.4546976 C105.191339,31.0997561 104.129622,31.3444316 103.439268,32.0752224 C102.01357,33.2853822 100.877586,34.8000279 100.115028,36.5075424 C99.1799739,38.9938071 99.0827003,41.7174677 99.838008,44.2641024 M99.9709776,41.5825488 C100.449092,41.3642368 100.867286,41.0334835 101.189866,40.6185192 C101.477268,40.1773352 101.477268,39.6081184 101.189866,39.1669344 C100.942529,38.3550516 101.154587,37.4728918 101.743906,36.862128 C102.685026,35.4938598 104.090602,34.5135006 105.699751,34.1030088 C105.95461,34.036524 106.065418,34.4465136 105.810559,34.5019176 C104.131045,34.9255019 102.693067,36.0079803 101.821471,37.5048144 C101.48386,37.930268 101.387679,38.4989928 101.566613,39.0118032 C101.772089,39.3433037 101.868935,39.7306878 101.843633,40.1198832 C101.732825,41.0285088 100.923926,41.5493064 100.203674,41.9703768 C100.138354,42.0079853 100.057932,42.0078892 99.9927024,41.9701246 C99.9274725,41.9323601 99.8873447,41.8626645 99.8874347,41.7872914 C99.8875249,41.7119184 99.9278192,41.6423189 99.9931392,41.6047104" id="Shape" fill="#F2C6A5" fill-rule="nonzero"></path>
                                        <path d="M100.126109,41.9925384 C100.846361,41.571468 101.66634,41.0506704 101.766067,40.1420448 C101.796833,39.7523754 101.699567,39.3633129 101.489047,39.0339648 C101.308475,38.5232568 101.409456,37.9552355 101.754986,37.5380568 C102.620176,36.0401795 104.05537,34.9567874 105.732994,34.53516 C105.987852,34.53516 105.877044,34.0697664 105.622186,34.1362512 C104.013036,34.546743 102.607461,35.5271022 101.66634,36.8953704 C101.077021,37.5061342 100.864964,38.388294 101.1123,39.2001768 C101.399703,39.6413608 101.399703,40.2105776 101.1123,40.6517616 C100.78972,41.0667259 100.371526,41.3974792 99.893412,41.6157912 C99.792436,41.6739289 99.7577087,41.802916 99.8158464,41.903892 C99.8739841,42.004868 100.002971,42.0395953 100.103947,41.9814576" id="Path" fill="#000000" fill-rule="nonzero"></path>
                                        <path d="M68.1912432,33.870312 C67.4058936,32.1613865 66.2516902,30.6476772 64.8115992,29.437992 C64.1161756,28.7079716 63.0520359,28.4637428 62.107884,28.8174672 C61.3013997,29.3181898 60.7212479,30.1129184 60.4900872,31.0336272 C59.8122851,32.9449212 59.7387832,35.0184464 60.279552,36.972936 C60.7744012,38.664982 61.8594784,40.1235459 63.3378528,41.0839128 C64.7591976,42.0573987 66.5646027,42.2804923 68.1801624,41.682276 C69.0331734,39.1443525 69.0331734,36.3971547 68.1801624,33.8592312 M68.1025968,39.3996312 C67.3823448,38.9785608 66.5734464,38.4577632 66.4626384,37.5491376 C66.4413803,37.1588325 66.5420658,36.7715805 66.7507392,36.4410576 C66.9398379,35.9238778 66.8384442,35.3450887 66.4848,34.922988 C65.621559,33.4233893 64.1855376,32.3393731 62.5067928,31.9200912 C62.4156134,31.8755627 62.3691688,31.7723315 62.396327,31.6745619 C62.4234852,31.5767923 62.5165184,31.5123048 62.6176008,31.5211824 C64.2293314,31.9260239 65.6367365,32.9076594 66.5734464,34.2803016 C67.1585147,34.8933892 67.3699806,35.7730871 67.1274864,36.585108 C66.8391418,37.0219877 66.8391418,37.5887323 67.1274864,38.025612 C67.4548043,38.4358483 67.8717697,38.76563 68.3463744,38.9896416 C68.4473504,39.0477793 68.4820777,39.1767664 68.42394,39.2777424 C68.3658023,39.3787184 68.2368152,39.4134457 68.1358392,39.355308" id="Shape" fill="#F2C6A5" fill-rule="nonzero"></path>
                                        <path d="M68.1136776,39.355308 C67.3934256,38.9342376 66.5845272,38.41344 66.4737192,37.5048144 C66.4524611,37.1145093 66.5531466,36.7272573 66.76182,36.3967344 C66.9309965,35.8906652 66.8261884,35.3330863 66.4848,34.922988 C65.621559,33.4233893 64.1855376,32.3393731 62.5067928,31.9200912 C62.4156134,31.8755627 62.3691688,31.7723315 62.396327,31.6745619 C62.4234852,31.5767923 62.5165184,31.5123048 62.6176008,31.5211824 C64.2293314,31.9260239 65.6367365,32.9076594 66.5734464,34.2803016 C67.1585147,34.8933892 67.3699806,35.7730871 67.1274864,36.585108 C66.8391418,37.0219877 66.8391418,37.5887323 67.1274864,38.025612 C67.4548043,38.4358483 67.8717697,38.76563 68.3463744,38.9896416 C68.4473504,39.0477793 68.4820777,39.1767664 68.42394,39.2777424 C68.3658023,39.3787184 68.2368152,39.4134457 68.1358392,39.355308" id="Path" fill="#000000" fill-rule="nonzero"></path>
                                        <path d="M101.034734,16.7172336 C103.593373,16.0636919 105.600952,14.081525 106.287034,11.5314192 C106.474591,10.8082931 106.556698,10.0618641 106.530811,9.3152592 C106.51821,8.97268012 106.477443,8.63171865 106.408922,8.2958256 C106.392839,8.12663773 106.359421,7.95954909 106.309195,7.7971896 C106.309195,7.7085432 106.154064,7.5423312 106.043256,7.5312504 C105.932448,7.5201696 105.832721,7.7417856 105.788398,7.8082704 C105.356246,8.49528 105.012742,9.2598552 104.680318,10.0244304 L103.516834,12.2405904 C102.696854,13.7180304 101.884262,15.2324064 101.079058,16.7837184" id="Path" fill="#56322A" fill-rule="nonzero"></path>
                                        <path d="M100.746634,0.4727808 C100.746634,2.0573352 100.746634,3.6529704 100.746634,5.2375248 C100.746634,6.8220792 100.746634,8.4287952 100.746634,10.0133496 C101.967111,7.98962498 102.419378,5.59457637 102.020926,3.2651424 C101.922007,2.66804203 101.766165,2.08178008 101.555532,1.514376 C101.446082,1.21589968 101.32031,0.923664552 101.178785,0.6389928 C101.116729,0.49060782 101.038703,0.349419324 100.946088,0.2179224 C100.946088,0.1403568 100.790957,-0.0036936 100.646906,0.1071144 C100.502856,0.2179224 100.646906,0.4284576 100.646906,0.4727808" id="Path" fill="#56322A" fill-rule="nonzero"></path>
                                        <path d="M23.6353464,57.583224 C22.4434751,59.1954908 21.7500688,61.1216195 21.6408024,63.123624" id="Path" stroke="#CEA676" stroke-width="0.5" stroke-linecap="round" stroke-linejoin="round"></path>
                                        <path d="M114.021432,134.827481 C115.58434,132.905896 117.652907,131.459051 119.993983,130.650019" id="Path" stroke="#CEA676" stroke-width="0.5" stroke-linecap="round" stroke-linejoin="round"></path>
                                    </g>
                                </g>
                            </g>
                        </g>
                    </g>
                </g>
            </g>
        </g>
    </g>
</svg>