<?xml version="1.0" encoding="UTF-8"?>
<svg width="406px" height="356px" viewBox="0 0 406 356" version="1.1" xmlns="http://www.w3.org/2000/svg" xmlns:xlink="http://www.w3.org/1999/xlink">
    <!-- Generator: Sketch 63.1 (92452) - https://sketch.com -->
    <title>Alumnos@2x</title>
    <desc>Created with Sketch.</desc>
    <defs>
        <rect id="path-1" x="0" y="0" width="350" height="300" rx="8"></rect>
        <filter x="-12.3%" y="-13.7%" width="124.6%" height="128.7%" filterUnits="objectBoundingBox" id="filter-3">
            <feOffset dx="0" dy="2" in="SourceAlpha" result="shadowOffsetOuter1"></feOffset>
            <feGaussianBlur stdDeviation="14" in="shadowOffsetOuter1" result="shadowBlurOuter1"></feGaussianBlur>
            <feColorMatrix values="0 0 0 0 0   0 0 0 0 0   0 0 0 0 0  0 0 0 0.06 0" type="matrix" in="shadowBlurOuter1"></feColorMatrix>
        </filter>
        <path d="M213.844267,106.920575 C213.844267,150.1683 187.79106,189.157082 147.834355,205.704814 C107.87765,222.252546 61.8871449,213.10006 31.3101431,182.515542 C0.733141418,151.931025 -8.4080425,105.938272 8.14950917,65.9856351 C24.7070608,26.032998 63.702244,-0.0106240311 106.949968,-1.64283178e-12 C135.303583,0.00348713821 162.494523,11.270258 182.541093,31.3217549 C202.587662,51.3732518 213.84775,78.5669603 213.844267,106.920575" id="path-4"></path>
    </defs>
    <g id="Screens" stroke="none" stroke-width="1" fill="none" fill-rule="evenodd">
        <g id="Inicio-" transform="translate(-137.000000, -336.000000)">
            <g id="Alumnos" transform="translate(165.000000, 362.000000)">
                <g id="Card-Copy">
                    <g id="Card">
                        <g id="Group-2">
                            <mask id="mask-2" fill="white">
                                <use xlink:href="#path-1"></use>
                            </mask>
                            <g id="Mask">
                                <use fill="black" fill-opacity="1" filter="url(#filter-3)" xlink:href="#path-1"></use>
                                <use fill="#FFFFFF" fill-rule="evenodd" xlink:href="#path-1"></use>
                            </g>
                        </g>
                    </g>
                </g>
                <g id="madre_Mesa-de-trabajo-1-Copy" transform="translate(67.000000, 42.000000)">
                    <g id="Group" transform="translate(0.771950, 0.801343)">
                        <mask id="mask-5" fill="white">
                            <use xlink:href="#path-4"></use>
                        </mask>
                        <use id="Mask" fill="#E4E9F2" fill-rule="nonzero" xlink:href="#path-4"></use>
                        <g id="icono-alumnos_Mesa-de-trabajo-1" mask="url(#mask-5)">
                            <g transform="translate(12.658102, 41.279486)" id="Group">
                                <g transform="translate(86.847668, 50.138860)">
                                    <path d="M92.116381,27.7554404 C89.979281,36.6106892 83.2854906,55.5231457 79.7236572,56.1854496 C77.2672204,56.6269856 72.0718565,51.132316 68.3503547,46.8028107 C69.3766443,46.2197684 70.3433528,45.5378636 71.236668,44.7668394 C71.7959373,44.0960096 72.2894845,43.3731597 72.7105301,42.6082192 C75.3266353,45.4168784 78.2252308,48.299127 78.7779291,47.857591 C80.2886377,46.6311023 85.8401849,27.3016396 85.8401849,27.3016396 L92.116381,27.7554404 Z" id="Path" fill="#F2C6A5" fill-rule="nonzero"></path>
                                    <path d="M94.0201196,26.823309 C93.2709063,27.8167649 89.2423499,28.123387 89.2423499,28.123387 L85.2506401,28.123387 C84.1152224,28.0420556 83.0529854,27.5336012 82.2783515,26.7006601 C80.7676429,25.1552843 79.1218302,18.6916886 79.1218302,18.6916886 C79.1218302,18.6916886 73.5580008,11.0383988 72.907045,10.3638299 C72.5996171,9.78474254 72.4754164,9.12612262 72.5508617,8.47503726 C72.9316094,7.5551707 74.7985014,5.51919938 75.6705365,6.02205976 C77.5865572,7.07684009 80.5834101,11.8356164 81.8116285,14.8773085 L81.9835791,14.7914543 C81.2834946,13.0743701 78.2252308,5.56825893 77.8322009,4.84463056 C77.6881291,4.20556519 77.7438592,3.53774601 77.9918693,2.93130811 C78.6182607,2.14635531 80.9641578,0.6868337 81.6765245,1.3736674 C83.2486441,2.91904323 85.3611798,9.87323444 85.7296453,13.2338136 L85.9507246,13.1602243 C85.6682344,11.1978423 84.6242487,4.26818085 84.4400159,3.50775783 C84.4505869,2.88192912 84.6614859,2.27591116 85.041843,1.77840869 C85.8033384,1.18969409 88.3334683,0.380211513 88.8370379,1.20195898 C89.8810235,2.91904323 90.2249247,8.91657321 89.9055879,12.2403577 L90.5319793,12.2403577 C90.5319793,10.3147704 90.6179546,5.83808645 90.5319793,5.22484208 C90.6174632,4.68006965 90.8757734,4.17707411 91.2689103,3.78985024 C92.0058414,3.37284406 94.3026098,3.00489744 94.6219466,3.78985024 C95.3588776,5.50693449 94.6956397,10.2043864 93.9095799,12.8413372 L93.9095799,12.8413372 C93.9095799,12.8413372 96.1449374,24.1127688 94.0078374,26.9091632" id="Path" fill="#F2C6A5" fill-rule="nonzero"></path>
                                    <path d="M82.2906337,26.7987792 C79.8107071,25.9787794 77.2143176,25.5646048 74.6019864,25.5722904 C74.1106991,25.5722904 73.5088721,24.5175101 73.373768,24.0514444 C73.2804115,23.0147332 73.363466,21.9697206 73.6194117,20.9606927 C73.7560825,20.2297844 74.4591888,19.7470795 75.1915313,19.8813826 C76.9970124,20.2247995 81.0624153,20.8012492 83.6662383,23.008929" id="Path" fill="#F2C6A5" fill-rule="nonzero"></path>
                                    <path d="M81.0624153,15.5641422 C81.0624153,15.5641422 84.3171941,12.8536021 91.3548856,12.1667684" id="Path" stroke="#CEA676" stroke-width="0.6" stroke-linecap="round" stroke-linejoin="round"></path>
                                    <path d="M18.3250187,68.68337 L17.4898302,69.3702037 L7.92200877,56.7373696 C7.22067704,55.8218096 7.39072365,54.5126513 8.30275648,53.8060615 L15.2421905,48.3972461 C14.1901177,47.8776894 13.2445364,47.1663824 12.4541347,46.2999503 C11.9938698,45.6875774 11.5831657,45.0395789 11.2259163,44.3620981 L1.19137186,52.9475193 C0.379704638,53.6430131 0.221051265,54.8365187 0.822906337,55.7193839 L12.736625,73.2827028 L12.5278278,73.4544112 C11.7998952,74.048023 11.5761726,75.0635121 11.9874117,75.9073887 C13.6209422,79.2679679 17.8828601,87.4854425 21.1130745,88.5034282 C22.2675998,88.8591099 24.7977298,87.0807013 26.7014683,85.4126766 C26.7392668,85.3687719 26.7803235,85.3277729 26.8242902,85.2900277 C27.5020415,84.7060963 28.1118029,84.0478231 28.6420534,83.3276457 C28.7771574,83.1068777 28.9368258,82.8370502 29.0964942,82.530428 L29.0964942,82.530428 C29.5877816,81.6105614 30.1281977,80.3718078 30.5212276,79.4642061 C30.8324732,78.7345335 30.6670443,77.8891191 30.1036333,77.3301157 L29.2930092,76.5206331 C28.722656,75.9471762 27.8543834,75.7904214 27.1190626,76.1281567 L26.1364878,76.5696927 L21.9973918,72.3628363" id="Path" fill="#F2C6A5" fill-rule="nonzero"></path>
                                    <path d="M21.9973918,72.3628363 C23.2256102,74.4233374 27.5980678,77.8697707 27.5980678,77.8697707" id="Path" stroke="#CEA676" stroke-width="0.6" stroke-linecap="round" stroke-linejoin="round"></path>
                                </g>
                                <g transform="translate(105.649741, 128.928497)" stroke-linecap="round" stroke-linejoin="round">
                                    <path d="M10.5172228,3.02847668 C10.0120396,3.38048822 9.37726165,3.47140693 8.79817617,3.2746943 C7.87896373,3.04078756 6.63743005,2.21595855 5.21682902,6.65578266e-12" id="Path" stroke="#CEA676" stroke-width="0.6"></path>
                                    <path d="M8.35647668,5.79842487 C8.35647668,5.79842487 6.21960622,7.63274611 2.99639378,2.78225907" id="Path" stroke="#CEA676" stroke-width="0.6"></path>
                                    <path d="M5.96891192,7.54656995 C5.96891192,7.54656995 3.83204145,9.38089119 0.608829016,4.51809326" id="Path" stroke="#CEA676" stroke-width="0.6"></path>
                                </g>
                                <g transform="translate(72.522280, 0.000000)">
                                    <path d="M80.8000754,200.792759 C77.7477909,201.466149 71.032765,202.604791 66.7961941,200.927437 L66.7961941,200.927437 L61.7904475,139.428533 C59.9834951,139.563211 58.2253792,139.599941 56.5649364,139.563211 L56.5649364,139.734619 L51.5469807,201.355958 L51.5469807,201.355958 C47.2737824,203.033312 40.5587565,201.882427 37.5430994,201.209036 L44.1360339,131.164197 L72.8519265,129.437869 L74.2681865,129.119539 L80.8000754,200.792759 Z" id="Path" fill="#455A64" fill-rule="nonzero"></path>
                                    <path d="M61.7416109,139.391802 C63.381846,139.383105 65.0173786,139.214991 66.6252661,138.88982" id="Path" fill="#455A64" fill-rule="nonzero"></path>
                                    <path d="M38.8038964,125.79812 C39.304471,124.084036 40.7174753,119.765534 39.7651625,118.712597 C38.6052944,117.427033 34.4127023,117.50634 32.3005214,119.146964 L38.8038964,125.79812 Z" id="Path" fill="#F2C6A5" fill-rule="nonzero"></path>
                                    <polygon id="Path" stroke="#000000" stroke-width="0.6" stroke-linecap="round" stroke-linejoin="round" points="67.9804805 73.1424354 67.7485068 72.9342965 68.0048987 73.1669223"></polygon>
                                    <path d="M84.8779275,88.1529184 L68.0048987,73.1669223 L68.0048987,73.1669223 L67.7485068,72.9342965 C67.5066979,72.7622011 67.2145012,72.6760193 66.9182854,72.6894273 L63.7439096,72.9342965 C62.2666039,80.6966507 53.0731229,82.2025964 49.7888648,73.9994776 L47.3470372,74.1831295 C47.1597592,74.1942873 46.9768312,74.244317 46.8098351,74.3300511 L27.9345078,89.3772645 L27.1531229,90.001681 C28.2846586,93.2124258 30.6687556,95.8241862 33.7582666,97.2375664 L44.9296279,86.573512 L45.1005558,86.4021035 L45.1005558,86.5122947 L42.2191992,128.397174 C57.0044654,133.796541 69.7019689,128.66653 74.6955064,126.523925 L69.9217334,85.7042262 L69.9217334,85.7042262 L70.2513801,86.0837735 L79.2128874,96.2336026 C82.0011123,94.4089172 84.2554146,91.8736204 85.7447763,88.8875261 L84.8779275,88.1529184 Z" id="Path" fill="#0275D8" fill-rule="nonzero"></path>
                                    <path d="M74.9641074,128.764478 C70.153707,130.845867 57.1753933,136.294207 42.0604805,130.698945 L42.2191992,128.372687 C57.0044654,133.772054 69.7019689,128.642044 74.6955064,126.499438 L74.9641074,128.764478 Z" id="Path" fill="#95C11F" fill-rule="nonzero"></path>
                                    <path d="M62.2666039,73.0444877 C60.7648799,77.941872 55.197513,80.3905642 51.6202355,73.8647996 L54.6358926,73.6321738 L54.6358926,67.5104433 C56.2434264,67.5841049 57.853941,67.5595726 59.4585021,67.4369826 L59.5561752,73.3016003 L62.2666039,73.0444877 Z" id="Path" fill="#F2C6A5" fill-rule="nonzero"></path>
                                    <path d="M63.7439096,72.9342965 C62.2666039,80.6966507 53.0853321,82.2025964 49.7888648,73.9994776 L51.6080264,73.8647996 C55.0754216,80.1334515 60.4840697,77.7949505 61.9369571,73.0689746 L63.7439096,72.9342965 Z" id="Path" fill="#95C11F" fill-rule="nonzero"></path>
                                    <path d="M87.9057937,90.8709667 C87.2822575,92.3170577 86.4603762,93.6687322 85.4639661,94.8868219 C84.1558707,96.2405269 82.5852783,97.3113655 80.8489119,98.0333913 L79.2250966,96.2091157 C82.0133215,94.3844303 84.2676237,91.8491335 85.7569854,88.8630391 L87.9057937,90.8709667 Z" id="Path" fill="#95C11F" fill-rule="nonzero"></path>
                                    <path d="M33.7582666,97.2130795 L31.6094583,99.2577374 C30.9861515,99.0432335 30.3817446,98.7770383 29.8025059,98.4619125 C28.7566901,97.9432634 27.8167325,97.2331991 27.0310316,96.3682807 C26.573504,95.7569776 26.1652425,95.1101111 25.8101178,94.4338138 C25.1508243,93.2706851 24.589204,92.0953128 24.589204,92.0953128 L27.2385869,89.9771941 C28.3701226,93.1879389 30.7542196,95.7996993 33.8437306,97.2130795" id="Path" fill="#95C11F" fill-rule="nonzero"></path>
                                    <line x1="45.0028827" y1="86.3408862" x2="45.0028827" y2="79.8763388" id="Path" stroke="#034F87" stroke-width="0.6" stroke-linecap="round" stroke-linejoin="round"></line>
                                    <line x1="69.9583608" y1="87.1489546" x2="69.9583608" y2="80.6844073" id="Path" stroke="#034F87" stroke-width="0.6" stroke-linecap="round" stroke-linejoin="round"></line>
                                    <path d="M66.3322566,96.0254638 C66.3371846,99.1326016 64.4738843,101.936316 61.6122527,103.127654 C58.7506211,104.318993 55.4550548,103.66299 53.264133,101.465909 C51.0732112,99.2688277 50.4190471,95.9639967 51.607046,93.0943204 C52.7950449,90.2246441 55.590899,88.3561056 58.6893264,88.3610474 C62.9103948,88.3610474 66.3322566,91.7925289 66.3322566,96.0254638" id="Path" fill="#95C11F" fill-rule="nonzero"></path>
                                    <path d="M55.8690155,93.6012585 C55.8690155,94.2746489 55.5027414,94.8256046 55.0632124,94.8256046 C54.6236835,94.8256046 54.2574093,94.2868923 54.2574093,93.6012585 C54.2574093,92.9156247 54.6236835,92.3769124 55.0632124,92.3769124 C55.5027414,92.3769124 55.8690155,92.9278682 55.8690155,93.6012585" id="Path" fill="#0275D8" fill-rule="nonzero"></path>
                                    <path d="M63.1090344,93.6012585 C63.1090344,94.2746489 62.7549694,94.8256046 62.3032313,94.8256046 C61.8514932,94.8256046 61.4974282,94.2868923 61.4974282,93.6012585 C61.4974282,92.9156247 61.8637023,92.3769124 62.3032313,92.3769124 C62.7427602,92.3769124 63.1090344,92.9278682 63.1090344,93.6012585" id="Path" fill="#0275D8" fill-rule="nonzero"></path>
                                    <path d="M56.2352897,98.2292867 C56.2352897,98.2292867 59.6172209,101.755403 62.010212,97.5803833" id="Path" fill="#95C11F" fill-rule="nonzero"></path>
                                    <path d="M56.2352897,98.2292867 C56.2352897,98.2292867 59.6172209,101.755403 62.010212,97.5803833" id="Path" stroke="#0275D8" stroke-width="0.6"></path>
                                    <path d="M84.7069995,26.5560667 L85.0000188,38.6403626 C83.5992748,38.4616162 82.1782268,38.5278972 80.8000754,38.8362579 L80.8000754,38.8362579 L80.5681017,38.8362579 L80.4460104,38.8362579 C80.0553179,33.9388736 79.4692793,30.1311573 79.4692793,30.1311573 C78.2483655,22.5034811 69.3479039,26.5683101 69.3479039,26.5683101 C66.4055016,30.7188434 55.9178521,25.7602417 48.128422,24.119618 C40.338992,22.4789942 36.5419501,25.7112679 34.942553,28.8700808 C33.3431559,32.0288937 32.5617711,39.3504833 32.5007254,44.7865799 L26.8478945,42.1297489 C26.274065,41.9338535 14.8341027,25.0623644 26.8478945,22.4177769 C26.8478945,22.4177769 51.0097786,-6.47679081 75.0495714,1.45697185 C75.0495714,1.45697185 84.5971173,4.12604632 69.8728968,13.2474247 C70.7275365,12.9413382 90.7016863,5.66872239 92.5941027,12.4393563 C92.5941027,12.4393563 94.926048,19.0508251 84.7802544,26.4703624" id="Path" fill="#684642" fill-rule="nonzero"></path>
                                    <path d="M32.8425813,42.8521131 C32.8425813,42.8521131 33.172228,40.6727771 32.024569,40.7829682 C31.8658502,40.7829682 27.1409138,39.9748998 24.6990862,42.1542358 C23.3194536,43.3785819 22.3549317,45.7538133 22.7212058,50.0267812 C23.2706171,56.503572 26.5304569,58.5972038 29.3385586,59.1236726 C31.1577525,59.2942651 32.9910605,59.2366846 34.7960433,58.9522642" id="Path" fill="#F2C6A5" fill-rule="nonzero"></path>
                                    <path d="M26.6769666,43.4275558 C26.6769666,43.4275558 29.7536693,44.2968415 29.8513424,48.9738436 C30.0624235,50.1504508 30.4022641,51.3001238 30.8647009,52.4020126" id="Path" stroke="#000000" stroke-width="0.6" stroke-linecap="round" stroke-linejoin="round"></path>
                                    <path d="M79.8721809,56.026077 C79.6359649,57.0760831 79.2230866,58.0780575 78.6512671,58.9889946 C75.5135186,63.5680489 67.8217617,66.9350007 59.3364107,67.5594172 C57.7810778,67.6882294 56.2189042,67.7127709 54.6603109,67.632878 C48.1087393,67.5446794 41.7695715,65.2893902 36.627414,61.2173045 C34.0268676,59.0134815 32.8914178,52.8795076 32.6960716,49.6594774 C32.6350259,48.5453224 32.378634,46.4639341 32.4152614,44.921258 C32.5251437,39.5218918 33.2576919,32.3227368 34.857089,29.0047588 C36.4564861,25.6867809 40.2291098,22.6504026 48.0429581,24.254296 C55.8568064,25.8581894 67.4432784,30.6943565 69.2136034,26.5070928 C69.2136034,26.5070928 78.1629016,22.6014288 79.3838154,30.1801311 C79.3838154,30.1801311 79.969854,33.975604 80.3605464,38.8852318 L80.3605464,38.8852318 C80.4826378,40.4279079 80.5803109,42.0930185 80.6413566,43.7826161 C80.9166614,47.8826406 80.6373866,52.001169 79.8111352,56.026077" id="Path" fill="#F2C6A5" fill-rule="nonzero"></path>
                                    <path d="M47.8231936,40.3299602 C47.6316374,41.1727569 46.8248625,41.7252017 45.9723578,41.5973331 C45.119853,41.4694646 44.5095761,40.7044738 44.5723112,39.842355 C44.6350463,38.9802362 45.3496028,38.3121945 46.2115874,38.3097891 C47.207406,38.4313236 47.9235501,39.3290203 47.8231936,40.3299602" id="Path" fill="#000000" fill-rule="nonzero"></path>
                                    <path d="M69.5920867,40.3299602 C69.4005305,41.1727569 68.5937556,41.7252017 67.7412508,41.5973331 C66.8887461,41.4694646 66.2784692,40.7044738 66.3412043,39.842355 C66.4039393,38.9802362 67.1184959,38.3121945 67.9804805,38.3097891 C68.9762991,38.4313236 69.6924432,39.3290203 69.5920867,40.3299602" id="Path" fill="#000000" fill-rule="nonzero"></path>
                                    <path d="M58.6038625,43.6112077 C58.6038625,43.6112077 64.3665756,42.3256443 63.2311258,48.9616001" id="Path" stroke="#000000" stroke-width="0.6" stroke-linecap="round" stroke-linejoin="round"></path>
                                    <path d="M47.6156382,55.4873648 C47.6385363,56.9475539 48.31006,58.3213133 49.4470089,59.2338638 C54.7946114,57.0545277 61.1067358,59.8215499 63.6706547,61.1683306 C67.4921149,59.3440549 69.1647668,55.9771032 67.5653698,53.5161676 C67.1077211,52.7713628 66.2885971,52.327979 65.4165615,52.3530388 C65.4165615,53.0386726 65.5386528,54.005906 65.5874894,54.7160267 C65.6211576,55.2549885 65.2987317,55.7524229 64.7938954,55.9403728 C62.3520678,56.9198497 54.8922845,59.2461072 47.6156382,55.4383909" id="Path" fill="#FF74BE" fill-rule="nonzero"></path>
                                    <path d="M47.6156382,55.4873648 C47.6385363,56.9475539 48.31006,58.3213133 49.4470089,59.2338638 C54.7946114,57.0545277 61.1067358,59.8215499 63.6706547,61.1683306 C67.4921149,59.3440549 69.1647668,55.9771032 67.5653698,53.5161676 C67.1077211,52.7713628 66.2885971,52.327979 65.4165615,52.3530388 C65.4165615,53.0386726 65.5386528,54.005906 65.5874894,54.7160267 C65.6211576,55.2549885 65.2987317,55.7524229 64.7938954,55.9403728 C62.3520678,56.9688235 54.9411211,59.2950811 47.6156382,55.4873648 Z" id="Path" stroke="#000000" stroke-width="0.6" stroke-linecap="round" stroke-linejoin="round"></path>
                                    <path d="M47.6156382,55.4873648 C54.9411211,59.2950811 62.2666039,56.9688235 64.7938954,55.9893467 C65.2987317,55.8013967 65.6211576,55.3039624 65.5874894,54.7650006 C65.5874894,54.0548798 65.465398,53.0876464 65.4165615,52.4020126 C63.6706547,52.3040649 61.2898728,53.2223245 58.4085163,53.3202722 C55.5271597,53.4182199 49.5080546,51.1286927 48.0673764,53.9324452 C47.8033043,54.41059 47.6489737,54.9418085 47.6156382,55.4873648 Z" id="Path" stroke="#000000" stroke-width="0.6" stroke-linecap="round" stroke-linejoin="round"></path>
                                    <path d="M47.6156382,55.4873648 C54.9411211,59.2950811 62.2666039,56.9688235 64.7938954,55.9893467 C65.2987317,55.8013967 65.6211576,55.3039624 65.5874894,54.7650006 C65.5874894,54.0548798 65.465398,53.0876464 65.4165615,52.4020126 C63.6706547,52.3040649 61.2898728,53.2223245 58.4085163,53.3202722 C55.5271597,53.4182199 49.5080546,51.1286927 48.0673764,53.9324452 C47.796234,54.4253024 47.6416762,54.9740588 47.6156382,55.5363386" id="Path" fill="#FFFFFF" fill-rule="nonzero"></path>
                                    <path d="M47.6156382,55.4873648 C54.9411211,59.2950811 62.2666039,56.9688235 64.7938954,55.9893467 C65.2987317,55.8013967 65.6211576,55.3039624 65.5874894,54.7650006 C65.5874894,54.0548798 65.465398,53.0876464 65.4165615,52.4020126 C63.6706547,52.3040649 61.2898728,53.2223245 58.4085163,53.3202722 C55.5271597,53.4182199 49.5080546,51.1286927 48.0673764,53.9324452 C47.8033043,54.41059 47.6489737,54.9418085 47.6156382,55.4873648 Z" id="Path" stroke="#000000" stroke-width="0.6" stroke-linecap="round" stroke-linejoin="round"></path>
                                    <path d="M49.4836364,59.2338638 C52.0485843,61.4375107 55.3513833,62.583833 58.7259538,62.4416505 C60.4484533,62.3516627 62.1385113,61.9362683 63.7072821,61.2173045 C61.1433632,59.8705238 54.8312388,57.1035016 49.4836364,59.2828376" id="Path" fill="#F9487B" fill-rule="nonzero"></path>
                                    <path d="M49.4836364,59.2338638 C52.0485843,61.4375107 55.3513833,62.583833 58.7259538,62.4416505 C60.4484533,62.3516627 62.1385113,61.9362683 63.7072821,61.2173045 C61.1433632,59.8215499 54.8312388,57.0545277 49.4836364,59.2338638 Z" id="Path" stroke="#000000" stroke-width="0.6" stroke-linecap="round" stroke-linejoin="round"></path>
                                    <path d="M89.2121715,47.2475156 C88.6871785,53.4549502 85.5494301,55.4383909 82.8634197,55.9771032 C81.8409758,56.0906224 80.8091608,56.0906224 79.7867169,55.9771032 C80.6129683,51.9521952 80.8922431,47.8336667 80.6169383,43.7336423 C80.5558926,42.0318012 80.4460104,40.3666906 80.323919,38.8362579 L80.4215921,38.8362579 L80.4215921,38.8362579 L80.6657748,38.8362579 L80.6657748,38.8362579 C82.0481639,38.5286819 83.4730844,38.4624129 84.8779275,38.6403626 C85.7768541,38.7450124 86.625636,39.1110147 87.3197551,39.6933002 C88.6505511,40.9176463 89.5662365,43.1459562 89.2243806,47.2475156" id="Path" fill="#F2C6A5" fill-rule="nonzero"></path>
                                    <path d="M85.4639661,41.1625155 C85.4639661,41.1625155 82.5215638,41.9950709 82.4238907,46.488421 C82.2189038,47.6146868 81.891369,48.7150131 81.4471597,49.7696685" id="Path" stroke="#000000" stroke-width="0.6" stroke-linecap="round" stroke-linejoin="round"></path>
                                    <path d="M45.6743853,29.1884108 C43.6354593,29.1884108 38.5076213,30.5841653 39.2523787,32.7390144 C39.7651625,34.2327166 42.5610551,32.9349098 44.5511446,32.9716402 C47.2737824,32.9716402 50.3260669,33.816439 50.8876872,32.1758152 C51.6202355,30.045453 49.1784079,29.2251411 45.6743853,29.1884108" id="Path" fill="#684642" fill-rule="nonzero"></path>
                                    <path d="M45.6743853,29.1884108 C43.6354593,29.1884108 38.5076213,30.5841653 39.2523787,32.7390144 C39.7651625,34.2327166 42.5610551,32.9349098 44.5511446,32.9716402 C47.2737824,32.9716402 50.3260669,33.816439 50.8876872,32.1758152 C51.6202355,30.045453 49.1784079,29.2251411 45.6743853,29.1884108 Z" id="Path" stroke="#000000" stroke-width="0.6"></path>
                                    <path d="M69.5920867,29.1884108 C67.5531606,29.1884108 62.4131135,30.5841653 63.1578709,32.7390144 C63.6828639,34.2327166 66.4665473,32.9349098 68.468846,32.9716402 C71.1792746,32.9716402 74.2315591,33.816439 74.7931795,32.1758152 C75.5379369,30.045453 73.0961093,29.2251411 69.5920867,29.1884108" id="Path" fill="#684642" fill-rule="nonzero"></path>
                                    <path d="M69.5920867,29.1884108 C67.5531606,29.1884108 62.4131135,30.5841653 63.1578709,32.7390144 C63.6828639,34.2327166 66.4665473,32.9349098 68.468846,32.9716402 C71.1792746,32.9716402 74.2315591,33.816439 74.7931795,32.1758152 C75.5745643,30.045453 73.1327367,29.2251411 69.5920867,29.1884108 Z" id="Path" stroke="#000000" stroke-width="0.6"></path>
                                    <path d="M28.75252,36.9017911 C28.75252,36.9017911 28.5205464,45.398753 32.3175883,48.3249401 C32.3175883,48.3249401 33.1478097,48.6555136 33.1478097,46.0598999 C33.1478097,46.0598999 33.0623457,38.5424149 33.526293,33.1063182" id="Path" fill="#684642" fill-rule="nonzero"></path>
                                    <path d="M81.8866886,31.6983202 C82.1919171,42.717435 80.6657748,44.2968415 80.6657748,43.8438334 L80.1407819,36.3018615" id="Path" fill="#684642" fill-rule="nonzero"></path>
                                    <path d="M6.6173528,152.786148 C5.06679228,151.916863 1.91683467,149.553875 1.85578898,148.145877 C1.78253415,146.419549 9.02255299,141.473191 9.02255299,141.473191" id="Path" fill="#F3D19F" fill-rule="nonzero"></path>
                                    <path d="M7.41094677,143.126058 C7.25167625,136.147256 6.57422962,129.190046 5.38422986,122.312174 C3.73599623,112.970414 1.11103156,102.306359 0.30522845,97.0539145 C0.231973622,96.5396891 1.75811587,92.046339 3.61390485,95.5234819 C4.73714555,97.6293571 8.26558643,109.934035 10.6341592,121.112315 C12.0756105,127.942485 12.9616494,134.87875 13.2835422,141.852738 C13.2835422,141.852738 15.395723,143.077084 15.7253698,143.958613 C16.9462836,147.48473 19.6689213,156.300022 18.0939425,159.287426 C17.5445313,160.352607 14.4312011,160.89132 11.9893735,161.013754 L11.8184456,161.013754 C10.9339144,161.070849 10.0458414,161.033913 9.16906265,160.903563 C8.91267075,160.903563 8.6074423,160.756641 8.27779557,160.64645 L8.27779557,160.64645 C7.28885539,160.340364 6.03131418,159.850625 5.12783797,159.422104 C4.39316852,159.127714 3.91015226,158.415684 3.90692416,157.622316 L3.90692416,156.483674 C3.90279707,156.218001 3.95698309,155.954669 4.06564296,155.712336 C4.27432048,155.229158 4.67151365,154.852977 5.16446538,154.671641 L6.1656147,154.292094 L6.55630711,153.88806 L6.55630711,152.957557 C6.55630711,152.957557 6.95920867,149.284519 6.12898728,148.488694" id="Path" fill="#F3D19F" fill-rule="nonzero"></path>
                                </g>
                                <g transform="translate(80.580311, 153.997927)" stroke-linecap="round" stroke-linejoin="round">
                                    <path d="M1.83767876,0.358134715 C2.31780311,2.91282902 1.98540933,4.3573057 1.48066321,5.13326425 C1.19140956,5.67633849 0.65989853,6.05958809 0.0402901554,6.17185492" id="Path" stroke="#CEA676" stroke-width="0.6"></path>
                                    <path d="M3.56120207,6.6135544 C3.56120207,6.6135544 6.41732642,6.3628601 5.37090155,0.752082902" id="Path" stroke="#CEA676" stroke-width="0.6"></path>
                                    <path d="M6.49119171,6.6135544 C6.49119171,6.6135544 9.34731606,6.3628601 8.28858031,0.752082902" id="Path" stroke="#CEA676" stroke-width="0.6"></path>
                                </g>
                                <g transform="translate(0.000000, 12.534715)">
                                    <path d="M78.8205383,144.035052 C78.8205383,144.035052 79.7170636,138.016226 78.3784163,136.018123" id="Path" stroke="#CEA676" stroke-width="0.6" stroke-linecap="round" stroke-linejoin="round"></path>
                                    <path d="M62.6339585,152.873288 L64.500696,181.925465 C66.8683597,182.627837 69.4237552,182.288942 71.5255243,180.993834 L69.0692907,151.733266 C67.0610008,152.598293 64.8796223,152.988448 62.6953643,152.873288" id="Path" fill="#F2C6A5" fill-rule="nonzero"></path>
                                    <path d="M71.3781503,90.784987 L69.3517575,81.3583525 L72.1027392,111.820234 C56.8986528,117.41002 45.0841689,113.769304 40.1717016,111.685392 L44.3718612,80.5983378 L38.7102426,87.2791126 L32.2380669,80.0834891 L46.3122858,67.996803 L46.545628,67.7884119 C46.789677,67.6177884 47.0830116,67.5316742 47.3807474,67.5432458 L50.5861323,67.7884119 C52.0598725,75.5601755 61.3075923,77.0679467 64.6112266,68.8548842 L71.722023,69.9213565 C72.3238003,70.0194229 73.6010418,70.4239469 73.8835086,70.9633122 L80.0240928,89.3507657 L71.3781503,90.784987 Z" id="Path" fill="#A546A0" fill-rule="nonzero"></path>
                                    <path d="M6.74236141,57.6875707 C6.74236141,57.6875707 3.54925765,56.3514158 2.57904535,56.7804564 C1.35092852,57.3198217 0.29474804,60.6908548 0.933368793,61.8676518 C1.91384003,62.8528151 3.34877606,63.2366245 4.6914063,62.8728326 C5.24405887,62.5296002 5.23177771,60.3231057 5.23177771,60.3231057" id="Path" fill="#F3D19F" fill-rule="nonzero"></path>
                                    <path d="M6.74236141,57.6875707 C6.74236141,57.6875707 3.54925765,56.3514158 2.57904535,56.7804564 C1.35092852,57.3198217 0.29474804,60.6908548 0.933368793,61.8676518 C1.91384003,62.8528151 3.34877606,63.2366245 4.6914063,62.8728326 C5.24405887,62.5296002 5.23177771,60.3231057 5.23177771,60.3231057" id="Path" fill="#F2C6A5" fill-rule="nonzero"></path>
                                    <path d="M34.1416479,87.8062196 C34.3578047,88.05156 34.3578047,88.4189603 34.1416479,88.6643007 C30.8871383,92.6972822 23.2236893,101.731651 20.1656784,101.167769 C16.6778266,100.530337 10.2056509,82.4370831 7.88451006,73.3536811 C7.82581711,73.090266 7.60142688,72.8961565 7.33185749,72.8756073 L5.85811729,72.7039911 C4.95315072,72.5949658 4.23624478,71.8894732 4.11419139,70.9878288 C3.88084919,69.1490834 4.83878032,65.4225595 5.77214911,63.1179987 L5.84583612,62.9831574 L11.4092054,55.1623605 L12.6373222,56.3023826 L12.6373222,56.7069066 C12.4899482,57.3933715 11.9127333,58.1533862 11.9127333,58.8766261 L12.6373222,56.7069066 C13.5584098,52.2939177 17.9673493,49.1312757 20.4113018,48.0648034 C21.1481719,47.7460876 22.7815672,49.0699842 23.6903737,49.8912905 C23.8437156,50.0305679 23.9214107,50.2344287 23.8995805,50.4402191 C23.8777503,50.6460095 23.7590064,50.8291096 23.5798432,50.9332462 C19.3305589,53.6668476 15.7935825,59.1953419 15.4497098,59.7469655 C17.070824,57.1604637 16.6778266,58.2514527 17.3164473,57.3933715 C19.4145706,54.9241221 22.0765679,52.994404 25.0781457,51.7668107 C25.1665258,51.7422424 25.2599513,51.7422424 25.3483314,51.7668107 C27.1045385,51.8403605 28.0379073,54.6107369 28.3572177,55.7875339 C28.4285929,56.0892804 28.2805752,56.4000482 28.0010638,56.5352903 C24.5009308,58.2269361 21.5288881,59.8940652 18.8393122,63.9883381 C17.4761025,66.0599912 14.8602137,70.8284708 14.2707176,71.9439764 C14.2044444,72.0964695 14.2044444,72.269557 14.2707176,72.4220501 C15.6093649,77.0066552 20.1288349,91.839201 21.3937952,92.8566401 C22.1429465,93.4695552 27.4484112,87.6836365 30.2239552,84.5700277 C30.3472058,84.4363416 30.5209059,84.3602725 30.7029208,84.3602725 C30.8849357,84.3602725 31.0586358,84.4363416 31.1818864,84.5700277 L34.1416479,87.8062196 Z" id="Path" fill="#F2C6A5" fill-rule="nonzero"></path>
                                    <path d="M12.5759164,56.5475486 C12.173659,55.6204071 11.3177049,54.9684444 10.315597,54.8259099 C9.31348899,54.6833754 8.3091544,55.0707405 7.66344903,55.8488254 C7.66344903,55.8488254 3.34047778,59.8940652 3.83172452,61.5366777 C4.17184705,62.1556315 4.73312474,62.623951 5.40371406,62.848316 C6.15857197,63.2404286 7.01767979,63.386205 7.85994773,63.2650983 C9.02665872,62.8850909 10.3161814,59.0727589 10.3161814,59.0727589" id="Path" fill="#F2C6A5" fill-rule="nonzero"></path>
                                    <path d="M12.5759164,56.5475486 C12.173659,55.6204071 11.3177049,54.9684444 10.315597,54.8259099 C9.31348899,54.6833754 8.3091544,55.0707405 7.66344903,55.8488254 C7.66344903,55.8488254 3.34047778,59.8940652 3.83172452,61.5366777 C4.17184705,62.1556315 4.73312474,62.623951 5.40371406,62.848316 C6.15857197,63.2404286 7.01767979,63.386205 7.85994773,63.2650983 C9.02665872,62.8850909 10.3161814,59.0727589 10.3161814,59.0727589" id="Path" stroke="#CEA676" stroke-width="0.6"></path>
                                    <path d="M78.4152598,40.8936966 C77.9127201,44.5470112 76.8999161,48.1120455 75.4063735,51.4848698 C73.8717702,55.1742175 71.0907118,58.2103368 67.5464258,60.0656814 C65.1377149,61.184375 62.5150837,61.7698139 59.8584144,61.7818437 C59.3303242,61.7818437 58.8145151,61.7818437 58.3232684,61.7818437 C57.2056821,61.7818437 56.1617828,61.7818437 55.1670081,61.6102275 C53.8069994,61.4839396 52.4597107,61.2461431 51.1387849,60.899246 C48.4227519,60.2404999 45.8990952,58.9558314 43.7700839,57.1482054 L43.3525242,56.7436815 C43.1026456,56.5108329 42.8648973,56.2653443 42.6402164,56.0081833 L42.5419671,55.8978586 C42.4191554,55.7630173 42.2963437,55.6159177 42.1858132,55.468818 L41.8665028,55.0520357 L41.6700041,54.7700948 L41.4735054,54.4758955 C41.3752561,54.3287959 41.2770067,54.1939546 41.1910386,54.046855 C40.7722772,53.3498921 40.4108444,52.6201734 40.1102957,51.8648771 C40.1102957,51.7177775 39.9874841,51.5706779 39.9383594,51.4235783 C39.8892347,51.2764786 39.8032665,51.0435709 39.7418607,50.847438 C39.6804549,50.6513052 39.619049,50.479689 39.5699243,50.2958144 L39.4225503,49.7564491 L39.2997386,49.1925672 C39.2939058,49.0823193 39.2939058,48.971841 39.2997386,48.8615931 C39.2951093,48.7799364 39.2951093,48.6980837 39.2997386,48.616427 C39.2997386,48.5306189 39.2997386,48.4325525 39.2997386,48.3467444 C39.2997386,48.2609363 39.2997386,48.0648034 39.2383328,47.9177038 C39.176927,47.7706042 39.2383328,47.6235045 39.2383328,47.4764049 L39.2383328,47.0841392 C39.2078333,46.5206682 39.2078333,45.9559645 39.2383328,45.3924935 C39.2997386,43.100191 40.4664496,39.1897925 40.4664496,37.4491136 C40.4664496,37.0078147 39.5986093,32.9481856 37.8629286,25.2702262 L36.9786289,23.1559331 C37.5262916,23.1456082 41.2741282,22.9645642 41.6700041,22.7759257 C43.1775317,22.0654284 43.5865897,18.8563385 44.9122326,17.8472798 C44.9122326,17.8472798 47.1596864,25.6075936 48.6457077,26.5269662 C49.2243352,26.8621499 51.1646046,19.2422709 51.5317823,19.1636052 C53.9687847,18.5473607 57.0990329,16.6151449 58.6415028,14.6336603 C58.6415028,14.6336603 57.9671145,27.2011729 61.504091,27.6792467 C62.7668055,27.6490661 59.1774483,18.3116939 60.3517039,17.8472798 C63.8681322,16.5114688 74.4714195,16.4881685 75.4063735,12.8504811 C75.4063735,12.8504811 75.6642781,34.7032539 78.1082305,39.9620656 C78.2257474,40.2362103 78.3611301,40.5023767 78.5135091,40.7588552 C78.5910273,40.9032969 78.7423453,40.9929747 78.9065065,40.991763 L79.0047558,40.991763 L79.0784428,40.991763" id="Path" fill="#F2C6A5" fill-rule="nonzero"></path>
                                    <path d="M43.7700839,57.1236888 C45.8960109,58.9359254 48.4208239,60.2211826 51.1387849,60.8747294 C48.2990855,61.3012928 45.401755,61.1385432 42.6279353,60.3966556 C41.0912005,59.9390195 39.6768924,59.1431197 38.4891815,58.0675781 C37.3179098,56.9879845 36.4967538,55.5835193 36.1311972,54.0345967 C35.6954314,52.2466472 35.5749134,50.3966138 35.7750433,48.5673938 C36.9030592,48.9630807 38.091899,49.1580857 39.2874575,49.143534 L39.397988,49.6583827 L39.545362,50.2100063 C39.545362,50.3816226 39.6558925,50.5654971 39.7172984,50.7493716 C39.7787042,50.9332462 39.84011,51.1416373 39.9137971,51.3255118 C39.9874841,51.5093864 40.0243276,51.6197111 40.0857334,51.7668107 C40.3838158,52.5231998 40.7453474,53.2531181 41.1664762,53.9487885 C41.2647256,54.0958882 41.3506938,54.2429878 41.4489431,54.3778291 L41.6454418,54.6720284 L41.8419405,54.9539693 L42.1612509,55.3707516 C42.2717814,55.5178512 42.3945931,55.6649509 42.5174047,55.7997922 L42.6156541,55.9101169 C42.8371859,56.1701462 43.0751045,56.4158107 43.3279619,56.6456151 C43.4630547,56.7927147 43.6104287,56.9152977 43.7455216,57.050139" id="Path" fill="#3F4E66" fill-rule="nonzero"></path>
                                    <path d="M83.5979128,56.5107737 C81.9645174,58.9624342 80.2328727,60.6540799 78.8205383,61.0831205 C77.9958084,61.3174201 77.1470372,61.4572478 76.2906176,61.4999028 C73.3034149,61.7155419 70.307408,61.2241372 67.5464258,60.0656814 C72.2009886,57.7856372 76.5976468,52.6003753 78.4275409,40.9427298 L78.3538539,40.9427298 L78.2556046,40.9427298 C78.0914434,40.9439415 77.9401254,40.8542636 77.8626072,40.709822 C75.4063735,36.5174826 71.6360548,18.9635937 71.6360548,18.9635937 C70.8472428,21.8389231 69.012406,24.3172417 66.4902453,25.9140511 C65.8714473,26.2976875 65.2176235,26.6219385 64.5375395,26.882457 C63.3632839,27.3468711 62.1159035,27.6000329 60.8531891,27.6302134 C57.3284937,27.164398 57.1688386,22.7268925 57.1688386,22.7268925 C55.6263687,24.7083771 53.4652568,26.1191128 51.0282544,26.7353574 C50.6610126,26.8136129 50.2861529,26.8506179 49.9106681,26.8456821 C49.2487611,26.9427457 48.5734332,26.8131167 47.9948058,26.477933 C46.5087844,25.5095271 47.1474052,23.1068999 47.1474052,23.1068999 C45.8183268,24.1311355 44.3859837,25.0144125 42.8735586,25.7424349 C42.4776827,25.9310734 42.0669239,26.0868711 41.6454418,26.2082504 C41.1270099,26.3847539 40.5842714,26.4798665 40.0366087,26.4901913 L39.8032665,26.4901913 L39.8032665,26.9069736 C39.8032665,27.1398814 39.8032665,27.3850474 39.8032665,27.65473 L39.8032665,28.059254 C39.8032665,28.5005529 39.8032665,28.9663684 39.8032665,29.4812171 L39.8032665,30.3515566 C39.8032665,30.5476894 39.8032665,30.7438222 39.8032665,30.9522134 C39.8032665,31.1606045 39.8032665,31.1483462 39.8032665,31.2464126 C39.7968638,31.3484652 39.7968638,31.4508176 39.8032665,31.5528702 C39.6558925,31.5528702 36.3399771,29.922516 33.6626824,31.6386783 C32.8398441,30.0696156 29.3765546,22.7391508 32.1275363,16.1564425 C36.7820991,5.12397037 51.4089706,0.0980664186 58.9250456,0.956147581 C66.834118,1.87552026 80.4539337,8.9363024 84.9365601,15.0531953 C89.4069054,20.839114 90.4999294,29.5302503 88.9647833,42.4872759 C88.2423974,47.501848 86.4089613,52.2925705 83.5979128,56.5107737 Z" id="Path" fill="#3F4E66" fill-rule="nonzero"></path>
                                    <path d="M42.6156541,60.3966556 C42.0271826,61.0390767 41.2628594,61.495112 40.417325,61.7082939 C40.1932446,61.7393425 39.9659411,61.7393425 39.7418607,61.7082939 C37.5294501,61.3043517 35.6973041,59.7601903 34.9276427,57.6507958 C34.8857635,57.4613532 34.8611011,57.2685241 34.8539557,57.0746556 C34.8042661,55.9174344 35.2509431,54.7939041 36.0820725,53.9855634 C36.4552264,55.5314479 37.2751724,56.9338436 38.4400569,58.0185449 C39.6277677,59.0940865 41.0420759,59.8899863 42.5788106,60.3476224" id="Path" fill="#FF74BE" fill-rule="nonzero"></path>
                                    <path d="M39.7418607,61.7573271 C39.6558925,64.6135116 39.0541153,75.7195335 34.3872713,75.2414597 C33.3924967,75.1433933 32.9626558,74.0156294 32.5328149,73.2556147 C32.3608785,72.9859321 32.3117539,72.6059247 32.1152552,72.5446332 C31.9187565,72.4833417 31.4275097,72.6794745 31.0467935,72.8020575 C29.8451824,73.4110919 28.4159729,73.3695419 27.2519125,72.6917328 C26.2080132,72.0175262 26.4290742,70.7426627 26.5518859,69.9336148 C26.6132918,69.578124 26.8343528,69.0755336 26.7361034,68.9774672 C26.6378541,68.8794008 26.122045,68.9774672 25.8764217,68.9774672 C25.1149892,68.9774672 24.1816204,69.5045742 23.272814,67.6167956 C21.1358907,63.2283234 32.0170058,58.3372608 34.8539557,57.1482054 C34.8611011,57.3420739 34.8857635,57.534903 34.9276427,57.7243457 C35.6973041,59.8337402 37.5294501,61.3779015 39.7418607,61.7818437" id="Path" fill="#3F4E66" fill-rule="nonzero"></path>
                                    <path d="M25.5693925,68.9774672 C26.4938506,68.8237472 27.3994817,68.5731079 28.2712495,68.2297107 C28.7014763,68.0751098 29.1133322,67.8736761 29.4993663,67.6290539 C29.8678014,67.3716296 30.1379871,67.0406554 29.9292072,66.7587145 C29.7204273,66.4767735 29.3519923,66.6116148 28.9835572,66.7587145 C28.5812098,66.9590149 28.2091223,67.2148646 27.8782521,67.5187292 C27.1852135,68.1334043 26.7182803,68.9619623 26.5518859,69.8723233 C26.5396815,68.8923577 26.9198707,67.9480669 27.6080664,67.2490466 C27.9607351,66.8800871 28.3766509,66.577034 28.8361832,66.3541905 C29.0424581,66.2775346 29.2566561,66.2240848 29.474804,66.1948326 C29.6283722,66.15968 29.7879202,66.15968 29.9414884,66.1948326 C30.0315791,66.2393234 30.1143939,66.2971858 30.1871117,66.3664488 L30.2976423,66.5503233 C30.4630367,66.8257668 30.4630367,67.1697359 30.2976423,67.4451794 C30.1501782,67.667579 29.9524704,67.8523226 29.7204273,67.9845447 C29.3047822,68.2466966 28.854112,68.4489142 28.38178,68.5852015 C27.4670381,68.8658826 26.514017,69.0023658 25.5571113,68.9897255" id="Path" fill="#000000" fill-rule="nonzero"></path>
                                    <path d="M31.1696052,72.6794745 C31.6231845,72.5343029 32.0414569,72.2963316 32.397722,71.9807513 C32.7547854,71.6937751 33.083758,71.373624 33.3802155,71.0246037 C33.67511,70.6868577 33.9305625,70.3167301 34.1416479,69.9213565 C34.3258655,69.5290908 34.362709,69.1123085 34.1416479,68.8916591 C34.0049972,68.8916176 33.8717993,68.9345046 33.7609317,69.0142421 C33.581974,69.1346873 33.4135322,69.27001 33.2574038,69.4187661 C32.9544161,69.7456517 32.6981778,70.1127929 32.4959714,70.509755 C32.0355939,71.3106931 32.0355939,72.2953186 32.4959714,73.0962568 C32.1753532,72.7319928 31.9739499,72.2786099 31.9187565,71.7968767 C31.8787554,71.3069851 31.9588421,70.8147381 32.1520987,70.3626554 C32.3338828,69.9080107 32.600618,69.4920129 32.9380934,69.1368251 C33.1071293,68.9478042 33.3013448,68.7828222 33.5153084,68.646493 C33.770001,68.4211612 34.1398152,68.3817878 34.436396,68.5484266 C34.6576639,68.758431 34.7783488,69.0528893 34.7679875,69.3574746 C34.7485614,69.6234918 34.6732408,69.8824463 34.5469265,70.1174893 C33.8412868,71.3924771 32.6427695,72.3229216 31.2310111,72.6917328" id="Path" fill="#000000" fill-rule="nonzero"></path>
                                    <path d="M84.3102206,59.3546999 C84.2813647,59.5501708 84.2361761,59.7428896 84.1751277,59.9308401 C83.2094064,61.9526645 81.240928,63.3107658 79.0047558,63.4980061 C78.7761072,63.4872094 78.5494623,63.4501911 78.3292916,63.3876813 C77.5092817,63.0960969 76.7951415,62.5668244 76.2783365,61.8676518 C76.2783365,61.7450688 76.2783365,61.6224858 76.2783365,61.4999028 C77.134756,61.4572478 77.9835272,61.3174201 78.8082571,61.0831205 C80.2205915,60.6540799 81.9522362,58.9379176 83.5856316,56.5107737 C84.1859364,57.3295749 84.4415832,58.3502579 84.2979394,59.3546999" id="Path" fill="#FF74BE" fill-rule="nonzero"></path>
                                    <path d="M79.0047558,63.4980061 C78.8082571,66.3541905 78.3538539,77.4724707 83.0452602,77.4235992 C83.9909102,77.4235992 84.7277803,76.3447069 85.2067458,75.6705003 C85.4155257,75.3517844 85.366401,74.9472604 85.5874621,74.8982272 C85.8085231,74.849194 86.3734568,75.2046848 86.8155789,75.4130759 C87.8953042,76.0657414 89.2346197,76.1212496 90.3648365,75.5601755 C91.5069852,74.9595187 91.3596112,73.5988472 91.3104865,72.7897992 C91.3104865,72.4833417 91.2367995,71.968493 91.3104865,71.8826848 C91.5806722,71.6620354 91.9368261,71.9562347 92.2315741,72.0052679 C92.9561631,72.1278509 93.7912825,72.5446332 94.7983383,70.8775041 C97.3405401,66.7096813 86.9875152,60.8011795 84.273377,59.3546999 C84.2458754,59.5464188 84.2006515,59.7351848 84.1382842,59.9185818 C83.1739,61.943485 81.2058911,63.3059283 78.9679123,63.4980061" id="Path" fill="#3F4E66" fill-rule="nonzero"></path>
                                    <path d="M92.4157916,72.0297845 C91.4598744,71.9582056 90.5222193,71.73044 89.6402476,71.3555778 C89.1989204,71.1784199 88.7853359,70.9389875 88.4121308,70.6445963 C88.1902434,70.4897074 88.0090846,70.283655 87.8840405,70.0439395 C87.7180687,69.7730613 87.7180687,69.4322199 87.8840405,69.1613417 L88.0191334,68.9774672 C88.0928204,68.9774672 88.1910697,68.8426259 88.2770379,68.8426259 C88.4262543,68.8057621 88.5822247,68.8057621 88.7314411,68.8426259 C88.9846965,68.9152517 89.2250301,69.0269229 89.4437489,69.1736 C89.8631674,69.439076 90.2296132,69.779901 90.5244917,70.1787808 C91.1411718,70.9397915 91.4284696,71.9147852 91.3227677,72.8878656 C91.2471626,71.9730505 90.8666655,71.1098944 90.2420249,70.4362052 C89.9417566,70.1016586 89.5942295,69.8125919 89.2104067,69.578124 C88.8542528,69.3574746 88.3384438,69.1613417 88.2770379,69.4432827 C88.2156321,69.7252236 88.2770379,70.0684561 88.6209106,70.3503971 C88.9786067,70.6321238 89.3656461,70.8746005 89.7753405,71.0736369 C90.6101509,71.4949309 91.4869041,71.8277233 92.3912293,72.0665594" id="Path" fill="#000000" fill-rule="nonzero"></path>
                                    <path d="M86.4839873,75.1924265 C85.5701903,74.894836 84.7718385,74.3207502 84.19969,73.549814 C83.8757068,73.1866759 83.6142599,72.7724535 83.4259764,72.3239837 C83.3296602,72.0781662 83.2837231,71.8155619 83.2908836,71.5517107 C83.300077,71.2487031 83.4441592,70.9655695 83.683881,70.7794376 C83.9983706,70.634859 84.3703814,70.7091226 84.6049686,70.9633122 C84.8013131,71.1181568 84.9749393,71.2997122 85.1207777,71.5026775 C85.4244075,71.8904429 85.6534276,72.3310054 85.7962419,72.8020575 C85.9454626,73.2734514 85.9791559,73.7737075 85.8944913,74.2607955 C85.7865371,74.729047 85.5431118,75.1553137 85.1944647,75.4866257 C85.7278419,74.7334653 85.8257656,73.7560512 85.4523692,72.9123822 C85.2927874,72.496155 85.0690275,72.1073724 84.7891861,71.7601018 C84.6600123,71.5881908 84.5070146,71.4354779 84.3347829,71.3065446 C84.1751277,71.159445 83.9417855,71.1226701 83.9663478,71.1471867 C83.683881,71.3310612 83.683881,71.7601018 83.831255,72.1646258 C83.9973486,72.5790332 84.2161075,72.9704181 84.4821569,73.3291645 C84.7432801,73.7073566 85.0393213,74.060303 85.366401,74.3833785 C85.6812013,74.7246933 86.0611724,74.9997637 86.4839873,75.1924265" id="Path" fill="#000000" fill-rule="nonzero"></path>
                                    <path d="M67.6815186,50.1609731 C67.6399033,51.594973 66.9711979,52.9388529 65.8516246,53.8384638 C60.4724728,51.656486 54.1108276,54.4268623 51.5317823,55.7752756 C47.6877766,53.9487885 46.0052565,50.5900137 47.6140896,48.1260949 C48.0716351,47.3697406 48.8904032,46.9053976 49.7755752,46.9002647 C49.7755752,47.5989879 49.6527635,48.5673938 49.6036389,49.266117 C49.5715249,49.8089443 49.9015228,50.3080101 50.414196,50.4919473 C52.8704296,51.4848698 60.3742235,53.8139472 67.6815186,50.0016152" id="Path" fill="#FF74BE" fill-rule="nonzero"></path>
                                    <path d="M67.6815186,50.1609731 C67.6399033,51.594973 66.9711979,52.9388529 65.8516246,53.8384638 C60.4724728,51.656486 54.1108276,54.4268623 51.5317823,55.7752756 C47.6877766,53.9487885 46.0052565,50.5900137 47.6140896,48.1260949 C48.0716351,47.3697406 48.8904032,46.9053976 49.7755752,46.9002647 C49.7755752,47.5989879 49.6527635,48.5673938 49.6036389,49.266117 C49.5715249,49.8089443 49.9015228,50.3080101 50.414196,50.4919473 C52.894992,51.6442277 60.3742235,53.9365302 67.6815186,50.1609731 Z" id="Path" stroke="#000000" stroke-width="0.6" stroke-linecap="round" stroke-linejoin="round"></path>
                                    <path d="M67.6815186,50.1609731 C60.3128176,53.9733051 52.9441166,51.6442277 50.414196,50.6513052 C49.9015228,50.467368 49.5715249,49.9683022 49.6036389,49.425475 C49.6036389,48.7267517 49.7387317,47.7583459 49.7755752,47.0596226 C51.5317823,46.9738145 53.9388913,47.8809289 56.837247,47.9912536 C59.7356027,48.1015783 65.7902187,45.7847592 67.2393966,48.6041687 C67.4966801,49.0855472 67.6474499,49.616439 67.6815186,50.1609731 Z" id="Path" stroke="#000000" stroke-width="0.6" stroke-linecap="round" stroke-linejoin="round"></path>
                                    <path d="M67.6815186,50.1609731 C60.3128176,53.9733051 52.9441166,51.6442277 50.414196,50.6513052 C49.9015228,50.467368 49.5715249,49.9683022 49.6036389,49.425475 C49.6036389,48.7267517 49.7387317,47.7583459 49.7755752,47.0596226 C51.5317823,46.9738145 53.9388913,47.8809289 56.837247,47.9912536 C59.7356027,48.1015783 65.7902187,45.7847592 67.2393966,48.6041687 C67.5035342,49.1003849 67.6545101,49.6487463 67.6815186,50.2100063" id="Path" fill="#FFFFFF" fill-rule="nonzero"></path>
                                    <path d="M67.6815186,50.1609731 C60.3128176,53.9733051 52.9441166,51.6442277 50.414196,50.6513052 C49.9015228,50.467368 49.5715249,49.9683022 49.6036389,49.425475 C49.6036389,48.7267517 49.7387317,47.7583459 49.7755752,47.0596226 C51.5317823,46.9738145 53.9388913,47.8809289 56.837247,47.9912536 C59.7356027,48.1015783 65.7902187,45.7847592 67.2393966,48.6041687 C67.4966801,49.0855472 67.6474499,49.616439 67.6815186,50.1609731 Z" id="Path" stroke="#000000" stroke-width="0.6" stroke-linecap="round" stroke-linejoin="round"></path>
                                    <path d="M65.8516246,53.9365302 C63.2690587,56.1397675 59.9496229,57.290872 56.5547801,57.1604637 C54.819672,57.0602964 53.1174487,56.6448798 51.5317823,55.9346335 C54.1108276,54.573962 60.4724728,51.8035856 65.8516246,53.9855634" id="Path" fill="#F9487B" fill-rule="nonzero"></path>
                                    <path d="M65.8516246,53.9365302 C63.2690587,56.1397675 59.9496229,57.290872 56.5547801,57.1604637 C54.819672,57.0602964 53.1174487,56.6448798 51.5317823,55.9346335 C54.1108276,54.4881538 60.4724728,51.7177775 65.8516246,53.9365302 Z" id="Path" stroke="#000000" stroke-width="0.6" stroke-linecap="round" stroke-linejoin="round"></path>
                                    <path d="M46.3736916,37.3387889 C45.2192618,37.2039476 42.3945931,37.8904125 42.9472456,39.4594752 C43.3279619,40.5382058 44.8385456,39.778191 45.968413,39.937549 C47.5158402,40.1336818 49.2966097,40.86918 49.5176707,39.7536744 C49.8001376,38.2949365 48.375522,37.5716966 46.3736916,37.302014" id="Path" fill="#F0B094" fill-rule="nonzero"></path>
                                    <path d="M67.6446751,38.8588184 C66.4902453,38.723977 63.6655766,39.410442 64.2182292,40.9672464 C64.5989454,42.0582353 66.1095291,41.2982205 67.2393966,41.4575785 C68.7868238,41.6537113 70.5675932,42.3892094 70.7886542,41.2737039 C71.0711211,39.814966 69.6465056,39.0917261 67.6446751,38.8220435" id="Path" fill="#F0B094" fill-rule="nonzero"></path>
                                    <path d="M51.0282544,33.7103314 C51.0282544,34.9361616 50.3650713,35.9168258 49.5545142,35.9168258 C48.7439571,35.9168258 48.0684928,34.9361616 48.0684928,33.7103314 C48.0684928,32.4845012 48.7316759,31.5160953 49.5545142,31.5160953 C50.3773525,31.5160953 51.0282544,32.4967595 51.0282544,33.7103314" id="Path" fill="#000000" fill-rule="nonzero"></path>
                                    <path d="M67.3253648,33.7103314 C67.3253648,34.9361616 66.6621817,35.9168258 65.8516246,35.9168258 C65.0410674,35.9168258 64.3656032,34.9361616 64.3656032,33.7103314 C64.3656032,32.4845012 65.0287863,31.5160953 65.8516246,31.5160953 C66.6744628,31.5160953 67.3253648,32.4967595 67.3253648,33.7103314" id="Path" fill="#000000" fill-rule="nonzero"></path>
                                    <path d="M46.6684396,28.1205455 C46.6684396,28.1205455 49.3457343,23.2172246 51.9861855,28.1205455" id="Path" stroke="#000000" stroke-width="0.6" stroke-linecap="round" stroke-linejoin="round"></path>
                                    <path d="M63.6164519,28.1205455 C63.6164519,28.1205455 66.2814655,23.2172246 68.9341978,28.1205455" id="Path" stroke="#000000" stroke-width="0.6" stroke-linecap="round" stroke-linejoin="round"></path>
                                    <path d="M40.0857334,34.3967963 C40.0857334,34.1884052 40.0857334,33.9922724 40.0857334,33.7716229 C40.0857334,33.5509735 40.0857334,33.5141986 40.0857334,33.3916155 L40.0857334,32.7419255 C40.0857334,32.6316008 40.0857334,32.5212761 40.0857334,32.4109514 L40.0857334,31.7244864 C40.0918281,31.6510624 40.0918281,31.577261 40.0857334,31.503837 L40.0857334,31.503837 C39.9383594,31.503837 36.6224439,29.8734828 33.9451493,31.5896451 C32.4222844,32.5948259 31.1327617,34.7032539 30.8380137,38.8465601 C30.3958916,45.1350692 33.2082792,47.6112462 35.8364492,48.5673938 C36.9644651,48.9630807 38.1533048,49.1580857 39.3488633,49.143534 C39.3430305,49.0332861 39.3430305,48.9228078 39.3488633,48.8125599 C39.3442339,48.7309032 39.3442339,48.6490505 39.3488633,48.5673938 C39.3488633,48.4693274 39.3488633,48.3835193 39.3488633,48.2977112 C39.3488633,48.211903 39.3488633,48.0157702 39.2874575,47.8686706 C39.2260516,47.721571 39.2874575,47.5744713 39.2874575,47.4273717 L39.2874575,47.035106 C39.2567899,46.4716395 39.2567899,45.9069268 39.2874575,45.3434603 C39.3488633,43.0511578 40.5155743,39.1407593 40.5155743,37.4000804 C40.5155743,36.7381321 40.5155743,35.6594015 40.5155743,34.3967963" id="Path" fill="#F2C6A5" fill-rule="nonzero"></path>
                                    <path d="M35.5171388,33.3548406 C35.5171388,33.3548406 38.3418075,34.6542207 37.7277491,39.1530176 C37.7533802,40.3150491 37.9099264,41.4705121 38.1944335,42.5976006" id="Path" stroke="#000000" stroke-width="0.6" stroke-linecap="round" stroke-linejoin="round"></path>
                                    <path d="M37.8628419,45.5886264 C37.8628073,45.9467119 37.6460151,46.2692875 37.3140855,46.4051473 C36.9821559,46.5410072 36.6008827,46.4632218 36.3489858,46.2082527 C36.0970889,45.9532835 36.0244982,45.5716696 36.1652404,45.2422904 C36.3059825,44.9129113 36.6321601,44.7010552 36.990879,44.7060286 C37.2242816,44.7060055 37.4479505,44.7993825 37.6118329,44.9652637 C37.7757153,45.1311449 37.8661293,45.3556814 37.8628419,45.5886264" id="Path" fill="#B3337F" fill-rule="nonzero"></path>
                                    <path d="M85.4646504,35.1200362 C84.1556423,33.8571409 82.3672869,33.2145317 80.552183,33.3548406 C80.2426278,35.8803545 79.5983736,38.3536416 78.6363208,40.709822 C78.5996358,40.8225303 78.5138687,40.9126434 78.4029786,40.9549881 C77.8987736,44.586798 76.8902152,48.1308087 75.4063735,51.4848698 C75.4063735,51.5706779 75.4923417,51.6197111 75.4800605,51.6319694 C76.6809204,51.947536 77.9277856,52.051248 79.164411,51.938427 C82.0750479,51.6319694 85.5751809,49.829999 86.7296107,43.3576153 C87.4910431,39.0672095 86.7296107,36.6032907 85.4278069,35.193586" id="Path" fill="#F2C6A5" fill-rule="nonzero"></path>
                                    <path d="M83.3400083,36.492966 C83.3400083,36.492966 80.1346233,37.0936228 79.6556578,41.8375858 C79.3280835,43.0064752 78.8751546,44.1366892 78.3047292,45.208619" id="Path" stroke="#000000" stroke-width="0.6" stroke-linecap="round" stroke-linejoin="round"></path>
                                    <path d="M79.6188143,48.775785 C79.4921182,49.2724817 78.9872536,49.573741 78.4889468,49.4499916 C77.9994394,49.3214775 77.7055388,48.8227919 77.8308227,48.3332981 C77.9561067,47.8438043 78.4536285,47.5469265 78.9449104,47.6685075 C79.4361922,47.7900885 79.7371397,48.2845691 79.6188143,48.775785" id="Path" fill="#B3337F" fill-rule="nonzero"></path>
                                    <path d="M62.7936136,68.7200428 C59.318043,74.9962936 53.8774854,72.6549579 52.4037452,67.9232532 L55.0441964,68.1316443 L55.1547269,61.5857109 C56.1495016,61.6960356 57.1934009,61.7450688 58.3109872,61.7573271 L59.8461332,61.7573271 L59.8461332,68.4993934 L62.7936136,68.7200428 Z" id="Path" fill="#EABF8F" fill-rule="nonzero"></path>
                                    <path d="M60.4724728,86.5558727 L65.298972,85.7223082 C65.6073696,85.6807684 65.9106877,85.8276924 66.0688201,86.0952143 C66.2269525,86.3627363 66.2091205,86.6987861 66.0235609,86.9481384 L61.9584942,91.8514593 C61.809192,92.0325859 61.7504509,92.271623 61.798839,92.5011494 L63.0269558,98.2135182 C63.1029424,98.5319127 62.9661728,98.8631036 62.6874779,99.0355728 C62.408783,99.2080419 62.0507664,99.1830472 61.798839,98.973533 L57.5618359,95.6147581 C57.31821,95.4266228 56.9869388,95.3978703 56.7144353,95.5412083 L51.580907,98.3115847 C51.3006984,98.4587976 50.9589012,98.4207261 50.7180983,98.2154795 C50.4772955,98.010233 50.3860969,97.6792437 50.487883,97.3799537 L52.3423394,92.1579169 C52.428658,91.9232586 52.3917907,91.6610682 52.2440901,91.4591937 L48.7808006,86.6416808 C48.5976301,86.3941225 48.5792015,86.0616419 48.7338946,85.7954262 C48.8885877,85.5292106 49.1868713,85.3800811 49.4931083,85.4158506 L53.9757348,85.9674742 C54.3240775,86.0139184 54.6590142,85.8163698 54.7862919,85.4894004 L56.6284671,80.8802787 C56.7538481,80.5827891 57.051346,80.3944945 57.3743995,80.4081577 C57.697453,80.4218209 57.9779263,80.6345602 58.077645,80.9415703 L59.6373534,86.0042491 C59.7584944,86.3713186 60.1260756,86.5986912 60.5093163,86.5436144" id="Path" fill="#95C11F" fill-rule="nonzero"></path>
                                    <path d="M14.0373754,72.1646258 C14.0373754,72.1646258 18.9498427,71.3065446 18.9498427,68.6587513 C18.9498427,66.010958 14.4917786,62.4683087 12.3671365,62.9586407 C11.384643,63.1792902 9.64071714,65.0670687 9.81265349,66.0599912 C9.98458985,67.0529137 13.8408767,68.4381019 13.8408767,68.4381019" id="Path" fill="#F3D19F" fill-rule="nonzero"></path>
                                    <path d="M14.0373754,72.1646258 C14.0373754,72.1646258 18.9498427,71.3065446 18.9498427,68.6587513 C18.9498427,66.010958 14.4917786,62.4683087 12.3671365,62.9586407 C11.384643,63.1792902 9.64071714,65.0670687 9.81265349,66.0599912 C9.98458985,67.0529137 13.8408767,68.4381019 13.8408767,68.4381019" id="Path" fill="#F2C6A5" fill-rule="nonzero"></path>
                                    <path d="M72.3729249,114.651902 C72.4238496,115.301043 72.0149419,115.897957 71.3904315,116.086123 L70.4447815,116.355806 C65.973058,117.54201 61.3659451,118.14361 56.7389977,118.145518 L56.7389977,118.145518 C56.2477509,118.145518 55.7565042,118.145518 55.2652575,118.145518 C50.6566546,117.899007 46.0973626,117.075333 41.6945665,115.693857 L40.8717282,115.424175 C40.2488953,115.213162 39.8628862,114.59156 39.9506406,113.94092 L40.2453886,111.734426 C45.1578559,113.818337 56.9600587,117.459053 72.1764262,111.869267 L72.3729249,114.651902 Z" id="Path" fill="#95C11F" fill-rule="nonzero"></path>
                                    <path d="M75.7502462,146.511229 C70.1891089,149.69656 63.3466236,149.673187 57.8074593,146.449938 L57.3530561,128.3812 C56.4074061,128.3812 55.4863185,128.3812 54.5897932,128.30765 L53.5336127,146.118964 C47.9959566,149.343482 41.1548289,149.371524 35.5908258,146.192514 L41.6331606,115.644824 C46.0161801,117.021266 50.5545284,117.844884 55.1424458,118.096485 C55.6336925,118.096485 56.1372204,118.096485 56.6284671,118.096485 L56.6284671,118.096485 C61.2554146,118.094577 65.8625275,117.492977 70.334251,116.306772 L71.2553386,120.940411 C71.0046835,121.03166 70.777962,121.178336 70.5921555,121.369451 L69.7815984,122.166241 C69.2253053,122.733705 69.0610908,123.577353 69.3640387,124.311444 C69.7570361,125.2063 70.2974075,126.444388 70.7886542,127.376019 L70.7886542,127.376019 C70.9273489,127.655052 71.0832082,127.92525 71.2553386,128.185067 C71.7809722,128.90111 72.3866583,129.55502 73.0606704,130.134137 L73.0606704,130.134137 L75.7502462,146.511229 Z" id="Path" fill="#455A64" fill-rule="nonzero"></path>
                                    <path d="M76.3765858,149.624838 C71.2278297,154.151342 63.6306609,154.532526 58.0530827,150.544211 L57.8074593,146.449938 C63.3466236,149.673187 70.1891089,149.69656 75.7502462,146.511229 L76.3765858,149.624838 Z" id="Path" fill="#455A64" fill-rule="nonzero"></path>
                                    <path d="M73.183482,130.183171 C72.50947,129.604053 71.9037838,128.950143 71.3781503,128.234101 C71.2060199,127.974284 71.0501606,127.704085 70.9114659,127.425053 L70.9114659,127.425053 C70.4202192,126.493422 69.8675666,125.255333 69.4745692,124.360477 C69.1716214,123.626386 69.3358358,122.782738 69.8921289,122.215274 L70.702686,121.418485 C70.8884925,121.227369 71.115214,121.080693 71.3658691,120.989444 L72.6922353,127.682477 L73.183482,130.183171 Z" id="Path" fill="#455A64" fill-rule="nonzero"></path>
                                    <path d="M57.3530561,128.3812 C59.7559545,128.452186 62.158924,128.242369 64.5129772,127.756027" id="Path" stroke="#25383F" stroke-width="0.6" stroke-linecap="round" stroke-linejoin="round"></path>
                                    <path d="M57.3530561,128.3812 C54.0248595,128.234101 48.5965831,127.829577 48.5965831,127.756027" id="Path" stroke="#25383F" stroke-width="0.6" stroke-linecap="round" stroke-linejoin="round"></path>
                                    <path d="M53.5336127,146.118964 L53.2879894,150.225495 C51.0052363,151.845695 48.3201659,152.808315 45.526291,153.00813 C43.3380723,153.122974 41.1527763,152.73287 39.1400835,151.868108 C37.6216948,151.246303 36.2153729,150.380893 34.9767674,149.306122 L35.5908258,146.192514 C41.1548289,149.371524 47.9959566,149.343482 53.5336127,146.118964" id="Path" fill="#455A64" fill-rule="nonzero"></path>
                                    <line x1="69.314914" y1="81.3583525" x2="68.9710413" y2="77.9260279" id="Path" stroke="#822E82" stroke-width="0.6" stroke-linecap="round" stroke-linejoin="round"></line>
                                    <line x1="44.3718612" y1="80.5983378" x2="44.9122326" y2="76.4550316" id="Path" stroke="#822E82" stroke-width="0.6" stroke-linecap="round" stroke-linejoin="round"></line>
                                    <path d="M58.372393,37.7310546 C58.372393,37.7310546 52.5634004,36.5052243 53.7178303,43.0879327" id="Path" stroke="#000000" stroke-width="0.6" stroke-linecap="round" stroke-linejoin="round"></path>
                                    <path d="M36.1066349,29.6773499 C36.1803219,33.2567742 40.1471393,37.4000804 40.1471393,37.4000804 L39.9137971,30.9031802" id="Path" fill="#3F4E66" fill-rule="nonzero"></path>
                                    <path d="M64.6235077,68.8548842 C61.3198734,77.0679467 52.0721537,75.5601755 50.5984135,67.7884119 L52.4037452,67.9232532 C53.8774854,72.6549579 59.318043,74.9962936 62.7936136,68.7200428 L64.6235077,68.8548842 Z" id="Path" fill="#95C11F" fill-rule="nonzero"></path>
                                    <path d="M39.1523646,88.9707583 L37.7277491,90.3559464 C37.5696369,90.5271642 37.3469812,90.6245642 37.1136907,90.6245642 C36.8804002,90.6245642 36.6577445,90.5271642 36.4996323,90.3559464 L34.5346453,88.2597768 L30.5309845,84.0551791 L28.9712761,82.4125665 C28.7962449,82.2567357 28.6961559,82.0337565 28.6961559,81.7996514 C28.6961559,81.5655464 28.7962449,81.3425671 28.9712761,81.1867363 L30.641515,79.593157 C30.7996272,79.4219393 31.0222829,79.3245393 31.2555734,79.3245393 C31.4888639,79.3245393 31.7115196,79.4219393 31.8696318,79.593157 L32.250348,80.0221976 L38.7225237,87.2178211 L39.2014893,87.7571864 C39.5167167,88.0768433 39.5167167,88.5898098 39.2014893,88.9094668" id="Path" fill="#95C11F" fill-rule="nonzero"></path>
                                    <path d="M81.8908304,88.7501088 L82.2469843,90.5643376 C82.2863885,90.7644947 82.2435288,90.9720604 82.1280442,91.1403539 C82.0125597,91.3086475 81.8341453,91.4235404 81.6329259,91.4591937 L78.9801935,91.9495258 L73.68701,92.9179316 L71.6114925,93.297939 C71.1897688,93.3658208 70.7892439,93.0902974 70.702686,92.6727656 L70.2974075,90.5765959 C70.2619244,90.3732355 70.3094827,90.1641603 70.4294681,89.9960328 C70.5494536,89.8279053 70.7318785,89.7147206 70.9360282,89.6817398 L71.4641185,89.5959317 L80.3434032,88.2597768 L81.0065863,88.1617103 C81.4172516,88.100856 81.8045138,88.3692873 81.8908304,88.7746254" id="Path" fill="#95C11F" fill-rule="nonzero"></path>
                                    <path d="M129.320702,127.486344 C132.410468,127.621317 135.505894,127.432322 138.556141,126.922462" id="Path" stroke="#25383F" stroke-width="0.6" stroke-linecap="round" stroke-linejoin="round"></path>
                                    <path d="M11.8022028,58.913401 C11.8022028,58.913401 12.2197625,57.7611206 12.5390729,56.4617405" id="Path" stroke="#CEA676" stroke-width="0.6" stroke-linecap="round" stroke-linejoin="round"></path>
                                    <path d="M15.2409299,59.967615 C15.6855976,59.206183 16.1950996,58.4843655 16.7637948,57.8101538" id="Path" fill="#F2C6A5" fill-rule="nonzero"></path>
                                </g>
                            </g>
                        </g>
                    </g>
                </g>
            </g>
        </g>
    </g>
</svg>