<svg id="Capa_2" data-name="Capa 2" xmlns="http://www.w3.org/2000/svg" xmlns:xlink="http://www.w3.org/1999/xlink" viewBox="0 0 197.97 196"><defs><style>.cls-1,.cls-12,.cls-13,.cls-19,.cls-21,.cls-22,.cls-24,.cls-26,.cls-27,.cls-29,.cls-30,.cls-31,.cls-32,.cls-4,.cls-5,.cls-8{fill:none;}.cls-2{clip-path:url(#clip-path);}.cls-3{fill:#f3d19f;}.cls-21,.cls-24,.cls-4,.cls-5{stroke:#cea676;}.cls-12,.cls-21,.cls-22,.cls-26,.cls-27,.cls-29,.cls-30,.cls-31,.cls-32,.cls-4,.cls-5,.cls-8{stroke-linecap:round;stroke-linejoin:round;}.cls-4{stroke-width:0.34px;}.cls-22,.cls-29,.cls-5{stroke-width:0.31px;}.cls-6{clip-path:url(#clip-path-2);}.cls-7{fill:#455a64;}.cls-19,.cls-22,.cls-26,.cls-27,.cls-31,.cls-32,.cls-8{stroke:#000;}.cls-12,.cls-13,.cls-19,.cls-21,.cls-24,.cls-8{stroke-width:0.3px;}.cls-9{fill:#0275d8;}.cls-10{fill:#95c11f;}.cls-11{fill:#eabf8f;}.cls-12{stroke:#034f87;}.cls-13{stroke:#0275d8;}.cls-13,.cls-19,.cls-24{stroke-miterlimit:10;}.cls-14{fill:#684642;}.cls-15{fill:#e2b486;}.cls-16{fill:#ff74be;}.cls-17{fill:#fff;}.cls-18{fill:#f9487b;}.cls-20{clip-path:url(#clip-path-4);}.cls-23{fill:#a546a0;}.cls-25{fill:#3f4e66;}.cls-26{stroke-width:0.38px;}.cls-27{stroke-width:0.2px;}.cls-28{fill:#f0b094;}.cls-29{stroke:#25383f;}.cls-30{stroke:#822e82;stroke-width:0.36px;}.cls-31{stroke-width:0.33px;}.cls-32{stroke-width:0.38px;}</style><clipPath id="clip-path"><path class="cls-1" d="M19.57,99.8A79.34,79.34,0,1,0,98.91,20.46,79.34,79.34,0,0,0,19.57,99.8"/></clipPath><clipPath id="clip-path-2"><path class="cls-1" d="M94.94,125.14a1.71,1.71,0,0,0-.3,2.26l9.71,14.32-.18.14a1.65,1.65,0,0,0-.44,2c1.33,2.74,4.8,9.44,7.43,10.27.94.29,3-1.16,4.55-2.52a.94.94,0,0,1,.1-.1,9.71,9.71,0,0,0,1.48-1.6c.11-.18.24-.4.38-.65h0c.4-.75.84-1.76,1.16-2.5a1.58,1.58,0,0,0-.34-1.74l-.66-.66a1.57,1.57,0,0,0-1.77-.32l-.8.36L111.91,141l-3-3-.68.56-7.79-10.3a1.71,1.71,0,0,1,.31-2.39l5.65-4.41a7.67,7.67,0,0,1-2.27-1.71,11.76,11.76,0,0,1-1-1.58Z"/></clipPath><clipPath id="clip-path-4"><path class="cls-1" d="M82.25,120.26c.66,4.29,2.81,13,4.16,20.63a114.81,114.81,0,0,1,1.66,17l-1,4.41c.68.68.35,3.65.35,3.65l0,.76-.32.33-.82.31a1.57,1.57,0,0,0-.9.85,1.48,1.48,0,0,0-.13.63v.93a1.59,1.59,0,0,0,1,1.47c.74.3,1.77.71,2.58,1h0c.27.09.52.16.73.21a10.29,10.29,0,0,0,2.17.09h.14c2-.1,4.55-.54,5-1.41,1.29-2.44-1-9.64-1.94-12.52a1.63,1.63,0,0,0-1.7-1.09l-.22,0a113.4,113.4,0,0,0-2.23-17.59c-1.94-9.13-4.83-19.18-5.75-20.9-.42-.78-.82-1.07-1.17-1.07-.94,0-1.58,2-1.54,2.32"/></clipPath></defs><title>icono alumnos</title><g class="cls-2"><path class="cls-3" d="M169,104.63c-1.74,7.22-7.19,22.64-10.09,23.18-2,.36-6.23-4.12-9.26-7.65A14.74,14.74,0,0,0,152,118.5a11.13,11.13,0,0,0,1.2-1.76c2.13,2.29,4.49,4.64,4.94,4.28,1.23-1,5.75-16.76,5.75-16.76Z"/><path class="cls-3" d="M170.55,103.87c-.61.81-3.89,1.06-3.89,1.06h-3.25a3.66,3.66,0,0,1-2.42-1.16c-1.23-1.26-2.57-6.53-2.57-6.53s-4.53-6.24-5.06-6.79a2.64,2.64,0,0,1-.29-1.54c.31-.75,1.83-2.41,2.54-2,1.56.86,4,4.74,5,7.22l.14-.07c-.57-1.4-3.06-7.52-3.38-8.11a2.61,2.61,0,0,1,.13-1.56c.51-.64,2.42-1.83,3-1.27,1.28,1.26,3,6.93,3.3,9.67l.18-.06c-.23-1.6-1.08-7.25-1.23-7.87a2.39,2.39,0,0,1,.49-1.41c.62-.48,2.68-1.14,3.09-.47.85,1.4,1.13,6.29.87,9l.51,0c0-1.57.07-5.22,0-5.72a2.1,2.1,0,0,1,.6-1.17c.6-.34,2.47-.64,2.73,0,.6,1.4.06,5.23-.58,7.38h0s1.82,9.19.08,11.47"/><path class="cls-3" d="M161,103.85a19.73,19.73,0,0,0-6.26-1c-.4,0-.89-.86-1-1.24a7.52,7.52,0,0,1,.2-2.52,1.1,1.1,0,0,1,1.28-.88c1.47.28,4.78.75,6.9,2.55"/><path class="cls-4" d="M160,94.69s2.65-2.21,8.38-2.77"/><path class="cls-3" d="M108.92,138l-.68.56-7.79-10.3a1.71,1.71,0,0,1,.31-2.39l5.65-4.41a7.67,7.67,0,0,1-2.27-1.71,11.76,11.76,0,0,1-1-1.58l-8.17,7a1.71,1.71,0,0,0-.3,2.26l9.7,14.32-.17.14a1.65,1.65,0,0,0-.44,2c1.33,2.74,4.8,9.44,7.43,10.27.94.29,3-1.16,4.55-2.52a.94.94,0,0,1,.1-.1,9.71,9.71,0,0,0,1.48-1.6c.11-.18.24-.4.37-.65h0c.4-.75.84-1.76,1.16-2.5a1.58,1.58,0,0,0-.34-1.74l-.66-.66a1.57,1.57,0,0,0-1.77-.32l-.8.36L111.91,141"/><path class="cls-5" d="M111.91,141c1,1.68,4.56,4.49,4.56,4.49"/></g><g class="cls-6"><path class="cls-5" d="M117.81,149.33a1.65,1.65,0,0,1-1.44.2c-.77-.19-1.81-.86-3-2.66"/><path class="cls-5" d="M116,151.58s-1.79,1.49-4.49-2.45"/><path class="cls-5" d="M114,153s-1.79,1.49-4.49-2.46"/></g><g class="cls-2"><path class="cls-7" d="M148.18,205c-2.5.55-8,1.48-11.47.11h0l-4.1-50.23c-1.48.11-2.92.14-4.28.11v.14l-4.11,50.33,0,0c-3.5,1.37-9,.43-11.47-.12l5.4-57.21,23.52-1.41,1.16-.26Z"/><path class="cls-7" d="M132.57,154.85a20.79,20.79,0,0,0,4-.41"/><path class="cls-3" d="M114.18,143.28c.41-1.4,1.17-4.46.39-5.32-.95-1.05-3.92-1.34-5.65,0"/><path class="cls-8" d="M137.68,100.74l-.19-.17.21.19Z"/><path class="cls-9" d="M151.52,113,137.7,100.76h0l-.21-.19a1.09,1.09,0,0,0-.68-.2l-2.6.2c-1.21,6.34-8.74,7.57-11.43.87l-2,.15a1.11,1.11,0,0,0-.44.12L104.88,114l-.64.51a10.25,10.25,0,0,0,5.41,5.91l9.15-8.71.14-.14v.09l-2.36,34.21c12.11,4.41,22.51.22,26.6-1.53L139.27,111v0l.27.31,7.34,8.29a15.38,15.38,0,0,0,5.35-6Z"/><path class="cls-10" d="M143.4,146.17c-3.94,1.7-14.57,6.15-26.95,1.58l.13-1.9c12.11,4.41,22.51.22,26.6-1.53Z"/><path class="cls-11" d="M133,100.66c-1.23,4-5.79,6-8.72.67l2.47-.19v-5a32.48,32.48,0,0,0,3.95-.06l.08,4.79Z"/><path class="cls-10" d="M134.21,100.57c-1.21,6.34-8.73,7.57-11.43.87l1.49-.11c2.84,5.12,7.27,3.21,8.46-.65Z"/><path class="cls-10" d="M154,115.22a13.82,13.82,0,0,1-2,3.28,11.28,11.28,0,0,1-3.78,2.57l-1.33-1.49a15.38,15.38,0,0,0,5.35-6Z"/><path class="cls-10" d="M109.65,120.4l-1.76,1.67a9.72,9.72,0,0,1-1.48-.65,7.67,7.67,0,0,1-2.27-1.71,11.76,11.76,0,0,1-1-1.58c-.54-.95-1-1.91-1-1.91l2.17-1.73a10.25,10.25,0,0,0,5.41,5.91"/><line class="cls-12" x1="118.86" y1="111.52" x2="118.86" y2="106.24"/><line class="cls-12" x1="139.3" y1="112.18" x2="139.3" y2="106.9"/><path class="cls-10" d="M136.33,119.43a6.27,6.27,0,1,1-6.26-6.26,6.26,6.26,0,0,1,6.26,6.26"/><path class="cls-9" d="M127.76,117.45c0,.55-.3,1-.66,1s-.66-.44-.66-1,.3-1,.66-1,.66.45.66,1"/><path class="cls-9" d="M133.69,117.45c0,.55-.29,1-.66,1s-.66-.44-.66-1,.3-1,.66-1,.66.45.66,1"/><path class="cls-10" d="M128.06,121.23s2.77,2.88,4.73-.53"/><path class="cls-13" d="M128.06,121.23s2.77,2.88,4.73-.53"/><path class="cls-14" d="M151.38,62.69l.24,9.87a10,10,0,0,0-3.44.16h0l-.19,0h-.1c-.32-4-.8-7.11-.8-7.11-1-6.23-8.29-2.91-8.29-2.91-2.41,3.39-11-.66-17.38-2s-9.49,1.3-10.8,3.88-1.95,8.56-2,13l-4.63-2.17c-.47-.16-9.84-13.94,0-16.1,0,0,19.79-23.6,39.48-17.12,0,0,7.82,2.18-4.24,9.63.7-.25,17.06-6.19,18.61-.66,0,0,1.91,5.4-6.4,11.46"/><path class="cls-15" d="M108.9,76s.27-1.78-.67-1.69c-.13,0-4-.66-6,1.12-1.13,1-1.92,2.94-1.62,6.43.45,5.29,3.12,7,5.42,7.43a18,18,0,0,0,4.47-.14"/><path class="cls-8" d="M103.85,76.47s2.52.71,2.6,4.53a13.28,13.28,0,0,0,.83,2.8"/><path class="cls-3" d="M147.42,86.76a7.74,7.74,0,0,1-1,2.42c-2.57,3.74-8.87,6.49-15.82,7a28.72,28.72,0,0,1-3.83.06A24.36,24.36,0,0,1,112,91c-2.13-1.8-3.06-6.81-3.22-9.44-.05-.91-.26-2.61-.23-3.87.09-4.41.69-10.29,2-13s4.4-5.19,10.8-3.88,15.89,5.26,17.34,1.84c0,0,7.33-3.19,8.33,3,0,0,.48,3.1.8,7.11h0c.1,1.26.18,2.62.23,4a37.2,37.2,0,0,1-.68,10"/><path d="M121.17,73.94a1.35,1.35,0,1,1-1.32-1.65,1.51,1.51,0,0,1,1.32,1.65"/><path d="M139,73.94a1.35,1.35,0,1,1-1.32-1.65A1.51,1.51,0,0,1,139,73.94"/><path class="cls-8" d="M130,76.62s4.72-1.05,3.79,4.37"/><path class="cls-16" d="M121,86.32a4,4,0,0,0,1.5,3.06c4.38-1.78,9.55.48,11.65,1.58,3.13-1.49,4.5-4.24,3.19-6.25a2,2,0,0,0-1.76-.95c0,.56.1,1.35.14,1.93a1,1,0,0,1-.65,1c-2,.8-8.11,2.7-14.07-.41"/><path class="cls-8" d="M121,86.32a4,4,0,0,0,1.5,3.06c4.38-1.78,9.55.48,11.65,1.58,3.13-1.49,4.5-4.24,3.19-6.25a2,2,0,0,0-1.76-.95c0,.56.1,1.35.14,1.93a1,1,0,0,1-.65,1C133.07,87.53,127,89.43,121,86.32Z"/><path class="cls-8" d="M121,86.32c6,3.11,12,1.21,14.07.41a1,1,0,0,0,.65-1c0-.58-.1-1.37-.14-1.93-1.43-.08-3.38.67-5.74.75s-7.29-1.79-8.47.5A3,3,0,0,0,121,86.32Z"/><path class="cls-17" d="M121,86.32c6,3.11,12,1.21,14.07.41a1,1,0,0,0,.65-1c0-.58-.1-1.37-.14-1.93-1.43-.08-3.38.67-5.74.75s-7.29-1.79-8.47.5a3,3,0,0,0-.37,1.31"/><path class="cls-8" d="M121,86.32c6,3.11,12,1.21,14.07.41a1,1,0,0,0,.65-1c0-.58-.1-1.37-.14-1.93-1.43-.08-3.38.67-5.74.75s-7.29-1.79-8.47.5A3,3,0,0,0,121,86.32Z"/><path class="cls-18" d="M122.53,89.38A10.93,10.93,0,0,0,130.1,92a11.22,11.22,0,0,0,4.08-1c-2.1-1.1-7.27-3.36-11.65-1.58"/><path class="cls-8" d="M122.53,89.38A10.93,10.93,0,0,0,130.1,92a11.22,11.22,0,0,0,4.08-1C132.08,89.86,126.91,87.6,122.53,89.38Z"/><path class="cls-15" d="M155.07,79.59c-.43,5.07-3,6.69-5.2,7.13a11.45,11.45,0,0,1-2.52,0,37.2,37.2,0,0,0,.68-10c-.05-1.39-.14-2.75-.24-4l.08,0h0l.2,0h0a10.09,10.09,0,0,1,3.45-.16,3.8,3.8,0,0,1,2,.86c1.09,1,1.84,2.82,1.56,6.17"/><path class="cls-8" d="M152,74.62s-2.41.68-2.49,4.35a12.79,12.79,0,0,1-.8,2.68"/><path class="cls-14" d="M119.41,64.84c-1.67,0-5.87,1.14-5.26,2.9.42,1.22,2.71.16,4.34.19,2.23,0,4.73.69,5.19-.65.6-1.74-1.4-2.41-4.27-2.44"/><path class="cls-19" d="M119.41,64.84c-1.67,0-5.87,1.14-5.26,2.9.42,1.22,2.71.16,4.34.19,2.23,0,4.73.69,5.19-.65C124.28,65.54,122.28,64.87,119.41,64.84Z"/><path class="cls-14" d="M139,64.84c-1.67,0-5.88,1.14-5.27,2.9.43,1.22,2.71.16,4.35.19,2.22,0,4.72.69,5.18-.65.61-1.74-1.39-2.41-4.26-2.44"/><path class="cls-19" d="M139,64.84c-1.67,0-5.88,1.14-5.27,2.9.43,1.22,2.71.16,4.35.19,2.22,0,4.72.69,5.18-.65C143.9,65.54,141.9,64.87,139,64.84Z"/><path class="cls-14" d="M105.55,71.14s-.19,6.94,2.92,9.33c0,0,.68.27.68-1.85,0,0-.07-6.14.31-10.58"/><path class="cls-14" d="M149.07,66.89c.25,9-1,10.29-1,9.92l-.43-6.16"/><path class="cls-3" d="M87.42,165.79c-1.27-.71-3.85-2.64-3.9-3.79-.06-1.41,5.87-5.45,5.87-5.45"/><path class="cls-3" d="M88.07,157.9a114.81,114.81,0,0,0-1.66-17c-1.35-7.63-3.5-16.34-4.16-20.63-.06-.42,1.19-4.09,2.71-1.25.92,1.72,3.81,11.77,5.75,20.9a105.34,105.34,0,0,1,2.17,16.94s1.73,1,2,1.72c1,2.88,3.23,10.08,1.94,12.52-.45.87-3,1.31-5,1.41h-.14a10.29,10.29,0,0,1-2.17-.09c-.21,0-.46-.12-.73-.21h0c-.81-.25-1.84-.65-2.58-1a1.59,1.59,0,0,1-1-1.47v-.93a1.48,1.48,0,0,1,.13-.63,1.57,1.57,0,0,1,.9-.85l.82-.31.32-.33,0-.76s.33-3-.35-3.65"/></g><g class="cls-20"><path class="cls-5" d="M90.22,167.3c.39,2.14.12,3.35-.29,4a1.66,1.66,0,0,1-1.17.87"/><path class="cls-5" d="M91.62,172.54s2.32-.21,1.47-4.91"/><path class="cls-5" d="M94,172.54s2.32-.21,1.46-4.91"/></g><g class="cls-2"><path class="cls-21" d="M87.18,168.5s.73-4.91-.36-6.54"/><path class="cls-3" d="M60.07,175.82l-1.53,23.69a7,7,0,0,1-5.72-.76l2-23.86a11.58,11.58,0,0,0,5.2.93"/><path class="cls-22" d="M60.07,175.82l-1.53,23.69a7,7,0,0,1-5.72-.76l2-23.86A11.58,11.58,0,0,0,60.07,175.82Z"/><path class="cls-3" d="M74,175.71l1.52,23.7a7.06,7.06,0,0,0,5.72-.76l-2-23.87a11.56,11.56,0,0,1-5.19.93"/><path class="cls-22" d="M74,175.71l1.52,23.7a7.06,7.06,0,0,0,5.72-.76l-2-23.87A11.56,11.56,0,0,1,74,175.71Z"/><path class="cls-23" d="M81.12,125.06l-1.65-7.69,2.24,24.85c-12.38,4.56-22,1.59-26-.11l3.42-25.36-4.61,5.45-5.27-5.87,11.46-9.86.19-.17a1.11,1.11,0,0,1,.68-.2l2.61.2c1.2,6.34,8.73,7.57,11.42.87l5.79.87c.49.08,1.53.41,1.76.85l5,15Z"/><path class="cls-3" d="M28.49,98.06s-2.6-1.09-3.39-.74c-1,.44-1.86,3.19-1.34,4.15a3.15,3.15,0,0,0,3.06.82c.45-.28.44-2.08.44-2.08"/><path class="cls-24" d="M28.49,98.06s-2.6-1.09-3.39-.74c-1,.44-1.86,3.19-1.34,4.15a3.15,3.15,0,0,0,3.06.82c.45-.28.44-2.08.44-2.08"/><path class="cls-3" d="M50.8,122.63a.53.53,0,0,1,0,.7c-2.65,3.29-8.89,10.66-11.38,10.2-2.84-.52-8.11-15.28-10-22.69a.5.5,0,0,0-.45-.39l-1.2-.14a1.63,1.63,0,0,1-1.42-1.4c-.19-1.5.59-4.54,1.35-6.42l.06-.11L32.29,96l1,.93,0,.33c-.12.56-.59,1.18-.59,1.77l.59-1.77c.75-3.6,4.34-6.18,6.33-7.05.6-.26,1.93.82,2.67,1.49a.53.53,0,0,1-.09.85c-3.46,2.23-6.34,6.74-6.62,7.19,1.32-2.11,1-1.22,1.52-1.92a16.48,16.48,0,0,1,6.32-4.59.41.41,0,0,1,.22,0c1.43.06,2.19,2.32,2.45,3.28a.54.54,0,0,1-.29.61c-2.85,1.38-5.27,2.74-7.46,6.08-1.11,1.69-3.24,5.58-3.72,6.49a.49.49,0,0,0,0,.39c1.09,3.74,4.77,15.84,5.8,16.67.61.5,4.93-4.22,7.19-6.76a.53.53,0,0,1,.78,0Z"/><path class="cls-3" d="M33.24,97.13a2.37,2.37,0,0,0-4-.57s-3.52,3.3-3.12,4.64a2.29,2.29,0,0,0,1.28,1.07,3.31,3.31,0,0,0,2,.34c.95-.31,2-3.42,2-3.42"/><path class="cls-24" d="M33.24,97.13a2.37,2.37,0,0,0-4-.57s-3.52,3.3-3.12,4.64a2.29,2.29,0,0,0,1.28,1.07,3.31,3.31,0,0,0,2,.34c.95-.31,2-3.42,2-3.42"/><path class="cls-3" d="M86.85,84.36A32.21,32.21,0,0,1,84.4,93,13.94,13.94,0,0,1,78,100a15,15,0,0,1-6.26,1.4c-.43,0-.85,0-1.25,0-.91,0-1.76,0-2.57-.14a20.27,20.27,0,0,1-3.28-.58,14.57,14.57,0,0,1-6-3.06l-.34-.33a0,0,0,0,1,0,0,8.14,8.14,0,0,1-.58-.6l-.08-.09c-.1-.11-.2-.23-.29-.35l-.26-.34-.16-.23-.16-.24c-.08-.12-.16-.23-.23-.35a12.26,12.26,0,0,1-.88-1.78c0-.12-.1-.24-.14-.36s-.11-.31-.16-.47-.1-.3-.14-.45l-.12-.44L55,91.13a.06.06,0,0,1,0,0,2.56,2.56,0,0,1,0-.27,1.77,1.77,0,0,1,0-.2c0-.07,0-.15,0-.22s0-.23-.05-.35,0-.24,0-.36l0-.32a12.79,12.79,0,0,1,0-1.38c.05-1.87,1-5.06,1-6.48,0-.54,0-1.43,0-2.46,0-.16,0-.33,0-.5s0-.21,0-.31l0-.53c0-.09,0-.18,0-.27l0-.56a1.09,1.09,0,0,0,0-.18h0v-.25a1.93,1.93,0,0,1,0-.24l0-.49,0-.71c0-.42,0-.8,0-1.16v-.33c0-.22,0-.42,0-.61l0-.34h.19a4.31,4.31,0,0,0,1.31-.23,6.51,6.51,0,0,0,1-.38,19.34,19.34,0,0,0,3.47-2.11s-.52,2,.69,2.75a2.41,2.41,0,0,0,1.56.3,4.06,4.06,0,0,0,.91-.09,9.19,9.19,0,0,0,5-3.27s.12,3.61,3,4a8.71,8.71,0,0,0,3-.61,9.43,9.43,0,0,0,5.78-6.47s2.75,12.81,4.74,17.1a5.57,5.57,0,0,0,.33.65.36.36,0,0,0,.32.19l.08,0,.06,0"/><path class="cls-25" d="M58.64,97.6a14.45,14.45,0,0,0,6,3.06,17,17,0,0,1-6.93-.39,8.73,8.73,0,0,1-3.37-1.9,6.51,6.51,0,0,1-1.92-3.29,12.93,12.93,0,0,1-.29-4.46,8.32,8.32,0,0,0,2.86.47.06.06,0,0,0,0,0l.09.42.12.45c0,.14.09.29.14.44s.1.32.16.47.09.24.14.36a11.78,11.78,0,0,0,.88,1.78c.08.12.15.24.23.35l.16.24.16.23.26.34c.09.12.19.24.29.35l.08.09a6.55,6.55,0,0,0,.58.6,0,0,0,0,0,0,0c.11.12.23.22.34.33"/><path class="cls-25" d="M95.44,85.66A27.8,27.8,0,0,1,91.07,97.1c-1.33,2-2.74,3.38-3.89,3.73a9.2,9.2,0,0,1-2.06.34A15.49,15.49,0,0,1,78,100c3.79-1.86,7.37-6.09,8.86-15.6l-.06,0-.08,0a.36.36,0,0,1-.32-.19c-2-3.42-5.07-17.74-5.07-17.74a9.77,9.77,0,0,1-4.19,5.67,9.39,9.39,0,0,1-1.59.79,8.71,8.71,0,0,1-3,.61c-2.87-.38-3-4-3-4a9.19,9.19,0,0,1-5,3.27,4.1,4.1,0,0,1-.91.09,2.41,2.41,0,0,1-1.56-.3c-1.21-.79-.69-2.75-.69-2.75A19.69,19.69,0,0,1,57.91,72a6.51,6.51,0,0,1-1,.38,4.31,4.31,0,0,1-1.31.23h-.19l0,.34c0,.19,0,.39,0,.61v.33c0,.36,0,.74,0,1.16l0,.71c0,.16,0,.32,0,.49s0,.16,0,.24a2,2,0,0,0,0,.25c-.12,0-2.82-1.33-5,.07-.67-1.28-3.49-7.26-1.25-12.63,3.79-9,15.7-13.1,21.82-12.4,6.44.75,17.53,6.51,21.18,11.5C95.8,68,96.69,75.09,95.44,85.66"/><path class="cls-26" d="M59.64,59.4s-7.5,3.83-6.42,10.27c.2,1.18.55,2.79,2.21,2.9"/><path class="cls-16" d="M57.7,100.27a3.63,3.63,0,0,1-1.79,1.07,2,2,0,0,1-.55,0,5.16,5.16,0,0,1-3.92-3.31,2.63,2.63,0,0,1-.06-.47,3.32,3.32,0,0,1,1-2.52,6.62,6.62,0,0,0,1.92,3.29,8.73,8.73,0,0,0,3.37,1.9"/><path class="cls-25" d="M55.36,101.38c-.07,2.33-.56,11.39-4.36,11-.81-.08-1.16-1-1.51-1.62-.14-.22-.18-.53-.34-.58s-.56.11-.87.21a3.23,3.23,0,0,1-3.09-.09c-.85-.55-.67-1.59-.57-2.25.05-.29.23-.7.15-.78s-.5,0-.7,0c-.62,0-1.38.43-2.12-1.11-1.74-3.58,7.12-7.57,9.43-8.54a2.63,2.63,0,0,0,.06.47,5.16,5.16,0,0,0,3.92,3.31"/><path d="M43.82,107.27a10.85,10.85,0,0,0,2.2-.61,5.07,5.07,0,0,0,1-.49c.3-.21.52-.48.35-.71s-.47-.12-.77,0a3.9,3.9,0,0,0-.9.62A3.38,3.38,0,0,0,44.62,108a3,3,0,0,1,.86-2.14,3.49,3.49,0,0,1,1-.73A2.41,2.41,0,0,1,47,105a.85.85,0,0,1,.38,0,.81.81,0,0,1,.2.14l.09.15a.71.71,0,0,1,0,.73,1.39,1.39,0,0,1-.47.44,4.25,4.25,0,0,1-1.09.49,7.49,7.49,0,0,1-2.3.33"/><path d="M48.38,110.29a2.79,2.79,0,0,0,1-.57,5.9,5.9,0,0,0,.8-.78,4.82,4.82,0,0,0,.62-.9c.15-.32.18-.66,0-.84a.53.53,0,0,0-.31.1,3.12,3.12,0,0,0-.41.33,3.94,3.94,0,0,0-.62.89,2.12,2.12,0,0,0,0,2.11,1.94,1.94,0,0,1-.47-1.06,2.47,2.47,0,0,1,.19-1.17,3.15,3.15,0,0,1,.64-1,2.26,2.26,0,0,1,.47-.4.65.65,0,0,1,.75-.08.87.87,0,0,1,.27.66,1.55,1.55,0,0,1-.18.62,4.34,4.34,0,0,1-2.7,2.1"/><path class="cls-16" d="M91.65,99.42a2.89,2.89,0,0,1-.11.47,5.14,5.14,0,0,1-4.21,2.91,2.43,2.43,0,0,1-.55-.09,3.56,3.56,0,0,1-1.67-1.24c0-.1,0-.2,0-.3a9.2,9.2,0,0,0,2.06-.34c1.15-.35,2.56-1.75,3.89-3.73a3.17,3.17,0,0,1,.58,2.32"/><path class="cls-25" d="M87.33,102.8c-.16,2.33-.53,11.4,3.29,11.36.77,0,1.37-.88,1.76-1.43.17-.26.13-.59.31-.63s.64.25,1,.42a3,3,0,0,0,2.89.12c.93-.49.81-1.6.77-2.26,0-.25-.06-.67,0-.74.22-.18.51.06.75.1.59.1,1.27.44,2.09-.92,2.07-3.4-6.36-8.22-8.57-9.4a2.56,2.56,0,0,1-.11.46,5.15,5.15,0,0,1-4.21,2.92"/><path d="M98.25,109.76a7.13,7.13,0,0,1-2.26-.55,4.05,4.05,0,0,1-1-.58,1.37,1.37,0,0,1-.43-.49.69.69,0,0,1,0-.72l.11-.15c.06,0,.14-.11.21-.11a.77.77,0,0,1,.37,0,2.06,2.06,0,0,1,.58.27,3.27,3.27,0,0,1,.88.82,3,3,0,0,1,.65,2.21,3.35,3.35,0,0,0-.88-2,3.77,3.77,0,0,0-.84-.7c-.29-.18-.71-.34-.76-.11s0,.51.28.74a5.17,5.17,0,0,0,.94.59,10.9,10.9,0,0,0,2.13.81"/><path d="M93.42,112.34A3.77,3.77,0,0,1,91.56,111a3.59,3.59,0,0,1-.63-1,1.61,1.61,0,0,1-.11-.63.83.83,0,0,1,.32-.63.65.65,0,0,1,.75.15,2.18,2.18,0,0,1,.42.44,3.25,3.25,0,0,1,.55,1.06,2.52,2.52,0,0,1,.08,1.19,2,2,0,0,1-.57,1,2.14,2.14,0,0,0,.21-2.1,3.49,3.49,0,0,0-.54-.94,1.85,1.85,0,0,0-.37-.37c-.13-.12-.32-.15-.3-.13-.23.15-.23.5-.11.83a4.25,4.25,0,0,0,.53.95,6,6,0,0,0,.72.86,2.84,2.84,0,0,0,.91.66"/><path class="cls-16" d="M78.11,91.92a4,4,0,0,1-1.49,3c-4.38-1.78-9.56.48-11.66,1.58-3.13-1.49-4.5-4.23-3.19-6.24a2.07,2.07,0,0,1,1.76-1c0,.57-.1,1.36-.14,1.93a1,1,0,0,0,.66,1c2,.81,8.11,2.71,14.06-.4"/><path class="cls-27" d="M78.11,91.92a4,4,0,0,1-1.49,3c-4.38-1.78-9.56.48-11.66,1.58-3.13-1.49-4.5-4.23-3.19-6.24a2.07,2.07,0,0,1,1.76-1c0,.57-.1,1.36-.14,1.93a1,1,0,0,0,.66,1C66.07,93.13,72.16,95,78.11,91.92Z"/><path class="cls-27" d="M78.11,91.92c-6,3.11-12,1.21-14.06.4a1,1,0,0,1-.66-1c0-.57.11-1.36.14-1.93,1.43-.07,3.39.67,5.75.76s7.29-1.8,8.47.5A3.11,3.11,0,0,1,78.11,91.92Z"/><path class="cls-17" d="M78.11,91.92c-6,3.11-12,1.21-14.06.4a1,1,0,0,1-.66-1c0-.57.11-1.36.14-1.93,1.43-.07,3.39.67,5.75.76s7.29-1.8,8.47.5a3.11,3.11,0,0,1,.36,1.31"/><path class="cls-27" d="M78.11,91.92c-6,3.11-12,1.21-14.06.4a1,1,0,0,1-.66-1c0-.57.11-1.36.14-1.93,1.43-.07,3.39.67,5.75.76s7.29-1.8,8.47.5A3.11,3.11,0,0,1,78.11,91.92Z"/><path class="cls-18" d="M76.62,95a11,11,0,0,1-7.57,2.63,11.63,11.63,0,0,1-4.09-1c2.1-1.11,7.28-3.37,11.66-1.59"/><path class="cls-27" d="M76.62,95a11,11,0,0,1-7.57,2.63,11.63,11.63,0,0,1-4.09-1C67.06,95.45,72.24,93.19,76.62,95Z"/><path class="cls-28" d="M60.76,81.46c-.94-.11-3.24.45-2.79,1.73.31.88,1.54.26,2.46.39,1.26.16,2.71.76,2.89-.15.23-1.19-.93-1.78-2.56-2"/><path class="cls-28" d="M78.08,82.7c-.94-.11-3.24.45-2.79,1.72.31.89,1.54.27,2.46.4,1.26.16,2.71.76,2.89-.15.23-1.19-.93-1.78-2.56-2"/><path d="M64.55,78.5c0,1-.54,1.8-1.2,1.8s-1.21-.8-1.21-1.8.54-1.79,1.21-1.79,1.2.8,1.2,1.79"/><path d="M77.82,78.5c0,1-.54,1.8-1.2,1.8s-1.21-.8-1.21-1.8.54-1.79,1.21-1.79,1.2.8,1.2,1.79"/><path class="cls-26" d="M61.38,69.86s5.53-5.2,3.46-6.28C64,63.13,60.33,64.94,61.38,69.86Z"/><path class="cls-26" d="M69.58,69.64s5.53-5.2,3.45-6.28C72.17,62.91,69.14,64.72,69.58,69.64Z"/><path class="cls-26" d="M61,73.94s2.18-4,4.33,0"/><path class="cls-26" d="M74.8,73.94s2.17-4,4.33,0"/><path class="cls-15" d="M55.64,79.06c0-.17,0-.33,0-.51s0-.21,0-.31l0-.53c0-.09,0-.18,0-.27l0-.56a1.09,1.09,0,0,0,0-.18h0c-.12,0-2.82-1.33-5,.07-1.24.82-2.29,2.54-2.53,5.92-.36,5.13,1.93,7.15,4.07,7.93a8.32,8.32,0,0,0,2.86.47,2.56,2.56,0,0,1,0-.27,1.77,1.77,0,0,1,0-.2c0-.08,0-.15,0-.22s0-.23-.05-.35,0-.24,0-.36l0-.32a12.72,12.72,0,0,1,0-1.38c.05-1.87,1-5.06,1-6.48,0-.54,0-1.42,0-2.45"/><path class="cls-8" d="M51.92,78.21s2.3,1.06,1.8,4.73a12.64,12.64,0,0,0,.38,2.81"/><path d="M53.83,88.19a.72.72,0,1,1-.71-.72.71.71,0,0,1,.71.72"/><path class="cls-15" d="M92.59,79.65a5.18,5.18,0,0,0-4-1.44,23.44,23.44,0,0,1-1.56,6,.32.32,0,0,1-.19.2A32.21,32.21,0,0,1,84.4,93c0,.07.07.11.06.12a8.68,8.68,0,0,0,3,.25c2.37-.25,5.22-1.72,6.16-7,.62-3.5,0-5.51-1.06-6.66"/><path class="cls-8" d="M90.86,80.77s-2.61.49-3,4.36a13.77,13.77,0,0,1-1.1,2.75"/><path d="M87.83,90.79a.76.76,0,0,1-.92.55.75.75,0,1,1,.92-.55"/><path class="cls-11" d="M74.13,107.06c-2.83,5.12-7.26,3.21-8.46-.65l2.15.17.09-5.34c.81.09,1.66.13,2.57.14h1.25v5.5Z"/><path class="cls-10" d="M72.24,121.61l3.93-.68a.63.63,0,0,1,.59,1l-3.31,4a.63.63,0,0,0-.13.53l1,4.66a.62.62,0,0,1-1,.62L69.87,129a.64.64,0,0,0-.69-.06L65,131.2a.63.63,0,0,1-.89-.76l1.51-4.26a.61.61,0,0,0-.08-.57l-2.82-3.93a.63.63,0,0,1,.58-1l3.65.45a.62.62,0,0,0,.66-.39l1.5-3.76a.63.63,0,0,1,1.18.05l1.27,4.13a.65.65,0,0,0,.71.44"/><path class="cls-3" d="M34.43,109.87s4-.7,4-2.86-3.63-5.05-5.36-4.65c-.8.18-2.22,1.72-2.08,2.53s3.28,1.94,3.28,1.94"/><path class="cls-24" d="M34.43,109.87s4-.7,4-2.86-3.63-5.05-5.36-4.65c-.8.18-2.22,1.72-2.08,2.53s3.28,1.94,3.28,1.94"/><path class="cls-10" d="M81.93,144.53a1.13,1.13,0,0,1-.8,1.17l-.77.22a43.52,43.52,0,0,1-11.16,1.46h0q-.6,0-1.2,0a44.85,44.85,0,0,1-11.05-2l-.67-.22a1.12,1.12,0,0,1-.75-1.21l.24-1.8c4,1.7,13.61,4.67,26,.11Z"/><path class="cls-7" d="M84.68,170.52a14.59,14.59,0,0,1-14.61-.05l-.37-14.74c-.77,0-1.52,0-2.25-.06l-.86,14.53a14.6,14.6,0,0,1-14.61.06l4.92-24.92a44.85,44.85,0,0,0,11,2c.4,0,.81,0,1.21,0h0a43.52,43.52,0,0,0,11.16-1.46l.75,3.78a1.44,1.44,0,0,0-.54.35l-.66.65a1.62,1.62,0,0,0-.34,1.75c.32.73.76,1.74,1.16,2.5h0a6.16,6.16,0,0,0,.38.66,9.53,9.53,0,0,0,1.47,1.59v0Z"/><path class="cls-7" d="M85.19,173.06a12,12,0,0,1-14.92.75l-.2-3.34a14.59,14.59,0,0,0,14.61.05Z"/><path class="cls-7" d="M82.59,157.2a9.53,9.53,0,0,1-1.47-1.59,6.16,6.16,0,0,1-.38-.66h0c-.4-.76-.85-1.77-1.17-2.5a1.62,1.62,0,0,1,.34-1.75l.66-.65a1.44,1.44,0,0,1,.54-.35l1.08,5.46Z"/><path class="cls-29" d="M69.7,155.73a25.1,25.1,0,0,0,5.83-.51"/><path class="cls-29" d="M69.7,155.73c-2.71-.12-7.13-.45-7.13-.51"/><path class="cls-7" d="M66.59,170.2l-.2,3.35a12.44,12.44,0,0,1-6.32,2.27,11.61,11.61,0,0,1-5.2-.93,12.26,12.26,0,0,1-3.39-2.09l.5-2.54a14.6,14.6,0,0,0,14.61-.06"/><line class="cls-30" x1="79.44" y1="117.37" x2="79.16" y2="114.57"/><line class="cls-30" x1="59.13" y1="116.75" x2="59.57" y2="113.37"/><path class="cls-31" d="M70.53,81.78s-4.73-1-3.79,4.37"/><path class="cls-25" d="M52.4,75.21c.06,2.92,3.29,6.3,3.29,6.3l-.19-5.3"/><path class="cls-10" d="M75.62,107.17c-2.69,6.7-10.22,5.47-11.42-.87l1.47.11c1.2,3.86,5.63,5.77,8.46.65Z"/><path class="cls-10" d="M54.88,123.58l-1.16,1.13a.68.68,0,0,1-1,0L51.12,123l-3.26-3.43-1.27-1.34a.67.67,0,0,1,0-1l1.36-1.3a.68.68,0,0,1,1,0l.31.35,5.27,5.87.39.44a.67.67,0,0,1,0,.94"/><path class="cls-10" d="M89.68,123.4l.29,1.48a.62.62,0,0,1-.5.73l-2.16.4L83,126.8l-1.69.31a.65.65,0,0,1-.74-.51l-.33-1.71a.63.63,0,0,1,.52-.73l.43-.07L88.42,123l.54-.08a.64.64,0,0,1,.72.5"/><path class="cls-29" d="M128.3,155a36,36,0,0,0,7.52-.46"/><path class="cls-21" d="M32.61,99.06s.34-.94.6-2"/><path class="cls-21" d="M35.41,99.92a12.53,12.53,0,0,1,1.24-1.76"/></g><path class="cls-32" d="M138.74,62.64s5.2-8.9-9.8-8"/><path class="cls-32" d="M136.08,52.6s3.24-.91,5.59-1.46"/></svg>