<?xml version="1.0" encoding="UTF-8" standalone="no"?>
<svg
   xmlns:dc="http://purl.org/dc/elements/1.1/"
   xmlns:cc="http://creativecommons.org/ns#"
   xmlns:rdf="http://www.w3.org/1999/02/22-rdf-syntax-ns#"
   xmlns:svg="http://www.w3.org/2000/svg"
   xmlns="http://www.w3.org/2000/svg"
   xmlns:sodipodi="http://sodipodi.sourceforge.net/DTD/sodipodi-0.dtd"
   xmlns:inkscape="http://www.inkscape.org/namespaces/inkscape"
   id="Capa_1_copia_3"
   data-name="Capa 1 copia 3"
   viewBox="0 0 197.97 196"
   version="1.1"
   sodipodi:docname="madre.svg"
   inkscape:version="0.92.1 r15371">
  <metadata
     id="metadata136">
    <rdf:RDF>
      <cc:Work
         rdf:about="">
        <dc:format>image/svg+xml</dc:format>
        <dc:type
           rdf:resource="http://purl.org/dc/dcmitype/StillImage" />
      </cc:Work>
    </rdf:RDF>
  </metadata>
  <sodipodi:namedview
     pagecolor="#ffffff"
     bordercolor="#666666"
     borderopacity="1"
     objecttolerance="10"
     gridtolerance="10"
     guidetolerance="10"
     inkscape:pageopacity="0"
     inkscape:pageshadow="2"
     inkscape:window-width="1920"
     inkscape:window-height="1027"
     id="namedview134"
     showgrid="false"
     inkscape:zoom="1.2040816"
     inkscape:cx="98.985001"
     inkscape:cy="98"
     inkscape:window-x="-8"
     inkscape:window-y="22"
     inkscape:window-maximized="1"
     inkscape:current-layer="Capa_1_copia_3" />
  <defs
     id="defs7">
    <style
       id="style2">.cls-1,.cls-11,.cls-12,.cls-13,.cls-14,.cls-15,.cls-19,.cls-23,.cls-9{fill:none;}.cls-2{fill:#e4e9f2;}.cls-3{clip-path:url(#clip-path);}.cls-4{fill:#563634;}.cls-5{fill:#f3d19f;}.cls-6{fill:#0275d8;}.cls-7{fill:#8e388e;}.cls-8{fill:#684642;}.cls-11,.cls-12,.cls-13,.cls-14,.cls-16,.cls-9{stroke:#000;}.cls-11,.cls-12,.cls-13,.cls-14,.cls-15,.cls-19,.cls-23,.cls-9{stroke-linecap:round;stroke-linejoin:round;}.cls-9{stroke-width:0.34px;}.cls-10{fill:#e2b486;}.cls-11,.cls-16{stroke-width:0.3px;}.cls-12,.cls-15,.cls-19{stroke-width:0.34px;}.cls-13{stroke-width:0.29px;}.cls-14{stroke-width:0.34px;}.cls-15{stroke:#822e82;}.cls-16{stroke-miterlimit:10;}.cls-17{fill:#a546a0;}.cls-18{fill:#8c6fd5;}.cls-19{stroke:#034f87;}.cls-20{fill:#ff74be;}.cls-21{fill:#fff;}.cls-22{fill:#f9487b;}.cls-23{stroke:#e2b486;stroke-width:0.22px;}</style>
    <clipPath
       id="clip-path">
      <path
         class="cls-1"
         d="M180.37,98A81.39,81.39,0,1,1,99,16.61,81.38,81.38,0,0,1,180.37,98"
         id="path4" />
    </clipPath>
  </defs>
  <title
     id="title9">madre</title>
  <g
     class="cls-3"
     clip-path="url(#clip-path)"
     id="g131">
    <path
       class="cls-4"
       d="M88.49,42.24a8.73,8.73,0,0,1-12.25,2.68,8.9,8.9,0,0,1-3.16-12.29c2.65-4.26,7.83-5,12.08-2.31S91.14,38,88.49,42.24Z"
       id="path13" />
    <path
       class="cls-5"
       d="M75.56,135.62l-1.08,3.55c-.41,1.34-2,2.3-3.17,1.58C65.13,137,58,130,55.27,125.89a2.7,2.7,0,0,1-.32-2.7s5.66-14.71,12.21-24.77c1.57,3.39,4.75,8.66,9.21,8-3.82,5.42-9.56,15.71-9.56,15.71a2.43,2.43,0,0,0-.14,2.52c1.82,3.34,5.91,6.73,8,8.36a2.42,2.42,0,0,1,.85,2.64"
       id="path15" />
    <path
       class="cls-6"
       d="M120.77,145.81c0,.3,0,.63,0,1h0c0,12.33-.7,68.73-8.63,90.09a9.28,9.28,0,0,1-8.7-.29L99,164.34c-1.65,0-3.27,0-4.82-.11l-4.45,72.39a9.28,9.28,0,0,1-8.7.29c-8.17-22-8.62-81.24-8.64-91.1v-1.4l7.84,2.6,33.18-.16,7.37-2.44v1.4"
       id="path17" />
    <path
       class="cls-5"
       d="M143.81,92.46l-.16.67-.36,1.54-.6,2.61-.71,3.11-4.75,20.67c-1.53,7.48-5.71,7.87-7.72,6-4.59-4.34-11.36-14-16.53-26.11,3.72.36,9.72-.14,11.37-4.33A59.61,59.61,0,0,0,131,110.51s2.6-6.38,4.31-12.05c.33-1.07.63-2.11.87-3.08a26.46,26.46,0,0,0,.53-2.62q0-.3.06-.57a5,5,0,0,0,.05-.64l2.85.37h0Z"
       id="path19" />
    <path
       class="cls-7"
       d="M78.15,105.81a6.26,6.26,0,0,1-1.78.58c-4.46.69-7.64-4.58-9.21-8-.16-.34-.3-.67-.43-1a2.26,2.26,0,0,1,.83-2.75l7.73-5.16,2,11.26.63,3.58Z"
       id="path21" />
    <path
       class="cls-7"
       d="M117.15,89.55l7.74,5.15a2.25,2.25,0,0,1,.82,2.75c-1.51,3.6-5.54,11.26-11.42,8.36Z"
       id="path23" />
    <path
       class="cls-8"
       d="M121.54,61.22l-5.62-1.73c-.24-2-.9-6.71-.9-6.71a9,9,0,0,1-2.86,2,4.79,4.79,0,0,1-3.73.13c-1.37-.55-.93-3.29-.93-3.29s-6.11,4.56-9.29,3.07c-2.23-1-.88-4.59-.83-4.72-.16.16-5.33,5.25-9.29,5.28a77.49,77.49,0,0,0-2.09,9,.45.45,0,0,1-.29.33c0,.18,0,.38,0,.59,0,0-9.58-2.36-7.74-5.74,1.73-3.18-2-11-.81-14.45,4.22-12.59,23.79-14.09,28.41-14.27a2.18,2.18,0,0,1,1.68.69,23.3,23.3,0,0,1,5.23,8.89,7.5,7.5,0,0,1,4.54-1.9,2.87,2.87,0,0,1,2.45,1.13C122.42,43.41,122.44,57.58,121.54,61.22Z"
       id="path25" />
    <path
       class="cls-5"
       d="M85.74,64.27c0,.09,0,.18,0,.29"
       id="path27" />
    <path
       class="cls-9"
       d="M85.74,64.27c0,.09,0,.18,0,.29"
       id="path29" />
    <path
       class="cls-10"
       d="M85.91,71.23l-1.41-.09c-2.19-.31-4.74-1.6-5.27-5.74-.35-2.72.35-4.24,1.4-5.07a4.92,4.92,0,0,1,2.93-.92l3.5-.36"
       id="path31" />
    <path
       class="cls-11"
       d="M82,61.56s2.27.58,2.42,4a12.19,12.19,0,0,0,.79,2.49"
       id="path33" />
    <path
       class="cls-5"
       d="M84.91,69.71a.56.56,0,0,1-.57.57.57.57,0,1,1,0-1.13.56.56,0,0,1,.57.56"
       id="path35" />
    <path
       class="cls-5"
       d="M116,64.85h0c0-.19,0-.37,0-.53,0-.6,0-1.39,0-2.25,0-2.35-.92-9.29-.92-9.29a9.1,9.1,0,0,1-2.87,2,4.78,4.78,0,0,1-3.73.13c-1.37-.55-.93-3.3-.93-3.3s-6.1,4.57-9.29,3.08c-2.23-1-.87-4.59-.83-4.72-.16.16-5.32,5.25-9.29,5.28a77.49,77.49,0,0,0-2.09,9,.45.45,0,0,1-.29.33,35.76,35.76,0,0,0,.2,6.67,13,13,0,0,0,.57,2.61c1.09,3,3.67,4.62,6.22,5.68A21.71,21.71,0,0,0,99,80.83l1.22.09q1.32.06,2.52,0a21.3,21.3,0,0,0,3.25-.32A15,15,0,0,0,112,78.3l.36-.27h0a7.75,7.75,0,0,0,.61-.5l.08-.07.31-.3c.1-.09.18-.19.27-.28s.12-.13.18-.19l.17-.2a3.15,3.15,0,0,0,.24-.3,9.06,9.06,0,0,0,1-1.51,2.38,2.38,0,0,0,.17-.31c.06-.13.13-.27.18-.4s.12-.26.17-.39l.15-.38.12-.37v0c0-.08,0-.16.07-.24l.05-.17a1.33,1.33,0,0,1,0-.19c0-.1,0-.2.07-.31s0-.21.06-.31,0-.1,0-.16a.6.6,0,0,1,0-.12c.06-.41.1-.81.13-1.21a42.79,42.79,0,0,0-.5-5.23m-22.3-5c0-.88.48-1.58,1.06-1.58s1.07.7,1.07,1.58-.48,1.59-1.07,1.59-1.06-.71-1.06-1.59M106.2,77.48a10,10,0,0,1-3.66.67A9.7,9.7,0,0,1,96,75.39a3.54,3.54,0,0,1-1.13-2.78,2.74,2.74,0,0,1,.4-1.14c1.18-1.94,5.4,0,7.49.08s3.85-.47,5.1-.32a1.78,1.78,0,0,1,1.49,1c1,1.85-.34,4.18-3.18,5.3"
       id="path37" />
    <path
       class="cls-5"
       d="M116.27,64.76c0-.1,0-.19,0-.29"
       id="path39" />
    <path
       class="cls-9"
       d="M116.27,64.76c0-.1,0-.19,0-.29"
       id="path41" />
    <path
       class="cls-10"
       d="M121.36,60.54a4,4,0,0,0-1.58-.75,5.85,5.85,0,0,0-1.27-.17,30.14,30.14,0,0,1-2.26,4.85l-.23.38a42.79,42.79,0,0,1,.5,5.23c0,.4-.07.8-.13,1.21a.5.5,0,0,0,0,.12l1.12-.06a5.74,5.74,0,0,0,4.36-2.82,8,8,0,0,0,.91-2.92c.35-2.73-.35-4.25-1.4-5.07"
       id="path43" />
    <path
       class="cls-5"
       d="M118.51,59.62h-.08"
       id="path45" />
    <path
       class="cls-12"
       d="M118.51,59.62h-.08"
       id="path47" />
    <path
       class="cls-11"
       d="M120,61.76s-2.27.59-2.42,4a11.78,11.78,0,0,1-.8,2.49"
       id="path49" />
    <path
       class="cls-13"
       d="M101.72,63.63s4.17-.92,3.35,3.86"
       id="path51" />
    <path
       class="cls-8"
       d="M83.7,59.49c1.73,1.83,1.69,11.8,1.81,12.57A15.21,15.21,0,0,0,87.09,77a.46.46,0,0,0,.57.22s.2,0,.51-1.6l1.15-20.34-.1-1.08-4,1.08"
       id="path53" />
    <path
       class="cls-8"
       d="M118.41,55.27c.86,6.59-1.15,20.34-1.15,20.34-.32,1.57-.52,1.6-.52,1.6a.46.46,0,0,1-.57-.22,20,20,0,0,1-1.09-5.15c-.12-.77.62-10.08.51-15.92"
       id="path55" />
    <line
       class="cls-9"
       x1="97.39"
       y1="49.98"
       x2="97.38"
       y2="49.98"
       id="line57" />
    <path
       class="cls-9"
       d="M88.09,55.26a3.52,3.52,0,0,1-2.87-1.33c-1.2-1.48-.11-4.83,4.25-7.3"
       id="path59" />
    <path
       class="cls-14"
       d="M94.78,61.4c-.58,0-1.06-.71-1.06-1.59s.48-1.58,1.06-1.58,1.07.7,1.07,1.58S95.37,61.4,94.78,61.4Z"
       id="path61" />
    <path
       class="cls-15"
       d="M90.46,117.58s8.86,1.42,13.28,0"
       id="path63" />
    <path
       d="M95.85,59.81c0,.88-.48,1.59-1.07,1.59s-1.06-.71-1.06-1.59.48-1.58,1.06-1.58,1.07.7,1.07,1.58"
       id="path65" />
    <path
       class="cls-14"
       d="M94.78,58.23A2.75,2.75,0,0,1,93,58.14"
       id="path67" />
    <path
       class="cls-16"
       d="M108.32,59.7c0,.88.47,1.59,1.06,1.59s1.07-.71,1.07-1.59-.48-1.58-1.07-1.58-1.06.7-1.06,1.58"
       id="path69" />
    <path
       class="cls-14"
       d="M109.38,58.12a2.78,2.78,0,0,0,1.78-.09"
       id="path71" />
    <path
       class="cls-17"
       d="M112.88,116.11c5.35-9,4.76-26.31,4.76-26.31-1.14-.57-2.28-1.09-3.41-1.55-.79-.32-1.57-.61-2.35-.87-1.16-.4-2.31-.75-3.45-1-2.69,3.74-9.32,7.39-9.32,7.39-2.41.57-8.18-5.43-10.62-8.21-1.22.19-2.38.42-3.46.67l-.53.13a44.26,44.26,0,0,0-9.21,3.22c-2.64,3.34,3.19,26.61,3.19,26.61-4.29,8-6.15,25-6.73,31.65,6.45,3.89,27.6,14.25,49.73-.74C120.56,135.45,112.88,116.11,112.88,116.11Z"
       id="path73" />
    <path
       class="cls-4"
       d="M74.23,40.93a5.3,5.3,0,0,1-3,1.89c-1,.28,1.13,3.86,3.79,1"
       id="path75" />
    <path
       class="cls-4"
       d="M74.23,43.09a4,4,0,0,1-1.1,3.33c-.62.77,3.32,2.28,3.6-1.58"
       id="path77" />
    <rect
       class="cls-17"
       x="107.27"
       y="99.05"
       width="0.11"
       height="9.73"
       id="rect79" />
    <path
       class="cls-14"
       d="M97.38,50s4.21-3.79,2.61-4.36c-1.35-.48-2.63,2.49-2.81,5"
       id="path81" />
    <path
       class="cls-14"
       d="M107.6,51.43s4.21-3.79,2.61-4.36c-1.35-.48-2.63,2.5-2.81,5"
       id="path83" />
    <path
       class="cls-18"
       d="M85.1,69.35a.76.76,0,1,1-.76-.76.76.76,0,0,1,.76.76"
       id="path85" />
    <path
       class="cls-19"
       d="M99,164.34a18,18,0,0,0,5.25-.31"
       id="path87" />
    <path
       class="cls-14"
       d="M92.66,55.58s2.65-2.71,4,.22"
       id="path89" />
    <path
       class="cls-14"
       d="M107.72,56.94s2.64-2.72,4,.22"
       id="path91" />
    <path
       class="cls-20"
       d="M106.2,77.48c-1.79-1.09-6.2-3.4-10.17-2.09a3.52,3.52,0,0,1-1.13-2.78c5,3.09,10.52,1.79,12.36,1.21a.93.93,0,0,0,.64-.88c0-.51,0-1.21,0-1.71a1.8,1.8,0,0,1,1.49,1c1,1.85-.34,4.18-3.18,5.3"
       id="path93" />
    <path
       class="cls-11"
       d="M106.2,77.48c-1.79-1.09-6.2-3.4-10.17-2.09a3.52,3.52,0,0,1-1.13-2.78c5,3.09,10.52,1.79,12.36,1.21a.93.93,0,0,0,.64-.88c0-.51,0-1.21,0-1.71a1.8,1.8,0,0,1,1.49,1C110.41,74,109,76.36,106.2,77.48Z"
       id="path95" />
    <path
       class="cls-11"
       d="M107.9,72.93a1,1,0,0,1-.64.89c-1.84.58-7.31,1.88-12.36-1.21a2.74,2.74,0,0,1,.4-1.14c1.18-1.94,5.4,0,7.49.08s3.85-.47,5.1-.32C107.89,71.73,107.89,72.43,107.9,72.93Z"
       id="path97" />
    <path
       class="cls-21"
       d="M107.9,72.93a1,1,0,0,1-.64.89c-1.84.58-7.31,1.88-12.36-1.21a2.74,2.74,0,0,1,.4-1.14c1.18-1.94,5.4,0,7.49.08s3.85-.47,5.1-.32c0,.5,0,1.2,0,1.7"
       id="path99" />
    <path
       class="cls-11"
       d="M107.9,72.93a1,1,0,0,1-.64.89c-1.84.58-7.31,1.88-12.36-1.21a2.74,2.74,0,0,1,.4-1.14c1.18-1.94,5.4,0,7.49.08s3.85-.47,5.1-.32C107.89,71.73,107.89,72.43,107.9,72.93Z"
       id="path101" />
    <path
       class="cls-22"
       d="M106.2,77.48a10,10,0,0,1-3.66.67A9.66,9.66,0,0,1,96,75.39c4-1.31,8.38,1,10.17,2.09"
       id="path103" />
    <path
       class="cls-11"
       d="M106.2,77.48a10,10,0,0,1-3.66.67A9.66,9.66,0,0,1,96,75.39C100,74.08,104.41,76.39,106.2,77.48Z"
       id="path105" />
    <path
       class="cls-10"
       d="M106.72,85.92A46.75,46.75,0,0,1,99,92.27c-3.5-1.09-6.52-5-8-7.11.77-.1,1.55-.17,2.36-.22a5.23,5.23,0,0,0,.12-.64,29.45,29.45,0,0,0,.21-4.41,24.23,24.23,0,0,0,5.22.92l1.22.09c.89,0,1.73.06,2.53,0,.35,0,.7,0,1-.05,0,1.18,0,2.46.08,3.42,0,.44.05.82.07,1.09C104.82,85.53,105.77,85.71,106.72,85.92Z"
       id="path107" />
    <circle
       class="cls-5"
       cx="140.35"
       cy="89.82"
       r="4.67"
       id="circle109" />
    <path
       class="cls-5"
       d="M134.54,88.38c-.22-1,1.67-2.66,1.65-4a12.88,12.88,0,0,0-.36-2.4s6-3.44,10.39.83c0,0-.38,3.55-.49,4.4a23.36,23.36,0,0,1-1,4.21l-8.35.78A17.57,17.57,0,0,1,134.54,88.38Z"
       id="path111" />
    <path
       class="cls-5"
       d="M134.35,74.07c-1.24.46-.35,2.75.51,5.17.66,1.83,1,2.77,1,2.77l3-.28s-.49-1.93-1.12-3.6C136.84,75.76,135.6,73.61,134.35,74.07Z"
       id="path113" />
    <path
       class="cls-5"
       d="M130.73,83.81c-.87,1,1,2.59,2.9,4.31a19.93,19.93,0,0,1,2.48,2.73l1.83-2.69a19,19,0,0,0-2.3-2.37C133.72,84.13,131.61,82.82,130.73,83.81Z"
       id="path115" />
    <path
       class="cls-5"
       d="M139.26,72.08c-1.32.13-.95,3.18-.72,5.74a19.41,19.41,0,0,1,0,3.68l3.18-.71a20,20,0,0,0-.07-3.3C141.33,75,140.58,72,139.26,72.08Z"
       id="path117" />
    <path
       class="cls-5"
       d="M143.78,74.19c-1.2-.17-1.34,2-1.72,4.28a8.32,8.32,0,0,1-.9,2.76l3.08.36a16.74,16.74,0,0,0,.61-2.73C145.17,76.57,145,74.37,143.78,74.19Z"
       id="path119" />
    <path
       class="cls-5"
       d="M146.69,77.22c-.88-.24-1.19,1.35-1.69,3.06a6.38,6.38,0,0,1-.93,2l1.89.83a8.08,8.08,0,0,0,1.1-2.26C147.52,79.14,147.58,77.47,146.69,77.22Z"
       id="path121" />
    <path
       class="cls-23"
       d="M135.63,85.84c1.52,1.51,3.76.57,4.28,3.81"
       id="path123" />
    <path
       class="cls-7"
       d="M121.54,150.51a50.22,50.22,0,0,1-23.19,7.59c-12.86.88-26.81-7.59-26.81-7.59s.06-1,.21-2.71c6.45,3.89,27.6,14.25,49.73-.74A21.29,21.29,0,0,1,121.54,150.51Z"
       id="path125" />
    <path
       class="cls-7"
       d="M108.43,86.34c-2.69,3.74-9.32,7.39-9.32,7.39-2.41.57-8.18-5.43-10.62-8.21l.92-.14v0c.53-.08,1.08-.15,1.63-.2,1.46,2.16,4.48,6,8,7.11a46.75,46.75,0,0,0,7.7-6.35l.73.16,0,.15a.69.69,0,0,0,0-.13Z"
       id="path127" />
    <path
       class="cls-7"
       d="M142.69,97.28l-.71,3.11h-.48a11.49,11.49,0,0,1-6.18-1.94c.33-1.07.63-2.11.87-3.08A8.27,8.27,0,0,0,142.69,97.28Z"
       id="path129" />
  </g>
</svg>
