<?xml version="1.0" encoding="UTF-8"?>
<svg width="406px" height="356px" viewBox="0 0 406 356" version="1.1" xmlns="http://www.w3.org/2000/svg" xmlns:xlink="http://www.w3.org/1999/xlink">
    <!-- Generator: Sketch 63.1 (92452) - https://sketch.com -->
    <title>Padres@2x</title>
    <desc>Created with Sketch.</desc>
    <defs>
        <rect id="path-1" x="0" y="0" width="350" height="300" rx="8"></rect>
        <filter x="-12.3%" y="-13.7%" width="124.6%" height="128.7%" filterUnits="objectBoundingBox" id="filter-3">
            <feOffset dx="0" dy="2" in="SourceAlpha" result="shadowOffsetOuter1"></feOffset>
            <feGaussianBlur stdDeviation="14" in="shadowOffsetOuter1" result="shadowBlurOuter1"></feGaussianBlur>
            <feColorMatrix values="0 0 0 0 0   0 0 0 0 0   0 0 0 0 0  0 0 0 0.06 0" type="matrix" in="shadowBlurOuter1"></feColorMatrix>
        </filter>
        <path d="M214.958039,107.477453 C214.958039,150.950427 188.769138,190.142275 148.604325,206.776193 C108.439513,223.410112 62.2094737,214.209956 31.4732168,183.466144 C0.736959863,152.722333 -8.45183439,106.490034 8.19195453,66.3293103 C24.8357434,26.1685865 64.0340265,-0.0106793646 107.506999,0 C136.008289,0.00350530039 163.340849,11.3289573 183.491827,31.484889 C203.642806,51.6408208 214.961541,78.9761633 214.958039,107.477453" id="path-4"></path>
    </defs>
    <g id="Screens" stroke="none" stroke-width="1" fill="none" fill-rule="evenodd">
        <g id="Inicio-" transform="translate(-517.000000, -336.000000)">
            <g id="Padres" transform="translate(545.000000, 362.000000)">
                <g id="Rectangle-Copy">
                    <g id="Card-Copy" fill="#E4E9F2" fill-rule="nonzero">
                        <g id="Card" fill="none" fill-rule="evenodd">
                            <g id="Group-2">
                                <mask id="mask-2" fill="white">
                                    <use xlink:href="#path-1"></use>
                                </mask>
                                <g id="Mask">
                                    <use fill="black" fill-opacity="1" filter="url(#filter-3)" xlink:href="#path-1"></use>
                                    <use fill="#FFFFFF" fill-rule="evenodd" xlink:href="#path-1"></use>
                                </g>
                            </g>
                        </g>
                    </g>
                    <g id="madre_Mesa-de-trabajo-1" transform="translate(67.000000, 42.000000)">
                        <g id="Group" transform="translate(0.775970, 0.805516)">
                            <mask id="mask-5" fill="white">
                                <use xlink:href="#path-4"></use>
                            </mask>
                            <use id="Mask" fill="#E4E9F2" fill-rule="nonzero" xlink:href="#path-4"></use>
                            <g mask="url(#mask-5)">
                                <g transform="translate(54.900000, 22.594484)">
                                    <path d="M40.1414777,16.0749275 C38.6633993,18.463137 36.2802556,20.1500863 33.5365442,20.7503432 C30.7928328,21.3506 27.9229851,20.8128767 25.5827004,19.2600314 C23.129772,17.8376307 21.3506459,15.4899343 20.644549,12.7437535 C19.9384521,9.99757277 20.3645145,7.08287921 21.8271301,4.65371528 C24.9765799,-0.409173799 31.1328629,-1.28864279 36.1838672,1.90834585 C41.2348716,5.1053345 43.2909275,11.0358079 40.1414777,16.0749275 Z" id="Path" stroke="none" fill="#563634" fill-rule="nonzero"></path>
                                    <path d="M24.7745397,127.054407 L23.4909904,131.273481 C23.003717,132.866033 21.1140472,134.006966 19.7235354,133.151266 C12.3787808,128.694498 3.90497817,120.375197 0.660450655,115.490578 C-0.0349203848,114.567484 -0.180190009,113.341771 0.280139738,112.281705 C0.280139738,112.281705 7.00688908,94.7992873 14.7913782,82.8432629 C16.6572786,86.8721817 20.4366183,93.1354271 25.7372017,92.3510358 C21.1972402,98.792552 14.3754131,111.021925 14.3754131,111.021925 C13.7652047,111.910902 13.7010451,113.065775 14.2090271,114.016873 C16.3720454,117.986369 21.2328943,122.015287 23.7168,123.952496 C24.6788821,124.682525 25.0824116,125.93584 24.7270009,127.090061" id="Path" stroke="none" fill="#F2C6A5" fill-rule="nonzero"></path>
                                    <path d="M78.5053415,139.164933 C78.5053415,139.521474 78.5053415,139.91367 78.5053415,140.353404 L78.5053415,140.353404 C78.5053415,155.007259 77.6734114,222.037059 68.2488314,247.422812 C64.9588167,249.031792 61.0846938,248.902655 57.9091284,247.078155 L52.6323144,161.187312 C50.6713362,161.187312 48.7460122,161.187312 46.9038812,161.05658 L41.6151825,247.09004 C38.4396171,248.91454 34.5654942,249.043677 31.2754795,247.434697 C21.5656664,221.288321 21.0308541,150.883263 21.0070847,139.164933 L21.0070847,137.501072 L30.3247022,140.591099 L69.7581904,140.400943 L78.5172262,137.501072 L78.5172262,139.164933" id="Path" stroke="none" fill="#0275D8" fill-rule="nonzero"></path>
                                    <path d="M105.887728,75.7599721 L105.697572,76.556248 L105.269722,78.3864943 L104.556639,81.4884052 L103.712824,85.184552 L98.0675843,109.75026 C96.2492227,118.640028 91.2814114,119.103532 88.8925834,116.88109 C83.4374987,111.723123 75.3915459,100.242487 69.2471476,85.8500961 C73.668262,86.2779459 80.7990917,85.68371 82.7600699,80.704014 C84.6696616,86.5252175 87.3262705,92.0741345 90.6634061,97.2118847 C90.6634061,97.2118847 93.7534323,89.6294358 95.7857188,82.8908017 C96.1779144,81.6191371 96.5344559,80.3831266 96.8196891,79.2303092 C97.0819793,78.2036525 97.2922108,77.1643949 97.449579,76.1165135 C97.449579,75.8788192 97.4733485,75.6530096 97.5208873,75.4390847 C97.5569676,75.1870787 97.5768164,74.9330146 97.5803109,74.6784629 L100.967455,75.1181974 L100.967455,75.1181974 L105.887728,75.7599721 Z" id="Path" stroke="none" fill="#F2C6A5" fill-rule="nonzero"></path>
                                    <path d="M27.8526812,91.6260681 C27.1860596,91.9605787 26.472927,92.1929478 25.7372017,92.3153817 C20.4366183,93.1354271 16.6572786,86.8721817 14.7913782,82.8076087 C14.6012227,82.4035284 14.4348367,82.0113328 14.2803354,81.6191371 C13.785463,80.4339794 14.1988511,79.0643201 15.2667668,78.3508402 L24.4536524,72.2183266 L26.8305956,85.600517 L27.5793328,89.8552454 L27.8526812,91.6260681 Z" id="Path" stroke="none" fill="#8E388E" fill-rule="nonzero"></path>
                                    <path d="M74.2030742,72.3015197 L83.4018445,78.4221485 C84.4694215,79.1361767 84.8785764,80.5083426 84.3763913,81.6904454 C82.5817991,85.9689432 77.7922585,95.0726358 70.8040454,91.6260681 L74.2030742,72.3015197 Z" id="Path" stroke="none" fill="#8E388E" fill-rule="nonzero"></path>
                                    <path d="M79.4204646,38.6321188 L72.7412541,36.5760629 C72.456021,34.1991197 71.6716297,28.6014183 71.6716297,28.6014183 C70.7045622,29.607921 69.5498469,30.4154142 68.2726009,30.9783616 C66.8766009,31.6271048 65.2773802,31.6828417 63.8396017,31.1328629 C62.2113956,30.4792035 62.7343231,27.2227913 62.7343231,27.2227913 C62.7343231,27.2227913 55.4727616,32.6422218 51.6934218,30.8713991 C49.0431301,29.6829275 50.6475668,25.4163144 50.7069904,25.2618131 C50.5168349,25.4519686 44.3724367,31.5012891 39.6660891,31.5369432 C38.626108,35.0497792 37.7966654,38.6215415 37.1821834,42.2331878 C37.1432523,42.4149272 37.0127569,42.563422 36.8375266,42.6253834 C36.8375266,42.8393083 36.8375266,43.0770026 36.8375266,43.3265817 C36.8375266,43.3265817 25.4519686,40.5217886 27.6387563,36.5047546 C29.6948122,32.7254148 25.2618131,23.4315668 26.6760943,19.3313397 C31.6914445,4.3684821 54.9498341,2.58577467 60.4405729,2.37184978 C61.1937171,2.34175064 61.9226318,2.64112633 62.4372052,3.1918952 C65.2723923,6.20516145 67.3963284,9.81544678 68.6529118,13.7574079 C70.1462732,12.4192267 72.0472256,11.623674 74.0485729,11.4993118 C75.1821902,11.4344111 76.2737791,11.9378787 76.9603284,12.8422847 C80.4663197,17.4654393 80.4900891,34.3060821 79.4204646,38.6321188 Z" id="Path" stroke="none" fill="#684642" fill-rule="nonzero"></path>
                                    <path d="M36.8731808,42.2569572 C36.8731808,42.3639197 36.8731808,42.4708821 36.8731808,42.601614" id="Path" stroke="none" fill="#F3D19F" fill-rule="nonzero"></path>
                                    <path d="M36.8731808,42.2569572 C36.8731808,42.3639197 36.8731808,42.4708821 36.8731808,42.601614" id="Path" stroke="#000000" stroke-width="0.6" fill="none" stroke-linecap="round" stroke-linejoin="round"></path>
                                    <path d="M37.075221,50.5287197 L35.399476,50.4217572 C32.7967231,50.053331 29.7661205,48.5202026 29.1362306,43.5999301 C28.7202655,40.3672873 29.5521956,38.5608105 30.8000908,37.574379 C31.8144371,36.8477062 33.0346419,36.4645702 34.2823127,36.4809852 L38.4419633,36.0531354" id="Path" stroke="none" fill="#F2C6A5" fill-rule="nonzero"></path>
                                    <path d="M32.4282969,39.0361991 C32.4282969,39.0361991 35.1261275,39.7255127 35.3043983,43.7900856 C35.5104577,44.8073002 35.8252289,45.7994271 36.2432908,46.7493799" id="Path" stroke="#000000" stroke-width="0.6" fill="none" stroke-linecap="round" stroke-linejoin="round"></path>
                                    <path d="M35.8867493,48.7222428 C35.890005,48.9028865 35.8196792,49.0770912 35.6919241,49.2048463 C35.5641689,49.3326014 35.3899642,49.4029273 35.2093205,49.3996716 C34.9480927,49.4345017 34.6903745,49.3146708 34.5486525,49.0924817 C34.4069306,48.8702926 34.4069306,48.5860777 34.5486525,48.3638886 C34.6903745,48.1416995 34.9480927,48.0218687 35.2093205,48.0566987 C35.3878839,48.0535095 35.560237,48.1222188 35.687633,48.2473798 C35.8150291,48.3725409 35.8867778,48.5436509 35.8867493,48.7222428" id="Path" stroke="none" fill="#F3D19F" fill-rule="nonzero"></path>
                                    <path d="M72.8363319,42.9462707 L72.8363319,42.9462707 C72.8363319,42.7204611 72.8363319,42.5065362 72.8363319,42.3163808 C72.8363319,41.6032978 72.8363319,40.6644052 72.8363319,39.6423197 C72.8363319,36.8494114 71.742938,28.6014183 71.742938,28.6014183 C70.7703858,29.6068646 69.6120161,30.4140909 68.3320245,30.9783616 C66.9363485,31.628457 65.3365747,31.6842132 63.8990253,31.1328629 C62.2708192,30.4792035 62.7937467,27.2109066 62.7937467,27.2109066 C62.7937467,27.2109066 55.5440699,32.6422218 51.7528454,30.8713991 C49.1025537,29.6829275 50.7188751,25.4163144 50.766414,25.2618131 C50.5762585,25.4519686 44.443745,31.5012891 39.7255127,31.5369432 C38.6855316,35.0497792 37.856089,38.6215415 37.241607,42.2331878 C37.2026759,42.4149272 37.0721804,42.563422 36.8969502,42.6253834 C36.7289299,45.2693848 36.8085077,47.923305 37.1346445,50.5524891 C37.253332,51.6069794 37.4803399,52.6464369 37.8120734,53.6544 C39.1075074,57.2198148 42.1737642,59.1451389 45.2043668,60.4049188 C47.5913097,61.2790707 50.0943284,61.7956937 52.6323144,61.9380472 L54.0822498,62.0450096 C55.1281048,62.0925485 56.126421,62.0925485 57.0771983,62.0450096 C58.3725445,62.0172721 59.6638498,61.8901282 60.939731,61.6646987 C63.4903476,61.2809895 65.9273241,60.3483696 68.0824454,58.931214 L68.5102952,58.6103266 L68.5102952,58.6103266 C68.7618804,58.4246813 69.0038496,58.2263459 69.2352629,58.0160908 L69.3303406,57.9328978 L69.6987668,57.5763563 C69.817614,57.4693939 69.9126917,57.3505467 70.0196541,57.2435843 C70.1266166,57.1366218 70.1622707,57.089083 70.233579,57.0177747 L70.4356192,56.7800803 C70.5378627,56.6671473 70.6331175,56.5480788 70.7208524,56.4235389 C71.1759555,55.8665385 71.5741015,55.2653381 71.909324,54.6289467 C71.9857119,54.511317 72.053245,54.3881686 72.1113642,54.2605205 C72.1826725,54.1060192 72.2658655,53.9396332 72.3252891,53.7851319 C72.3847127,53.6306306 72.4679057,53.4761293 72.5273293,53.3216279 L72.7056,52.8700087 L72.8482166,52.4302742 L72.8482166,52.4302742 C72.8482166,52.3351965 72.8482166,52.2401188 72.9314096,52.145041 L72.9908332,51.9430009 C72.9854499,51.8678273 72.9854499,51.7923649 72.9908332,51.7171913 C72.9908332,51.5983441 72.9908332,51.4794969 73.0740262,51.3487651 C73.1572192,51.2180332 73.0740262,51.099186 73.1453345,50.9803389 C73.2166428,50.8614917 73.1453345,50.8614917 73.1453345,50.7901834 C73.1405687,50.742764 73.1405687,50.6949862 73.1453345,50.6475668 C73.2166428,50.1602934 73.2641817,49.6849048 73.2998358,49.2095162 C73.2292605,47.1273981 73.0308079,45.0515842 72.7056,42.9938096 M46.202683,37.0514515 C46.202683,36.0055965 46.7731493,35.1736664 47.4624629,35.1736664 C48.1517764,35.1736664 48.7341275,36.0055965 48.7341275,37.0514515 C48.7341275,38.0973066 48.1636611,38.9411214 47.4624629,38.9411214 C46.7612646,38.9411214 46.202683,38.0973066 46.202683,37.0514515 M61.18931,57.9566672 C59.8019574,58.491878 58.3264862,58.761978 56.8395039,58.7529432 C53.92725,58.6808834 51.1502585,57.508942 49.0668996,55.4727616 C48.151498,54.6250496 47.6595525,53.4147766 47.7239266,52.1688105 C47.7796101,51.6874461 47.9420205,51.2245765 48.1993153,50.8139528 C49.6017118,48.5083179 54.617062,50.8139528 57.1009677,50.9090306 C59.5848734,51.0041083 61.6765834,50.3504489 63.1621729,50.5287197 C63.9235627,50.5765958 64.6001977,51.0307133 64.9329956,51.7171913 C66.1214672,53.9158638 64.5289153,56.6850026 61.1536559,58.0160908" id="Shape" stroke="none" fill="#F2C6A5" fill-rule="nonzero"></path>
                                    <path d="M73.1572192,42.8393083 C73.1572192,42.7204611 73.1572192,42.6134987 73.1572192,42.4946515" id="Path" stroke="none" fill="#F3D19F" fill-rule="nonzero"></path>
                                    <path d="M73.1572192,42.8393083 C73.1572192,42.7204611 73.1572192,42.6134987 73.1572192,42.4946515" id="Path" stroke="#000000" stroke-width="0.6" fill="none" stroke-linecap="round" stroke-linejoin="round"></path>
                                    <path d="M79.2065397,37.8239581 C78.6540263,37.3919611 78.0127712,37.0875679 77.3287546,36.9326044 C76.8345503,36.8101954 76.3283954,36.7424423 75.8193956,36.7305642 C75.0967365,38.7277562 74.1978801,40.6567179 73.1334498,42.4946515 L72.8601013,42.9462707 C73.1853093,45.0040453 73.3837618,47.0798592 73.4543371,49.1619773 C73.4543371,49.6373659 73.3711441,50.1127546 73.2998358,50.6000279 C73.2941105,50.6473944 73.2941105,50.6952781 73.2998358,50.7426445 L74.630924,50.6713362 C76.7936254,50.4439321 78.7183282,49.1990555 79.8126603,47.3198463 C80.3929927,46.2433863 80.7602055,45.0650771 80.8941694,43.8495092 C81.3101345,40.6049817 80.4782044,38.7985048 79.2303092,37.8239581" id="Path" stroke="none" fill="#F2C6A5" fill-rule="nonzero"></path>
                                    <line x1="75.8193956" y1="36.7305642" x2="75.7243179" y2="36.7305642" id="Path" stroke="none" fill="#F3D19F" fill-rule="nonzero"></line>
                                    <line x1="75.8193956" y1="36.7305642" x2="75.7243179" y2="36.7305642" id="Path" stroke="#000000" stroke-width="0.6" fill="none" stroke-linecap="round" stroke-linejoin="round"></line>
                                    <path d="M77.5902183,39.2738934 C77.5902183,39.2738934 74.8923878,39.9750917 74.714117,44.0277799 C74.5080153,45.0464441 74.1891247,46.0389911 73.7633397,46.9870742" id="Path" stroke="#000000" stroke-width="0.6" fill="none" stroke-linecap="round" stroke-linejoin="round"></path>
                                    <path d="M55.8649572,41.4963354 C55.8649572,41.4963354 60.8208838,40.4029415 59.8463371,46.0838358" id="Path" stroke="#000000" stroke-width="0.6" fill="none" stroke-linecap="round" stroke-linejoin="round"></path>
                                    <path d="M34.4486987,36.5760629 C36.5047546,38.7509659 36.4572157,50.6000279 36.5998323,51.5151511 C36.8850182,53.5652409 37.5201789,55.5511231 38.4776175,57.3862009 C38.6045805,57.6323881 38.8956061,57.7447138 39.1550463,57.6476646 C39.1550463,57.6476646 39.3927406,57.6476646 39.7611668,55.74611 L41.1279092,31.5725974 L41.009062,30.289048 L36.2551755,31.5725974" id="Path" stroke="none" fill="#684642" fill-rule="nonzero"></path>
                                    <path d="M75.7005485,31.5607127 C76.7226341,39.3927406 74.3338061,55.7342253 74.3338061,55.7342253 C73.9534952,57.6001258 73.7158009,57.6357799 73.7158009,57.6357799 C73.4563607,57.732829 73.1653351,57.6205034 73.0383721,57.3743162 C72.338778,55.4000931 71.9031947,53.3420615 71.742938,51.2536873 C71.6003214,50.3385642 72.4797904,39.2738934 72.3490585,32.3332192" id="Path" stroke="none" fill="#684642" fill-rule="nonzero"></path>
                                    <line x1="50.7188751" y1="25.2736978" x2="50.7069904" y2="25.2736978" id="Path" stroke="#000000" stroke-width="0.6" fill="none" stroke-linecap="round" stroke-linejoin="round"></line>
                                    <path d="M47.6169642,38.8460437 C46.9276507,38.8460437 46.3571843,38.0022288 46.3571843,36.9563738 C46.3571843,35.9105188 46.9276507,35.0785886 47.6169642,35.0785886 C48.3062777,35.0785886 48.8886288,35.9105188 48.8886288,36.9563738 C48.8886288,38.0022288 48.3181624,38.8460437 47.6169642,38.8460437 Z" id="Path" stroke="#000000" stroke-width="0.6" fill="none" stroke-linecap="round" stroke-linejoin="round"></path>
                                    <path d="M42.4827668,105.614379 C42.4827668,105.614379 53.0126253,107.302009 58.2656699,105.614379" id="Path" stroke="#822E82" stroke-width="0.6" fill="none" stroke-linecap="round" stroke-linejoin="round"></path>
                                    <path d="M48.8886288,36.9563738 C48.8886288,38.0022288 48.3181624,38.8460437 47.6169642,38.8460437 C46.9157659,38.8460437 46.3571843,38.0022288 46.3571843,36.9563738 C46.3571843,35.9105188 46.9276507,35.0785886 47.6169642,35.0785886 C48.3062777,35.0785886 48.8886288,35.9105188 48.8886288,36.9563738" id="Path" stroke="none" fill="#000000" fill-rule="nonzero"></path>
                                    <path d="M47.6169642,35.0785886 C46.919483,35.2787661 46.1752177,35.2411347 45.5014847,34.9716262" id="Path" stroke="#000000" stroke-width="0.6" fill="none" stroke-linecap="round" stroke-linejoin="round"></path>
                                    <path d="M63.7088699,36.8256419 C63.7088699,37.8714969 64.2674515,38.7153118 64.9686498,38.7153118 C65.669848,38.7153118 66.2403144,37.8714969 66.2403144,36.8256419 C66.2403144,35.7797869 65.669848,34.9478568 64.9686498,34.9478568 C64.2674515,34.9478568 63.7088699,35.7797869 63.7088699,36.8256419" id="Path" stroke="#000000" stroke-width="0.6" fill="#000000" fill-rule="nonzero"></path>
                                    <path d="M64.9686498,34.9478568 C65.6664387,35.1453355 66.4098178,35.1077489 67.0841293,34.8408943" id="Path" stroke="#000000" stroke-width="0.6" fill="none" stroke-linecap="round" stroke-linejoin="round"></path>
                                    <path d="M69.1283004,103.867326 C75.4866236,93.1710812 74.7854253,72.5986376 74.7854253,72.5986376 C73.4305677,71.9212087 72.07571,71.3032035 70.7327371,70.7565066 C69.7938445,70.3761956 68.8668367,70.0315389 67.9398288,69.7225362 C66.5612017,69.2471476 65.1944594,68.8311825 63.8396017,68.5340646 C60.6426131,72.9789485 52.7630463,77.3168699 52.7630463,77.3168699 C49.8988297,77.9942987 43.0413485,70.863469 40.1414777,67.5595179 C38.6915424,67.7853275 37.3129153,68.058676 36.0293659,68.3557939 L35.399476,68.5102952 C31.6209882,69.3786455 27.9500822,70.6620675 24.4536524,72.3371738 C21.3160873,76.306669 28.2448769,103.962403 28.2448769,103.962403 C23.1463336,113.470176 20.9357764,133.674194 20.2464629,141.57753 C27.9121048,146.200685 53.0482795,158.513251 79.3491563,140.698061 C78.2557624,126.852367 69.1283004,103.867326 69.1283004,103.867326 Z" id="Path" stroke="none" fill="#A546A0" fill-rule="nonzero"></path>
                                    <path d="M23.1938725,14.5180297 C22.2985281,15.6538972 21.0395645,16.4470443 19.6284576,16.764241 C18.439986,17.0970131 20.9714306,21.3517415 24.1327651,17.9527127" id="Path" stroke="none" fill="#563634" fill-rule="nonzero"></path>
                                    <path d="M23.1938725,17.0851284 C23.3904526,18.5352306 22.9082258,19.9950623 21.8865537,21.0427389 C21.1497013,21.957862 25.8322795,23.7524541 26.1650515,19.1649537" id="Path" stroke="none" fill="#563634" fill-rule="nonzero"></path>
                                    <rect id="Rectangle" stroke="none" fill="#A546A0" fill-rule="nonzero" x="62.4609747" y="83.592" width="1" height="11.5638288"></rect>
                                    <path d="M36.112559,48.294393 C36.112559,48.7932378 35.7081653,49.1976314 35.2093205,49.1976314 C34.7104757,49.1976314 34.3060821,48.7932378 34.3060821,48.294393 C34.3060821,47.7955482 34.7104757,47.3911546 35.2093205,47.3911546 C35.7081653,47.3911546 36.112559,47.7955482 36.112559,48.294393" id="Path" stroke="none" fill="#8C6FD5" fill-rule="nonzero"></path>
                                    <path d="M77.6741188,48.294393 C77.6741188,48.7932378 77.2697252,49.1976314 76.7708803,49.1976314 C76.2720355,49.1976314 75.8676419,48.7932378 75.8676419,48.294393 C75.8676419,47.7955482 76.2720355,47.3911546 76.7708803,47.3911546 C77.2697252,47.3911546 77.6741188,47.7955482 77.6741188,48.294393" id="Path-Copy" stroke="none" fill="#8C6FD5" fill-rule="nonzero"></path>
                                    <path d="M52.6323144,161.187312 C54.7189606,161.37064 56.8212193,161.246507 58.8717904,160.818886" id="Path" stroke="#034F87" stroke-width="0.6" fill="none" stroke-linecap="round" stroke-linejoin="round"></path>
                                    <path d="M45.0974044,31.9291389 C45.0974044,31.9291389 48.2468541,28.7083808 49.8512908,32.1906026" id="Path" stroke="#000000" stroke-width="0.6" fill="none" stroke-linecap="round" stroke-linejoin="round"></path>
                                    <path d="M62.9957869,33.5454603 C62.9957869,33.5454603 66.133352,30.3128175 67.7496734,33.806924" id="Path" stroke="#000000" stroke-width="0.6" fill="none" stroke-linecap="round" stroke-linejoin="round"></path>
                                    <path d="M61.18931,57.9566672 C59.0619459,56.6612332 53.820786,53.9158638 49.1025537,55.4727616 C48.1843551,54.6269862 47.6918517,53.4153406 47.7595808,52.1688105 C53.7019389,55.8411878 60.2623022,54.2961747 62.44909,53.6068611 C62.9014005,53.4584204 63.2078531,53.0370481 63.2097118,52.5610061 C63.2097118,51.9548856 63.2097118,51.1229555 63.2097118,50.5287197 C63.9694531,50.5814312 64.6438864,51.0340709 64.9805345,51.7171913 C66.1690061,53.9158638 64.5764541,56.6850026 61.2011948,58.0160908" id="Path" stroke="none" fill="#FF74BE" fill-rule="nonzero"></path>
                                    <path d="M61.18931,57.9566672 C59.0619459,56.6612332 53.820786,53.9158638 49.1025537,55.4727616 C48.1843551,54.6269862 47.6918517,53.4153406 47.7595808,52.1688105 C53.7019389,55.8411878 60.2623022,54.2961747 62.44909,53.6068611 C62.9014005,53.4584204 63.2078531,53.0370481 63.2097118,52.5610061 C63.2097118,51.9548856 63.2097118,51.1229555 63.2097118,50.5287197 C63.9694531,50.5814312 64.6438864,51.0340709 64.9805345,51.7171913 C66.1927755,53.820786 64.5170306,56.625579 61.18931,57.9566672 Z" id="Path" stroke="#000000" stroke-width="0.6" fill="none" stroke-linecap="round" stroke-linejoin="round"></path>
                                    <path d="M63.2097118,52.5491214 C63.1892259,53.0216402 62.8905126,53.4370384 62.44909,53.6068611 C60.2623022,54.2961747 53.7613624,55.8411878 47.7595808,52.1688105 C47.8152643,51.6874461 47.9776747,51.2245765 48.2349694,50.8139528 C49.6373659,48.5083179 54.6527162,50.8139528 57.1366218,50.9090306 C59.6205275,51.0041083 61.7122376,50.3504489 63.1978271,50.5287197 C63.1978271,51.1229555 63.1978271,51.9548856 63.2097118,52.5491214 Z" id="Path" stroke="#000000" stroke-width="0.6" fill="none" stroke-linecap="round" stroke-linejoin="round"></path>
                                    <path d="M63.2097118,52.5491214 C63.1892259,53.0216402 62.8905126,53.4370384 62.44909,53.6068611 C60.2623022,54.2961747 53.7613624,55.8411878 47.7595808,52.1688105 C47.8152643,51.6874461 47.9776747,51.2245765 48.2349694,50.8139528 C49.6373659,48.5083179 54.6527162,50.8139528 57.1366218,50.9090306 C59.6205275,51.0041083 61.7122376,50.3504489 63.1978271,50.5287197 C63.1978271,51.1229555 63.1978271,51.9548856 63.1978271,52.5491214" id="Path" stroke="none" fill="#FFFFFF" fill-rule="nonzero"></path>
                                    <path d="M63.2097118,52.5491214 C63.1892259,53.0216402 62.8905126,53.4370384 62.44909,53.6068611 C60.2623022,54.2961747 53.7613624,55.8411878 47.7595808,52.1688105 C47.8152643,51.6874461 47.9776747,51.2245765 48.2349694,50.8139528 C49.6373659,48.5083179 54.6527162,50.8139528 57.1366218,50.9090306 C59.6205275,51.0041083 61.7122376,50.3504489 63.1978271,50.5287197 C63.1978271,51.1229555 63.1978271,51.9548856 63.2097118,52.5491214 Z" id="Path" stroke="#000000" stroke-width="0.6" fill="none" stroke-linecap="round" stroke-linejoin="round"></path>
                                    <path d="M61.18931,57.9566672 C59.8019574,58.491878 58.3264862,58.761978 56.8395039,58.7529432 C53.9262355,58.6856054 51.1475833,57.5129632 49.0668996,55.4727616 C53.820786,53.9158638 59.0262917,56.6612332 61.1536559,57.9566672" id="Path" stroke="none" fill="#F9487B" fill-rule="nonzero"></path>
                                    <path d="M61.18931,57.9566672 C59.8019574,58.491878 58.3264862,58.761978 56.8395039,58.7529432 C53.9262355,58.6856054 51.1475833,57.5129632 49.0668996,55.4727616 C53.820786,53.9158638 59.0619459,56.6612332 61.18931,57.9566672 Z" id="Path" stroke="#000000" stroke-width="0.6" fill="none" stroke-linecap="round" stroke-linejoin="round"></path>
                                    <path d="M61.8073153,67.9873677 C59.0274853,70.8236412 55.9515732,73.3536984 52.6323144,75.5341624 C48.4726638,74.2387284 44.8834795,69.5918044 43.1245415,67.0841293 C44.0396646,66.9652821 44.9666725,66.8820891 45.9293345,66.8226655 C45.9926259,66.5723333 46.040257,66.3183004 46.0719511,66.0620437 C46.2861661,64.323696 46.3695935,62.5717209 46.3215301,60.8208838 C48.3432642,61.4111194 50.4236493,61.7777773 52.525352,61.9142777 L53.9752873,62.0212402 C55.0330271,62.0212402 56.0313432,62.0925485 56.9821205,62.0212402 C57.3980856,62.0212402 57.8140507,62.0212402 58.1705921,61.9618166 C58.1705921,63.3642131 58.1705921,64.8854568 58.2656699,66.0263895 C58.2656699,66.549317 58.3250934,67.0009362 58.3488629,67.3218236 C59.5492192,67.5238638 60.6782672,67.7377886 61.8073153,67.9873677 Z" id="Path" stroke="none" fill="#F2C6A5" fill-rule="nonzero"></path>
                                    <circle id="Oval" stroke="none" fill="#F2C6A5" fill-rule="nonzero" cx="101.775616" cy="72.622407" r="5.55016245"></circle>
                                    <path d="M94.8705956,70.9110079 C94.6091319,69.7225362 96.8553432,67.7496734 96.8315738,66.1571214 C96.7790474,65.1949973 96.6357951,64.2399819 96.403724,63.3047895 C96.403724,63.3047895 103.534554,59.2164472 108.751944,64.291221 C108.751944,64.291221 108.300325,68.5102952 108.169593,69.5204961 C107.929093,71.2214963 107.531229,72.8965024 106.981121,74.5239616 L97.0573834,75.4509694 C96.1478577,74.0314738 95.4135831,72.507056 94.8705956,70.9110079 L94.8705956,70.9110079 Z" id="Path" stroke="none" fill="#F2C6A5" fill-rule="nonzero"></path>
                                    <path d="M94.644786,53.903979 C93.1710812,54.450676 94.228821,57.172276 95.2509066,60.0483773 C96.0352978,62.2232803 96.4393782,63.3404437 96.4393782,63.3404437 L100.004793,63.0076716 C100.004793,63.0076716 99.4224419,60.7139214 98.6737048,58.7291738 C97.6040803,55.9124961 96.1303755,53.3572821 94.644786,53.903979 Z" id="Path" stroke="none" fill="#F2C6A5" fill-rule="nonzero"></path>
                                    <path d="M90.3425188,65.4796926 C89.3085485,66.6681642 91.5309904,68.5578341 93.7890865,70.6020052 C94.869732,71.5900857 95.8564259,72.6762446 96.7364961,73.8465328 L98.9113991,70.6495441 C98.083718,69.6330925 97.1691022,68.6906406 96.1779144,67.8328664 C93.8960489,65.8600035 91.3883738,64.3031057 90.3425188,65.4796926 Z" id="Path" stroke="none" fill="#F2C6A5" fill-rule="nonzero"></path>
                                    <path d="M100.480182,51.5389205 C98.9113991,51.6934218 99.3511336,55.3182603 99.6244821,58.3607476 C99.7629939,59.8153161 99.7629939,61.2797546 99.6244821,62.7343231 L103.403822,61.8905083 C103.484201,60.5831304 103.456375,59.2713454 103.320629,57.968552 C102.940318,55.0092576 102.048964,51.4438428 100.480182,51.5389205 Z" id="Path" stroke="none" fill="#F2C6A5" fill-rule="nonzero"></path>
                                    <path d="M105.852073,54.0465956 C104.425907,53.8445555 104.259521,56.4235389 103.807902,59.1332541 C103.646344,60.2808824 103.284293,61.3911741 102.738278,62.4134358 L106.39877,62.8412856 C106.730523,61.7818967 106.973026,60.6965993 107.123738,59.5967581 C107.504049,56.8751581 107.302009,54.2605205 105.852073,54.0465956 Z" id="Path" stroke="none" fill="#F2C6A5" fill-rule="nonzero"></path>
                                    <path d="M109.310526,57.6476646 C108.264671,57.3624314 107.896245,59.2521013 107.302009,61.2843878 C107.074372,62.1348615 106.700358,62.9391931 106.19673,63.661331 L108.442941,64.6477624 C109.016154,63.8261224 109.457263,62.9198445 109.75026,61.9618166 C110.296957,59.9295301 110.368266,57.9447825 109.310526,57.6476646 Z" id="Path" stroke="none" fill="#F2C6A5" fill-rule="nonzero"></path>
                                    <path d="M96.1660297,67.89229 C97.9725066,69.6868821 100.634683,68.5697188 101.252688,72.4203668" id="Path" stroke="#E2B486" stroke-width="0.6" fill="none" stroke-linecap="round" stroke-linejoin="round"></path>
                                    <path d="M79.4204646,144.750749 C71.1148567,149.977623 61.648568,153.075904 51.8598079,153.771249 C36.5760629,154.817104 19.9968838,144.750749 19.9968838,144.750749 C19.9968838,144.750749 20.0681921,143.562278 20.2464629,141.529991 C27.9121048,146.153146 53.0482795,158.465712 79.3491563,140.650522 C79.4838247,142.013084 79.5076724,143.384329 79.4204646,144.750749 L79.4204646,144.750749 Z" id="Path" stroke="none" fill="#8E388E" fill-rule="nonzero"></path>
                                    <path d="M63.8396017,68.4865258 C60.6426131,72.9314096 52.7630463,77.269331 52.7630463,77.269331 C49.8988297,77.9467598 43.0413485,70.8159301 40.1414777,67.511979 L41.2348716,67.345593 L41.2348716,67.345593 C41.8647616,67.2505153 42.518421,67.1673223 43.1720803,67.1078987 C44.9072489,69.6749974 48.4964332,74.2387284 52.6798533,75.5579319 C55.99082,73.3760879 59.0587089,70.8460756 61.8310847,68.0111371 L62.698669,68.2012926 L62.698669,68.3795633 C62.7035313,68.3281776 62.7035313,68.2764477 62.698669,68.225062 L63.8396017,68.4865258 Z" id="Path" stroke="none" fill="#8E388E" fill-rule="nonzero"></path>
                                    <path d="M104.556639,81.4884052 L103.712824,85.184552 L103.142358,85.184552 C100.523657,85.1362762 97.9740817,84.3359242 95.7976035,82.878917 C96.1897991,81.6072524 96.5463406,80.3712419 96.8315738,79.2184245 C98.9643033,81.043494 101.775612,81.8695861 104.556639,81.4884052 L104.556639,81.4884052 Z" id="Path" stroke="none" fill="#8E388E" fill-rule="nonzero"></path>
                                </g>
                            </g>
                        </g>
                    </g>
                </g>
            </g>
        </g>
    </g>
</svg>