<?xml version="1.0" encoding="UTF-8"?>
<svg width="406px" height="356px" viewBox="0 0 406 356" version="1.1" xmlns="http://www.w3.org/2000/svg" xmlns:xlink="http://www.w3.org/1999/xlink">
    <!-- Generator: Sketch 63.1 (92452) - https://sketch.com -->
    <title>Profesores@2x</title>
    <desc>Created with Sketch.</desc>
    <defs>
        <rect id="path-1" x="0" y="0" width="350" height="300" rx="8"></rect>
        <filter x="-12.3%" y="-13.7%" width="124.6%" height="128.7%" filterUnits="objectBoundingBox" id="filter-3">
            <feOffset dx="0" dy="2" in="SourceAlpha" result="shadowOffsetOuter1"></feOffset>
            <feGaussianBlur stdDeviation="14" in="shadowOffsetOuter1" result="shadowBlurOuter1"></feGaussianBlur>
            <feColorMatrix values="0 0 0 0 0   0 0 0 0 0   0 0 0 0 0  0 0 0 0.06 0" type="matrix" in="shadowBlurOuter1"></feColorMatrix>
        </filter>
        <path d="M214.958039,107.477453 C214.958039,150.950427 188.769138,190.142275 148.604325,206.776193 C108.439513,223.410112 62.2094737,214.209956 31.4732168,183.466144 C0.736959863,152.722333 -8.45183439,106.490034 8.19195453,66.3293103 C24.8357434,26.1685865 64.0340265,-0.0106793646 107.506999,-1.6513882e-12 C136.008289,0.00350530039 163.340849,11.3289573 183.491827,31.484889 C203.642806,51.6408208 214.961541,78.9761633 214.958039,107.477453" id="path-4"></path>
    </defs>
    <g id="Screens" stroke="none" stroke-width="1" fill="none" fill-rule="evenodd">
        <g id="Inicio-" transform="translate(-897.000000, -336.000000)">
            <g id="Profesores" transform="translate(925.000000, 362.000000)">
                <g id="Rectangle-Copy-2">
                    <g id="Card-Copy">
                        <g id="Card">
                            <g id="Group-2">
                                <mask id="mask-2" fill="white">
                                    <use xlink:href="#path-1"></use>
                                </mask>
                                <g id="Mask">
                                    <use fill="black" fill-opacity="1" filter="url(#filter-3)" xlink:href="#path-1"></use>
                                    <use fill="#FFFFFF" fill-rule="evenodd" xlink:href="#path-1"></use>
                                </g>
                            </g>
                        </g>
                    </g>
                    <g id="madre_Mesa-de-trabajo-1-Copy-2" transform="translate(67.000000, 42.000000)">
                        <g id="Group" transform="translate(0.775970, 0.805516)">
                            <mask id="mask-5" fill="white">
                                <use xlink:href="#path-4"></use>
                            </mask>
                            <use id="Mask" fill="#E4E9F2" fill-rule="nonzero" xlink:href="#path-4"></use>
                            <g id="icono-maestro_Mesa-de-trabajo-1" mask="url(#mask-5)">
                                <g transform="translate(14.400000, 18.000000)" id="Group">
                                    <g>
                                        <path d="M56.3259226,119.415565 C56.3259226,120.040523 55.8738259,120.53251 55.9669046,121.14417 C56.2461408,123.125417 60.5809498,121.529782 55.0760083,127.606493 L54.5840208,128.151668 C51.4677771,133.188066 47.9786441,137.983957 44.1459072,142.499088 C42.9757747,143.828784 41.7790483,145.15848 40.5291341,146.488176 C39.4467189,147.725851 38.1605184,148.769203 36.7262035,149.573071 C35.561545,150.231147 34.1800063,150.389448 32.896679,150.01187 C31.3817742,149.317772 30.1118586,148.182263 29.253312,146.754115 C25.3514553,141.216344 22.1659166,135.207159 19.7725795,128.869704 C17.5918781,123.471138 15.7834915,117.939603 14.1080746,112.35488 C13.2216106,109.500466 12.423793,106.619458 11.7146218,103.711856 C15.4321251,104.724279 19.3527222,104.724279 23.0702256,103.711856 C25.02557,103.144663 26.9223338,102.392191 28.7347306,101.464669 C31.0899706,100.494675 33.0969528,98.8353226 34.4923142,96.7043578 C34.6651747,97.7814115 34.8247382,98.8584653 34.9577078,99.948816 C35.1438653,101.402617 35.3167258,102.851986 35.4762893,104.296922 C36.5915851,102.616167 37.5486307,100.835618 38.3351357,98.9781379 C39.6648317,95.8001645 41.0743094,92.622191 42.4837872,89.4442176 C43.5874349,86.9443891 44.9171309,84.5509363 46.206936,82.1175926 C47.6175114,79.5670186 48.801067,76.8973443 49.7439274,74.1394166 C50.2024926,72.1097903 50.4432002,70.0370304 50.4619632,67.9563302 C50.537505,66.9516372 50.8325409,65.9757495 51.3262656,65.0974838 C51.914291,64.1994714 52.8394109,63.5763337 53.8925789,63.368879 C55.0873859,63.198214 56.3060299,63.3402365 57.4295702,63.7810848 C57.8949638,63.9273514 59.0650963,64.4725267 60.2485258,65.044296 C59.5703808,69.033384 58.5731088,75.2563613 57.5891338,82.6228771 L57.5891338,82.6228771 C57.7088064,82.6228771 58.1077152,82.7824406 58.0811213,82.9553011 L57.8683699,84.1121366 C57.176928,89.0187149 57.0173645,93.1141786 56.6450496,98.0606477 C56.3658134,101.743906 55.8871229,105.13463 55.7009654,108.831185 C55.6413954,109.038844 55.5703695,109.243043 55.4882141,109.442845 C55.4195391,109.590999 55.3703733,109.747436 55.3419475,109.908239 C55.3431989,110.072176 55.3747558,110.234468 55.4350262,110.38693 C56.4721891,113.046322 65.5407158,112.328286 56.3525165,119.468753" id="Path" fill="#0065C1" fill-rule="nonzero"></path>
                                        <path d="M0.87759936,76.4397907 C0.981436393,76.933846 1.38725885,77.3076298 1.88816832,77.3705779 C2.63046424,77.5325954 3.38897186,77.6084462 4.14865152,77.5966262 C4.63713772,77.6453446 5.12957646,77.5579022 5.57142624,77.343984 C5.89444192,77.1465825 6.14242864,76.8471269 6.27616512,76.4929786 C6.60941547,75.5091627 6.68719895,74.456798 6.50221344,73.4346778 C6.41686413,72.4801149 6.15062027,71.5505177 5.7176928,70.695504 C5.57142624,70.4162678 5.99692896,70.1636256 6.15649248,70.4428618 C6.57355149,71.2767842 6.8434571,72.1764695 6.95431008,73.1022538 C7.17362059,74.1367861 7.17362059,75.205804 6.95431008,76.2403363 C6.90473364,76.3983377 6.84703676,76.5536754 6.7814496,76.7057299 L6.7814496,76.7057299 C6.80177496,76.7615577 6.80177496,76.8227627 6.7814496,76.8785904 C6.11503733,79.0294205 6.06894884,81.3246275 6.64848,83.5004765 C7.08764078,85.7783812 8.06815598,87.9172725 9.5073264,89.7367507 C10.2680848,90.6829648 11.1641826,91.5118552 12.1667184,92.1966883 L12.1667184,92.1966883 C15.3090388,92.3738392 18.4582853,92.0049274 21.4745904,91.1063376 C24.6029243,90.2405904 27.5244714,88.7526817 30.0644266,86.7316378 C30.2239901,86.6075328 30.3835536,86.4745632 30.5431171,86.332729 L30.5431171,86.332729 C31.2308857,85.6408007 31.8498796,84.8837578 32.3913946,84.0722458 L32.3913946,84.0722458 C32.5509581,83.8461974 32.6972246,83.6068522 32.8434912,83.3808038 C32.8434912,83.3808038 32.8434912,83.3808038 32.8434912,83.3808038 L33.1493213,82.8489254 L33.1493213,82.8489254 C33.1867555,82.7902893 33.2179516,82.7278971 33.2424,82.662768 C33.7864832,81.7136096 34.0879279,80.6448514 34.1199994,79.5512794 C34.1199994,78.1152077 33.8008723,76.692433 33.7476845,75.2563613 C33.7076631,73.9718678 33.9719267,72.6961125 34.5189082,71.5332125 C34.9082281,70.4948171 35.6784907,69.6437245 36.6730157,69.1530566 C37.1650032,68.9403053 37.6835846,68.7807418 38.1489782,68.5413965 C38.6143718,68.3020512 38.9202019,68.1291907 38.9202019,67.6505002 C38.7967418,66.6372721 38.3270123,65.6978131 37.5905059,64.9911082 C36.6661937,64.1318071 35.3798883,63.7791905 34.1465933,64.047024 C31.5460853,64.6507037 29.434497,66.5416035 28.5485731,69.0599779 L28.5485731,69.0599779 C28.5007457,69.1813904 28.4607724,69.3057518 28.4289005,69.4322928 C28.4142732,69.4971087 28.3718696,69.5522063 28.3129597,69.5829419 C28.2540498,69.6136775 28.1846007,69.6169378 28.1230704,69.5918563 C28.0567048,69.5843792 27.9977018,69.5461727 27.9637261,69.4886754 C27.9297503,69.431178 27.9247455,69.3610635 27.9502099,69.2993232 C27.9752083,69.2043425 28.0062989,69.1110706 28.0432886,69.020087 L28.0432886,69.020087 C27.7898572,67.0123667 27.4303364,65.0194673 26.9662349,63.049752 C26.1291544,59.4629071 24.9307379,55.9701246 23.3893526,52.6249354 C22.6565108,51.0117245 21.737186,49.4899296 20.6501789,48.090672 C19.9568355,46.9205729 18.6356237,46.2730224 17.286048,46.441849 C16.5245514,46.6441736 15.8075262,46.9869027 15.1718314,47.4524179 C14.4348135,47.8096302 14.0267951,48.6147864 14.1745594,49.420368 C14.4276556,50.1954207 14.8296534,50.9135966 15.3579888,51.5345846 C15.8233824,52.1861357 16.302073,52.8642806 16.6876848,53.5158317 C17.0732966,54.1673827 17.286048,54.6061824 17.5386902,55.1513578 C17.7913325,55.6965331 18.1503504,56.4810538 18.4029926,57.1990896 L18.4029926,57.1990896 C19.3337798,59.6191363 20.0119248,62.1322618 20.8762272,64.5656054 C20.9826029,64.8714355 20.5039123,65.0044051 20.3975366,64.698575 C19.4454218,61.5025569 18.3224292,58.359953 17.0334058,55.2843274 C16.5680122,54.6859642 16.0760246,54.1008979 15.5973341,53.5291286 C14.3044048,51.945957 12.8858962,50.4696408 11.3556038,49.1145379 C10.9451397,48.6691072 10.3883048,48.3859708 9.78656256,48.3167203 C8.45686656,48.3167203 7.69893984,49.6464163 7.00749792,50.5506096 C6.57369685,50.9717106 6.25742569,51.4988292 6.09000768,52.07976 C6.09000768,52.6382323 6.5155104,53.1302198 6.8479344,53.5158317 C7.95158208,54.8455277 9.09512064,56.0023632 10.1455805,57.3187622 C10.9206135,58.2907639 11.6312989,59.3123742 12.2730941,60.377063 L12.2730941,60.377063 C12.5124394,60.7626749 12.7384877,61.1615837 12.977833,61.5604925 L12.977833,61.5604925 L13.1772874,61.9062134 C14.1603014,63.5095639 14.9165462,65.2413198 15.4244736,67.052137 C15.5042554,67.371264 15.0122678,67.5042336 14.945783,67.1851066 C14.4474658,65.41734 13.7092668,63.7261931 12.7517846,62.1588557 C12.4725485,61.6801651 12.1933123,61.2014746 11.9007792,60.722784 C11.0722235,60.150791 10.205946,59.6354669 9.307872,59.1803366 C8.31326516,58.6530767 7.27705511,58.2083513 6.20968032,57.8506406 C5.35867488,57.5581075 3.9226032,56.9464474 3.23116128,57.8506406 C2.94440579,58.2562601 2.72443852,58.7051729 2.57961024,59.1803366 C2.35356192,59.738809 1.76849568,61.6668682 1.68871392,62.065777 C1.60893216,62.4646858 1.51585344,62.8635946 1.83498048,63.1162368 C2.52739069,63.4895389 3.27120265,63.7583866 4.04227584,63.9140544 C5.1742402,64.2917854 6.26558951,64.781779 7.30003104,65.37672 C8.29648569,66.0388647 9.09580484,66.9576223 9.61370208,68.036112 L9.93282912,68.687663 C10.2652531,69.4056989 10.5577862,70.1503286 10.8370224,70.8550675 C10.969992,71.1476006 10.4780045,71.2805702 10.3583318,70.9880371 C9.99931392,70.1104378 9.65359296,69.2195414 9.21479328,68.3286451 L9.21479328,68.3286451 C8.38033851,68.0450473 7.52114512,67.8402655 6.64848,67.716985 C4.97306304,67.4244518 2.77906464,67.3047792 1.329696,68.4882086 C0.538727951,69.325974 0.121308828,70.4486875 0.17286048,71.5996973 C0.137574373,73.2343647 0.343680709,74.8652931 0.78452064,76.4397907" id="Path" fill="#F2C6A5" fill-rule="nonzero"></path>
                                        <path d="M0.87759936,76.4397907 C1.02386592,76.9849661 3.3907248,77.5833293 4.14865152,77.5966262 C4.94547889,77.4543606 5.68425618,77.084972 6.27616512,76.5328694 C6.60941547,75.5490536 6.68719895,74.4966889 6.50221344,73.4745686 C6.42187917,72.5063783 6.15550445,71.5627797 5.7176928,70.695504 C5.57142624,70.4162678 5.99692896,70.1636256 6.15649248,70.4428618 C6.57355149,71.2767842 6.8434571,72.1764695 6.95431008,73.1022538 C7.17362059,74.1367861 7.17362059,75.205804 6.95431008,76.2403363 C6.90473364,76.3983377 6.84703676,76.5536754 6.7814496,76.7057299 L6.7814496,76.7057299 C6.80177496,76.7615577 6.80177496,76.8227627 6.7814496,76.8785904 C6.11503733,79.0294205 6.06894884,81.3246275 6.64848,83.5004765 C7.08764078,85.7783812 8.06815598,87.9172725 9.5073264,89.7367507 C10.2680848,90.6829648 11.1641826,91.5118552 12.1667184,92.1966883 L12.1667184,92.1966883 C15.3090388,92.3738392 18.4582853,92.0049274 21.4745904,91.1063376 C24.6029243,90.2405904 27.5244714,88.7526817 30.0644266,86.7316378 C30.2239901,86.6075328 30.3835536,86.4745632 30.5431171,86.332729 L30.5431171,86.332729 C31.2308857,85.6408007 31.8498796,84.8837578 32.3913946,84.0722458 L32.3913946,84.0722458 C32.5509581,83.8461974 32.6972246,83.6068522 32.8434912,83.3808038 C32.8434912,83.3808038 32.8434912,83.3808038 32.8434912,83.3808038 L33.1493213,82.8489254 L33.1493213,82.8489254 C33.1867555,82.7902893 33.2179516,82.7278971 33.2424,82.662768 C33.7864832,81.7136096 34.0879279,80.6448514 34.1199994,79.5512794 C34.1199994,78.1152077 33.8008723,76.692433 33.7476845,75.2563613 C33.7076631,73.9718678 33.9719267,72.6961125 34.5189082,71.5332125 C34.9082281,70.4948171 35.6784907,69.6437245 36.6730157,69.1530566 C37.1650032,68.9403053 37.6835846,68.7807418 38.1489782,68.5413965 C38.6143718,68.3020512 38.9202019,68.1291907 38.9202019,67.6505002 C38.7967418,66.6372721 38.3270123,65.6978131 37.5905059,64.9911082 C36.6661937,64.1318071 35.3798883,63.7791905 34.1465933,64.047024 C31.5460853,64.6507037 29.434497,66.5416035 28.5485731,69.0599779 L28.5485731,69.0599779 C28.5007457,69.1813904 28.4607724,69.3057518 28.4289005,69.4322928 C28.4142732,69.4971087 28.3718696,69.5522063 28.3129597,69.5829419 C28.2540498,69.6136775 28.1846007,69.6169378 28.1230704,69.5918563 C28.0567048,69.5843792 27.9977018,69.5461727 27.9637261,69.4886754 C27.9297503,69.431178 27.9247455,69.3610635 27.9502099,69.2993232 C27.9752083,69.2043425 28.0062989,69.1110706 28.0432886,69.020087 L28.0432886,69.020087 C27.7898572,67.0123667 27.4303364,65.0194673 26.9662349,63.049752 C26.1291544,59.4629071 24.9307379,55.9701246 23.3893526,52.6249354 C22.6565108,51.0117245 21.737186,49.4899296 20.6501789,48.090672 C19.9568355,46.9205729 18.6356237,46.2730224 17.286048,46.441849 C16.5245514,46.6441736 15.8075262,46.9869027 15.1718314,47.4524179 C14.4348135,47.8096302 14.0267951,48.6147864 14.1745594,49.420368 C14.4276556,50.1954207 14.8296534,50.9135966 15.3579888,51.5345846 C15.8233824,52.1861357 16.302073,52.8642806 16.6876848,53.5158317 C17.0732966,54.1673827 17.286048,54.6061824 17.5386902,55.1513578 C17.7913325,55.6965331 18.1503504,56.4810538 18.4029926,57.1990896 L18.4029926,57.1990896 C19.3337798,59.6191363 20.0119248,62.1322618 20.8762272,64.5656054 C20.9826029,64.8714355 20.5039123,65.0044051 20.3975366,64.698575 C19.4454218,61.5025569 18.3224292,58.359953 17.0334058,55.2843274 C16.5680122,54.6859642 16.0760246,54.1008979 15.5973341,53.5291286 C14.3044048,51.945957 12.8858962,50.4696408 11.3556038,49.1145379 C10.9451397,48.6691072 10.3883048,48.3859708 9.78656256,48.3167203 C8.45686656,48.3167203 7.69893984,49.6464163 7.00749792,50.5506096 C6.57369685,50.9717106 6.25742569,51.4988292 6.09000768,52.07976 C6.09000768,52.6382323 6.5155104,53.1302198 6.8479344,53.5158317 C7.95158208,54.8455277 9.09512064,56.0023632 10.1455805,57.3187622 C10.9206135,58.2907639 11.6312989,59.3123742 12.2730941,60.377063 L12.2730941,60.377063 C12.5124394,60.7626749 12.7384877,61.1615837 12.977833,61.5604925 L12.977833,61.5604925 L13.1772874,61.9062134 C14.1603014,63.5095639 14.9165462,65.2413198 15.4244736,67.052137 C15.5042554,67.371264 15.0122678,67.5042336 14.945783,67.1851066 C14.4474658,65.41734 13.7092668,63.7261931 12.7517846,62.1588557 C12.4725485,61.6801651 12.1933123,61.2014746 11.9007792,60.722784 C11.0722235,60.150791 10.205946,59.6354669 9.307872,59.1803366 C8.31326516,58.6530767 7.27705511,58.2083513 6.20968032,57.8506406 C5.35867488,57.5581075 3.9226032,56.9464474 3.23116128,57.8506406 C2.94440579,58.2562601 2.72443852,58.7051729 2.57961024,59.1803366 C2.35356192,59.738809 1.76849568,61.6668682 1.68871392,62.065777 C1.60893216,62.4646858 1.51585344,62.8635946 1.83498048,63.1162368 C2.52739069,63.4895389 3.27120265,63.7583866 4.04227584,63.9140544 C5.1742402,64.2917854 6.26558951,64.781779 7.30003104,65.37672 C8.29648569,66.0388647 9.09580484,66.9576223 9.61370208,68.036112 L9.93282912,68.687663 C10.2652531,69.4056989 10.5577862,70.1503286 10.8370224,70.8550675 C10.969992,71.1476006 10.4780045,71.2805702 10.3583318,70.9880371 C9.99931392,70.1104378 9.65359296,69.2195414 9.21479328,68.3286451 L9.21479328,68.3286451 C8.38033851,68.0450473 7.52114512,67.8402655 6.64848,67.716985 C4.99965696,67.4244518 0.49198752,74.8574525 0.87759936,76.4397907 Z" id="Path"></path>
                                        <path d="M12.4858454,99.7094707 C12.9138187,100.29779 13.5351783,100.716737 14.2410442,100.8929 C14.6875695,100.99411 15.1547561,100.858475 15.4776614,100.533882 C16.1957145,99.7420655 16.4965527,98.6570751 16.288776,97.608551 C16.2094561,97.1154263 15.9928705,96.6546059 15.6638189,96.278855 C15.2906161,95.9013267 14.7703811,95.7068463 14.2410442,95.7469766 C14.0773366,95.7332243 13.9127642,95.7332243 13.7490566,95.7469766 C13.7193015,95.7595367 13.685733,95.7595367 13.6559779,95.7469766 L13.2703661,96.0395098 C12.0900702,96.8759425 11.7488467,98.4779581 12.4858454,99.7227677" id="Path" fill="#0065C1" fill-rule="nonzero"></path>
                                        <path d="M152.635804,142.964482 C152.672468,143.469761 152.895131,143.943512 153.260761,144.294178 C153.37723,144.418106 153.523831,144.509731 153.686264,144.560117 C153.829932,144.599105 153.981395,144.599105 154.125063,144.560117 C154.46326,144.459567 154.761082,144.254815 154.976069,143.975051 C155.230047,143.65742 155.415652,143.290736 155.521244,142.897997 C155.657921,142.465301 155.657921,142.000996 155.521244,141.568301 C155.34205,141.121476 154.970697,140.77944 154.510675,140.637514 C154.449945,140.620851 154.400651,140.576486 154.377706,140.517841 C154.228661,140.555815 154.085503,140.613973 153.952203,140.690701 C153.128365,141.137118 152.617259,142.000888 152.622507,142.937888" id="Path" fill="#0065C1" fill-rule="nonzero"></path>
                                        <path d="M156.039826,141.66138 C156.080205,141.59144 156.080205,141.505271 156.039826,141.435331 C155.941039,140.824418 155.518441,140.315264 154.936178,140.105635 C154.400501,139.999089 153.84477,140.124733 153.407028,140.451356 C152.434238,141.113432 151.939888,142.28426 152.143816,143.443172 C152.369865,144.427147 153.300652,145.477607 154.391003,145.052104 C155.284346,144.61123 155.898132,143.752928 156.026529,142.765027 C156.093079,142.413564 156.093079,142.052733 156.026529,141.70127 M155.507947,142.964482 C155.408159,143.359418 155.221957,143.727282 154.962772,144.041535 C154.752483,144.329004 154.453431,144.539275 154.111766,144.639899 C153.968098,144.678887 153.816635,144.678887 153.672967,144.639899 C153.509177,144.592512 153.361832,144.500421 153.247464,144.373959 C152.881834,144.023294 152.659171,143.549542 152.622499,143.044263 C152.620183,142.108057 153.130468,141.245674 153.952203,140.797077 C154.08764,140.724818 154.230246,140.666884 154.377706,140.624217 C154.406647,140.683552 154.460081,140.727271 154.523972,140.743889 C154.983994,140.885816 155.355347,141.227852 155.534541,141.674676 C155.67386,142.106961 155.67386,142.572088 155.534541,143.004372" id="Shape" fill="#0275D8" fill-rule="nonzero"></path>
                                        <path d="M16.6743878,97.0633757 C16.6173826,96.8765238 16.5462607,96.694274 16.4616365,96.5182003 C16.5020161,96.4482607 16.5020161,96.3620916 16.4616365,96.292152 C16.3968262,96.0893117 16.312204,95.8933445 16.2089942,95.7070858 C15.8705661,95.0946174 15.1847889,94.7597029 14.4936864,94.8693773 C13.7699288,95.017669 13.1154686,95.4009956 12.632112,95.959728 C12.0645935,96.5513913 11.6931584,97.3035474 11.5683552,98.1138355 C11.4803744,98.9763002 11.8058736,99.8295026 12.4459546,100.41421 C12.9830661,100.99608 13.7180629,101.356466 14.5069834,101.424818 C15.0884843,101.428475 15.6405918,101.169522 16.0095398,100.72004 C16.8030502,99.6826733 17.0503543,98.3274472 16.6743878,97.0766726 M15.4776614,100.547179 C15.1547561,100.871772 14.6875695,101.007407 14.2410442,100.906197 C13.5351783,100.730034 12.9138187,100.311087 12.4858454,99.7227677 C11.7593872,98.4662649 12.1111568,96.8631186 13.29696,96.0262128 L13.6825718,95.7336797 C13.7119517,95.747974 13.7462707,95.747974 13.7756506,95.7336797 C13.9394139,95.7213292 14.1038748,95.7213292 14.2676381,95.7336797 C14.796975,95.6935493 15.31721,95.8880297 15.6904128,96.2655581 C16.0194644,96.6413089 16.23605,97.1021293 16.3153699,97.5952541 C16.5231466,98.6437782 16.2223084,99.7287685 15.5042554,100.520585" id="Shape" fill="#0275D8" fill-rule="nonzero"></path>
                                        <path d="M127.278501,160.263827 C129.216187,163.272216 131.535914,166.016556 134.179623,168.42816 C134.877015,169.319813 135.997553,169.77107 137.118252,169.611589 C138.097996,169.223221 138.959594,168.586188 139.61808,167.763312 C141.320091,165.954925 143.101884,164.199727 144.724113,162.311558 C145.482039,161.420662 146.665469,159.9447 145.867651,158.76127 C145.45791,158.23175 145.013715,157.72981 144.537955,157.258714 C144.418283,157.125744 144.311907,156.992774 144.192234,156.873102 L143.500792,157.338495 C142.715685,157.827745 141.903245,158.271702 141.067449,158.668191 L140.774916,158.801161 C140.786582,158.887452 140.736872,158.970302 140.655243,159.000615 C139.158163,159.641799 137.869031,160.686917 136.932094,162.019025 C136.745937,162.284964 136.320434,162.019025 136.506591,161.766383 C137.351659,160.549476 138.478465,159.554967 139.79094,158.867646 C139.765389,158.775868 139.818911,158.680717 139.910613,158.654894 C141.308903,158.050558 142.644923,157.311294 143.899701,156.447599 L144.325204,156.155066 C146.491515,154.593735 148.379479,152.6788 149.909927,150.490561 L150.667854,149.333725 C150.136197,148.954946 149.629836,148.541861 149.152,148.097108 C148.267657,147.268331 147.4413,146.379775 146.678766,145.437716 C144.956888,143.431979 143.454639,141.247701 142.19769,138.922206 C141.705703,137.964825 141.253606,136.994147 140.867994,136.010172 C140.867994,135.917093 140.748322,135.677748 140.708431,135.584669 C140.66854,135.49159 140.243037,134.387942 140.189849,134.254973 C140.189849,134.507615 139.910613,134.74696 139.897316,134.986306 C139.79094,136.40908 139.897316,139.095066 139.578189,140.504544 C139.418626,141.368846 139.219171,142.233149 138.993123,143.084154 C138.913341,143.350093 138.846856,143.616033 138.767075,143.868675 L138.767075,143.868675 C137.580542,147.748484 135.65229,151.361133 133.089273,154.506243 C131.385456,156.595586 129.47422,158.506822 127.384877,160.210639" id="Path" fill="#F2C6A5" fill-rule="nonzero"></path>
                                        <path d="M8.86907232,91.292495 L8.975448,91.8376704 C9.72007776,92.0105309 11.289119,92.2099853 12.0470458,92.289767 C11.5284643,91.8775613 10.1588774,90.8138045 9.7067808,90.3351139 L9.7067808,90.3351139 C8.96215104,90.1888474 8.7759936,90.3351139 8.73610272,90.3351139 C8.69621184,90.3351139 8.73610272,90.9334771 8.86907232,91.1994163" id="Path" fill="#0065C1" fill-rule="nonzero"></path>
                                        <path d="M151.159841,126.968239 C150.734339,126.024155 150.561478,124.933804 150.189163,123.949829 L149.258376,124.534895 C148.068931,125.309486 146.919488,126.143831 145.814463,127.034724 C144.73741,127.952214 143.726841,128.949486 142.689678,129.89357 C142.276473,130.312396 141.831954,130.699128 141.359982,131.050405 C140.942919,131.292973 140.543064,131.563987 140.163255,131.86152 L140.163255,131.86152 C139.511704,132.47318 139.937207,133.52364 140.163255,134.241676 L140.163255,134.241676 C140.455788,135.079384 140.854697,135.863905 141.213715,136.661723 C142.247038,139.017542 143.545202,141.248064 145.083131,143.310203 C145.867651,144.347365 146.692063,145.357934 147.556365,146.328612 C148.39188,147.310014 149.32776,148.201327 150.348727,148.988004 L150.681151,149.240647 C150.808698,149.34124 150.941885,149.434471 151.08006,149.519883 C151.289363,149.655993 151.524934,149.746598 151.771501,149.785822 C152.205722,149.802101 152.626363,149.632878 152.928337,149.320428 C153.579888,148.761956 154.045282,147.990732 154.736724,147.525339 C155.880262,146.68763 156.997207,145.876516 158.07426,144.945729 C159.151314,144.014941 160.268259,142.991076 161.35861,142.020397 L163.778656,139.799805 C158.318462,136.942548 153.915375,132.413658 151.213029,126.87516 M156.132904,142.632058 C156.004507,143.619958 155.390722,144.47826 154.497378,144.919135 C153.407028,145.344637 152.47624,144.294178 152.250192,143.310203 C152.046264,142.151291 152.540614,140.980462 153.513403,140.318387 C153.951146,139.991763 154.506877,139.86612 155.042554,139.972666 C155.624817,140.182294 156.047414,140.691448 156.146201,141.302362 C156.186581,141.372301 156.186581,141.45847 156.146201,141.52841 C156.212752,141.879873 156.212752,142.240704 156.146201,142.592167" id="Shape" fill="#0275D8" fill-rule="nonzero"></path>
                                        <path d="M33.6546058,91.7179978 C33.23836,89.1066889 32.9675709,86.4742635 32.8434912,83.8329005 L32.7504125,83.979167 C32.3315951,84.7500495 31.7827866,85.4428078 31.1281834,86.0268989 L30.9819168,86.1598685 L30.9819168,86.1598685 L30.8223533,86.332729 L30.7292746,86.332729 C29.5850513,87.2993285 28.3414688,88.1417554 27.0194227,88.8458544 C23.6091752,90.7323501 19.8395047,91.8786562 15.956352,92.2099853 C14.8334635,92.3097833 13.7052724,92.3364335 12.5789242,92.289767 L11.8608883,92.289767 C10.873187,92.2186386 9.89141286,92.0809237 8.92226016,91.8775613 C9.66688992,95.6671949 10.650865,100.002004 11.5816522,103.751747 C14.8368397,104.736007 18.2923051,104.855161 21.60756,104.097468 C23.6265618,103.639433 25.5919634,102.970929 27.4715194,102.102924 C29.0833606,101.40001 30.6055471,100.507232 32.0057827,99.4435315 C32.98659,98.797609 33.7836313,97.9089539 34.3194538,96.8639213 C34.0934054,95.5342253 33.7875754,93.1008816 33.574824,91.7445917 M15.956352,100.706743 C15.587404,101.156225 15.0352964,101.415178 14.4537955,101.411521 C13.6648751,101.343169 12.9298783,100.982783 12.3927667,100.400913 C11.7526858,99.8162056 11.4271866,98.9630032 11.5151674,98.1005386 C11.6573762,97.2886807 12.0475724,96.5408046 12.632112,95.959728 C13.1311958,95.3957378 13.8057204,95.0163178 14.5468742,94.8826742 C15.2379767,94.7729999 15.923754,95.1079143 16.2621821,95.7203827 C16.3653919,95.9066415 16.450014,96.1026086 16.5148243,96.305449 C16.555204,96.3753886 16.555204,96.4615577 16.5148243,96.5314973 C16.5994486,96.707571 16.6705705,96.8898208 16.7275757,97.0766726 C17.1035421,98.3274472 16.8562381,99.6826733 16.0627277,100.72004" id="Shape" fill="#0275D8" fill-rule="nonzero"></path>
                                        <path d="M187.141415,115.333399 C186.900468,116.514813 186.390901,117.624941 185.652156,118.577857 C184.104238,120.723893 182.397433,122.750724 180.546123,124.641271 C178.618064,126.662409 176.557035,128.630359 174.469412,130.425448 C170.905827,133.603422 167.289054,136.71491 163.725468,139.892884 C163.087214,139.547163 162.475554,139.174848 161.863894,138.789236 C158.751109,136.814029 156.013771,134.301802 153.779342,131.369532 C152.677927,129.86794 151.74591,128.249174 151.000278,126.542736 C150.627963,125.731621 150.242351,124.893913 149.909927,124.029611 C150.229054,123.816859 150.534884,123.577514 150.827417,123.338169 C151.182944,123.123515 151.462029,122.802567 151.625235,122.420678 C151.664823,122.163071 151.627832,121.899509 151.518859,121.662752 C151.356406,121.234405 151.356406,120.761402 151.518859,120.333056 C151.984914,119.436961 153.040951,119.022495 153.992094,119.362378 C154.067322,119.382911 154.147817,119.367553 154.210202,119.320764 C154.272586,119.273976 154.309868,119.201001 154.311221,119.123032 C154.311221,118.365106 153.885718,117.155082 154.696833,116.689689 L154.843099,116.609907 C154.959621,116.570719 155.079964,116.543976 155.202117,116.530125 C155.709652,116.518356 156.212191,116.63257 156.664783,116.862549 C157.856421,117.402273 158.959312,118.1196 159.935835,118.990063 C160.17518,119.202814 160.534198,118.843796 160.294853,118.631045 C159.132006,117.580129 157.777646,116.762999 156.305765,116.224295 C155.826907,116.041609 155.306706,115.995574 154.803208,116.091325 C153.952203,114.961084 153.04801,113.897327 152.143816,112.83357 C150.574775,110.985293 149.072219,109.097124 147.582959,107.182362 C146.359639,105.626618 145.162912,104.030983 143.873107,102.528426 C142.80935,101.291809 141.732297,100.081786 140.681837,98.8451683 L140.508976,98.6457139 L140.269631,98.3664778 C139.378735,97.3426118 137.809693,95.8134614 137.304409,95.2682861 C126.959374,85.9604141 125.908914,75.4292218 132.437722,65.4432048 C132.583988,65.4432048 132.849927,65.030999 132.996194,64.9778112 C134.551938,64.3528541 135.881634,63.368879 137.384191,62.6242493 C138.122068,62.1990431 138.9531,61.9616054 139.804237,61.9328074 C140.468684,61.9885704 141.102124,62.2382472 141.625921,62.6508432 C142.834626,63.6386054 143.849138,64.8424937 144.617737,66.2011315 C144.976755,66.7596038 145.295882,67.3180762 145.628306,67.8898454 C145.622834,67.9206304 145.622834,67.9521392 145.628306,67.9829242 C145.935776,68.6859695 146.323997,69.3508551 146.785141,69.9641712 L146.87822,70.0838438 L146.87822,70.0838438 L146.87822,70.0838438 C148.017483,71.7154534 149.284688,73.253885 150.667854,74.684592 C152.489537,76.6126512 154.377706,78.4742256 156.225983,80.3889878 C160.321447,84.6307181 164.496692,88.7926666 168.552265,93.0742877 C170.573403,95.2018013 172.541353,97.3559088 174.575788,99.4701254 C176.610223,101.584342 178.564876,103.618777 180.532826,105.719697 C181.516801,106.783453 182.500776,107.860507 183.458157,108.950858 C184.341846,109.904901 185.17621,110.903475 185.957986,111.942674 C186.778078,112.902467 187.201307,114.138865 187.141415,115.399884" id="Path" fill="#0065C1" fill-rule="nonzero"></path>
                                        <path d="M154.816505,116.330671 C154.816505,116.330671 157.037098,115.758901 160.055508,118.69753" id="Path" stroke="#034F87" stroke-width="1.329696" stroke-linecap="round" stroke-linejoin="round"></path>
                                        <path d="M91.070879,77.7295958 C92.9567682,82.1652188 94.1194873,86.8744558 94.5147917,91.6781069 C94.5147917,92.0371248 94.5147917,92.4094397 94.5147917,92.7684576 C94.8871066,91.7047008 95.2860154,90.654241 95.7115181,89.6170781 C96.6024144,87.4363766 97.5464986,85.2423782 98.6235523,83.1414586 C99.1295113,81.9543356 99.7251654,80.8074792 100.405345,79.7108429 C97.961538,79.6467069 95.5393253,79.2347964 93.2116896,78.4875226" id="Path" fill="#EABF8F" fill-rule="nonzero"></path>
                                        <path d="M138.953232,110.466711 C138.953232,109.137015 139.139389,107.900398 139.298953,106.62389 C139.604783,104.137358 140.628649,100.626961 141.014261,98.1537264 C140.282928,97.302721 139.405329,96.8240304 138.740481,95.946431 C138.501135,95.640601 138.208602,95.8001645 137.995851,95.4411466 C137.995851,95.4411466 137.836287,95.3214739 137.836287,95.281583 C127.491252,85.973711 126.387605,75.336143 132.916412,65.3501261 C130.762305,66.1612406 127.863567,66.8526826 125.749351,67.4776397 C125.749351,67.4776397 123.542055,60.403657 122.265547,60.071233 C115.523988,58.1963616 95.6716272,58.9143974 94.8738096,60.8158627 C94.4881978,61.6136803 83.8373328,58.6617552 78.5318458,60.6031114 C76.8298349,61.2280685 75.4868419,68.8871174 75.460248,68.8871174 C73.6385645,68.2355664 69.8622278,68.5413965 68.0006534,68.049409 C66.6709574,67.716985 65.2215888,67.3313731 63.8652989,66.8792765 C62.7437743,66.4390693 61.6473325,65.9374583 60.5809498,65.37672 C60.3017136,65.2570474 60.0357744,65.1107808 59.7565382,65.0044051 C59.7542546,65.03095 59.7542546,65.057642 59.7565382,65.0841869 C61.0862342,65.6825501 62.4159302,66.3341011 62.8547299,66.5734464 C62.176585,70.5625344 58.0944182,75.2430643 57.1237402,82.649471 L57.1237402,82.649471 L57.1237402,82.649471 C57.1992806,82.6976949 57.2365006,82.7880864 57.2168189,82.8755194 C56.9508797,84.324888 56.831207,85.8141475 56.6849405,87.2502192 C56.3924074,90.0425808 56.1397651,92.8216454 55.9270138,95.614007 C55.5546989,100.201458 55.2488688,104.802206 55.0361174,109.416252 C55.0361174,109.748676 55.0361174,110.041209 55.0361174,110.360336 C54.9120125,112.931081 54.8189338,115.497395 54.7568813,118.059276 C54.6770995,121.157467 54.6505056,124.282253 54.7568813,127.367148 L54.7568813,127.606493 C54.7568813,127.832541 54.7568813,128.058589 54.7568813,128.284638 C54.7568813,128.510686 54.7568813,128.869704 54.7568813,129.162237 C54.7568813,131.529096 55.0494144,134.760257 55.3419475,137.140413 C56.9375827,138.9488 58.5465149,142.100179 60.3017136,143.788893 C62.6699261,145.764471 65.3356443,147.353131 68.2001078,148.496017 C71.4521214,150.051242 74.8750008,151.220466 78.3988762,151.97982 C78.5584397,151.97982 80.3003414,152.458511 80.4732019,152.485105 C83.3852362,153.096765 84.4622899,153.735019 87.4939968,153.894583 C91.5761635,154.120631 94.8339187,157.777295 98.8761946,157.298604 C99.049055,157.298604 102.333404,153.482377 102.492968,153.455783 C104.577605,153.272678 106.650618,152.975265 108.702648,152.564887 C109.713217,152.352135 110.936537,151.514427 111.947106,151.235191 C111.947106,151.235191 113.276802,150.570343 113.356584,150.570343 C113.489554,151.261785 122.052796,155.516812 122.451705,147.312588 C122.597971,147.312588 128.834245,145.663764 130.429881,144.214396 C132.025516,142.765027 139.205874,138.270655 139.657971,137.565916 C139.657971,136.994147 139.538298,125.931076 139.325547,123.032339 C138.966624,118.85405 138.842324,114.65892 138.953232,110.466711 L138.953232,110.466711 Z M125.855726,113.790951 L125.775945,114.442502 L125.230769,114.708442 L124.073934,115.213726 C122.664622,115.845481 121.194275,116.331141 119.685937,116.663095 C116.84986,117.332277 113.885169,117.217367 111.109398,116.330671 C110.619921,116.16325 110.140444,115.967908 109.673326,115.745604 C109.500466,115.665823 109.327605,115.559447 109.168042,115.466368 C109.008478,115.37329 109.168042,115.080756 109.168042,114.881302 C108.835626,109.745941 108.808985,104.595353 109.08826,99.4568285 C109.08826,99.297265 109.08826,99.1244045 109.08826,98.964841 L109.580247,99.0446227 C111.082804,99.3371558 112.611954,99.5897981 114.141105,99.7626586 L114.141105,99.7626586 C114.141105,98.1404294 114.24748,96.5049034 114.340559,94.8959712 C114.226952,94.6747936 114.226952,94.4124099 114.340559,94.1912323 C114.484293,93.9746988 114.709883,93.8259055 114.965516,93.7790266 C115.097729,93.7589676 115.232212,93.7589676 115.364425,93.7790266 C115.750581,93.7287211 116.13938,93.8502209 116.428182,94.1114506 C116.625814,94.2825851 116.717065,94.5461992 116.667527,94.8028925 C116.660134,94.8289726 116.660134,94.8565941 116.667527,94.8826742 C116.534557,96.5580912 116.441479,98.2601021 116.401588,99.962113 L116.574448,99.962113 C117.066436,99.962113 117.558423,99.962113 118.050411,99.962113 C118.020545,97.9005091 118.307561,95.8465516 118.901416,93.8721053 C118.774337,93.4810102 118.676556,93.0809955 118.608883,92.6753789 C118.441517,91.7411773 118.379077,90.7911975 118.422726,89.8431264 C118.213681,89.6722196 118.152693,89.3783683 118.276459,89.1383875 C118.591396,88.7056287 119.074135,88.4256399 119.606155,88.3671638 C119.99038,88.3209154 120.378766,88.3209154 120.762991,88.3671638 C121.494519,88.3405846 122.224698,88.4487593 122.917098,88.6862909 C123.407859,88.8313841 123.861452,89.08086 124.246794,89.4176237 L124.366467,89.6037811 C124.491804,89.6479017 124.561543,89.7815692 124.52603,89.9096112 L123.728213,92.9280211 L123.528758,93.6593539 C123.492142,93.8820427 123.420327,94.0974872 123.316007,94.297608 C123.287091,94.3506994 123.246097,94.3962482 123.196334,94.4305776 C123.439885,96.1076125 123.511174,97.8051694 123.409086,99.4967194 C124.223571,99.3111779 125.027069,99.0803385 125.815836,98.8052774 L126.32112,98.61912 C126.32112,98.7919805 126.32112,98.964841 126.32112,99.1509984 C126.637006,104.034596 126.481154,108.937277 125.855726,113.790951 L125.855726,113.790951 Z" id="Shape" fill="#0275D8" fill-rule="nonzero"></path>
                                        <path d="M125.855726,113.790951 L125.775945,114.442502 L125.230769,114.708442 L124.073934,115.213726 C122.664622,115.845481 121.194275,116.331141 119.685937,116.663095 C116.84986,117.332277 113.885169,117.217367 111.109398,116.330671 C110.619921,116.16325 110.140444,115.967908 109.673326,115.745604 C109.500466,115.665823 109.327605,115.559447 109.168042,115.466368 C109.008478,115.37329 109.168042,115.080756 109.168042,114.881302 C108.835626,109.745941 108.808985,104.595353 109.08826,99.4568285 C109.08826,99.297265 109.08826,99.1244045 109.08826,98.964841 L109.580247,99.0446227 C111.082804,99.3371558 112.611954,99.5897981 114.141105,99.7626586 L114.141105,99.7626586 C114.141105,98.1404294 114.24748,96.5049034 114.340559,94.8959712 C114.226952,94.6747936 114.226952,94.4124099 114.340559,94.1912323 C114.484293,93.9746988 114.709883,93.8259055 114.965516,93.7790266 C115.097729,93.7589676 115.232212,93.7589676 115.364425,93.7790266 C115.750581,93.7287211 116.13938,93.8502209 116.428182,94.1114506 C116.625814,94.2825851 116.717065,94.5461992 116.667527,94.8028925 C116.660134,94.8289726 116.660134,94.8565941 116.667527,94.8826742 C116.534557,96.5580912 116.441479,98.2601021 116.401588,99.962113 L116.574448,99.962113 C117.066436,99.962113 117.558423,99.962113 118.050411,99.962113 C118.020545,97.9005091 118.307561,95.8465516 118.901416,93.8721053 C118.774337,93.4810102 118.676556,93.0809955 118.608883,92.6753789 C118.441517,91.7411773 118.379077,90.7911975 118.422726,89.8431264 C118.213681,89.6722196 118.152693,89.3783683 118.276459,89.1383875 C118.591396,88.7056287 119.074135,88.4256399 119.606155,88.3671638 C119.99038,88.3209154 120.378766,88.3209154 120.762991,88.3671638 C121.494519,88.3405846 122.224698,88.4487593 122.917098,88.6862909 C123.407859,88.8313841 123.861452,89.08086 124.246794,89.4176237 L124.366467,89.6037811 C124.491804,89.6479017 124.561543,89.7815692 124.52603,89.9096112 L123.728213,92.9280211 L123.528758,93.6593539 C123.492142,93.8820427 123.420327,94.0974872 123.316007,94.297608 C123.287091,94.3506994 123.246097,94.3962482 123.196334,94.4305776 C123.439885,96.1076125 123.511174,97.8051694 123.409086,99.4967194 C124.223571,99.3111779 125.027069,99.0803385 125.815836,98.8052774 L126.32112,98.61912 C126.32112,98.7919805 126.32112,98.964841 126.32112,99.1509984 C126.637006,104.034596 126.481154,108.937277 125.855726,113.790951 L125.855726,113.790951 Z" id="Path" fill="#0275D8" fill-rule="nonzero"></path>
                                        <path d="M54.8233661,109.828457 C54.6372086,113.126103 54.517536,116.397156 54.504239,119.575129 C54.517536,116.330671 54.6638026,113.072916 54.8233661,109.828457 Z" id="Path" fill="#0275D8" fill-rule="nonzero"></path>
                                        <path d="M63.0807782,66.5468525 C62.4026333,70.5359405 58.3204666,75.2297674 57.3497885,82.6361741 L57.3497885,82.6361741 C58.3204666,75.2829552 59.3177386,69.033384 60.0091805,65.057593 L63.1073722,66.5468525" id="Path" fill="#0275D8" fill-rule="nonzero"></path>
                                        <path d="M9.38765376,68.1291907 C9.5073264,68.3419421 9.61370208,68.5546934 9.72007776,68.7807418 C10.0525018,69.4854806 10.3317379,70.2301104 10.624271,70.9348493" id="Path" stroke="#CEA676" stroke-width="0.6" stroke-linecap="round" stroke-linejoin="round"></path>
                                        <path d="M12.0603427,60.4834387 L12.0603427,60.4834387 C12.299688,60.8823475 12.5390333,61.2679594 12.7650816,61.6668682 L12.7650816,61.6668682 L12.964536,62.0258861 C13.94221,63.6320171 14.6981258,65.3630195 15.2117222,67.1718096" id="Path" stroke="#CEA676" stroke-width="0.6" stroke-linecap="round" stroke-linejoin="round"></path>
                                        <path d="M17.286048,55.1646547 C17.605175,55.8295027 17.8844112,56.4943507 18.1503504,57.2123866 L18.1503504,57.2123866 C19.0811376,59.6324333 19.7592826,62.1588557 20.623585,64.5921994" id="Path" stroke="#CEA676" stroke-width="0.6" stroke-linecap="round" stroke-linejoin="round"></path>
                                        <path d="M5.93044416,70.5625344 C6.36135685,71.3918613 6.63628907,72.2932784 6.74155872,73.2219264 C6.92376251,74.2634351 6.89209358,75.3311304 6.64848,76.360009 C6.60854456,76.5211471 6.55055771,76.6772655 6.47561952,76.8254026 L6.47561952,76.8254026 C6.50188534,76.8800294 6.50188534,76.9436362 6.47561952,76.998263" id="Path" stroke="#CEA676" stroke-width="0.6" stroke-linecap="round" stroke-linejoin="round"></path>
                                        <path d="M43.21512,126.316688 C43.21512,126.316688 42.0981754,118.910281 37.7899603,119.016657" id="Path" stroke="#034F87" stroke-width="0.664848" stroke-linecap="round" stroke-linejoin="round"></path>
                                        <path d="M38.8271232,123.697187 C36.6730157,117.766742 35.2635379,103.538995 35.2635379,103.538995" id="Path" stroke="#034F87" stroke-width="0.664848" stroke-linecap="round" stroke-linejoin="round"></path>
                                        <path d="M126.161556,103.937904 C126.161255,107.308991 125.934698,110.676256 125.483412,114.017 L125.483412,114.017 C124.725485,114.389315 123.954261,114.748332 123.16974,115.054163 C118.92801,116.72958 113.861868,117.181676 109.87278,115.054163 C109.524874,109.857439 109.489351,104.644513 109.766405,99.4435315 C111.282258,99.7227677 112.811409,99.9754099 114.353856,100.14827 C114.353856,101.118948 114.353856,102.07633 114.353856,103.033711 C114.353856,103.445916 114.353856,103.977795 114.779359,104.203843 C114.921767,104.291501 115.094878,104.314032 115.254979,104.265748 C115.415081,104.217463 115.54687,104.102978 115.617067,103.951201 C115.663754,103.696246 115.663754,103.434932 115.617067,103.179977 C115.617067,102.807662 115.617067,102.435348 115.617067,102.049736 L115.617067,100.28124 L115.617067,100.28124 L116.694121,100.361022 C117.190541,100.361022 117.682528,100.361022 118.170084,100.361022 L118.675368,100.361022 C120.129487,100.361417 121.580552,100.227884 123.010177,99.962113 L123.515461,99.8557373 C124.355596,99.6799908 125.182109,99.444479 125.988696,99.1509984 C126.081775,100.72004 126.134963,102.289081 126.134963,103.858122" id="Path" fill="#0065C1" fill-rule="nonzero"></path>
                                        <path d="M123.834588,90.7739136 C123.834588,90.7739136 123.595243,90.8935862 123.555352,90.9068832 C123.379161,90.9714198 123.196296,91.0160209 123.010177,91.0398528 C122.175411,91.1391547 121.331817,91.1391547 120.497052,91.0398528 C120.079778,91.010994 119.668299,90.9260147 119.273731,90.7872106 C119.139363,90.7554865 119.009725,90.7063134 118.888119,90.640944 C118.888119,90.5345683 118.888119,90.4281926 118.888119,90.321817 C118.895669,90.2867602 118.895669,90.250498 118.888119,90.2154413 L119.047683,90.1223626 C119.208291,90.0408547 119.377868,89.9783792 119.552967,89.9362051 C119.613193,89.9574982 119.678899,89.9574982 119.739125,89.9362051 C120.059272,89.8745352 120.383898,89.8389598 120.709803,89.8298294 L121.254978,89.8298294 L121.361354,89.8298294 C122.179878,89.9216261 122.966651,90.1990431 123.661728,90.640944 C123.661728,90.640944 123.874479,90.7340227 123.861182,90.8005075" id="Path" fill="#822E82" fill-rule="nonzero"></path>
                                        <path d="M123.927667,90.7074288 L123.209631,93.4731965 C123.12985,93.7391357 123.076662,94.0316688 122.983583,94.297608 C122.890504,94.5635472 122.597971,94.6566259 122.358626,94.7497046 C121.904783,94.9225002 121.42125,95.0038422 120.935851,94.9890499 C120.463219,95.0193671 119.994323,94.8880764 119.606155,94.616735 C119.537602,94.5333198 119.483653,94.4389092 119.446592,94.3374989 C119.479846,94.2799016 119.479846,94.2089388 119.446592,94.1513414 C119.452615,94.0672351 119.452615,93.9828056 119.446592,93.8986992 C119.446592,93.63276 119.313622,93.3535238 119.260434,93.0742877 C119.114867,92.2581701 119.048075,91.4299508 119.06098,90.6010531 C119.570769,90.7859261 120.102879,90.9021854 120.643318,90.9467741 C121.236779,90.9801842 121.83165,90.9801842 122.425111,90.9467741 C122.949488,90.960687 123.472056,90.879599 123.967558,90.7074288 L124.073934,90.7074288" id="Path" fill="#A546A0" fill-rule="nonzero"></path>
                                        <path d="M123.076662,99.5366102 C121.634396,99.811141 120.170098,99.9535651 118.701962,99.962113 C118.687982,98.1098488 118.915958,96.26369 119.380107,94.4704685 C119.540034,94.6235021 119.73029,94.7412795 119.938579,94.8161894 C120.750333,95.0840263 121.626654,95.0840263 122.438408,94.8161894 C122.596178,94.7710365 122.751516,94.7177779 122.903801,94.6566259 C123.127638,96.2731404 123.185559,97.9083095 123.076662,99.5366102" id="Path" fill="#FFFFFF" fill-rule="nonzero"></path>
                                        <path d="M116.295212,95.2283952 C116.17554,96.7708426 116.095758,98.3265869 116.055867,99.8690342 L115.550582,99.8690342 L115.550582,99.8690342 C115.475862,99.8288455 115.385958,99.8288455 115.311237,99.8690342 C115.311237,99.8690342 115.311237,99.8690342 115.311237,99.8690342 L115.311237,99.8690342 L115.191564,100.813118 C115.191564,101.664124 115.191564,102.501832 115.191564,103.366135 C115.191564,103.445916 115.191564,103.685262 115.191564,103.765044 C115.191564,103.844825 114.965516,103.765044 114.912328,103.632074 C114.872357,103.385473 114.872357,103.134045 114.912328,102.887444 C114.912328,102.342269 114.912328,101.797093 114.912328,101.251918 C114.912328,100.985979 114.912328,100.72004 114.912328,100.4541 L114.912328,99.2307802 L114.912328,99.2307802 C114.912328,97.9010842 115.005407,96.5713882 115.085189,95.2416922 L115.085189,95.2416922 C115.30394,95.3126393 115.533557,95.3441553 115.763334,95.3347709 C115.974715,95.3298802 116.184659,95.2986121 116.388291,95.2416922" id="Path" stroke="#95C121" stroke-width="0.664848" fill="#95C11F" fill-rule="nonzero" stroke-linecap="round" stroke-linejoin="round"></path>
                                        <ellipse id="Oval" fill="#84A51C" fill-rule="nonzero" cx="115.617067" cy="95.0688317" rx="1.01056896" ry="1"></ellipse>
                                        <path d="M42.3641146,256.08172 C43.1810123,256.961686 44.070625,257.771234 45.0235066,258.501767 L45.4091184,258.7943 C47.3294108,260.222896 49.5254487,261.237149 51.858144,261.772819 C55.2507896,262.463628 58.7584839,262.345186 62.0968032,261.427098 L62.6020877,261.294129 L62.7616512,261.294129 C63.2403418,261.161159 63.7057354,261.028189 64.171129,260.868626 C65.500825,255.789187 66.830521,249.965119 67.9740595,244.912274 C69.5032099,238.449951 70.9791725,231.615314 72.4285411,225.152991 C73.8779098,218.690669 75.2341997,212.215049 76.6968653,205.766024 C78.11964,199.516452 79.8216509,193.346663 81.6699283,187.216764 C82.5874186,184.171761 83.5049088,181.140054 84.5021808,178.121644 C84.9941683,176.645681 85.4994528,175.169719 86.0047373,173.693756 C86.0047373,173.693756 86.9754154,170.52908 87.0551971,170.52908 L87.0551971,170.52908 L88.7173171,170.662049 L88.9300685,170.662049 C90.9113155,170.755128 93.9164285,170.981176 95.9109725,171.00777 L97.4667168,171.00777 C98.2778314,171.00777 99.0889459,171.00777 99.9000605,170.901395 C101.229756,170.821613 102.426483,170.715237 103.676397,170.555674 L104.181682,170.489189 C104.181682,170.662049 104.181682,170.821613 104.181682,170.994473 C103.640939,181.241997 103.100196,191.489521 102.559452,201.737045 C101.841417,215.752041 101.114516,229.758172 100.378751,243.755438 C100.072921,249.69918 99.740497,256.227987 99.408073,262.171728 C100.328214,262.732663 101.283089,263.234528 102.266919,263.674284 L102.732313,263.887036 C103.690196,264.287577 104.67155,264.629496 105.670941,264.910902 C109.380898,265.925438 113.307626,265.823685 116.96006,264.618369 C117.465345,264.445508 117.944035,264.259351 118.436023,264.059896 L118.888119,263.860442 C119.473186,263.594503 120.031658,263.315267 120.59013,262.99614 C120.191221,249.845446 119.53967,236.109686 119.260434,222.945696 C118.914713,208.505197 119.419998,194.038105 119.127465,179.584309 C119.047683,175.320418 118.883687,171.052093 118.635477,166.779337 L118.635477,166.234162 L119.114168,165.981519 C121.543491,164.667082 123.860547,163.154992 126.041884,161.460553 C126.529439,161.088238 127.021427,160.702626 127.517846,160.303717 L127.903458,159.98459 C129.495134,158.663452 130.988353,157.228007 132.371237,155.689672 C135.38968,152.049483 137.674508,147.859127 139.099499,143.350093 C137.490566,144.440444 135.110411,144.679789 133.421697,145.570686 C126.905759,149.036865 119.969418,151.646931 112.784815,153.33611 C109.327605,154.227007 96.0306451,154.665806 92.8393747,154.665806 C86.5061637,154.025681 80.2630504,152.687871 74.2236307,150.676718 C65.6470915,147.791278 57.9481517,143.576142 57.0838493,142.618761 C58.4127218,146.503031 59.9939967,150.296314 61.817567,153.974364 C62.8037261,156.012435 63.9790136,157.95344 65.3279645,159.771839 C66.4959328,161.458845 67.8325111,163.022641 69.3170525,164.439072 C70.1422971,165.158318 71.032588,165.799327 71.9764445,166.353834 L71.9764445,166.353834 L72.2157898,166.500101 L72.4418381,166.63307 L72.2822746,167.098464 C72.2822746,167.271324 72.1626019,167.457482 72.136008,167.537264 C70.7132333,171.659321 68.14692,178.972649 66.817224,183.147895 C65.819952,186.352462 64.8891648,189.583623 64.0780502,192.854676 C63.2669357,196.125728 62.3760394,199.503156 61.4186582,202.800802 C59.4773021,209.316312 57.2567098,215.738744 55.3419475,222.254254 C54.3579725,225.644979 53.3739974,229.022407 52.2304589,232.346647 C51.193296,235.391651 50.1561331,238.742484 49.0391885,241.747597 C48.1615891,244.087862 47.204208,246.388236 46.193639,248.662017 C45.103833,251.121024 43.8877577,253.522107 42.550272,255.855672" id="Path" fill="#AA7949" fill-rule="nonzero"></path>
                                        <path d="M100.378751,151.913336 C100.64469,153.655237 101.349429,155.370545 101.575477,157.112447 C104.022118,156.806617 106.894261,156.314629 109.354199,155.782751 C116.466365,154.22936 123.367589,151.832234 129.911299,148.642284 C132.05211,147.591824 134.179623,146.448285 136.253949,145.238262 C137.171174,144.720487 138.058999,144.152279 138.913341,143.536251 C139.072905,142.995508 139.219171,142.437036 139.352141,141.860834 C139.591823,140.276475 139.711835,138.676314 139.711162,137.073928 C139.236449,137.633932 138.691165,138.130051 138.08893,138.549891 C136.479997,139.653539 134.751393,140.544435 133.049382,141.488519 C129.965358,143.191177 126.776566,144.696748 123.502164,145.996188 L123.036771,146.182346 C120.377379,147.219509 117.717987,148.132567 115.058595,148.92152 L114.579904,149.067786 L113.689008,149.320428 L113.19702,149.453398 L112.093373,149.745931 C108.520972,150.675333 104.89219,151.372663 101.229756,151.833554" id="Path" fill="#5B3818" fill-rule="nonzero"></path>
                                        <path d="M55.7009654,137.087225 C55.860529,138.164279 56.0599834,139.228036 56.3259226,140.291793 C56.5918618,141.355549 56.8046131,142.100179 57.0838493,142.951185 C58.4135453,144.400553 59.7432413,145.823328 61.152719,147.153024 C63.5642232,149.422766 66.3084928,151.310572 69.2904586,152.751044 C72.649085,154.326058 76.1660615,155.538501 79.78176,156.367817 C79.6019994,154.600916 79.5531106,152.823143 79.6354934,151.049033 C76.6833777,150.484731 73.7834579,149.675244 70.9658755,148.628987 C67.8262883,147.378728 64.8838475,145.681338 62.2297728,143.589439 C59.8755719,141.622845 57.6915516,139.461065 55.7009654,137.127116" id="Path" fill="#5B3818" fill-rule="nonzero"></path>
                                        <path d="M79.78176,156.367817 C82.8470577,157.019278 85.9596548,157.423915 89.089632,157.577841 C93.2792639,157.795299 97.479936,157.639553 101.641962,157.112447 C101.429211,155.370545 101.043599,153.64194 100.790957,151.886742 C97.7030591,152.263498 94.5937231,152.436732 91.4830848,152.405323 C87.5163231,152.390736 83.5608847,151.980938 79.6753843,151.182003 C79.5996138,152.913514 79.6707858,154.648332 79.8881357,156.367817" id="Path" fill="#C0C99F" fill-rule="nonzero"></path>
                                        <line x1="74.5693517" y1="169.91742" x2="49.544473" y2="254.964776" id="Path" stroke="#5B3818" stroke-width="0.6" stroke-linecap="round" stroke-linejoin="round"></line>
                                        <line x1="114.952219" y1="261.985571" x2="114.540013" y2="169.91742" id="Path" stroke="#5B3818" stroke-width="0.6" stroke-linecap="round" stroke-linejoin="round"></line>
                                        <path d="M108.450006,137.499431 C108.308895,137.604609 108.217477,137.763387 108.197364,137.938231 C108.197364,138.0712 108.742539,138.37703 108.902102,138.51 C109.899374,141.009828 113.609226,146.607849 114.313965,149.014598 C113.740563,149.301887 113.139004,149.529143 112.518876,149.692743 C111.814137,149.586368 111.694464,148.243375 111.322149,147.658308 C111.162586,147.379072 110.976428,147.113133 110.830162,146.833897 C110.664212,146.447809 110.582611,146.030738 110.590816,145.610577 C110.590816,145.078698 109.979156,144.573414 109.633435,144.214396 C109.364159,143.991893 109.123033,143.737371 108.915399,143.456469 C108.729242,143.137342 108.822321,142.871403 108.835618,142.525682 C108.794406,141.902996 108.535527,141.314635 108.104285,140.863562 C107.862488,140.584794 107.681355,140.258754 107.572406,139.906181 C107.492625,139.533866 107.692079,139.267927 107.73197,138.908909 C107.838346,138.257358 107.200092,137.791964 107.093716,137.180304 C106.934152,136.196329 108.21066,136.222923 108.835618,136.276111 C108.913586,136.274758 108.986561,136.237476 109.03335,136.175092 C109.080138,136.112707 109.095496,136.032212 109.074963,135.956984 C109.074963,135.863905 108.809024,135.371917 108.848915,135.278839 C108.888805,135.18576 109.39409,135.0129 109.540356,134.959712 C109.995244,134.797458 110.439369,134.606484 110.870052,134.387942 C111.000659,134.330363 111.105007,134.226016 111.162586,134.095409 C111.162586,133.949143 111.162586,133.856064 111.162586,133.723094 C111.162586,133.590125 111.441822,133.457155 111.5349,133.443858 C111.698633,133.430703 111.863156,133.430703 112.026888,133.443858 C112.27036,133.488736 112.510316,133.550946 112.744924,133.630016 C112.970972,133.630016 112.904487,132.858792 113.356584,132.978465 C113.449663,132.978465 113.569335,133.138028 113.662414,133.177919 L114.260777,133.403967 C114.407044,133.403967 114.779359,133.762985 114.925625,133.82947 C114.925625,133.82947 114.526716,133.82947 114.460232,133.909252 C113.38147,134.298141 112.343712,134.792523 111.36204,135.385214 C110.334391,135.986552 109.364078,136.680904 108.463303,137.45954" id="Path" fill="#C0C99F" fill-rule="nonzero"></path>
                                        <path d="M116.880278,134.667179 C114.460232,135.996875 112.040185,137.326571 109.726514,138.775939 C109.473872,138.64297 108.715945,138.20417 108.4766,138.044606 L108.250551,137.89834 L108.250551,137.818558 C108.250551,137.818558 108.250551,137.911637 108.250551,137.885043 L108.396818,137.605807 L108.941993,137.140413 C109.704752,136.515166 110.508828,135.942095 111.348743,135.425105 C112.200723,134.91602 113.089679,134.471542 114.008135,134.095409 C114.222235,133.996118 114.444723,133.916022 114.672983,133.856064 C115.005353,133.830817 115.33687,133.914863 115.617067,134.095409 L116.361697,134.44113" id="Path" fill="#706135" fill-rule="nonzero"></path>
                                        <path d="M122.956989,146.195643 C120.297597,147.232806 117.638205,148.145864 114.978813,148.934817 C113.409772,145.783437 111.747652,142.671948 110.019047,139.626945 C110.019047,139.626945 109.620138,138.64297 109.606841,138.629673 C111.933809,137.180304 114.486826,135.970281 116.920169,134.640585 C116.920169,134.640585 121.042227,142.499088 122.99688,146.169049" id="Path" fill="#8C7C49" fill-rule="nonzero"></path>
                                        <polygon id="Path" fill="#706135" fill-rule="nonzero" points="109.726514 138.775939 114.81925 148.48272 115.058595 148.92152 113.542741 149.360319 108.144176 137.885043 108.303739 137.645698"></polygon>
                                        <path d="M126.693435,70.695504 C126.711708,70.7876859 126.711708,70.8825583 126.693435,70.9747402 C125.914853,72.5980622 125.026322,74.1663196 124.034043,75.668567 C122.689848,77.6386482 121.233651,79.5299286 119.67264,81.333072 C119.114168,81.984623 118.568992,82.662768 118.023817,83.3010221 C117.279187,84.2052154 116.534557,85.0961117 115.763334,85.9604141 C113.878478,88.2614812 111.711815,90.316461 109.314308,92.0770157 C109.133558,92.1978598 108.90514,92.2226878 108.702648,92.1435005 C108.497266,92.0727649 108.341959,91.9024287 108.290442,91.6914038 C107.990549,90.549992 107.61292,89.4304336 107.160201,88.3405699 C106.60811,86.7848194 105.828409,85.3195199 104.84653,83.992464 C104.560567,83.5827437 104.170378,83.2568212 103.716288,83.0483798 C103.262102,82.911528 102.770041,82.9951784 102.386592,83.2744282 C100.867887,84.3511327 99.6723982,85.8225031 98.9293824,87.5294554 C98.078377,89.1250906 97.3603411,90.8536954 96.6688992,92.5158154 C96.2832874,93.4598995 95.8843786,94.4039837 95.4721728,95.3347709 C95.1065083,95.7698415 94.6534842,96.1232003 94.1424768,96.3719338 C94.1424768,96.3719338 94.1424768,96.3719338 94.1424768,96.3719338 C94.0442962,96.6502265 93.7858423,96.840111 93.4909258,96.8506243 L93.4909258,96.8506243 C92.8260778,96.8506243 92.746296,96.8506243 91.5628666,89.2447632 L91.4697878,88.6862909 C91.2968202,87.561035 91.0254069,86.4531349 90.6586733,85.3753478 C90.2715459,83.9711961 89.5455517,82.6835836 88.5444566,81.6256051 C87.5647375,80.9274234 86.2180708,81.0700788 85.4063741,81.9580291 C84.1840275,83.060665 83.2251727,84.4239657 82.6007155,85.9471171 C82.2304697,86.8143371 81.9108065,87.7022906 81.6433344,88.6065091 C81.5674814,88.8598201 81.3487272,89.0441011 81.0862139,89.0758334 C80.8237007,89.1075658 80.5673373,88.9807166 80.433311,88.7527757 C79.8881357,87.8485824 79.3163664,86.8646074 78.7578941,85.8141475 C76.0573885,80.7867086 74.3423566,75.2895799 73.7050493,69.6184502 L73.5587827,68.0760029 L73.5587827,67.5042336 C73.6334059,66.4773185 73.7710673,65.4559599 73.9709885,64.4459328 C74.1153517,63.5290382 74.3790984,62.6349814 74.7555091,61.7865408 C75.5875293,60.4021926 77.1354813,59.6127371 78.7445971,59.7521059 C78.9331825,59.7468739 79.1157168,59.8189269 79.2498816,59.9515603 C79.3799711,60.0873697 79.4515867,60.2687959 79.449336,60.4568448 C79.1969983,63.5892879 79.8378679,66.7290875 81.2976134,69.5120746 C83.4369115,73.081196 86.7156937,75.8260051 90.6054854,77.3040931 L90.6054854,77.3040931 C90.7671328,77.372761 90.8958355,77.5014637 90.9645034,77.663111 L91.3235213,78.5540074 C92.4756386,81.4149873 93.3657527,84.3746166 93.9829133,87.3964858 C94.157697,88.8838173 94.246491,90.379997 94.2488525,91.8775613 C94.6610582,90.7340227 95.1131549,89.6037811 95.5785485,88.4602426 L95.6583302,88.2474912 C96.4428509,86.4391046 97.2406685,84.5642333 98.1714557,82.7824406 C98.7129688,81.7352463 99.340058,80.734572 100.046327,79.7906246 C100.189225,79.6497064 100.377966,79.5647731 100.578205,79.5512794 C101.203163,79.5512794 101.82812,79.5512794 102.43978,79.5512794 C104.9445,79.4258575 107.411184,78.8866916 109.739811,77.9556442 C114.46419,76.1394834 118.28495,72.5384168 120.377379,67.9297363 C121.418035,65.4536214 121.829186,62.7582997 121.574105,60.0845299 C121.55636,59.8660766 121.647419,59.6529123 121.817522,59.5147036 C121.987625,59.3764948 122.214916,59.3310001 122.425111,59.393088 L122.717644,59.4728698 L123.369195,59.6723242 C124.418136,59.9767752 125.32658,60.6404573 125.935508,61.5471955 C126.502308,62.6881292 126.754751,63.9595231 126.666841,65.2304534 C126.666841,65.7490349 126.666841,66.2809133 126.666841,66.8127917 C126.679023,66.8742463 126.679023,66.9374945 126.666841,66.9989491 C126.680813,67.0691781 126.680813,67.1414715 126.666841,67.2117005 L126.666841,67.690391 C126.680138,68.7408509 126.693435,69.711529 126.693435,70.695504 Z" id="Path" fill="#0065C1" fill-rule="nonzero"></path>
                                        <path d="M103.516834,77.8093776 L102.386592,79.6310611 C101.774932,79.6310611 101.149975,79.6310611 100.525018,79.6310611 C100.324778,79.6445549 100.136038,79.7294882 99.9931392,79.8704064 C99.2868702,80.8143537 98.6597809,81.8150281 98.1182678,82.8622224 C97.1874806,84.644015 96.389663,86.5188864 95.6051424,88.327273 L95.5253606,88.5400243 C95.0333731,89.6835629 94.5812765,90.8138045 94.1956646,91.957343 C94.1933032,90.4597788 94.1045091,88.963599 93.9297254,87.4762675 C93.3125649,84.4543984 92.4224508,81.494769 91.2703334,78.6337891 L90.9113155,77.7428928 C90.8426476,77.5812454 90.713945,77.4525428 90.5522976,77.3838749 L90.5522976,77.3838749 L90.5522976,77.0780448 L103.516834,77.8093776 Z" id="Path" fill="#F2C6A5" fill-rule="nonzero"></path>
                                        <path d="M69.3436464,16.2843437 C69.3363056,16.3149357 69.3363056,16.3468304 69.3436464,16.3774224 C69.3233829,16.5274401 69.3233829,16.6795013 69.3436464,16.829519 C69.6604836,17.855891 70.2060556,18.7970027 70.9392816,19.5819898 C72.2269406,21.1447731 73.6853778,22.5586098 75.2873875,23.7971261 C76.5107078,24.7545072 77.787216,25.6321066 79.0903181,26.4565181 C79.2135359,27.1720725 79.2448155,27.900439 79.1833968,28.6239226 L79.1833968,29.1159101 C79.1833968,29.3286614 79.1833968,29.5547098 79.1833968,29.7674611 L79.1833968,30.6317635 C79.1833968,31.4295811 79.1833968,32.2273987 79.1833968,33.0252163 C79.2277635,34.3611521 79.352091,35.6932323 79.5557117,37.0143043 C80.5928746,38.1578429 82.2151037,48.6757382 81.7497101,50.1517008 C81.7570509,50.1822928 81.7570509,50.2141875 81.7497101,50.2447795 C80.6811406,53.4474996 79.86313,56.7284332 79.3030694,60.057936 C79.3030694,60.2440934 79.3030694,60.4302509 79.3030694,60.6164083 C79.3030694,60.8025658 79.3030694,61.0153171 79.3030694,61.2280685 C79.3030694,61.6624358 79.3030694,62.1056678 79.3030694,62.5577645 L79.3030694,63.2226125 C79.4025086,64.813587 79.7340056,66.3814779 80.2870445,67.8765485 C82.1275348,72.2658087 85.6607314,75.7270949 90.086904,77.4769536 L90.751752,77.7561898 L90.9910973,77.8625654 C94.0736527,79.0765834 97.3459259,79.7382397 100.657987,79.8175348 L101.296241,79.8175348 C103.544072,79.8189241 105.781368,79.5101772 107.944721,78.8997283 C112.941369,77.5540488 117.227357,74.3347952 119.911985,69.9109834 C121.112673,67.8331809 121.847656,65.5193453 122.066093,63.1295338 C122.066093,62.7971098 122.066093,62.4513888 122.066093,62.1189648 C122.066093,61.7865408 122.066093,61.5073046 122.066093,61.2014746 C122.072727,61.0863297 122.072727,60.9708984 122.066093,60.8557536 C122.066093,60.5366266 122.066093,60.2307965 122.066093,59.9116694 C122.066093,59.5925424 122.066093,59.5526515 122.066093,59.379791 C121.83989,57.7971946 121.359439,56.2615487 120.643318,54.8322307 C120.523645,54.5928854 120.390676,54.3535402 120.257706,54.1141949 C120.192609,54.0971611 120.14177,54.0463229 120.124737,53.9812253 C120.124737,53.9812253 120.124737,53.8748496 120.124737,53.8216618 L120.124737,53.6222074 C120.040492,53.5618586 119.998976,53.4580689 120.018361,53.3562682 C120.018361,53.3562682 119.938579,53.090329 119.911985,52.9573594 C119.686337,52.1309489 119.539415,51.2850358 119.473186,50.430937 C119.473186,50.1384038 119.473186,49.8591677 119.473186,49.5799315 C119.473186,49.3006954 119.473186,48.9283805 119.473186,48.6092534 C119.5256,47.3198584 119.740035,46.0421811 120.11144,44.8063229 C120.10389,44.7712662 120.10389,44.7350039 120.11144,44.6999472 C120.112729,44.6778044 120.112729,44.6556052 120.11144,44.6334624 C120.231112,44.3542262 120.350785,44.0616931 120.483755,43.782457 C121.388976,41.8527319 122.668007,40.1217461 124.246794,38.6897213 C125.073206,38.0079618 126.130063,37.6699579 127.198719,37.7456371 C127.198719,37.7456371 127.198719,37.2536496 127.198719,37.2403526 C127.191227,37.191885 127.191227,37.1425537 127.198719,37.0940861 C127.545634,35.4892522 127.741511,33.8554592 127.783786,32.2141018 C127.783786,31.6423325 127.783786,31.0572662 127.783786,30.485497 C127.734519,29.4024028 127.619063,28.3233351 127.438065,27.2543357 C127.276255,25.8170143 126.881019,24.4157223 126.267932,23.1056842 C125.977597,22.5321703 125.51175,22.0663231 124.938236,21.7759882 C124.154203,21.3001219 123.199083,21.1977877 122.332032,21.496752 C120.96273,22.1453773 119.768281,23.1118775 118.848228,24.3157075 C118.789721,24.3756732 118.704118,24.4006819 118.62253,24.3816447 C118.540941,24.3626075 118.475246,24.3022958 118.44932,24.2226288 C118.386136,24.1773672 118.354999,24.099525 118.369538,24.0231744 C118.545793,23.3889806 118.657173,22.7385234 118.701962,22.0818182 C118.701962,22.0020365 118.701962,21.8956608 118.701962,21.8025821 C118.701962,21.7095034 118.701962,21.6031277 118.701962,21.496752 C118.701962,21.3903763 118.701962,20.9382797 118.701962,20.6590435 C118.701962,20.3798074 118.701962,20.3266195 118.701962,20.153759 C118.479573,17.648589 117.393821,15.2984761 115.630364,13.505279 C112.838003,10.6597296 108.795727,9.25025184 104.992796,8.18649504 C100.854123,6.98785993 96.575593,6.33959786 92.2676054,6.25843584 C90.116735,6.17609687 87.9628172,6.28735295 85.8318768,6.59085984 C84.8083165,6.73922678 83.8047204,7.00239198 82.8400608,7.37538048 C82.0555402,7.68121056 80.9385955,8.17319808 80.7125472,9.09068832 C80.70707,9.17925011 80.70707,9.26806573 80.7125472,9.35662752 C80.7125472,10.3140086 81.9092736,11.0320445 82.5874186,11.524032 C82.8932486,11.7367834 83.1990787,11.9628317 83.5182058,12.1622861 C83.5182058,12.1622861 83.6112845,12.3484435 83.6777693,12.3484435 C83.8243703,12.3545168 83.9437924,12.4682521 83.9570054,12.6143827 C84.4755869,12.9468067 82.6578932,10.5682246 83.1897716,10.8607577 C85.0922379,11.9963401 79.1401606,12.4935574 76.9229136,12.5877888 C75.8040587,12.6605417 74.6925972,12.8205922 73.5986736,13.0664794 C72.5245397,13.2512511 71.4955536,13.6393774 70.5669667,14.2100179 C69.8357937,14.6552797 69.3465747,15.408677 69.2372707,16.2577498 C69.2372707,16.2577498 69.2372707,16.3774224 69.2372707,16.4306102 M117.518532,48.3433142 C117.234692,49.5508579 116.787329,50.7140001 116.188836,51.8005238 L116.188836,51.8005238 C115.499805,52.9647493 114.597607,53.9887438 113.529444,54.8189338 C111.922603,56.1268938 109.985047,56.9645072 107.931424,57.2389805 C105.445471,57.5393364 102.92936,57.0211763 100.764363,55.7630179 C96.5359296,58.741537 90.0337162,59.0074762 86.0446282,55.4704848 C85.0661723,54.6603628 84.3682055,53.5622284 84.0500842,52.3324022 C83.9975506,52.150474 83.9663153,51.9630621 83.9570054,51.7739299 C83.9570054,51.7739299 83.9570054,51.6542573 83.9570054,51.5877725 C83.9503518,51.4681923 83.9503518,51.3483347 83.9570054,51.2287546 C83.8922635,50.4203055 84.4025948,49.6769968 85.1803258,49.4469619 C85.5884805,49.3357431 86.0177241,49.3266103 86.43024,49.420368 C85.1629554,46.5982773 84.3850643,43.5811388 84.1298659,40.4981078 C84.0678134,39.8687184 84.0146256,39.2437613 83.9703024,38.6232365 C83.9703024,38.4237821 83.9703024,38.2110307 83.9703024,38.0115763 C83.9703024,37.8121219 83.9703024,37.453104 83.9703024,37.1738678 C83.9703024,36.455832 83.9703024,35.7377962 83.9703024,35.0197603 L83.9703024,33.9028157 C83.9299239,33.0677281 84.0990517,32.2358026 84.4622899,31.482769 C85.0340592,30.7115453 86.1244099,30.6317635 86.8557427,30.0732912 C87.2319151,29.7705856 87.4396988,29.3055459 87.414215,28.823377 L87.414215,28.823377 C87.4212364,28.7526336 87.4212364,28.6813689 87.414215,28.6106256 C87.3563794,28.1482385 87.2215464,27.6987953 87.0153062,27.2809296 C86.8482381,26.9436803 86.7445729,26.5785985 86.7094762,26.2038758 C86.7029224,26.1597949 86.7029224,26.1149872 86.7094762,26.0709062 L86.7094762,26.0709062 C86.7265619,25.7238695 86.8573989,25.3921042 87.081791,25.1268221 C87.9331331,24.0311138 89.0310923,23.1518352 90.2863584,22.5605088 C91.652146,21.9882094 93.0801934,21.5776458 94.5413856,21.3371885 C97.6378081,20.7080423 100.810499,20.5422378 103.955633,20.845201 C107.062535,21.141177 110.069292,22.1026138 112.771518,23.6641565 C114.063809,24.3639081 115.087842,25.4721076 115.683552,26.815536 C115.829848,27.1809698 115.919526,27.5665871 115.949491,27.9590746 C115.956083,28.0165062 115.956083,28.0745034 115.949491,28.131935 C115.949491,28.131935 115.949491,28.2383107 115.949491,28.2914986 C115.962663,28.517355 115.962663,28.7437871 115.949491,28.9696435 C115.949491,29.1690979 115.949491,29.3685523 115.856412,29.5813037 L115.856412,29.794055 C115.836817,29.9129255 115.836817,30.0342025 115.856412,30.153073 C115.975742,30.5439585 116.278633,30.8518154 116.667527,30.9774845 C117.245387,31.1653319 117.779155,31.4684039 118.236568,31.8683808 C118.635694,32.3057399 118.919097,32.8359772 119.06098,33.4108282 C119.189013,33.8752027 119.264831,34.3524133 119.287028,34.8336029 C119.287028,35.0064634 119.287028,35.1793238 119.287028,35.3388874 C119.287028,35.4984509 119.287028,35.8441718 119.287028,36.110111 C119.287028,36.3760502 119.287028,36.6419894 119.287028,36.8946317 L119.287028,36.8946317 C119.287028,37.1738678 119.287028,37.439807 119.287028,37.7057462 C119.089816,41.2264204 118.541928,44.7186454 117.651502,48.1305629 M103.822664,57.5847014 L103.822664,57.5847014 C103.838683,57.6412087 103.83063,57.7018247 103.800412,57.7521888 C103.770193,57.8025529 103.720498,57.838184 103.6631,57.8506406 C101.837934,58.4027609 99.8902459,58.4027609 98.06508,57.8506406 C97.9505287,57.8241913 97.8753745,57.7143505 97.8922195,57.5979984 L97.8922195,57.5979984 C97.8973588,57.5258196 97.9348768,57.4598407 97.9942788,57.4185176 C98.0536808,57.3771944 98.1285889,57.3649639 98.1980496,57.385247 C99.9320874,57.9104117 101.782796,57.9104117 103.516834,57.385247 C103.584321,57.3596747 103.659963,57.3678644 103.720413,57.4072886 C103.780864,57.4467128 103.818856,57.5126319 103.822664,57.5847014" id="Shape" fill="#56322A" fill-rule="nonzero"></path>
                                        <path d="M119.986139,34.5031238 C119.976835,36.2801537 119.867962,38.0552661 119.66003,39.8201135 C119.166329,43.4065858 118.335566,46.9385189 117.178768,50.369021 C117.079511,50.288455 116.969814,50.2216829 116.85266,50.17052 C116.277575,50.0500695 115.683772,50.0500695 115.108687,50.17052 L113.208749,50.3548423 C111.795878,50.5007983 110.374238,50.5434475 108.955158,50.4824501 C106.997847,50.4083291 105.088933,49.8531858 103.397131,48.8660852 C103.521663,45.4662052 102.810896,42.0876278 101.32705,39.0261097 C101.323582,38.9098439 101.252728,38.8062425 101.145634,38.7608472 C101.038541,38.715452 100.914818,38.7365754 100.828853,38.8149319 C100.742887,38.8932884 100.710421,39.0145299 100.745726,39.1253602 C100.087106,41.5581393 99.5570361,44.0239095 99.1577181,46.5124311 C99.1577181,47.0512194 99.0301104,47.5758291 98.9875744,48.1146173 L98.7040017,48.2705824 C97.0960945,49.1600015 95.3443804,49.7599036 93.5287984,50.0429123 C91.9040368,50.305085 90.2477509,50.305085 88.6229893,50.0429123 C87.8443801,49.9108827 87.0766297,49.7213147 86.3260498,49.4757667 L86.0850129,49.3906949 C85.6585546,48.551598 85.2890745,47.6847407 84.9790791,46.7960039 C83.9878604,43.7591493 83.4154403,40.6012981 83.2776424,37.4097449 C83.2776424,36.4881333 83.2776424,35.5523431 83.2776424,34.574017 C83.2514704,33.4597772 83.3178655,32.3452882 83.4761433,31.2420369 C83.4937226,30.8725689 83.6113398,30.5148165 83.8164307,30.2069962 C84.1791816,29.8874268 84.6039325,29.646091 85.0641509,29.4980643 C86.0566556,29.0727051 86.7939449,28.60481 86.9640885,27.4846975 C87.0060757,26.5511106 86.7902365,25.6239831 86.3402284,24.8049347 C86.1559285,24.444293 86.1559285,24.0171067 86.3402284,23.656465 C86.7531006,23.0883179 87.2733403,22.6066145 87.8715214,22.2386011 C90.4970271,20.5827756 93.4941408,19.6081045 96.5913844,19.4028732 C99.819494,18.9558457 103.098305,19.0276445 106.303752,19.6155528 C107.922238,19.9241982 109.504478,20.3993454 111.025239,21.0334167 C112.557449,21.6240228 113.955629,22.5159649 115.137044,23.656465 C115.720317,24.2759471 116.139478,25.0314105 116.356407,25.854154 C116.483975,26.6382771 116.483975,27.4378637 116.356407,28.2219867 C116.296362,28.8457985 116.578415,29.4532985 117.093697,29.8099943 C117.704601,30.0811437 118.300917,30.3840344 118.880205,30.7174272 C119.791169,31.716457 120.225462,33.060697 120.071211,34.4038734" id="Path" fill="#F2C6A5" fill-rule="nonzero"></path>
                                        <path d="M120.696506,50.3910461 C121.560808,49.8857616 122.531486,49.2608045 122.664456,48.1704538 C122.68802,47.7040578 122.572304,47.2411945 122.332032,46.8407578 C122.108947,46.2304515 122.225272,45.5476744 122.637862,45.0456682 C123.679559,43.2512862 125.400326,41.9523229 127.411471,41.442192 C127.730598,41.442192 127.597628,40.8837197 127.278501,40.9635014 C125.34905,41.4594246 123.663431,42.6351081 122.531486,44.2744445 C121.829404,45.0101496 121.575645,46.0657871 121.866638,47.0402122 C122.218535,47.5675288 122.218535,48.2547973 121.866638,48.7821139 C121.477331,49.2778733 120.97608,49.6743173 120.403973,49.9389494 C120.282802,50.0087147 120.241129,50.1634992 120.310894,50.2846704 C120.380659,50.4058415 120.535444,50.4475143 120.656615,50.3777491" id="Path" fill="#000000" fill-rule="nonzero"></path>
                                        <path d="M90.4858128,33.464016 C91.1169595,33.3948212 91.7299731,33.2100156 92.2941994,32.9188406 C92.9047095,32.7065575 93.5498983,32.6118095 94.1956646,32.6396045 C94.4948383,32.6435498 94.7930326,32.6747045 95.086561,32.7326832 C95.4374984,32.8482376 95.7978984,32.9327758 96.1636147,32.9853254 C97.1608867,32.9853254 96.9348384,31.7753021 96.5758205,31.2434237 C96.4102825,31.0202374 96.2079337,30.8268819 95.9774573,30.6716544 C95.9134902,30.6975304 95.8419699,30.6975304 95.7780029,30.6716544 C94.6823145,30.1637966 93.4592671,29.9970174 92.2676054,30.1929638 C91.0589856,30.2826815 89.9969737,31.0281321 89.5018378,32.13432 C89.4017262,32.4368259 89.4609636,32.7694211 89.6593625,33.0187603 C89.8577615,33.2680995 90.1685494,33.4005362 90.4858128,33.3709373" id="Path" fill="#56322A" fill-rule="nonzero"></path>
                                        <path d="M106.189523,33.1049981 C106.815118,33.0294307 107.422652,32.8449202 107.984612,32.5598227 C108.600492,32.3496322 109.248829,32.2505808 109.899374,32.2672896 C110.198362,32.2830426 110.495979,32.3185789 110.790271,32.3736653 C111.136257,32.4906758 111.492376,32.5752541 111.854028,32.6263075 C112.8513,32.6263075 112.638548,31.4162842 112.266233,30.8844058 C112.109273,30.6584059 111.910715,30.4643604 111.681167,30.3126365 C111.614148,30.3458875 111.535435,30.3458875 111.468416,30.3126365 C110.374388,29.8150902 109.157389,29.6531322 107.971315,29.8472429 C106.734041,29.9433109 105.657684,30.7312659 105.192251,31.8816778 C105.09812,32.1861162 105.161631,32.5174353 105.36167,32.7654834 C105.561709,33.0135315 105.872052,33.1457927 106.189523,33.118295" id="Path" fill="#56322A" fill-rule="nonzero"></path>
                                        <path d="M84.6085565,51.5478816 C84.7882076,52.7356789 85.3646705,53.8276777 86.2440826,54.6460733 C88.104989,56.3121827 90.5016553,57.2557521 92.9989382,57.3054653 C95.8591068,57.4533047 98.6810643,56.5973109 100.977114,54.8854186 C101.176569,54.739152 101.362726,54.9652003 101.322835,55.1513578 C104.947563,57.2084061 109.431375,57.0015405 112.8513,54.6194794 C113.655801,54.0494273 114.380285,53.3741373 115.005407,52.6116384 C115.31435,52.2545625 115.586124,51.8669508 115.816522,51.4548029 C115.976085,51.1489728 116.109055,50.750064 115.696849,50.5905005 C115.469446,50.5372328 115.23281,50.5372328 115.005407,50.5905005 C114.155115,52.7199824 112.343893,54.3189909 110.125423,54.8987155 C107.650275,55.4939054 105.050845,55.2985994 102.692422,54.3402432 C102.067427,54.0109054 101.362583,53.8634869 100.657987,53.9147405 C100.03282,54.0789839 99.4456672,54.3635272 98.9293824,54.752449 C97.8588006,55.3845597 96.6904108,55.8339404 95.4721728,56.082145 C93.1978966,56.5736193 90.8218539,56.1839483 88.8236928,54.9917942 C87.8820041,54.4518081 87.0660941,53.7174891 86.43024,52.8376867 C85.9249555,52.1063539 85.4063741,50.9229245 86.0446282,50.1782947 C86.1237577,50.070827 86.1906559,49.9548701 86.2440826,49.8325738 C85.8543053,49.7086093 85.4305639,49.7519465 85.0739501,49.9522464 C84.6237589,50.3723865 84.4356131,51.0029293 84.5819626,51.6010694" id="Path" fill="#56322A" fill-rule="nonzero"></path>
                                        <path d="M91.9351814,38.5168608 C91.9351814,39.5274298 92.4936538,40.3518413 93.1717987,40.3518413 C93.8499437,40.3518413 94.395119,39.5274298 94.395119,38.5168608 C94.395119,37.5062918 93.8499437,36.6818803 93.1717987,36.6818803 C92.4936538,36.6818803 91.9351814,37.4929949 91.9351814,38.5168608" id="Path" fill="#000000" fill-rule="nonzero"></path>
                                        <path d="M107.86494,37.9052006 C107.86494,38.9157696 108.423412,39.7401811 109.101557,39.7401811 C109.779702,39.7401811 110.324877,38.9157696 110.324877,37.9052006 C110.324877,36.8946317 109.779702,36.0702202 109.101557,36.0702202 C108.423412,36.0702202 107.86494,36.8946317 107.86494,37.9052006" id="Path" fill="#000000" fill-rule="nonzero"></path>
                                        <path d="M95.8178938,62.9034854 C97.3197869,63.4809032 98.9159632,63.7739864 100.525018,63.7677878 C103.668064,63.6843739 106.662199,62.4106784 108.902102,60.2042026 C109.900878,59.2856356 110.43727,57.9690368 110.364768,56.6140234 C103.862555,60.6031114 96.8151658,58.9276944 94.408416,58.1830646 C93.9144363,58.0213648 93.5813133,57.559291 93.5840045,57.0395261 C93.5840045,56.387975 93.5840045,55.4837818 93.5840045,54.8455277 C92.8022943,54.9095267 92.1087578,55.3718844 91.749024,56.068848 C90.419328,58.4490038 92.1745267,61.4674138 95.8444877,62.9034854" id="Path" fill="#FF74BE" fill-rule="nonzero"></path>
                                        <path d="M95.8178938,62.9034854 C97.3197869,63.4809032 98.9159632,63.7739864 100.525018,63.7677878 C103.668064,63.6843739 106.662199,62.4106784 108.902102,60.2042026 C109.900878,59.2856356 110.43727,57.9690368 110.364768,56.6140234 C103.862555,60.6031114 96.8151658,58.9276944 94.408416,58.1830646 C93.9144363,58.0213648 93.5813133,57.559291 93.5840045,57.0395261 C93.5840045,56.387975 93.5840045,55.4837818 93.5840045,54.8455277 C92.8022943,54.9095267 92.1087578,55.3718844 91.749024,56.068848 C90.419328,58.4490038 92.1479328,61.4674138 95.8178938,62.9034854 Z" id="Path" stroke="#000000" stroke-width="0.6" stroke-linecap="round" stroke-linejoin="round"></path>
                                        <path d="M93.6238792,57.0395261 C93.6212042,57.559291 93.9543272,58.0213648 94.4483069,58.1830646 C96.8151658,58.9276944 103.862555,60.6031114 110.404659,56.6140234 C110.345209,56.0995422 110.172656,55.604589 109.899374,55.1646547 C108.370224,52.6515293 102.945064,55.1646547 100.245781,55.2577334 C97.5464986,55.3508122 95.2860154,54.6460733 93.6770832,54.8455277 C93.6371923,55.4837818 93.6238792,56.387975 93.6238792,57.0395261 Z" id="Path" stroke="#000000" stroke-width="0.6" stroke-linecap="round" stroke-linejoin="round"></path>
                                        <path d="M93.6238792,57.0395261 C93.6212042,57.559291 93.9543272,58.0213648 94.4483069,58.1830646 C96.8151658,58.9276944 103.862555,60.6031114 110.404659,56.6140234 C110.345209,56.0995422 110.172656,55.604589 109.899374,55.1646547 C108.370224,52.6515293 102.945064,55.1646547 100.245781,55.2577334 C97.5464986,55.3508122 95.2860154,54.6460733 93.6770832,54.8455277 C93.6770832,55.4837818 93.6770832,56.387975 93.6770832,57.0395261" id="Path" fill="#FFFFFF" fill-rule="nonzero"></path>
                                        <path d="M93.6238792,57.0395261 C93.6212042,57.559291 93.9543272,58.0213648 94.4483069,58.1830646 C96.8151658,58.9276944 103.862555,60.6031114 110.404659,56.6140234 C110.345209,56.0995422 110.172656,55.604589 109.899374,55.1646547 C108.370224,52.6515293 102.945064,55.1646547 100.245781,55.2577334 C97.5464986,55.3508122 95.2860154,54.6460733 93.6770832,54.8455277 C93.6371923,55.4837818 93.6238792,56.387975 93.6238792,57.0395261 Z" id="Path" stroke="#000000" stroke-width="0.6" stroke-linecap="round" stroke-linejoin="round"></path>
                                        <path d="M83.9110264,51.6687306 C84.0986812,52.9094458 84.7008263,54.0500947 85.6194173,54.9049508 C87.5632296,56.6452877 90.0666705,57.6308943 92.6752107,57.6828223 C95.6628036,57.8372481 98.610483,56.9431187 101.008825,55.1549593 C101.217165,55.0021763 101.411616,55.2382954 101.369948,55.4327464 C105.156163,57.5814389 109.839734,57.3653572 113.412021,54.8771721 C114.252364,54.2817235 115.009124,53.5763485 115.662097,52.7798792 C115.984804,52.4068951 116.268685,52.0020148 116.509348,51.5715051 C116.67602,51.2520499 116.814913,50.8353692 116.384343,50.6686969 C116.127343,50.6202002 115.86354,50.6202002 115.606539,50.6686969 C113.122227,51.0129399 110.610369,51.1152748 108.106287,50.9742628 C106.432298,50.8245305 104.808831,50.3228177 103.342237,49.5019909 C103.260095,50.1713347 103.115952,50.8316008 102.911667,51.4742796 C102.735713,52.2188204 102.290433,52.8718983 101.661625,53.3076748 C100.997491,53.6469015 100.18735,53.4860224 99.7032254,52.9187728 C99.1575902,52.1021591 98.9302768,51.1138399 99.064315,50.1409013 C99.064315,49.7103313 99.064315,49.2658718 99.064315,48.8353018 L98.5226301,49.1408676 C97.3115411,49.7706214 96.0225717,50.2376393 94.6891675,50.5298033 C91.9877921,51.0856165 89.1885256,50.9324943 86.5638936,50.0853439 C85.9249831,49.8631142 85.0777324,49.5158803 84.4388219,49.932561 C83.9685742,50.3714189 83.7720462,51.0300532 83.9249157,51.6548413" id="Path" fill="#7A4941" fill-rule="nonzero"></path>
                                        <path d="M83.9110264,51.6687306 C84.0986812,52.9094458 84.7008263,54.0500947 85.6194173,54.9049508 C87.5632296,56.6452877 90.0666705,57.6308943 92.6752107,57.6828223 C95.6628036,57.8372481 98.610483,56.9431187 101.008825,55.1549593 C101.217165,55.0021763 101.411616,55.2382954 101.369948,55.4327464 C105.156163,57.5814389 109.839734,57.3653572 113.412021,54.8771721 C114.252364,54.2817235 115.009124,53.5763485 115.662097,52.7798792 C115.984804,52.4068951 116.268685,52.0020148 116.509348,51.5715051 C116.67602,51.2520499 116.814913,50.8353692 116.384343,50.6686969 C116.127343,50.6202002 115.86354,50.6202002 115.606539,50.6686969 C113.122227,51.0129399 110.610369,51.1152748 108.106287,50.9742628 C106.432298,50.8245305 104.808831,50.3228177 103.342237,49.5019909 C103.260095,50.1713347 103.115952,50.8316008 102.911667,51.4742796 C102.735713,52.2188204 102.290433,52.8718983 101.661625,53.3076748 C100.997491,53.6469015 100.18735,53.4860224 99.7032254,52.9187728 C99.1575902,52.1021591 98.9302768,51.1138399 99.064315,50.1409013 C99.064315,49.7103313 99.064315,49.2658718 99.064315,48.8353018 L98.5226301,49.1408676 C97.3115411,49.7706214 96.0225717,50.2376393 94.6891675,50.5298033 C91.9877921,51.0856165 89.1885256,50.9324943 86.5638936,50.0853439 C85.9249831,49.8631142 85.0777324,49.5158803 84.4388219,49.932561 C83.958551,50.3711686 83.7561286,51.0370317 83.9110264,51.6687306 Z" id="Path" stroke="#7A4941" stroke-width="1.329696" stroke-linecap="round" stroke-linejoin="round"></path>
                                        <path d="M91.097473,40.8305318 C92.4360547,39.7928081 94.3235688,39.8542361 95.5918454,40.9767984" id="Path" stroke="#000000" stroke-width="0.6" stroke-linecap="round" stroke-linejoin="round"></path>
                                        <path d="M106.734698,40.3917322 C108.06589,39.3523172 109.948555,39.4081826 111.215773,40.5247018" id="Path" stroke="#000000" stroke-width="0.6" stroke-linecap="round" stroke-linejoin="round"></path>
                                        <path d="M98.6480418,50.6811753 C98.6480418,51.6227863 99.5807328,53.1708586 101.39948,52.7878304 C102.658613,52.5324782 103.218228,51.4631912 103.521352,50.6971348 C103.822927,49.971266 104.033546,49.2291218 104.150919,48.4787633 C104.150919,48.2553301 104.150919,48.031897 104.150919,47.7925044 C104.232834,46.5974545 104.139094,45.399795 103.871112,44.2175747 C103.353765,42.1067239 102.348959,39.876599 101.131243,37.9052006 C100.431725,39.8043821 99.9071747,41.871527 99.4175119,43.8026275 C99.1377046,44.8719145 98.8812145,45.98908 98.7179936,47.1062456 C98.7179936,47.3456382 98.7179936,47.5690713 98.7179936,47.8084639 C98.6129179,48.764684 98.6129179,49.7249552 98.7179936,50.6811753" id="Path" fill="#C69471" fill-rule="nonzero"></path>
                                        <path d="M101.136678,52.7977958 C101.854714,52.5850445 102.173841,51.6941482 102.346701,51.0558941 C102.518678,50.451123 102.638785,49.8327918 102.705719,49.2076166 C102.705719,49.0214592 102.705719,48.8353018 102.705719,48.6358474 C102.752432,47.6401693 102.698975,46.6423171 102.546156,45.6573283 C102.251132,43.8986339 101.751313,42.1805059 101.056896,40.5379987 C100.657987,42.120337 100.285672,43.7026752 100.006436,45.3116074 C99.8468726,46.2025037 99.7006061,47.1332909 99.6075274,48.0640781 C99.6075274,48.2635325 99.6075274,48.4496899 99.6075274,48.6491443 C99.5343201,49.4448377 99.5209856,50.2449061 99.5676365,51.0425971 C99.5676365,51.8271178 100.099515,53.1169229 101.136678,52.7977958 Z" id="Path" stroke="#C69471" stroke-width="0.664848" stroke-linecap="round" stroke-linejoin="round"></path>
                                        <path d="M119.739125,53.1701107 C121.788932,53.8942355 124.057506,53.6394496 125.895617,52.4786688 C127.669636,51.329167 128.968324,49.577119 129.552281,47.5454966 C130.201413,45.1964924 130.117909,42.7052924 129.312936,40.4050291 C129.029725,39.2991876 128.329163,38.3460416 127.358283,37.7456371 C126.229606,37.3197073 124.955546,37.6133179 124.127122,38.4902669 C122.416284,39.9424586 121.053103,41.7600335 120.138034,43.8090509 C119.015969,46.7925685 118.89924,50.0609612 119.80561,53.1169229 M119.965173,49.8990586 C120.53891,49.6370841 121.040743,49.2401802 121.427839,48.742223 C121.772722,48.2128023 121.772722,47.529742 121.427839,47.0003213 C121.131035,46.026062 121.385504,44.9674702 122.092687,44.2345536 C123.222032,42.5926318 124.908722,41.4162007 126.839701,40.9236106 C127.145532,40.8438288 127.278501,41.3358163 126.972671,41.4023011 C124.957254,41.9106023 123.23168,43.2095764 122.185765,45.0057773 C121.780632,45.5163216 121.665215,46.1987914 121.879935,46.8141638 C122.126507,47.2119645 122.242723,47.6768254 122.212359,48.1438598 C122.07939,49.2342106 121.108712,49.8591677 120.244409,50.3644522 C120.166025,50.4095823 120.069519,50.409467 119.991243,50.3641495 C119.912967,50.3188321 119.864814,50.2351973 119.864922,50.1447497 C119.86503,50.0543021 119.913383,49.9707827 119.991767,49.9256525" id="Shape" fill="#F2C6A5" fill-rule="nonzero"></path>
                                        <path d="M120.151331,50.3910461 C121.015633,49.8857616 121.999608,49.2608045 122.119281,48.1704538 C122.156199,47.7028505 122.03948,47.2359755 121.786857,46.8407578 C121.57017,46.2279081 121.691347,45.5462825 122.105984,45.0456682 C123.144211,43.2482154 124.866445,41.9481448 126.879592,41.442192 C127.185422,41.442192 127.052453,40.8837197 126.746623,40.9635014 C124.815643,41.4560915 123.128953,42.6325227 121.999608,44.2744445 C121.292426,45.0073611 121.037957,46.0659528 121.33476,47.0402122 C121.679643,47.5696329 121.679643,48.2526932 121.33476,48.7821139 C120.947664,49.2800711 120.445831,49.676975 119.872094,49.9389494 C119.750923,50.0087147 119.70925,50.1634992 119.779016,50.2846704 C119.848781,50.4058415 120.003565,50.4475143 120.124737,50.3777491" id="Path" fill="#000000" fill-rule="nonzero"></path>
                                        <path d="M81.8294918,40.6443744 C80.8870723,38.5936638 79.5020282,36.7772126 77.773919,35.3255904 C76.9394107,34.4495659 75.6624431,34.1564914 74.5294608,34.5809606 C73.5616797,35.1818278 72.8654974,36.135502 72.5881046,37.2403526 C71.7747421,39.5339055 71.6865399,42.0221356 72.3354624,44.3675232 C72.9292815,46.3979784 74.2313741,48.1482551 76.0054234,49.3006954 C77.7110371,50.4688785 79.8775232,50.7365907 81.8161949,50.0187312 C82.8398081,46.973223 82.8398081,43.6765856 81.8161949,40.6310774 M81.7231162,47.2795574 C80.8588138,46.774273 79.8881357,46.1493158 79.7551661,45.0589651 C79.7296563,44.590599 79.8504789,44.1258966 80.100887,43.7292691 C80.3278055,43.1086534 80.2061331,42.4141065 79.78176,41.9075856 C78.7458708,40.1080671 77.0226451,38.8072477 75.0081514,38.3041094 C74.8987361,38.2506753 74.8430026,38.1267977 74.8755924,38.0094742 C74.9081823,37.8921507 75.0198221,37.8147658 75.141121,37.8254189 C77.0751976,38.3112287 78.7640838,39.4891913 79.8881357,41.1363619 C80.5902177,41.8720671 80.8439767,42.9277045 80.5529837,43.9021296 C80.2069702,44.4263853 80.2069702,45.1064787 80.5529837,45.6307344 C80.9457651,46.1230179 81.4461237,46.518756 82.0156493,46.7875699 C82.1368205,46.8573351 82.1784932,47.0121197 82.108728,47.1332909 C82.0389628,47.2544621 81.8841782,47.2961348 81.763007,47.2263696" id="Shape" fill="#F2C6A5" fill-rule="nonzero"></path>
                                        <path d="M81.7364131,47.2263696 C80.8721107,46.7210851 79.9014326,46.096128 79.768463,45.0057773 C79.7429533,44.5374111 79.8637759,44.0727088 80.114184,43.6760813 C80.3171958,43.0687983 80.1914261,42.3997036 79.78176,41.9075856 C78.7458708,40.1080671 77.0226451,38.8072477 75.0081514,38.3041094 C74.8987361,38.2506753 74.8430026,38.1267977 74.8755924,38.0094742 C74.9081823,37.8921507 75.0198221,37.8147658 75.141121,37.8254189 C77.0751976,38.3112287 78.7640838,39.4891913 79.8881357,41.1363619 C80.5902177,41.8720671 80.8439767,42.9277045 80.5529837,43.9021296 C80.2069702,44.4263853 80.2069702,45.1064787 80.5529837,45.6307344 C80.9457651,46.1230179 81.4461237,46.518756 82.0156493,46.7875699 C82.1368205,46.8573351 82.1784932,47.0121197 82.108728,47.1332909 C82.0389628,47.2544621 81.8841782,47.2961348 81.763007,47.2263696" id="Path" fill="#000000" fill-rule="nonzero"></path>
                                        <path d="M121.241681,20.0606803 C124.312047,19.2764302 126.721143,16.89783 127.54444,13.837703 C127.769509,12.9699517 127.868038,12.0742369 127.836973,11.178311 C127.821852,10.7672161 127.772932,10.3580624 127.690707,9.95499072 C127.671406,9.75196528 127.631305,9.55145891 127.571034,9.35662752 C127.571034,9.25025184 127.384877,9.05079744 127.251907,9.03750048 C127.118938,9.02420352 126.999265,9.29014272 126.946077,9.36992448 C126.427496,10.194336 126.01529,11.1118262 125.616381,12.0293165 L124.2202,14.6887085 C123.236225,16.4616365 122.261115,18.2788877 121.294869,20.1404621" id="Path" fill="#56322A" fill-rule="nonzero"></path>
                                        <path d="M120.89596,0.56733696 C120.89596,2.46880224 120.89596,4.38356448 120.89596,6.28502976 C120.89596,8.18649504 120.89596,10.1145542 120.89596,12.0160195 C122.360534,9.58754998 122.903254,6.71349164 122.425111,3.91817088 C122.306408,3.20165044 122.119398,2.4981361 121.866638,1.8172512 C121.735299,1.45907962 121.584372,1.10839746 121.414542,0.76679136 C121.340074,0.588729384 121.246444,0.419303189 121.135306,0.26150688 C121.135306,0.16842816 120.949148,-0.00443232 120.776288,0.12853728 C120.603427,0.26150688 120.776288,0.51414912 120.776288,0.56733696" id="Path" fill="#56322A" fill-rule="nonzero"></path>
                                        <path d="M28.3624157,69.0998688 C26.9321702,71.034589 26.1000826,73.3459433 25.9689629,75.7483488" id="Path" stroke="#CEA676" stroke-width="0.6" stroke-linecap="round" stroke-linejoin="round"></path>
                                        <path d="M136.825718,161.792977 C138.701208,159.487075 141.183488,157.750861 143.99278,156.780023" id="Path" stroke="#CEA676" stroke-width="0.6" stroke-linecap="round" stroke-linejoin="round"></path>
                                    </g>
                                </g>
                            </g>
                        </g>
                    </g>
                </g>
            </g>
        </g>
    </g>
</svg>