<?xml version="1.0" encoding="UTF-8"?>
<svg width="63px" height="63px" viewBox="0 0 63 63" version="1.1" xmlns="http://www.w3.org/2000/svg" xmlns:xlink="http://www.w3.org/1999/xlink">
    <!-- Generator: Sketch 63.1 (92452) - https://sketch.com -->
    <title>alimentacion  padres@3x</title>
    <desc>Created with Sketch.</desc>
    <defs>
        <path d="M0.13568148,31.465908 C0.13568148,14.12964 14.1895152,0.0757998 31.5257832,0.0757998 C48.862116,0.0757998 62.91594,14.12964 62.91594,31.465908 C62.91594,48.802176 48.862116,62.856 31.5257832,62.856 C14.1895152,62.856 0.13568148,48.802176 0.13568148,31.465908 Z" id="path-1"></path>
    </defs>
    <g id="Screens" stroke="none" stroke-width="1" fill="none" fill-rule="evenodd">
        <g id="Sección-de-padres-(Alimentación)-" transform="translate(-178.000000, -1052.000000)">
            <g id="alimentacion-" transform="translate(165.000000, 1031.000000)">
                <g id="Group-6" transform="translate(13.000000, 21.000000)">
                    <g id="Group-5">
                        <g id="alimentacion--padres">
                            <g id="Layer-5" fill="#4FBA71">
                                <path d="M0.13568148,31.465908 C0.13568148,14.12964 14.1895152,0.0757998 31.5257832,0.0757998 C48.862116,0.0757998 62.91594,14.12964 62.91594,31.465908 C62.91594,48.802176 48.862116,62.856 31.5257832,62.856 C14.1895152,62.856 0.13568148,48.802176 0.13568148,31.465908 Z" id="Path"></path>
                            </g>
                            <g id="Layer-3">
                                <g id="Group">
                                    <g id="Mask-link" fill="#4FBA71">
                                        <path d="M0.13568148,31.465908 C0.13568148,14.12964 14.1895152,0.0757998 31.5257832,0.0757998 C48.862116,0.0757998 62.91594,14.12964 62.91594,31.465908 C62.91594,48.802176 48.862116,62.856 31.5257832,62.856 C14.1895152,62.856 0.13568148,48.802176 0.13568148,31.465908 Z" id="Mask"></path>
                                    </g>
                                    <g id="Clipped">
                                        <mask id="mask-2" fill="white">
                                            <use xlink:href="#path-1"></use>
                                        </mask>
                                        <use id="Mask" fill="#52AF32" xlink:href="#path-1"></use>
                                        <path d="M44.060112,24.9057828 C44.060112,24.9057828 55.757484,31.080672 58.605768,57.48408" id="Path" stroke="#5765CE" stroke-width="4.86" stroke-linejoin="round" mask="url(#mask-2)"></path>
                                    </g>
                                </g>
                            </g>
                            <g id="Layer-4" transform="translate(24.948000, 0.324000)" fill="#5E6CD0">
                                <path d="M2.3557716,2.4862788 C1.4227488,2.9758752 0.7307496,3.5797464 0.428976,4.3063164 C-0.5608764,6.6895956 1.1443356,7.5512736 2.329722,7.8971436 C2.3147532,8.8841124 2.4357348,9.8858556 2.66409,10.739466 C2.66409,10.7394984 4.1326524,17.2325556 4.9834116,18.8436132 C5.8341384,20.4546708 7.245612,20.5711812 7.245612,20.5711812 C7.245612,20.5711812 14.260212,20.0988216 16.031196,17.7292152 C16.743348,16.7767524 17.053092,15.0482448 16.760844,13.3459164 C18.0549,13.10742 18.9864,11.839932 18.854856,10.3852368 C18.763488,9.3721212 18.17478,8.5828896 17.390052,8.1884196 C17.493084,7.4381328 17.780796,5.1222456 17.420832,3.755484 C16.999632,2.154924 15.985188,2.969622 15.669612,2.5226316 C15.353712,2.0756412 16.744644,-0.36898092 12.942504,0.12088764 C10.09098,0.48829068 5.1548724,1.0174248 2.3557716,2.4862788 Z" id="Path"></path>
                                <path d="M19.578348,23.5165356 C19.372284,23.413536 19.382976,23.4453852 19.649304,23.4453852" id="Path"></path>
                            </g>
                            <g id="Layer-1" transform="translate(14.256000, 47.952000)" fill="#FEFFFE">
                                <path d="M0.3616488,0.635364 L0.3031992,4.610844 C0.2991492,4.885272 0.5017464,5.023296 0.7556652,4.918968 L5.5359288,2.957796 C5.7898476,2.853792 5.7941568,2.674944 5.5455192,2.558628 L0.8191368,0.348948 C0.5705316,0.232632 0.3656988,0.360936 0.3616488,0.635364 Z" id="Path"></path>
                            </g>
                            <g id="Layer-8" transform="translate(40.824000, 44.388000)" stroke="#68CD88" stroke-linecap="round" stroke-linejoin="round" stroke-width="0.5">
                                <polygon id="Path" points="0.07938 0.214164 2.466288 0.214164 2.466288 2.356452 0.07938 2.356452"></polygon>
                                <polygon id="Path" points="0.1458 4.74336 2.532384 4.74336 2.532384 6.885324 0.1458 6.885324"></polygon>
                                <path d="M0.568296,1.100304 L1.400652,2.039904 C1.400652,2.039904 2.722248,0.356076 4.043844,0.238788" id="Path"></path>
                                <path d="M0.945756,5.209596 L1.731132,6.122952 C1.731132,6.122952 2.978856,4.486104 4.22658,4.372056" id="Path"></path>
                            </g>
                            <g id="Layer-2" transform="translate(7.452000, 12.636000)">
                                <path d="M7.5891168,40.810716 L15.7027248,40.845384 C16.1179632,40.845384 16.4545992,40.954572 16.4545992,41.089032 L16.4545992,41.889312 C16.4545992,42.023772 16.1179632,42.13296 15.7027248,42.13296 L7.5891168,42.097968 C7.173846,42.097968 6.83721,41.989104 6.83721,41.854644 L6.83721,41.05404 C6.83721,41.05404 7.173846,40.810716 7.5891168,40.810716 Z" id="Path" fill="#5E6CD0"></path>
                                <path d="M1.7383248,34.415604 L4.7964636,34.415604 C5.1257448,34.415604 5.3927208,34.7004 5.3927208,35.051616 L5.3927208,36.071892 C5.3927208,36.423108 5.1257448,36.707904 4.7964636,36.707904 L1.7383248,36.707904 C1.4090112,36.707904 1.1420676,36.423108 1.1420676,36.071892 L1.1420676,35.051616 C1.1420676,34.7004 1.4090112,34.415604 1.7383248,34.415604 Z" id="Path" fill="#D6DBD8"></path>
                                <path d="M17.177022,33.822036 L20.7549864,33.822036 C21.1285908,33.822036 21.431466,34.106832 21.431466,34.458048 L21.431466,35.325396 C21.431466,35.676612 21.1285908,35.961408 20.7549864,35.961408 L17.177022,35.961408 C16.8034176,35.961408 16.5005424,35.676612 16.5005424,35.325396 L16.5005424,34.458048 C16.5005424,34.106832 16.8034176,33.822036 17.177022,33.822036 Z" id="Path" fill="#D6DBD8"></path>
                                <path d="M33.781536,4.1374152 L35.540856,10.3616172 C35.540856,10.3616172 30.197124,11.7157752 29.806056,10.7857008 C29.415312,9.8556588 28.328616,6.8453748 28.328616,6.8453748 L33.781536,4.1374152 Z" id="Path" fill="#5E6CD0"></path>
                                <path d="M38.498976,10.753722 C40.933188,13.3558956 40.765356,14.2792632 41.772672,20.238984 C43.308432,29.32524 40.459176,42.131988 40.459176,42.131988 L20.6426232,42.493896 C20.6426232,42.493896 24.6228012,33.060312 25.271352,28.145556 C26.548236,18.46962 22.1507136,14.6638836 25.823772,10.8376704 C27.838404,8.7391548 35.572932,7.6257936 38.498976,10.753722 Z" id="Path" fill="#5E6CD0"></path>
                                <path d="M51.228612,0.4340304 C51.228612,0.4076244 51.249996,0.3862404 51.27624,0.3862404 C51.302808,0.3862404 51.324192,0.4076244 51.324192,0.4340304 C51.324192,0.460404 51.302808,0.481788 51.27624,0.481788 C51.249996,0.481788 51.228612,0.460404 51.228612,0.4340304 Z" id="Path" fill="#5E6CD0"></path>
                                <path d="M8.674776,13.8393036 C11.876706,14.2498116 13.7054268,25.32708 19.922598,23.609232 C26.162352,21.885228 26.012016,15.799374 27.250992,13.7756052" id="Path" stroke="#5E6CD0" stroke-width="4.86" stroke-linejoin="round"></path>
                                <path d="M2.1407976,14.1252012 C2.1407976,12.4717968 4.3094916,11.1314412 6.9847596,11.1314412 C9.6599952,11.1314412 11.8287216,12.4717968 11.8287216,14.1252012 C11.8287216,15.7786056 9.6599952,17.1189612 6.9847596,17.1189612 C4.3094916,17.1189612 2.1407976,15.7786056 2.1407976,14.1252012 Z" id="Path" fill="#5E6CD0"></path>
                                <path d="M2.1862872,21.744612 C2.5778412,20.944656 3.845556,20.760948 5.0178528,21.334428 C6.190182,21.908232 6.823116,23.02182 6.431562,23.8221 C6.0400404,24.622056 4.7722932,24.805764 3.5999964,24.232284 C2.4276672,23.65848 1.7947332,22.544892 2.1862872,21.744612 Z" id="Path" fill="#FA9B61"></path>
                                <path d="M0.3806028,22.363776 C0.3806028,22.345632 0.3903228,22.331052 0.4023432,22.331052 C0.4143636,22.331052 0.4240836,22.345632 0.4240836,22.363776 C0.4240836,22.382244 0.4143636,22.396824 0.4023432,22.396824 C0.3903228,22.396824 0.3806028,22.382244 0.3806028,22.363776 Z" id="Path" fill="#5E6CD0"></path>
                                <path d="M1.3378932,22.079628 C1.3378932,22.056624 1.3799484,22.037832 1.4318208,22.037832 C1.4836932,22.037832 1.525716,22.056624 1.525716,22.079628 C1.525716,22.102956 1.4836932,22.121748 1.4318208,22.121748 C1.3799484,22.121748 1.3378932,22.102956 1.3378932,22.079628 Z" id="Path" fill="#5E6CD0"></path>
                                <path d="M10.9626048,26.879688 C10.5710508,26.079732 9.303336,25.896024 8.1310392,26.469828 C6.95871,27.043308 6.325776,28.156896 6.71733,28.957176 C7.1088516,29.757456 8.3765988,29.94084 9.5488956,29.36736 C10.7212248,28.793556 11.3541588,27.679968 10.9626048,26.879688 Z" id="Path" fill="#D23689"></path>
                                <path d="M20.6743752,31.992084 L19.2806892,40.346748 C19.2408048,40.58586 19.01313,40.779288 18.7721064,40.779288 L3.806838,40.870332 C3.5658144,40.870332 3.3377508,40.67658 3.2973804,40.437792 L1.905444,32.197176 C1.865106,31.958388 2.027754,31.763664 2.2687776,31.762368 L20.3101668,31.5618055 C20.5511904,31.560516 20.7142596,31.752972 20.6743752,31.992084 Z" id="Path" fill="#D6DBD8"></path>
                                <path d="M35.528544,9.1428912 C35.992512,9.470034 38.279304,11.193552 38.981088,13.9623912 C43.685244,32.520852 33.117012,39.896388 27.843912,42.363 L40.4595,42.130044 C40.4595,42.130044 43.311348,29.325888 41.775912,20.239956 C40.768596,14.2800732 40.929624,13.3549236 38.495088,10.75275 C37.755396,9.9619956 36.712764,9.444114 35.528544,9.1428912 Z" id="Path" fill="#5765CE"></path>
                                <path d="M36.012276,40.030524 C36.863748,39.598632 40.758228,37.500084 42.909264,39.251628 C44.092188,40.21488 42.028632,40.019508 42.062328,40.164012 C42.132312,40.464036 44.6877,39.845196 43.7076,42.144948 C43.7076,42.144948 41.42988,42.005952 39.351744,41.811228 C37.273608,41.616504 38.371644,40.698288 35.9397,40.80942" id="Path" fill="#68CD88"></path>
                                <path d="M4.7335752,41.881536 L43.133796,41.881536 C43.454556,41.881536 43.714728,42.168924 43.714728,42.52338 L43.714728,43.762032 C43.714728,44.116488 43.454556,44.403876 43.133796,44.403876 L4.7335752,44.403876 C4.4128152,44.403876 4.1528052,44.116488 4.1528052,43.762032 L4.1528052,42.52338 C4.1528052,42.168924 4.4128152,41.881536 4.7335752,41.881536 Z" id="Path" fill="#1EB1EA"></path>
                                <path d="M23.5209096,40.586508 C24.3451332,39.804372 31.642812,37.239588 34.809912,37.730124 C37.977012,38.220336 36.334656,41.884776 36.334656,41.884776 L22.9598388,41.968692 C22.9598388,41.968692 22.696686,41.368644 23.5209096,40.586508 Z" id="Path" fill="#FA9B61"></path>
                                <path d="M32.250636,37.816632 C32.250636,37.816632 31.935384,38.447784 31.866048,39.029688 C31.786344,39.697128 31.962276,40.325688 32.16186,40.302036 C32.341356,40.280652 32.402268,39.739896 32.798196,39.074076 C33.1938,38.408256 33.744924,37.63908 33.744924,37.63908" id="Path" fill="#DE844D"></path>
                                <path d="M28.480896,41.922036 C28.480896,41.922036 28.326348,41.601276 28.3273154,41.158368 C28.328292,40.757256 28.438776,40.239504 28.595268,40.224924 C28.752084,40.21002 28.860624,40.698936 28.95426,41.098752 C29.047572,41.498568 29.465856,41.877324 29.465856,41.877324 L28.480896,41.922036 Z" id="Path" fill="#DE844D"></path>
                                <path d="M1.7524512,31.0797 L20.7728712,31.0797 C21.1137192,31.0797 21.389994,31.356072 21.389994,31.69692 L21.389994,32.111316 C21.389994,32.452164 21.1137192,32.728536 20.7728712,32.728536 L1.7524512,32.728536 C1.4116032,32.728536 1.135296,32.452164 1.135296,32.111316 L1.135296,31.69692 C1.135296,31.356072 1.4116032,31.0797 1.7524512,31.0797 Z" id="Path" fill="#E1E3E2"></path>
                                <path d="M2.508246,21.434544 C2.9839752,20.860092 4.237434,20.921652 5.3078652,21.572568 C6.3782964,22.22316 6.8604084,23.216868 6.3846468,23.79132 C5.9089176,24.366096 4.6554588,24.304212 3.5850276,23.65362 C2.5145964,23.002704 2.0324844,22.00932 2.508246,21.434544 Z" id="Path" fill="#DE844D"></path>
                                <path d="M10.6948512,26.779896 C10.327338,26.087184 9.137448,25.9281 8.0371116,26.424792 C6.9367752,26.921484 6.3427212,27.885708 6.710202,28.578744 C7.0777152,29.271456 8.2676052,29.43054 9.3679416,28.933848 C10.468278,28.437156 11.062332,27.472932 10.6948512,26.779896 Z" id="Path" fill="#C0317D"></path>
                            </g>
                        </g>
                    </g>
                </g>
            </g>
        </g>
    </g>
</svg>