<?xml version="1.0" encoding="UTF-8"?>
<svg width="277px" height="124px" viewBox="0 0 277 124" version="1.1" xmlns="http://www.w3.org/2000/svg" xmlns:xlink="http://www.w3.org/1999/xlink">
    <!-- Generator: Sketch 63.1 (92452) - https://sketch.com -->
    <title>calendario@3x</title>
    <desc>Created with Sketch.</desc>
    <defs>
        <path d="M3.00025,7.99927241 C2.74425,7.99927241 2.48825,7.90127241 2.29325,7.70627241 C1.90225,7.31527241 1.90225,6.68327241 2.29325,6.29227241 L5.59825,2.98727241 L2.41825,-0.305727588 C2.03525,-0.703727588 2.04625,-1.33672759 2.44325,-1.71972759 C2.84125,-2.10272759 3.47425,-2.09172759 3.85725,-1.69572759 L7.71925,2.30427241 C8.09825,2.69727241 8.09325,3.32027241 7.70725,3.70627241 L3.70725,7.70627241 C3.51225,7.90127241 3.25625,7.99927241 3.00025,7.99927241" id="path-1"></path>
    </defs>
    <g id="Screens" stroke="none" stroke-width="1" fill="none" fill-rule="evenodd">
        <g id="Secci贸n-de-padres-(Alimentaci贸n)-" transform="translate(-259.000000, -824.000000)">
            <g id="Group-16" transform="translate(259.000000, 825.000000)">
                <g id="calendario">
                    <rect id="Rectangle" stroke="#E4E9F2" fill="#FFFFFF" x="21" y="0" width="255" height="99" rx="4"></rect>
                    <g id="computer" transform="translate(0.000000, 14.000000)" fill-rule="nonzero">
                        <g id="Group">
                            <polygon id="Path" fill="#E6E6E6" points="30.5713125 51.0699375 40.1248125 54.0225 50.1834375 51.0699375 46.4619375 44.8571249 36.4916249 40.014 30.5713125 44.8571249 26.7316875 48.7845"></polygon>
                            <path d="M46.4619375,51.0699375 L50.1834375,51.0699375 L46.4619375,44.8571249 L30.5713125,44.8571249 L30.5713125,47.6336249 L42.3495,47.6336249 C44.0611875,47.6336249 44.4560625,47.8395 45.3729375,49.19625 L46.4619375,51.0699375 Z" id="Path" fill="#C2C7CC"></path>
                            <path d="M0,40.8161249 C0,43.0385625 1.82081246,44.8571249 4.0455,44.8571249 L11.1560625,44.8571249 C17.6276249,44.8571249 24.09525,44.8863751 30.5713125,44.8571249 L69.6785625,44.8571249 C71.89875,44.8571249 73.7156249,43.047 73.728,40.833 L73.728,4.02412493 C73.7150625,1.81068754 71.89875,0 69.6785625,0 L4.0455,0 C1.82081246,0 0,1.81912493 0,4.041 L0,40.8161249 Z" id="Path" fill="#E6E6E6"></path>
                            <path d="M69.72075,4.041 L69.72075,40.8335625 C69.7078125,43.047 67.8915,44.8571249 65.67075,44.8571249 L69.6785625,44.8571249 C71.89875,44.8571249 73.7150625,43.047 73.728,40.8335625 L73.728,4.02412493 C73.7150625,1.81068754 71.89875,4.09272616e-15 69.6785625,4.09272616e-15 L65.67075,4.09272616e-15 C67.8915,4.09272616e-15 69.7078125,1.81068754 69.72075,4.02412493 L69.72075,4.041 Z" id="Path" fill="#C2C7CC"></path>
                            <path d="M30.5713125,56.9756249 L55.0698751,56.9756249 C56.69325,56.9756249 58.0218751,55.6481249 58.0218751,54.0225 C58.0218751,52.3968751 56.69325,51.0699375 55.0698751,51.0699375 L30.5713125,51.0699375 L27.9011249,54.1861875 L30.5713125,56.9756249 Z" id="Path" fill="#64B0D9"></path>
                            <path d="M6.97612493,38.9300625 L16.1055,38.9300625 L16.1055,36.9433125 C16.1055,35.9476875 16.9211249,35.1371249 17.9178751,35.1371249 L28.7628751,35.1371249 C29.7551249,35.1371249 30.5713125,35.9476875 30.5713125,36.9433125 L30.5713125,38.9300625 L66.7473751,38.9300625 C67.1973751,38.9300625 67.5675,38.565 67.5675,38.1155625 L67.5675,6.74212493 C67.5675,6.29268754 67.1973751,5.92706246 66.7473751,5.92706246 L6.97612493,5.92706246 C6.52612493,5.92706246 6.1605,6.29268754 6.1605,6.74212493 L6.1605,38.1155625 C6.1605,38.565 6.52612493,38.9300625 6.97612493,38.9300625 Z" id="Path" fill="#A2D6F2"></path>
                            <path d="M64.2245625,38.9300625 L66.7473751,38.9300625 C67.1973751,38.9300625 67.5675,38.565 67.5675,38.1155625 L67.5675,6.74212493 C67.5675,6.29268754 67.1973751,5.92706246 66.7473751,5.92706246 L64.2245625,5.92706246 L64.2245625,38.9300625 Z" id="Path" fill="#64B0D9"></path>
                            <path d="M55.0698751,56.9756249 C56.69325,56.9756249 58.0218751,55.6481249 58.0218751,54.0225 C58.0218751,52.3968751 56.69325,51.0699375 55.0698751,51.0699375 L50.1834375,51.0699375 C51.81075,51.0699375 53.1399375,52.3968751 53.1399375,54.0225 C53.1399375,55.6481249 51.81075,56.9756249 50.1834375,56.9756249 L55.0698751,56.9756249 Z" id="Path" fill="#4A83C9"></path>
                            <path d="M21.0841875,62.4318751 L21.7783125,62.4318751 C21.8705625,62.4318751 21.9549375,62.4403125 22.04325,62.4571875 L28.7628751,62.4571875 C29.7551249,62.4571875 30.5713125,61.6426875 30.5713125,60.6470625 L30.5713125,36.9433125 C30.5713125,35.94825 29.7551249,35.1371249 28.7628751,35.1371249 L17.9178751,35.1371249 C16.9211249,35.1371249 16.1055,35.94825 16.1055,36.9433125 L16.1055,39.7749375 C16.1139375,39.7918125 16.1139375,39.8126249 16.1139375,39.8379375 C16.1139375,39.85875 16.1139375,39.8801249 16.1055,39.9048751 L16.1055,48.4616249 C16.2483751,48.9701249 16.1055,52.5656249 16.1055,55.5181875 L16.1055,62.4324375 L21.0841875,62.4324375 L21.0841875,62.4318751 Z" id="Path" fill="#808080"></path>
                            <path d="M17.61075,64.59975 L21.0841875,62.4318751 C21.0465,60.4996875 20.6808751,58.5590625 20.151,56.9756249 C20.0289375,56.6060625 19.8945,56.2573125 19.7555625,55.9299375 C19.2380625,54.72 19.3308751,54.6316875 20.2010625,53.9133751 C20.9958751,53.2580625 21.9926249,52.3423125 22.3245,51.0699375 C22.4510625,50.6036249 22.4848125,50.08275 22.3835625,49.51575 C21.8413125,46.4028751 20.5081875,48.0746249 19.053,49.1208751 C17.80425,50.01525 16.4041875,49.5410625 16.1055,48.4610625 L16.1055,39.9048751 C16.1178751,39.85875 16.1178751,39.8126249 16.1055,39.7749375 C16.0211249,39.4846875 15.3444375,39.4846875 14.2970625,40.4088751 C13.4476875,41.1609375 12.3586875,42.5300625 11.1560625,44.8571249 C11.0379375,45.0843751 10.9203751,45.3195 10.8028125,45.5585625 C8.06512493,51.1835625 9.93656246,57.8244375 11.70675,62.4318751 C11.7106875,62.4403125 11.7151875,62.44875 11.7196875,62.4571875 L17.61075,64.59975 Z" id="Path" fill="#FFDDA6"></path>
                            <path d="M21.0841875,62.4318751 C21.0465,60.4996875 20.6808751,58.5590625 20.151,56.9756249 C20.0289375,56.6060625 19.8945,56.2573125 19.7555625,55.9299375 C19.2380625,54.72 19.3308751,54.6316875 20.2010625,53.9133751 C20.9958751,53.2580625 21.9926249,52.3423125 22.3245,51.0699375 C22.4510625,50.6036249 22.4848125,50.08275 22.3835625,49.51575 C21.9965625,47.2978125 21.21075,47.5076249 20.2640625,48.1921875 L20.05425,48.348 C19.9575,48.4194375 20.1926249,48.8098125 20.4243751,49.4358751 C20.6173125,49.95225 20.49525,50.5445625 20.4243751,50.742 C20.016,51.8720625 19.1666249,52.1448751 18.44325,52.7585625 C17.5730625,53.4976875 16.8795,54.4803751 17.4009375,55.728 C17.5393125,56.0598751 17.6698125,56.421 17.7958125,56.799 C18.3723751,58.5798751 18.89775,60.55425 18.9354375,62.4318751 L21.0841875,62.4318751 Z" id="Path" fill="#FCC368"></path>
                            <path d="M30.5713125,51.0699375 L30.5713125,36.9433125 C30.5713125,35.94825 29.7551249,35.1371249 28.7628751,35.1371249 L26.1101249,35.12025 C27.1068751,35.12025 27.9185625,35.9353125 27.9185625,36.9309375 L27.9185625,60.6341249 C27.9185625,61.62975 27.1068751,62.4448125 26.1101249,62.4448125 L28.7628751,62.457206 C29.7551249,62.4616875 30.5713125,61.6426875 30.5713125,60.6470625 L30.5713125,51.0699375 Z" id="Path" fill="#666666"></path>
                            <path d="M11.58075,70.56 L22.3121249,70.56 C22.74975,70.56 23.103,70.2033751 23.103,69.7663125 L23.103,63.7554375 C23.103,63.117 22.6445625,62.57925 22.04325,62.4571875 C21.9549375,62.4403125 21.8711249,62.4318751 21.7783125,62.4318751 L11.58075,62.4318751 C11.1436875,62.4318751 10.7904375,62.7851249 10.7904375,63.2216249 L10.7904375,69.7663125 C10.7904375,70.2033751 11.1436875,70.56 11.58075,70.56 L11.58075,70.56 Z" id="Path" fill="#50D960"></path>
                            <path d="M20.2516875,63.7554375 L20.2516875,69.7663125 C20.2516875,70.2028125 19.8945,70.56 19.4568751,70.56 L22.3121249,70.56 C22.74975,70.56 23.103,70.2028125 23.103,69.7663125 L23.103,63.7554375 C23.103,63.1164375 22.6445625,62.57925 22.04325,62.4571875 C21.9841875,62.44425 21.9251249,62.4363751 21.8666249,62.4318751 L18.9354375,62.4318751 C19.02375,62.4318751 19.1036249,62.4403125 19.1874375,62.4571875 C19.4276249,62.5033125 19.6458751,62.6208751 19.8185625,62.7806249 C20.0835,63.02025 20.2516875,63.369 20.2516875,63.7554375 Z" id="Path" fill="#2BAD3B"></path>
                        </g>
                        <path d="M21.27375,45.2008125 C20.6533125,45.2008125 20.1498751,44.7001875 20.1498751,44.0803125 L20.1498751,44.0758125 C20.1498751,43.4559375 20.6533125,42.9536249 21.27375,42.9536249 C21.8941875,42.9536249 22.3970625,43.4559375 22.3970625,44.0758125 C22.3970625,44.69625 21.8941875,45.2008125 21.27375,45.2008125 Z" id="Path" fill="#E6E6E6"></path>
                        <path d="M25.76025,45.2008125 C25.1398125,45.2008125 24.6369375,44.7001875 24.6369375,44.0803125 L24.6369375,44.0758125 C24.6369375,43.4559375 25.1398125,42.9536249 25.76025,42.9536249 C26.3806875,42.9536249 26.8841249,43.4559375 26.8841249,44.0758125 C26.8841249,44.69625 26.3806875,45.2008125 25.76025,45.2008125 Z" id="Path" fill="#E6E6E6"></path>
                        <path d="M25.76025,49.0483125 C25.1398125,49.0483125 24.6369375,48.5476875 24.6369375,47.9278125 L24.6369375,47.9238751 C24.6369375,47.3034375 25.1398125,46.8011249 25.76025,46.8011249 C26.3806875,46.8011249 26.8841249,47.3034375 26.8841249,47.9238751 C26.8841249,48.54375 26.3806875,49.0483125 25.76025,49.0483125 Z" id="Path" fill="#E6E6E6"></path>
                        <path d="M25.76025,52.8958125 C25.1398125,52.8958125 24.6369375,52.39575 24.6369375,51.7753125 L24.6369375,51.7713751 C24.6369375,51.1515 25.1398125,50.6486249 25.76025,50.6486249 C26.3806875,50.6486249 26.8841249,51.1515 26.8841249,51.7713751 C26.8841249,52.39125 26.3806875,52.8958125 25.76025,52.8958125 Z" id="Path" fill="#E6E6E6"></path>
                        <path d="M21.27375,41.35275 C20.6533125,41.35275 20.1498751,40.8526875 20.1498751,40.23225 L20.1498751,40.2283125 C20.1498751,39.6084375 20.6533125,39.1055625 21.27375,39.1055625 C21.8941875,39.1055625 22.3970625,39.6084375 22.3970625,40.2283125 C22.3970625,40.8481875 21.8941875,41.35275 21.27375,41.35275 Z" id="Path" fill="#E6E6E6"></path>
                        <path d="M25.76025,41.35275 C25.1398125,41.35275 24.6369375,40.8526875 24.6369375,40.23225 L24.6369375,40.2283125 C24.6369375,39.6084375 25.1398125,39.1055625 25.76025,39.1055625 C26.3806875,39.1055625 26.8841249,39.6084375 26.8841249,40.2283125 C26.8841249,40.8481875 26.3806875,41.35275 25.76025,41.35275 Z" id="Path" fill="#D92525"></path>
                        <path d="M20.54925,30.7153125 C20.3821875,30.7153125 20.2123125,30.6781875 20.052,30.5988751 C19.4956875,30.3238125 19.2684375,29.6505 19.5435,29.09475 C20.3979375,27.3706875 22.33125,26.2996875 24.5891249,26.2991249 C26.8475625,26.2991249 28.7808751,27.3706875 29.6353125,29.09475 C29.9103751,29.6505 29.6831249,30.3238125 29.1268125,30.5988751 C28.5705,30.8739375 27.8966249,30.6466875 27.6215625,30.0909375 C27.1563751,29.1515625 25.9661249,28.5446249 24.5891249,28.5446249 C23.2126875,28.5446249 22.0224375,29.1515625 21.55725,30.0903751 C21.3615,30.4863751 20.96325,30.7153125 20.54925,30.7153125 Z" id="Path" fill="#666666"></path>
                        <path d="M31.6316249,28.3843125 C31.2176249,28.3843125 30.8193751,28.1548125 30.6236249,27.7588125 C29.4710625,25.4289375 26.7519375,24.5981249 24.5919375,24.5975625 C24.5908125,24.5975625 24.5896875,24.5975625 24.5891249,24.5975625 C22.4268751,24.5975625 19.7060625,25.4278125 18.5501249,27.7593751 C18.2750625,28.3151249 17.6011875,28.5423751 17.0448751,28.2673125 C16.4891249,27.99225 16.2613125,27.3189375 16.5369375,26.7631875 C17.88525,24.0423751 20.9705625,22.3520625 24.5885625,22.3520625 L24.5925,22.3520625 C28.2093751,22.3531875 31.2924375,24.0435 32.6379375,26.76375 C32.913,27.3195 32.6846249,27.9928125 32.1283125,28.2678751 C31.9685625,28.3466249 31.7986875,28.3843125 31.6316249,28.3843125 Z" id="Path" fill="#666666"></path>
                    </g>
                    <g id="Group-8" transform="translate(109.000000, 10.000000)" font-size="16">
                        <g id="Group-9">
                            <text id="Programaci贸n" font-family="Montserrat-Medium, Montserrat" font-weight="400" line-spacing="26" fill="#222B45">
                                <tspan x="2.212" y="41">Programaci贸n </tspan>
                            </text>
                            <text id="Calendario-TV" font-family="Montserrat-Bold, Montserrat" font-weight="bold" fill="#B3337F">
                                <tspan x="1.972" y="15">Calendario TV</tspan>
                            </text>
                        </g>
                    </g>
                    <g id="Group" transform="translate(72.000000, 75.000000)">
                        <rect id="Rectangle-Copy-5" fill="#FD9B5B" x="0" y="0" width="191" height="48" rx="24"></rect>
                        <g id="Group-2" transform="translate(44.000000, 16.000000)">
                            <g id="Group-3">
                                <g id="Group-10">
                                    <text id="Consultar" font-family="Montserrat-Medium, Montserrat" font-size="18" font-weight="400" line-spacing="16" fill="#FFFFFF">
                                        <tspan x="0" y="17">Consultar</tspan>
                                    </text>
                                    <g id="Arrow_down" transform="translate(103.500000, 8.000000) rotate(-90.000000) translate(-103.500000, -8.000000) translate(98.500000, 5.000000)">
                                        <mask id="mask-2" fill="white">
                                            <use xlink:href="#path-1"></use>
                                        </mask>
                                        <use id="-Icon-小olor" fill="#FFFFFF" fill-rule="nonzero" transform="translate(5.000080, 2.999636) rotate(-270.000000) translate(-5.000080, -2.999636) " xlink:href="#path-1"></use>
                                    </g>
                                </g>
                            </g>
                        </g>
                    </g>
                </g>
            </g>
        </g>
    </g>
</svg>