<?xml version="1.0" encoding="UTF-8"?>
<svg width="274px" height="124px" viewBox="0 0 274 124" version="1.1" xmlns="http://www.w3.org/2000/svg" xmlns:xlink="http://www.w3.org/1999/xlink">
    <!-- Generator: Sketch 63.1 (92452) - https://sketch.com -->
    <title>experiecnias@3x</title>
    <desc>Created with Sketch.</desc>
    <defs>
        <path d="M3.00025,7.99927241 C2.74425,7.99927241 2.48825,7.90127241 2.29325,7.70627241 C1.90225,7.31527241 1.90225,6.68327241 2.29325,6.29227241 L5.59825,2.98727241 L2.41825,-0.305727588 C2.03525,-0.703727588 2.04625,-1.33672759 2.44325,-1.71972759 C2.84125,-2.10272759 3.47425,-2.09172759 3.85725,-1.69572759 L7.71925,2.30427241 C8.09825,2.69727241 8.09325,3.32027241 7.70725,3.70627241 L3.70725,7.70627241 C3.51225,7.90127241 3.25625,7.99927241 3.00025,7.99927241" id="path-1"></path>
        <path d="M6.30562944,0.32478336 C5.71135488,3.66554496 3.73152384,6.02823936 0.31688448,6.65736192 L0.31688448,6.65736192 C0.04553472,6.70800768 0.04553472,7.09644672 0.31688448,7.1461632 L0.31688448,7.1461632 C3.69992832,7.76785152 5.71460736,10.1258995 6.30702336,13.439712 L6.30702336,13.439712 C6.34419456,13.6488 6.56675712,13.6497293 6.5537472,13.6450829 L6.5537472,13.6450829 C6.67501824,13.6450829 6.7790976,13.5577306 6.8000064,13.4392474 L6.8000064,13.4392474 C7.10155776,11.7303014 7.94859648,9.40849536 10.2717965,8.05267584 L10.2717965,8.05267584 C11.0138266,7.620096 11.866441,7.31436288 12.8050138,7.14291072 L12.8050138,7.14291072 C12.9239616,7.120608 13.00992,7.01745792 13.00992,6.8975808 L13.00992,6.8975808 C13.00992,6.77770368 12.923497,6.6745536 12.8040845,6.65318016 L12.8040845,6.65318016 C12.3924134,6.57883776 11.992823,6.47754624 11.6178586,6.35209344 L11.6178586,6.35209344 C8.86579584,5.43303552 7.31018112,3.19951104 6.79861248,0.32478336 L6.79861248,0.32478336 C6.77398656,0.18864384 6.66340224,0.1208064 6.55188864,0.1208064 L6.55188864,0.1208064 C6.44130432,0.1208064 6.33025536,0.18864384 6.30562944,0.32478336 L6.30562944,0.32478336 Z" id="path-3"></path>
        <path d="M0.31688448,1.08168192 C0.04553472,1.13232768 0.04553472,1.52076672 0.31688448,1.5704832 L0.31688448,1.5704832 C3.69992832,2.19217152 5.71460736,4.55021952 6.30702336,7.864032 L6.30702336,7.864032 C6.34419456,8.07265536 6.56675712,8.07404928 6.5537472,8.06940288 L6.5537472,8.06940288 C6.67501824,8.06940288 6.7790976,7.98205056 6.8000064,7.86356736 L6.8000064,7.86356736 C6.96681216,6.91756032 7.3018176,5.78383872 7.96067712,4.7300352 L7.96067712,4.7300352 C7.06670976,2.25768576 5.35776384,0.71879808 2.93141376,0.1138368 L2.93141376,0.1138368 C2.12990976,0.60077952 1.24105344,0.91162368 0.31688448,1.08168192 L0.31688448,1.08168192 Z" id="path-5"></path>
        <path d="M2.43331968,0.2021184 C2.32412928,0.2021184 2.22748416,0.27274368 2.19449472,0.3763584 L2.19449472,0.3763584 C1.89154944,1.33862784 1.25592192,2.07508224 0.2648448,2.41241088 L0.2648448,2.41241088 C0.0394944,2.48907648 0.0394944,2.80596096 0.2648448,2.88262656 L0.2648448,2.88262656 C1.24941696,3.217632 1.8887616,3.94804608 2.195424,4.92007296 L2.195424,4.92007296 C2.25164544,5.09895936 2.44121856,5.09663616 2.43424896,5.09431296 L2.43424896,5.09431296 C2.543904,5.09384832 2.64054912,5.02322304 2.67307392,4.91914368 L2.67307392,4.91914368 C2.8993536,4.19198208 3.29847936,3.62930304 3.86022912,3.2478336 L3.86022912,3.2478336 C4.47355392,2.83012224 4.77464064,2.95139328 4.77417654,2.64937728 L4.77417654,2.64937728 C4.77417654,2.54204544 4.70540928,2.44725888 4.60272384,2.41334016 L4.60272384,2.41334016 C3.62930304,2.09273856 2.98577664,1.37208192 2.67260928,0.3763584 L2.67260928,0.3763584 C2.62335744,0.21931008 2.47049088,0.20118912 2.43889536,0.20118912 L2.43889536,0.20118912 C2.4347136,0.20118912 2.4323904,0.20165376 2.43331968,0.2021184 L2.43331968,0.2021184 Z" id="path-7"></path>
        <path d="M46.3901222,0.46882176 L5.56081152,8.40580224 C4.91542656,8.53125504 4.4349888,9.07348992 4.38806016,9.72816768 L4.38806016,9.72816768 L0.05668608,36.9546778 C-0.01254528,37.9099776 0.84471552,38.6691994 1.78375296,38.4870605 L1.78375296,38.4870605 L42.6130637,30.5505446 C43.2584486,30.4255565 43.7388864,29.8833216 43.7853504,29.2281792 L43.7853504,29.2281792 L48.1167245,2.00166912 C47.9587469,1.18622592 47.4425318,0.44326656 46.6512499,0.44326656 L46.6512499,0.44326656 C46.5671501,0.44326656 46.4797978,0.45163008 46.3901222,0.46882176 L46.3901222,0.46882176 Z" id="path-9"></path>
        <path d="M2.4114816,0.3322176 L0.34336896,0.73506048 L1.93894272,8.94432 L5.587296,8.23527936 L4.29884928,1.6053312 C4.1492352,0.83588736 3.47504256,0.30248064 2.71953792,0.30248064 L2.71953792,0.30248064 C2.6182464,0.30248064 2.51463168,0.31223808 2.4114816,0.3322176 L2.4114816,0.3322176 Z" id="path-11"></path>
        <path d="M1.5007872,0.6946368 C0.62865792,0.8642304 0.05854464,1.70848128 0.22813824,2.58153984 L0.22813824,2.58153984 L7.80455808,41.5587955 C7.86821376,41.5481088 7.93186944,41.5392806 7.99320192,41.5304525 L7.99320192,41.5304525 L9.6203712,31.4189568 L3.57029376,0.29225856 L1.5007872,0.6946368 Z" id="path-13"></path>
        <path d="M21.1039488,2.77250688 L0.1231296,6.85065216 L5.22301824,33.0865498 L5.31734016,32.4955277 C5.3642688,31.8408499 5.84470656,31.298615 6.49009152,31.1731622 L6.49009152,31.1731622 L8.31380352,30.8186419 L39.5747827,24.74208 L37.4467315,13.7956262 L34.7871322,0.11244288 L21.1039488,2.77250688 Z" id="path-15"></path>
        <path d="M22.9848115,0.18539136 L1.09236864,4.44102912 C0.58823424,4.53906816 0.25926912,5.02601088 0.35730816,5.53060992 L0.35730816,5.53060992 C0.45581184,6.03520896 0.9432192,6.3632448 1.44688896,6.2656704 L1.44688896,6.2656704 L23.3397965,2.01003264 C23.8430016,1.9119936 24.1724314,1.42505088 24.074857,0.92045184 L24.074857,0.92045184 C23.9879693,0.476256 23.5990656,0.16819968 23.1636979,0.16819968 L23.1636979,0.16819968 C23.1046886,0.16819968 23.0447501,0.17377536 22.9848115,0.18539136 L22.9848115,0.18539136 Z" id="path-17"></path>
        <path d="M9.90194304,0.46417536 L0.78013056,2.2372416 C0.27692544,2.33528064 -0.05250432,2.82222336 0.04507008,3.3268224 L0.04507008,3.3268224 C0.14357376,3.83142144 0.63098112,4.15945728 1.13511552,4.06188288 L1.13511552,4.06188288 L10.256928,2.288352 C10.7605978,2.1907776 11.0900275,1.70337024 10.9919885,1.19923584 L10.9919885,1.19923584 C10.9055654,0.75504 10.5161971,0.44698368 10.0803648,0.44698368 L10.0803648,0.44698368 C10.0213555,0.44698368 9.9618816,0.45255936 9.90194304,0.46417536 L9.90194304,0.46417536 Z" id="path-19"></path>
        <path d="M22.831945,0.06597888 L0.93996672,4.32161664 C0.43583232,4.4187264 0.10640256,4.9065984 0.20490624,5.41119744 L0.20490624,5.41119744 C0.30248064,5.91533184 0.79035264,6.24383232 1.2940224,6.14579328 L1.2940224,6.14579328 L23.1873946,1.89015552 C23.6905997,1.79258112 24.0200294,1.30517376 23.9219904,0.80103936 L23.9219904,0.80103936 C23.8355674,0.35637888 23.4466637,0.0487872 23.011296,0.0487872 L23.011296,0.0487872 C22.9522867,0.0487872 22.8923482,0.05436288 22.831945,0.06597888 L22.831945,0.06597888 Z" id="path-21"></path>
        <path d="M0.10779648,3.0410688 L11.1792384,10.5087629 C13.2413107,7.45189632 12.434231,3.3012672 9.37736448,1.23919488 L9.37736448,1.23919488 C8.23249152,0.4669632 6.93428736,0.09710976 5.65048704,0.09710976 L5.65048704,0.09710976 C3.50477952,0.09710976 1.39763712,1.1290752 0.10779648,3.0410688 L0.10779648,3.0410688 Z" id="path-23"></path>
        <path d="M0.71508096,1.49056512 C0.68580864,1.50032256 0.65467776,1.50729216 0.62540544,1.51333248 L0.62540544,1.51333248 C0.56035584,1.52587776 0.49670016,1.51751424 0.43257984,1.5147264 L0.43257984,1.5147264 L0.00139392,11.8325222 L1.39113216,9.77184384 C1.649472,9.38898048 2.16708096,9.2881536 2.54994432,9.54649344 L2.54994432,9.54649344 C2.93234304,9.80483328 3.03316992,10.3224422 2.77529472,10.704841 L2.77529472,10.704841 L1.3846272,12.765984 L10.784759,8.50337664 C10.7461939,8.41834752 10.7141338,8.32820736 10.7062349,8.23063296 L10.7062349,8.23063296 L10.3558963,3.94339968 L6.25033728,5.22534144 C6.2215296,5.23463424 6.191328,5.24206848 6.16205568,5.24764416 L6.16205568,5.24764416 L6.16066176,5.24764416 L6.16019712,5.24764416 C6.13046016,5.25368448 6.10025856,5.25786624 6.07005696,5.26065408 L6.07005696,5.26065408 C6.03753216,5.26344192 6.0077952,5.250432 5.97573504,5.24903808 L5.97573504,5.24903808 C5.91393792,5.24671488 5.854464,5.2434624 5.79591936,5.2272 L5.79591936,5.2272 C5.75084928,5.21511936 5.71135488,5.19792768 5.66907264,5.180736 L5.66907264,5.180736 C5.61610368,5.15611008 5.5663872,5.1296256 5.51945856,5.09524224 L5.51945856,5.09524224 C5.48182272,5.06875776 5.44976256,5.03948544 5.41723776,5.00742528 L5.41723776,5.00742528 C5.37681408,4.9670016 5.34196608,4.92332544 5.3108352,4.8740736 L5.3108352,4.8740736 C5.28388608,4.83364992 5.262048,4.7927616 5.24299776,4.7462976 L5.24299776,4.7462976 C5.23231104,4.72167168 5.21419008,4.70262144 5.20582656,4.67613696 L5.20582656,4.67613696 C5.19653376,4.64593536 5.20257408,4.61480448 5.19653376,4.58413824 L5.19653376,4.58413824 C5.1900288,4.55300736 5.17283712,4.52745216 5.17051392,4.495392 L5.17051392,4.495392 L4.82110464,0.209088 L0.71508096,1.49056512 Z" id="path-25"></path>
        <path d="M5.03995008,25.805641 L1.21410432,26.9997658 L0.46603392,28.1083968 L0.43165056,28.928951 C0.49577088,28.9312742 0.55896192,28.9396378 0.62401152,28.9270925 L0.62401152,28.9270925 C0.65374848,28.9215168 0.68487936,28.9140826 0.71461632,28.9043251 L0.71461632,28.9043251 L4.82017536,27.622848 L5.17004928,31.909152 C5.17283712,31.9416768 5.18956416,31.967232 5.19513984,31.9983629 L5.19513984,31.9983629 C5.20210944,32.0294938 5.19513984,32.0596954 5.20489728,32.089897 L5.20489728,32.089897 C5.21372544,32.1163814 5.23138176,32.1358963 5.24253312,32.1609869 L5.24253312,32.1609869 C5.26111872,32.2055923 5.28388608,32.2478746 5.30990592,32.2882982 L5.30990592,32.2882982 C5.3410368,32.3356915 5.3758848,32.3812262 5.41630848,32.4211853 L5.41630848,32.4211853 C5.44836864,32.4527808 5.48228736,32.483447 5.51852928,32.5094669 L5.51852928,32.5094669 C5.56499328,32.542921 5.61563904,32.5698701 5.66814336,32.594496 L5.66814336,32.594496 C5.70949632,32.612617 5.75131392,32.629344 5.79499008,32.64096 L5.79499008,32.64096 C5.85307008,32.6558285 5.91347328,32.6604749 5.9752704,32.6627981 L5.9752704,32.6627981 C6.0077952,32.664192 6.03660288,32.6762726 6.06912768,32.6744141 L6.06912768,32.6744141 C6.09932928,32.6720909 6.12906624,32.6679091 6.15973248,32.6614042 L6.15973248,32.6614042 L6.16019712,32.6614042 L6.16066176,32.6614042 L6.16205568,32.6614042 L6.16298496,32.6614042 C6.191328,32.6558285 6.2215296,32.6483942 6.25126656,32.6391014 L6.25126656,32.6391014 L10.3568256,31.3571597 L10.7062349,35.644393 C10.7145984,35.7428966 10.7461939,35.8321075 10.784759,35.9171366 L10.784759,35.9171366 L11.5374758,35.5765555 L12.2860109,34.4679245 L11.9598336,30.4734144 L29.0636966,5.11429248 L27.6799987,4.18036608 L10.5761357,29.539488 L6.74936064,30.7336128 L6.423648,26.7386381 L23.528905,1.38044544 L22.145207,0.44698368 L5.03995008,25.805641 Z" id="path-27"></path>
        <path d="M13.5052262,0.952512 C12.405888,2.02257792 11.4756787,3.2617728 10.4320973,4.3885248 L10.4320973,4.3885248 C9.2765376,5.62771968 8.20507776,6.86691456 7.0207104,8.07730176 L7.0207104,8.07730176 C6.34419456,8.7538176 5.61099264,9.48609024 5.1598272,10.3308058 L5.1598272,10.3308058 C4.14505344,9.34530432 3.2710656,8.2752384 2.14338432,7.40217984 L2.14338432,7.40217984 C1.32515328,6.78235008 -0.02741376,6.33164928 0.00046464,7.8245376 L0.00046464,7.8245376 C0.05668608,9.76766208 1.77678336,11.8520371 3.0457152,13.1753318 L3.0457152,13.1753318 C3.58098048,13.7389402 4.28583936,14.3304269 5.1040704,14.3578406 L5.1040704,14.3578406 C6.09050112,14.4145267 7.10527488,13.2320179 7.69722624,12.5843098 L7.69722624,12.5843098 C8.74034304,11.4575578 9.58691712,10.1900198 10.5450048,9.03538944 L10.5450048,9.03538944 C11.7855936,7.51462272 13.0540608,6.02219904 14.2667712,4.47308928 L14.2667712,4.47308928 C15.0278515,3.51546624 17.4244646,1.14951936 15.5352384,0.13567488 L15.5352384,0.13567488 C15.3925939,0.05900928 15.246697,0.02601984 15.1008,0.02601984 L15.1008,0.02601984 C14.496768,0.02601984 13.8918067,0.58962816 13.5052262,0.952512 L13.5052262,0.952512 Z M0.8177664,7.62753024 C0.90233088,7.57084416 1.04358144,7.5991872 1.2405888,7.71163008 L1.2405888,7.71163008 C1.2127104,7.71163008 1.184832,7.71163008 1.12768128,7.73997312 L1.12768128,7.73997312 C1.0152384,7.71163008 0.93067392,7.68375168 0.8177664,7.62753024 L0.8177664,7.62753024 Z" id="path-29"></path>
        <path d="M0.0746168802,0.194086911 L0.0746168802,2.90673093 L0,4.6464 L1.61721724,3.9274655 L4.13398243,2.90673093 C4.42053198,2.48807226 3.34221442,0.689465806 2.91679457,0.406972816 L2.91679457,0.406972816 C2.63231772,0.218474795 1.59027226,0 0.843067111,0 L0.843067111,0 C0.46998271,0 0.170478844,0.0548727392 0.0746168802,0.194086911 L0.0746168802,0.194086911 Z" id="path-31"></path>
    </defs>
    <g id="Screens" stroke="none" stroke-width="1" fill="none" fill-rule="evenodd">
        <g id="Sección-de-padres-(Alimentación)-" transform="translate(-912.000000, -824.000000)">
            <g id="Group-16" transform="translate(259.000000, 825.000000)">
                <g id="experiecnias" transform="translate(653.000000, 0.000000)">
                    <g id="Group-15-Copy-3" transform="translate(18.000000, 0.000000)">
                        <rect id="Rectangle" stroke="#E4E9F2" fill="#FFFFFF" x="0" y="0" width="255" height="99" rx="4"></rect>
                        <g id="Group-8" transform="translate(33.000000, 10.000000)" font-size="16">
                            <g id="Group-9">
                                <text id="Actividades-escolare" font-family="Montserrat-Medium, Montserrat" font-weight="400" line-spacing="26" fill="#222B45">
                                    <tspan x="28.324" y="41">Actividades escolares</tspan>
                                </text>
                                <text id="Carpeta-de-experienc" font-family="Montserrat-Bold, Montserrat" font-weight="bold" fill="#B3337F">
                                    <tspan x="0.028" y="15">Carpeta de experiencias</tspan>
                                </text>
                            </g>
                        </g>
                        <g id="Group" transform="translate(51.000000, 75.000000)">
                            <rect id="Rectangle-Copy-6" fill="#F1315B" x="0" y="0" width="191" height="48" rx="24"></rect>
                            <g id="Group-2" transform="translate(44.000000, 16.000000)">
                                <g id="Group-3">
                                    <g id="Group-10">
                                        <text id="Consultar" font-family="Montserrat-Medium, Montserrat" font-size="18" font-weight="400" line-spacing="16" fill="#FFFFFF">
                                            <tspan x="0" y="17">Consultar</tspan>
                                        </text>
                                        <g id="Arrow_down" transform="translate(103.500000, 8.000000) rotate(-90.000000) translate(-103.500000, -8.000000) translate(98.500000, 5.000000)">
                                            <mask id="mask-2" fill="white">
                                                <use xlink:href="#path-1"></use>
                                            </mask>
                                            <use id="🎨-Icon-Сolor" fill="#FFFFFF" fill-rule="nonzero" transform="translate(5.000080, 2.999636) rotate(-270.000000) translate(-5.000080, -2.999636) " xlink:href="#path-1"></use>
                                        </g>
                                    </g>
                                </g>
                            </g>
                        </g>
                    </g>
                    <g id="Group-20" transform="translate(0.000000, 10.000000)">
                        <g id="Group-19">
                            <g id="Group-55">
                                <g id="Group-6" transform="translate(63.191040, 0.000000)">
                                    <mask id="mask-4" fill="white">
                                        <use xlink:href="#path-3"></use>
                                    </mask>
                                    <g id="Clip-4"></g>
                                </g>
                                <g id="Group-9" transform="translate(63.191040, 5.575680)">
                                    <mask id="mask-6" fill="white">
                                        <use xlink:href="#path-5"></use>
                                    </mask>
                                    <g id="Clip-8"></g>
                                </g>
                                <g id="Group-12" transform="translate(60.403200, 10.686720)">
                                    <mask id="mask-8" fill="white">
                                        <use xlink:href="#path-7"></use>
                                    </mask>
                                    <g id="Clip-11"></g>
                                </g>
                                <g id="Group-15" transform="translate(7.898880, 33.454080)">
                                    <mask id="mask-10" fill="white">
                                        <use xlink:href="#path-9"></use>
                                    </mask>
                                    <g id="Clip-14"></g>
                                    <polygon id="Fill-13" fill="#EFCE4A" mask="url(#mask-10)" points="-7.86445018 8.64894835 49.6045482 -2.52192653 55.9877725 30.3174348 -1.48122586 41.4883096"></polygon>
                                </g>
                                <g id="Group-18" transform="translate(44.605440, 26.484480)">
                                    <mask id="mask-12" fill="white">
                                        <use xlink:href="#path-11"></use>
                                    </mask>
                                    <g id="Clip-17"></g>
                                    <polygon id="Fill-16" fill="#EBBA16" mask="url(#mask-12)" points="-2.38086182 -1.10259072 5.82886234 -2.69862912 8.31143386 10.0724659 0.101709696 11.6680397"></polygon>
                                </g>
                                <g id="Group-21" transform="translate(0.000000, 28.343040)">
                                    <mask id="mask-14" fill="white">
                                        <use xlink:href="#path-13"></use>
                                    </mask>
                                    <g id="Clip-20"></g>
                                    <polygon id="Fill-19" fill="#EBBA16" mask="url(#mask-14)" points="-2.80238323 -0.835376256 5.40734093 -2.43141466 14.1792795 42.6953514 5.96909069 44.2913898"></polygon>
                                </g>
                                <g id="Group-24" transform="translate(6.969600, 10.686720)">
                                    <mask id="mask-16" fill="white">
                                        <use xlink:href="#path-15"></use>
                                    </mask>
                                    <g id="Clip-23"></g>
                                    <polygon id="Fill-22" fill="#F4EFDC" mask="url(#mask-16)" points="-2.60049715 5.0134656 36.6244116 -2.6112768 42.6108334 28.1859917 3.38592461 35.8102694"></polygon>
                                </g>
                                <g id="Group-27" transform="translate(14.868480, 24.625920)">
                                    <mask id="mask-18" fill="white">
                                        <use xlink:href="#path-17"></use>
                                    </mask>
                                    <g id="Clip-26"></g>
                                    <polygon id="Fill-25" fill="#CEC9AE" mask="url(#mask-18)" points="-2.54376461 2.78124211 25.7342258 -2.71591373 26.9757439 3.66963379 -1.30271117 9.16632499"></polygon>
                                </g>
                                <g id="Group-30" transform="translate(13.939200, 20.444160)">
                                    <mask id="mask-20" fill="white">
                                        <use xlink:href="#path-19"></use>
                                    </mask>
                                    <g id="Clip-29"></g>
                                    <polygon id="Fill-28" fill="#CEC9AE" mask="url(#mask-20)" points="-2.85595622 0.577640448 12.6518684 -2.43694387 13.8929219 3.94860365 -1.61443814 6.96318797"></polygon>
                                </g>
                                <g id="Group-33" transform="translate(16.262400, 31.130880)">
                                    <mask id="mask-22" fill="white">
                                        <use xlink:href="#path-21"></use>
                                    </mask>
                                    <g id="Clip-32"></g>
                                    <polygon id="Fill-31" fill="#CEC9AE" mask="url(#mask-22)" points="-2.69667763 2.66145792 25.5817774 -2.83523328 26.8228308 3.55031424 -1.45515955 9.04700544"></polygon>
                                </g>
                                <polygon id="Fill-34" fill="#CEC9AE" points="4.71089203 19.893701 10.9147653 51.8084287 12.1925253 43.7734092 7.44762163 19.3612236"></polygon>
                                <polygon id="Fill-35" fill="#D1BF86" points="2.32854336 22.2501228 9.63593664 59.8427512 10.9146259 51.808661 5.06527296 21.71811"></polygon>
                                <g id="Group-38" transform="translate(65.049600, 25.555200)">
                                    <mask id="mask-24" fill="white">
                                        <use xlink:href="#path-23"></use>
                                    </mask>
                                    <g id="Clip-37"></g>
                                    <polygon id="Fill-36" fill="#D75A4A" mask="url(#mask-24)" points="-2.98888973 -0.71601024 12.7610124 -3.7775232 15.8225253 11.9728435 0.072623232 15.0343565"></polygon>
                                </g>
                                <polygon id="Fill-39" fill="#ED8A19" points="52.8479677 66.2497651 53.1736804 70.2447398 72.0278423 42.2906035 69.9518308 40.8906432"></polygon>
                                <polygon id="Fill-40" fill="#ED8A19" points="47.3121539 62.5158716 47.6378665 66.5108463 51.4641769 65.3167215 68.5685046 39.9575996 64.4174108 37.157679"></polygon>
                                <polygon id="Fill-41" fill="#ED8A19" points="42.1025172 62.7772316 45.928363 61.5831068 63.03362 36.2244495 60.9571438 34.8240246"></polygon>
                                <polygon id="Fill-42" fill="#C7CAC7" points="63.7569251 30.6730237 63.7578543 30.6730237 74.8279023 38.1393239 76.2287919 36.0642417 65.15735 28.5965476"></polygon>
                                <polygon id="Fill-43" fill="#C7CAC7" points="61.8906056 33.4401408 72.9615828 40.9069056 73.89458 39.5232077 62.8236027 32.0564429"></polygon>
                                <g id="Group-46" transform="translate(40.888320, 63.191040)">
                                    <mask id="mask-26" fill="white">
                                        <use xlink:href="#path-25"></use>
                                    </mask>
                                    <g id="Clip-45"></g>
                                    <polygon id="Fill-44" fill="#FBCE9D" mask="url(#mask-26)" points="-4.72404134 -0.302666496 11.2925641 -3.4157545 14.4056521 12.6013156 -1.61095334 15.7148682"></polygon>
                                </g>
                                <polygon id="Fill-47" fill="#F2ECBF" points="63.7569251 30.6730237 62.8234633 32.056257 73.8949052 39.5234865 74.8279023 38.1393239 63.7578543 30.6730237"></polygon>
                                <g id="Group-50" transform="translate(40.888320, 35.777280)">
                                    <mask id="mask-28" fill="white">
                                        <use xlink:href="#path-27"></use>
                                    </mask>
                                    <g id="Clip-49"></g>
                                    <polygon id="Fill-48" fill="#EBBA16" mask="url(#mask-28)" points="-6.83624832 3.71396045 29.7750605 -3.40246579 36.8914867 33.208843 0.28017792 40.3257339"></polygon>
                                </g>
                                <polygon id="Fill-51" fill="#F2ECBF" points="60.9572367 34.8238387 63.0337129 36.2242637 64.4174108 37.1577254 68.5685046 39.9576461 69.9517379 40.8906432 72.028214 42.2906035 72.9612111 40.9069056 61.8906985 33.4401408"></polygon>
                                <g id="Group-54" transform="translate(21.838080, 19.050240)">
                                    <mask id="mask-30" fill="white">
                                        <use xlink:href="#path-29"></use>
                                    </mask>
                                    <g id="Clip-53"></g>
                                    <polygon id="Fill-52" fill="#00A2AA" mask="url(#mask-30)" points="-2.3232 16.6833638 18.5684083 16.6833638 18.5684083 -2.2976448 -2.3232 -2.2976448"></polygon>
                                </g>
                            </g>
                            <g id="Group-3" transform="translate(40.888320, 72.019200)">
                                <mask id="mask-32" fill="white">
                                    <use xlink:href="#path-31"></use>
                                </mask>
                                <g id="Clip-2"></g>
                                <polygon id="Fill-1" fill="#38454F" mask="url(#mask-32)" points="-3.71712 -1.90946324 5.61257133 -3.71712 7.43424 5.62658324 -1.89545133 7.43424"></polygon>
                            </g>
                        </g>
                    </g>
                </g>
            </g>
        </g>
    </g>
</svg>