<?xml version="1.0" encoding="UTF-8"?>
<svg width="62px" height="62px" viewBox="0 0 62 62" version="1.1" xmlns="http://www.w3.org/2000/svg" xmlns:xlink="http://www.w3.org/1999/xlink">
    <!-- Generator: Sketch 63.1 (92452) - https://sketch.com -->
    <title>formation adultos 2@3x</title>
    <desc>Created with Sketch.</desc>
    <g id="Screens" stroke="none" stroke-width="1" fill="none" fill-rule="evenodd">
        <g id="Sección-de-padres-(Alimentación)-" transform="translate(-1030.000000, -1052.000000)">
            <g id="formacion" transform="translate(1020.000000, 1031.000000)">
                <g id="formation-adultos-2" transform="translate(10.000000, 21.000000)">
                    <g id="Layer-5">
                        <path d="M0.133527806,30.9664491 C0.133527806,13.90536 13.9642848,0.0745966286 31.0253739,0.0745966286 C48.0865269,0.0745966286 61.9172743,13.90536 61.9172743,30.9664491 C61.9172743,48.0275383 48.0865269,61.8582857 31.0253739,61.8582857 C13.9642848,61.8582857 0.133527806,48.0275383 0.133527806,30.9664491 Z" id="Path" fill="#5E6CD0"></path>
                        <path d="M43.4777657,4.61351211 C43.7698389,10.1120441 45.907776,17.345988 45.907776,17.345988 C45.932328,17.6538446 46.2027189,17.9082288 46.5113726,17.9141914 C46.5113726,17.9141914 50.9562411,17.7462813 51.3152743,19.3850475 C52.6940126,25.6762265 54.7244949,36.8624366 54.7244949,42.3317931 L39.1480046,43.5504651 C38.845728,43.6142366 38.5676846,43.5099703 38.5268709,43.3173806 C38.5268709,43.3173806 39.196152,29.937816 37.0798971,24.1808503 C35.5717029,20.0782749 41.3713954,18.948564 41.3713954,18.948564 C41.6765417,18.9006717 41.8866686,18.6142423 41.841072,18.308809 C41.841072,18.308809 41.6596423,16.5554136 41.3516263,16.5791366 C41.3516263,16.5791366 37.4784686,18.5733967 36.7706057,17.7244077 C34.6773086,15.2141091 33.7899291,7.98156823 33.8501931,5.87092526 C33.9050366,3.94388023 43.3750937,2.68171611 43.4777657,4.61351211 Z" id="Path" fill="#FA9B61"></path>
                        <path d="M42.2007429,8.75779406 C42.2007429,7.67970617 43.0747303,6.80571874 44.1527863,6.80571874 C45.2308423,6.80571874 46.1048297,7.67970617 46.1048297,8.75779406 C46.1048297,9.83591383 45.2308423,10.7098694 44.1527863,10.7098694 C43.0747303,10.7098694 42.2007429,9.83591383 42.2007429,8.75779406 Z" id="Path" fill="#FA9B61"></path>
                        <path d="M49.8912583,18.3243374 C51.195384,21.920185 54.7987886,34.4652686 45.497088,43.0555989 L54.7238571,42.3282857 C54.7235383,36.8589291 52.6946503,25.6717306 51.3162309,19.3805198 C51.1979349,18.8407265 50.5911497,18.542627 49.8912583,18.3243374 Z" id="Path" fill="#DE844D"></path>
                    </g>
                    <g id="Layer-4" transform="translate(7.333714, 1.594286)" fill="#52B572">
                        <path d="M16.5606429,0.298928571 C14.7094539,0.440851886 13.1563327,1.17237394 12.9137143,3.08892857 C12.8368059,3.69654274 12.6509441,4.71634354 12.5250912,5.52021429 C12.3389105,5.47171611 12.1585011,5.41062309 11.9571429,5.41062309 C10.6836274,5.4105912 9.65537691,6.43884171 9.65537691,7.71235714 C9.65537691,8.93278286 10.6078032,9.90309703 11.8076626,9.98421429 C11.4037025,12.2613007 11.0089893,14.3171321 10.9009286,14.8866429 C10.6768995,16.0671795 9.75836777,14.846148 7.41342857,14.7172341 C4.99639577,14.5843982 2.6784,15.2792835 1.66405166,22.3797857 C0.649671429,29.480256 0.118009029,37.9781177 0.189337371,43.8728297 C0.260633829,49.7672229 2.30747349,45.5025086 2.6505,45.477 L20.646,48.4761703 C20.5561461,45.1737669 20.0703991,36.435168 22.5392143,26.3356231 C24.6604114,17.6578941 20.9639962,17.6029231 18.5634802,17.1186429 C17.7352807,16.9515617 17.7806859,16.3074065 17.8659483,15.7535198 C17.9512426,15.1996649 18.1748571,14.4083571 18.1748571,14.4083571 L21.0844286,15.1257857 C21.5990321,15.1779189 22.3642893,14.8970695 23.0075198,13.4816626 C23.6507822,12.0662877 24.4523571,6.53657143 24.4523571,6.53657143 C24.8134629,4.62566057 24.8861623,1.89841166 22.0011429,1.03628571 C20.5585694,0.605222743 18.4118318,0.157005257 16.5606429,0.298928571 Z" id="Path"></path>
                    </g>
                    <g id="Layer-6" transform="translate(10.203429, 1.594286)" fill="#68CD88">
                        <path d="M15.1158055,0.288948343 C14.6317166,0.260155543 14.1537178,0.263439771 13.6909286,0.298928571 C11.8397397,0.440851886 10.2866184,1.17237394 10.044,3.08892857 C9.96709166,3.69654274 9.78122983,4.71634354 9.65537691,5.52021429 C9.46919623,5.47171611 9.28878686,5.4105912 9.08742857,5.41062309 C7.81391314,5.4105912 6.78566263,6.43884171 6.78566263,7.71235714 C6.78566263,8.93278286 7.73808891,9.90309703 8.93794834,9.98421429 C8.53398823,12.2613007 8.13927497,14.3171321 8.03121429,14.8866429 C7.95334937,15.2969801 7.74966343,15.3682447 7.47321429,15.345 L7.57285714,15.624 C4.22635577,15.2112075 3.4875,17.9257659 3.4875,17.9257659 C-2.39385189,32.127408 0.7001784,41.1124834 4.59351977,46.2840274 L17.7762857,48.4761703 C17.6864318,45.1737669 17.2006848,36.435168 19.6695,26.3356231 C21.7906971,17.6578941 18.0942819,17.6029231 15.6937659,17.1186429 C14.8655664,16.9515617 14.9109717,16.3074065 14.9962341,15.7535198 C15.0815283,15.1996649 15.3051429,14.4083571 15.3051429,14.4083571 L18.2147143,15.1257857 C18.7293178,15.1779189 19.494575,14.8970695 20.1378055,13.4816626 C20.7810679,12.0662877 21.5826429,6.53657143 21.5826429,6.53657143 C21.9437486,4.62566057 22.016448,1.89841166 19.1314286,1.03628571 C18.0495144,0.712996457 16.5681679,0.375358629 15.1158055,0.288948343 Z" id="Path"></path>
                    </g>
                    <g id="Layer-1" transform="translate(7.014857, 32.523429)">
                        <path d="M11.8289304,5.44639886 L11.6870071,1.66315886 C11.6870071,1.66315886 21.5516818,0.592436571 23.4678219,3.51890743 C23.4678219,3.51890743 30.9195771,-0.835405714 35.1068091,0.592436571 L35.1068091,4.66105371 L24.603336,10.2289371 L11.8289304,5.44639886 Z" id="Path" fill="#FEFFFE"></path>
                        <path d="M10.1966688,5.08927886 C10.1966688,5.08927886 19.5645322,2.091384 23.6807229,6.73107429 C23.6807229,6.73107429 26.924616,4.82367086 30.3941006,3.73222286 C32.7756446,2.98290857 35.263368,2.61845486 36.8809303,3.51890743 L36.2422594,20.4365109 C36.2422594,20.4365109 27.6551177,17.010072 23.8936238,21.079008 C23.8936238,21.079008 13.9580033,18.0807943 12.1837865,20.5793589 L10.1966688,5.08927886 Z" id="Path" fill="#1EB1EA"></path>
                        <g id="Group-11" transform="translate(0.000000, 11.000000)">
                            <path d="M2.9906568,-5.89750471e-13 L16.570081,-5.89750471e-13 C18.2217929,-5.89750471e-13 19.5607378,1.33888114 19.5607378,2.99056114 L19.5607378,9.52234971 C19.5607378,11.1740297 18.2217929,12.5132297 16.570081,12.5132297 L2.9906568,12.5132297 C1.33894491,12.5132297 3.5722536e-12,11.1740297 3.5722536e-12,9.52234971 L3.5722536e-12,2.99056114 C3.5722536e-12,1.33888114 1.33894491,-5.89750471e-13 2.9906568,-5.89750471e-13 Z" id="Path" fill="#D23689"></path>
                            <path d="M7.05758056,4.32409845 L7.00005873,8.23647559 C6.99607302,8.50654759 7.19545439,8.64238073 7.44534273,8.53970873 L12.1497291,6.60966645 C12.3996175,6.5073133 12.4038583,6.33130416 12.1591673,6.21683445 L7.50780684,4.04222873 C7.26314776,3.92775902 7.06156627,4.05402645 7.05758056,4.32409845 Z" id="Path" fill="#FEFFFE"></path>
                        </g>
                    </g>
                    <g id="Layer-8" transform="translate(38.262857, 41.451429)">
                        <path d="M0.178217002,11.48364 L0.410369143,0.413557714 C0.411644571,0.351380571 0.463299429,0.300363429 0.525795429,0.299725714 L17.882784,0.138059117 C17.94528,0.137427429 17.994384,0.187488 17.9925249,0.249984 L17.6343943,12.3442354 C17.6324811,12.4067314 17.5805074,12.45456 17.5180114,12.4518129 L0.288565714,11.6022549 C0.226388571,11.5990663 0.176965714,11.546136 0.178217002,11.48364 Z" id="Path" fill="#F2F3F8"></path>
                        <polygon id="Path" stroke="#68CD88" stroke-width="0.5" stroke-linecap="round" stroke-linejoin="round" points="1.99126286 2.44276457 4.34028343 2.44276457 4.34028343 4.551048 1.99126286 4.551048"></polygon>
                        <polygon id="Path" stroke="#68CD88" stroke-width="0.5" stroke-linecap="round" stroke-linejoin="round" points="2.05662857 6.90006857 4.40533029 6.90006857 4.40533029 9.00803314 2.05662857 9.00803314"></polygon>
                        <path d="M2.47241829,3.31483886 L3.29156229,4.23952457 C3.29156229,4.23952457 4.59218057,2.582424 5.89279886,2.46699771" id="Path" stroke="#68CD88" stroke-width="0.5" stroke-linecap="round" stroke-linejoin="round"></path>
                        <path d="M2.84388686,7.358904 L3.61679657,8.25776229 C3.61679657,8.25776229 4.84471543,6.646896 6.07263429,6.53465829" id="Path" stroke="#68CD88" stroke-width="0.5" stroke-linecap="round" stroke-linejoin="round"></path>
                        <path d="M6.702696,2.86939543 L6.70014514,3.77080457 C6.70014514,3.83298171 6.75020571,3.88431771 6.81238286,3.88527429 L15.4435269,4.02078857 C15.505704,4.02174514 15.5541703,3.97232229 15.5516194,3.91014514 L15.510168,2.87672914 C15.5076171,2.814552 15.4550057,2.76417257 15.3928286,2.76385371 L6.81557143,2.75683735 C6.75339429,2.75652 6.702696,2.80689943 6.702696,2.86939543 Z" id="Path" fill="#68CD88"></path>
                        <path d="M6.25565829,7.34710629 L6.25310743,8.24851543 C6.25310743,8.31069257 6.30348686,8.36202857 6.365664,8.36298514 L14.9964891,8.49849943 C15.0586663,8.49977486 15.1071326,8.45003314 15.1045817,8.387856 L15.0631303,7.35444 C15.0605794,7.29226286 15.0082869,7.24188343 14.9457909,7.24188343 L6.36853371,7.23454971 C6.30635657,7.23454971 6.25565829,7.28492914 6.25565829,7.34710629 Z" id="Path" fill="#68CD88"></path>
                    </g>
                </g>
            </g>
        </g>
    </g>
</svg>