<?xml version="1.0" encoding="UTF-8"?>
<svg width="359px" height="155px" viewBox="0 0 359 155" version="1.1" xmlns="http://www.w3.org/2000/svg" xmlns:xlink="http://www.w3.org/1999/xlink">
    <!-- Generator: Sketch 63.1 (92452) - https://sketch.com -->
    <title>maestro_linea@3x</title>
    <desc>Created with Sketch.</desc>
    <defs>
        <rect id="path-1" x="76" y="0" width="255" height="99" rx="4"></rect>
        <filter x="-17.1%" y="-41.9%" width="134.1%" height="187.9%" filterUnits="objectBoundingBox" id="filter-2">
            <feMorphology radius="0.5" operator="dilate" in="SourceAlpha" result="shadowSpreadOuter1"></feMorphology>
            <feOffset dx="0" dy="2" in="shadowSpreadOuter1" result="shadowOffsetOuter1"></feOffset>
            <feGaussianBlur stdDeviation="14" in="shadowOffsetOuter1" result="shadowBlurOuter1"></feGaussianBlur>
            <feComposite in="shadowBlurOuter1" in2="SourceAlpha" operator="out" result="shadowBlurOuter1"></feComposite>
            <feColorMatrix values="0 0 0 0 0   0 0 0 0 0   0 0 0 0 0  0 0 0 0.06 0" type="matrix" in="shadowBlurOuter1"></feColorMatrix>
        </filter>
        <path d="M3.00025,7.99927241 C2.74425,7.99927241 2.48825,7.90127241 2.29325,7.70627241 C1.90225,7.31527241 1.90225,6.68327241 2.29325,6.29227241 L5.59825,2.98727241 L2.41825,-0.305727588 C2.03525,-0.703727588 2.04625,-1.33672759 2.44325,-1.71972759 C2.84125,-2.10272759 3.47425,-2.09172759 3.85725,-1.69572759 L7.71925,2.30427241 C8.09825,2.69727241 8.09325,3.32027241 7.70725,3.70627241 L3.70725,7.70627241 C3.51225,7.90127241 3.25625,7.99927241 3.00025,7.99927241" id="path-3"></path>
    </defs>
    <g id="Screens" stroke="none" stroke-width="1" fill="none" fill-rule="evenodd">
        <g id="Sección-de-padres-(Socioemocional)" transform="translate(-944.000000, -114.000000)">
            <g id="maestro_linea" transform="translate(944.000000, 140.000000)">
                <g id="Rectangle">
                    <use fill="black" fill-opacity="1" filter="url(#filter-2)" xlink:href="#path-1"></use>
                    <use stroke="#E4E9F2" stroke-width="1" fill="#FFFFFF" fill-rule="evenodd" xlink:href="#path-1"></use>
                </g>
                <g id="Group-8" transform="translate(135.000000, 10.000000)" font-size="16">
                    <g id="Group-9">
                        <text id="Teléfono:" font-family="Montserrat-Medium, Montserrat" font-weight="400" line-spacing="26" fill="#222B45">
                            <tspan x="2.532" y="41">Teléfono: </tspan>
                        </text>
                        <text id="36-01-87-20" font-family="Montserrat-Bold, Montserrat" font-weight="bold" fill="#B3337F">
                            <tspan x="84.416" y="45">36 01 87 20</tspan>
                        </text>
                        <text id="Maestro-en-línea" font-family="Montserrat-Bold, Montserrat" font-weight="bold" fill="#B3337F">
                            <tspan x="20.028" y="15">Maestro en línea</tspan>
                        </text>
                    </g>
                </g>
                <g id="Group" transform="translate(127.000000, 75.000000)">
                    <rect id="Rectangle" fill="#006DD0" x="0" y="0" width="191" height="48" rx="24"></rect>
                    <g id="Group-2" transform="translate(43.000000, 16.000000)">
                        <g id="Group-3">
                            <g id="Group-10">
                                <text id="Contactar" font-family="Montserrat-Medium, Montserrat" font-size="18" font-weight="400" line-spacing="16" fill="#FFFFFF">
                                    <tspan x="0" y="17">Contactar</tspan>
                                </text>
                                <g id="Arrow_down" transform="translate(104.500000, 8.000000) rotate(-90.000000) translate(-104.500000, -8.000000) translate(99.500000, 5.000000)">
                                    <mask id="mask-4" fill="white">
                                        <use xlink:href="#path-3"></use>
                                    </mask>
                                    <use id="🎨-Icon-Сolor" fill="#FFFFFF" fill-rule="nonzero" transform="translate(5.000080, 2.999636) rotate(-270.000000) translate(-5.000080, -2.999636) " xlink:href="#path-3"></use>
                                </g>
                            </g>
                        </g>
                    </g>
                </g>
                <g id="Group-22" transform="translate(0.000000, 11.000000)">
                    <g id="Capa_8" transform="translate(56.004000, 25.480000)" fill="#0065C1" fill-rule="nonzero">
                        <circle id="Oval" cx="13.572" cy="5.1272" r="4.9036"></circle>
                        <polygon id="Path" points="9.1364 2.964 0.0572 31.4912 10.2544 32.7444 18.0284 7.0824"></polygon>
                    </g>
                    <g id="Capa_3" transform="translate(67.964000, 0.000000)">
                        <path d="M38.6776,56.0092 C38.6910293,56.2059604 38.7761332,56.3909688 38.9168,56.5292 C38.9657061,56.5759988 39.0242827,56.6114997 39.0884,56.6332 C39.1427692,56.6488039 39.2004308,56.6488039 39.2548,56.6332 C39.3870576,56.5938782 39.5035256,56.5138065 39.5876,56.4044 C39.6865557,56.2791874 39.760684,56.1362258 39.806,55.9832 C39.8581333,55.8137867 39.8581333,55.6326133 39.806,55.4632 C39.735923,55.2884616 39.5906992,55.1547029 39.4108,55.0992 C39.3858141,55.0927011 39.3649179,55.0756042 39.3536,55.0524 C39.2949636,55.0634975 39.2386751,55.0846057 39.1872,55.1148 C38.8633664,55.2902566 38.6632172,55.6305102 38.6672,55.9988" id="Path" fill="#0065C1" fill-rule="nonzero"></path>
                        <path d="M40.0088,55.4996 C40.0245911,55.4722489 40.0245911,55.4385511 40.0088,55.4112 C39.9701677,55.1722919 39.8049038,54.9731788 39.5772,54.8912 C39.3677147,54.8495335 39.1503866,54.8986685 38.9792,55.0264 C38.5987744,55.2853159 38.4054506,55.743188 38.4852,56.1964 C38.5736,56.5812 38.9376,56.992 39.364,56.8256 C39.713357,56.6531885 39.9533882,56.3175351 40.0036,55.9312 C40.0296256,55.7937545 40.0296256,55.6526455 40.0036,55.5152 M39.8008,56.0352 C39.7617763,56.1896464 39.6889586,56.3335058 39.5876,56.4564 C39.505363,56.5688194 39.3884136,56.6510495 39.2548,56.6904 C39.1986161,56.7056471 39.1393839,56.7056471 39.0832,56.6904 C39.0191472,56.6718687 38.9615254,56.6358551 38.9168,56.5864 C38.7738143,56.4492665 38.686738,56.2639979 38.6723969,56.0664 C38.671491,55.7002808 38.8710468,55.3630315 39.1924,55.1876 C39.2453651,55.1593418 39.3011336,55.1366858 39.3588,55.12 C39.3701179,55.1432042 39.3910141,55.1603011 39.416,55.1668 C39.5958992,55.2223029 39.741123,55.3560616 39.8112,55.5308 C39.865683,55.699852 39.865683,55.881748 39.8112,56.0508" id="Shape" fill="#0275D8" fill-rule="nonzero"></path>
                        <path d="M28.7612,62.7744 C29.5173418,63.9520811 30.4246797,65.025502 31.46,65.9672 C31.7315786,66.3139841 32.1681782,66.4886239 32.604,66.4248 C32.9822142,66.2669105 33.3122035,66.0122448 33.5608,65.6864 C34.2264,64.9792 34.9232,64.2928 35.5576,63.5544 C35.854,63.2112 36.322,62.6288 36.01,62.1712 C35.8481168,61.9638423 35.6744997,61.7659187 35.49,61.5784 L35.36,61.4276 L35.0844,61.6096 C34.7785031,61.8028611 34.4606661,61.9765425 34.1328,62.1296 L34.0236,62.1816 C34.0255668,62.2162778 34.0043667,62.2480779 33.9716,62.2596 C33.3875405,62.512826 32.8852788,62.9232764 32.5208,63.4452 C32.448,63.5492 32.2764,63.4452 32.3492,63.3464 C32.6804254,62.869835 33.120803,62.4793788 33.6336,62.2076 C33.6301563,62.1727855 33.6488593,62.1395358 33.6804,62.1244 C34.2269621,61.8896012 34.7494168,61.6022512 35.2404,61.2664 L35.4016,61.152 C36.2476203,60.5400718 36.9857331,59.7914146 37.5856,58.9368 C37.6532,58.838 37.8196,58.578 37.8872,58.4844 C37.6795151,58.3359728 37.4815128,58.1744447 37.2944,58.0008 C36.9455491,57.6780988 36.6205632,57.3305203 36.322,56.9608 C35.6485723,56.1776096 35.0626986,55.3232104 34.5748,54.4128 C34.3772,54.0384 34.2004,53.6536 34.0236,53.274 C34.0236,53.2324 33.982,53.144 33.9612,53.1024 C33.9404,53.0608 33.7792,52.6396 33.7584,52.5824 C33.7584,52.676 33.6544,52.7696 33.644,52.8684 C33.6076,53.4196 33.644,54.4752 33.5244,55.0212 C33.462,55.3678667 33.384,55.7058667 33.2904,56.0352 C33.2904,56.134 33.2332,56.238 33.202,56.342 L33.202,56.342 C32.7431988,57.8708791 31.9888096,59.294855 30.9816,60.5332 C30.3143679,61.3476999 29.5689406,62.0948689 28.756,62.764" id="Path" fill="#F3D19F" fill-rule="nonzero"></path>
                        <path d="M38.1004,49.7536 C37.934,49.3844 37.8664,48.958 37.7208,48.5732 L37.3568,48.802 C36.8916477,49.1049167 36.4421384,49.4312014 36.01,49.7796 C35.5888,50.1384 35.1936,50.5284 34.788,50.8976 C34.6264092,51.0613891 34.4525727,51.2126269 34.268,51.35 C34.1049007,51.4448603 33.9485304,51.5508446 33.8,51.6672 L33.8,51.6672 C33.5452,51.9064 33.7116,52.3172 33.8,52.598 L33.8,52.598 C33.9144,52.9256 34.0704,53.2324 34.2108,53.5444 C34.6148984,54.4656827 35.1225672,55.3379659 35.724,56.1444 C36.0308,56.55 36.3532,56.9452 36.6912,57.3248 C37.0179423,57.7085935 37.3839337,58.0571567 37.7832,58.3648 L37.9132,58.4636 C37.9630797,58.5029388 38.0151644,58.5393982 38.0692,58.5728 C38.1510516,58.6260282 38.2431758,58.6614606 38.3396,58.6768 C38.5094093,58.6831662 38.6739081,58.6169885 38.792,58.4948 C39.0468,58.2764 39.2288,57.9748 39.4992,57.7928 C39.9464,57.4652 40.3832,57.148 40.8044,56.784 C41.2256,56.42 41.6624,56.0196 42.0888,55.64 L43.0352,54.7716 C40.8998992,53.6542217 39.1779977,51.883123 38.1212,49.7172 M40.0452,55.8792 C39.9949882,56.2655351 39.754957,56.6011885 39.4056,56.7736 C38.9792,56.94 38.6152,56.5292 38.5268,56.1444 C38.4470506,55.691188 38.6403744,55.2333159 39.0208,54.9744 C39.1919866,54.8466685 39.4093147,54.7975335 39.6188,54.8392 C39.8465038,54.9211788 40.0117677,55.1202919 40.0504,55.3592 C40.0661911,55.3865511 40.0661911,55.4202489 40.0504,55.4476 C40.0764256,55.5850455 40.0764256,55.7261545 40.0504,55.8636" id="Shape" fill="#0275D8" fill-rule="nonzero"></path>
                        <path d="M52.1716,45.2036 C52.0773737,45.6656119 51.878099,46.099746 51.5892,46.4724 C50.9822976,47.3104231 50.3149175,48.102937 49.5924,48.8436 C48.8384,49.634 48.0324,50.3776 47.216,51.1056 C45.8224,52.3484 44.4028,53.5652 43.0144,54.808 C42.7648,54.6728 42.5256,54.5272 42.2812,54.3764 C41.0654837,53.6038221 39.9967349,52.6213479 39.1248,51.4748 C38.692264,50.8878216 38.3260337,50.2547665 38.0328,49.5872 C37.8924,49.27 37.7416,48.9424 37.6116,48.6044 C37.7312,48.5212 37.856,48.4276 37.9652,48.334 C38.1068744,48.2517543 38.2181459,48.1258898 38.2824,47.9752 C38.2978815,47.8744582 38.2834155,47.7713879 38.2408,47.6788 C38.17727,47.5112879 38.17727,47.3263121 38.2408,47.1588 C38.4230586,46.8083672 38.8360397,46.6462832 39.208,46.7792 C39.2374195,46.7872297 39.2688984,46.7812238 39.2932949,46.7629265 C39.3176913,46.7446291 39.3322711,46.716091 39.3328,46.6856 C39.3328,46.3892 39.1664,45.916 39.4836,45.734 L39.5408,45.7028 C39.5863679,45.6874747 39.6334301,45.6770165 39.6812,45.6716 C39.87968,45.6669976 40.0762063,45.7116627 40.2532,45.8016 C40.7192101,46.0126679 41.1505142,46.293191 41.5324,46.6336 C41.626,46.7168 41.7664,46.5764 41.6728,46.4932 C41.2169032,46.083767 40.6875713,45.7644034 40.1128,45.552 C39.9276344,45.4793268 39.7255114,45.4612801 39.5304,45.5 C39.1976,45.058 38.844,44.642 38.4904,44.226 C37.8768,43.5032 37.2892,42.7648 36.7068,42.016 C36.2284,41.4076 35.7604,40.7836 35.256,40.196 C34.8348,39.7124 34.4188,39.2392 34.008,38.7556 L33.9404,38.6776 L33.8468,38.5684 C33.4984,38.168 32.8848,37.57 32.6872,37.3568 C28.6364,33.7168 28.2256,29.5984 30.7788,25.6932 C30.836,25.6932 30.9452,25.532 31.0024,25.5112 C31.6108,25.2668 32.1308,24.882 32.7184,24.5908 C33.0053346,24.4251356 33.3284887,24.3322957 33.6596,24.3204 C33.9209744,24.3424081 34.1703031,24.4399715 34.3772,24.6012 C34.8625106,24.9887101 35.2715878,25.463028 35.5836,26 C35.724,26.2184 35.8488,26.4368 35.9788,26.6604 C35.9766602,26.672439 35.9766602,26.684761 35.9788,26.6968 C36.0971938,26.9715963 36.2472772,27.2316245 36.426,27.4716 C36.4427033,27.4844269 36.4568199,27.500308 36.4676,27.5184 L36.4676,27.5184 L36.4676,27.5184 C36.8937452,28.1330138 37.3647633,28.7152686 37.8768,29.2604 C38.5892,30.0144 39.3328,30.7424 40.0556,31.4912 C41.6572,33.15 43.29,34.7776 44.876,36.452 C45.6664,37.284 46.436,38.1264 47.2316,38.9532 C48.0272,39.78 48.7916,40.5756 49.5612,41.3972 C49.946,41.8132 50.3308,42.2344 50.7,42.6608 C51.048758,43.0325263 51.3768514,43.4231137 51.6828,43.8308 C52.0012252,44.2074432 52.1664188,44.690031 52.1456,45.1828" id="Path" fill="#0065C1" fill-rule="nonzero"></path>
                        <path d="M39.52,45.5936 C39.52,45.5936 40.3936,45.3648 41.574,46.5192" id="Path" stroke="#034F87" stroke-width="0.52" stroke-linecap="round" stroke-linejoin="round"></path>
                        <path d="M14.6016,30.498 C15.3336337,32.2326339 15.7881265,34.0716627 15.9484,35.9476 L15.9484,36.3792 C16.0992,35.9632 16.2552,35.5524 16.4216,35.1468 C16.77,34.2888 17.134,33.4308 17.5552,32.6144 C17.7540725,32.1506323 17.9869745,31.7022091 18.252,31.2728 C17.2979667,31.2481467 16.3523753,31.087046 15.444,30.7944" id="Path" fill="#EABF8F" fill-rule="nonzero"></path>
                        <path d="M33.3216,43.3004 C33.3216,42.7804 33.3944,42.2968 33.4568,41.7976 C33.5764,40.8252 33.9768,39.4524 34.1276,38.4852 C33.8416,38.1524 33.4984,37.9652 33.2384,37.622 C33.1448,37.4972 33.0304,37.5596 32.9472,37.4244 C32.9472,37.4244 32.8848,37.3776 32.8848,37.362 C28.8392,33.722 28.4076,29.562 30.9608,25.6568 C30.1184,25.974 28.9848,26.2444 28.158,26.4888 C28.158,26.4888 27.2948,23.7224 26.7956,23.5872 C24.1592,22.8592 16.3956,23.14 16.0836,23.8784 C15.9328,24.1956 11.7676,23.036 9.6928,23.8004 C9.0272,24.0448 8.502,27.04 8.4916,27.04 C7.7792,26.7852 6.3024,26.8996 5.5744,26.7124 C5.0544,26.5772 4.4876,26.4316 3.9572,26.2496 C3.5152,26.0936 3.3696,26.0624 3.5568,26.1508 C3.2916,27.7108 1.6952,29.5464 1.3156,32.4428 L1.3156,32.4428 L1.3156,32.4428 C1.34386817,32.465047 1.35781101,32.5009 1.352,32.5364 C1.248,33.1032 1.2012,33.6804 1.144,34.2472 C1.0296,35.3357333 0.9308,36.426 0.8476,37.518 C0.702,39.312 0.5824,41.1112 0.4992,42.9156 C0.4992,43.0404 0.4992,43.16 0.4992,43.2848 C0.450666667,44.2901333 0.414266667,45.2937333 0.39,46.2956 C0.3588,47.5072 0.3484,48.7292 0.39,49.9356 L0.39,50.0292 C0.39,50.1176 0.39,50.206 0.39,50.2944 C0.39,50.3828 0.39,50.5232 0.39,50.6376 C0.416,51.5632 0.5044,52.8268 0.6188,53.7576 C1.2428,54.4648 1.872,55.6972 2.5584,56.3576 C3.48283587,57.1339017 4.52564342,57.7571284 5.6472,58.2036 C6.91895464,58.811797 8.25752922,59.2690415 9.6356,59.566 C9.698,59.566 10.3792,59.7532 10.4468,59.7636 C11.5856,60.0028 12.0328,60.2524 13.1924,60.3148 C14.7888,60.4032 16.0628,61.8332 17.6436,61.646 C17.7112,61.646 18.9956,60.1536 19.058,60.1432 C19.8732324,60.0715936 20.6839189,59.9552853 21.4864,59.7948 C21.8816,59.7064 22.36,59.3788 22.7552,59.2748 C22.7552,59.2748 23.2752,59.0148 23.3064,59.0148 C23.3584,59.2852 26.7072,60.9492 26.8632,57.7408 C26.9204,57.7148 29.3592,57.096 29.9832,56.5292 C30.6072,55.9624 33.4152,54.2048 33.592,53.9552 C33.592,53.7316 33.5452,49.4052 33.462,48.2716 C33.3212209,46.6185222 33.2743456,44.9587884 33.3216,43.3004 L33.3216,43.3004 Z M28.1996,44.6004 L28.1684,44.8552 L27.9552,44.9592 L27.5028,45.1568 C26.9516647,45.4038585 26.3766608,45.593784 25.7868,45.7236 C24.6774373,45.9857305 23.5174646,45.9389719 22.4328,45.5884 C22.2405428,45.5251887 22.0528939,45.4487392 21.8712,45.3596 L21.6736,45.2556 C21.6736,45.1776 21.6736,45.0996 21.6736,45.0268 C21.5436156,43.0185303 21.5331972,41.0043069 21.6424,38.9948 C21.6424,38.9272 21.6424,38.8648 21.6424,38.7972 L21.8348,38.8336 C22.4224,38.948 23.0204,39.0468 23.6184,39.1144 L23.6184,39.1144 C23.6184,38.48 23.66,37.8404 23.6964,37.206 C23.6520155,37.1213308 23.6520155,37.0202692 23.6964,36.9356 C23.7526095,36.8509209 23.8408302,36.7927328 23.9408,36.7744 C23.9925042,36.7665556 24.0450958,36.7665556 24.0968,36.7744 C24.2478128,36.7547272 24.3998594,36.8022418 24.5128,36.9044 C24.5910283,36.9706842 24.6269084,37.0743377 24.6064,37.1748 C24.6064,37.1748 24.6064,37.1748 24.6064,37.2008 C24.5544,37.8612 24.518,38.5268 24.5024,39.1924 L24.57,39.1924 C24.7624,39.1924 24.9548,39.1924 25.1472,39.1924 C25.1351072,38.3861494 25.2473584,37.5828519 25.48,36.8108 C25.4315733,36.6574976 25.3933563,36.5011552 25.3656,36.3428 C25.2999773,35.9757341 25.2755592,35.6024869 25.2928,35.23 C25.2099818,35.1661031 25.1857517,35.0515609 25.2356,34.9596 C25.3587611,34.7903624 25.5475445,34.680868 25.7556,34.658 C25.9058577,34.6399138 26.0577423,34.6399138 26.208,34.658 C26.4940763,34.6476058 26.7796252,34.6899093 27.0504,34.7828 C27.2423204,34.8395411 27.4197054,34.9371029 27.5704,35.0688 C27.5884887,35.0913735 27.6041735,35.1157722 27.6172,35.1416 C27.6654882,35.156616 27.6931184,35.2072713 27.6796,35.256 L27.3676,36.4416 L27.2896,36.7276 C27.2752805,36.8146862 27.2471961,36.8989394 27.2064,36.9772 C27.193625,36.9968815 27.1778317,37.0144296 27.1596,37.0292 C27.2548446,37.6850327 27.2827232,38.3488909 27.2428,39.0104 C27.562035,38.9384877 27.8763971,38.8464369 28.184,38.7348 L28.3764,38.662 C28.3764,38.7296 28.3764,38.7972 28.3764,38.8648 C28.5019065,40.7779061 28.4426994,42.6986562 28.1996,44.6004 L28.1996,44.6004 Z" id="Shape" fill="#0275D8" fill-rule="nonzero"></path>
                        <path d="M28.1996,44.6004 L28.1684,44.8552 L27.9552,44.9592 L27.5028,45.1568 C26.9516647,45.4038585 26.3766608,45.593784 25.7868,45.7236 C24.6774373,45.9857305 23.5174646,45.9389719 22.4328,45.5884 C22.2405428,45.5251887 22.0528939,45.4487392 21.8712,45.3596 L21.6736,45.2556 C21.6736,45.1776 21.6736,45.0996 21.6736,45.0268 C21.5436156,43.0185303 21.5331972,41.0043069 21.6424,38.9948 C21.6424,38.9272 21.6424,38.8648 21.6424,38.7972 L21.8348,38.8336 C22.4224,38.948 23.0204,39.0468 23.6184,39.1144 L23.6184,39.1144 C23.6184,38.48 23.66,37.8404 23.6964,37.206 C23.6520155,37.1213308 23.6520155,37.0202692 23.6964,36.9356 C23.7526095,36.8509209 23.8408302,36.7927328 23.9408,36.7744 C23.9925042,36.7665556 24.0450958,36.7665556 24.0968,36.7744 C24.2478128,36.7547272 24.3998594,36.8022418 24.5128,36.9044 C24.5910283,36.9706842 24.6269084,37.0743377 24.6064,37.1748 C24.6064,37.1748 24.6064,37.1748 24.6064,37.2008 C24.5544,37.8612 24.518,38.5268 24.5024,39.1924 L24.57,39.1924 C24.7624,39.1924 24.9548,39.1924 25.1472,39.1924 C25.1351072,38.3861494 25.2473584,37.5828519 25.48,36.8108 C25.4315733,36.6574976 25.3933563,36.5011552 25.3656,36.3428 C25.2999773,35.9757341 25.2755592,35.6024869 25.2928,35.23 C25.2099818,35.1661031 25.1857517,35.0515609 25.2356,34.9596 C25.3587611,34.7903624 25.5475445,34.680868 25.7556,34.658 C25.9058577,34.6399138 26.0577423,34.6399138 26.208,34.658 C26.4940763,34.6476058 26.7796252,34.6899093 27.0504,34.7828 C27.2423204,34.8395411 27.4197054,34.9371029 27.5704,35.0688 C27.5884887,35.0913735 27.6041735,35.1157722 27.6172,35.1416 C27.6654882,35.156616 27.6931184,35.2072713 27.6796,35.256 L27.3676,36.4416 L27.2896,36.7276 C27.2752805,36.8146862 27.2471961,36.8989394 27.2064,36.9772 C27.193625,36.9968815 27.1778317,37.0144296 27.1596,37.0292 C27.2548446,37.6850327 27.2827232,38.3488909 27.2428,39.0104 C27.562035,38.9384877 27.8763971,38.8464369 28.184,38.7348 L28.3764,38.662 C28.3764,38.7296 28.3764,38.7972 28.3764,38.8648 C28.5019065,40.7779061 28.4426994,42.6986562 28.1996,44.6004 L28.1996,44.6004 Z" id="Path" fill="#0275D8" fill-rule="nonzero"></path>
                        <path d="M0.4212,43.0456 C0.3484,44.3352 0.3016,45.6144 0.2964,46.8572 C0.3172,45.5884 0.3588,44.3144 0.4212,43.0456 Z" id="Path" fill="#0275D8" fill-rule="nonzero"></path>
                        <path d="M3.64,26.1248 C3.3748,27.6848 1.7784,29.5204 1.3988,32.4168 L1.3988,32.4168 C1.7784,29.536 3.4788,26.0364 3.6452,26.1248" id="Path" fill="#0275D8" fill-rule="nonzero"></path>
                        <path d="M28.3192,40.7472 C28.3190823,42.0655202 28.2304832,43.3823461 28.054,44.6888 L28.054,44.6888 C27.7576,44.8344 27.456,44.9748 27.1492,45.0944 C25.4904,45.7496 23.5092,45.9264 21.9492,45.0944 C21.8131452,43.062134 21.7992536,41.0235315 21.9076,38.9896 C22.5004,39.0988 23.0984,39.1976 23.7016,39.2652 C23.7016,39.6448 23.7016,40.0192 23.7016,40.3936 C23.7016,40.5548 23.7016,40.7628 23.868,40.8512 C23.9236911,40.88548 23.991389,40.8942913 24.0539995,40.8754087 C24.1166099,40.8565262 24.168148,40.8117549 24.1956,40.7524 C24.2138578,40.6526956 24.2138578,40.5505044 24.1956,40.4508 C24.1956,40.3052 24.1956,40.1596 24.1956,40.0088 L24.1956,39.3172 L24.1956,39.3172 L24.6168,39.3484 C24.8074667,39.3484 24.9998667,39.3484 25.194,39.3484 L25.3916,39.3484 C25.9602577,39.3485548 26.5277211,39.2963342 27.0868,39.1924 L27.2844,39.1508 C27.6129488,39.0820714 27.9361707,38.9899705 28.2516,38.8752 C28.288,39.4888 28.3088,40.1024 28.3088,40.716" id="Path" fill="#0065C1" fill-rule="nonzero"></path>
                        <path d="M27.4144,35.594 C27.4144,35.594 27.3208,35.6408 27.3052,35.646 C27.2362974,35.6712381 27.1647851,35.6886802 27.092,35.698 C26.7655508,35.7368337 26.4356492,35.7368337 26.1092,35.698 C25.9460181,35.6867143 25.7851023,35.6534817 25.6308,35.5992 C25.5782532,35.5867938 25.527556,35.5675638 25.48,35.542 C25.48,35.5004 25.48,35.4588 25.48,35.4172 C25.4829524,35.4034905 25.4829524,35.3893095 25.48,35.3756 L25.5424,35.3392 C25.6052086,35.307325 25.6715243,35.2828929 25.74,35.2664 C25.7635523,35.274727 25.7892477,35.274727 25.8128,35.2664 C25.937999,35.242283 26.0649494,35.2283706 26.1924,35.2248 L26.4056,35.2248 L26.4472,35.2248 C26.7607903,35.2511271 27.0645627,35.3470552 27.3364,35.5056 C27.3364,35.5056 27.4196,35.542 27.4144,35.568" id="Path" fill="#822E82" fill-rule="nonzero"></path>
                        <path d="M27.4508,35.5732 L27.17,36.6548 C27.1388,36.7588 27.118,36.8732 27.0816,36.9772 C27.0452,37.0812 26.9308,37.1176 26.8372,37.154 C26.6597173,37.2215746 26.4706235,37.2533848 26.2808,37.2476 C26.0959691,37.259456 25.9125997,37.2081126 25.7608,37.102 C25.7339912,37.0693791 25.7128936,37.0324582 25.6984,36.9928 C25.7114045,36.9702756 25.7114045,36.9425244 25.6984,36.92 C25.692181,36.8864707 25.6834906,36.8534473 25.6724,36.8212 C25.6464,36.7172 25.6204,36.608 25.5996,36.4988 C25.5426734,36.1796435 25.5165533,35.8557544 25.5216,35.5316 C25.7209615,35.6038977 25.9290521,35.6493629 26.1404,35.6668 C26.3724829,35.6798656 26.6051171,35.6798656 26.8372,35.6668 C27.0422666,35.6722409 27.2466255,35.64053 27.4404,35.5732 C27.4541252,35.5760016 27.4682748,35.5760016 27.482,35.5732" id="Path" fill="#A546A0" fill-rule="nonzero"></path>
                        <path d="M27.1128,39 C26.5488149,39.1076189 25.9761529,39.1633185 25.402,39.1664 C25.3982305,38.4418129 25.4891329,37.7198377 25.6724,37.0188 C25.7321689,37.0796068 25.805113,37.1258641 25.8856,37.154 C26.2046434,37.2598893 26.5493566,37.2598893 26.8684,37.154 C26.9256,37.154 26.988,37.1176 27.0452,37.0916 C27.132735,37.7237652 27.1553862,38.3632256 27.1128,39" id="Path" fill="#FFFFFF" fill-rule="nonzero"></path>
                        <path d="M24.44,37.336 C24.3932,37.9392 24.362,38.5476 24.3464,39.1508 L24.1488,39.1508 L24.1488,39.1508 C24.1195792,39.1350835 24.0844208,39.1350835 24.0552,39.1508 L24.0552,39.1508 L24.0084,39.52 C24.0084,39.8528 24.0084,40.1856 24.0084,40.5184 C24.0084,40.5496 24.0084,40.6432 24.0084,40.6744 C24.0084,40.7056 23.92,40.6744 23.8992,40.6224 C23.8835686,40.5259626 23.8835686,40.4276374 23.8992,40.3312 C23.8992,40.118 23.8992,39.9048 23.8992,39.6916 C23.8992,39.5876 23.8992,39.4836 23.8992,39.3796 L23.8992,38.9064 L23.8992,38.9064 C23.8992,38.3864 23.9356,37.8664 23.9668,37.3464 L23.9668,37.3464 C24.0523463,37.3741451 24.1421418,37.3864699 24.232,37.3828 C24.3146642,37.3808874 24.3967661,37.3686595 24.4764,37.3464" id="Path" stroke="#95C121" stroke-width="0.5" fill="#95C11F" fill-rule="nonzero" stroke-linecap="round" stroke-linejoin="round"></path>
                        <ellipse id="Oval" fill="#84A51C" fill-rule="nonzero" cx="24.1956" cy="37.2788" rx="1" ry="1"></ellipse>
                        <path d="M18.2416,59.5036 C18.3404,60.19 18.6212,60.8608 18.7044,61.542 C19.6612,61.4172 20.8104,61.23 21.7516,61.022 C24.5310101,60.4185483 27.2281958,59.4845714 29.7856,58.24 C30.628,57.8292 31.4548,57.382 32.266,56.914 C32.6235795,56.709665 32.9706824,56.4875191 33.306,56.2484 C33.3736,56.03 33.4256,55.8116 33.4776,55.588 C33.5714446,54.9701683 33.6183787,54.3461182 33.6180023,53.7212 C33.4308488,53.9387373 33.2178014,54.1325755 32.9836,54.2984 C32.3544,54.7248 31.6784,55.0732 31.0128,55.4424 C29.8096901,56.1120303 28.5642556,56.7026129 27.2844,57.2104 L27.1024,57.2832 C26.0624,57.6888 25.0224,58.0424 23.9824,58.3544 L23.79,58.4064 L23.4468,58.5052 L23.2492,58.5624 L22.8176,58.6768 C21.4220924,59.0380608 20.0047559,59.3090222 18.5744,59.488" id="Path" fill="#5B3818" fill-rule="nonzero"></path>
                        <path d="M0.7644,53.7108 C0.8268,54.132 0.9048,54.548 1.0088,54.964 C1.1128,55.38 1.196,55.6712 1.3052,56.004 C1.8252,56.576 2.3452,57.1324 2.8964,57.6524 C3.84306323,58.537948 4.91763553,59.2759495 6.084,59.8416 C7.39664383,60.4487069 8.77027324,60.9141371 10.1816,61.23 C10.113617,60.5388761 10.0945029,59.8438156 10.1244,59.15 C8.97052647,58.9244431 7.83671913,58.6062119 6.734,58.1984 C5.5052961,57.7136066 4.3542675,57.051371 3.3176,56.2328 C2.40062678,55.4596977 1.54684711,54.6146124 0.7644,53.7056" id="Path" fill="#5B3818" fill-rule="nonzero"></path>
                        <path d="M10.1816,61.2456 C11.3712374,61.5031677 12.5799201,61.663166 13.7956,61.724 C15.4340443,61.8064453 17.0765593,61.745547 18.7044,61.542 C18.6212,60.8608 18.4756,60.1796 18.3716,59.4984 C17.1635876,59.6407433 15.9479481,59.7084717 14.7316,59.7012 C13.1804845,59.6926514 11.6339232,59.5324221 10.114,59.2228 C10.0869074,59.8982072 10.1147323,60.5746991 10.1972,61.2456" id="Path" fill="#C0C99F" fill-rule="nonzero"></path>
                        <path d="M28.5272,27.7472 C28.5259715,27.7849789 28.5171281,27.822121 28.5012,27.8564 C28.1967223,28.4912274 27.8492473,29.1045208 27.4612,29.692 C26.9424248,30.4636727 26.3799048,31.2050185 25.7764,31.9124 C25.558,32.1672 25.3448,32.4324 25.1316,32.682 C24.8404,33.0356 24.5492,33.384 24.2476,33.722 C23.5104955,34.621871 22.6631853,35.4255054 21.7256,36.114 C21.6549147,36.1612581 21.5655881,36.1709675 21.4864,36.14 C21.4060817,36.1123377 21.3453465,36.0457248 21.3252,35.9632 C21.2079215,35.5168317 21.0602434,35.0790095 20.8832,34.6528 C20.6695886,34.0486399 20.3682265,33.4792057 19.9888,32.9628 C19.8769694,32.802572 19.7243795,32.6751145 19.5468,32.5936 C19.3691829,32.5400818 19.1767541,32.5727947 19.0268,32.682 C18.4328847,33.1030634 17.9653689,33.6784676 17.6748,34.346 C17.342,34.97 17.0612,35.646 16.7908,36.296 C16.64,36.6652 16.484,37.0344 16.3228,37.3984 C16.1798008,37.5685417 16.002638,37.7067286 15.8028,37.804 C15.8028,37.804 15.8028,37.804 15.8028,37.804 C15.7644048,37.9128311 15.6633321,37.9870886 15.548,37.9912 L15.548,37.9912 C15.288,37.9912 15.2568,37.9912 14.794,35.0168 L14.7576,34.7984 C14.6899581,34.3583498 14.5838173,33.9250868 14.4404,33.5036 C14.2890073,32.9544828 14.0050951,32.4509403 13.6136,32.0372 C13.2304643,31.7641643 12.7038276,31.8199521 12.3864,32.1672 C11.9083808,32.5984043 11.5334045,33.131546 11.2892,33.7272 C11.1444091,34.066341 11.0193995,34.4135901 10.9148,34.7672 C10.8851364,34.8662615 10.7995889,34.9383277 10.6969287,34.9507372 C10.5942685,34.9631466 10.4940132,34.9135402 10.4416,34.8244 C10.2284,34.4708 10.0048,34.086 9.7864,33.6752 C8.73359187,31.727391 8.05955996,29.5976619 7.8,27.3988 L7.7428,26.7956 L7.7428,26.572 C7.77198265,26.1704076 7.82581745,25.7709881 7.904,25.376 C7.96045566,25.0174329 8.06359827,24.667797 8.2108,24.336 C8.53617548,23.7946273 9.14152818,23.4858975 9.7708,23.5404 C9.8445495,23.5383539 9.91593258,23.5665315 9.9684,23.6184 C10.0192737,23.6715105 10.0472802,23.7424603 10.0464,23.816 C9.94771911,25.0409946 10.1983419,26.2688661 10.7692,27.3572 C11.6058085,28.752965 12.8880315,29.8263688 14.4092,30.4044 L14.4092,30.4044 C14.4724149,30.4312537 14.5227463,30.4815851 14.5496,30.5448 L14.69,30.8932 C15.1405549,32.0120343 15.488649,33.1694472 15.73,34.3512 C15.7983521,34.932846 15.8330765,35.5179523 15.834,36.1036 C15.9952,35.6564 16.172,35.2144 16.354,34.7672 L16.3852,34.684 C16.692,33.9768 17.004,33.2436 17.368,32.5468 C17.5797678,32.137277 17.8250016,31.7459465 18.1012,31.3768 C18.1570828,31.3216916 18.230893,31.288477 18.3092,31.2832 C18.5536,31.2832 18.798,31.2832 19.0372,31.2832 C20.0167129,31.2341517 20.9813513,31.0233018 21.892,30.6592 C23.7395478,29.9489598 25.2337204,28.5407021 26.052,26.7384 C26.4589662,25.7700736 26.6197537,24.7160227 26.52,23.6704 C26.5130605,23.5849702 26.5486707,23.5016087 26.6151924,23.4475598 C26.681714,23.393511 26.7705998,23.3757195 26.8528,23.4 L26.9672,23.4312 L27.222,23.5092 C27.632206,23.6282607 27.9874684,23.8878048 28.2256,24.2424 C28.4472567,24.6885813 28.5459788,25.1857813 28.5116,25.6828 C28.5116,25.8856 28.5116,26.0936 28.5116,26.3016 C28.516364,26.3256329 28.516364,26.3503671 28.5116,26.3744 C28.5170639,26.4018642 28.5170639,26.4301358 28.5116,26.4576 L28.5116,26.6448 C28.522,26.9828 28.5272,27.3624 28.5272,27.7472 Z" id="Path" fill="#0065C1" fill-rule="nonzero"></path>
                        <path d="M19.4636,30.5292 L19.032,31.2416 C18.7928,31.2416 18.5484,31.2416 18.304,31.2416 C18.225693,31.246877 18.1518828,31.2800916 18.096,31.3352 C17.8198016,31.7043465 17.5745678,32.095677 17.3628,32.5052 C16.9988,33.202 16.6868,33.9352 16.38,34.6424 L16.3488,34.7256 C16.1564,35.1728 15.9796,35.6148 15.8288,36.062 C15.8278765,35.4763523 15.7931521,34.891246 15.7248,34.3096 C15.483449,33.1278472 15.1353549,31.9704343 14.6848,30.8516 L14.56,30.524 C14.5331463,30.4607851 14.4828149,30.4104537 14.4196,30.3836 L14.4196,30.3836 L14.4196,30.264 L19.4636,30.5292 Z" id="Path" fill="#F3D19F" fill-rule="nonzero"></path>
                        <path d="M11.2372,16.4164 C10.8695477,15.6138966 10.3277628,14.9033591 9.6512,14.3364 C9.32582951,13.9918296 8.82413336,13.8787424 8.3824,14.0504 C8.00200989,14.2832999 7.72911271,14.6571316 7.6232,15.0904 C7.30405356,15.9891375 7.27135286,16.9647086 7.5296,17.8828 C7.75924238,18.6766691 8.26681501,19.3614307 8.9596,19.812 C9.62692608,20.2679989 10.4737464,20.3726403 11.232,20.0928 C11.6323012,18.9018028 11.6323012,17.6125972 11.232,16.4216 M11.2008,18.9904 C10.8576,18.798 10.478,18.5484 10.4312,18.1272 C10.4167624,17.9443359 10.4624072,17.7617565 10.5612,17.6072 C10.6457925,17.3658347 10.5984979,17.0978317 10.4364,16.9 C10.0299296,16.1974776 9.35661343,15.6892083 8.5696,15.4908 C8.4448,15.4596 8.502,15.2724 8.6216,15.3036 C9.37714337,15.4953585 10.0370352,15.9556192 10.478,16.5984 C10.752561,16.8861099 10.8517977,17.2989347 10.738,17.68 C10.6031276,17.8870389 10.6031276,18.1541611 10.738,18.3612 C10.8916038,18.5537158 11.0872774,18.7084758 11.31,18.8136 C11.3559501,18.8394469 11.3722469,18.8976499 11.3464,18.9436 C11.3205531,18.9895501 11.2623501,19.0058469 11.2164,18.98" id="Shape" fill="#F3D19F" fill-rule="nonzero"></path>
                        <path d="M11.206,18.9852 C10.8628,18.7928 10.4832,18.5432 10.4364,18.122 C10.4219624,17.9391359 10.4676072,17.7565565 10.5664,17.602 C10.6509925,17.3606347 10.6036979,17.0926317 10.4416,16.8948 C10.0351296,16.1922776 9.36181343,15.6840083 8.5748,15.4856 C8.45,15.4544 8.5072,15.2672 8.6268,15.2984 C9.38234337,15.4901585 10.0422352,15.9504192 10.4832,16.5932 C10.757761,16.8809099 10.8569977,17.2937347 10.7432,17.6748 C10.6083276,17.8818389 10.6083276,18.1489611 10.7432,18.356 C10.8968038,18.5485158 11.0924774,18.7032758 11.3152,18.8084 C11.3611501,18.8342469 11.3774469,18.8924499 11.3516,18.9384 C11.3257531,18.9843501 11.2675501,19.0006469 11.2216,18.9748" id="Path" fill="#000000" fill-rule="nonzero"></path>
                        <path d="M24.96,18.954 C24.8523509,19.4256086 24.677213,19.879216 24.44,20.3008 L24.44,20.3008 C24.167259,20.7536947 23.8149331,21.1535846 23.4,21.4812 C21.9745775,22.6363448 19.9805715,22.7815898 18.4028,21.8452 C16.7492,23.0152 14.2116,23.114 12.6464,21.736 C12.2647088,21.416185 11.9920872,20.9854428 11.8664,20.5036 C11.8664,20.436 11.8664,20.3632 11.83,20.2904 C11.8325721,20.2644636 11.8325721,20.2383364 11.83,20.2124 L11.83,20.0772 C11.8031802,19.7589988 12.0061218,19.4665884 12.3136,19.3804 C12.4537275,19.3466302 12.5998725,19.3466302 12.74,19.3804 C12.74,19.3804 12.74,19.3804 12.74,19.3804 C12.246865,18.2759137 11.9427671,17.0964357 11.8404,15.8912 C11.8144,15.652 11.7936,15.4076 11.7832,15.1632 L11.7832,14.9188 C11.7832,14.8096 11.7832,14.7004 11.7832,14.5964 C11.7832,14.3156 11.7832,14.0348 11.7832,13.754 C11.7832,13.6084 11.7832,13.4628 11.7832,13.3172 C11.7617082,12.9902149 11.8281409,12.6634379 11.9756,12.3708 C12.194,12.064 12.6204,12.038 12.9064,11.8196 C13.0565067,11.7012547 13.1382886,11.5162717 13.1248,11.3256 L13.1248,11.3256 L13.1248,11.232 C13.0969076,11.0523295 13.0444149,10.8773538 12.9688,10.712 C12.9020502,10.5821563 12.8597467,10.4411447 12.844,10.296 C12.844,10.296 12.844,10.2596 12.844,10.2388 L12.844,10.2388 C12.8503198,10.1014432 12.9014607,9.9699381 12.9896,9.8644 C13.3407555,9.46362303 13.7805347,9.15025814 14.274,8.9492 C14.8097736,8.73014093 15.367692,8.56973941 15.938,8.4708 C17.1471043,8.22406902 18.3864876,8.1609604 19.6144,8.2836 C20.83569,8.3826246 22.0200329,8.75017931 23.0828,9.36 C23.5938836,9.63835902 23.9994491,10.0768082 24.2372,10.608 C24.2925745,10.7532791 24.3275733,10.9055237 24.3412,11.0604 C24.3412,11.0604 24.3412,11.102 24.3412,11.128 L24.3412,11.1852 C24.3489346,11.2734308 24.3489346,11.3621692 24.3412,11.4504 C24.3412,11.5284 24.3152,11.6116 24.31,11.6948 C24.3074279,11.7207364 24.3074279,11.7468636 24.31,11.7728 C24.304877,11.8211981 24.304877,11.8700019 24.31,11.9184 C24.3557149,12.070717 24.474883,12.1898851 24.6272,12.2356 C24.855039,12.3108963 25.0654572,12.4311353 25.246,12.5892 C25.4005706,12.7605364 25.5096395,12.9679462 25.5632,13.1924 C25.6132812,13.374192 25.6446443,13.560628 25.6568,13.7488 C25.6568,13.8164 25.6568,13.8788 25.6568,13.9464 C25.6619988,14.0451316 25.6619988,14.1440684 25.6568,14.2428 L25.6568,14.5548 L25.6568,14.5548 L25.6568,14.8668 C25.5582697,16.2486505 25.3248933,17.61756 24.96,18.954 M19.5572,22.6512 L19.5572,22.6512 C19.564168,22.6979646 19.5351663,22.7425827 19.4896,22.7552 C18.7775921,22.9709988 18.0176079,22.9709988 17.3056,22.7552 C17.2821987,22.7515856 17.2614461,22.7381713 17.2485415,22.718318 C17.2356368,22.6984647 17.2318028,22.6740534 17.238,22.6512 L17.238,22.6512 C17.2400098,22.6229733 17.2546819,22.5971711 17.277912,22.581011 C17.3011421,22.5648509 17.3304362,22.5600679 17.3576,22.568 C18.0357247,22.7733745 18.7594753,22.7733745 19.4376,22.568 C19.4647638,22.5600679 19.4940579,22.5648509 19.517288,22.581011 C19.5405181,22.5971711 19.5551902,22.6229733 19.5572,22.6512" id="Shape" fill="#56322A" fill-rule="nonzero"></path>
                        <path d="M28.6,14.56 C28.6,14.56 28.6,14.7576 28.6,14.7628 C28.1837717,14.7340239 27.7723869,14.8661882 27.4508,15.132 C26.8401916,15.6913133 26.3470111,16.366564 26,17.1184 L26,17.1184 C26,17.1184 26,17.1184 26,17.1184 C25.948,17.2276 25.9012,17.3368 25.8544,17.4512 C25.84881,17.4626895 25.84881,17.4761105 25.8544,17.4876 C25.8544,17.4876 25.8544,17.4876 25.8544,17.4876 C25.7070845,17.9686385 25.623176,18.4668454 25.6048,18.9696 C25.6048,19.0944 25.6048,19.2244 25.6048,19.3492 C25.6048,19.474 25.6048,19.5728 25.6048,19.682 C25.6314985,20.0155371 25.6871753,20.3461178 25.7712,20.67 L25.818,20.8312 L25.818,20.8312 C25.814805,20.8701336 25.8326509,20.9078083 25.8648,20.93 C25.8625801,20.9559526 25.8625801,20.9820474 25.8648,21.008 C25.862565,21.02874 25.862565,21.04966 25.8648,21.0704 C25.8698039,21.0961163 25.8873838,21.1176029 25.9116,21.1276 C25.968614,21.2165368 26.0206926,21.3085425 26.0676,21.4032 C26.3452614,21.9627064 26.5313596,22.5631363 26.6188,23.1816 C26.6188,23.2492 26.6188,23.322 26.6448,23.3948 C26.6708,23.4676 26.6448,23.6392 26.676,23.764 C26.676,23.8056 26.676,23.8524 26.676,23.894 L26.676,24.2528 C26.676,24.388 26.676,24.518 26.65,24.6532 C26.5620659,25.5856294 26.2747803,26.4882737 25.8076,27.3 C24.7567084,29.0301441 23.0812901,30.290431 21.1276,30.8204 C20.2809884,31.0562635 19.4064503,31.1769498 18.5276,31.1792323 L18.278,31.1792323 C17.0105852,31.1822858 15.7523623,30.9640765 14.56,30.5344 L14.4664,30.498 L14.2064,30.3836 C12.4731786,29.7009601 11.0892598,28.347045 10.3688,26.6292 C10.1566778,26.0453767 10.0288589,25.4342973 9.9892,24.8144 L9.9892,24.8144 C9.98402435,24.7278106 9.98402435,24.6409894 9.9892,24.5544 C9.9892,24.3828 9.9892,24.2112 9.9892,24.0344 C9.9892,23.9564 9.9892,23.8784 9.9892,23.7952 C9.98404529,23.7242268 9.98404529,23.6529732 9.9892,23.582 C10.1979239,22.2853933 10.5091666,21.0073855 10.92,19.76 C10.9221398,19.747961 10.9221398,19.735639 10.92,19.7236 L10.92,19.7236 L10.92,19.7236 C11.1124,19.1412 10.4624,15.0436 10.062,14.5808 C9.98214671,14.0642003 9.93352509,13.5432544 9.9164,13.0208 C9.9164,12.7088 9.9164,12.3968 9.9164,12.0848 C9.9164,11.9704 9.9164,11.856 9.9164,11.7468 C9.9164,11.6376 9.9164,11.5752 9.9164,11.492 L9.9164,11.2996 C9.94059044,11.0166732 9.92835711,10.7318113 9.88,10.452 C9.36,10.1244 8.8712,9.7864 8.3928,9.412 C7.79088931,8.92085983 7.24348201,8.36647919 6.76,7.7584 C6.47325962,7.45141759 6.25990451,7.08338002 6.136,6.682 C6.13133285,6.62315907 6.13133285,6.56404093 6.136,6.5052 L6.136,6.4688 C6.13322601,6.44635204 6.13322601,6.42364796 6.136,6.4012 C6.17942317,6.06804835 6.37036617,5.77208671 6.656,5.5952 C7.00639199,5.37666036 7.39428968,5.22502763 7.8,5.148 C8.22793228,5.05357029 8.66258815,4.99271847 9.1,4.966 C9.96700183,4.92981841 10.8354282,4.94892379 11.7,5.0232 C11.9742597,5.1858833 12.2572161,5.33343722 12.5476,5.4652 C13.2969038,5.87394045 14.090805,6.19499058 14.9136,6.422 C14.9864,6.422 15.0124,6.422 15.0072,6.3804 C15.002,6.3388 14.8668,6.3284 14.82,6.318 C13.9914374,6.07029987 13.1967268,5.72097655 12.454,5.278 C12.246,5.1636 12.0536,5.1064 11.856,4.9816 C11.8506065,4.92251198 11.8009332,4.87735436 11.7416,4.8776 C11.7416,4.8776 11.7052,4.8048 11.6792,4.8048 L11.3152,4.55 C11.0552,4.3576 10.5872,4.0768 10.5872,3.7024 L10.5872,3.7024 C10.5817499,3.66794754 10.5817499,3.63285246 10.5872,3.5984 C10.6756,3.2396 11.1072,3.0472 11.4192,2.9224 C11.7971947,2.78000665 12.1894728,2.67888607 12.5892,2.6208 C13.4223834,2.50037049 14.2647099,2.45512154 15.106,2.4856 C16.7890069,2.51731257 18.4604829,2.77083142 20.0772,3.2396 C21.5384,3.666 23.1244,4.2172 24.2372,5.3196 C24.9218676,6.02427923 25.345611,6.94147286 25.4384,7.9196 C25.4384,7.982 25.4384,8.0496 25.4384,8.112 C25.4384,8.1744 25.4384,8.3304 25.4384,8.4396 C25.4384,8.5488 25.4384,8.5228 25.4384,8.5644 C25.4384,8.606 25.4384,8.6372 25.4384,8.6736 C25.4183164,8.93010241 25.3748017,9.18422876 25.3084,9.4328 C25.3084,9.4328 25.3084,9.4328 25.3084,9.4328 C25.3050965,9.46354394 25.3191152,9.49358396 25.3448,9.5108 C25.3536593,9.54279903 25.3788077,9.56770981 25.4108894,9.57626493 C25.442971,9.58482005 25.4771839,9.57573894 25.5008,9.5524 C25.8589596,9.0787261 26.3263853,8.69871975 26.8632,8.4448 C27.1420127,8.34347376 27.4475873,8.34347376 27.7264,8.4448 C27.9502545,8.55892978 28.1322702,8.74094546 28.2464,8.9648 C28.4872191,9.47671687 28.6418331,10.024894 28.704,10.5872 C28.7761053,11.0049416 28.8195401,11.4271278 28.834,11.8508 C28.834,12.0744 28.834,12.298 28.834,12.5216 C28.8224158,13.1635393 28.7475197,13.8027693 28.6104,14.43 L28.6104,14.43 C28.5745015,14.4271281 28.5430719,14.4539015 28.5402,14.4898 C28.5373281,14.5256985 28.5641015,14.5571281 28.6,14.56 Z" id="Path" fill="#56322A" fill-rule="nonzero"></path>
                        <path d="M25.48,14.04 C25.4765878,14.6917237 25.4366586,15.3427442 25.3604,15.99 C25.1762722,17.3074347 24.8681033,18.6045299 24.44,19.864 C24.4035976,19.8344525 24.3633663,19.8099639 24.3204,19.7912 C24.1094883,19.7470249 23.8917117,19.7470249 23.6808,19.7912 L22.984,19.8588 C22.4658309,19.9123292 21.9444461,19.9279707 21.424,19.9056 C20.7116,19.8588 16.4528,19.6612 15.7872,19.7652 C15.1913205,19.8613515 14.5838795,19.8613515 13.988,19.7652 C13.7024459,19.7167783 13.4208744,19.6472545 13.1456,19.5572 L13.0572,19.526 L13.0572,19.526 C12.9007969,19.2182622 12.7652905,18.9003432 12.6516,18.5744 C12.2880717,17.460637 12.0781372,16.3024986 12.0276,15.132 C12.0276,14.794 12.0276,14.4508 12.0276,14.092 C12.0180015,13.6833538 12.0423518,13.2746162 12.1004,12.87 C12.1068472,12.734498 12.1499832,12.6032927 12.2252,12.4904 C12.3582385,12.3731983 12.5140154,12.2846886 12.6828,12.2304 C13.0468,12.0744 13.3172,11.9028 13.3796,11.492 C13.3949987,11.149608 13.31584,10.8095851 13.1508,10.5092 C13.0832082,10.3769351 13.0832082,10.2202649 13.1508,10.088 C13.3022204,9.87963271 13.4930178,9.7029685 13.7124,9.568 C14.6753013,8.96072787 15.7744894,8.60326833 16.9104,8.528 C18.0943056,8.36405316 19.296806,8.39038528 20.4724,8.606 C21.065978,8.71919533 21.6462628,8.89345503 22.204,9.126 C22.7659364,9.34260412 23.2787171,9.66972286 23.712,10.088 C23.9259147,10.3151944 24.0796413,10.5922597 24.1592,10.894 C24.2059852,11.1815762 24.2059852,11.4748238 24.1592,11.7624 C24.1371784,11.9911823 24.2406212,12.2139822 24.4296,12.3448 C24.6536484,12.4442437 24.8723466,12.5553286 25.0848,12.6776 C25.4068618,13.0534804 25.5509261,13.5501231 25.48,14.04" id="Path" stroke="#F3D19F" stroke-width="0.52" fill="#F3D19F" fill-rule="nonzero" stroke-linecap="round" stroke-linejoin="round"></path>
                        <path d="M26.182,19.8016 C26.52,19.6092 26.8996,19.3596 26.9516,18.9332 C26.9627838,18.7506213 26.9173875,18.5690359 26.8216,18.4132 C26.7375252,18.1742507 26.7827451,17.9088294 26.9412,17.7112 C27.3488671,17.0075626 28.0242563,16.4991446 28.8132,16.302 C28.8559887,16.2811037 28.8777842,16.2326593 28.8650394,16.1867779 C28.8522946,16.1408966 28.808636,16.1106339 28.7612,16.1148 C28.0050501,16.3052302 27.3447278,16.7657912 26.9048,17.4096 C26.6272299,17.6956619 26.527573,18.1102349 26.6448,18.4912 C26.7801144,18.696219 26.7801144,18.962181 26.6448,19.1672 C26.4931554,19.3629708 26.2970837,19.5198281 26.0728,19.6248 C26.0381688,19.65638 26.0304905,19.7079455 26.0544185,19.7482453 C26.0783465,19.788545 26.1272955,19.806488 26.1716,19.7912" id="Path" fill="#000000" fill-rule="nonzero"></path>
                        <path d="M13.3328,13.1664 C13.5769223,13.134376 13.8140994,13.0623444 14.0348,12.9532 C14.2756503,12.8710015 14.5291933,12.8322657 14.7836,12.8388 C14.9005243,12.8449605 15.0169123,12.8588576 15.132,12.8804 C15.2673038,12.9261589 15.4065702,12.9592347 15.548,12.9792 C15.9432,12.9792 15.8548,12.506 15.7092,12.298 C15.6459013,12.2094614 15.5665229,12.1336109 15.4752,12.0744 C15.4501846,12.0845192 15.4222154,12.0845192 15.3972,12.0744 C14.9698965,11.8780611 14.4939475,11.8129122 14.0296,11.8872 C13.5458315,11.9292231 13.1262436,12.2383931 12.9428,12.688 C12.9059886,12.8070558 12.9308259,12.9366237 13.0090544,13.0336271 C13.087283,13.1306305 13.208648,13.1823534 13.3328,13.1716" id="Path" stroke="#1D1D1B" stroke-width="0.5" fill="#56322A" fill-rule="nonzero"></path>
                        <path d="M19.4688,13.0416 C19.7156206,13.0145402 19.9553498,12.9422689 20.176,12.8284 C20.4153667,12.7479279 20.6672035,12.7109448 20.9196,12.7192 C21.0365499,12.725061 21.152958,12.7389605 21.268,12.7608 C21.4064162,12.8016812 21.5470427,12.8346676 21.6892,12.8596 C22.0792,12.8596 21.9908,12.3864 21.8452,12.1784 C21.7839411,12.0884726 21.7063274,12.0108589 21.6164,11.9496 C21.5913846,11.9597192 21.5634154,11.9597192 21.5384,11.9496 C21.1092005,11.7534386 20.6316509,11.6883182 20.1656,11.7624 C19.68244,11.802788 19.2636391,12.1128617 19.084,12.5632 C19.0441583,12.6810206 19.067232,12.8110282 19.1451849,12.9079426 C19.2231378,13.004857 19.3451779,13.0552612 19.4688,13.0416" id="Path" stroke="#1D1D1B" stroke-width="0.5" fill="#56322A" fill-rule="nonzero"></path>
                        <path d="M13.8996,15.158 C13.8996,15.5532 14.1128,15.8756 14.378,15.8756 C14.6432,15.8756 14.8616,15.5532 14.8616,15.158 C14.8616,14.7628 14.6432,14.4404 14.378,14.4404 C14.1128,14.4404 13.8996,14.7628 13.8996,15.158" id="Path" fill="#000000" fill-rule="nonzero"></path>
                        <path d="M20.1292,14.924 C20.1292,15.3192 20.3424,15.6416 20.6076,15.6416 C20.8728,15.6416 21.086,15.3192 21.086,14.924 C21.086,14.5288 20.8728,14.2064 20.6076,14.2064 C20.3424,14.2064 20.1292,14.5288 20.1292,14.924" id="Path" fill="#000000" fill-rule="nonzero"></path>
                        <path d="M16.4528,24.7 C17.0420977,24.9252802 17.6679122,25.039866 18.2988,25.0380224 C19.5287743,25.0045033 20.6999607,24.5044253 21.5748,23.6392 C21.9651757,23.2820182 22.1750546,22.7687689 22.1468,22.2404 C19.5988,23.8004 16.8428,23.1452 15.9068,22.8488 C15.7123736,22.7894107 15.5794686,22.6100944 15.5792,22.4068 C15.5792,22.152 15.5792,21.7984 15.5792,21.5488 C15.2641773,21.5652176 14.9804459,21.7445201 14.8304,22.022 C14.3104,22.958 15.002,24.1332 16.432,24.7" id="Path" fill="#FF74BE" fill-rule="nonzero"></path>
                        <path d="M16.4528,24.7 C17.0420977,24.9252802 17.6679122,25.039866 18.2988,25.0380224 C19.5287743,25.0045033 20.6999607,24.5044253 21.5748,23.6392 C21.9651757,23.2820182 22.1750546,22.7687689 22.1468,22.2404 C19.5988,23.8004 16.8428,23.1452 15.9068,22.8488 C15.7123736,22.7894107 15.5794686,22.6100944 15.5792,22.4068 C15.5792,22.152 15.5792,21.7984 15.5792,21.5488 C15.2641773,21.5652176 14.9804459,21.7445201 14.8304,22.022 C14.3312,22.958 15.0228,24.1332 16.4528,24.7 Z" id="Path" stroke="#000000" stroke-width="0.5" stroke-linecap="round" stroke-linejoin="round"></path>
                        <path d="M15.6,22.4068 C15.6002686,22.6100944 15.7331736,22.7894107 15.9276,22.8488 C16.848,23.1452 19.604,23.8004 22.1676,22.2404 C22.1425096,22.0372285 22.0732928,21.8420016 21.9648,21.6684 C21.372,20.6908 19.2452,21.6684 18.1948,21.7048 C17.1444,21.7412 16.2552,21.4708 15.6208,21.5488 C15.6,21.7984 15.6,22.152 15.6,22.4068 Z" id="Path" stroke="#000000" stroke-width="0.5" stroke-linecap="round" stroke-linejoin="round"></path>
                        <path d="M15.6,22.4068 C15.6002686,22.6100944 15.7331736,22.7894107 15.9276,22.8488 C16.848,23.1452 19.604,23.8004 22.1676,22.2404 C22.1425096,22.0372285 22.0732928,21.8420016 21.9648,21.6684 C21.372,20.6908 19.2452,21.6684 18.1948,21.7048 C17.1444,21.7412 16.2552,21.4708 15.6208,21.5488 C15.6208,21.7984 15.6208,22.152 15.6208,22.4068" id="Path" fill="#FFFFFF" fill-rule="nonzero"></path>
                        <path d="M15.6,22.4068 C15.6002686,22.6100944 15.7331736,22.7894107 15.9276,22.8488 C16.848,23.1452 19.604,23.8004 22.1676,22.2404 C22.1425096,22.0372285 22.0732928,21.8420016 21.9648,21.6684 C21.372,20.6908 19.2452,21.6684 18.1948,21.7048 C17.1444,21.7412 16.2552,21.4708 15.6208,21.5488 C15.6,21.7984 15.6,22.152 15.6,22.4068 Z" id="Path" stroke="#000000" stroke-width="0.5" stroke-linecap="round" stroke-linejoin="round"></path>
                        <path d="M13.572,16.068 C14.0918922,15.6594102 14.8296498,15.6813021 15.3244,16.12" id="Path" stroke="#000000" stroke-width="0.5" stroke-linecap="round" stroke-linejoin="round"></path>
                        <path d="M19.6872,15.8912 C20.2083325,15.484064 20.9461271,15.5081463 21.4396,15.9484" id="Path" stroke="#000000" stroke-width="0.5" stroke-linecap="round" stroke-linejoin="round"></path>
                        <path d="M25.8076,20.8884 C26.6083352,21.1739114 27.4958078,21.0761552 28.2152,20.6232 C28.9041468,20.1673932 29.4090288,19.4819329 29.64,18.6888 C29.8937721,17.7715967 29.8592791,16.7985324 29.5412,15.9016 C29.4352873,15.4683316 29.1623901,15.0944999 28.782,14.8616 C28.3419642,14.6893163 27.8413601,14.8026218 27.5184,15.1476 C26.839569,15.7136397 26.2959039,16.424313 25.9272,17.2276 C25.4883976,18.3943548 25.4427491,19.6725148 25.7972,20.8676 M25.8648,19.6144 C26.0890837,19.5094281 26.2851554,19.3525708 26.4368,19.1568 C26.5721144,18.951781 26.5721144,18.685819 26.4368,18.4808 C26.3230023,18.0997347 26.422239,17.6869099 26.6968,17.3992 C27.1392034,16.7633002 27.7967392,16.3089356 28.548,16.12 C28.595436,16.1158339 28.6390946,16.1460966 28.6518394,16.1919779 C28.6645842,16.2378593 28.6427887,16.2863037 28.6,16.3072 C27.8129866,16.5056083 27.1396704,17.0138776 26.7332,17.7164 C26.5718499,17.912718 26.526359,18.1797295 26.6136,18.4184 C26.7069828,18.5752371 26.7521909,18.7560695 26.7436,18.9384 C26.6916,19.3648 26.312,19.6092 25.974,19.8068 C25.9296955,19.822088 25.8807465,19.804145 25.8568185,19.7638453 C25.8328905,19.7235455 25.8405688,19.67198 25.8752,19.6404" id="Shape" fill="#F3D19F" fill-rule="nonzero"></path>
                        <path d="M26,19.8016 C26.338,19.6092 26.7176,19.3596 26.7696,18.9332 C26.7781909,18.7508695 26.7329828,18.5700371 26.6396,18.4132 C26.552359,18.1745295 26.5978499,17.907518 26.7592,17.7112 C27.1617531,17.0181473 27.8244395,16.5145805 28.6,16.3124 C28.6427887,16.2915037 28.6645842,16.2430593 28.6518394,16.1971779 C28.6390946,16.1512966 28.595436,16.1210339 28.548,16.1252 C27.7924566,16.3169585 27.1325648,16.7772192 26.6916,17.42 C26.417039,17.7077099 26.3178023,18.1205347 26.4316,18.5016 C26.5669144,18.706619 26.5669144,18.972581 26.4316,19.1776 C26.2799554,19.3733708 26.0838837,19.5302281 25.8596,19.6352 C25.8249688,19.66678 25.8172905,19.7183455 25.8412185,19.7586453 C25.8651465,19.798945 25.9140955,19.816888 25.9584,19.8016" id="Path" fill="#000000" fill-rule="nonzero"></path>
                        <path d="M11.7676,4.966 C11.7676,4.966 13.5096,6.188 14.9708,6.3856" id="Path" stroke="#000000" stroke-width="0.5" stroke-linecap="round" stroke-linejoin="round"></path>
                        <path d="M10.0204,10.5976 C10.3511285,10.917072 10.7629067,11.1400436 11.2112,11.2424" id="Path" stroke="#000000" stroke-width="0.5" stroke-linecap="round" stroke-linejoin="round"></path>
                        <path d="M26.3952,7.9404 C27.9810587,7.56013408 29.0726204,6.10617398 28.9952,4.4772 C28.9907481,4.31659523 28.9733585,4.15661057 28.9432,3.9988 C28.9333521,3.91932305 28.9159397,3.84096766 28.8912,3.7648 C28.8912,3.7232 28.8236,3.6504 28.7664,3.6452 C28.7092,3.64 28.6676,3.7388 28.652,3.7752 C28.4492,4.0976 28.288,4.4564 28.106,4.8152 L27.586,5.8552 L26.442,7.9872" id="Path" fill="#56322A" fill-rule="nonzero"></path>
                        <path d="M26.26,0.3224 C26.26,1.066 26.26,1.8096 26.286,2.5532 L26.3172,4.7996 C26.8851657,3.84808753 27.0970717,2.72590738 26.9152,1.6328 C26.8687795,1.35259262 26.795646,1.0774715 26.6968,0.8112 C26.6436761,0.669354157 26.5829207,0.530484752 26.5148,0.3952 C26.4841975,0.328951615 26.4494624,0.264691665 26.4108,0.2028 C26.4108,0.1612 26.3328,0.0936 26.2704,0.1508 C26.208,0.208 26.2704,0.3016 26.2704,0.3224" id="Path" fill="#56322A" fill-rule="nonzero"></path>
                        <path d="M11.2112,20.28 C11.2825701,20.7426498 11.5079189,21.1676978 11.8508,21.4864 C12.5777968,22.1391623 13.5155188,22.5083442 14.4924,22.5264 C15.6108211,22.5901635 16.7158202,22.2568221 17.6124,21.5852 C17.6904,21.528 17.7632,21.5852 17.7528,21.6892 C19.1712987,22.4921105 20.9248006,22.4091883 22.2612,21.476 C22.5770446,21.2545868 22.8605605,20.990322 23.1036,20.6908 C23.2227247,20.5498472 23.3288885,20.3984333 23.4208,20.2384 C23.4832,20.124 23.53,19.9628 23.3688,19.9004 C23.2728505,19.8795731 23.1735495,19.8795731 23.0776,19.9004 C22.1471233,20.0250992 21.2069507,20.0616615 20.2696,20.0096 C19.64288,19.9535421 19.0350744,19.7657072 18.486,19.4584 C18.4557922,19.7090863 18.4018159,19.9563323 18.3248,20.1968 C18.2612799,20.4765786 18.0940386,20.7218658 17.8568,20.8832 C17.6010226,21.0173429 17.2859219,20.9495087 17.108,20.722 C16.9090096,20.4257721 16.8257383,20.0667803 16.874,19.7132 C16.874,19.5468 16.874,19.3856 16.874,19.2244 L16.666,19.3336 C16.2136022,19.5716851 15.7307092,19.7466463 15.2308,19.8536 C14.2215663,20.0668389 13.1738928,20.0094321 12.194,19.6872 C11.9496,19.6092 11.6324,19.474 11.3932,19.6352 C11.2190508,19.8006783 11.1458057,20.0461483 11.2008,20.28" id="Path" stroke="#7A4A42" stroke-width="0.52" fill="#7A4941" fill-rule="nonzero"></path>
                        <path d="M17.0612,20.0616 C17.0872,20.3684 17.2692,20.8676 17.6748,20.748 C17.9556,20.6648 18.0804,20.3164 18.1532,20.0616 C18.2187533,19.8267177 18.2639866,19.5866333 18.2884,19.344 C18.2884,19.266 18.2884,19.1932 18.2884,19.1204 C18.3117441,18.7292946 18.2908112,18.3368038 18.226,17.9504 C18.1271501,17.264808 17.9437537,16.5941011 17.68,15.9536 C17.5292,16.5724 17.3836,17.1912 17.2744,17.8152 C17.212,18.1688 17.1496,18.5276 17.1132,18.8916 C17.1132,18.9696 17.1132,19.0476 17.1132,19.1204 C17.0725117,19.4324061 17.0551303,19.7470106 17.0612,20.0616 L17.0612,20.0616 Z" id="Path" stroke="#C69471" stroke-width="0.5" fill="#C69471" fill-rule="nonzero" stroke-linecap="round" stroke-linejoin="round"></path>
                        <path d="M32.4896,63.3672 C33.2255919,62.4658707 34.1978472,61.7870925 35.2976,61.4068" id="Path" stroke="#CEA676" stroke-width="0.5" stroke-linecap="round" stroke-linejoin="round"></path>
                        <rect id="Rectangle" fill="#CEE5F2" fill-rule="nonzero" x="4.4564" y="52.182" width="12.818" height="1.3468"></rect>
                        <rect id="Rectangle" fill="#CEE5F2" fill-rule="nonzero" x="4.4564" y="52.182" width="12.818" height="1.3468"></rect>
                        <rect id="Rectangle" fill="#BCD3DD" fill-rule="nonzero" x="17.2744" y="52.182" width="12.818" height="1.3468"></rect>
                        <path d="M32.0528,53.5132 L23.9616,53.5132 C23.9616,53.5132 23.6496,53.5964 23.6496,53.3052 C23.6496,53.014 23.9616,53.1232 23.9616,53.1232 L32.0528,53.1232 L33.0928,53.3 L32.0528,53.5132 Z" id="Path" fill="#95C121" fill-rule="nonzero"></path>
                    </g>
                    <path d="M121.16,53.5184 L121.16,72.2384 C121.157713,74.7041576 119.562676,76.7023345 117.594395,76.7052 L3.56560485,76.7052 C1.6101984,76.7024857 0.020462368,74.7294965 -1.15960574e-12,72.28 L-1.15960574e-12,53.56 L121.16,53.5184 Z" id="Path" fill="#74B4D1" fill-rule="nonzero"></path>
                    <g id="Capa_5" transform="translate(3.364000, 6.240000)">
                        <path d="M43.982,47.2628 C43.982,47.2628 40.6072,42.4736 43.904,40.95 C44.424,40.7056 46.9772,43.1444 46.9772,43.1444 C46.9772,43.1444 47.3672,45.6768 47.3672,45.7444 C47.0670836,46.1160533 46.7440552,46.4686058 46.4,46.8 L44.8816,47.32 L43.982,47.2628 Z" id="Path" fill="#00599B" fill-rule="nonzero"></path>
                        <path d="M37.2636,44.876 L41.1428,44.876 C42.2599616,44.876 43.1656,45.7816384 43.1656,46.8988 L43.1656,47.294 L35.2408,47.294 L35.2408,46.8988 C35.2408,45.7816384 36.1464384,44.876 37.2636,44.876 L37.2636,44.876 Z" id="Path" fill="#838689" fill-rule="nonzero"></path>
                        <path d="M45.7916,41.9796 C45.7916,41.9796 38.5116,40.0296 36.6864,40.6432 C35.5944,41.0124 34.2476,42.77 33.2284,44.3248 C32.3444,45.682 33.3428,47.2628 33.3428,47.2628 L38.4648,47.3252 L39.978,45.422 L41.6368,45.3388 L45.8644,45.8172 L45.7916,41.9796 Z" id="Path" fill="#F3D19F" fill-rule="nonzero"></path>
                        <path d="M36.2132,47.1068 C36.2132,47.1068 36.7332,43.5968 39.5828,43.2848" id="Path" stroke="#D6AA70" stroke-width="0.5"></path>
                        <path d="M33.92,47.1952 C33.92,47.1952 34.4816,43.0352 37.6276,42.4736" id="Path" stroke="#D6AA70" stroke-width="0.5"></path>
                        <path d="M42.8172,43.9608 C42.8172,43.9608 45.282,46.9196 42.6456,47.4448 C42.3648,47.502 40.3992,47.4448 41.2988,46.1552 C41.2988,46.1552 41.356,45.9004 40.9036,45.3388" id="Path" fill="#F3D19F" fill-rule="nonzero"></path>
                        <path d="M43.982,47.2628 C44.7660289,46.2142983 45.2690176,44.9827815 45.4432,43.6852 C45.5472,42.4008 43.9872,40.9136 43.9872,40.9136 L63.2792,45.0268 L63.9552,47.294 L43.982,47.2628 Z" id="Path" fill="#0065C1" fill-rule="nonzero"></path>
                        <path d="M47.5596,38.0016 L3.76,36.6652 C0.6764,36.4156 0.0576,34.5852 0.0576,32.942 L0.8168,5.6524 C0.824838713,4.02169391 2.12968474,2.69379407 3.76,2.6572 L46.686,0.1144 C51.0748,0.1144 50.612,3.692 50.612,5.382 L50.664,35.022 C50.6545834,35.8311148 50.3204359,36.6025098 49.7366526,37.1628244 C49.1528693,37.7231391 48.3684204,38.0253718 47.5596,38.0016 Z" id="Path" fill="#0275D8" fill-rule="nonzero"></path>
                        <path d="M46.062,36.5456 L2.9592,35.2144 C1.35056792,35.1640361 0.0704087599,33.8494023 0.0628,32.24 L0.0628,4.29 C0.0648152753,2.67655956 1.34654902,1.35570648 2.9592,1.3052 L46.062,8.52399748e-16 C46.8697082,-0.025341389 47.6531744,0.277904552 48.2333434,0.840433303 C48.8135124,1.40296205 49.1404004,2.17669448 49.1404004,2.9848 L49.1404004,33.5868 C49.133796,34.3903854 48.8034391,35.1573592 48.2240558,35.7142327 C47.6446725,36.2711062 46.8652165,36.5708275 46.062,36.5456 L46.062,36.5456 Z" id="Path" fill="#0065C1" fill-rule="nonzero"></path>
                        <circle id="Oval" fill="#BCD3DD" fill-rule="nonzero" cx="24.3052" cy="17.7528" r="3.0056"></circle>
                        <circle id="Oval" fill="#CEE5F2" fill-rule="nonzero" cx="24.066" cy="17.7788" r="3.0056"></circle>
                        <rect id="Rectangle" fill="#0065C1" fill-rule="nonzero" x="21.5804" y="29.5568" width="5.1428" height="17.7528"></rect>
                        <polygon id="Path" fill="#0275D8" fill-rule="nonzero" points="29.916 45.8432 17.6024 45.8172 17.6024 47.3356 29.916 47.3876"></polygon>
                        <polygon id="Path" fill="#0275D8" fill-rule="nonzero" points="27.3004 45.9212 26.6244 45.9212 26.6244 35.8852 27.2744 35.9788"></polygon>
                        <polygon id="Path" fill="#1B91EA" fill-rule="nonzero" points="31.7724 47.3044 29.916 47.3876 29.916 45.8432 31.7724 45.942"></polygon>
                    </g>
                </g>
            </g>
        </g>
    </g>
</svg>