<?xml version="1.0" encoding="UTF-8"?>
<svg width="33px" height="42px" viewBox="0 0 33 42" version="1.1" xmlns="http://www.w3.org/2000/svg" xmlns:xlink="http://www.w3.org/1999/xlink">
    <!-- Generator: Sketch 63.1 (92452) - https://sketch.com -->
    <title>pdf@3x</title>
    <desc>Created with Sketch.</desc>
    <g id="Symbols" stroke="none" stroke-width="1" fill="none" fill-rule="evenodd">
        <g id="butterfly-copy-4" transform="translate(-128.000000, -11.000000)" fill-rule="nonzero">
            <g id="pdf" transform="translate(128.000000, 11.000000)">
                <path d="M23.1301786,0 L1.46537165,0 C0.86220288,0 0.373248,0.48895488 0.373248,1.4377513 L0.373248,41.05728 C0.373248,41.3148211 0.86220288,41.803776 1.46537165,41.803776 L31.3804524,41.803776 C31.9836211,41.803776 32.472576,41.3148211 32.472576,41.05728 L32.472576,9.68802509 C32.472576,9.16846387 32.4031519,9.00124877 32.2807265,8.87807693 L23.5944991,0.191849472 C23.4713272,0.069424128 23.3041121,0 23.1301786,0 Z" id="Path" fill="#E9E9E0"></path>
                <polygon id="Path" fill="#D9D7CA" points="23.514624 0.112720896 23.514624 8.957952 32.3598551 8.957952"></polygon>
                <path d="M10.0881469,24.8762327 L10.0881469,24.8762327 C9.82836634,24.8762327 9.57903667,24.7918787 9.36628531,24.632875 C8.58918298,24.0498616 8.48467354,23.4011566 8.53394227,22.959231 C8.66980454,21.7439355 10.172501,20.4719063 13.0017208,19.1759892 C14.1244508,16.7155384 15.1926866,13.6840182 15.8294477,11.1511572 C15.0844447,9.52976794 14.3603436,7.42614221 14.8881162,6.19218432 C15.0732472,5.75996314 15.3039145,5.42851891 15.7346427,5.28519168 C15.9048438,5.22845798 16.3348255,5.15679437 16.4930826,5.15679437 C16.8693166,5.15679437 17.2000143,5.64127027 17.4344141,5.93986867 C17.6546304,6.22055117 18.1540362,6.81550848 17.1559711,11.0175345 C18.1622477,13.0957793 19.588055,15.212842 20.9541427,16.6625372 C21.932799,16.4856177 22.7748465,16.3952916 23.4608763,16.3952916 C24.629889,16.3952916 25.3383137,16.6677627 25.6272077,17.2291277 C25.8660864,17.6934482 25.7682954,18.2361508 25.3360742,18.841559 C24.920276,19.4230794 24.346967,19.7306358 23.6788531,19.7306358 C22.771114,19.7306358 21.7140756,19.1573268 20.5353585,18.0248924 C18.4175493,18.4675645 15.9444081,19.2573573 13.9452918,20.1315041 C13.3212211,21.455788 12.7232778,22.5225308 12.1663918,23.3048586 C11.4012334,24.3760804 10.7413309,24.8762327 10.0881469,24.8762327 Z M12.0753193,21.0496942 C10.4800573,21.9462359 9.82985933,22.6830275 9.78283008,23.0980792 C9.77536512,23.1667569 9.75520973,23.3474089 10.1045699,23.6146545 C10.2157978,23.5795692 10.8652493,23.2832102 12.0753193,21.0496942 Z M22.2552852,17.733759 C22.8636795,18.201812 23.0122322,18.4384512 23.4101146,18.4384512 C23.5847946,18.4384512 24.0827075,18.4309862 24.3133747,18.1092465 C24.4246026,17.9532288 24.4678994,17.8531983 24.4850688,17.7994506 C24.3932498,17.7509284 24.2715709,17.6523909 23.607936,17.6523909 C23.2309555,17.6531374 22.7569306,17.6695603 22.2552852,17.733759 Z M16.6789601,12.8203223 C16.1452155,14.6671534 15.4405233,16.6610442 14.6828298,18.466818 C16.2430065,17.8614098 17.9390454,17.3328906 19.5320678,16.9588961 C18.5242982,15.7883904 17.5172751,14.3267512 16.6789601,12.8203223 Z M16.2258371,6.50347315 C16.1526804,6.52810752 15.2329974,7.81506662 16.2975007,8.90420429 C17.0059254,7.32536525 16.2579364,6.49302221 16.2258371,6.50347315 Z" id="Shape" fill="#CC4B4C"></path>
                <path d="M31.3804524,41.803776 L1.46537165,41.803776 C0.86220288,41.803776 0.373248,41.3148211 0.373248,40.7116524 L0.373248,29.113344 L32.472576,29.113344 L32.472576,40.7116524 C32.472576,41.3148211 31.9836211,41.803776 31.3804524,41.803776 Z" id="Path" fill="#CC4B4C"></path>
                <g id="Group" transform="translate(7.216128, 31.850496)" fill="#FFFFFF">
                    <path d="M1.28272896,7.713792 L0.057729024,7.713792 L0.057729024,0.192098304 L2.22107443,0.192098304 C2.54057472,0.192098304 2.85708902,0.242860032 3.16987085,0.345129984 C3.48265267,0.447399936 3.76333517,0.600431616 4.01191834,0.804225024 C4.2605015,1.00801843 4.46130893,1.25510861 4.61434061,1.54400256 C4.76737229,1.83289651 4.84426138,2.15762227 4.84426138,2.51892634 C4.84426138,2.90038579 4.77931622,3.24526694 4.65017242,3.55506278 C4.52102861,3.86485862 4.34037658,4.12538573 4.10896282,4.3358976 C3.87754906,4.54640947 3.59835955,4.7098921 3.2721408,4.82559898 C2.94592205,4.94130586 2.58461798,4.99878605 2.1904681,4.99878605 L1.28198246,4.99878605 L1.28198246,7.713792 L1.28272896,7.713792 Z M1.28272896,1.12073933 L1.28272896,4.10075136 L2.40545894,4.10075136 C2.55475814,4.10075136 2.70256435,4.0753705 2.84962406,4.02386227 C2.99593728,3.97310054 3.13030656,3.88949299 3.2527319,3.77378611 C3.37515725,3.65807923 3.47369472,3.4968361 3.54834432,3.28931021 C3.62299392,3.08178432 3.66031872,2.8249897 3.66031872,2.51892634 C3.66031872,2.39650099 3.64314931,2.25466675 3.60955699,2.0956631 C3.57521818,1.93591296 3.50579405,1.78288128 3.40053811,1.63656806 C3.29453568,1.49025485 3.14672947,1.3678295 2.95637299,1.26929203 C2.76601651,1.17075456 2.51370086,1.12148582 2.20091904,1.12148582 L1.28272896,1.12148582 L1.28272896,1.12073933 Z" id="Shape"></path>
                    <path d="M12.3562506,3.74392627 C12.3562506,4.36277146 12.2898125,4.89203712 12.1569362,5.33097677 C12.0240599,5.76991642 11.8560983,6.13719245 11.6515584,6.43355136 C11.4470185,6.72991027 11.2178442,6.96281702 10.9625426,7.13301811 C10.707241,7.3032192 10.4608973,7.43012352 10.2227651,7.51597056 C9.98463283,7.6010711 9.766656,7.65556531 9.56958106,7.67945318 C9.37250611,7.70184806 9.2261929,7.713792 9.13064141,7.713792 L6.28350566,7.713792 L6.28350566,0.192098304 L8.54912102,0.192098304 C9.18214963,0.192098304 9.73828915,0.292875264 10.2175396,0.492936192 C10.69679,0.69299712 11.0954189,0.960989184 11.4119332,1.2939264 C11.7284475,1.62686362 11.9643402,2.00683008 12.1211044,2.4315863 C12.2778685,2.85708902 12.3562506,3.29453568 12.3562506,3.74392627 Z M8.72305459,6.81575731 C9.55315814,6.81575731 10.1518479,6.55075123 10.519124,6.01999258 C10.8864,5.48923392 11.070038,4.72034304 11.070038,3.71331994 C11.070038,3.40053811 11.0327132,3.09074227 10.9580636,2.78467891 C10.8826675,2.47861555 10.7385938,2.20166554 10.5243494,1.95308237 C10.3101051,1.7044992 10.0189716,1.50369178 9.65169562,1.3506601 C9.28441958,1.19762842 8.80815514,1.12073933 8.22290227,1.12073933 L7.5085056,1.12073933 L7.5085056,6.81575731 L8.72305459,6.81575731 L8.72305459,6.81575731 Z" id="Shape"></path>
                    <polygon id="Path" points="15.3773199 1.12073933 15.3773199 3.48862464 18.5208146 3.48862464 18.5208146 4.32544666 15.3773199 4.32544666 15.3773199 7.713792 14.1321646 7.713792 14.1321646 0.192098304 18.8365824 0.192098304 18.8365824 1.12073933"></polygon>
                </g>
            </g>
        </g>
    </g>
</svg>