<?xml version="1.0" encoding="UTF-8"?>
<svg width="34px" height="45px" viewBox="0 0 34 45" version="1.1" xmlns="http://www.w3.org/2000/svg" xmlns:xlink="http://www.w3.org/1999/xlink">
    <!-- Generator: Sketch 63.1 (92452) - https://sketch.com -->
    <title>receta@3x</title>
    <desc>Created with Sketch.</desc>
    <g id="Symbols" stroke="none" stroke-width="1" fill="none" fill-rule="evenodd">
        <g id="butterfly-copy-3" transform="translate(-126.000000, -8.000000)" fill-rule="nonzero">
            <g id="receta" transform="translate(143.000000, 30.500000) rotate(-360.000000) translate(-143.000000, -30.500000) translate(126.000000, 8.000000)">
                <path d="M31.2713961,1.54426647 L33.9738624,1.54426647 L33.9738624,43.2394612 L31.2713961,43.2394612 C30.4185212,43.2394612 29.7271296,42.5480696 29.7271296,41.6951948 L29.7271296,3.08853295 C29.7271296,2.23565812 30.4185212,1.54426647 31.2713961,1.54426647 Z" id="Shape" fill="#F29C1F" transform="translate(31.850496, 22.391864) rotate(-180.000000) translate(-31.850496, -22.391864) "></path>
                <path d="M3.08853295,6.17706589 L3.08853295,1.54426647 C3.08853295,0.69139165 3.7799246,0 4.63279942,0 L29.341063,0 C30.1939378,0 30.8853295,0.69139165 30.8853295,1.54426647 L30.8853295,43.2394612 C30.8853295,44.0923361 30.1939378,44.7837277 29.341063,44.7837277 L4.63279942,44.7837277 C3.7799246,44.7837277 3.08853295,44.0923361 3.08853295,43.2394612 L3.08853295,6.17706589 Z" id="Shape" fill="#F3D55B"></path>
                <path d="M4.63279942,6.17706589 L4.63279942,1.54426647 C4.58883662,0.7393266 5.20259146,0.0497144239 6.00719658,0 L27.9666658,0 C28.771271,0.0497144239 29.3850258,0.7393266 29.341063,1.54426647 L29.341063,43.2394612 C29.3850258,44.0444011 28.771271,44.7340133 27.9666658,44.7837277 L6.00719658,44.7837277 C5.20259146,44.7340133 4.58883662,44.0444011 4.63279942,43.2394612 L4.63279942,6.17706589 Z" id="Shape" fill="#F3D55B"></path>
                <path d="M26.25253,7.72133236 C25.3996552,7.72133236 24.7082636,7.02994071 24.7082636,6.17706589 L24.7082636,0 L27.7967965,0 L27.7967965,6.17706589 C27.7967965,7.02994071 27.1054049,7.72133236 26.25253,7.72133236 Z" id="Shape" fill="#E64C3C"></path>
                <path d="M22.7393238,17.1568005 C22.0534707,16.9829467 21.4846854,16.505167 21.1950573,15.8596167 C20.4463363,14.1985476 18.7935021,13.1305759 16.9714885,13.1305759 C15.1494749,13.1305759 13.4966407,14.1985476 12.7479197,15.8596167 C12.4582917,16.505167 11.8895063,16.9829467 11.2036533,17.1568005 C9.2578775,17.6972938 7.56690572,19.4732002 7.69044703,21.6197306 C7.7630952,23.5059385 8.91373733,25.182331 10.6477173,25.9282341 C11.2199158,26.1582238 11.5913417,26.7168975 11.5819985,27.3335166 L11.5819985,33.2017292 C11.5819985,34.054604 12.2733902,34.7459956 13.126265,34.7459956 L20.8475974,34.7459956 C21.7004722,34.7459956 22.3918639,34.054604 22.3918639,33.2017292 L22.3918639,27.3335166 C22.3774366,26.7244654 22.7351875,26.1679641 23.2952597,25.9282341 C25.0292397,25.182331 26.1798819,23.5059385 26.25253,21.6197306 C26.3760714,19.4886429 24.7082636,17.6972938 22.7393238,17.1568005 Z" id="Shape" fill="#FFFFFF"></path>
                <path d="M14.6705315,32.4295959 C14.2440941,32.4295959 13.8983983,32.0839001 13.8983983,31.6574627 L13.8983983,28.5689297 C13.8983983,28.1424924 14.2440941,27.7967965 14.6705315,27.7967965 C15.0969689,27.7967965 15.4426647,28.1424924 15.4426647,28.5689297 L15.4426647,31.6574627 C15.4426647,32.0839001 15.0969689,32.4295959 14.6705315,32.4295959 Z" id="Shape" fill="#ECF0F1"></path>
                <path d="M19.3033309,32.4295959 C18.8768935,32.4295959 18.5311977,32.0839001 18.5311977,31.6574627 L18.5311977,28.5689297 C18.5311977,28.1424924 18.8768935,27.7967965 19.3033309,27.7967965 C19.7297683,27.7967965 20.0754641,28.1424924 20.0754641,28.5689297 L20.0754641,31.6574627 C20.0754641,32.0839001 19.7297683,32.4295959 19.3033309,32.4295959 Z" id="Shape" fill="#ECF0F1"></path>
                <g id="Group" transform="translate(7.721332, 5.404933)" fill="#F29C1F">
                    <path d="M14.6705315,33.2017292 L3.86066618,33.2017292 C3.43422881,33.2017292 3.08853295,32.8560333 3.08853295,32.4295959 C3.08853295,32.0031586 3.43422881,31.6574627 3.86066618,31.6574627 L14.6705315,31.6574627 C15.0969689,31.6574627 15.4426647,32.0031586 15.4426647,32.4295959 C15.4426647,32.8560333 15.0969689,33.2017292 14.6705315,33.2017292 Z" id="Shape"></path>
                    <path d="M11.5819985,36.2902621 L6.94919913,36.2902621 C6.52276175,36.2902621 6.17706589,35.9445662 6.17706589,35.5181289 C6.17706589,35.0916915 6.52276175,34.7459956 6.94919913,34.7459956 L11.5819985,34.7459956 C12.0084359,34.7459956 12.3541318,35.0916915 12.3541318,35.5181289 C12.3541318,35.9445662 12.0084359,36.2902621 11.5819985,36.2902621 Z" id="Shape"></path>
                    <path d="M7.72133236,1.54426647 L0.772133236,1.54426647 C0.345695864,1.54426647 0,1.19857065 0,0.772133236 C0,0.345695825 0.345695864,0 0.772133236,0 L7.72133236,0 C8.14776974,0 8.4934656,0.345695825 8.4934656,0.772133236 C8.4934656,1.19857065 8.14776974,1.54426647 7.72133236,1.54426647 Z" id="Shape"></path>
                    <path d="M3.86066618,4.63279942 L0.772133236,4.63279942 C0.345695864,4.63279942 0,4.28710355 0,3.86066618 C0,3.43422881 0.345695864,3.08853295 0.772133236,3.08853295 L3.86066618,3.08853295 C4.28710355,3.08853295 4.63279942,3.43422881 4.63279942,3.86066618 C4.63279942,4.28710355 4.28710355,4.63279942 3.86066618,4.63279942 Z" id="Shape"></path>
                </g>
                <path d="M11.5819985,31.6574627 L22.3918639,31.6574627 L22.3918639,33.2017292 C22.3918639,34.054604 21.7004722,34.7459956 20.8475974,34.7459956 L13.126265,34.7459956 C12.2733902,34.7459956 11.5819985,34.054604 11.5819985,33.2017292 L11.5819985,31.6574627 Z" id="Shape" fill="#BDC3C7"></path>
                <path d="M3.08853295,11.5819985 C1.3827833,11.5819985 0,10.1992152 0,8.4934656 C0,6.78771595 1.3827833,5.40493265 3.08853295,5.40493265 C6.03036058,5.40493265 7.02641245,9.26559884 5.40493265,9.26559884 C4.97849524,9.26559884 4.63279942,8.91990297 4.63279942,8.4934656 C4.63279942,7.64059078 3.94140777,6.94919913 3.08853295,6.94919913 C2.23565812,6.94919913 1.54426647,7.64059078 1.54426647,8.4934656 C1.54426647,9.34634042 2.23565812,10.0377321 3.08853295,10.0377321 L3.08853295,11.5819985 Z" id="Shape" fill="#95A5A5"></path>
                <path d="M3.08853295,20.8475974 C1.3827833,20.8475974 0,19.4648141 0,17.7590644 C0,16.0533148 1.3827833,14.6705315 3.08853295,14.6705315 C6.03036058,14.6705315 7.02641245,18.5311977 5.40493265,18.5311977 C4.97849524,18.5311977 4.63279942,18.1855018 4.63279942,17.7590644 C4.63279942,16.9061896 3.94140777,16.214798 3.08853295,16.214798 C2.23565812,16.214798 1.54426647,16.9061896 1.54426647,17.7590644 C1.54426647,18.6119393 2.23565812,19.3033309 3.08853295,19.3033309 L3.08853295,20.8475974 Z" id="Shape" fill="#95A5A5"></path>
                <path d="M3.08853295,30.1131962 C1.3827833,30.1131962 0,28.7304129 0,27.0246633 C0,25.3189136 1.3827833,23.9361303 3.08853295,23.9361303 C6.03036058,23.9361303 7.02641245,27.7967965 5.40493265,27.7967965 C4.97849524,27.7967965 4.63279942,27.4511006 4.63279942,27.0246633 C4.63279942,26.1717884 3.94140777,25.4803968 3.08853295,25.4803968 C2.23565812,25.4803968 1.54426647,26.1717884 1.54426647,27.0246633 C1.54426647,27.8775381 2.23565812,28.5689297 3.08853295,28.5689297 L3.08853295,30.1131962 Z" id="Shape" fill="#95A5A5"></path>
                <path d="M3.08853295,39.3787951 C1.3827833,39.3787951 0,37.9960118 0,36.2902621 C0,34.5845125 1.3827833,33.2017292 3.08853295,33.2017292 C6.03036058,33.2017292 7.02641245,37.0623953 5.40493265,37.0623953 C4.97849524,37.0623953 4.63279942,36.7166995 4.63279942,36.2902621 C4.63279942,35.4373873 3.94140777,34.7459956 3.08853295,34.7459956 C2.23565812,34.7459956 1.54426647,35.4373873 1.54426647,36.2902621 C1.54426647,37.1431369 2.23565812,37.8345286 3.08853295,37.8345286 L3.08853295,39.3787951 Z" id="Shape" fill="#95A5A5"></path>
            </g>
        </g>
    </g>
</svg>