<?xml version="1.0" encoding="UTF-8"?>
<svg width="62px" height="62px" viewBox="0 0 62 62" version="1.1" xmlns="http://www.w3.org/2000/svg" xmlns:xlink="http://www.w3.org/1999/xlink">
    <!-- Generator: Sketch 63.1 (92452) - https://sketch.com -->
    <title>@3xsalud padres</title>
    <desc>Created with Sketch.</desc>
    <g id="Screens" stroke="none" stroke-width="1" fill="none" fill-rule="evenodd">
        <g id="Sección-de-padres-(Alimentación)-" transform="translate(-468.000000, -1052.000000)">
            <g id="salud" transform="translate(450.000000, 1031.000000)">
                <g id="salud-padres" transform="translate(18.000000, 20.000000)">
                    <g id="Layer-5" transform="translate(0.000000, 0.953846)" fill="#00BCFD">
                        <path d="M0.133147385,30.8782256 C0.133147385,13.8657436 13.9245005,0.0743841026 30.9369826,0.0743841026 C47.9495282,0.0743841026 61.7408718,13.8657436 61.7408718,30.8782256 C61.7408718,47.8907077 47.9495282,61.6820513 30.9369826,61.6820513 C13.9245005,61.6820513 0.133147385,47.8907077 0.133147385,30.8782256 Z" id="Path"></path>
                    </g>
                    <g id="Layer-4" transform="translate(43.241026, 23.846154)" fill="#5E6CD0">
                        <path d="M0.453712821,0.502963077 C0.251497436,0.401887179 0.261989744,0.433141538 0.52334359,0.433141538" id="Path"></path>
                    </g>
                    <g id="Layer-6" transform="translate(4.133333, 16.533333)">
                        <path d="M20.6964267,11.0123128 C20.5512513,10.6637456 15.8625887,22.2208 15.8625887,22.2208 C15.27308,23.6941744 15.4035026,26.0641641 16.1538933,27.5143282 L19.3241918,33.6412 C19.3241918,33.6412 20.9735826,11.6779067 20.6964267,11.0123128 Z" id="Path" fill="#E1E3E2"></path>
                        <path d="M34.4293949,10.9036697 C34.5746974,10.5551026 39.2634872,22.1123795 39.2634872,22.1123795 C39.8529641,23.5854359 39.7222872,25.9554256 38.9719282,27.4055897 L35.8016615,33.5324615 C35.8016615,33.5324615 34.1524615,11.5692636 34.4293949,10.9036697 Z" id="Path" fill="#E1E3E2"></path>
                        <path d="M5.58960205,2.08997231 C3.45667487,2.01658974 1.24848923,3.42764615 0.39810359,6.45947795 C-0.867491282,10.9716472 8.96726667,19.1265231 9.0650359,19.2076 L9.0650359,19.250841 C9.0650359,19.250841 9.09358769,19.2365333 9.09387385,19.2362154 C9.09393744,19.2362154 9.09374667,19.2219077 9.09387385,19.2219077 C9.19119795,19.1411487 19.0264328,10.9861774 17.7607744,6.47391282 C16.4127036,1.66776821 11.4295569,0.928060513 8.97849026,3.73395795 C8.07383077,2.68822462 6.84397333,2.13311795 5.58960205,2.08997231 Z" id="Path" fill="#FFFFFF"></path>
                        <path d="M8.65733026,5.69258564 C8.45994769,5.69258564 8.2999241,5.85260923 8.2999241,6.04999179 L8.2999241,8.54073846 L5.80920923,8.51838667 C5.61182667,8.51651077 5.45367897,8.67841026 5.45180308,8.87579282 L5.42943514,10.0708985 C5.42757538,10.2683128 5.58947487,10.4376205 5.78685744,10.4394964 L8.2999241,10.4618164 L8.2999241,12.9748831 C8.2999241,13.1722974 8.45994769,13.332321 8.65733026,13.332321 L9.8524359,13.332321 C10.0498503,13.332321 10.2098738,13.1722974 10.2098738,12.9748831 L10.2098738,10.4841682 L12.7005887,10.50652 C12.8979713,10.5083959 13.067279,10.3464646 13.0691867,10.1490821 L13.0803628,8.95400821 C13.0822226,8.75659385 12.9203231,8.58728615 12.7229405,8.58541026 L10.2098738,8.56305846 L10.2098738,6.04999179 C10.2098738,5.85260923 10.0498503,5.69258564 9.8524359,5.69258564 L8.65733026,5.69258564 Z" id="Path" fill="#00A2DA"></path>
                        <path d="M38.2422359,8.86441026 C38.2422359,4.08551385 42.116441,0.211435897 46.8952103,0.211435897 C51.6742974,0.211435897 55.5481846,4.08551385 55.5481846,8.86441026 C55.5481846,13.6433067 51.6742974,17.5173846 46.8952103,17.5173846 C42.116441,17.5173846 38.2422359,13.6433067 38.2422359,8.86441026 Z" id="Path" fill="#68CD88"></path>
                    </g>
                    <g id="Layer-2" transform="translate(7.312821, 0.000000)">
                        <path d="M50.2718256,13.7797703 C50.2718256,13.7538574 50.2928103,13.7328728 50.3185641,13.7328728 C50.3446359,13.7328728 50.3656205,13.7538574 50.3656205,13.7797703 C50.3656205,13.8056513 50.3446359,13.8266359 50.3185641,13.8266359 C50.2928103,13.8266359 50.2718256,13.8056513 50.2718256,13.7797703 Z" id="Path" fill="#5E6CD0"></path>
                        <path d="M0.373494359,35.2999385 C0.373494359,35.2821333 0.383032821,35.2678256 0.394828718,35.2678256 C0.406624615,35.2678256 0.416163077,35.2821333 0.416163077,35.2999385 C0.416163077,35.3180615 0.406624615,35.3323692 0.394828718,35.3323692 C0.383032821,35.3323692 0.373494359,35.3180615 0.373494359,35.2999385 Z" id="Path" fill="#5E6CD0"></path>
                        <path d="M1.31290564,35.0210974 C1.31290564,34.9985231 1.35417538,34.9800821 1.40507897,34.9800821 C1.45598256,34.9800821 1.49722051,34.9985231 1.49722051,35.0210974 C1.49722051,35.0439897 1.45598256,35.0624308 1.40507897,35.0624308 C1.35417538,35.0624308 1.31290564,35.0439897 1.31290564,35.0210974 Z" id="Path" fill="#5E6CD0"></path>
                        <path d="M22.71556,10.1169374 L25.6212615,10.1169374 C28.2551487,10.1169374 30.3904923,12.2522174 30.3904923,14.8861682 L30.3904923,20.3921179 C30.3904923,23.0261005 28.2551487,25.1613487 25.6212615,25.1613487 L22.71556,25.1613487 C20.0815774,25.1613487 17.9463292,23.0261005 17.9463292,20.3921179 L17.9463292,14.8861682 C17.9463292,12.2522174 20.0815774,10.1169374 22.71556,10.1169374 Z" id="Path" fill="#006DD0"></path>
                        <path d="M17.3104,8.81779897 C17.3104,7.13295692 18.6799005,5.76711282 20.369321,5.76711282 C22.0587097,5.76711282 23.4282421,7.13295692 23.4282421,8.81779897 C23.4282421,10.5026092 22.0587097,11.8684533 20.369321,11.8684533 C18.6799005,11.8684533 17.3104,10.5026092 17.3104,8.81779897 Z" id="Path" fill="#006DD0"></path>
                        <path d="M16.7687426,13.7574503 C16.7687426,13.7574503 16.9030123,23.3024297 25.0537231,13.5028051 C25.0537231,13.5028051 30.1622051,16.598799 32.4301333,14.6668154 C34.2488,13.1175149 31.6556103,4.76477949 20.4399056,9.71578154 C16.6357128,11.3951231 16.7687426,13.7574503 16.7687426,13.7574503 Z" id="Path" fill="#006DD0"></path>
                        <path d="M15.0887651,18.7756985 C15.0887651,17.4364031 16.1744646,16.3507036 17.51376,16.3507036 C18.8530236,16.3507036 19.9387549,17.4364031 19.9387549,18.7756985 C19.9387549,20.1149938 18.8530236,21.2006933 17.51376,21.2006933 C16.1744646,21.2006933 15.0887651,20.1149938 15.0887651,18.7756985 Z" id="Path" fill="#006DD0"></path>
                        <path d="M27.8697949,18.6153887 C27.8697949,17.2760933 28.9555897,16.1903938 30.2947897,16.1903938 C31.6339897,16.1903938 32.7197846,17.2760933 32.7197846,18.6153887 C32.7197846,19.9546523 31.6339897,21.0403518 30.2947897,21.0403518 C28.9555897,21.0403518 27.8697949,19.9546523 27.8697949,18.6153887 Z" id="Path" fill="#006DD0"></path>
                        <polygon id="Path" fill="#006DD0" points="22.6285374 23.6938882 25.0187487 23.6938882 25.0187487 28.1594144 22.6285374 28.1594144"></polygon>
                        <path d="M30.9243282,27.9659744 L32.2225128,61.311641 C32.2225128,61.311641 27.6418256,62.6514769 23.4546,62.6649319 C19.2674697,62.6781846 15.4739282,61.3644205 15.4739282,61.3644205 L17.6469805,28.1525149 C17.6653897,27.8063005 17.9613682,27.5216728 18.3080277,27.5167764 L30.2677641,27.3476591 C30.6143282,27.3428267 30.9084308,27.6196328 30.9243282,27.9659744 Z" id="Path" fill="#006DD0"></path>
                        <path d="M31.4670667,27.8684595 L32.7569846,47.4643385 L33.4876308,58.5632923 C33.4876308,58.5632923 32.2571692,60.2353846 30.1434462,60.9609436 C28.0294051,61.6868205 25.0321026,61.4658462 25.0321026,61.4658462 L23.9064369,51.218359 L22.6342605,61.8445231 C22.6342605,61.8445231 20.5361487,61.9866462 18.5326585,61.4028923 C16.5292,60.8191385 14.6203949,59.5098256 14.6203949,59.5098256 L15.8927621,44.2260308 L17.2437579,27.9984369 C17.2437579,27.9984369 17.0030072,27.4597364 18.1928667,27.2605733 C19.3827579,27.0614103 22.0032595,27.2017846 22.0032595,27.2017846 L23.7963313,32.5754359 L25.6336615,27.2480462 L30.7306974,27.2334841 C31.1195487,27.2284287 31.4492615,27.5127385 31.4670667,27.8684595 Z" id="Path" fill="#E9EDEB"></path>
                        <path d="M19.8971672,30.1251323 C19.7654092,30.3244544 19.8904903,30.5315026 20.1765487,30.5875887 L21.7914738,30.56724 C22.0775005,30.6233262 23.8595713,35.0093333 23.8595713,35.0093333 L23.7873015,32.5992821 L22.3971344,27.4064164 C22.3971344,27.4064164 21.9796041,26.9628144 21.7301733,27.28372 L19.8971672,30.1251323 Z" id="Path" fill="#FEFFFE"></path>
                        <path d="M27.7658256,29.9691149 C27.8974564,30.1684369 27.7725026,30.3754851 27.4863487,30.4316031 L25.8714872,30.4112544 C25.5853333,30.4673405 23.8034215,34.8532205 23.8034215,34.8532205 L23.8757231,32.4431692 L25.2657949,27.250399 C25.2657949,27.250399 25.6832615,26.8067969 25.9328513,27.1277026 L27.7658256,29.9691149 Z" id="Path" fill="#FEFFFE"></path>
                    </g>
                    <g id="Layer-3" transform="translate(24.164103, 18.441026)">
                        <path d="M0.285645128,16.9326769 C0.285645128,16.4751487 0.661492308,16.1041026 1.12515692,16.1041026 C1.58878974,16.1041026 1.96466872,16.4751487 1.96466872,16.9326769 C1.96466872,17.3902051 1.58878974,17.7612513 1.12515692,17.7612513 C0.661492308,17.7612513 0.285645128,17.3902051 0.285645128,16.9326769 Z" id="Path" fill="#5E6CD0"></path>
                        <path d="M3.31855795,12.5411692 C2.19956923,12.4356103 1.19335692,13.2234872 1.07304513,14.2997436 L0.854455385,16.8035897 L1.49035282,16.8535077 L1.70894256,14.3595179 C1.78909744,13.6431795 2.47841026,13.1036205 3.25894256,13.1770667 C4.03540513,13.2505128 4.59133846,13.8978564 4.51086564,14.6176923 L4.30222769,17.0223385 L4.93812513,17.0719385 L5.14676308,14.6774667 C5.26675692,13.6043897 4.44164821,12.6470462 3.31855795,12.5411692 Z" id="Path" fill="#5E6CD0"></path>
                        <path d="M3.65151385,17.3507795 C3.65151385,16.8929333 4.02739282,16.5222051 4.49102564,16.5222051 C4.95469026,16.5222051 5.33056923,16.8929333 5.33056923,17.3507795 C5.33056923,17.8083077 4.95469026,18.1793538 4.49102564,18.1793538 C4.02739282,18.1793538 3.65151385,17.8083077 3.65151385,17.3507795 Z" id="Path" fill="#5E6CD0"></path>
                        <path d="M8.71370256,8.41572103 C8.28478974,8.38507077 7.86732308,8.39537231 7.46187487,8.44551282 C7.31212103,8.46401744 7.19705538,8.48182256 7.13397436,8.49520821 L7.19358974,8.49520821 C5.59914051,8.53660513 4.46272821,9.35589538 3.73589744,10.6811056 C3.47902667,11.1494441 3.28972,11.6527887 3.15961538,12.1516185 C3.08127282,12.4518256 3.04690256,12.6867897 3.03043282,12.8273231 C3.01005231,13.001559 3.13424308,13.1544923 3.30863795,13.175159 C3.48306462,13.1955077 3.63599795,13.0711897 3.65641026,12.8966359 C3.65939897,12.8712 3.67253026,12.8146051 3.68623385,12.7376615 C3.70957128,12.6073026 3.73443487,12.4686769 3.77564103,12.3105928 C3.89337744,11.859201 4.06278051,11.4075867 4.29230769,10.9891026 C4.91825333,9.84782564 5.85756923,9.16604821 7.20350974,9.13110564 L7.26315692,9.12115385 C7.30903692,9.11142462 7.40060615,9.09759385 7.53141026,9.08141026 C8.2584,8.99155795 9.06281026,9.02007795 9.80681026,9.26025641 C11.4509231,9.79107179 12.3895077,11.1981538 12.2807692,13.8406256 C12.2734564,14.0161333 12.4133538,14.1614359 12.5888615,14.1684308 C12.7643692,14.1757436 12.9093538,14.0361641 12.9166667,13.8606564 C13.0368513,10.9374677 11.9262564,9.27427795 10.0055282,8.65418256 C9.58265641,8.51768718 9.14293333,8.44633949 8.71370256,8.41572103 Z" id="Path" fill="#5E6CD0"></path>
                        <path d="M11.6312,14.3340821 C11.6312,13.8234564 12.0575692,13.4094872 12.5837744,13.4094872 C13.1099795,13.4094872 13.5363487,13.8234564 13.5363487,14.3340821 C13.5363487,14.8447077 13.1099795,15.2586769 12.5837744,15.2586769 C12.0575692,15.2586769 11.6312,14.8447077 11.6312,14.3340821 Z" id="Path" fill="#5E6CD0"></path>
                        <path d="M26.9232615,0.562101538 L26.9232615,0.562101538 C27.8542154,1.33560718 27.9820308,2.71738051 27.2084615,3.64839795 L23.1202769,8.5690041 C22.3467077,9.50005333 20.9649026,9.62774154 20.0339487,8.8542359 L20.0339487,8.8542359 C19.1029949,8.08076205 18.9751795,6.69895692 19.7487487,5.76793949 L23.8369333,0.847333333 C24.6105026,-0.0837158974 25.9919897,-0.211404103 26.9232615,0.562101538 Z" id="Path" fill="#FEFFFE"></path>
                        <path d="M25.3262051,0.0715384615 C24.7675692,0.123173333 24.2270564,0.38185641 23.8401128,0.847365128 L21.9991897,3.05653641 L25.4839077,5.71274359 L27.2065538,3.64827077 C27.9801231,2.71722154 27.8481744,1.33156923 26.9172205,0.558095385 C26.4517436,0.171342564 25.8845231,0.0199353846 25.3262051,0.0715384615 Z" id="Path" fill="#D23689"></path>
                        <path d="M32.7121538,12.8022051 L32.7121538,12.8022051 C31.9077436,13.3376308 30.8213128,13.1195179 30.2855692,12.3149169 L27.4551897,8.06222564 C26.9197641,7.25756103 27.1378769,6.17113026 27.9426051,5.63557744 L27.9426051,5.63557744 C28.7470154,5.10002462 29.8334462,5.31816923 30.3691897,6.12283385 L33.1995692,10.3755569 C33.7349949,11.1801897 33.5168821,12.2666523 32.7121538,12.8022051 Z" id="Path" fill="#FEFFFE"></path>
                        <path d="M33.4526564,11.6924051 C33.5407282,11.2532544 33.4666462,10.7804646 33.1986154,10.3781323 L31.9293641,8.46455795 L29.1002564,10.5236256 L30.2862051,12.3135497 C30.8216308,13.1182462 31.9121949,13.3341333 32.7166051,12.7987077 C33.1191282,12.5306769 33.3645846,12.1315241 33.4526564,11.6924051 Z" id="Path" fill="#5E6CD0"></path>
                    </g>
                </g>
            </g>
        </g>
    </g>
</svg>