<?xml version="1.0" encoding="UTF-8"?>
<svg width="62px" height="63px" viewBox="0 0 62 63" version="1.1" xmlns="http://www.w3.org/2000/svg" xmlns:xlink="http://www.w3.org/1999/xlink">
    <!-- Generator: Sketch 63.1 (92452) - https://sketch.com -->
    <title>@3xsocioemocional</title>
    <desc>Created with Sketch.</desc>
    <g id="Screens" stroke="none" stroke-width="1" fill="none" fill-rule="evenodd">
        <g id="Sección-de-padres-(Alimentación)-" transform="translate(-752.000000, -1051.000000)">
            <g id="socioemocional" transform="translate(735.000000, 1031.000000)">
                <g transform="translate(17.000000, 20.000000)">
                    <g id="Layer-9" transform="translate(0.000000, 0.635897)" fill="#F08936">
                        <path d="M0.0603625641,31.1338564 C0.0603625641,14.1110092 13.8600523,0.311338564 30.8828041,0.311338564 C47.9056513,0.311338564 61.7052615,14.1110092 61.7052615,31.1338564 C61.7052615,48.1565128 47.9056513,61.9561231 30.8828041,61.9561231 C13.8600523,61.9561231 0.0603625641,48.1565128 0.0603625641,31.1338564 Z" id="Path"></path>
                    </g>
                    <g id="Layer-4" transform="translate(7.312821, 0.000000)">
                        <path d="M15.2664985,0.188877436 C11.8433672,0.188877436 9.07416103,2.95806769 9.07416103,6.38119897 C9.07416103,8.53088205 10.1686041,10.4233128 11.8305856,11.5350523 C11.8336379,11.9211056 11.8805672,12.3396215 11.8690574,12.6760749 C0.00893435897,12.287001 1.60732615,21.4196646 0.510053333,28.4710041 C-0.571226667,35.4194872 1.09978462,38.3042359 1.09978462,38.3042359 L5.03570359,44.6504923 L21.6126595,46.2275179 L23.0870195,30.6376656 L23.1895897,21.3812246 C22.8326287,16.4112728 19.6294862,14.3311251 16.8562421,13.4196933 C16.9258092,13.016121 17.0065364,12.7988667 17.0613826,12.2914841 C19.6045908,11.5189641 21.4716492,9.17685846 21.4716492,6.38119897 C21.4716492,2.95806769 18.6896297,0.188877436 15.2664985,0.188877436 Z" id="Path" fill="#2CB1CD"></path>
                        <path d="M30.7920615,0.21452 C27.3690256,0.21452 24.6000103,2.99653949 24.6000103,6.41967077 C24.5996923,9.40498667 26.7124615,11.8822523 29.5228103,12.4709662 L29.6382256,13.0606974 C24.7583487,14.3566246 23.5466144,17.8272256 23.4716421,19.8299528 C23.2243097,26.4367682 23.5357405,31.0992 23.5357405,31.0992 C23.5357405,31.0992 29.6595282,44.919159 30.1895487,45.2018154 C30.7195692,45.4844718 35.3479487,45.9804718 36.2665026,46.0863487 C37.1850564,46.1925436 40.7778769,44.1452718 41.484359,43.6505436 C42.191159,43.1558154 44.5614667,36.9710769 44.5614667,36.9710769 L45.446,29.2658759 C45.446,29.2658759 45.5906667,23.752359 43.8947282,17.9581569 C42.4620513,13.0625097 37.8352615,12.3174923 34.8179282,12.3683959 L34.5486256,11.3170985 C36.022,10.183961 36.9974667,8.42198462 36.9974667,6.41967077 C36.9974667,2.99653949 34.2154154,0.21452 30.7920615,0.21452 Z" id="Path" fill="#57AC3D"></path>
                    </g>
                    <g id="Layer-6" transform="translate(7.312821, 0.000000)">
                        <path d="M13.8105869,0.362970753 C11.1458587,1.05471588 9.07416103,3.49829436 9.07416103,6.38119897 C9.07416103,8.32132205 9.99910564,10.0142082 11.3946779,11.1504297 C10.7102933,10.1293692 9.72802256,8.27684103 10.1126451,6.02223487 C10.6826318,2.68100718 13.4532477,1.04966273 15.9569348,0.227186624 C15.4639378,0.185979026 15.0936057,0.173209296 14.8459385,0.188877436 C14.6166395,0.203383547 14.2715223,0.261414653 13.8105869,0.362970753 Z M11.843399,11.8042913 C11.8474687,11.8929672 11.8385344,11.9727723 11.843399,12.0606851 C11.8952564,12.0460277 11.9452379,12.023199 11.9972544,12.0094318 C11.9972544,12.0094318 11.8922041,11.8617128 11.843399,11.8042913 Z M9.80493436,12.7145467 C0.204091282,13.4231272 1.53874462,21.8603733 0.510053333,28.4710041 C-0.571226667,35.4194872 1.09978462,38.3042359 1.09978462,38.3042359 L5.03570359,44.6504923 L15.2024,45.6119692 L12.8562246,33.7915897 C12.8562246,33.7915897 4.07848718,31.8918462 3.61262872,25.1376615 C3.20864308,19.2807918 6.20737641,14.6673559 10.1382718,12.7145467 C10.0323949,12.7203651 9.90826769,12.7069159 9.80493436,12.7145467 Z" id="Shape" fill="#349FBC"></path>
                        <path d="M27.8173884,0.986661784 C25.8992038,2.04194312 24.6000103,4.07537128 24.6000103,6.41967077 C24.5996923,9.40498667 26.7124615,11.8822523 29.5228103,12.4709662 L29.6255077,12.9837856 C29.8162769,12.7836051 30.1126051,12.4709662 30.1126051,12.4709662 C27.0908205,11.2138287 26.5102462,7.9453159 26.5102462,7.9453159 C25.3990154,4.18248821 28.8708067,0.57041472 28.7884866,0.563551683 C28.7427935,0.559694275 28.5223131,0.62847919 28.1039188,0.826561874 C28.0478371,0.853112899 27.952327,0.906479536 27.8173884,0.986661784 Z M29.5228103,13.0991692 C24.7475385,14.4208185 23.5459785,17.8444903 23.4716421,19.8299528 C23.2243097,26.4367682 23.5357405,31.0992 23.5357405,31.0992 C23.5357405,31.0992 24.7920513,33.9089128 25.9331692,36.4324718 L25.4845436,30.5479087 L24.8050872,21.8812308 C24.7097026,18.5262041 28.2341641,14.4730256 29.5228103,13.0991692 Z" id="Shape" fill="#5A9E43"></path>
                    </g>
                    <g id="Layer-7" transform="translate(18.758974, 27.979487)">
                        <path d="M16.6408,0.0427958974 C13.5907179,0.0891210256 11.8170092,2.61484205 11.6408656,2.8761641 C11.2805026,2.3826441 8.94631385,-0.573833846 5.19213436,0.427418462 C2.14981026,1.23879179 -0.542579487,3.56388718 0.371618462,8.60687179 C1.04512923,12.3224205 5.32920205,16.2738872 12.0254882,20.0686051 C12.0309887,20.0714667 12.032801,20.0781436 12.0383015,20.0813231 L12.0383015,20.0555692 L12.1665303,19.9786256 C12.1665303,19.9786256 22.5295282,11.7752308 23.0897538,8.28637949 C23.9021128,3.22590769 21.1477231,0.959410256 18.0896923,0.209464615 C17.5774769,0.0838430769 17.0996,0.0358328205 16.6408,0.0427958974 Z" id="Path" fill="#B82E79"></path>
                        <path d="M6.53829744,0.222277949 C6.11447179,0.236299487 5.66142667,0.302242051 5.19213436,0.427418462 C2.14981026,1.23879179 -0.542579487,3.56388718 0.371618462,8.60687179 C1.04512923,12.3224205 5.32920205,16.2738872 12.0254882,20.0686051 C12.0309887,20.0714667 12.032801,20.0781436 12.0383015,20.0813231 L12.0383015,20.0555692 L12.1665303,19.9786256 C12.1676431,19.9767179 12.1782308,19.9808513 12.1793436,19.9786256 C16.5209333,12.3748821 12.8292308,4.38514872 11.8844779,2.55560821 C11.7929087,2.6740441 11.6663969,2.83829641 11.6408656,2.8761641 C11.3255241,2.44432615 9.50501333,0.124158974 6.53829744,0.222277949 Z" id="Path" fill="#D33689"></path>
                    </g>
                    <g id="Layer-8" transform="translate(6.041026, 27.661538)">
                        <path d="M26.1601846,32.3942051 C26.1601846,32.3942051 7.22719692,31.3389333 0.907870769,12.1443692 C0.907870769,12.1443692 -1.3175159,2.23654667 2.31972205,1.26400513 C2.31972205,1.26400513 3.76565744,0.94977641 3.59097641,3.31207179 C3.59097641,3.31207179 2.94595385,8.92195897 5.30351179,12.0753744 C7.66106974,15.2284718 13.0212082,15.9247795 13.0212082,15.9247795 C13.0212082,15.9247795 7.35577538,10.3171179 9.46778154,8.51180513 C9.46778154,8.51180513 10.6659395,8.00531282 11.9627569,9.83987692 C11.9627569,9.83987692 21.2849497,19.7519282 25.0757887,20.5239077 C26.2326769,20.7595077 27.2806359,28.4659487 26.1601846,32.3942051 Z" id="Path" fill="#89247A"></path>
                        <path d="M24.8302687,32.2469949 C28.8509846,33.0809744 41.7666974,31.2696205 47.4738769,11.3361436 C47.4738769,11.3361436 49.3768,1.08286974 45.6847795,0.209782564 C45.6847795,0.209782564 44.2196718,-0.0629538462 44.4753026,2.35733538 C44.4753026,2.35733538 45.3143692,8.0972 43.0493026,11.4172205 C40.7845538,14.737559 35.4156718,15.6379897 35.4156718,15.6379897 C35.4156718,15.6379897 40.9250872,9.68249231 38.7391897,7.90134359 C38.7391897,7.90134359 37.0003282,7.49659487 35.7577846,9.42558974 C35.7577846,9.42558974 27.0192821,19.052759 23.9178831,21.1950974 C20.8165477,23.3374359 20.8096164,31.4133333 24.8302687,32.2469949 Z" id="Path" fill="#FBCD42"></path>
                        <path d="M26.1601846,32.3942051 C26.1601846,32.3942051 7.22719692,31.3389333 0.907870769,12.1443692 C0.907870769,12.1443692 -1.3175159,2.23654667 2.31972205,1.26400513 C2.31972205,1.26400513 3.76565744,0.94977641 3.59097641,3.31207179 C3.59097641,3.31207179 2.94595385,8.92195897 5.30351179,12.0753744 C7.66106974,15.2284718 13.0212082,15.9247795 13.0212082,15.9247795 C13.0212082,15.9247795 7.35577538,10.3171179 9.46778154,8.51180513 C9.46778154,8.51180513 10.6659395,8.00531282 11.9627569,9.83987692 C11.9627569,9.83987692 18.0770062,16.1244513 22.4379272,18.953241 C23.4098646,19.5837333 24.4493026,20.3449026 25.1402051,20.4857538 C26.2972205,20.7213538 27.2806359,28.4659487 26.1601846,32.3942051 Z" id="Path" fill="#89247A"></path>
                    </g>
                </g>
            </g>
        </g>
    </g>
</svg>