<?xml version="1.0" encoding="UTF-8"?>
<svg width="48px" height="42px" viewBox="0 0 48 42" version="1.1" xmlns="http://www.w3.org/2000/svg" xmlns:xlink="http://www.w3.org/1999/xlink">
    <!-- Generator: Sketch 63.1 (92452) - https://sketch.com -->
    <title>web@3x</title>
    <desc>Created with Sketch.</desc>
    <g id="Symbols" stroke="none" stroke-width="1" fill="none" fill-rule="evenodd">
        <g id="butterfly-copy-2" transform="translate(-121.000000, -12.000000)">
            <g id="web" transform="translate(121.000000, 12.000000)">
                <path d="M47.18592,4.1472 C47.18592,1.85674752 45.3291725,0 43.03872,0 L4.1472,0 C1.85674752,0 0,1.85674752 0,4.1472 L0,12.4416 L0.9216,13.3632 L46.26432,13.3632 C46.6242048,13.0033152 46.8260352,12.8014848 47.18592,12.4416 L47.18592,4.1472 Z" id="Path" fill="#0052C2" fill-rule="nonzero"></path>
                <path d="M0,12.4416 L0,37.3248 C0,39.6115661 1.86043392,41.472 4.1472,41.472 L43.03872,41.472 C45.3254861,41.472 47.18592,39.6115661 47.18592,37.3248 L47.18592,12.4416 L0,12.4416 Z" id="Path" fill="#E0F4FF" fill-rule="nonzero"></path>
                <path d="M18.06336,27.648 L7.00416,27.648 C6.24070656,27.648 5.62176,28.2669466 5.62176,29.0304 L5.62176,34.56 C5.62176,35.3234534 6.24070656,35.9424 7.00416,35.9424 L18.06336,35.9424 C18.8268134,35.9424 19.44576,35.3234534 19.44576,34.56 L19.44576,29.0304 C19.44576,28.2669466 18.8268134,27.648 18.06336,27.648 Z" id="Path" fill="#FFDA2D" fill-rule="nonzero"></path>
                <path d="M31.88736,16.5888 L7.00416,16.5888 C6.24070656,16.5888 5.62176,17.2077466 5.62176,17.9712 C5.62176,18.7346534 6.24070656,19.3536 7.00416,19.3536 L31.88736,19.3536 C32.6508134,19.3536 33.26976,18.7346534 33.26976,17.9712 C33.26976,17.2077466 32.6508134,16.5888 31.88736,16.5888 Z" id="Path" fill="#00B8F0" fill-rule="nonzero"></path>
                <path d="M26.35776,22.1184 L7.00416,22.1184 C6.24070656,22.1184 5.62176,22.7373466 5.62176,23.5008 C5.62176,24.2642534 6.24070656,24.8832 7.00416,24.8832 L26.35776,24.8832 C27.1212134,24.8832 27.74016,24.2642534 27.74016,23.5008 C27.74016,22.7373466 27.1212134,22.1184 26.35776,22.1184 Z" id="Path" fill="#00B8F0" fill-rule="nonzero"></path>
                <circle id="Oval" fill="#58CB7D" cx="7.00416" cy="6.912" r="1.3824"></circle>
                <circle id="Oval" fill="#FDBF00" fill-rule="nonzero" cx="12.53376" cy="6.912" r="1.3824"></circle>
                <circle id="Oval" fill="#F03800" fill-rule="nonzero" cx="18.06336" cy="6.912" r="1.3824"></circle>
            </g>
        </g>
    </g>
</svg>