<?xml version="1.0" encoding="UTF-8"?>
<svg width="240px" height="61px" viewBox="0 0 240 61" version="1.1" xmlns="http://www.w3.org/2000/svg" xmlns:xlink="http://www.w3.org/1999/xlink">
    <!-- Generator: Sketch 63.1 (92452) - https://sketch.com -->
    <title>carta_alumnos@2x</title>
    <desc>Created with Sketch.</desc>
    <g id="Screens" stroke="none" stroke-width="1" fill="none" fill-rule="evenodd">
        <g id="Introducción-" transform="translate(-340.000000, -1145.000000)">
            <g id="carta_alumnos" transform="translate(340.000000, 1145.000000)">
                <rect id="Rectangle" fill="#00A2AA" x="0" y="13" width="240" height="48" rx="24"></rect>
                <circle id="Oval" fill="#037D83" cx="24" cy="37" r="24"></circle>
                <g id="icono-sobre_Mesa-de-trabajo-1" transform="translate(3.000000, 0.000000)">
                    <path d="M1.000512,10.409472 C0.917568,10.38096 -0.554688,11.866176 0.834624,14.053824 L2.402784,12.902976 L1.000512,10.409472 Z" id="Path" fill="#C7D0DD" fill-rule="nonzero"></path>
                    <polygon id="Path" fill="#AEB6C1" fill-rule="nonzero" points="38.278656 13.610592 38.1024 13.913856 23.421312 28.708992 2.908224 25.458624 2.337984 25.404192 15.544224 8.28144"></polygon>
                    <path d="M1.104192,10.202112 L26.588736,0.225504 C26.8539713,0.119888246 27.1561267,0.231797666 27.288576,0.484704 C28.963008,3.854304 39.382848,25.087968 39.924576,32.817312 L13.190688,41.9904 C13.190688,41.9904 7.350912,22.410432 1.871424,12.063168 C1.60834982,11.6302921 1.24804224,11.2646598 0.819072,10.995264 C0.5184,10.824192 0.7776,10.326528 1.104192,10.202112 Z" id="Path" fill="#F2F2F2" fill-rule="nonzero"></path>
                    <path d="M44.75088,35.300448 L10.01808,46.767456 C9.79811744,46.8411195 9.55785633,46.8239873 9.35057153,46.7198583 C9.14328674,46.6157293 8.9861081,46.4332087 8.913888,46.212768 L2.174688,25.754112 L2.3328,25.4016 L2.90304,25.456032 L23.416128,28.7064 L38.1024,13.913856 L38.278656,13.610592 L38.556,13.7376 L45.30816,34.196256 C45.4582882,34.6549913 45.2090955,35.1487406 44.75088,35.300448 Z" id="Path" fill="#95C11F" fill-rule="nonzero"></path>
                    <path d="M2.724192,25.808544 L22.993632,29.274048 C23.3824889,29.3403767 23.7792343,29.2126441 24.056352,28.931904 L38.3616,14.375232" id="Path" stroke="#000000" stroke-width="0.72" stroke-linecap="round" stroke-linejoin="round"></path>
                    <path d="M5.139936,12.265344 L4.48416,10.852704 C4.810752,10.702368 12.51936,7.125408 15.767136,6.003072 L16.285536,7.475328 C13.099968,8.569152 5.220288,12.226464 5.139936,12.265344 Z" id="Path" fill="#C7D0DD" fill-rule="nonzero"></path>
                    <path d="M6.689952,16.363296 L6.073056,14.937696 C6.809184,14.616288 24.160032,7.112448 27.817344,6.156 L28.211328,7.65936 C24.668064,8.587296 6.871392,16.285536 6.689952,16.363296 Z" id="Path" fill="#C7D0DD" fill-rule="nonzero"></path>
                    <path d="M7.755264,19.502208 L7.138368,18.074016 C7.874496,17.7552 25.225344,10.25136 28.882656,9.29232 L29.2896,10.798272 C25.730784,11.723616 7.934112,19.424448 7.755264,19.502208 Z" id="Path" fill="#C7D0DD" fill-rule="nonzero"></path>
                    <path d="M9.183456,22.361184 L8.56656,20.932992 C9.302688,20.614176 26.653536,13.107744 30.310848,12.151296 L30.704832,13.657248 C27.161568,14.582592 9.364896,22.2912 9.183456,22.361184 Z" id="Path" fill="#C7D0DD" fill-rule="nonzero"></path>
                    <path d="M9.906624,25.7256 L9.302688,24.292224 C9.375264,24.26112 16.560288,21.244032 20.23056,19.85472 L20.780064,21.308832 C17.135712,22.690368 9.976608,25.697088 9.906624,25.7256 Z" id="Path" fill="#C7D0DD" fill-rule="nonzero"></path>
                    <line x1="32.946912" y1="12.371616" x2="34.963488" y2="17.050176" id="Path" stroke="#A0ACBA" stroke-width="0.72"></line>
                    <path d="M1.000512,10.409472 C0.917568,10.38096 -0.554688,11.866176 0.834624,14.053824" id="Path" stroke="#F2F2F2" stroke-width="0.72"></path>
                    <line x1="5.834592" y1="20.678976" x2="7.85376" y2="26.186976" id="Path" stroke="#A0ACBA" stroke-width="0.72"></line>
                </g>
                <text id="Carta-para-alumnos" font-family="Montserrat-Medium, Montserrat" font-size="16" font-weight="400" fill="#FFFFFF">
                    <tspan x="55" y="43">Carta para alumnos</tspan>
                </text>
            </g>
        </g>
    </g>
</svg>